<?xml version="1.0" encoding="UTF-8"?>
<!DOCTYPE svg PUBLIC "-//W3C//DTD SVG 1.1//EN" "http://www.w3.org/Graphics/SVG/1.1/DTD/svg11.dtd">
<!-- Creator: CorelDRAW -->
<svg xmlns="http://www.w3.org/2000/svg" xml:space="preserve" width="7.16535in" height="1.29921in" style="shape-rendering:geometricPrecision; text-rendering:geometricPrecision; image-rendering:optimizeQuality; fill-rule:evenodd; clip-rule:evenodd"
viewBox="0 0 7.16535 1.29921"
 xmlns:xlink="http://www.w3.org/1999/xlink">
 <defs>
  <style type="text/css">
   <![CDATA[
    .str1 {stroke:white;stroke-width:0.0138858}
    .str0 {stroke:white;stroke-width:0.0347205}
    .fil5 {fill:none}
    .fil1 {fill:#E77817}
    .fil0 {fill:#0297AB}
    .fil3 {fill:white}
    .fil4 {fill:white;fill-rule:nonzero}
    .fil2 {fill:white;fill-rule:nonzero}
   ]]>
  </style>
 </defs>
 <g id="Layer_x0020_1">
  <metadata id="CorelCorpID_0Corel-Layer"/>
  <path class="fil0 str0" d="M0.243551 0.0442717l0.786937 0c0.116528,0 0.211866,0.0953386 0.211866,0.211866l0 0.786937c0,0.116528 -0.0953386,0.211866 -0.211866,0.211866l-0.786937 0c-0.116528,0 -0.211866,-0.0953386 -0.211866,-0.211866l0 -0.786937c0,-0.116528 0.0953386,-0.211866 0.211866,-0.211866z"/>
  <path class="fil1" d="M0.666075 0.286311c0.21665,0 0.392339,0.175701 0.392339,0.392354 0,0.216661 -0.175689,0.392354 -0.392339,0.392354 -0.216642,0 -0.392331,-0.175693 -0.392331,-0.392354 0,-0.216654 0.175689,-0.392354 0.392331,-0.392354z"/>
  <path class="fil2" d="M0.463559 0.849634l0.0182323 -0.0181732 0.298945 0 0 0.0363425 -0.298945 0 -0.0182323 -0.0181693zm0.0182323 -0.0181732l0 0.0363425 -0.000929134 -1.9685e-005 -0.00092126 -7.48031e-005 -0.000909449 -0.000110236 -0.000893701 -0.000165354 -0.000877953 -0.000204724 -0.000874016 -0.000240157 -0.000834646 -0.000287402 -0.000830709 -0.000326772 -0.000799213 -0.000358268 -0.000783465 -0.000409449 -0.000767717 -0.000433071 -0.000732283 -0.000472441 -0.000712598 -0.000503937 -0.000688976 -0.000543307 -0.000665354 -0.000566929 -0.000622047 -0.000602362 -0.000610236 -0.000633858 -0.000566929 -0.00065748 -0.000535433 -0.000685039 -0.000507874 -0.000716535 -0.000472441 -0.00073622 -0.000440945 -0.000759843 -0.000405512 -0.000783465 -0.000354331 -0.000807087 -0.000326772 -0.000826772 -0.000291339 -0.000838583 -0.000244094 -0.000870079 -0.000200787 -0.000877953 -0.00015748 -0.000893701 -0.00011811 -0.000905512 -7.48031e-005 -0.000925197 -1.5748e-005 -0.000933071 1.5748e-005 -0.000937008 7.48031e-005 -0.00092126 0.00011811 -0.000909449 0.00015748 -0.000893701 0.000200787 -0.000877953 0.000244094 -0.000870079 0.000291339 -0.000838583 0.000326772 -0.000826772 0.000354331 -0.00080315 0.000405512 -0.000783465 0.000440945 -0.000759843 0.000472441 -0.000740157 0.000507874 -0.000712598 0.000535433 -0.000688976 0.000566929 -0.00065748 0.000610236 -0.000629921 0.000622047 -0.000606299 0.000665354 -0.000566929 0.000688976 -0.00053937 0.000712598 -0.000507874 0.000732283 -0.000472441 0.000767717 -0.000433071 0.000783465 -0.000405512 0.000799213 -0.000362205 0.000830709 -0.000326772 0.000834646 -0.000287402 0.000874016 -0.000240157 0.000877953 -0.000204724 0.000893701 -0.000161417 0.000909449 -0.000114173 0.00092126 -7.08661e-005 0.000929134 -2.3622e-005zm-0.000208661 -0.118768l0.0184528 0.0181732 0 0.118768 -0.0364764 0 0 -0.118768 0.0180236 -0.0181732zm0.0184528 0.0181732l-0.0364764 0 1.5748e-005 -0.000940945 7.48031e-005 -0.00092126 0.00011811 -0.000913386 0.00015748 -0.000901575 0.000200787 -0.000877953 0.000255906 -0.000866142 0.000279528 -0.000846457 0.000334646 -0.000826772 0.000358268 -0.000811024 0.000401575 -0.000787402 0.000437008 -0.000759843 0.000480315 -0.000744094 0.000507874 -0.000716535 0.000543307 -0.000685039 0.000574803 -0.000661417 0.000598425 -0.000633858 0.000633858 -0.000602362 0.000661417 -0.000574803 0.000692913 -0.000543307 0.000712598 -0.000511811 0.000740157 -0.000472441 0.00076378 -0.000437008 0.000787402 -0.000401575 0.000811024 -0.000366142 0.000822835 -0.000326772 0.000850394 -0.000287402 0.000862205 -0.000248031 0.000877953 -0.000200787 0.000905512 -0.000165354 0.000909449 -0.000110236 0.00092126 -7.48031e-005 0.000940945 -2.3622e-005 0.000944882 2.3622e-005 0.000925197 7.48031e-005 0.000913386 0.000110236 0.000893701 0.000165354 0.000885827 0.000200787 0.000858268 0.000248031 0.000846457 0.000287402 0.000826772 0.000326772 0.000811024 0.000366142 0.000791339 0.000401575 0.00076378 0.000437008 0.000744094 0.000472441 0.000712598 0.000511811 0.000688976 0.000543307 0.000653543 0.000574803 0.000641732 0.000602362 0.000598425 0.000633858 0.000574803 0.000661417 0.00053937 0.000685039 0.000511811 0.000716535 0.000472441 0.000744094 0.000440945 0.000759843 0.000405512 0.000787402 0.000366142 0.000811024 0.000318898 0.000826772 0.000295276 0.000846457 0.000244094 0.000866142 0.000204724 0.000877953 0.000161417 0.000901575 0.000114173 0.000913386 6.69291e-005 0.00092126 2.75591e-005 0.000940945zm-0.146287 -0.135839l0.0363425 0.00156693 0 0 -0.000216535 0.0114803 0.000452756 0.0105551 0.000940945 0.00971654 0.00152362 0.00899606 0.00191732 0.00821654 0.00227165 0.00745276 0.00266535 0.00687795 0.00299606 0.00624409 0.0032874 0.00564173 0.0034685 0.00513386 0.00367717 0.00464961 0.00391339 0.00426378 0.00403937 0.00382677 0.00418898 0.00343307 0.00427953 0.00304331 0.00435433 0.00275984 0.00444094 0.00244094 0.00440551 0.00219291 0.00435039 0.00185827 0.00429528 0.0016063 0.00422441 0.00129921 0.00409055 0.00117323 0.00384252 0.000925197 0.00355118 0.000708661 0.00329921 0.000511811 0.00299606 0.000405512 0.00257874 0.00034252 0.00218898 0.000141732 0.00167323 0.000129921 0.00120866 5.51181e-005 0.000602362 1.5748e-005 -1.5748e-005 0 0.00042126 0.0363465 -0.000685039 0 -0.00133071 -1.5748e-005 -0.00190551 -5.90551e-005 -0.00253543 -0.000129921 -0.00305118 -0.000283465 -0.00357087 -0.000346457 -0.00399213 -0.000551181 -0.00443307 -0.000791339 -0.00483465 -0.000992126 -0.0051378 -0.00121654 -0.00537008 -0.00145276 -0.00563386 -0.00187795 -0.00587008 -0.00216535 -0.00605512 -0.00256693 -0.00612205 -0.00292126 -0.00615354 -0.0034252 -0.00620079 -0.00390945 -0.0061378 -0.0044685 -0.00603543 -0.00499213 -0.00588976 -0.00554331 -0.00563386 -0.00612205 -0.00538583 -0.00677953 -0.00503543 -0.00741339 -0.00457087 -0.00806693 -0.00413386 -0.00866535 -0.00366142 -0.00929921 -0.00312992 -0.0100236 -0.00248819 -0.0106378 -0.00181102 -0.0112677 -0.00122441 -0.0120039 -0.000452756 -0.0126929 0.000216535 -0.0133307zm0.198039 -0.0860118l0.0337756 0.0133898 -0.0311339 0.00463386 -0.00201181 -0.00225197 -0.00282677 -0.00249606 -0.00344488 -0.00249213 -0.00417323 -0.00254724 -0.00475591 -0.00243307 -0.00529528 -0.00222835 -0.00572441 -0.00206299 -0.00623228 -0.0018189 -0.00649213 -0.00154331 -0.00682677 -0.00116929 -0.00704724 -0.000929134 -0.00714567 -0.000507874 -0.00735039 -0.000149606 -0.00733071 0.00030315 -0.0072874 0.000716535 -0.00718504 0.0010748 -0.0071063 0.00159843 -0.00689764 0.00201181 -0.00672835 0.0024252 -0.00640945 0.00295276 -0.00613386 0.00342126 -0.00574409 0.00384646 -0.00541339 0.00443701 -0.00505906 0.00490157 -0.00471654 0.00553543 -0.00426378 0.00611417 -0.00381102 0.00672047 -0.00333071 0.00756693 -0.00284646 0.00828346 -0.00227165 0.0091811 -0.00154331 0.0100827 -0.000933071 0.0110118 -0.0363425 -0.00156693 0.00107874 -0.0137244 0.00211811 -0.0129331 0.00297244 -0.0121654 0.0038622 -0.0114252 0.00474409 -0.0105551 0.00552362 -0.00985827 0.00625984 -0.00896457 0.00685039 -0.0081063 0.00748819 -0.0073189 0.00798031 -0.00643307 0.00844094 -0.00569291 0.00870472 -0.00485433 0.00897638 -0.00408661 0.00914567 -0.00342913 0.00932677 -0.00272047 0.00937795 -0.00202756 0.00946457 -0.00150394 0.00942913 -0.000862205 0.00933071 -0.00030315 0.00919291 0.000153543 0.00913386 0.000653543 0.00891339 0.0010748 0.00867717 0.00159843 0.00848031 0.00197244 0.00808661 0.00238189 0.0078622 0.00277953 0.00744488 0.00322047 0.00702756 0.00357087 0.00659449 0.00397638 0.00615354 0.00448819 0.00553543 0.00491732 0.00500787 0.00552756 -0.0311457 0.0046378zm0.00264173 0.0180236l0.0285039 -0.0226614 0.000555118 0.000751969 0.000531496 0.00076378 0.000472441 0.000783465 0.000429134 0.000807087 0.000393701 0.000814961 0.00034252 0.000826772 0.00030315 0.000838583 0.000251969 0.000850394 0.000220472 0.000858268 0.000177165 0.000866142 0.000133858 0.000866142 7.87402e-005 0.000874016 5.51181e-005 0.000877953 7.87402e-006 0.000874016 -3.93701e-005 0.000874016 -8.66142e-005 0.000870079 -0.00011811 0.000862205 -0.000161417 0.000862205 -0.000204724 0.000850394 -0.000240157 0.000846457 -0.000275591 0.000826772 -0.000334646 0.000814961 -0.000358268 0.000807087 -0.000401575 0.000787402 -0.000444882 0.000771654 -0.000484252 0.000748031 -0.000527559 0.000732283 -0.000559055 0.000704724 -0.000602362 0.000681102 -0.000645669 0.00065748 -0.000677165 0.000633858 -0.000720472 0.000602362 -0.000748031 0.000562992 -0.000759843 0.000523622 -0.000783465 0.000472441 -0.000807087 0.000433071 -0.000814961 0.000389764 -0.000826772 0.00034252 -0.000846457 0.00030315 -0.000850394 0.000259843 -0.000850394 0.000212598 -0.000874016 0.000177165 -0.000858268 0.000133858 -0.00088189 8.26772e-005 -0.000870079 5.11811e-005 -0.000874016 7.87402e-006 -0.000877953 -3.93701e-005 -0.000866142 -7.87402e-005 -0.000870079 -0.00011811 -0.000858268 -0.000165354 -0.000850394 -0.000200787 -0.000846457 -0.000244094 -0.000826772 -0.000279528 -0.000818898 -0.000326772 -0.00080315 -0.000366142 -0.000787402 -0.000401575 -0.000767717 -0.000444882 -0.000748031 -0.000484252 -0.00073622 -0.000523622 -0.000704724 -0.000562992 -0.000681102 -0.000602362 -0.000661417 -0.000641732 -0.000625984 -0.000677165 -0.000598425 -0.000720472zm0.126787 -0.0215906l0.0257835 0.0256575 -0.027 -0.00135827 -0.00477953 -0.00547638 -0.00465748 -0.00473622 -0.00451181 -0.00402756 -0.00444882 -0.00335827 -0.00435827 -0.00285827 -0.00409843 -0.00224803 -0.00407874 -0.00175591 -0.00394488 -0.00135039 -0.00380709 -0.000992126 -0.00379528 -0.000665354 -0.00364567 -0.000291339 -0.00374803 -3.54331e-005 -0.00357087 0.000259843 -0.00358661 0.000527559 -0.00345276 0.000688976 -0.00351969 0.000948819 -0.00334252 0.00119685 -0.00325197 0.00131496 -0.00320866 0.00141339 -0.00300787 0.00161811 -0.00294488 0.00164567 -0.00272047 0.00178346 -0.00255906 0.00174016 -0.00231102 0.00174016 -0.00212205 0.00170472 -0.00185433 0.00163386 -0.00151181 0.00146457 -0.00127559 0.0013189 -0.000909449 0.00100787 -0.000444882 0.000519685 9.84252e-005 -0.000149606 0.000929134 -0.0019252 -0.0337756 -0.0133898 0.00192126 -0.00378346 0.00175197 -0.00255906 0.00187008 -0.00236614 0.00204331 -0.00229134 0.00227953 -0.0023189 0.00265354 -0.00245669 0.00285433 -0.00248819 0.00311417 -0.00256299 0.00346457 -0.00259449 0.00369291 -0.00259843 0.00400394 -0.00249213 0.00422441 -0.0025 0.00458268 -0.00233858 0.00477559 -0.00226772 0.00510236 -0.00202756 0.00533858 -0.00175984 0.00551181 -0.00152362 0.00587402 -0.00126378 0.00600394 -0.000811024 0.00627165 -0.000405512 0.00632677 3.54331e-005 0.00663386 0.000586614 0.00664567 0.00109055 0.00680709 0.00170079 0.00679134 0.00235433 0.00677559 0.0030315 0.00682283 0.00367717 0.00662992 0.00427953 0.00658661 0.00506693 0.00651181 0.00574016 0.00636614 0.00644488 0.00620079 0.00719291 -0.027 -0.00135827zm-0.00121654 0.0242992l0.0282165 -0.0229409 0.000574803 0.000744094 0.000519685 0.000759843 0.000484252 0.000775591 0.000444882 0.000795276 0.000397638 0.000811024 0.000350394 0.000822835 0.000311024 0.000838583 0.000267717 0.00084252 0.000224409 0.000858268 0.000188976 0.000862205 0.000133858 0.000866142 0.000102362 0.000866142 5.51181e-005 0.000874016 2.3622e-005 0.000874016 -2.75591e-005 0.000870079 -7.48031e-005 0.000874016 -0.000114173 0.000862205 -0.000145669 0.000862205 -0.00019685 0.000850394 -0.00023622 0.00084252 -0.000271654 0.000834646 -0.000314961 0.000822835 -0.000346457 0.00080315 -0.000401575 0.000791339 -0.000433071 0.000775591 -0.000480315 0.000755906 -0.000511811 0.000732283 -0.000555118 0.000712598 -0.000586614 0.000688976 -0.000637795 0.000665354 -0.000673228 0.000633858 -0.000712598 0.000610236 -0.00073622 0.000574803 -0.00076378 0.000523622 -0.000779528 0.000484252 -0.000795276 0.000444882 -0.000811024 0.000393701 -0.000818898 0.000354331 -0.000834646 0.000311024 -0.000846457 0.000267717 -0.000854331 0.000224409 -0.000866142 0.000188976 -0.000862205 0.000133858 -0.000874016 0.000102362 -0.000866142 5.51181e-005 -0.000877953 1.5748e-005 -0.000870079 -2.75591e-005 -0.000870079 -7.48031e-005 -0.000862205 -0.000106299 -0.000866142 -0.000149606 -0.000850394 -0.000192913 -0.000838583 -0.00023622 -0.000838583 -0.000271654 -0.000818898 -0.000314961 -0.000811024 -0.000354331 -0.000787402 -0.000393701 -0.000775591 -0.000433071 -0.000755906 -0.000480315 -0.000728346 -0.000511811 -0.000712598 -0.000555118 -0.000692913 -0.000594488 -0.000661417 -0.000629921 -0.000641732 -0.000677165 -0.000606299 -0.000708661zm0.0842165 -0.0610551l0.000153543 0.0363465 0 0 -0.00272047 0.000110236 -0.00274803 0.000216535 -0.00274803 0.000370079 -0.00276772 0.000444882 -0.00262992 0.000586614 -0.00270079 0.000637795 -0.00262992 0.000811024 -0.00263386 0.000850394 -0.00253937 0.000937008 -0.00253543 0.00101969 -0.00243701 0.00108661 -0.00234252 0.0011378 -0.0023189 0.00118898 -0.00229921 0.00121654 -0.00218504 0.00124016 -0.00206693 0.00124803 -0.00195276 0.00125197 -0.00191339 0.00130709 -0.00179134 0.00121654 -0.00173228 0.0011811 -0.00152362 0.00120079 -0.00146457 0.0010748 -0.00132283 0.0010748 -0.0011811 0.000929134 -0.00109843 0.000905512 -0.00088189 0.000874016 -0.00080315 0.000614173 -0.000555118 0.000562992 -0.000472441 0.000429134 -0.000287402 0.000275591 -0.000204724 0.000188976 0.00011811 -0.000122047 -0.0257835 -0.0256575 0.00030315 -0.00030315 0.000338583 -0.000326772 0.00057874 -0.000566929 0.000751969 -0.000712598 0.000988189 -0.00084252 0.00108268 -0.00104331 0.00130709 -0.00101969 0.00138976 -0.00118898 0.00159843 -0.00135433 0.00175197 -0.00135827 0.0018937 -0.00150394 0.0021063 -0.00149213 0.00215354 -0.00161024 0.0023622 -0.00163386 0.00247638 -0.00159843 0.00267323 -0.00167717 0.00278346 -0.00167717 0.0028937 -0.00166929 0.00300787 -0.00164173 0.00317323 -0.00161811 0.00334252 -0.00156693 0.00344094 -0.00151181 0.00352756 -0.00143701 0.00368504 -0.00137008 0.00375984 -0.00127559 0.00391339 -0.0011063 0.00398819 -0.00106299 0.00420079 -0.000866142 0.00419291 -0.000728346 0.0043189 -0.000515748 0.00444882 -0.000362205 0.00456693 -0.000114173zm0.140047 0.140575l-0.0363504 0 0 0 -0.000251969 -0.00916535 -0.000645669 -0.00854724 -0.00101969 -0.00794094 -0.00142126 -0.00740551 -0.00167323 -0.00683858 -0.00195276 -0.00626772 -0.00224016 -0.0058622 -0.00248819 -0.00540551 -0.00270866 -0.00494882 -0.00291339 -0.00452756 -0.00309449 -0.0041811 -0.00324409 -0.00384252 -0.00339764 -0.00354331 -0.00356299 -0.00324016 -0.00365748 -0.00296063 -0.00387402 -0.00268504 -0.00398031 -0.00244488 -0.00406299 -0.00226772 -0.00414961 -0.00198425 -0.00425197 -0.00184646 -0.00427559 -0.00151575 -0.00435827 -0.00140551 -0.00432677 -0.00125591 -0.00435039 -0.000964567 -0.00429134 -0.000905512 -0.00425591 -0.000661417 -0.00415748 -0.000551181 -0.00408268 -0.000472441 -0.00399213 -0.000259843 -0.00374016 -0.000212598 -0.0036063 -0.000106299 -0.00351575 -1.1811e-005 -0.000153543 -0.0363465 0.00410236 1.1811e-005 0.00445669 0.000106299 0.00473228 0.000216535 0.00484646 0.000405512 0.00508661 0.000472441 0.00529134 0.00069685 0.00539764 0.000940945 0.0055748 0.00105118 0.00562992 0.0013937 0.00575591 0.00153543 0.00578346 0.00183858 0.00584252 0.00222441 0.00583071 0.00242126 0.00583858 0.00283858 0.00578346 0.00312205 0.00569291 0.00358268 0.00557874 0.00397244 0.00551181 0.00437795 0.00527953 0.00480315 0.00509843 0.00525591 0.00481102 0.00570472 0.00452756 0.00617323 0.00419685 0.00666535 0.00384252 0.00709055 0.00348819 0.00753543 0.00308661 0.008 0.00268504 0.00855512 0.00222835 0.00896457 0.00171654 0.00940945 0.00129528 0.00993701 0.000791339 0.0103937 0.00026378 0.010878zm-0.105618 0.12089l-0.0363425 0 0.0191693 -0.0181732 -0.000125984 1.1811e-005 0.000531496 2.75591e-005 0.00108268 7.87402e-006 0.00157087 -3.54331e-005 0.00190157 -9.44882e-005 0.0023937 -0.000192913 0.00264567 -0.000228346 0.00298031 -0.000377953 0.00323228 -0.000551181 0.0035 -0.000665354 0.00365748 -0.000818898 0.0038622 -0.00106299 0.00392913 -0.00133465 0.00398031 -0.00148031 0.00406299 -0.00180709 0.00401969 -0.00201181 0.00403543 -0.00238583 0.00391339 -0.0026378 0.00389764 -0.00291732 0.00379528 -0.00329528 0.00362598 -0.00369291 0.00344094 -0.00412598 0.00334646 -0.00457874 0.00314567 -0.00498425 0.00290157 -0.0056378 0.00269685 -0.00616535 0.00237795 -0.00679134 0.00201575 -0.00744488 0.00170079 -0.00818898 0.00125984 -0.00889764 0.000787402 -0.00976378 0.000275591 -0.0105945 0.0363504 0 -0.000275591 0.0124409 -0.000940945 0.0117677 -0.00153937 0.0111732 -0.00213386 0.0104764 -0.00272835 0.00986614 -0.00324016 0.0092126 -0.00368898 0.00858661 -0.0041811 0.00791339 -0.00457874 0.00740551 -0.00490945 0.00671654 -0.00528346 0.00612205 -0.00548819 0.00555118 -0.00564567 0.00500787 -0.00575984 0.00448031 -0.00590157 0.00392126 -0.00587795 0.00337795 -0.00588583 0.00301575 -0.00576378 0.00251575 -0.00568898 0.00218898 -0.00551181 0.00176378 -0.00527559 0.00149213 -0.00508268 0.00124409 -0.00479134 0.000956693 -0.00450394 0.000688976 -0.00412598 0.000523622 -0.00378346 0.000377953 -0.00325591 0.000188976 -0.0028937 9.84252e-005 -0.0022874 3.14961e-005 -0.00179134 -3.93701e-006 -0.00124016 -2.75591e-005 -0.000724409 -1.1811e-005 0.0191614 -0.0181732zm-0.0171732 -0.0181732l-0.00198819 0.0363465 -0.000940945 -7.48031e-005 -0.000917323 -0.000122047 -0.000893701 -0.000165354 -0.000889764 -0.000208661 -0.000874016 -0.000251969 -0.000850394 -0.000287402 -0.000822835 -0.000330709 -0.000811024 -0.000374016 -0.000783465 -0.000409449 -0.000759843 -0.000444882 -0.00073622 -0.000480315 -0.000716535 -0.000511811 -0.000681102 -0.000547244 -0.000653543 -0.000574803 -0.000622047 -0.000606299 -0.000602362 -0.000637795 -0.000570866 -0.000665354 -0.000527559 -0.000688976 -0.000503937 -0.000716535 -0.000472441 -0.00073622 -0.000433071 -0.000767717 -0.000393701 -0.000783465 -0.000362205 -0.00080315 -0.000314961 -0.000830709 -0.000279528 -0.00084252 -0.00023622 -0.000854331 -0.00019685 -0.00088189 -0.000165354 -0.000889764 -0.000106299 -0.000905512 -6.69291e-005 -0.000913386 -2.3622e-005 -0.000929134 2.75591e-005 -0.000933071 7.48031e-005 -0.000937008 0.000122047 -0.000917323 0.000169291 -0.000901575 0.000208661 -0.000889764 0.000248031 -0.000866142 0.000291339 -0.000850394 0.000334646 -0.000826772 0.000366142 -0.000807087 0.000417323 -0.000783465 0.000444882 -0.00076378 0.000476378 -0.000732283 0.000511811 -0.000716535 0.000547244 -0.000681102 0.000574803 -0.00065748 0.000602362 -0.000625984 0.000637795 -0.000602362 0.000669291 -0.000562992 0.000685039 -0.000535433 0.000716535 -0.0005 0.000744094 -0.000468504 0.000759843 -0.000433071 0.000783465 -0.000401575 0.000811024 -0.000354331 0.000822835 -0.000318898 0.000850394 -0.000283465 0.000846457 -0.00023622 0.000885827 -0.00019685 0.000889764 -0.00015748 0.000905512 -0.000110236 0.000909449 -6.29921e-005 0.000933071 -2.3622e-005 0.000929134 2.75591e-005zm-0.00073622 0.155819l0 -0.0363425 -0.0181654 0.0181732 -7.87402e-006 -0.00355906 -1.5748e-005 -0.00359449 -7.87402e-006 -0.00362598 -3.93701e-006 -0.00365354 -3.93701e-006 -0.00368504 -1.9685e-005 -0.00370472 -3.93701e-006 -0.00372835 -7.87402e-006 -0.00374409 -3.93701e-006 -0.00376772 -1.5748e-005 -0.00378346 -7.87402e-006 -0.00379134 -3.93701e-006 -0.00380709 -7.87402e-006 -0.0038189 -3.93701e-006 -0.00382283 -1.5748e-005 -0.00382283 -7.87402e-006 -0.00383071 0 -0.00382677 -1.1811e-005 -0.00382283 -1.1811e-005 -0.00382677 -7.87402e-006 -0.0038189 0 -0.00380709 -7.87402e-006 -0.0037874 -1.5748e-005 -0.00378346 -7.87402e-006 -0.00376772 -3.93701e-006 -0.00374803 -3.93701e-006 -0.00372441 -1.9685e-005 -0.00370866 -3.93701e-006 -0.0036811 -7.87402e-006 -0.00365354 -3.93701e-006 -0.00362598 -1.5748e-005 -0.00359449 -7.87402e-006 -0.00355906 0.0363425 0 1.1811e-005 0.00355906 1.1811e-005 0.00359449 0 0.00362598 1.1811e-005 0.00365354 1.1811e-005 0.0036811 1.1811e-005 0.00370866 0 0.00372441 1.1811e-005 0.00374803 7.87402e-006 0.00376772 1.1811e-005 0.00378346 0 0.0037874 7.87402e-006 0.00380709 1.5748e-005 0.0038189 3.93701e-006 0.00382677 7.87402e-006 0.00382283 3.93701e-006 0.00382677 7.87402e-006 0.00383071 1.5748e-005 0.00382283 3.93701e-006 0.00382283 7.87402e-006 0.0038189 3.93701e-006 0.00380709 1.1811e-005 0.00379134 1.1811e-005 0.00378346 0 0.00376772 1.1811e-005 0.00374409 1.1811e-005 0.00372835 1.1811e-005 0.00370472 0 0.00368504 1.1811e-005 0.00365354 7.87402e-006 0.00362598 1.1811e-005 0.00359449 0 0.00355906 -0.0181693 0.0181693zm-0.0181654 -0.0181693l0.0363346 0 -1.9685e-005 0.000933071 -7.48031e-005 0.000925197 -0.000106299 0.000905512 -0.000169291 0.000893701 -0.000204724 0.000877953 -0.000240157 0.000870079 -0.000283465 0.000838583 -0.000330709 0.000826772 -0.000362205 0.000807087 -0.000397638 0.000783465 -0.000433071 0.000759843 -0.000472441 0.00073622 -0.000515748 0.000716535 -0.00053937 0.000685039 -0.000566929 0.00065748 -0.000598425 0.000633858 -0.000637795 0.000602362 -0.000653543 0.000566929 -0.000685039 0.000543307 -0.000716535 0.000503937 -0.000740157 0.000472441 -0.000755906 0.000433071 -0.000783465 0.000409449 -0.000811024 0.000358268 -0.000822835 0.000326772 -0.00084252 0.000287402 -0.000862205 0.000240157 -0.000877953 0.000204724 -0.000897638 0.000165354 -0.000909449 0.000110236 -0.00092126 7.48031e-005 -0.000937008 1.9685e-005 -0.000929134 -1.9685e-005 -0.000925197 -7.48031e-005 -0.000913386 -0.000110236 -0.000889764 -0.000165354 -0.00088189 -0.000204724 -0.000862205 -0.000240157 -0.000846457 -0.000287402 -0.000818898 -0.000326772 -0.000811024 -0.000358268 -0.000783465 -0.000409449 -0.000755906 -0.000433071 -0.000744094 -0.000472441 -0.000712598 -0.000503937 -0.000681102 -0.000543307 -0.000661417 -0.000566929 -0.000633858 -0.000602362 -0.000602362 -0.000633858 -0.000562992 -0.00065748 -0.000543307 -0.000685039 -0.000503937 -0.000716535 -0.000480315 -0.00073622 -0.000433071 -0.000759843 -0.000405512 -0.000783465 -0.000354331 -0.000807087 -0.000334646 -0.000826772 -0.000279528 -0.000838583 -0.000244094 -0.000870079 -0.000200787 -0.000877953 -0.000161417 -0.000893701 -0.000114173 -0.000905512 -7.48031e-005 -0.000925197 -1.9685e-005 -0.000933071z"/>
  <path class="fil2" d="M0.83137 0.607236l-0.0357638 0.00683465 -0.000153543 -0.00092126 -0.000110236 -0.000925197 -5.11811e-005 -0.000917323 -1.5748e-005 -0.000905512 3.14961e-005 -0.000905512 8.66142e-005 -0.000897638 0.00011811 -0.00088189 0.000161417 -0.000874016 0.000208661 -0.000862205 0.000251969 -0.00084252 0.000287402 -0.000834646 0.000326772 -0.000811024 0.000362205 -0.000799213 0.000401575 -0.000779528 0.000440945 -0.000751969 0.000476378 -0.000740157 0.000503937 -0.000708661 0.000543307 -0.000685039 0.000566929 -0.000661417 0.000610236 -0.000629921 0.000641732 -0.000606299 0.00065748 -0.000570866 0.00069685 -0.000547244 0.000728346 -0.000503937 0.000748031 -0.000480315 0.000775591 -0.000440945 0.000807087 -0.000397638 0.000826772 -0.000366142 0.000850394 -0.000326772 0.000874016 -0.000287402 0.000893701 -0.000240157 0.000917323 -0.000200787 0.000925197 -0.000149606 0.000917323 -0.000106299 0.000925197 -5.90551e-005 0.000905512 -7.87402e-006 0.000901575 3.14961e-005 0.000893701 7.87402e-005 0.000885827 0.000125984 0.000870079 0.000161417 0.000862205 0.000208661 0.000846457 0.000248031 0.000838583 0.000287402 0.000807087 0.000326772 0.00080315 0.000366142 0.000775591 0.000397638 0.000755906 0.000440945 0.00073622 0.000472441 0.000704724 0.000507874 0.000692913 0.00053937 0.000661417 0.000574803 0.000622047 0.000610236 0.000610236 0.000633858 0.000566929 0.000665354 0.000547244 0.00069685 0.000511811 0.000728346 0.000472441 0.000748031 0.000444882 0.000775591 0.000401575 0.00080315 0.000358268 0.000826772 0.000334646 0.000850394 0.000279528 0.000874016 0.000248031 0.000893701 0.000192913 0.000917323zm-0.0296929 0.0806575l-0.0182402 -0.0314882 0 0 0.00151181 -0.000964567 0.00122047 -0.000889764 0.00123228 -0.00103543 0.0010315 -0.00114567 0.001 -0.00118504 0.000952756 -0.0012126 0.000850394 -0.00144094 0.000834646 -0.00142913 0.000673228 -0.00156299 0.000685039 -0.00160236 0.000606299 -0.00170079 0.000547244 -0.00179134 0.000437008 -0.00186614 0.000389764 -0.00185433 0.000291339 -0.00190157 0.000267717 -0.00194094 0.000173228 -0.00181496 0.000169291 -0.00196457 0.000106299 -0.00181102 3.93701e-005 -0.00173622 -1.1811e-005 -0.00184252 -5.51181e-005 -0.00158268 -9.05512e-005 -0.00152362 -0.00011811 -0.00138189 -6.29921e-005 -0.00129921 -0.000141732 -0.00112598 -0.000137795 -0.000952756 -6.29921e-005 -0.000755906 -0.000129921 -0.000610236 -2.75591e-005 -0.000401575 1.1811e-005 -9.05512e-005 -2.3622e-005 8.26772e-005 0.0357638 -0.00683465 2.75591e-005 0.00034252 0.000133858 0.000653543 0.000169291 0.000830709 0.000125984 0.00103937 0.000208661 0.00133071 0.000145669 0.00151181 0.000133858 0.00170079 0.000208661 0.00187795 0.000125984 0.00208661 8.26772e-005 0.00223622 5.51181e-005 0.00244094 7.87402e-006 0.00241339 -3.54331e-005 0.00272441 -0.000106299 0.0028189 -0.000169291 0.0028189 -0.000326772 0.00309843 -0.000409449 0.00307874 -0.000562992 0.00318504 -0.000677165 0.00327559 -0.000862205 0.00329528 -0.000980315 0.00335433 -0.00118504 0.00341339 -0.00138583 0.00345276 -0.00167717 0.00341732 -0.00183071 0.0034252 -0.00212992 0.0032874 -0.00238189 0.00335039 -0.00269685 0.0031811 -0.00304331 0.00300394 -0.00322047 0.00288189 -0.00364173 0.00274803 -0.00379528 0.00238189zm-0.0543307 0.000610236l-0.0364764 0 0.0185276 -0.0181732 -5.90551e-005 0 0.00015748 -6.29921e-005 0.000338583 6.29921e-005 0.00057874 -7.87402e-006 0.000610236 -1.5748e-005 0.000850394 -2.75591e-005 0.000929134 -4.33071e-005 0.00108661 -7.08661e-005 0.00122047 -9.05512e-005 0.00136614 -0.000110236 0.00148031 -7.48031e-005 0.00161417 -0.000177165 0.00171654 -0.000216535 0.00177165 -0.000181102 0.0018622 -0.000291339 0.00201969 -0.000279528 0.00203937 -0.000389764 0.00212205 -0.000377953 0.00212598 -0.000429134 0.00226378 -0.000496063 0.00224016 -0.000551181 0.0022874 -0.000551181 0.00234646 -0.000692913 0.00237795 -0.000692913 0.00233071 -0.000838583 0.00235433 -0.000783465 0.00244094 -0.000933071 0.00231496 -0.00101969 0.00238189 -0.00104331 0.00230315 -0.00112992 0.00236614 -0.00115354 0.00220079 -0.00125591 0.0182402 0.0314882 -0.00334646 0.00183071 -0.00320866 0.00172835 -0.00330709 0.00155906 -0.00323622 0.00147244 -0.00331496 0.00129921 -0.00314961 0.00121654 -0.00320866 0.0012126 -0.00319291 0.000984252 -0.00309055 0.000972441 -0.00304724 0.00084252 -0.00300787 0.000830709 -0.00296063 0.000700787 -0.00282677 0.000629921 -0.00283858 0.000574803 -0.00268504 0.000523622 -0.00261417 0.000385827 -0.00245669 0.000417323 -0.0024252 0.000295276 -0.00233071 0.000326772 -0.00215748 0.000212598 -0.00203937 0.000181102 -0.00191339 0.000216535 -0.0017874 0.000114173 -0.00165354 9.05512e-005 -0.00150787 6.69291e-005 -0.00135827 4.72441e-005 -0.00113386 2.75591e-005 -0.00103937 1.5748e-005 -0.000720472 3.93701e-006 -0.000622047 7.48031e-005 -0.000433071 -7.48031e-005 -0.000240157 0 0.0185236 -0.0181693zm-0.0364764 0l0 -0.0185276 0.0185276 0.000354331 -0.0185276 0.0181732zm0 0.0765354l0 -0.0765354 0.0364764 0 0 0.0765354 -0.0364764 0zm0 0l0.0364764 0 -2.75591e-005 0.000940945 -7.08661e-005 0.00092126 -0.000110236 0.000913386 -0.000161417 0.000901575 -0.000208661 0.000877953 -0.000240157 0.000866142 -0.000295276 0.000846457 -0.000318898 0.000826772 -0.000366142 0.000811024 -0.000405512 0.000787402 -0.000440945 0.000759843 -0.000472441 0.000744094 -0.000511811 0.000716535 -0.000535433 0.000685039 -0.000574803 0.000661417 -0.000602362 0.000633858 -0.000641732 0.000602362 -0.000653543 0.000574803 -0.000685039 0.000543307 -0.000716535 0.000511811 -0.000744094 0.000472441 -0.000759843 0.000440945 -0.000795276 0.000397638 -0.00080315 0.000366142 -0.000834646 0.000326772 -0.000838583 0.000287402 -0.000874016 0.000248031 -0.000877953 0.000200787 -0.000893701 0.000165354 -0.000917323 0.000114173 -0.000917323 7.08661e-005 -0.000948819 2.3622e-005 -0.000933071 -2.3622e-005 -0.000925197 -7.08661e-005 -0.000909449 -0.000114173 -0.000909449 -0.000165354 -0.000870079 -0.000200787 -0.000874016 -0.000248031 -0.000846457 -0.000287402 -0.000818898 -0.000326772 -0.000818898 -0.000366142 -0.000787402 -0.000397638 -0.000755906 -0.000440945 -0.000744094 -0.000472441 -0.000712598 -0.000511811 -0.000688976 -0.000543307 -0.000661417 -0.000574803 -0.000633858 -0.000602362 -0.000602362 -0.000633858 -0.00057874 -0.000661417 -0.00053937 -0.000685039 -0.000511811 -0.000716535 -0.000476378 -0.000744094 -0.000437008 -0.000759843 -0.000393701 -0.000787402 -0.000366142 -0.000811024 -0.000334646 -0.000826772 -0.000279528 -0.000846457 -0.000248031 -0.000866142 -0.000204724 -0.000877953 -0.000161417 -0.000901575 -0.000114173 -0.000913386 -7.87402e-005 -0.00092126 -1.5748e-005 -0.000940945z"/>
  <path class="fil3" d="M0.324358 0.336925c0.172677,-0.172689 0.452654,-0.172689 0.625331,0 0.172677,0.172685 0.172677,0.452677 0,0.625362 -0.172677,0.172689 -0.452654,0.172689 -0.625331,0 -0.172689,-0.172685 -0.172689,-0.452677 0,-0.625362zm0.0650118 0.0650157c0.136772,-0.136787 0.358531,-0.136787 0.495311,0 0.136772,0.13678 0.136772,0.358547 0,0.495331 -0.13678,0.136787 -0.358539,0.136787 -0.495311,0 -0.13678,-0.136783 -0.13678,-0.358551 0,-0.495331z"/>
  <path class="fil3" d="M0.96337 0.968768l3.93701e-006 0c0.0202244,-0.0202244 0.0532992,-0.0202244 0.0735197,0l0.0851339 0.0851339c0.0202244,0.0202205 0.0202283,0.0532992 0,0.0735236l0 3.93701e-006c-0.0202205,0.0202165 -0.0533031,0.0202165 -0.0735236,0l-0.0851339 -0.0851378c-0.0202165,-0.0202165 -0.0202165,-0.0533031 0,-0.0735236z"/>
  <path class="fil4" d="M1.61933 0.579154c0.0126102,-0.0217795 0.0280827,-0.0388307 0.0465709,-0.0510118 0.0184843,-0.0121811 0.0389724,-0.0181969 0.0617559,-0.0181969 0.0408386,0 0.0725079,0.0150433 0.0952913,0.0452795 0.0226378,0.0302362 0.0339606,0.0768031 0.0339606,0.139421l0 0.277988 -0.0852598 0 0 -0.278846c0,-0.0416969 -0.00601969,-0.0716457 -0.0181969,-0.0899882 -0.0121811,-0.0183386 -0.030378,-0.0275118 -0.0544528,-0.0275118 -0.0173386,0 -0.032815,0.00501575 -0.0462835,0.0149016 -0.0136102,0.00988976 -0.0247874,0.0236457 -0.0333858,0.0409843l0 0.340461 -0.0852598 0 0 -0.654843 0.0852598 0 0 0.261362zm0.313217 0.137846c0,-0.0601811 0.0157638,-0.10976 0.0471457,-0.148736 0.0315236,-0.0388307 0.0746535,-0.0583189 0.129535,-0.0583189 0.0545945,0 0.0977244,0.0193425 0.129248,0.0581772 0.0316693,0.038689 0.0474291,0.0884094 0.0474291,0.148878l0 0.0578898c0,0.0607559 -0.0156181,0.110335 -0.0471417,0.148882 -0.0315236,0.0385433 -0.0745118,0.057748 -0.129106,0.057748 -0.0551693,0 -0.0984409,-0.0192047 -0.129965,-0.057748 -0.0313819,-0.0385472 -0.0471457,-0.088126 -0.0471457,-0.148882l0 -0.0578898zm0.0851181 0.0578898c0,0.0414134 0.00759449,0.0755157 0.0227835,0.102169 0.0150433,0.0265079 0.0381142,0.0398346 0.0692087,0.0398346 0.0302362,0 0.0530197,-0.0133268 0.0682087,-0.0398346 0.0153307,-0.0266535 0.0229252,-0.0607559 0.0229252,-0.102169l0 -0.0578898c0,-0.0409803 -0.00759449,-0.0746535 -0.0229252,-0.101449 -0.015189,-0.0267953 -0.0381181,-0.040122 -0.0686378,-0.040122 -0.0308071,0 -0.0537362,0.0133268 -0.0687795,0.0398346 -0.015189,0.0266535 -0.0227835,0.0606142 -0.0227835,0.101736l0 0.0578898zm0.454358 -0.369406l0 0.112913 0.0709291 0 0 0.0609016 -0.0709291 0 0 0.27039c0,0.0235 0.00344094,0.0402638 0.0104606,0.0501535 0.00702362,0.00988583 0.0160512,0.0149016 0.0272283,0.0149016 0.00673228,0 0.0130394,-0.000429134 0.0187677,-0.00129134 0.00573228,-0.000858268 0.0124685,-0.00200394 0.0203504,-0.00372441l0.00874016 0.058752c-0.00945669,0.00386614 -0.0202047,0.00701969 -0.0320984,0.00945669 -0.0118937,0.00243307 -0.0240709,0.00358268 -0.0366811,0.00358268 -0.0322402,0 -0.0571732,-0.0106063 -0.0749409,-0.0316693 -0.0177717,-0.0212087 -0.0266535,-0.0545945 -0.0266535,-0.100161l0 -0.27039 -0.0591811 0 0 -0.0609016 0.0591811 0 0 -0.112913 0.0848268 0zm0.315224 0.576035c-0.0540197,0 -0.0971496,-0.0187717 -0.129677,-0.056315 -0.0323858,-0.0374016 -0.0487205,-0.0855472 -0.0487205,-0.144008l0 -0.0663465c0,-0.0593228 0.0159055,-0.108327 0.0477165,-0.147016 0.0316693,-0.0385472 0.0720748,-0.0578898 0.121083,-0.0578898 0.0514409,0 0.0911339,0.017626 0.118787,0.0527323 0.0276575,0.0351063 0.0415551,0.0823898 0.0415551,0.141713l0 0.058752 -0.244311 0 0 0.0180551c0,0.0392598 0.00859449,0.0716457 0.0257913,0.0972953 0.0171929,0.0256496 0.0416969,0.0384016 0.0732205,0.0384016 0.0236457,0 0.0437047,-0.00372441 0.0604724,-0.0111772 0.0169055,-0.00730709 0.032811,-0.0181969 0.0478583,-0.0325276l0.026937 0.052874c-0.0143268,0.0163346 -0.0335276,0.0295197 -0.0576024,0.0399803 -0.0240709,0.010315 -0.0517283,0.0154764 -0.0831102,0.0154764zm-0.00959843 -0.406091c-0.0246457,0 -0.0444213,0.0120354 -0.0591811,0.0359646 -0.0149016,0.0239291 -0.0230709,0.0541654 -0.0247874,0.0908465l0.159913 0 0 -0.0171929c0,-0.0322402 -0.00644882,-0.0584646 -0.0193465,-0.0789528 -0.012752,-0.0204921 -0.0316654,-0.0306654 -0.0565984,-0.0306654zm0.322961 0.397205l-0.0852559 0 0 -0.654843 0.0852559 0 0 0.654843zm0.193571 -0.454236l0 0.485331c0,0.0485748 -0.0110354,0.0862598 -0.0329606,0.112626 -0.0219213,0.0265118 -0.0527283,0.0396929 -0.0921339,0.0396929 -0.00845669,0 -0.0159055,-0.000570866 -0.0226417,-0.0018622 -0.00673228,-0.00129134 -0.0140433,-0.00315354 -0.0217795,-0.00573228l0.00458661 -0.0650551c0.00444094,0.00172047 0.00959843,0.00301181 0.0153307,0.00415748 0.00573228,0.00114567 0.0110315,0.00171654 0.0160472,0.00171654 0.0149055,0 0.0266535,-0.00701969 0.0353937,-0.0212047 0.00859843,-0.014185 0.0128976,-0.0355354 0.0128976,-0.0644803l0 -0.485189 0.0852598 0zm0 -0.119217l-0.0852598 0 0 -0.0813898 0.0852598 0 0 0.0813898zm0.0815118 0.317819c0,-0.0601811 0.0157638,-0.10976 0.0471457,-0.148736 0.0315236,-0.0388307 0.0746535,-0.0583189 0.129535,-0.0583189 0.0545945,0 0.0977244,0.0193425 0.129248,0.0581772 0.0316693,0.038689 0.0474291,0.0884094 0.0474291,0.148878l0 0.0578898c0,0.0607559 -0.0156181,0.110335 -0.0471417,0.148882 -0.0315236,0.0385433 -0.0745118,0.057748 -0.129106,0.057748 -0.0551693,0 -0.0984409,-0.0192047 -0.129965,-0.057748 -0.0313819,-0.0385472 -0.0471457,-0.088126 -0.0471457,-0.148882l0 -0.0578898zm0.0851181 0.0578898c0,0.0414134 0.00759449,0.0755157 0.0227835,0.102169 0.0150433,0.0265079 0.0381142,0.0398346 0.0692087,0.0398346 0.0302362,0 0.0530197,-0.0133268 0.0682087,-0.0398346 0.0153307,-0.0266535 0.0229252,-0.0607559 0.0229252,-0.102169l0 -0.0578898c0,-0.0409803 -0.00759449,-0.0746535 -0.0229252,-0.101449 -0.015189,-0.0267953 -0.0381181,-0.040122 -0.0686378,-0.040122 -0.0308071,0 -0.0537362,0.0133268 -0.0687795,0.0398346 -0.015189,0.0266535 -0.0227835,0.0606142 -0.0227835,0.101736l0 0.0578898zm0.681909 0.00845669c0,0.0601811 -0.0130433,0.108185 -0.039122,0.14415 -0.0260787,0.0359685 -0.0626181,0.0540236 -0.110047,0.0540236 -0.0237874,0 -0.044563,-0.00530315 -0.0623307,-0.0157638 -0.0177677,-0.0104606 -0.0326732,-0.025937 -0.0447087,-0.0464252l-0.00630315 0.0533031 -0.0737953 0 0 -0.654843 0.0852559 0 0 0.248465c0.011752,-0.0181969 0.025937,-0.0322402 0.0427008,-0.0418386 0.0169094,-0.00960236 0.0362559,-0.0144724 0.0584646,-0.0144724 0.0478583,0 0.084685,0.0192008 0.110764,0.0577441 0.0260787,0.0385472 0.039122,0.0898465 0.039122,0.153898l0 0.0617598zm-0.0848307 -0.0617598c0,-0.0437047 -0.00701969,-0.078811 -0.0207756,-0.105465 -0.0139016,-0.0265079 -0.0358268,-0.0398346 -0.0657717,-0.0398346 -0.0190591,0 -0.0351063,0.00573228 -0.0484331,0.0170512 -0.0133268,0.0113228 -0.0237874,0.0265118 -0.0312402,0.0455669l0 0.218378c0.00745276,0.0184843 0.0180551,0.032815 0.0313819,0.0429882 0.0134685,0.0101732 0.0298071,0.0153307 0.0491496,0.0153307 0.0299488,0 0.0517283,-0.0118937 0.0653425,-0.0356772 0.0134685,-0.0237874 0.0203465,-0.0560276 0.0203465,-0.0965787l0 -0.0617598zm0.498783 0.0617598c0,0.0601811 -0.0130433,0.108185 -0.039122,0.14415 -0.0260787,0.0359685 -0.0626181,0.0540236 -0.110047,0.0540236 -0.0237874,0 -0.044563,-0.00530315 -0.0623307,-0.0157638 -0.0177677,-0.0104606 -0.0326732,-0.025937 -0.0447087,-0.0464252l-0.00630315 0.0533031 -0.0737953 0 0 -0.654843 0.0852559 0 0 0.248465c0.011752,-0.0181969 0.025937,-0.0322402 0.0427008,-0.0418386 0.0169094,-0.00960236 0.0362559,-0.0144724 0.0584646,-0.0144724 0.0478583,0 0.084685,0.0192008 0.110764,0.0577441 0.0260787,0.0385472 0.039122,0.0898465 0.039122,0.153898l0 0.0617598zm-0.0848307 -0.0617598c0,-0.0437047 -0.00701969,-0.078811 -0.0207756,-0.105465 -0.0139016,-0.0265079 -0.0358268,-0.0398346 -0.0657717,-0.0398346 -0.0190591,0 -0.0351063,0.00573228 -0.0484331,0.0170512 -0.0133268,0.0113228 -0.0237874,0.0265118 -0.0312402,0.0455669l0 0.218378c0.00745276,0.0184843 0.0180551,0.032815 0.0313819,0.0429882 0.0134685,0.0101732 0.0298071,0.0153307 0.0491496,0.0153307 0.0299488,0 0.0517283,-0.0118937 0.0653425,-0.0356772 0.0134685,-0.0237874 0.0203465,-0.0560276 0.0203465,-0.0965787l0 -0.0617598zm0.326543 0.259933c-0.0540197,0 -0.0971496,-0.0187717 -0.129677,-0.056315 -0.0323858,-0.0374016 -0.0487205,-0.0855472 -0.0487205,-0.144008l0 -0.0663465c0,-0.0593228 0.0159055,-0.108327 0.0477165,-0.147016 0.0316693,-0.0385472 0.0720748,-0.0578898 0.121083,-0.0578898 0.0514409,0 0.0911339,0.017626 0.118787,0.0527323 0.0276575,0.0351063 0.0415551,0.0823898 0.0415551,0.141713l0 0.058752 -0.244311 0 0 0.0180551c0,0.0392598 0.00859449,0.0716457 0.0257913,0.0972953 0.0171929,0.0256496 0.0416969,0.0384016 0.0732205,0.0384016 0.0236457,0 0.0437047,-0.00372441 0.0604724,-0.0111772 0.0169055,-0.00730709 0.032811,-0.0181969 0.0478583,-0.0325276l0.026937 0.052874c-0.0143268,0.0163346 -0.0335276,0.0295197 -0.0576024,0.0399803 -0.0240709,0.010315 -0.0517283,0.0154764 -0.0831102,0.0154764zm-0.00959843 -0.406091c-0.0246457,0 -0.0444213,0.0120354 -0.0591811,0.0359646 -0.0149016,0.0239291 -0.0230709,0.0541654 -0.0247874,0.0908465l0.159913 0 0 -0.0171929c0,-0.0322402 -0.00644882,-0.0584646 -0.0193465,-0.0789528 -0.012752,-0.0204921 -0.0316654,-0.0306654 -0.0565984,-0.0306654zm0.42785 0.0147598l-0.0398346 -0.00214961c-0.017622,0 -0.0322402,0.00529921 -0.0438465,0.0159055 -0.0116063,0.0107441 -0.0204921,0.0256496 -0.0266535,0.0449921l0 0.323697 -0.0852559 0 0 -0.454236 0.0776614 0 0.00630709 0.0683504c0.00945669,-0.0240709 0.0219213,-0.0428425 0.0373976,-0.0564567 0.0153346,-0.0136142 0.0331024,-0.0203465 0.0533071,-0.0203465 0.00558661,0 0.0113189,0.000429134 0.0171929,0.00143307 0.00587402,0.00100394 0.0104606,0.00214961 0.0137559,0.00358268l-0.0100315 0.0752283zm0.160756 0.382445l-0.085689 0 0 -0.0852598 0.085689 0 0 0.0852598zm0.268224 -0.0557402c0.0213504,0 0.0392598,-0.00816929 0.0537323,-0.0246457 0.0146181,-0.0163346 0.0219252,-0.0382598 0.0219252,-0.0656299l0.076374 0 0.000862205 0.00243701c0.00114567,0.0428425 -0.0133268,0.0789528 -0.0434173,0.108331 -0.0300945,0.029374 -0.0666339,0.0441339 -0.109476,0.0441339 -0.0564567,0 -0.0997323,-0.0192047 -0.129823,-0.0574606 -0.0300906,-0.0384016 -0.0451378,-0.0872677 -0.0451378,-0.146591l0 -0.0626181c0,-0.0593228 0.0150472,-0.108327 0.0451378,-0.147016 0.0300906,-0.0385472 0.0732205,-0.0578898 0.129394,-0.0578898 0.0459961,0 0.083252,0.0153307 0.111909,0.0459961 0.0286575,0.0306654 0.0427008,0.0703543 0.0418425,0.119075l-0.00129134 0.00243701 -0.076374 0c0,-0.0302362 -0.00701969,-0.0547362 -0.0207756,-0.0736535 -0.0139016,-0.0189134 -0.0322441,-0.0283701 -0.055311,-0.0283701 -0.0323858,0 -0.0554567,0.0131811 -0.0689252,0.0395472 -0.0136142,0.0262244 -0.0204921,0.0596102 -0.0204921,0.099874l0 0.0626181c0,0.0408386 0.00687795,0.0743701 0.0204921,0.100307 0.0134685,0.0260787 0.036685,0.0391181 0.0693543,0.0391181zm0.208327 -0.199894c0,-0.0601811 0.0157638,-0.10976 0.0471457,-0.148736 0.0315236,-0.0388307 0.0746535,-0.0583189 0.129535,-0.0583189 0.0545945,0 0.0977244,0.0193425 0.129248,0.0581772 0.0316693,0.038689 0.0474291,0.0884094 0.0474291,0.148878l0 0.0578898c0,0.0607559 -0.0156181,0.110335 -0.0471417,0.148882 -0.0315236,0.0385433 -0.0745118,0.057748 -0.129106,0.057748 -0.0551693,0 -0.0984409,-0.0192047 -0.129965,-0.057748 -0.0313819,-0.0385472 -0.0471457,-0.088126 -0.0471457,-0.148882l0 -0.0578898zm0.0851181 0.0578898c0,0.0414134 0.00759449,0.0755157 0.0227835,0.102169 0.0150433,0.0265079 0.0381142,0.0398346 0.0692087,0.0398346 0.0302362,0 0.0530197,-0.0133268 0.0682087,-0.0398346 0.0153307,-0.0266535 0.0229252,-0.0607559 0.0229252,-0.102169l0 -0.0578898c0,-0.0409803 -0.00759449,-0.0746535 -0.0229252,-0.101449 -0.015189,-0.0267953 -0.0381181,-0.040122 -0.0686378,-0.040122 -0.0308071,0 -0.0537362,0.0133268 -0.0687795,0.0398346 -0.015189,0.0266535 -0.0227835,0.0606142 -0.0227835,0.101736l0 0.0578898zm0.423264 -0.256492l0.00458661 0.0616181c0.0123228,-0.0223543 0.0279409,-0.0396929 0.047,-0.051874 0.0190591,-0.0121811 0.0412677,-0.0181969 0.0667756,-0.0181969 0.0249331,0 0.0462835,0.00687795 0.0641929,0.0207756 0.0179134,0.0139016 0.0315236,0.0349646 0.0406969,0.0631929 0.011748,-0.0263661 0.0275118,-0.0468583 0.0471417,-0.0617598 0.0194882,-0.0147598 0.0427008,-0.0222087 0.0696417,-0.0222087 0.0385433,0 0.069063,0.0159055 0.0912756,0.0477165 0.0222087,0.0316654 0.0333858,0.0800984 0.0333858,0.145012l0 0.269961 -0.0852598 0 0 -0.270394c0,-0.0464252 -0.00572835,-0.0790945 -0.0171929,-0.0978661 -0.0114646,-0.0187717 -0.028374,-0.0280866 -0.0507244,-0.0280866 -0.0193465,0 -0.0355394,0.00730709 -0.0485787,0.0220669 -0.0130394,0.0146181 -0.0223504,0.034248 -0.0282283,0.0586063 -0.000283465,-0.00229134 -0.000141732,0.00129134 0.000287402,0.0106063 0.000574803,0.00945669 0.000862205,0.016189 0.000862205,0.0203465l0 0.28472 -0.084689 0 0 -0.270394c0,-0.0449921 -0.00587402,-0.077374 -0.0177677,-0.0967205 -0.011748,-0.0194882 -0.0287992,-0.0292323 -0.0511535,-0.0292323 -0.0179134,0 -0.0331024,0.00501575 -0.0457126,0.0149016 -0.0126063,0.00988976 -0.0224961,0.0237874 -0.029374,0.0414134l0 0.340031 -0.0848268 0 0 -0.454236 0.0776614 0z"/>
  <path class="fil5 str1" d="M6.95375 0.264594c0.0609134,0 0.110311,0.0493976 0.110311,0.110311 0,0.0609134 -0.0493976,0.110311 -0.110311,0.110311 -0.0609134,0 -0.110311,-0.0493976 -0.110311,-0.110311 0,-0.0609134 0.0493976,-0.110311 0.110311,-0.110311z"/>
  <path class="fil4" d="M6.9052 0.440283l0 -0.128913 0.0571496 0c0.0114961,0 0.0202283,0.00117323 0.0262008,0.00348425 0.00597244,0.00231102 0.010748,0.0063937 0.0143465,0.0122441 0.0035748,0.00588189 0.00534252,0.0123661 0.00534252,0.0194488 0,0.00915748 -0.00294094,0.0168386 -0.00888189,0.0231142 -0.00591339,0.00627165 -0.0150669,0.0102638 -0.0274331,0.0119724 0.0045315,0.00216142 0.00795276,0.00429528 0.0102953,0.0064252 0.00498031,0.00456299 0.00969291,0.0102953 0.0141654,0.0171378l0.0224213 0.0350866 -0.0214606 0 -0.0170472 -0.0268346c-0.00498425,-0.0077126 -0.00909449,-0.0136535 -0.0123386,-0.0177362 -0.00320866,-0.00411417 -0.00609055,-0.00699213 -0.00864173,-0.00861417 -0.00255118,-0.00164961 -0.00513386,-0.00279134 -0.00777559,-0.00345276 -0.00194882,-0.000389764 -0.00510236,-0.000598425 -0.00951181,-0.000598425l-0.0197795 0 0 0.0572362 -0.0170512 0zm0.0170512 -0.0720039l0.0366772 0c0.00777165,0 0.0138937,-0.000811024 0.0182795,-0.00243307 0.00440945,-0.00161811 0.00774016,-0.00420079 0.0100236,-0.00774409 0.00227953,-0.00353937 0.00342126,-0.00738189 0.00342126,-0.0115551 0,-0.00609055 -0.00219291,-0.0111024 -0.00663386,-0.0150354 -0.00441339,-0.00393307 -0.0114055,-0.00588189 -0.0209803,-0.00588189l-0.0407874 0 0 0.0426496z"/>
 </g>
</svg>
