<?xml version="1.0" encoding="UTF-8"?>
<!DOCTYPE svg PUBLIC "-//W3C//DTD SVG 1.1//EN" "http://www.w3.org/Graphics/SVG/1.1/DTD/svg11.dtd">
<!-- Creator: CorelDRAW -->
<svg xmlns="http://www.w3.org/2000/svg" xml:space="preserve" width="2.1in" height="1in" style="shape-rendering:geometricPrecision; text-rendering:geometricPrecision; image-rendering:optimizeQuality; fill-rule:evenodd; clip-rule:evenodd"
viewBox="0 0 2.1 1"
 xmlns:xlink="http://www.w3.org/1999/xlink">
 <defs>
  <style type="text/css">
   <![CDATA[
    .fil0 {fill:#0D809C;fill-rule:nonzero}
   ]]>
  </style>
 </defs>
 <g id="Layer_x0020_1">
  <metadata id="CorelCorpID_0Corel-Layer"/>
  <g id="_92318968">
   <path id="_92319112" class="fil0" d="M0.237181 0.808157l0.000641732 0.00144488c-0.000161417,0.0342598 -0.00924803,0.0607165 -0.0273425,0.0795315 -0.0180118,0.0187402 -0.0435039,0.0281457 -0.0765551,0.0281457 -0.0336142,0 -0.0604724,-0.0113386 -0.0805748,-0.0339331 -0.0201063,-0.0225984 -0.0301575,-0.0542008 -0.0301575,-0.0947323l0 -0.0951299c0,-0.0405315 0.00997244,-0.0722126 0.0298346,-0.0949724 0.0198622,-0.0227559 0.0464016,-0.0341772 0.0795315,-0.0341772 0.0336142,0 0.0594291,0.00916929 0.0775197,0.0275827 0.0180157,0.0183346 0.0272638,0.0451929 0.0277441,0.0805787l-0.000641732 0.00136614 -0.0452756 0c-0.000480315,-0.0249291 -0.00538583,-0.0433465 -0.014878,-0.0550866 -0.00940551,-0.0118189 -0.0242047,-0.017689 -0.0444685,-0.017689 -0.019622,0 -0.0349016,0.00796063 -0.0457559,0.0238031 -0.0107756,0.0158425 -0.0162441,0.0385197 -0.0162441,0.0678701l0 0.0958543c0,0.0299173 0.00554724,0.0527559 0.0166457,0.0685945 0.0110157,0.0158425 0.0266181,0.0238031 0.0467205,0.0238031 0.0197835,0 0.0343386,-0.0057874 0.0435039,-0.0172874 0.00916929,-0.0115787 0.0139134,-0.0300748 0.0142362,-0.0555669l0.0455157 0zm0.270921 -0.0200236c0,0.040689 -0.0105354,0.072374 -0.0316024,0.0951299 -0.0209882,0.0226772 -0.0492165,0.0340157 -0.0845197,0.0340157 -0.0348976,0 -0.0626417,-0.0113386 -0.0832283,-0.0340157 -0.0205079,-0.0227559 -0.0307992,-0.0544409 -0.0307992,-0.0951299l0 -0.094248c0,-0.0404488 0.0102913,-0.0722126 0.0309606,-0.0951339 0.0206654,-0.0229173 0.0483268,-0.0344173 0.0830669,-0.0344173 0.0351417,0 0.0632874,0.0115 0.084437,0.0344173 0.0211496,0.0229213 0.031685,0.054685 0.031685,0.0951339l0 0.094248zm-0.0476063 -0.0948937c0,-0.0298307 -0.00595276,-0.0525079 -0.0179331,-0.0679488 -0.0119016,-0.0155197 -0.0287874,-0.0232402 -0.0505827,-0.0232402 -0.0215512,0 -0.0380354,0.00772047 -0.0495354,0.0232402 -0.0114173,0.0154409 -0.0172087,0.0381181 -0.0172087,0.0679488l0 0.0948937c0,0.0301535 0.00579134,0.0530748 0.0173701,0.0685945 0.0115,0.0155197 0.0279843,0.0233189 0.049374,0.0233189 0.0219528,0 0.0388425,-0.00772047 0.0507441,-0.0232402 0.0118189,-0.015437 0.0177717,-0.0383583 0.0177717,-0.0686732l0 -0.0948937zm0.329303 0.219055l-0.0475276 0 -0.130114 -0.255161 -0.00136614 0.000484252 0 0.254677 -0.0478465 0 0 -0.343055 0.0478465 0 0.130031 0.254437 0.00144882 -0.000401575 0 -0.254035 0.0475276 0 0 0.343055zm0.265531 -0.306303l-0.0881339 0 0 0.306303 -0.0478504 0 0 -0.306303 -0.0875709 0 0 -0.036752 0.223555 0 0 0.036752zm0.197181 0.219614l-0.109366 0 -0.0249291 0.086689 -0.0485709 0 0.105587 -0.343055 0.0461575 0 0.104622 0.343055 -0.0485709 0 -0.0249291 -0.086689zm-0.0982717 -0.0379567l0.0874134 0 -0.0428622 -0.149815 -0.00144488 0 -0.0431063 0.149815zm0.41302 0.0205079l0.000641732 0.00144488c-0.000161417,0.0342598 -0.00924803,0.0607165 -0.0273425,0.0795315 -0.0180118,0.0187402 -0.0435039,0.0281457 -0.0765551,0.0281457 -0.0336142,0 -0.0604724,-0.0113386 -0.0805748,-0.0339331 -0.0201063,-0.0225984 -0.0301575,-0.0542008 -0.0301575,-0.0947323l0 -0.0951299c0,-0.0405315 0.00997244,-0.0722126 0.0298346,-0.0949724 0.0198622,-0.0227559 0.0464016,-0.0341772 0.0795315,-0.0341772 0.0336142,0 0.0594291,0.00916929 0.0775197,0.0275827 0.0180157,0.0183346 0.0272638,0.0451929 0.0277441,0.0805787l-0.000641732 0.00136614 -0.0452756 0c-0.000480315,-0.0249291 -0.00538583,-0.0433465 -0.014878,-0.0550866 -0.00940551,-0.0118189 -0.0242047,-0.017689 -0.0444685,-0.017689 -0.019622,0 -0.0349016,0.00796063 -0.0457559,0.0238031 -0.0107756,0.0158425 -0.0162441,0.0385197 -0.0162441,0.0678701l0 0.0958543c0,0.0299173 0.00554724,0.0527559 0.0166457,0.0685945 0.0110157,0.0158425 0.0266181,0.0238031 0.0467205,0.0238031 0.0197835,0 0.0343386,-0.0057874 0.0435039,-0.0172874 0.00916929,-0.0115787 0.0139134,-0.0300748 0.0142362,-0.0555669l0.0455157 0zm0.251138 -0.202165l-0.0881339 0 0 0.306303 -0.0478504 0 0 -0.306303 -0.0875709 0 0 -0.036752 0.223555 0 0 0.036752zm0.198063 0.220098c0,-0.0161654 -0.00450394,-0.0294331 -0.0136693,-0.0398071 -0.00908661,-0.010374 -0.0250079,-0.0194606 -0.0477677,-0.0273425 -0.0327283,-0.00988976 -0.0577402,-0.0228386 -0.075189,-0.0387598 -0.0174488,-0.0159213 -0.0261339,-0.0369921 -0.0261339,-0.0632874 0,-0.0269409 0.00964961,-0.0491339 0.0291102,-0.0665039 0.019378,-0.0173701 0.0443071,-0.0260551 0.0747874,-0.0260551 0.0316811,0 0.0572559,0.0100512 0.0766339,0.0300748 0.0194606,0.0200236 0.0287913,0.0441496 0.0282283,0.0724567l-0.000484252 0.00136614 -0.0459961 0c0,-0.0199409 -0.00514961,-0.036185 -0.0153622,-0.0486496 -0.0102913,-0.0124646 -0.0248465,-0.0187402 -0.0435039,-0.0187402 -0.0177717,0 -0.0314409,0.00522835 -0.0410906,0.0156811 -0.00964961,0.0104567 -0.0144764,0.0237244 -0.0144764,0.0398898 0,0.0146339 0.00514567,0.026937 0.0155197,0.0369094 0.010374,0.00997244 0.0275039,0.0190591 0.0513858,0.0271811 0.0312008,0.00972835 0.0550039,0.023 0.0713307,0.0398031 0.0163228,0.0168071 0.0245276,0.0386024 0.0245276,0.0652992 0,0.0281457 -0.00965354,0.0504213 -0.0289528,0.0669055 -0.019378,0.0164882 -0.0447087,0.0247677 -0.0761535,0.0247677 -0.0306378,0 -0.0573346,-0.00908661 -0.0801732,-0.0271772 -0.0228386,-0.0181772 -0.033937,-0.043748 -0.0331339,-0.0767205l0.000484252 -0.00144488 0.0459173 0c0,0.0235591 0.00619291,0.0410118 0.0184961,0.0523504 0.0123858,0.0113386 0.0284685,0.0169685 0.0484094,0.0169685 0.0179331,0 0.0319252,-0.00498819 0.0420591,-0.0149567 0.0101299,-0.00997244 0.0151969,-0.0234016 0.0151969,-0.0402087z"/>
   <path id="_92319136" class="fil0" d="M0.0393386 0.483583l0 -0.395209 0.110244 0c0.0372441,0 0.0663307,0.0088937 0.0871772,0.0265866 0.020937,0.0177874 0.0314055,0.044378 0.0314055,0.0798583 0,0.0188071 -0.00472441,0.0353898 -0.0142677,0.049748 -0.00954331,0.0144528 -0.0226969,0.0250118 -0.0394646,0.031685 0.0213071,0.00472441 0.0377047,0.0158386 0.0491929,0.0335354 0.0115787,0.0176024 0.0173228,0.0382598 0.0173228,0.0619764 0,0.0364094 -0.0102835,0.0641102 -0.0308504,0.0831929 -0.0205669,0.0190827 -0.0489134,0.028626 -0.0850433,0.028626l-0.125717 0zm0.055122 -0.184264l0 0.142484 0.0705945 0c0.0194528,0 0.0345551,-0.00602362 0.0451142,-0.0180669 0.0106575,-0.0120433 0.015937,-0.0292756 0.015937,-0.0516929 0,-0.0222362 -0.00453937,-0.0399291 -0.0136181,-0.0530866 -0.00898819,-0.0130591 -0.0229764,-0.0196378 -0.0417835,-0.0196378l-0.0762441 0zm0 -0.0396496l0.0604961 0c0.0180669,0 0.0323307,-0.0054685 0.0426142,-0.0163976 0.0102835,-0.0109331 0.0154724,-0.0267756 0.0154724,-0.0474331 0,-0.0216811 -0.00537402,-0.0379843 -0.0161181,-0.0488228 -0.010748,-0.0108386 -0.0265906,-0.0163071 -0.0473425,-0.0163071l-0.055122 0 0 0.128961zm0.429114 0.124047l-0.125992 0 -0.0287165 0.0998661 -0.0559567 0 0.121638 -0.395209 0.0531772 0 0.120528 0.395209 -0.0559567 0 -0.0287205 -0.0998661zm-0.113205 -0.0437283l0.100701 0 -0.049378 -0.172591 -0.00166929 0 -0.0496535 0.172591zm0.297193 0.101815l0.154157 0 0 0.0417795 -0.20928 0 0 -0.395209 0.055122 0 0 0.353429zm0.382701 -0.0580866l-0.125992 0 -0.0287165 0.0998661 -0.0559567 0 0.121638 -0.395209 0.0531772 0 0.120528 0.395209 -0.0559567 0 -0.0287205 -0.0998661zm-0.113205 -0.0437283l0.100701 0 -0.049378 -0.172591 -0.00166929 0 -0.0496535 0.172591zm0.503413 0.143594l-0.054752 0 -0.149894 -0.293953 -0.0015748 0.000555118 0 0.293398 -0.055122 0 0 -0.395209 0.055122 0 0.149803 0.293118 0.00166535 -0.000464567 0 -0.292654 0.054752 0 0 0.395209zm0.310815 -0.119972l0.000740157 0.00166929c-0.000185039,0.0394646 -0.0106535,0.0699449 -0.0314961,0.091622 -0.020752,0.0215866 -0.050122,0.0324252 -0.0881969,0.0324252 -0.0387244,0 -0.0696654,-0.013063 -0.0928268,-0.0390945 -0.0231614,-0.0260315 -0.0347402,-0.0624409 -0.0347402,-0.109134l0 -0.109594c0,-0.046689 0.0114882,-0.0831929 0.0343701,-0.109409 0.0228819,-0.0262165 0.0534528,-0.039374 0.091622,-0.039374 0.0387244,0 0.0684646,0.010563 0.0893071,0.0317756 0.020752,0.021126 0.0314055,0.0520669 0.0319606,0.0928307l-0.000740157 0.0015748 -0.0521575 0c-0.000555118,-0.0287205 -0.00620866,-0.049937 -0.0171378,-0.0634606 -0.0108386,-0.0136181 -0.0278858,-0.0203819 -0.0512323,-0.0203819 -0.0226024,0 -0.0402047,0.00917323 -0.0527126,0.0274213 -0.0124134,0.018252 -0.0187126,0.044378 -0.0187126,0.078189l0 0.110429c0,0.0344646 0.00638976,0.0607756 0.0191772,0.0790236 0.012689,0.018252 0.0306614,0.0274213 0.0538228,0.0274213 0.0227913,0 0.0395591,-0.00666929 0.0501181,-0.0199173 0.010563,-0.0133386 0.0160276,-0.0346457 0.0163976,-0.0640157l0.052437 0zm0.262173 -0.0635512l-0.146559 0 0 0.141744 0.169906 0 0 0.0417795 -0.225028 0 0 -0.395209 0.223362 0 0 0.0423346 -0.16824 0 0 0.127291 0.146559 0 0 0.0420591z"/>
  </g>
 </g>
</svg>
