<?xml version="1.0" encoding="UTF-8"?>
<!DOCTYPE svg PUBLIC "-//W3C//DTD SVG 1.1//EN" "http://www.w3.org/Graphics/SVG/1.1/DTD/svg11.dtd">
<!-- Creator: CorelDRAW -->
<svg xmlns="http://www.w3.org/2000/svg" xml:space="preserve" width="1.45in" height="0.549in" style="shape-rendering:geometricPrecision; text-rendering:geometricPrecision; image-rendering:optimizeQuality; fill-rule:evenodd; clip-rule:evenodd"
viewBox="0 0 1.45 0.549"
 xmlns:xlink="http://www.w3.org/1999/xlink">
 <defs>
  <style type="text/css">
   <![CDATA[
    .fil0 {fill:#E3556A}
    .fil2 {fill:white}
    .fil3 {fill:#1F1A17;fill-rule:nonzero}
    .fil1 {fill:white;fill-rule:nonzero}
   ]]>
  </style>
 </defs>
 <g id="Layer_x0020_1">
  <metadata id="CorelCorpID_0Corel-Layer"/>
  <path class="fil0" d="M0.071622 0.0111299l1.30676 0c0.0362362,0 0.0658819,0.0296496 0.0658819,0.0658819l0 0.394976c0,0.0362323 -0.0296496,0.0658819 -0.0658819,0.0658819l-1.30676 0c-0.0362323,0 -0.0658819,-0.0296457 -0.0658819,-0.0658819l0 -0.394976c0,-0.0362362 0.0296457,-0.0658819 0.0658819,-0.0658819z"/>
  <path class="fil1" d="M0.527587 0.351657l0.0767441 -0.199764 0.0284646 0 0.0817638 0.199764 -0.0301378 0 -0.0233031 -0.0605118 -0.0835315 0 -0.0219094 0.0605118 -0.0280906 0zm0.057626 -0.0820472l0.0677677 0 -0.0208858 -0.0552992c-0.00632283,-0.0167913 -0.0110669,-0.0306063 -0.0141378,-0.0414409 -0.00255906,0.0128346 -0.0061378,0.0255315 -0.0107913,0.038185l-0.0219528 0.0585551zm0.147346 0.137488l0 -0.200138 0.0223268 0 0 0.0187913c0.00525591,-0.00735039 0.0112087,-0.0128819 0.0178583,-0.0165591 0.0066063,-0.00367323 0.0146535,-0.00553543 0.0240945,-0.00553543 0.0123701,0 0.0232559,0.0032126 0.0326969,0.00953543 0.00948819,0.00637402 0.0166063,0.0153504 0.0213937,0.0269291 0.00483858,0.0115827 0.00725591,0.0242795 0.00725591,0.0380945 0,0.0147913 -0.00264961,0.0281378 -0.008,0.04 -0.00529921,0.0118583 -0.0130197,0.0209291 -0.0231614,0.0272559 -0.0101378,0.00627953 -0.0207913,0.00944094 -0.0319528,0.00944094 -0.00818504,0 -0.0154882,-0.00172047 -0.022,-0.00516142 -0.00651181,-0.00344488 -0.011815,-0.00781496 -0.016,-0.0130709l0 0.0704173 -0.0245118 0zm0.022185 -0.126976c0,0.0186063 0.00376772,0.032374 0.0113031,0.0413031 0.00753543,0.00888189 0.0166969,0.0133504 0.0273976,0.0133504 0.0108819,0 0.0202323,-0.0046063 0.028,-0.0138622 0.00776378,-0.00920866 0.0116732,-0.0234882 0.0116732,-0.0428346 0,-0.0184685 -0.00381496,-0.0322323 -0.0113976,-0.0414449 -0.00757874,-0.00916142 -0.0166496,-0.0137677 -0.0271614,-0.0137677 -0.0104646,0 -0.0197205,0.00488583 -0.0277677,0.0146535 -0.00804724,0.00976772 -0.0120472,0.024 -0.0120472,0.0426024zm0.133024 0.126976l0 -0.200138 0.0223268 0 0 0.0187913c0.00525591,-0.00735039 0.0112087,-0.0128819 0.0178583,-0.0165591 0.0066063,-0.00367323 0.0146535,-0.00553543 0.0240945,-0.00553543 0.0123701,0 0.0232559,0.0032126 0.0326969,0.00953543 0.00948819,0.00637402 0.0166063,0.0153504 0.0213937,0.0269291 0.00483858,0.0115827 0.00725591,0.0242795 0.00725591,0.0380945 0,0.0147913 -0.00264961,0.0281378 -0.008,0.04 -0.00529921,0.0118583 -0.0130197,0.0209291 -0.0231614,0.0272559 -0.0101378,0.00627953 -0.0207913,0.00944094 -0.0319528,0.00944094 -0.00818504,0 -0.0154882,-0.00172047 -0.022,-0.00516142 -0.00651181,-0.00344488 -0.011815,-0.00781496 -0.016,-0.0130709l0 0.0704173 -0.0245118 0zm0.022185 -0.126976c0,0.0186063 0.00376772,0.032374 0.0113031,0.0413031 0.00753543,0.00888189 0.0166969,0.0133504 0.0273976,0.0133504 0.0108819,0 0.0202323,-0.0046063 0.028,-0.0138622 0.00776378,-0.00920866 0.0116732,-0.0234882 0.0116732,-0.0428346 0,-0.0184685 -0.00381496,-0.0322323 -0.0113976,-0.0414449 -0.00757874,-0.00916142 -0.0166496,-0.0137677 -0.0271614,-0.0137677 -0.0104646,0 -0.0197205,0.00488583 -0.0277677,0.0146535 -0.00804724,0.00976772 -0.0120472,0.024 -0.0120472,0.0426024zm0.132469 0.0715354l0 -0.199764 0.0245079 0 0 0.199764 -0.0245079 0zm0.0614409 0.0557205l-0.00274409 -0.0230236c0.0053937,0.00144094 0.0100472,0.00218504 0.0140472,0.00218504 0.00544094,0 0.00981102,-0.000929134 0.0130669,-0.00274409 0.00330315,-0.00181102 0.00595276,-0.00432283 0.00804724,-0.00762598 0.00158268,-0.00241732 0.00404724,-0.00851181 0.00748819,-0.0182323 0.000464567,-0.00139764 0.00120866,-0.00335039 0.00218504,-0.006l-0.0548819 -0.144976 0.0264173 0 0.0301417 0.0837677c0.00385827,0.0106496 0.0073937,0.021815 0.0104646,0.0335354 0.00283465,-0.0112559 0.00618504,-0.0222323 0.0100906,-0.0329764l0.0309291 -0.0843268 0.0245118 0 -0.0550197 0.147161c-0.00590945,0.0159055 -0.0105118,0.0268386 -0.0137677,0.0328386 -0.00437402,0.00809055 -0.00935039,0.014 -0.0149764,0.0177677 -0.00567717,0.00376772 -0.012374,0.00567323 -0.020189,0.00567323 -0.00474409,0 -0.01,-0.00102362 -0.015811,-0.00302362z"/>
  <g id="_100282456">
   <path id="_100274776" class="fil2" d="M0.30324 0.119685l-0.0134961 -0.0138937 -0.0124449 -0.0117677c-0.00241339,-0.00019685 -0.00296457,-0.00133465 -0.00542126,-0.00133465l-0.00437008 0c-0.00807874,0 -0.0163465,0.0110276 -0.0209409,0.0155827 -0.0061811,0.00612598 -0.0119449,0.0122323 -0.0180709,0.0184567 -0.00379528,0.00385433 -0.0352559,0.0360394 -0.035626,0.0374213l0.15285 0 -0.0424803 -0.0444646z"/>
   <polygon id="_100282504" class="fil2" points="0.41387,0.23463 0.414008,0.233626 0.413693,0.233925 0.389941,0.20926 0.390031,0.252217 "/>
   <path id="_100282360" class="fil2" d="M0.124224 0.234469l0.000362205 0.000346457c0.00131496,0.000476378 0.0101811,0.0072874 0.0123228,0.00871654 0.00237795,0.00158661 0.00989764,0.00870079 0.0122913,0.00875197l-0.000307087 -0.0431732 -0.0246693 0.0253583z"/>
   <path id="_100275616" class="fil2" d="M0.20637 0.295161l0.0103228 0.00753937 0.0309646 0.0226299c0.00265748,0.00177953 0.0200118,0.0158819 0.0214409,0.0158819 0.000775591,0 0.0222913,-0.0158504 0.024437,-0.0176457 0.00287008,-0.00240157 0.022622,-0.0171811 0.0247913,-0.017689l0.0373189 -0.028185c0.000275591,-0.000374016 0.00952362,-0.00704331 0.0109291,-0.00812992 0.00131102,-0.00101181 0.0105118,-0.00745276 0.0105118,-0.00814961l0 -0.0726496 -0.000437008 -0.00475984c-0.00325197,-0.00491732 -0.00477953,-0.00754724 -0.013063,-0.00754724l-0.192154 0 0 0.000795276 -0.00159055 0c-0.00365748,0 -0.00833465,0.0058622 -0.00833465,0.00952756l0 0.0738425c0,0.00270866 0.00348819,0.00364567 0.00516929,0.00475197 0.00180709,0.00119291 0.00377559,0.00312598 0.00555512,0.00437402 0.00406299,0.00285039 0.00724803,0.00549213 0.0115827,0.00826772 0.000673228,0.000429134 0.00474016,0.00385433 0.00540157,0.00452362 0.000192913,0.00019685 0.00538189,0.00392913 0.00576772,0.00415748 0.0013937,0.000826772 0.0108898,0.00772047 0.0113858,0.00846457z"/>
   <g>
    <path id="_100281760" class="fil2" d="M0.206768 0.310642l-0.0099252 -0.00714567 -0.000795276 -0.000795276 -0.00833858 -0.00635039 -0.00118898 0 -0.0198504 -0.0154843 -0.0142953 -0.0103189 -0.0150866 -0.0115157 -0.0162756 -0.0123071 -0.00119291 0 0 0.170709c0,0.00132283 0.000716535,0.00116535 0.00198819,0.00119291 0.000472441,-0.00177953 0.024252,-0.0197638 0.0276732,-0.0223465 0.00227559,-0.00172047 0.00522047,-0.00364567 0.00716929,-0.00553543 0.000834646,-0.000807087 0.00591732,-0.00514961 0.00670472,-0.00560236 0.00213386,-0.00122441 0.00217717,-0.00210236 0.00349606,-0.00285827 0.00120079,-0.000692913 0.00256693,-0.00151969 0.00362205,-0.00233071 0.00241732,-0.00185827 0.00400394,-0.00386614 0.0067126,-0.00559843 0.00259843,-0.00165748 0.00487008,-0.00353937 0.00719685,-0.00550787 0.00259449,-0.00219291 0.00433858,-0.00333465 0.00696457,-0.00533858 0.00399213,-0.00303937 0.0100591,-0.00762205 0.0135945,-0.0110197 0.0010315,-0.000996063 0.00611024,-0.00479528 0.00733071,-0.00537402 0.000633858,-0.00030315 0.00574803,-0.00466142 0.00677165,-0.00553543 0.00119685,-0.00102756 0.0134409,-0.0105591 0.0139252,-0.010689l0.000311024 -0.000413386 -0.0265118 -0.0198346z"/>
    <path id="_100282384" class="fil2" d="M0.241705 0.339224l-0.110992 0.0874488 0.276547 0.000291339c-0.000606299,-0.00226772 -0.0166142,-0.0130079 -0.0194567,-0.0162795l-0.0250118 -0.0194528c-0.00661024,-0.00484252 -0.0671457,-0.0527992 -0.0678858,-0.0527992 -0.000854331,0 -0.0243898,0.0182598 -0.0254094,0.0182598 -0.00248819,0 -0.0102087,-0.00791732 -0.0133386,-0.00929134 -0.00382283,-0.0016811 -0.00944488,-0.0089685 -0.0136614,-0.0089685l0 0.000791339 -0.000791339 0z"/>
    <path id="_100280800" class="fil2" d="M0.354059 0.294366l-0.0305709 0.0222323c-0.00265748,0.00251969 -0.0173819,0.0124724 -0.0178661,0.0142913l0.0567756 0.0444646 0.0194528 0.0150866c3.14961e-005,4.72441e-005 0.0163819,0.0132283 0.0176535,0.0141063 0.00327953,0.00225984 0.00605906,0.0042874 0.00910236,0.00677559 0.00168504,0.00138189 0.00738189,0.00634252 0.00937008,0.00650787l0.000488189 -0.00355906 -9.05512e-005 -0.16715 -0.064315 0.0472441z"/>
   </g>
  </g>
  <path class="fil3" d="M0.30824 0.272303l0.0114094 0c-0.00356693,0.00725591 -0.00905118,0.0129252 -0.016437,0.0170394 -0.00846457,0.00471654 -0.0187913,0.0070748 -0.0309685,0.0070748 -0.0117717,0 -0.0219567,-0.00199213 -0.0305315,-0.00598031 -0.00855512,-0.00398425 -0.0149331,-0.00985433 -0.019122,-0.017622 -0.00416535,-0.00777165 -0.00625197,-0.0162165 -0.00625197,-0.0253583 0,-0.0100354 0.00237795,-0.019378 0.00711417,-0.0280433 0.00475197,-0.00864567 0.0112598,-0.0151535 0.0195039,-0.0194882 0.00824409,-0.00433071 0.0176772,-0.00650787 0.0282835,-0.00650787 0.00899213,0 0.0169803,0.00175591 0.0239843,0.00524803 0.007,0.00349213 0.0123386,0.00846457 0.0160512,0.0149173 0.00369291,0.00643701 0.00553937,0.0134921 0.00553937,0.0211339 0,0.00910236 -0.00281496,0.0173307 -0.00840945,0.0246811 -0.00703937,0.0092874 -0.0160512,0.0139291 -0.0270591,0.0139291 -0.00296063,0 -0.00518898,-0.000511811 -0.00668898,-0.00155512 -0.0015,-0.00103937 -0.00250394,-0.00255906 -0.003,-0.00455118 -0.00420472,0.00407874 -0.00906693,0.0061063 -0.0145669,0.0061063 -0.0059252,0 -0.0108425,-0.00204724 -0.0147559,-0.00612598 -0.00390945,-0.00409449 -0.00586614,-0.00952362 -0.00586614,-0.0163228 0,-0.0083937 0.00235827,-0.0160354 0.0070748,-0.0229606 0.00572047,-0.00842913 0.0130354,-0.0126535 0.0219567,-0.0126535 0.00635827,0 0.0110591,0.00243307 0.0140945,0.00729528l0.00133465 -0.00596063 0.0141299 0 -0.00807874 0.0384094c-0.000496063,0.00243307 -0.000751969,0.00400394 -0.000751969,0.00471654 0,0.000897638 0.000200787,0.00155512 0.000622047,0.00201181 0.000401575,0.000437008 0.000897638,0.00065748 0.00146457,0.00065748 0.00171654,0 0.00392913,-0.00102362 0.00665354,-0.0031063 0.0036378,-0.00270472 0.00658268,-0.00634646 0.00883071,-0.0109134 0.00224803,-0.00457087 0.0033622,-0.00930709 0.0033622,-0.0142047 0,-0.00877559 -0.00316142,-0.016126 -0.00952362,-0.0220315 -0.0063622,-0.00590551 -0.0152283,-0.00886614 -0.0266181,-0.00886614 -0.00967323,0 -0.017878,0.00197638 -0.0246063,0.0059252 -0.00672835,0.00394882 -0.011811,0.00948819 -0.0152126,0.0166535 -0.00341732,0.00714567 -0.00511811,0.0146063 -0.00511811,0.0223583 0,0.0075315 0.00190157,0.0143858 0.00570472,0.0205669 0.00380315,0.00617717 0.00914173,0.0106772 0.0160157,0.0135276 0.00687402,0.00283465 0.0147323,0.00425984 0.0235827,0.00425984 0.00853543,0 0.0158858,-0.00118898 0.0220276,-0.00356693 0.00612598,-0.00237402 0.0110787,-0.00594094 0.0148268,-0.0106929zm-0.0578976 -0.0220118c0,0.00453543 0.000913386,0.00788189 0.00275984,0.0100197 0.00184646,0.0021378 0.00411417,0.00321654 0.0068189,0.00321654 0.00204724,0 0.00394882,-0.000492126 0.00574016,-0.0015 0.00135433,-0.000712598 0.00268898,-0.00184646 0.00402362,-0.00338189 0.00188189,-0.00217323 0.00352756,-0.00535433 0.00489764,-0.00952362 0.00137402,-0.00418504 0.00206693,-0.00807874 0.00206693,-0.0116811 0,-0.00403937 -0.000948819,-0.00712992 -0.00281496,-0.0092874 -0.00188189,-0.00215748 -0.00424016,-0.00323622 -0.00709449,-0.00323622 -0.00307087,0 -0.00592126,0.00118898 -0.00851969,0.00354724 -0.00261417,0.00237795 -0.00456693,0.00575984 -0.00590157,0.0101654 -0.0013189,0.00438583 -0.00197638,0.00827953 -0.00197638,0.0116614z"/>
 </g>
</svg>
