<?xml version="1.0" encoding="UTF-8"?>
<!DOCTYPE svg PUBLIC "-//W3C//DTD SVG 1.1//EN" "http://www.w3.org/Graphics/SVG/1.1/DTD/svg11.dtd">
<!-- Creator: CorelDRAW -->
<svg xmlns="http://www.w3.org/2000/svg" xml:space="preserve" width="3in" height="0.8in" style="shape-rendering:geometricPrecision; text-rendering:geometricPrecision; image-rendering:optimizeQuality; fill-rule:evenodd; clip-rule:evenodd"
viewBox="0 0 3 0.8"
 xmlns:xlink="http://www.w3.org/1999/xlink">
 <defs>
  <style type="text/css">
   <![CDATA[
    .str1 {stroke:#1F1A17;stroke-width:0.0138898}
    .str0 {stroke:#C2C1C1;stroke-width:0.0290984}
    .fil0 {fill:white}
    .fil5 {fill:#00D1FE}
    .fil3 {fill:#00F075}
    .fil4 {fill:#F93647}
    .fil6 {fill:#FFD900}
    .fil7 {fill:#007CC3;fill-rule:nonzero}
    .fil2 {fill:#1F1A17;fill-rule:nonzero}
    .fil1 {fill:#605D5C;fill-rule:nonzero}
   ]]>
  </style>
 </defs>
 <g id="Layer_x0020_1">
  <metadata id="CorelCorpID_0Corel-Layer"/>
  <path class="fil0 str0" d="M0.381602 0.0884528l2.22181 0c0.0333622,0 0.0606496,0.0272874 0.0606496,0.0606496l0 0.363909c0,0.0333622 -0.0272874,0.0606535 -0.0606496,0.0606535l-2.22181 0c-0.0333622,0 -0.0606496,-0.0272913 -0.0606496,-0.0606535l0 -0.363909c0,-0.0333622 0.0272874,-0.0606496 0.0606496,-0.0606496z"/>
  <g id="_85727360">
   <g>
    <path id="_85682296" class="fil1" d="M0.511205 0.728768l0 -0.0730906 0.0251732 0c0.00568504,0 0.0100236,0.000354331 0.0130157,0.00105118 0.00418898,0.000956693 0.00776378,0.00270866 0.0107244,0.00522441 0.00384252,0.00326772 0.00674016,0.0074252 0.00864567,0.0124921 0.00192126,0.00507087 0.00287795,0.0108622 0.00287795,0.017378 0,0.00554724 -0.000649606,0.0104685 -0.00195669,0.0147559 -0.00129921,0.0042874 -0.00294488,0.00784646 -0.00498819,0.0106535 -0.00202756,0.00280709 -0.00424016,0.00501969 -0.00665354,0.00661811 -0.00240157,0.00161811 -0.00531496,0.00284252 -0.00871654,0.00367717 -0.00341732,0.000830709 -0.00733071,0.00124016 -0.0117441,0.00124016l-0.026378 0zm0.00966929 -0.00862992l0.0156024 0c0.0048189,0 0.00861417,-0.000440945 0.0113504,-0.00134252 0.00274016,-0.000897638 0.00492126,-0.00216142 0.00655512,-0.00379528 0.00229921,-0.00227953 0.00408268,-0.00537795 0.0053622,-0.00924016 0.00127559,-0.00387795 0.00192126,-0.00855906 0.00192126,-0.0140906 0,-0.00764173 -0.00125591,-0.0135118 -0.00375984,-0.0176142 -0.00251575,-0.00411811 -0.00556693,-0.00685827 -0.00915748,-0.00825591 -0.00258661,-0.001 -0.00677165,-0.00149606 -0.0125079,-0.00149606l-0.0153661 0 0 0.0558346zm-0.0175472 0.0179134l0.0737441 0 0 0.00464173 -0.0737441 0 0 -0.00464173zm0.0771299 -0.0357598c0,-0.00980315 0.00272047,-0.0170709 0.00818504,-0.0217874 0.00454331,-0.00391339 0.0100906,-0.00588976 0.0166457,-0.00588976 0.00727953,0 0.0132402,0.00238583 0.0178504,0.00716929 0.00462598,0.00476378 0.0069252,0.0113504 0.0069252,0.0197559 0,0.00682677 -0.00101969,0.012185 -0.00306299,0.0160827 -0.00204331,0.00391339 -0.00501969,0.00694094 -0.00891732,0.00910236 -0.00391339,0.00216142 -0.00816929,0.00323622 -0.0127953,0.00323622 -0.00740551,0 -0.0133937,-0.00236614 -0.0179724,-0.00712992 -0.00457874,-0.00474803 -0.00685827,-0.0115945 -0.00685827,-0.0205394zm0.00922441 0c0,0.0067874 0.00148031,0.0118583 0.00444094,0.0152283 0.00296063,0.00338583 0.00668504,0.0050748 0.0111654,0.0050748 0.00446063,0 0.00816929,-0.00170472 0.011126,-0.00509055 0.00294488,-0.00338976 0.00442913,-0.00855906 0.00442913,-0.0155039 0,-0.00655512 -0.00148425,-0.0115197 -0.00446063,-0.0148937 -0.00298031,-0.00336614 -0.00667323,-0.00505118 -0.0110945,-0.00505118 -0.00448031,0 -0.00820472,0.00168504 -0.0111654,0.00503543 -0.00296063,0.00335433 -0.00444094,0.00842126 -0.00444094,0.0152008zm-0.0126102 0.0357598l0.0567874 0 0 0.00464173 -0.0567874 0 0 -0.00464173zm0.0732953 -0.00928346l-0.0162047 -0.0529409 0.00927559 0 0.0084252 0.030563 0.00312992 0.0113701c0.000137795,-0.00057874 0.00105906,-0.00422441 0.00274016,-0.0109291l0.0084252 -0.0310039 0.00922441 0 0.00793307 0.0307008 0.00265354 0.010126 0.00302756 -0.0102323 0.0090748 -0.0305945 0.00872835 0 -0.016563 0.0529409 -0.00930709 0 -0.00842126 -0.0317008 -0.00205906 -0.00903937 -0.0107047 0.0407402 -0.00937795 0zm-0.0165079 0.00928346l0.0737402 0 0 0.00464173 -0.0737402 0 0 -0.00464173zm0.0804803 -0.00928346l0 -0.0529409 0.00806693 0 0 0.00751969c0.00389764,-0.0058189 0.00951575,-0.00873228 0.0168465,-0.00873228 0.00320079,0 0.00612598,0.000582677 0.00879921,0.00172047 0.00268898,0.00115748 0.0046811,0.00265354 0.00600787,0.00452756 0.00134646,0.00185433 0.00226378,0.00406693 0.00280709,0.00661811 0.000322835,0.00166929 0.000496063,0.00457874 0.000496063,0.00873228l0 0.0325551 -0.00898819 0 0 -0.0322165c0,-0.00364173 -0.000338583,-0.00638189 -0.00103937,-0.00820079 -0.00069685,-0.00180315 -0.00193701,-0.00324803 -0.00370866,-0.00432283 -0.00178346,-0.00109055 -0.0038622,-0.00163386 -0.00625984,-0.00163386 -0.00383071,0 -0.00711417,0.00122835 -0.00990551,0.00364567 -0.00277559,0.00242913 -0.00415354,0.00702756 -0.00415354,0.013815l0 0.0289134 -0.0089685 0zm-0.00674016 0.00928346l0.0567913 0 0 0.00464173 -0.0567913 0 0 -0.00464173zm0.0633268 -0.00928346l0 -0.0730906 0.0089685 0 0 0.0730906 -0.0089685 0zm-0.00653543 0.00928346l0.022685 0 0 0.00464173 -0.022685 0 0 -0.00464173zm0.0260709 -0.0357598c0,-0.00980315 0.00272441,-0.0170709 0.00818898,-0.0217874 0.00454331,-0.00391339 0.0100906,-0.00588976 0.0166417,-0.00588976 0.00728346,0 0.0132402,0.00238583 0.0178504,0.00716929 0.00462992,0.00476378 0.00692913,0.0113504 0.00692913,0.0197559 0,0.00682677 -0.00101969,0.012185 -0.00306299,0.0160827 -0.00204331,0.00391339 -0.00501969,0.00694094 -0.00891732,0.00910236 -0.00391339,0.00216142 -0.00816929,0.00323622 -0.0127992,0.00323622 -0.00740157,0 -0.0133937,-0.00236614 -0.0179724,-0.00712992 -0.00457874,-0.00474803 -0.00685827,-0.0115945 -0.00685827,-0.0205394zm0.00922835 0c0,0.0067874 0.00147638,0.0118583 0.00444094,0.0152283 0.00295669,0.00338583 0.00668504,0.0050748 0.0111614,0.0050748 0.00446063,0 0.00816929,-0.00170472 0.0111299,-0.00509055 0.00294488,-0.00338976 0.00442913,-0.00855906 0.00442913,-0.0155039 0,-0.00655512 -0.00148425,-0.0115197 -0.00446063,-0.0148937 -0.00298031,-0.00336614 -0.00667323,-0.00505118 -0.0110984,-0.00505118 -0.00447638,0 -0.00820472,0.00168504 -0.0111614,0.00503543 -0.00296457,0.00335433 -0.00444094,0.00842126 -0.00444094,0.0152008zm-0.0126142 0.0357598l0.0567913 0 0 0.00464173 -0.0567913 0 0 -0.00464173zm0.0980787 -0.0158189c-0.00333858,0.00282677 -0.00653543,0.00481496 -0.00959843,0.00598819 -0.00308268,0.00116142 -0.00638583,0.00174016 -0.00990945,0.00174016 -0.0058189,0 -0.0102756,-0.00141339 -0.0134055,-0.00425591 -0.00311811,-0.00284252 -0.00468504,-0.00648425 -0.00468504,-0.0108898 0,-0.00260236 0.000582677,-0.0049685 0.00177165,-0.00711417 0.00117323,-0.00214173 0.00272441,-0.0038622 0.00462598,-0.00515748 0.0019252,-0.00129528 0.00407087,-0.00227953 0.0064685,-0.00294488 0.00175591,-0.000456693 0.00440945,-0.000917323 0.00796457,-0.00134646 0.00725197,-0.000862205 0.0125945,-0.00188583 0.0160157,-0.00309449 3.54331e-005,-0.00122441 5.11811e-005,-0.00200787 5.11811e-005,-0.00233071 0,-0.00365748 -0.000850394,-0.00624803 -0.00255512,-0.00772441 -0.00227953,-0.00204331 -0.00569685,-0.00304724 -0.0102087,-0.00304724 -0.00422047,0 -0.00733465,0.000728346 -0.0093622,0.0022126 -0.00200394,0.00148031 -0.00348425,0.00410236 -0.00445669,0.00785827l-0.00876378 -0.00120472c0.000799213,-0.00374409 0.00211024,-0.00679134 0.00393307,-0.00908661 0.0018189,-0.0023189 0.00447244,-0.00410236 0.00792913,-0.00534646 0.00345276,-0.00124016 0.00745276,-0.00187402 0.0120157,-0.00187402 0.00452756,0 0.00818504,0.000547244 0.0110079,0.00160236 0.00282677,0.0010748 0.00490157,0.00239764 0.00624803,0.00401575 0.00132283,0.00161811 0.00224409,0.00364567 0.00279134,0.00611024 0.000291339,0.0015315 0.000440945,0.0042874 0.000440945,0.00827165l0 0.0119646c0,0.00835433 0.000185039,0.0136299 0.00057874,0.0158228 0.000377953,0.00221654 0.00114173,0.00434252 0.00226378,0.00636614l-0.00937795 0c-0.00092126,-0.00185433 -0.0015315,-0.0040315 -0.00178346,-0.00653543zm-0.000751969 -0.0200472c-0.00326772,0.00134646 -0.00814961,0.0024685 -0.0146496,0.00340551 -0.00369685,0.000527559 -0.0063189,0.00112205 -0.00783465,0.0017874 -0.00152756,0.000661417 -0.00272047,0.00163386 -0.00353543,0.0029252 -0.000834646,0.00127559 -0.00125984,0.00269291 -0.00125984,0.00425591 0,0.00239764 0.00092126,0.00438976 0.00272047,0.00598819 0.00180709,0.00158661 0.00446063,0.00238189 0.00795276,0.00238189 0.00345276,0 0.0065315,-0.000748031 0.00922047,-0.00225984 0.00268898,-0.00151575 0.0046811,-0.00359449 0.00593701,-0.0062126 0.000972441,-0.00202756 0.00144882,-0.00501969 0.00144882,-0.0089685l0 -0.00330315zm-0.0405354 0.0358661l0.0567874 0 0 0.00464173 -0.0567874 0 0 -0.00464173zm0.0978701 -0.00928346l0 -0.00668898c-0.00335433,0.00525984 -0.0082874,0.00788189 -0.0148031,0.00788189 -0.00422441,0 -0.00810236,-0.00116142 -0.0116417,-0.00349213 -0.00354331,-0.00231102 -0.00628346,-0.00556299 -0.00824016,-0.00974803 -0.00193701,-0.00417323 -0.00290551,-0.00895276 -0.00290551,-0.0143819 0,-0.00527165 0.00088189,-0.0100748 0.00263386,-0.0143819 0.00177165,-0.00430315 0.00440945,-0.00760236 0.00793307,-0.00988189 0.00352362,-0.00229921 0.0074685,-0.00346063 0.0118268,-0.00346063 0.0031811,0 0.00602362,0.000685039 0.00850787,0.00202756 0.00250394,0.00134646 0.00452756,0.00309843 0.00609449,0.00525984l0 -0.0262244 0.00891339 0 0 0.0730906 -0.0083189 0zm-0.0283701 -0.0264291c0,0.00679134 0.00142913,0.0118622 0.00429134,0.0152165 0.00285827,0.00335039 0.00622441,0.00503937 0.010122,0.00503937 0.00391732,0 0.00724803,-0.00162205 0.00998819,-0.00482283 0.00274409,-0.00319685 0.00411811,-0.00809843 0.00411811,-0.014685 0,-0.00725197 -0.0013937,-0.0125551 -0.0041811,-0.0159409 -0.00279528,-0.00340551 -0.00623228,-0.00509055 -0.0103307,-0.00509055 -0.00398425,0 -0.0073189,0.00163386 -0.00999213,0.00488583 -0.00266929,0.00324803 -0.00401575,0.00838583 -0.00401575,0.0153976zm-0.0127126 0.0357126l0.0567874 0 0 0.00464173 -0.0567874 0 0 -0.00464173zm0.126445 -0.0158189c-0.00333858,0.00282677 -0.00653543,0.00481496 -0.00959843,0.00598819 -0.00308268,0.00116142 -0.00638583,0.00174016 -0.00990945,0.00174016 -0.0058189,0 -0.0102756,-0.00141339 -0.0134055,-0.00425591 -0.00311811,-0.00284252 -0.00468504,-0.00648425 -0.00468504,-0.0108898 0,-0.00260236 0.000582677,-0.0049685 0.00177165,-0.00711417 0.00117323,-0.00214173 0.00272441,-0.0038622 0.00462598,-0.00515748 0.0019252,-0.00129528 0.00407087,-0.00227953 0.0064685,-0.00294488 0.00175591,-0.000456693 0.00440945,-0.000917323 0.00796457,-0.00134646 0.00724803,-0.000862205 0.0125945,-0.00188583 0.0160157,-0.00309449 3.54331e-005,-0.00122441 5.11811e-005,-0.00200787 5.11811e-005,-0.00233071 0,-0.00365748 -0.000854331,-0.00624803 -0.00255512,-0.00772441 -0.00227953,-0.00204331 -0.00569685,-0.00304724 -0.0102087,-0.00304724 -0.00422441,0 -0.00733465,0.000728346 -0.0093622,0.0022126 -0.00200394,0.00148031 -0.00348425,0.00410236 -0.00445669,0.00785827l-0.00876378 -0.00120472c0.000799213,-0.00374409 0.0021063,-0.00679134 0.00393307,-0.00908661 0.0018189,-0.0023189 0.00447244,-0.00410236 0.00792913,-0.00534646 0.00345276,-0.00124016 0.00745276,-0.00187402 0.0120157,-0.00187402 0.00452756,0 0.00818504,0.000547244 0.0110079,0.00160236 0.00282677,0.0010748 0.00490157,0.00239764 0.00624803,0.00401575 0.00132283,0.00161811 0.00224409,0.00364567 0.00279134,0.00611024 0.000291339,0.0015315 0.000440945,0.0042874 0.000440945,0.00827165l0 0.0119646c0,0.00835433 0.000185039,0.0136299 0.00057874,0.0158228 0.000377953,0.00221654 0.00114173,0.00434252 0.00226378,0.00636614l-0.00937795 0c-0.00092126,-0.00185433 -0.0015315,-0.0040315 -0.00178346,-0.00653543zm-0.000751969 -0.0200472c-0.00326772,0.00134646 -0.00814961,0.0024685 -0.0146496,0.00340551 -0.00369685,0.000527559 -0.0063189,0.00112205 -0.00783465,0.0017874 -0.00152756,0.000661417 -0.00272047,0.00163386 -0.00353543,0.0029252 -0.000838583,0.00127559 -0.00125984,0.00269291 -0.00125984,0.00425591 0,0.00239764 0.000917323,0.00438976 0.00272047,0.00598819 0.00180709,0.00158661 0.00446063,0.00238189 0.00795276,0.00238189 0.00345276,0 0.0065315,-0.000748031 0.00922047,-0.00225984 0.00268898,-0.00151575 0.0046811,-0.00359449 0.00593701,-0.0062126 0.000972441,-0.00202756 0.00144882,-0.00501969 0.00144882,-0.0089685l0 -0.00330315zm0.0229921 0.0468661l0 -0.0732244 0.00816929 0 0 0.00687402c0.00192126,-0.00268898 0.00409843,-0.0047126 0.00653543,-0.00605906 0.00241732,-0.00134252 0.00535433,-0.00202756 0.00881496,-0.00202756 0.00452362,0 0.00850787,0.00117323 0.0119606,0.00349213 0.00347244,0.00233071 0.0060748,0.00561417 0.00782677,0.00985039 0.00177165,0.00424016 0.00265748,0.00888583 0.00265748,0.0139409 0,0.00541339 -0.000968504,0.0102953 -0.0029252,0.0146339 -0.00194488,0.00434252 -0.00476378,0.00765748 -0.00848031,0.00997638 -0.00370866,0.00229134 -0.00760236,0.00345276 -0.011689,0.00345276 -0.00299606,0 -0.00566535,-0.000633858 -0.00804724,-0.00188976 -0.00238583,-0.00125984 -0.00432283,-0.0028622 -0.00585827,-0.00478346l0 0.0257638 -0.00896457 0zm0.00811417 -0.0464567c0,0.00680709 0.00137795,0.0118425 0.0041378,0.0151102 0.00275591,0.00325591 0.00611024,0.00488976 0.0100236,0.00488976 0.00398425,0 0.00740157,-0.00168898 0.010248,-0.0050748 0.00283858,-0.00337008 0.00426772,-0.00859449 0.00426772,-0.0156772 0,-0.00675197 -0.0013937,-0.0117913 -0.00416929,-0.0151575 -0.00277165,-0.00335433 -0.00609449,-0.00503937 -0.00994094,-0.00503937 -0.00382677,0 -0.0072126,0.00178346 -0.0101575,0.0053622 -0.00294488,0.00357087 -0.00440945,0.00877953 -0.00440945,0.0155866zm0.0486732 0.0464567l0 -0.0732244 0.00816929 0 0 0.00687402c0.00192126,-0.00268898 0.00410236,-0.0047126 0.00653543,-0.00605906 0.00241732,-0.00134252 0.00535827,-0.00202756 0.00881496,-0.00202756 0.00452362,0 0.00850787,0.00117323 0.0119606,0.00349213 0.00347244,0.00233071 0.00607874,0.00561417 0.00783071,0.00985039 0.00176772,0.00424016 0.00265748,0.00888583 0.00265748,0.0139409 0,0.00541339 -0.000972441,0.0102953 -0.00292913,0.0146339 -0.00194094,0.00434252 -0.00476378,0.00765748 -0.00847638,0.00997638 -0.00370866,0.00229134 -0.0076063,0.00345276 -0.0116929,0.00345276 -0.00299606,0 -0.00566535,-0.000633858 -0.00804724,-0.00188976 -0.00238189,-0.00125984 -0.00432283,-0.0028622 -0.00585433,-0.00478346l0 0.0257638 -0.0089685 0zm0.00811417 -0.0464567c0,0.00680709 0.00138189,0.0118425 0.0041378,0.0151102 0.00275984,0.00325591 0.00611417,0.00488976 0.0100276,0.00488976 0.00398031,0 0.00739764,-0.00168898 0.0102441,-0.0050748 0.00283858,-0.00337008 0.00426772,-0.00859449 0.00426772,-0.0156772 0,-0.00675197 -0.0013937,-0.0117913 -0.00416929,-0.0151575 -0.00277165,-0.00335433 -0.00609449,-0.00503937 -0.00993701,-0.00503937 -0.00383071,0 -0.00721654,0.00178346 -0.0101575,0.0053622 -0.00294488,0.00357087 -0.00441339,0.00877953 -0.00441339,0.0155866zm0.0450866 0.0103622l0.0088622 -0.00138976c0.000492126,0.00355118 0.00188976,0.00627559 0.00416929,0.0081811 0.00226378,0.00188976 0.00544882,0.00284646 0.00955118,0.00284646 0.00411811,0 0.0071811,-0.000854331 0.00916929,-0.00252362 0.00199213,-0.00168504 0.00299213,-0.00365748 0.00299213,-0.00590157 0,-0.00204331 -0.00088189,-0.00362992 -0.00264961,-0.00480315 -0.00122441,-0.000799213 -0.0042874,-0.00180315 -0.00917323,-0.00302362 -0.00657087,-0.00167323 -0.0111496,-0.00310236 -0.013685,-0.00432677 -0.00253543,-0.00120866 -0.00447244,-0.0028937 -0.00578346,-0.00503543 -0.00131102,-0.00214567 -0.00197638,-0.00451181 -0.00197638,-0.00709843 0,-0.00236614 0.000547244,-0.00454331 0.00163386,-0.00655118 0.0010748,-0.00202756 0.00255512,-0.00369291 0.00440945,-0.00501969 0.0013937,-0.00101969 0.00329921,-0.00190945 0.00570079,-0.00262205 0.00241339,-0.000716535 0.00500394,-0.0010748 0.00775984,-0.0010748 0.00415354,0 0.00779528,0.000614173 0.0109449,0.00180709 0.00314961,0.00119291 0.00546063,0.00280709 0.00695669,0.00485039 0.0015,0.00205906 0.00252362,0.00477953 0.00308268,0.00820079l-0.00876772 0.00120866c-0.000409449,-0.00272441 -0.00156299,-0.00484646 -0.00347244,-0.00638189 -0.00190157,-0.00152756 -0.00461024,-0.00229921 -0.00809843,-0.00229921 -0.00411417,0 -0.00705906,0.000685039 -0.00881496,0.00204331 -0.00176772,0.0013622 -0.00265354,0.00296457 -0.00265354,0.00478346 0,0.00117717 0.000370079,0.0022126 0.0011063,0.00314961 0.000732283,0.000968504 0.00187402,0.00175197 0.00343701,0.00239764 0.000901575,0.000326772 0.00353937,0.00109055 0.00792913,0.00228346 0.00635039,0.00170079 0.0107717,0.00307874 0.0132756,0.00416535 0.00251575,0.0010748 0.00449213,0.00265354 0.00592126,0.00471654 0.00142913,0.00205906 0.00214567,0.00461024 0.00214567,0.00767323 0,0.00299606 -0.000885827,0.00580315 -0.00262205,0.00846063 -0.00175197,0.00263386 -0.00427165,0.00467717 -0.00755512,0.00612598 -0.0032874,0.00144882 -0.00701575,0.00216142 -0.0111654,0.00216142 -0.00688976,0 -0.0121339,-0.00142913 -0.0157402,-0.00429134 -0.00361024,-0.00285827 -0.00590551,-0.00709449 -0.00688976,-0.0127126zm0.0851339 0.015811l0 -0.0459646 -0.00791339 0 0 -0.00697638 0.00791339 0 0 -0.00563386c0,-0.00355512 0.000326772,-0.0062126 0.000956693,-0.00792913 0.000866142,-0.00233465 0.00238189,-0.00422441 0.00456299,-0.00567323 0.00217323,-0.00144094 0.00522441,-0.00215354 0.00914961,-0.00215354 0.00252362,0 0.00531102,0.000283465 0.00837402,0.000897638l-0.00134252 0.00783071c-0.00185433,-0.00034252 -0.00362598,-0.000511811 -0.00529134,-0.000511811 -0.00272047,0 -0.00464567,0.00057874 -0.00577165,0.00175197 -0.0011378,0.00115748 -0.00170079,0.00333858 -0.00170079,0.00653543l0 0.00488583 0.010311 0 0 0.00697638 -0.010311 0 0 0.0459646 -0.00893701 0zm0.0261378 0l0 -0.0529409 0.00807087 0 0 0.00801181c0.00205512,-0.00374016 0.00396457,-0.00622441 0.00571654,-0.00741732 0.00173622,-0.00119291 0.00365748,-0.00180709 0.00575197,-0.00180709 0.0030315,0 0.00609449,0.000976378 0.00922441,0.0028937l-0.00309843 0.00833858c-0.00217717,-0.00131102 -0.00437402,-0.00195669 -0.00656693,-0.00195669 -0.00197638,0 -0.00372835,0.000594488 -0.00529528,0.00177165 -0.00156299,0.00119291 -0.00266929,0.00282677 -0.00333465,0.00491732 -0.00100394,0.0031811 -0.00149606,0.00667323 -0.00149606,0.0104685l0 0.0277205 -0.00897244 0zm0.030752 -0.0264764c0,-0.00980315 0.00272441,-0.0170709 0.00818898,-0.0217874 0.00454331,-0.00391339 0.0100906,-0.00588976 0.0166417,-0.00588976 0.00728346,0 0.0132402,0.00238583 0.0178504,0.00716929 0.00462992,0.00476378 0.0069252,0.0113504 0.0069252,0.0197559 0,0.00682677 -0.00101575,0.012185 -0.00306299,0.0160827 -0.00204331,0.00391339 -0.00501969,0.00694094 -0.00891339,0.00910236 -0.00391339,0.00216142 -0.00816929,0.00323622 -0.0127992,0.00323622 -0.00740551,0 -0.0133937,-0.00236614 -0.0179724,-0.00712992 -0.00457874,-0.00474803 -0.00685827,-0.0115945 -0.00685827,-0.0205394zm0.00922441 0c0,0.0067874 0.00148031,0.0118583 0.00444488,0.0152283 0.00295669,0.00338583 0.00668504,0.0050748 0.0111614,0.0050748 0.00446063,0 0.00816929,-0.00170472 0.0111299,-0.00509055 0.00294488,-0.00338976 0.0044252,-0.00855906 0.0044252,-0.0155039 0,-0.00655512 -0.00148031,-0.0115197 -0.00445669,-0.0148937 -0.00298425,-0.00336614 -0.00667323,-0.00505118 -0.0110984,-0.00505118 -0.00447638,0 -0.00820472,0.00168504 -0.0111614,0.00503543 -0.00296457,0.00335433 -0.00444488,0.00842126 -0.00444488,0.0152008zm0.0509213 0.0264764l0 -0.0529409 0.00801181 0 0 0.00741732c0.00166535,-0.00258661 0.00388189,-0.00467717 0.0066378,-0.00624409 0.00275591,-0.00158268 0.00590551,-0.00238583 0.00942913,-0.00238583 0.00391339,0 0.00712992,0.000818898 0.00962992,0.00245276 0.00251969,0.00163386 0.00429134,0.00389764 0.00531102,0.00682283 0.00420472,-0.00617717 0.00964961,-0.00927559 0.0163583,-0.00927559 0.00525591,0 0.0092874,0.00146457 0.0121142,0.00437402 0.00282677,0.00291339 0.00423622,0.00738583 0.00423622,0.0134291l0 0.0363504 -0.00891732 0 0 -0.0333543c0,-0.00359055 -0.000291339,-0.00617717 -0.000866142,-0.00775984 -0.000598425,-0.00156693 -0.00165354,-0.00284252 -0.00316929,-0.00381496 -0.00152756,-0.000948819 -0.00333071,-0.00144488 -0.0053937,-0.00144488 -0.00372835,0 -0.00680709,0.00124016 -0.00927559,0.00372441 -0.00244882,0.0024685 -0.00368898,0.00643701 -0.00368898,0.0118819l0 0.0307677 -0.00897244 0 0 -0.0343937c0,-0.004 -0.000732283,-0.00699213 -0.00219291,-0.00898819 -0.00146457,-0.00198819 -0.00384646,-0.00299213 -0.0071811,-0.00299213 -0.00251969,0 -0.00485039,0.000665354 -0.00699606,0.00201181 -0.00214173,0.00132283 -0.00370866,0.00326772 -0.00466535,0.00581496 -0.000968504,0.00257087 -0.00144488,0.00626378 -0.00144488,0.0110827l0 0.0274646 -0.00896457 0zm0.899961 -0.0234843l0.00912205 -0.000799213c0.00042126,0.00365748 0.00142913,0.00665354 0.00301181,0.009 0.00158268,0.00235039 0.0040315,0.00424016 0.00735039,0.00568504 0.0033189,0.00144882 0.00706299,0.00216142 0.0112126,0.00216142 0.00369685,0 0.00694488,-0.000543307 0.00977165,-0.00163386 0.00282283,-0.0011063 0.00493307,-0.00260236 0.00631496,-0.00450787 0.00137795,-0.0019252 0.0020748,-0.004 0.0020748,-0.00626378 0,-0.00229921 -0.000665354,-0.0042874 -0.00200787,-0.00600787 -0.00133071,-0.00172047 -0.00352362,-0.00314961 -0.00656693,-0.00430315 -0.00197638,-0.000767717 -0.00629921,-0.00195669 -0.0130197,-0.0035748 -0.00670472,-0.00161811 -0.0114213,-0.00312992 -0.0141102,-0.00455906 -0.00348425,-0.00182677 -0.00609449,-0.0041063 -0.00781102,-0.00680709 -0.00170079,-0.00270866 -0.00255118,-0.00573622 -0.00255118,-0.00911024 0,-0.00366929 0.00103937,-0.00712992 0.00312992,-0.0103307 0.00209449,-0.0032126 0.00515748,-0.00564567 0.00917323,-0.00731102 0.00403543,-0.00165354 0.00849213,-0.00248425 0.0134094,-0.00248425 0.00542913,0 0.0101969,0.000862205 0.0143465,0.00261417 0.0041378,0.00174016 0.0073189,0.00431102 0.00954724,0.00769685 0.0022126,0.00338583 0.00342126,0.00723228 0.00359055,0.0115197l-0.00927559 0.00069685c-0.000507874,-0.00461024 -0.00219291,-0.00811417 -0.00506693,-0.0104646 -0.00287795,-0.00236614 -0.00711417,-0.00353937 -0.0127323,-0.00353937 -0.00585433,0 -0.0101063,0.00107087 -0.0127953,0.00321654 -0.00267323,0.00214173 -0.00401969,0.00472835 -0.00401969,0.00774016 0,0.00264173 0.000956693,0.00480315 0.00284252,0.00648819 0.00187402,0.00170079 0.00672441,0.00343307 0.0145827,0.00520472 0.00786614,0.0017874 0.0132598,0.00333465 0.016185,0.00466535 0.00425591,0.0019685 0.00740551,0.00445669 0.00942913,0.00744882 0.00202362,0.00301181 0.0030315,0.00648819 0.0030315,0.0104016 0,0.0038937 -0.0011063,0.00755512 -0.00333465,0.0109961 -0.00223228,0.00343307 -0.00542913,0.0061063 -0.00959843,0.0080315 -0.00416929,0.00190551 -0.00886614,0.00285827 -0.0140787,0.00285827 -0.00661811,0 -0.0121654,-0.000952756 -0.016626,-0.0028937 -0.00447244,-0.00192126 -0.00798031,-0.00481496 -0.0105354,-0.00870079 -0.00253543,-0.00385827 -0.00387795,-0.00824803 -0.00399606,-0.0131339zm0.0898386 0.0154528l0.00129528 0.00793307c-0.00251969,0.000523622 -0.00478346,0.000795276 -0.00677165,0.000795276 -0.00326772,0 -0.00579134,-0.000507874 -0.00759449,-0.00154724 -0.0017874,-0.00101969 -0.00304331,-0.00238189 -0.00377559,-0.00406693 -0.000732283,-0.00166929 -0.0011063,-0.00520866 -0.0011063,-0.0105866l0 -0.0304606 -0.00658661 0 0 -0.00697638 0.00658661 0 0 -0.013122 0.00893307 -0.00537795 0 0.0185 0.00901969 0 0 0.00697638 -0.00901969 0 0 0.0309567c0,0.00257087 0.00015748,0.00420472 0.00046063,0.00493307 0.000322835,0.000732283 0.000834646,0.00131102 0.00154724,0.00175197 0.000716535,0.000429134 0.00174016,0.000649606 0.00306299,0.000649606 0.00100394,0 0.00231496,-0.000122047 0.00394882,-0.000358268zm0.0054252 -0.0184449c0,-0.00980315 0.00272441,-0.0170709 0.00818898,-0.0217874 0.00454331,-0.00391339 0.0100906,-0.00588976 0.0166417,-0.00588976 0.00728346,0 0.0132402,0.00238583 0.0178504,0.00716929 0.00462992,0.00476378 0.00692913,0.0113504 0.00692913,0.0197559 0,0.00682677 -0.00101969,0.012185 -0.00306299,0.0160827 -0.00204331,0.00391339 -0.00501969,0.00694094 -0.00891732,0.00910236 -0.00391339,0.00216142 -0.00816929,0.00323622 -0.0127992,0.00323622 -0.00740157,0 -0.0133937,-0.00236614 -0.0179724,-0.00712992 -0.00457874,-0.00474803 -0.00685827,-0.0115945 -0.00685827,-0.0205394zm0.00922835 0c0,0.0067874 0.00147638,0.0118583 0.00444094,0.0152283 0.00295669,0.00338583 0.00668504,0.0050748 0.0111614,0.0050748 0.00446063,0 0.00816929,-0.00170472 0.0111299,-0.00509055 0.00294488,-0.00338976 0.00442913,-0.00855906 0.00442913,-0.0155039 0,-0.00655512 -0.00148425,-0.0115197 -0.00446063,-0.0148937 -0.00298425,-0.00336614 -0.00667323,-0.00505118 -0.0110984,-0.00505118 -0.00447638,0 -0.00820472,0.00168504 -0.0111614,0.00503543 -0.00296457,0.00335433 -0.00444094,0.00842126 -0.00444094,0.0152008zm0.050811 0.0264764l0 -0.0529409 0.00807087 0 0 0.00801181c0.00205512,-0.00374016 0.00396063,-0.00622441 0.00571654,-0.00741732 0.00173622,-0.00119291 0.00365748,-0.00180709 0.00575197,-0.00180709 0.0030315,0 0.00609449,0.000976378 0.00922441,0.0028937l-0.00309843 0.00833858c-0.00217717,-0.00131102 -0.00437402,-0.00195669 -0.00656693,-0.00195669 -0.00197638,0 -0.00372835,0.000594488 -0.00529528,0.00177165 -0.00156693,0.00119291 -0.00266929,0.00282677 -0.00333465,0.00491732 -0.00100787,0.0031811 -0.0015,0.00667323 -0.0015,0.0104685l0 0.0277205 -0.0089685 0zm0.0703386 -0.0170512l0.00927559 0.00114173c-0.0014685,0.00542913 -0.00416929,0.00962992 -0.00812205,0.012626 -0.00396063,0.00298031 -0.00901969,0.00447638 -0.0151614,0.00447638 -0.00774409,0 -0.0138858,-0.00238583 -0.0184134,-0.00714961 -0.00454331,-0.00476378 -0.00680709,-0.0114488 -0.00680709,-0.020063 0,-0.00891732 0.00229528,-0.0158268 0.00687402,-0.020748 0.00459449,-0.00491339 0.0105354,-0.00738583 0.0178543,-0.00738583 0.0070748,0 0.0128661,0.00241732 0.0173386,0.00723622 0.00449213,0.00481496 0.00674016,0.0116063 0.00674016,0.0203346 0,0.000547244 -1.9685e-005,0.00134646 -5.11811e-005,0.00239764l-0.0394803 0c0.000322835,0.00582283 0.00197244,0.0102835 0.00493307,0.0133622 0.00296457,0.00309449 0.0066378,0.00464961 0.0110669,0.00464961 0.00327953,0 0.00608661,-0.000870079 0.00842126,-0.0026063 0.00233071,-0.00172047 0.00416929,-0.00447638 0.0055315,-0.00827165zm-0.0294606 -0.0145157l0.0295591 0c-0.000389764,-0.00444094 -0.00152756,-0.00779528 -0.00338583,-0.0100079 -0.00285827,-0.00345276 -0.00656693,-0.00519291 -0.0111142,-0.00519291 -0.00411811,0 -0.00758661,0.00138189 -0.0103937,0.0041378 -0.00280709,0.00275984 -0.00435827,0.00644882 -0.00466535,0.011063z"/>
    <path id="_85682224" class="fil2" d="M1.67982 0.701898l0 -0.0123228 0.0318071 0 0 0.0291181c-0.00309449,0.00299213 -0.0075748,0.00563386 -0.0134449,0.00791339 -0.00587008,0.00226378 -0.011811,0.00340551 -0.0178189,0.00340551 -0.00764173,0 -0.014311,-0.00160236 -0.0199961,-0.00480315 -0.00568504,-0.0032126 -0.00995276,-0.00779134 -0.012811,-0.0137677 -0.0028622,-0.0059685 -0.00429134,-0.0124567 -0.00429134,-0.0194646 0,-0.00761024 0.00160236,-0.0143819 0.00478346,-0.0203031 0.00319685,-0.00590551 0.0078622,-0.0104488 0.0140197,-0.0135984 0.0046811,-0.00243307 0.0105197,-0.0036378 0.0174961,-0.0036378 0.00907087,0 0.0161693,0.00190157 0.0212559,0.00569685 0.00510236,0.00381496 0.00838976,0.00907087 0.00985433,0.0157913l-0.0146535 0.00274016c-0.00103937,-0.00359055 -0.00297638,-0.00642913 -0.00582283,-0.00850787 -0.00283858,-0.0020748 -0.00637795,-0.00311417 -0.0106339,-0.00311417 -0.00644882,0 -0.0115748,0.00204331 -0.0153819,0.00612992 -0.00381496,0.00409843 -0.00570472,0.0101575 -0.00570472,0.0182087 0,0.00866142 0.0019252,0.0151772 0.00579134,0.0195197 0.00384252,0.00433465 0.0088937,0.0065 0.0151457,0.0065 0.00309449,0 0.00619291,-0.000610236 0.00930709,-0.00182283 0.00309843,-0.00120472 0.00576772,-0.00268898 0.00799606,-0.00440551l0 -0.00927559 -0.0168976 0zm0.042063 -0.000358268c0,-0.00464567 0.00116142,-0.00915748 0.00344094,-0.0135118 0.00229921,-0.00433858 0.00554724,-0.00767323 0.00974803,-0.00995276 0.00420472,-0.00229921 0.00890157,-0.00346063 0.0140945,-0.00346063 0.00799606,0 0.0145669,0.00261024 0.019689,0.00781496 0.00512598,0.00520472 0.00767323,0.0117756 0.00767323,0.0197244 0,0.00799606 -0.00258268,0.0146378 -0.00774016,0.0199094 -0.00517717,0.00527559 -0.0116732,0.00789764 -0.0195197,0.00789764 -0.00486614,0 -0.00948031,-0.00109055 -0.0138858,-0.0032874 -0.00440945,-0.00219291 -0.00775984,-0.00540945 -0.0100591,-0.00964567 -0.00227953,-0.00423622 -0.00344094,-0.0093937 -0.00344094,-0.0154882zm0.0143661 0.000751969c0,0.00525591 0.00124016,0.00927559 0.00374409,0.012063 0.00248425,0.00279134 0.00556693,0.00418898 0.00922441,0.00418898 0.00366142,0 0.00672047,-0.00139764 0.00918898,-0.00418898 0.00248425,-0.0027874 0.00372835,-0.00683858 0.00372835,-0.0121693 0,-0.00517323 -0.00124409,-0.00916929 -0.00372835,-0.0119646 -0.0024685,-0.00279134 -0.00552756,-0.0041811 -0.00918898,-0.0041811 -0.00365748,0 -0.00674016,0.00138976 -0.00922441,0.0041811 -0.00250394,0.00279528 -0.00374409,0.00682677 -0.00374409,0.0120709zm0.0480079 -0.000751969c0,-0.00464567 0.00116142,-0.00915748 0.00344094,-0.0135118 0.00229921,-0.00433858 0.00554724,-0.00767323 0.00974803,-0.00995276 0.00420472,-0.00229921 0.00890157,-0.00346063 0.0140945,-0.00346063 0.00799606,0 0.014563,0.00261024 0.019689,0.00781496 0.00512598,0.00520472 0.00767323,0.0117756 0.00767323,0.0197244 0,0.00799606 -0.00258661,0.0146378 -0.00774016,0.0199094 -0.00517717,0.00527559 -0.0116772,0.00789764 -0.0195197,0.00789764 -0.00486614,0 -0.00948031,-0.00109055 -0.0138858,-0.0032874 -0.00441339,-0.00219291 -0.00775984,-0.00540945 -0.0100591,-0.00964567 -0.00227953,-0.00423622 -0.00344094,-0.0093937 -0.00344094,-0.0154882zm0.0143622 0.000751969c0,0.00525591 0.00124409,0.00927559 0.00374803,0.012063 0.00248425,0.00279134 0.00556299,0.00418898 0.00922441,0.00418898 0.00365748,0 0.00672047,-0.00139764 0.00918898,-0.00418898 0.00248425,-0.0027874 0.00372835,-0.00683858 0.00372835,-0.0121693 0,-0.00517323 -0.00124409,-0.00916929 -0.00372835,-0.0119646 -0.0024685,-0.00279134 -0.0055315,-0.0041811 -0.00918898,-0.0041811 -0.00366142,0 -0.00674016,0.00138976 -0.00922441,0.0041811 -0.00250394,0.00279528 -0.00374803,0.00682677 -0.00374803,0.0120709zm0.0499685 0.0299685l0.0159961 0.00193701c0.000271654,0.00187008 0.000885827,0.00314961 0.00183858,0.00384646 0.00133071,0.00100787 0.00344094,0.00149606 0.00627953,0.00149606 0.00366142,0 0.00640157,-0.000543307 0.00824016,-0.00164961 0.00122441,-0.000732283 0.00216142,-0.00190945 0.0027874,-0.00353543 0.000429134,-0.00116142 0.000645669,-0.00330709 0.000645669,-0.00643701l0 -0.00772835c-0.00418504,0.00572047 -0.00947638,0.00857874 -0.0158583,0.00857874 -0.00711417,0 -0.012748,-0.00301181 -0.0168976,-0.00901969 -0.00325197,-0.00476378 -0.00488583,-0.0106693 -0.00488583,-0.017748 0,-0.00888583 0.00214567,-0.0156575 0.00641732,-0.0203543 0.00427165,-0.0046811 0.00958268,-0.0070315 0.0159291,-0.0070315 0.00653543,0 0.0119488,0.00287795 0.0161969,0.00862992l0 -0.00741732 0.0131102 0 0 0.0475118c0,0.00624409 -0.000511811,0.0109094 -0.00155512,0.0140079 -0.00101969,0.00309449 -0.00246457,0.00551181 -0.0043189,0.00728346 -0.00187402,0.00175197 -0.00435827,0.00312992 -0.00745276,0.0041378 -0.00311417,0.000984252 -0.00704724,0.00149606 -0.0117953,0.00149606 -0.00898425,0 -0.0153465,-0.00155118 -0.0190945,-0.00461417 -0.00375984,-0.00307874 -0.00563386,-0.00697638 -0.00563386,-0.0116929 0,-0.000472441 1.9685e-005,-0.00103937 5.11811e-005,-0.00169685zm0.0125118 -0.031063c0,0.00561811 0.00108661,0.00973622 0.00326772,0.0123386 0.00217323,0.00260236 0.00485039,0.00391339 0.00805118,0.00391339 0.00341732,0 0.00631102,-0.00134252 0.00867717,-0.00401181 0.00234646,-0.00267323 0.00353543,-0.0066378 0.00353543,-0.0118976 0,-0.00548031 -0.0011378,-0.00954724 -0.00339764,-0.0122008 -0.00224803,-0.00267323 -0.0051063,-0.004 -0.00856299,-0.004 -0.00337008,0 -0.00612992,0.00131102 -0.00830315,0.00391339 -0.0021811,0.00262205 -0.00326772,0.00658268 -0.00326772,0.0119449zm0.0511575 0.0275709l0 -0.0730906 0.0140039 0 0 0.0730906 -0.0140039 0zm0.0590157 -0.0168465l0.0139685 0.00233071c-0.00179921,0.00512205 -0.00462598,0.00901969 -0.00850394,0.011689 -0.0038622,0.00269291 -0.00871654,0.00401969 -0.0145354,0.00401969 -0.00920866,0 -0.0160157,-0.00299606 -0.0204409,-0.00901969 -0.00348425,-0.00481496 -0.00524016,-0.0109094 -0.00524016,-0.0182441 0,-0.00877953 0.00229528,-0.0156575 0.0068937,-0.020626 0.00457874,-0.00497244 0.0103819,-0.00745669 0.0173937,-0.00745669 0.00787795,0 0.0140906,0.00261024 0.0186496,0.00781496 0.00454331,0.00520472 0.00672441,0.0131693 0.00653543,0.0239134l-0.0351102 0c0.000102362,0.00414961 0.00122835,0.00738189 0.00338976,0.00967717 0.00215748,0.0023189 0.00486614,0.00347244 0.00808268,0.00347244 0.00219291,0 0.0040315,-0.000594488 0.0055315,-0.0017874 0.00149606,-0.00120472 0.0026378,-0.00312992 0.00338583,-0.00578346zm0.000799213 -0.0141614c-9.84252e-005,-0.00406693 -0.00114173,-0.00714961 -0.00312992,-0.00925591 -0.00199606,-0.00211024 -0.0044252,-0.00316535 -0.0072874,-0.00316535 -0.00306299,0 -0.00557874,0.00112205 -0.0075748,0.00335433 -0.00198819,0.00220866 -0.00297638,0.00524016 -0.00293701,0.00906693l0.0209291 0zm0.0538071 0.0310079l0 -0.0730906 0.0236772 0c0.00896457,0 0.0148189,0.000374016 0.0175433,0.0011063 0.00418504,0.00108661 0.00770866,0.0034685 0.0105315,0.00714567 0.00282677,0.00367717 0.00423622,0.0084252 0.00423622,0.0142283 0,0.00448819 -0.000814961,0.00827165 -0.00244882,0.011315 -0.00163386,0.00306299 -0.00368898,0.00546457 -0.0062126,0.00721654 -0.00250394,0.00173622 -0.00505118,0.0028937 -0.00764173,0.00345276 -0.00351969,0.000700787 -0.00862598,0.00105512 -0.015311,0.00105512l-0.00961811 0 0 0.0275709 -0.0147559 0zm0.0147559 -0.0607205l0 0.0207323 0.00806693 0c0.0058189,0 0.00972047,-0.000377953 0.0116772,-0.00114567 0.00195669,-0.00076378 0.00348425,-0.00195669 0.00461024,-0.00359055 0.00110236,-0.00163386 0.00166929,-0.00351969 0.00166929,-0.0056811 0,-0.00265354 -0.000783465,-0.00485433 -0.00235039,-0.00658661 -0.00155118,-0.00172047 -0.00353937,-0.00280709 -0.0059252,-0.00323622 -0.00176772,-0.000338583 -0.00530709,-0.000492126 -0.0106181,-0.000492126l-0.00712992 0zm0.053252 0.0607205l0 -0.0730906 0.0140039 0 0 0.0730906 -0.0140039 0zm0.0388307 -0.0367913l-0.0127126 -0.00229921c0.00142913,-0.00512205 0.00388189,-0.00890157 0.00737008,-0.0113661 0.00350394,-0.00245276 0.00867717,-0.00369685 0.0155551,-0.00369685 0.00626378,0 0.0109094,0.000751969 0.0139724,0.00223228 0.00304331,0.00148031 0.00520472,0.00335433 0.00644882,0.00563386 0.00124016,0.00227953 0.00187008,0.00644882 0.00187008,0.0125433l-0.000149606 0.0163504c0,0.00464567 0.000216535,0.00808661 0.000677165,0.0102992 0.000444882,0.00219291 0.00129528,0.00457874 0.00251969,0.00709449l-0.0138701 0c-0.000354331,-0.000937008 -0.000814961,-0.00231496 -0.00134252,-0.0041378 -0.000224409,-0.000830709 -0.000389764,-0.00137795 -0.000496063,-0.00164567 -0.00239764,0.00233071 -0.00495276,0.00406299 -0.00767323,0.00523622 -0.00272047,0.00116142 -0.00563386,0.00174016 -0.00872835,0.00174016 -0.00544882,0 -0.00975197,-0.00148425 -0.0128858,-0.0044252 -0.00314961,-0.00296063 -0.0047126,-0.00670472 -0.0047126,-0.0112323 0,-0.00298031 0.000712598,-0.00564961 0.00214173,-0.008 0.00142913,-0.00234646 0.00344094,-0.0041378 0.00600787,-0.00537795 0.00257087,-0.00124409 0.00629921,-0.00233071 0.0111496,-0.00326772 0.00653543,-0.00122441 0.0110787,-0.00238189 0.0135945,-0.00343701l0 -0.0013937c0,-0.00270472 -0.000661417,-0.00461417 -0.00198819,-0.00576772 -0.00133071,-0.00114567 -0.00383071,-0.00172047 -0.00752362,-0.00172047 -0.00250394,0 -0.00444094,0.000496063 -0.00583858,0.00148031 -0.0013937,0.000972441 -0.00251575,0.00268898 -0.00338583,0.00515748zm0.0187362 0.0113661c-0.00178346,0.000594488 -0.00462992,0.00131102 -0.00852362,0.00214567 -0.00388189,0.000834646 -0.00641732,0.00164961 -0.00762205,0.00243307 -0.00182283,0.00131102 -0.00274016,0.00294488 -0.00274016,0.00493701 0,0.0019685 0.000728346,0.00365748 0.00219291,0.00508661 0.00146457,0.00142913 0.0033189,0.00214567 0.00558268,0.00214567 0.00253543,0 0.00493307,-0.000834646 0.00723228,-0.00248425 0.00170472,-0.00126378 0.00280709,-0.00281102 0.00333858,-0.00464961 0.000370079,-0.00119291 0.00053937,-0.00347244 0.00053937,-0.00682283l0 -0.00279134zm0.0209488 -0.0275157l0.0149094 0 0.0126614 0.0375906 0.012374 -0.0375906 0.0144961 0 -0.0186811 0.0509488 -0.00335433 0.00922441c-0.00122441,0.00308268 -0.00240157,0.00544882 -0.00350394,0.00708268 -0.00112598,0.00163386 -0.00240551,0.00294488 -0.00384646,0.00396457 -0.00144882,0.00100394 -0.00322047,0.00179921 -0.00533071,0.00236614 -0.0021063,0.000559055 -0.00449213,0.000850394 -0.00716142,0.000850394 -0.00269291,0 -0.00532677,-0.000291339 -0.00793307,-0.000850394l-0.00124409 -0.0109803c0.00219685,0.000444882 0.00417323,0.000649606 0.00594094,0.000649606 0.00325197,0 0.00566929,-0.000952756 0.00723622,-0.00285827 0.00154724,-0.00190945 0.00275197,-0.00434252 0.00359055,-0.00730315l-0.0201535 -0.0530945z"/>
   </g>
   <g>
    <path id="_85682968" class="fil3" d="M1.57639 0.699874l-0.0528465 -0.0525984c0,0 0.00149213,-0.00279921 0.00668504,-0.00126772 0.00519685,0.00152756 0.0632795,0.0355039 0.0632795,0.0355039l-0.0171181 0.0183622z"/>
    <path id="_85682944" class="fil4" d="M1.59518 0.717717l-0.019 -0.0179685 -0.0526772 0.0530748c0,0 0.00366535,0.00366929 0.00977953,0 0.00611811,-0.00366929 0.0618976,-0.0351063 0.0618976,-0.0351063z"/>
    <path id="_85128160" class="fil5" d="M1.52187 0.651327c9.84252e-005,-0.00225984 0.000807087,-0.00329528 0.00162992,-0.00405512l0.0528858 0.0526024 -0.0527441 0.0529488c0,0 -0.00228346,-0.00214567 -0.00228346,-0.00673228 0,-0.0316181 5.90551e-005,-0.0631417 0.000511811,-0.0947638z"/>
    <path id="_85128112" class="fil6" d="M1.59504 0.717929l0.0198661 -0.0113228c0,0 0.0103976,-0.00581496 0.000614173,-0.0116299 -0.00544488,-0.00323622 -0.0116496,-0.00692913 -0.0220197,-0.0134567l-0.0174173 0.0183543c0,0 0.0189567,0.0174449 0.0189567,0.0180551z"/>
   </g>
  </g>
  <polygon class="fil0 str1" points="2.58758,0.659398 2.543,0.601933 2.50822,0.623421 2.45316,0.438161 2.62193,0.537465 2.58945,0.565898 2.63403,0.623362 "/>
  <g id="_85620072">
   <path id="_87113968" class="fil2" d="M0.61861 0.368579l0.0196063 -0.103673 0.0299213 0 -0.032311 0.14572 -0.0302323 0 -0.0237047 -0.0974882 -0.0237047 0.0974882 -0.0302323 0 -0.032311 -0.14572 0.0298858 0 0.0197441 0.1035 0.0240118 -0.1035 0.0254173 0 0.0239094 0.103673zm0.126591 0.0420472c-0.00133071,-0.00259449 -0.0022874,-0.00584252 -0.00290551,-0.00970079 -0.007,0.00782283 -0.016122,0.0117165 -0.0273268,0.0117165 -0.0105866,0 -0.0194016,-0.0030748 -0.0263701,-0.00922441 -0.00696457,-0.00611417 -0.0104488,-0.0138661 -0.0104488,-0.0232244 0,-0.0114803 0.00426772,-0.0202913 0.0127717,-0.0264055 0.00850787,-0.00614961 0.0208031,-0.00925591 0.0368583,-0.00932677l0.0133228 0 0 -0.00621654c0,-0.00498819 -0.00129921,-0.00898425 -0.0038622,-0.0119882 -0.00255906,-0.00300787 -0.00662598,-0.00450787 -0.0121575,-0.00450787 -0.00485039,0 -0.00867717,0.00116142 -0.0114449,0.00348425 -0.00276772,0.00235433 -0.00416535,0.0055315 -0.00416535,0.00959843l-0.0288976 0c0,-0.00625197 0.00190945,-0.0120591 0.00577165,-0.0173898 0.0038937,-0.0053622 0.00935827,-0.00952756 0.0164291,-0.0125669 0.00707087,-0.00304331 0.0149961,-0.00454331 0.0238071,-0.00454331 0.0133583,0 0.0239449,0.00334646 0.0317677,0.0100394 0.00785827,0.00673228 0.0117835,0.0161575 0.0117835,0.0282835l0 0.0469331c7.08661e-005,0.0102835 0.00150394,0.0180709 0.00430709,0.0233307l0 0.00170866 -0.0292402 0zm-0.0239094 -0.0200866c0.00426772,0 0.00819685,-0.000956693 0.0118189,-0.00286614 0.00358661,-0.00188189 0.00624803,-0.00444094 0.00799213,-0.00765354l0 -0.0186496 -0.0107953 0c-0.0144843,0 -0.0222008,0.00501969 -0.023126,0.0150276l-0.000102362 0.00170866c0,0.00362205 0.00126378,0.00659449 0.00379134,0.00891732 0.00252756,0.00235433 0.00601181,0.00351575 0.0104213,0.00351575zm0.0976535 -0.0881929l0.000925197 0.0125c0.00772047,-0.00966535 0.0181024,-0.0145157 0.0311181,-0.0145157 0.0114764,0 0.0200157,0.00338189 0.0256181,0.0101102 0.00560236,0.00672835 0.00847244,0.0168031 0.0086063,0.0302283l0 0.0699567 -0.0289291 0 0 -0.0692717c0,-0.00614961 -0.00133465,-0.0105906 -0.004,-0.0133583 -0.00266142,-0.00276378 -0.00710236,-0.00416535 -0.0133189,-0.00416535 -0.00812992,0 -0.0142441,0.00348425 -0.018311,0.0104173l0 0.076378 -0.0289291 0 0 -0.10828 0.0272205 0zm0.122799 -0.0266102l0 0.0266102 0.0185157 0 0 0.0212087 -0.0185157 0 0 0.0540748c0,0.00399606 0.000751969,0.00686614 0.00229134,0.0086063 0.00153543,0.00174409 0.00447244,0.00259843 0.00881102,0.00259843 0.0032126,0 0.00604724,-0.000240157 0.00850787,-0.000720472l0 0.0219331c-0.00567323,0.00174016 -0.0115118,0.00259449 -0.0175236,0.00259449 -0.0202913,0 -0.0306063,-0.010248 -0.0310157,-0.0307441l0 -0.0583425 -0.015815 0 0 -0.0212087 0.015815 0 0 -0.0266102 0.0289291 0zm0.146303 -0.0108307l0.0300236 0 0 0.100906c0,0.00925591 -0.00205118,0.0174528 -0.00614961,0.0245591 -0.00413386,0.0071063 -0.00990551,0.0126063 -0.0173858,0.0164646 -0.00748031,0.00385827 -0.0159173,0.00580709 -0.025311,0.00580709 -0.0154055,0 -0.0274291,-0.00392913 -0.0360354,-0.011752 -0.00861024,-0.00785433 -0.0129134,-0.0189213 -0.0129134,-0.0332677l0.0302323 0c0,0.0071378 0.0015,0.0123976 0.00450787,0.015815 0.00300394,0.00338189 0.00775197,0.00509055 0.0142087,0.00509055 0.00574016,0 0.010315,-0.00198425 0.0136969,-0.00590945 0.00341732,-0.00392913 0.00512598,-0.0095315 0.00512598,-0.0168071l0 -0.100906zm0.0493583 0.0905906c0,-0.0107598 0.00205118,-0.0203268 0.00618504,-0.0287283 0.00412992,-0.00843701 0.0101102,-0.0149252 0.0178622,-0.0195394 0.0077874,-0.00461024 0.0168071,-0.00689764 0.0270866,-0.00689764 0.0145866,0 0.0265079,0.00447244 0.0357638,0.0134213 0.00925984,0.00891732 0.0143819,0.0210787 0.0154764,0.0364134l0.000204724 0.00741339c0,0.0166339 -0.00464567,0.0299567 -0.013937,0.04 -0.00925591,0.0100394 -0.0216929,0.015063 -0.0373031,0.015063 -0.0156417,0 -0.0280748,-0.00502362 -0.0374016,-0.0150315 -0.00929134,-0.0100079 -0.013937,-0.0236024 -0.013937,-0.0408189l0 -0.00129528zm0.0288976 0.00208268c0,0.0102795 0.00194882,0.0181378 0.00580709,0.0235669 0.0038622,0.00543307 0.00942913,0.00816535 0.0166339,0.00816535 0.00700394,0 0.0124685,-0.00269685 0.0163976,-0.00806299 0.00392913,-0.0053622 0.00590945,-0.0139685 0.00590945,-0.025752 0,-0.0100787 -0.00198031,-0.0179016 -0.00590945,-0.0234331 -0.00392913,-0.00553543 -0.00946063,-0.00829921 -0.0166024,-0.00829921 -0.00707087,0 -0.0125669,0.00276378 -0.0164291,0.00826378 -0.00385827,0.0055 -0.00580709,0.0140039 -0.00580709,0.0255512zm0.189067 -0.000102362c0,0.0173504 -0.00372441,0.030878 -0.0111378,0.0406142 -0.00737795,0.00970079 -0.0177283,0.0145512 -0.0310157,0.0145512 -0.0117165,0 -0.0211102,-0.00450787 -0.0281102,-0.0135276l-0.00129921 0.0115118 -0.0260276 0 0 -0.153713 0.0289291 0 0 0.0551339c0.00666142,-0.00782283 0.0154409,-0.0117165 0.0263031,-0.0117165 0.0132205,0 0.0235709,0.00485039 0.0310827,0.0145512 0.00751575,0.00973228 0.0112756,0.0233976 0.0112756,0.0409882l0 0.0016063zm-0.0289331 -0.00211811c0,-0.0109291 -0.00174409,-0.0189252 -0.00519291,-0.0239803 -0.00348425,-0.00501969 -0.00864173,-0.00754724 -0.0155079,-0.00754724 -0.00922047,0 -0.0155748,0.00375591 -0.0190276,0.0113071l0 0.0427638c0.00351969,0.00761811 0.00994094,0.0114094 0.0191969,0.0114094 0.0093622,0 0.0155079,-0.00461024 0.0184134,-0.0138346 0.00140157,-0.00437008 0.00211811,-0.0111024 0.00211811,-0.0201181zm0.0703307 0.0105551c0,-0.00932677 0.00116142,-0.0167717 0.00341732,-0.0223071 0.00225197,-0.00556693 0.00642126,-0.0109961 0.0124646,-0.0163622 0.00604724,-0.0053937 0.0100433,-0.00976772 0.0120591,-0.0131142 0.00198031,-0.00338189 0.00300787,-0.00693307 0.00300787,-0.0106929 0,-0.0112717 -0.00522835,-0.0169094 -0.0156102,-0.0169094 -0.00495276,0 -0.00891732,0.00150394 -0.0118543,0.00454331 -0.00297244,0.00304331 -0.00454331,0.00724409 -0.0046811,0.0126063l-0.029 0c0.000137795,-0.0127756 0.00423622,-0.022748 0.0123307,-0.0299567 0.00812992,-0.00720866 0.0191969,-0.0107953 0.0332047,-0.0107953 0.0141417,0 0.0251063,0.00341732 0.0329252,0.010248 0.00779134,0.00686614 0.011685,0.0165 0.011685,0.029 0,0.00566929 -0.00126378,0.011 -0.00379134,0.0160551 -0.00252756,0.00501969 -0.0069685,0.010622 -0.0133228,0.0167717l-0.00809449 0.00768504c-0.00505512,0.00488583 -0.00796063,0.0105906 -0.0087126,0.0171142l-0.000409449 0.00611417 -0.0256181 0zm-0.00290157 0.0307087c0,-0.00447638 0.00153543,-0.00816535 0.0045748,-0.0110669 0.00303937,-0.00290551 0.00690157,-0.00433858 0.0116496,-0.00433858 0.00474803,0 0.00864173,0.00143307 0.0116457,0.00433858 0.00303937,0.00290157 0.00457874,0.00659055 0.00457874,0.0110669 0,0.00440551 -0.00150394,0.00802756 -0.00447638,0.0108937 -0.00297244,0.00287008 -0.00686614,0.00430709 -0.011748,0.00430709 -0.00485039,0 -0.00877953,-0.00143701 -0.011752,-0.00430709 -0.00297244,-0.00286614 -0.00447244,-0.00648819 -0.00447244,-0.0108937z"/>
   <path id="_87113896" class="fil7" d="M1.64246 0.362087c-0.00116142,0.0156811 -0.00693307,0.0280433 -0.0173858,0.0370276 -0.0104173,0.00901969 -0.024185,0.0135276 -0.0412638,0.0135276 -0.018685,0 -0.0333701,-0.0062874 -0.0440984,-0.0188543 -0.010689,-0.0125709 -0.0160551,-0.0298543 -0.0160551,-0.0517835l0 -0.00891732c0,-0.0140039 0.00246063,-0.0263701 0.00741339,-0.0370276 0.00491732,-0.0106929 0.0119882,-0.0188898 0.0211457,-0.0245945 0.00918898,-0.00570472 0.0198465,-0.00853937 0.0319724,-0.00853937 0.0168386,0 0.0303661,0.00451181 0.0406457,0.0135276 0.0102835,0.00898425 0.0161929,0.021622 0.0177953,0.0379173l-0.0300236 0c-0.000716535,-0.0093937 -0.00334646,-0.0162283 -0.00785433,-0.0204606 -0.00447638,-0.00423622 -0.0113425,-0.00635433 -0.020563,-0.00635433 -0.0100118,0 -0.0174921,0.00358661 -0.0224449,0.0107598 -0.00498425,0.00717323 -0.00754724,0.0182756 -0.00764961,0.0333701l0 0.011c0,0.015748 0.00235827,0.0272598 0.0071378,0.0345354 0.00478346,0.00727559 0.0122992,0.0108937 0.0225787,0.0108937 0.00925591,0 0.0161929,-0.00211811 0.0207677,-0.00635039 0.00454331,-0.00423622 0.00717323,-0.0107953 0.00785827,-0.0196772l0.0300236 0zm-0.127409 0.0671693l0.134106 0 0 0.00931496 -0.134106 0 0 -0.00931496zm0.175744 -0.0186299l-0.0290315 0 0 -0.153713 0.0290315 0 0 0.153713zm-0.0416378 0.0186299l0.0543465 0 0 0.00931496 -0.0543465 0 0 -0.00931496zm0.0959843 -0.0186299l-0.0290315 0 0 -0.10828 0.0290315 0 0 0.10828zm-0.0307402 -0.136291c0,-0.00433858 0.0014685,-0.0079252 0.00437008,-0.0107244 0.00290551,-0.00280315 0.00686614,-0.00420079 0.0118543,-0.00420079 0.00495276,0 0.00888189,0.00139764 0.0118189,0.00420079 0.00293701,0.00279921 0.00440551,0.00638583 0.00440551,0.0107244 0,0.00437402 -0.00150394,0.00799213 -0.00447638,0.0107953 -0.0029685,0.00279921 -0.0068622,0.00420079 -0.011748,0.00420079 -0.00488583,0 -0.00877953,-0.00140157 -0.011752,-0.00420079 -0.00297244,-0.00280315 -0.00447244,-0.00642126 -0.00447244,-0.0107953zm-0.0108976 0.154921l0.0543465 0 0 0.00931496 -0.0543465 0 0 -0.00931496zm0.110504 -0.0399449c0.00532677,0 0.00966535,-0.0014685 0.0129803,-0.00440551 0.00334646,-0.00293701 0.00508661,-0.00683071 0.00522441,-0.0117165l0.027122 0c-6.69291e-005,0.00734252 -0.00208268,0.0140748 -0.00601181,0.020189 -0.00392913,0.00611417 -0.00932677,0.0108268 -0.0161575,0.0142087 -0.00683071,0.00338189 -0.0144134,0.00505512 -0.0226811,0.00505512 -0.0154724,0 -0.0276693,-0.00491732 -0.0366181,-0.0147559 -0.00894882,-0.00983858 -0.0134213,-0.0234331 -0.0134213,-0.0407874l0 -0.00190945c0,-0.0167047 0.00443701,-0.0299921 0.0133189,-0.0399331 0.00888189,-0.00994094 0.0210433,-0.0149252 0.0365157,-0.0149252 0.0135591,0 0.0244213,0.00385827 0.0325866,0.0115433 0.00816535,0.00772047 0.0123307,0.0179685 0.0124685,0.030811l-0.027122 0c-0.000137795,-0.00560236 -0.00187795,-0.0101772 -0.00522441,-0.0136614 -0.00331496,-0.00351969 -0.00772047,-0.00525984 -0.013185,-0.00525984 -0.00676378,0 -0.0118189,0.00245669 -0.0152717,0.00734252 -0.00344882,0.00491732 -0.00515748,0.012878 -0.00515748,0.023878l0 0.00300394c0,0.0111339 0.00170866,0.0191614 0.00512598,0.0240118 0.00338189,0.00488583 0.00853937,0.00731102 0.0155079,0.00731102zm-0.0561575 0.0399449l0.106882 0 0 0.00931496 -0.106882 0 0 -0.00931496zm0.157335 -0.0620787l-0.0104213 0.0104173 0 0.0330315 -0.0289291 0 0 -0.153713 0.0289291 0 0 0.0851575 0.00560236 -0.00720866 0.0277047 -0.0325157 0.0347362 0 -0.0391102 0.045122 0.0425276 0.0631575 -0.0332362 0 -0.0278031 -0.0434488zm-0.0504528 0.0620787l0.109476 0 0 0.00931496 -0.109476 0 0 -0.00931496zm0.109476 0l0.0510315 0 0 0.00931496 -0.0510315 0 0 -0.00931496zm0.0903465 -0.115126c0.00768504,-0.00918898 0.0173189,-0.0137992 0.0289331,-0.0137992 0.0234685,0 0.0353858,0.013626 0.0357283,0.0409213l0 0.069374 -0.0289291 0 0 -0.0685906c0,-0.0061811 -0.00133465,-0.0107913 -0.004,-0.0137638 -0.00266142,-0.00297244 -0.00710236,-0.00444094 -0.0133189,-0.00444094 -0.00847244,0 -0.014622,0.00327953 -0.0184134,0.00980315l0 0.0769921 -0.0289291 0 0 -0.153713 0.0289291 0 0 0.0572165zm-0.039315 0.115126l0.114669 0 0 0.00931496 -0.114669 0 0 -0.00931496zm0.175606 -0.0166142c-0.0158819,0 -0.0287953,-0.00488583 -0.0387677,-0.014622 -0.00997638,-0.00973228 -0.0149606,-0.0227126 -0.0149606,-0.038937l0 -0.00280315c0,-0.0108622 0.00208268,-0.0205984 0.00628346,-0.0291693 0.00420079,-0.0085748 0.0101811,-0.0152008 0.0178661,-0.019811 0.00772047,-0.00464567 0.0164961,-0.0069685 0.0263701,-0.0069685 0.0148228,0 0.0264724,0.00467717 0.0349764,0.0140039 0.00850394,0.00935827 0.0127756,0.0225787 0.0127756,0.0397244l0 0.0118189 -0.0689646 0c0.000956693,0.00707087 0.00375591,0.0127402 0.00847244,0.0170118 0.0047126,0.00426772 0.0106535,0.00642126 0.0178622,0.00642126 0.0111378,0 0.0198465,-0.0040315 0.0260984,-0.012126l0.0142087 0.0159173c-0.00433858,0.00614961 -0.0101772,0.0109291 -0.0175906,0.0143819 -0.00741339,0.00344882 -0.0156102,0.00515748 -0.0246299,0.00515748zm-0.00331102 -0.088878c-0.00574016,0 -0.0103858,0.00194488 -0.013937,0.00580315 -0.00358661,0.0038622 -0.00587402,0.0093937 -0.00686614,0.0166024l0.0402362 0 0 -0.0022874c-0.000133858,-0.00642126 -0.00187795,-0.011374 -0.00522441,-0.0148583 -0.00331496,-0.00351969 -0.00806299,-0.00525984 -0.0142087,-0.00525984zm-0.057626 0.105492l0.110776 0 0 0.00931496 -0.110776 0 0 -0.00931496zm0.182713 -0.0998228c-0.00392913,-0.000511811 -0.00741339,-0.000787402 -0.0103858,-0.000787402 -0.0109646,0 -0.0181378,0.00368898 -0.0215197,0.0111024l0 0.070878 -0.0289291 0 0 -0.10828 0.0273268 0 0.000783465 0.0129094c0.00580709,-0.00994094 0.0138346,-0.0149252 0.0241181,-0.0149252 0.00320866,0 0.00621654,0.000440945 0.00901575,0.00129528l-0.000409449 0.0278071zm-0.071937 0.0998228l0.0747362 0 0 0.00931496 -0.0747362 0 0 -0.00931496zm0.135673 -0.0166142c-0.0158819,0 -0.0287953,-0.00488583 -0.0387677,-0.014622 -0.00997638,-0.00973228 -0.0149606,-0.0227126 -0.0149606,-0.038937l0 -0.00280315c0,-0.0108622 0.00208268,-0.0205984 0.00628346,-0.0291693 0.00420079,-0.0085748 0.0101811,-0.0152008 0.0178661,-0.019811 0.00772047,-0.00464567 0.0164961,-0.0069685 0.0263701,-0.0069685 0.0148228,0 0.0264724,0.00467717 0.0349764,0.0140039 0.00850394,0.00935827 0.0127756,0.0225787 0.0127756,0.0397244l0 0.0118189 -0.0689646 0c0.000956693,0.00707087 0.00375591,0.0127402 0.00847244,0.0170118 0.0047126,0.00426772 0.0106535,0.00642126 0.0178622,0.00642126 0.0111378,0 0.0198465,-0.0040315 0.0260984,-0.012126l0.0142087 0.0159173c-0.00433858,0.00614961 -0.0101772,0.0109291 -0.0175906,0.0143819 -0.00741339,0.00344882 -0.0156102,0.00515748 -0.0246299,0.00515748zm-0.00331102 -0.088878c-0.00574016,0 -0.0103858,0.00194488 -0.013937,0.00580315 -0.00358661,0.0038622 -0.00587402,0.0093937 -0.00686614,0.0166024l0.0402362 0 0 -0.0022874c-0.000133858,-0.00642126 -0.00187795,-0.011374 -0.00522441,-0.0148583 -0.00331496,-0.00351969 -0.00806299,-0.00525984 -0.0142087,-0.00525984zm-0.057626 0.105492l0.110776 0 0 0.00931496 -0.110776 0 0 -0.00931496z"/>
  </g>
 </g>
</svg>
