<?xml version="1.0" encoding="UTF-8"?>
<!DOCTYPE svg PUBLIC "-//W3C//DTD SVG 1.1//EN" "http://www.w3.org/Graphics/SVG/1.1/DTD/svg11.dtd">
<!-- Creator: CorelDRAW -->
<svg xmlns="http://www.w3.org/2000/svg" xml:space="preserve" width="3in" height="1in" style="shape-rendering:geometricPrecision; text-rendering:geometricPrecision; image-rendering:optimizeQuality; fill-rule:evenodd; clip-rule:evenodd"
viewBox="0 0 3 1"
 xmlns:xlink="http://www.w3.org/1999/xlink">
 <defs>
  <style type="text/css">
   <![CDATA[
    .str0 {stroke:#1F1A17;stroke-width:0.0138898}
    .fil5 {fill:#42929D}
    .fil6 {fill:#DEDEDD}
    .fil1 {fill:#E77817}
    .fil0 {fill:white}
    .fil10 {fill:#00D1FE}
    .fil8 {fill:#00F075}
    .fil9 {fill:#F93647}
    .fil11 {fill:#FFD900}
    .fil7 {fill:#1F1A17;fill-rule:nonzero}
    .fil2 {fill:#42929D;fill-rule:nonzero}
    .fil4 {fill:#449284;fill-rule:nonzero}
    .fil3 {fill:#E77817;fill-rule:nonzero}
    .fil12 {fill:white;fill-rule:nonzero}
   ]]>
  </style>
 </defs>
 <g id="Layer_x0020_1">
  <metadata id="CorelCorpID_0Corel-Layer"/>
  <path class="fil0" d="M0.516469 0.317205l1.96706 0c0.0295354,0 0.0536969,0.0241614 0.0536969,0.0537008l0 0.322181c0,0.0295354 -0.0241614,0.0536969 -0.0536969,0.0536969l-1.96706 0c-0.0295394,0 -0.0536969,-0.0241614 -0.0536969,-0.0536969l0 -0.322181c0,-0.0295394 0.0241575,-0.0537008 0.0536969,-0.0537008z"/>
  <g id="_121158904">
   <path id="_121163248" class="fil1" d="M0.599138 0.382291l0.194244 0c0.0287638,0 0.0522992,0.0235354 0.0522992,0.0522992l0 0.194244c0,0.0287638 -0.0235354,0.0522992 -0.0522992,0.0522992l-0.194244 0c-0.0287638,0 -0.0522992,-0.0235354 -0.0522992,-0.0522992l0 -0.194244c0,-0.0287638 0.0235354,-0.0522992 0.0522992,-0.0522992z"/>
   <path id="_121163176" class="fil0" d="M0.609102 0.558382c-0.00988976,-0.00216142 -0.0413031,-0.0165433 -0.043063,-0.0543858 -0.00176378,-0.0378386 0.0174331,-0.0630709 0.0461496,-0.0717874 0.0287165,-0.00872047 0.0538465,0.00717717 0.0538465,0.00717717 0,0 0.0138425,-0.0117953 0.0312795,-0.0112795 0.0174331,0.000511811 0.0297402,0.0128189 0.0297402,0.0128189 0,0 0.0194882,-0.0148701 0.0471772,-0.0102559 0.0276929,0.00461417 0.0487165,0.027689 0.0517953,0.0569213 0.0030748,0.0292283 -0.00499213,0.0499646 -0.0189724,0.0615354 -0.0139843,0.0115709 -0.0216181,0.010874 -0.0240906,0.0112165l0 0.0694685c0,0.00379134 -0.00310236,0.0068937 -0.00688976,0.0068937l-0.160083 0c-0.0037874,0 -0.00688976,-0.00310236 -0.00688976,-0.0068937l0 -0.0714291z"/>
   <path id="_121163104" class="fil0" d="M0.60787 0.599646l0.176724 0c0.00282283,0 0.00512992,0.00230709 0.00512992,0.00512992l0 0.0325039c0,0.00282283 -0.00230709,0.00513386 -0.00512992,0.00513386l-0.176724 0c-0.00282283,0 -0.0051378,-0.00231102 -0.0051378,-0.00513386l0 -0.0325039c0,-0.00282283 0.00231496,-0.00512992 0.0051378,-0.00512992z"/>
   <path id="_121163032" class="fil2" d="M0.675937 0.481776l0.0102913 0 0 0.0305157c0,0.00448425 -0.0014685,0.00803937 -0.00440945,0.0106654 -0.00294094,0.00262992 -0.00662205,0.00394488 -0.0110394,0.00394488 -0.00483071,0 -0.00864567,-0.00116142 -0.011437,-0.00348819 -0.00281102,-0.0023189 -0.00415354,-0.00575197 -0.00405118,-0.0102874l6.29921e-005 -0.000188976 0.0100748 0c0,0.00216142 0.0005,0.00370472 0.0015,0.00462992 0.001,0.000929134 0.00227953,0.00138583 0.00385039,0.00138583 0.00140551,0 0.00261811,-0.000582677 0.0036378,-0.00173622 0.00100787,-0.00116142 0.00151969,-0.00281102 0.00151969,-0.0049252l0 -0.0305157zm0.0540315 0.0262402c0,0.00548425 -0.00173228,0.0100039 -0.00520079,0.0135551 -0.00347638,0.00355906 -0.00801181,0.00533071 -0.0136102,0.00533071 -0.00564173,0 -0.0102205,-0.00177165 -0.0137244,-0.00533071 -0.0035,-0.00355118 -0.00525197,-0.00807087 -0.00525197,-0.0135551l0 -0.00799606c0,-0.00546457 0.00175197,-0.0099685 0.00524409,-0.0135354 0.00349213,-0.00356693 0.00804724,-0.00534646 0.0136693,-0.00534646 0.00557874,0 0.0101142,0.00177953 0.0136181,0.00534646 0.00350394,0.00356693 0.00525591,0.00807087 0.00525591,0.0135354l0 0.00799606zm-0.0102953 -0.00805906c0,-0.00317717 -0.000748031,-0.0057874 -0.00224016,-0.00782283 -0.0015,-0.00202756 -0.0036063,-0.00305118 -0.00633858,-0.00305118 -0.00279134,0 -0.00492126,0.00100787 -0.00639764,0.00303543 -0.00148819,0.0020315 -0.00221654,0.0046378 -0.00221654,0.00783858l0 0.00805906c0,0.00322441 0.000740157,0.00585039 0.00224409,0.00788583 0.0015,0.00202756 0.00364173,0.00305118 0.00643307,0.00305118 0.00270079,0 0.00480315,-0.00102362 0.0062874,-0.00305118 0.00149213,-0.00203543 0.00222835,-0.00466142 0.00222835,-0.00788583l0 -0.00805906zm0.0162913 0.0262953l0 -0.0444764 0.0152717 0c0.00551575,0 0.00982283,0.00101969 0.0129173,0.00306299 0.00309843,0.00205512 0.00464173,0.00509843 0.00464173,0.00915748 0,0.00211417 -0.000492126,0.00398819 -0.00149213,0.00564961 -0.001,0.00164567 -0.0025315,0.00288583 -0.00461811,0.00372441 0.0026063,0.000590551 0.00453543,0.00177165 0.00577559,0.00355118 0.00124016,0.00177953 0.00187008,0.00383465 0.00187008,0.00616142 0,0.00433465 -0.00146063,0.00762205 -0.00437008,0.00984646 -0.00291339,0.00222047 -0.00709449,0.00332283 -0.0125236,0.00332283l-0.0174724 0zm0.0103504 -0.0191024l0 0.0111614 0.00712205 0c0.00220079,0 0.00385039,-0.000440945 0.00494488,-0.00130709 0.00110236,-0.000866142 0.00165354,-0.00218898 0.00165354,-0.00398425 0,-0.00193701 -0.000476378,-0.00339764 -0.0014252,-0.00438976 -0.000940945,-0.000988189 -0.00247244,-0.00148031 -0.00459843,-0.00148031l-0.00769685 0zm0 -0.00683858l0.00512992 0c0.00234646,-4.33071e-005 0.00409843,-0.000492126 0.00525591,-0.00135827 0.00116929,-0.000858268 0.00174016,-0.00213386 0.00174016,-0.00380315 0,-0.00188583 -0.000586614,-0.00327165 -0.00177165,-0.0041378 -0.00117717,-0.000866142 -0.00299606,-0.00129528 -0.00543307,-0.00129528l-0.00492126 0 0 0.0105945zm0.0534331 0.0141575c0,-0.00157087 -0.000519685,-0.00278346 -0.00155906,-0.0036378 -0.00103937,-0.000854331 -0.00290157,-0.00176378 -0.00559449,-0.00272047 -0.00561417,-0.00177165 -0.00977559,-0.00366929 -0.0124882,-0.00568898 -0.00270866,-0.00203543 -0.00406693,-0.00495669 -0.00406693,-0.00879134 0,-0.00372441 0.00161417,-0.00673622 0.00484646,-0.00904331 0.00322047,-0.00230315 0.0073189,-0.00344882 0.0122953,-0.00344882 0.00491732,0 0.0089685,0.00126772 0.0121063,0.00380315 0.00314567,0.00253543 0.00466929,0.00579921 0.00456693,0.00979528l-5.51181e-005 0.000173228 -0.0100197 0c0,-0.00177165 -0.000602362,-0.0032126 -0.00180315,-0.00431496 -0.00120866,-0.00111417 -0.00286614,-0.00166929 -0.00498031,-0.00166929 -0.00207874,0 -0.00370472,0.00046063 -0.0048937,0.00137402 -0.00117717,0.00092126 -0.00175984,0.00204724 -0.00175984,0.00338976 0,0.00130315 0.000594488,0.00235039 0.00177953,0.00312992 0.00118898,0.000791339 0.00343307,0.00177165 0.00670866,0.00294882 0.00504724,0.00151181 0.00885039,0.00335827 0.0114016,0.00555906 0.00255512,0.00219685 0.00383858,0.00522441 0.00383858,0.00907874 0,0.00391339 -0.00152362,0.00696457 -0.00456693,0.0091811 -0.00304331,0.00220866 -0.00707874,0.00331496 -0.0121142,0.00331496 -0.00504724,0 -0.00941339,-0.00127559 -0.0131063,-0.00380709 -0.0036811,-0.00253543 -0.00547638,-0.00618504 -0.00537008,-0.0109528l6.29921e-005 -0.000185039 0.0100512 0c0,0.00256693 0.000685039,0.00440157 0.0020748,0.00550787 0.00138583,0.00109449 0.00348425,0.00164961 0.0062874,0.00164961 0.00213386,0 0.00373228,-0.000429134 0.00478346,-0.0012874 0.00104724,-0.000854331 0.0015748,-0.00198031 0.0015748,-0.00335827z"/>
   <g>
    <path id="_121162960" class="fil3" d="M0.612157 0.631799l0 -0.021122 0.00426772 0 0 0.00831496 0.00835433 0 0 -0.00831496 0.00426378 0 0 0.021122 -0.00426378 0 0 -0.00923622 -0.00835433 0 0 0.00923622 -0.00426772 0zm0.0203268 -0.00787008c0,-0.00134252 0.000330709,-0.00264173 0.000992126,-0.00390157 0.000665354,-0.00125591 0.00160236,-0.00222047 0.0028189,-0.00287795 0.0012126,-0.000665354 0.00257087,-0.000996063 0.00407087,-0.000996063 0.00231102,0 0.00420866,0.000748031 0.00568898,0.00225197 0.00148425,0.00150787 0.00221654,0.00340945 0.00221654,0.00570472 0,0.00231102 -0.000744094,0.00422835 -0.00223622,0.00575197 -0.00149606,0.00152362 -0.00337402,0.00228346 -0.00564173,0.00228346 -0.00140551,0 -0.00273622,-0.000314961 -0.00401181,-0.000948819 -0.00127165,-0.000637795 -0.00224016,-0.00156693 -0.00290551,-0.0027874 -0.000661417,-0.00122835 -0.000992126,-0.00271654 -0.000992126,-0.00448031zm0.00414567 0.000220472c0,0.00151969 0.000362205,0.00267717 0.00108661,0.00348425 0.000716535,0.000807087 0.0016063,0.0012126 0.00266142,0.0012126 0.00106299,0 0.00194882,-0.000405512 0.00265748,-0.0012126 0.000720472,-0.000807087 0.00107874,-0.00197638 0.00107874,-0.00351181 0,-0.0015 -0.000358268,-0.00265354 -0.00107874,-0.00346063 -0.000708661,-0.000811024 -0.00159449,-0.00120866 -0.00265748,-0.00120866 -0.00105512,0 -0.00194488,0.000397638 -0.00266142,0.00120866 -0.000724409,0.000807087 -0.00108661,0.0019685 -0.00108661,0.00348819zm0.0218268 -0.00764961l0 0.00322441 -0.00275984 0 0 0.00616535c0,0.00125197 2.3622e-005,0.00198425 7.48031e-005,0.00218898 5.51181e-005,0.000200787 0.000173228,0.000374016 0.000362205,0.000507874 0.000185039,0.000133858 0.000413386,0.000204724 0.000681102,0.000204724 0.000377953,0 0.00092126,-0.000133858 0.00162992,-0.000389764l0.000346457 0.00313386c-0.000944882,0.000405512 -0.00200394,0.000610236 -0.00320472,0.000610236 -0.000724409,0 -0.00138583,-0.000125984 -0.0019685,-0.000366142 -0.000586614,-0.000248031 -0.00101181,-0.000562992 -0.00129134,-0.000952756 -0.000271654,-0.000389764 -0.00046063,-0.000913386 -0.000566929,-0.00157874 -8.26772e-005,-0.000464567 -0.000129921,-0.00142126 -0.000129921,-0.00285433l0 -0.00666929 -0.00185827 0 0 -0.00322441 0.00185827 0 0 -0.00304331 0.00406693 -0.00235827 0 0.00540157 0.00275984 0zm0.0116693 0.0104331l0.00403937 0.000673228c-0.000519685,0.00147638 -0.00133858,0.0026063 -0.00245669,0.00337795 -0.00112205,0.000775591 -0.00252362,0.00116142 -0.00420079,0.00116142 -0.00266142,0 -0.00462992,-0.000866142 -0.00590945,-0.00261024 -0.00100787,-0.00138976 -0.00151181,-0.00315354 -0.00151181,-0.00526772 0,-0.00254331 0.000661417,-0.00452756 0.00198819,-0.00596457 0.00132283,-0.00143307 0.00300394,-0.00214961 0.00502756,-0.00214961 0.00227953,0 0.0040748,0.000748031 0.00538976,0.00225197 0.00131102,0.00150787 0.00194488,0.00381102 0.0018937,0.00691339l-0.0101496 0c3.14961e-005,0.00120079 0.000354331,0.00213386 0.000980315,0.00279528 0.000622047,0.000673228 0.00140551,0.00100394 0.00233465,0.00100394 0.000633858,0 0.00116142,-0.000169291 0.00159449,-0.000515748 0.000433071,-0.000350394 0.000767717,-0.000905512 0.000980315,-0.00166929zm0.000232283 -0.00409449c-2.75591e-005,-0.00117717 -0.000330709,-0.00206693 -0.000905512,-0.00267323 -0.000574803,-0.000610236 -0.00127953,-0.000917323 -0.00210236,-0.000917323 -0.000885827,0 -0.00161417,0.000326772 -0.00218898,0.000968504 -0.000574803,0.000641732 -0.000862205,0.00151969 -0.000850394,0.00262205l0.00604724 0zm0.00732677 0.00896063l0 -0.021122 0.00404331 0 0 0.021122 -0.00404331 0z"/>
    <path id="_121162888" class="fil4" d="M0.693531 0.610677l0.00425197 0 0 0.0133701c0,0.00174803 -0.000153543,0.00309449 -0.00046063,0.00403543 -0.000413386,0.00123228 -0.00116535,0.00221654 -0.00224803,0.00295669 -0.00108661,0.000751969 -0.00251969,0.00112205 -0.00429528,0.00112205 -0.00208268,0 -0.00368898,-0.00057874 -0.00481102,-0.00175197 -0.00112598,-0.00116535 -0.00169685,-0.00287795 -0.00170079,-0.00513386l0.00401969 -0.000464567c5.11811e-005,0.0012126 0.000224409,0.00206299 0.000531496,0.00257087 0.000464567,0.000751969 0.00116535,0.00113386 0.00210236,0.00113386 0.000948819,0 0.00162598,-0.000271654 0.00201969,-0.000818898 0.000389764,-0.00053937 0.000590551,-0.00166535 0.000590551,-0.00337795l0 -0.0136417zm0.00782283 0.013252c0,-0.00134252 0.000334646,-0.00264173 0.000996063,-0.00390157 0.000661417,-0.00125591 0.00159843,-0.00222047 0.00281496,-0.00287795 0.0012126,-0.000665354 0.00257087,-0.000996063 0.00407087,-0.000996063 0.00231102,0 0.00420866,0.000748031 0.00568898,0.00225197 0.00148425,0.00150787 0.00222047,0.00340945 0.00222047,0.00570472 0,0.00231102 -0.000744094,0.00422835 -0.00224016,0.00575197 -0.00149213,0.00152362 -0.00337402,0.00228346 -0.00564173,0.00228346 -0.00140551,0 -0.00273228,-0.000314961 -0.00400787,-0.000948819 -0.00127559,-0.000637795 -0.00224409,-0.00156693 -0.00290551,-0.0027874 -0.000661417,-0.00122835 -0.000996063,-0.00271654 -0.000996063,-0.00448031zm0.00414961 0.000220472c0,0.00151969 0.000358268,0.00267717 0.00108268,0.00348425 0.000716535,0.000807087 0.0016063,0.0012126 0.00266535,0.0012126 0.00105906,0 0.00194488,-0.000405512 0.00265748,-0.0012126 0.000716535,-0.000807087 0.0010748,-0.00197638 0.0010748,-0.00351181 0,-0.0015 -0.000358268,-0.00265354 -0.0010748,-0.00346063 -0.000712598,-0.000811024 -0.00159843,-0.00120866 -0.00265748,-0.00120866 -0.00105906,0 -0.00194882,0.000397638 -0.00266535,0.00120866 -0.000724409,0.000807087 -0.00108268,0.0019685 -0.00108268,0.00348819zm0.0146378 0.00764961l0 -0.021122 0.00405118 0 0 0.0076063c0.00124409,-0.00142126 0.00272441,-0.00212992 0.00443307,-0.00212992 0.0018622,0 0.00340551,0.000677165 0.00462598,0.00202362 0.00122441,0.00135039 0.00183071,0.0032874 0.00183071,0.00581102 0,0.00261417 -0.000622047,0.00462992 -0.00186614,0.00603937 -0.00124803,0.00141339 -0.00275591,0.00211811 -0.0045315,0.00211811 -0.000874016,0 -0.00173228,-0.000220472 -0.00258661,-0.00065748 -0.000850394,-0.000437008 -0.00158661,-0.00107874 -0.00220079,-0.00193701l0 0.00224803 -0.00375591 0zm0.00401969 -0.00798031c0,0.00158268 0.000248031,0.00275591 0.000744094,0.00351181 0.000708661,0.00108268 0.0016378,0.00161811 0.00279921,0.00161811 0.000889764,0 0.00165354,-0.000385827 0.00228346,-0.00114961 0.000633858,-0.000759843 0.000944882,-0.00196457 0.000944882,-0.0036063 0,-0.00174803 -0.000318898,-0.00301181 -0.000956693,-0.00377953 -0.000625984,-0.000775591 -0.00143701,-0.00116535 -0.00243307,-0.00116535 -0.000968504,0 -0.00177559,0.00038189 -0.00241732,0.00113386 -0.000645669,0.000755906 -0.000964567,0.00189764 -0.000964567,0.00343701zm0.0140039 0.00798031l0 -0.021122 0.00404724 0 0 0.0076063c0.00124803,-0.00142126 0.00272835,-0.00212992 0.00443307,-0.00212992 0.00186614,0 0.00340945,0.000677165 0.00462992,0.00202362 0.00122047,0.00135039 0.00183071,0.0032874 0.00183071,0.00581102 0,0.00261417 -0.000622047,0.00462992 -0.00187008,0.00603937 -0.00124409,0.00141339 -0.00275591,0.00211811 -0.0045315,0.00211811 -0.000870079,0 -0.00173228,-0.000220472 -0.00258268,-0.00065748 -0.000854331,-0.000437008 -0.00158661,-0.00107874 -0.00220079,-0.00193701l0 0.00224803 -0.00375591 0zm0.00401969 -0.00798031c0,0.00158268 0.000248031,0.00275591 0.000744094,0.00351181 0.000704724,0.00108268 0.00163386,0.00161811 0.00279921,0.00161811 0.000889764,0 0.00165354,-0.000385827 0.00228346,-0.00114961 0.000629921,-0.000759843 0.000940945,-0.00196457 0.000940945,-0.0036063 0,-0.00174803 -0.000314961,-0.00301181 -0.000952756,-0.00377953 -0.000625984,-0.000775591 -0.00144094,-0.00116535 -0.00243307,-0.00116535 -0.000968504,0 -0.00177559,0.00038189 -0.00241732,0.00113386 -0.000649606,0.000755906 -0.000964567,0.00189764 -0.000964567,0.00343701zm0.0230276 0.00311417l0.00403937 0.000673228c-0.000519685,0.00147638 -0.00133465,0.0026063 -0.00245669,0.00337795 -0.00111811,0.000775591 -0.00251969,0.00116142 -0.00420079,0.00116142 -0.00266142,0 -0.00462598,-0.000866142 -0.00590551,-0.00261024 -0.00100787,-0.00138976 -0.00151575,-0.00315354 -0.00151575,-0.00526772 0,-0.00254331 0.000661417,-0.00452756 0.00199213,-0.00596457 0.00132283,-0.00143307 0.00300394,-0.00214961 0.00502756,-0.00214961 0.00227559,0 0.00407087,0.000748031 0.00538583,0.00225197 0.00131496,0.00150787 0.00194882,0.00381102 0.0018937,0.00691339l-0.0101457 0c2.75591e-005,0.00120079 0.000354331,0.00213386 0.000976378,0.00279528 0.000622047,0.000673228 0.00140551,0.00100394 0.00233465,0.00100394 0.000633858,0 0.00116535,-0.000169291 0.00159843,-0.000515748 0.000433071,-0.000350394 0.00076378,-0.000905512 0.000976378,-0.00166929zm0.00023622 -0.00409449c-3.14961e-005,-0.00117717 -0.000330709,-0.00206693 -0.000905512,-0.00267323 -0.000574803,-0.000610236 -0.00127953,-0.000917323 -0.00210236,-0.000917323 -0.000885827,0 -0.00161811,0.000326772 -0.00218898,0.000968504 -0.000574803,0.000641732 -0.000862205,0.00151969 -0.000854331,0.00262205l0.00605118 0zm0.0111969 0.00896063l-0.00404724 0 0 -0.0152992 0.00375591 0 0 0.00217323c0.000645669,-0.00102756 0.00122835,-0.00170866 0.00173622,-0.00202756 0.000515748,-0.000326772 0.00109843,-0.000492126 0.00175197,-0.000492126 0.000925197,0 0.00180709,0.000251969 0.00266535,0.00076378l-0.00125197 0.00352756c-0.000681102,-0.000437008 -0.00131496,-0.000661417 -0.00189764,-0.000661417 -0.000574803,0 -0.00105118,0.00015748 -0.00144094,0.000468504 -0.000397638,0.000311024 -0.000704724,0.000874016 -0.000929134,0.00169291 -0.000228346,0.000818898 -0.00034252,0.00252756 -0.00034252,0.00512992l0 0.00472441z"/>
   </g>
   <g>
    <path id="_121162792" class="fil5" d="M0.606138 0.478768c0,-0.00179134 0.000653543,-0.00294882 0.00168504,-0.00372047 0.00135433,-0.00101969 0.00209843,-0.000976378 0.0043622,-0.000976378l0.0091378 0c0.000700787,0 0.00229528,0.00130315 0.0026378,0.00179921 0.000751969,0.00108268 0.000901575,0.00167717 0.000901575,0.00347638l0 0.0016063 -0.0187244 0 0 -0.00218504zm-0.00295669 -0.000322835l0 0.00250787 -0.00952362 0c-0.00196457,0 -0.00374016,6.69291e-005 -0.00566142,6.69291e-005 -0.00144882,0 -0.00131102,3.14961e-005 -0.00225197,0.00057874 -0.000622047,0.000366142 -0.00101181,0.000866142 -0.00137402,0.00151969 -0.000503937,0.000913386 -0.000362205,0.00116142 -0.000362205,0.0024685 0,0.000964567 -3.93701e-006,0.00193307 0,0.00289764 7.87402e-006,0.00174409 -6.69291e-005,0.00379134 -6.69291e-005,0.00565748l0 0.0110039c0,0.00132677 5.11811e-005,0.0027126 0.000594488,0.00352756 0.000755906,0.00112598 0.00126378,0.00111811 0.00230315,0.00179528l0.0200709 8.26772e-005 0.0026378 0c0,-0.00174803 -8.66142e-005,-0.00395276 0.000629921,-0.0050315 0.000866142,-0.00129921 0.00174803,-0.00185433 0.00387402,-0.00185433l0.00302362 0c0.00197244,0 0.00301969,0.000649606 0.00377165,0.00188976 0.00038189,0.000629921 0.000543307,0.00131102 0.00053937,0.00229134 0,0.000448819 -0.000153543,0.00270472 0.000192913,0.00270472l0.00514961 0c0.00389764,0 0.00775591,-6.69291e-005 0.0115787,-6.69291e-005 0.00116142,0 0.00491339,0.000161417 0.00577953,-7.87402e-006 0.000425197,-8.66142e-005 0.00149606,-0.000799213 0.00179528,-0.00110236 0.000248031,-0.000244094 0.00111024,-0.00147244 0.00111024,-0.00184646l0 -0.0235472c0,-0.000598425 -0.0010315,-0.00185827 -0.00144094,-0.00216142 -0.00104331,-0.000775591 -0.00116142,-0.000799213 -0.00287008,-0.000799213 -0.00245669,0 -0.00477165,-6.69291e-005 -0.00726772,-6.69291e-005l-0.00759449 0 0 -0.0016063c0,-0.00267717 -0.000586614,-0.00442913 -0.00194488,-0.00577559 -0.00125591,-0.00124803 -0.0027874,-0.00246063 -0.00525984,-0.00246063l-0.00862205 0c-0.00336614,0 -0.00429528,0.000291339 -0.00622835,0.00181496 -0.0013189,0.00103937 -0.00258268,0.00316142 -0.00258268,0.00551969z"/>
    <path id="_121162720" class="fil5" d="M0.611543 0.507654l0 0.00321654c0,0.00147638 6.69291e-005,0.00274409 6.29921e-005,0.0041811 0,0.00149606 0.000507874,0.0023189 0.00199606,0.0023189l0.00385827 0c0.00183071,0 0.00193307,-0.00129921 0.00193307,-0.00309055l0 -0.00527559c0,-0.00265354 -6.29921e-005,-0.00334252 -0.00276772,-0.00334252l-0.00340945 0c-0.000917323,0 -0.00167323,0.00102362 -0.00167323,0.00199213z"/>
    <polygon id="_121162648" class="fil5" points="0.585937,0.521874 0.585937,0.512543 0.609547,0.512543 0.58587,0.51248 "/>
    <path id="_121162576" class="fil5" d="M0.609547 0.512543l-0.0236102 0 0 0.00933071c0,0.00220866 4.33071e-005,0.00305512 0.00142913,0.00397638 0.000814961,0.00053937 0.00117717,0.000283465 0.00237008,0.000330709 0.000811024,3.14961e-005 0.00172047,6.69291e-005 0.00263386,6.69291e-005 0.0036378,0 0.00713386,6.29921e-005 0.010811,6.29921e-005l0.0232874 0c0.00371654,0 0.00735827,-6.29921e-005 0.0110039,-6.29921e-005 0.00180709,0 0.00376772,5.11811e-005 0.0054685,-6.29921e-005 0.000480315,-3.14961e-005 0.00133465,-0.000846457 0.00158268,-0.00118504 0.000492126,-0.000669291 0.00053937,-0.00111811 0.00053937,-0.00222835l0 -0.0102913 -0.0234843 0c-0.000346457,0 -0.000188976,0.00189764 -0.000188976,0.0023189 -3.93701e-006,0.00065748 -7.48031e-005,0.00174409 -0.00030315,0.00220472 -0.000334646,0.000677165 -0.000551181,0.000956693 -0.00106693,0.00144488 -0.000192913,0.000181102 -0.00138189,0.000913386 -0.00165748,0.000913386l-0.0039252 0c-0.00238976,0 -0.00308661,-0.000283465 -0.00416142,-0.00168898 -0.000814961,-0.00106299 -0.000728346,-0.00331102 -0.000728346,-0.00512992z"/>
   </g>
   <g>
    <path id="_121162480" class="fil6" d="M0.622437 0.560563l0 0c0.00159843,0 0.00290551,0.00156299 0.00290551,0.00347244l0 0.0283465c0,0.00191339 -0.00130709,0.00347638 -0.00290551,0.00347638l0 0c-0.00159843,0 -0.00290551,-0.00156299 -0.00290551,-0.00347638l0 -0.0283465c0,-0.00190945 0.00130709,-0.00347244 0.00290551,-0.00347244z"/>
    <path id="_121162408" class="fil6" d="M0.637346 0.560563l0 0c0.00159843,0 0.00290551,0.00156299 0.00290551,0.00347244l0 0.0283465c0,0.00191339 -0.00130709,0.00347638 -0.00290551,0.00347638l0 0c-0.00159843,0 -0.00290551,-0.00156299 -0.00290551,-0.00347638l0 -0.0283465c0,-0.00190945 0.00130709,-0.00347244 0.00290551,-0.00347244z"/>
    <path id="_121162336" class="fil6" d="M0.652256 0.560563l0 0c0.00159449,0 0.00290551,0.00156299 0.00290551,0.00347244l0 0.0283465c0,0.00191339 -0.00131102,0.00347638 -0.00290551,0.00347638l0 0c-0.00159843,0 -0.00290551,-0.00156299 -0.00290551,-0.00347638l0 -0.0283465c0,-0.00190945 0.00130709,-0.00347244 0.00290551,-0.00347244z"/>
    <path id="_121162264" class="fil6" d="M0.667161 0.560563l0 0c0.00160236,0 0.00290551,0.00156299 0.00290551,0.00347244l0 0.0283465c0,0.00191339 -0.00130315,0.00347638 -0.00290551,0.00347638l0 0c-0.00159449,0 -0.00290551,-0.00156299 -0.00290551,-0.00347638l0 -0.0283465c0,-0.00190945 0.00131102,-0.00347244 0.00290551,-0.00347244z"/>
    <path id="_121162192" class="fil6" d="M0.682067 0.560563l0 0c0.00160236,0 0.00290551,0.00156299 0.00290551,0.00347244l0 0.0283465c0,0.00191339 -0.00130315,0.00347638 -0.00290551,0.00347638l0 0c-0.00159449,0 -0.00289764,-0.00156299 -0.00289764,-0.00347638l0 -0.0283465c0,-0.00190945 0.00130315,-0.00347244 0.00289764,-0.00347244z"/>
    <path id="_121162120" class="fil6" d="M0.69698 0.560563l0 0c0.00159843,0 0.00290551,0.00156299 0.00290551,0.00347244l0 0.0283465c0,0.00191339 -0.00130709,0.00347638 -0.00290551,0.00347638l0 0c-0.00160236,0 -0.00290551,-0.00156299 -0.00290551,-0.00347638l0 -0.0283465c0,-0.00190945 0.00130315,-0.00347244 0.00290551,-0.00347244z"/>
    <path id="_121162048" class="fil6" d="M0.71189 0.560563l0 0c0.00159449,0 0.00290551,0.00156299 0.00290551,0.00347244l0 0.0283465c0,0.00191339 -0.00131102,0.00347638 -0.00290551,0.00347638l0 0c-0.00159843,0 -0.00290551,-0.00156299 -0.00290551,-0.00347638l0 -0.0283465c0,-0.00190945 0.00130709,-0.00347244 0.00290551,-0.00347244z"/>
    <path id="_121160416" class="fil6" d="M0.726795 0.560563l0 0c0.00160236,0 0.00290551,0.00156299 0.00290551,0.00347244l0 0.0283465c0,0.00191339 -0.00130315,0.00347638 -0.00290551,0.00347638l0 0c-0.00159449,0 -0.00290551,-0.00156299 -0.00290551,-0.00347638l0 -0.0283465c0,-0.00190945 0.00131102,-0.00347244 0.00290551,-0.00347244z"/>
    <path id="_121160224" class="fil6" d="M0.741709 0.560563l0 0c0.00159449,0 0.00290551,0.00156299 0.00290551,0.00347244l0 0.0283465c0,0.00191339 -0.00131102,0.00347638 -0.00290551,0.00347638l0 0c-0.00160236,0 -0.00290551,-0.00156299 -0.00290551,-0.00347638l0 -0.0283465c0,-0.00190945 0.00130315,-0.00347244 0.00290551,-0.00347244z"/>
    <path id="_121160296" class="fil6" d="M0.756614 0.560563l0 0c0.00159843,0 0.00290551,0.00156299 0.00290551,0.00347244l0 0.0283465c0,0.00191339 -0.00130709,0.00347638 -0.00290551,0.00347638l0 0c-0.00159449,0 -0.00290551,-0.00156299 -0.00290551,-0.00347638l0 -0.0283465c0,-0.00190945 0.00131102,-0.00347244 0.00290551,-0.00347244z"/>
    <path id="_121158952" class="fil6" d="M0.771524 0.560563l0 0c0.00159843,0 0.00290551,0.00156299 0.00290551,0.00347244l0 0.0283465c0,0.00191339 -0.00130709,0.00347638 -0.00290551,0.00347638l0 0c-0.00159843,0 -0.00290551,-0.00156299 -0.00290551,-0.00347638l0 -0.0283465c0,-0.00190945 0.00130709,-0.00347244 0.00290551,-0.00347244z"/>
   </g>
  </g>
  <path class="fil2" d="M0.950201 0.513665l0 -0.112012 0.0226339 0 0 0.0440748 0.0443071 0 0 -0.0440748 0.0226102 0 0 0.112012 -0.0226102 0 0 -0.0489803 -0.0443071 0 0 0.0489803 -0.0226339 0zm0.107811 -0.0417283c0,-0.00711811 0.00177165,-0.0140276 0.00526378,-0.0207047 0.00351969,-0.00665354 0.00850394,-0.0117677 0.0149449,-0.0152598 0.00644094,-0.00351969 0.0136378,-0.00529134 0.0215906,-0.00529134 0.0122598,0 0.0223268,0.00398819 0.0301772,0.0119685 0.00784646,0.00798425 0.0117638,0.0180472 0.0117638,0.0302283 0,0.0122559 -0.0039685,0.0224252 -0.0118661,0.0305118 -0.00793307,0.00808268 -0.0178937,0.0120984 -0.0299134,0.0120984 -0.00746457,0 -0.0145276,-0.00166929 -0.0212835,-0.00503543 -0.00675591,-0.00335827 -0.0118937,-0.00829134 -0.0154134,-0.0147835 -0.00349213,-0.00649213 -0.00526378,-0.0143976 -0.00526378,-0.0237323zm0.0220079 0.00114567c0,0.00805906 0.00190551,0.0142126 0.00574016,0.0184921 0.00380315,0.00427559 0.00852362,0.00641339 0.0141339,0.00641339 0.0056063,0 0.0102992,-0.0021378 0.0140827,-0.00641339 0.00380315,-0.00427953 0.00570866,-0.0104843 0.00570866,-0.0186457 0,-0.00792913 -0.00190551,-0.0140551 -0.00570866,-0.0183346 -0.00378346,-0.00427559 -0.00847638,-0.00641339 -0.0140827,-0.00641339 -0.00561024,0 -0.0103307,0.0021378 -0.0141339,0.00641339 -0.00383465,0.00427953 -0.00574016,0.0104567 -0.00574016,0.0184882zm0.11574 -0.0405512l0 0.0171063 -0.0146535 0 0 0.0327047c0,0.00662205 0.000125984,0.0104843 0.000417323,0.0115787 0.000287402,0.00109449 0.000909449,0.00198031 0.00190157,0.0027126 0.000992126,0.000704724 0.00222047,0.00107087 0.00362598,0.00107087 0.00201181,0 0.00487402,-0.000704724 0.00865748,-0.00205906l0.00182283 0.0166378c-0.00500394,0.0021378 -0.0106339,0.00320472 -0.0169724,0.00320472 -0.00385827,0 -0.00735433,-0.000649606 -0.0104606,-0.0019252 -0.00310236,-0.00130709 -0.00537008,-0.003 -0.00683465,-0.00506299 -0.00145669,-0.00205906 -0.00244488,-0.00484646 -0.00302362,-0.00837402 -0.000444882,-0.00247244 -0.000673228,-0.0075315 -0.000673228,-0.015122l0 -0.0353661 -0.00985827 0 0 -0.0171063 0.00985827 0 0 -0.0161457 0.0215394 -0.0125157 0 0.0286614 0.0146535 0zm0.0618858 0.055315l0.0214134 0.00357087c-0.00276378,0.00785039 -0.00709055,0.0138228 -0.0130394,0.0179173 -0.00592126,0.00412205 -0.0133504,0.00615354 -0.0222717,0.00615354 -0.0141063,0 -0.0245433,-0.00458661 -0.0313228,-0.0138189 -0.00534252,-0.00738189 -0.00802756,-0.0167165 -0.00802756,-0.0279567 0,-0.0134606 0.00351969,-0.0239961 0.0105591,-0.0316063 0.00701575,-0.00761811 0.0159094,-0.0114252 0.0266535,-0.0114252 0.0120748,0 0.0215906,0.00398819 0.0285787,0.0119685 0.0069685,0.00798425 0.0103071,0.020185 0.0100197,0.0366457l-0.0538031 0c0.000153543,0.00635827 0.00187402,0.011315 0.00518898,0.0148346 0.00331102,0.00355118 0.00746063,0.00532283 0.0123858,0.00532283 0.00336614,0 0.00618504,-0.000913386 0.00847638,-0.00274016 0.00229528,-0.00185039 0.00404331,-0.00479921 0.00518898,-0.00886614zm0.00122835 -0.0216969c-0.000153543,-0.00623622 -0.00174803,-0.0109567 -0.00479921,-0.014189 -0.00304724,-0.00323622 -0.00677953,-0.00485433 -0.0111614,-0.00485433 -0.00469291,0 -0.00855118,0.00172441 -0.0116024,0.0051378 -0.00305512,0.0033937 -0.00456693,0.00803543 -0.00451575,0.0139055l0.0320787 0zm0.0388346 0.0475157l0 -0.112012 0.0214606 0 0 0.112012 -0.0214606 0zm0.127504 -0.112012l0.0225591 0 0 0.0709094c0,0.00925984 -0.000834646,0.0164016 -0.00245276,0.0213858 -0.00218898,0.00651969 -0.00615354,0.0117598 -0.0119173,0.0157008 -0.00575984,0.00396457 -0.0133504,0.00591732 -0.0227677,0.00591732 -0.0110591,0 -0.0195591,-0.00307874 -0.0255315,-0.00928346 -0.00594882,-0.0061811 -0.00897244,-0.0152559 -0.00899606,-0.0272283l0.0213071 -0.00245276c0.000259843,0.00641732 0.00120079,0.0109567 0.0028189,0.0136142 0.00244488,0.00401969 0.00617717,0.00602362 0.0111614,0.00602362 0.0050315,0 0.00860236,-0.00142913 0.0106929,-0.00432677 0.00208661,-0.00287008 0.00312598,-0.00884252 0.00312598,-0.0179173l0 -0.0723425zm0.0414961 0.0702835c0,-0.00711811 0.00177559,-0.0140276 0.00526772,-0.0207047 0.00351969,-0.00665354 0.00850394,-0.0117677 0.0149449,-0.0152598 0.00644094,-0.00351969 0.0136378,-0.00529134 0.0215906,-0.00529134 0.0122598,0 0.0223268,0.00398819 0.0301772,0.0119685 0.00784646,0.00798425 0.0117638,0.0180472 0.0117638,0.0302283 0,0.0122559 -0.0039685,0.0224252 -0.0118701,0.0305118 -0.00792913,0.00808268 -0.0178898,0.0120984 -0.0299134,0.0120984 -0.00746063,0 -0.0145236,-0.00166929 -0.0212795,-0.00503543 -0.00675591,-0.00335827 -0.0118937,-0.00829134 -0.0154134,-0.0147835 -0.00349213,-0.00649213 -0.00526772,-0.0143976 -0.00526772,-0.0237323zm0.0220079 0.00114567c0,0.00805906 0.00190945,0.0142126 0.00574409,0.0184921 0.00379921,0.00427559 0.00851969,0.00641339 0.0141339,0.00641339 0.0056063,0 0.0102992,-0.0021378 0.0140827,-0.00641339 0.00380315,-0.00427953 0.00570866,-0.0104843 0.00570866,-0.0186457 0,-0.00792913 -0.00190551,-0.0140551 -0.00570866,-0.0183346 -0.00378346,-0.00427559 -0.00847638,-0.00641339 -0.0140827,-0.00641339 -0.00561417,0 -0.0103346,0.0021378 -0.0141339,0.00641339 -0.00383465,0.00427953 -0.00574409,0.0104567 -0.00574409,0.0184882zm0.0776417 0.0405827l0 -0.112012 0.0214646 0 0 0.0403425c0.00662598,-0.00753543 0.0144488,-0.011315 0.0235197,-0.011315 0.00988583,0 0.0180512,0.00359449 0.0245472,0.0107441 0.00646457,0.00714567 0.00969685,0.0174213 0.00969685,0.0308228 0,0.0138543 -0.00330709,0.0245433 -0.00990945,0.0320276 -0.00659449,0.00748819 -0.0146024,0.0112126 -0.0240197,0.0112126 -0.00464173,0 -0.00920079,-0.00114567 -0.0137165,-0.0034685 -0.00451181,-0.0023189 -0.00839764,-0.00573622 -0.0116575,-0.0102756l0 0.0119213 -0.0199252 0zm0.0213071 -0.0423268c0,0.00839764 0.00133071,0.0146024 0.00396457,0.0186457 0.00372835,0.0057126 0.00866142,0.00855512 0.0148386,0.00855512 0.00472047,0 0.00875984,-0.00203543 0.0121024,-0.00607874 0.00333858,-0.00403937 0.00500787,-0.0104291 0.00500787,-0.0191378 0,-0.00925984 -0.00169685,-0.0159646 -0.00506299,-0.0200551 -0.00333858,-0.00409843 -0.00764173,-0.00616142 -0.0129055,-0.00616142 -0.0051378,0 -0.00941732,0.00201181 -0.0128307,0.006 -0.00341732,0.00401969 -0.00511417,0.0100669 -0.00511417,0.0182323zm0.0742756 0.0423268l0 -0.112012 0.0214646 0 0 0.0403425c0.00662598,-0.00753543 0.0144488,-0.011315 0.0235236,-0.011315 0.00988189,0 0.0180512,0.00359449 0.0245433,0.0107441 0.00646457,0.00714567 0.00969685,0.0174213 0.00969685,0.0308228 0,0.0138543 -0.00330709,0.0245433 -0.00990945,0.0320276 -0.00659449,0.00748819 -0.0146024,0.0112126 -0.0240197,0.0112126 -0.00464173,0 -0.00920079,-0.00114567 -0.0137165,-0.0034685 -0.00451181,-0.0023189 -0.00839764,-0.00573622 -0.0116535,-0.0102756l0 0.0119213 -0.0199291 0zm0.0213071 -0.0423268c0,0.00839764 0.00133071,0.0146024 0.00396457,0.0186457 0.00372835,0.0057126 0.00866142,0.00855512 0.0148386,0.00855512 0.00472047,0 0.00875984,-0.00203543 0.0121024,-0.00607874 0.00333858,-0.00403937 0.00500787,-0.0104291 0.00500787,-0.0191378 0,-0.00925984 -0.00169685,-0.0159646 -0.00505906,-0.0200551 -0.00334252,-0.00409843 -0.00764567,-0.00616142 -0.0129094,-0.00616142 -0.0051378,0 -0.00941339,0.00201181 -0.0128307,0.006 -0.00341732,0.00401969 -0.00511417,0.0100669 -0.00511417,0.0182323zm0.122157 0.0165079l0.0214134 0.00357087c-0.00276378,0.00785039 -0.00709055,0.0138228 -0.0130394,0.0179173 -0.00592126,0.00412205 -0.0133504,0.00615354 -0.0222717,0.00615354 -0.0141063,0 -0.0245433,-0.00458661 -0.0313228,-0.0138189 -0.00534646,-0.00738189 -0.0080315,-0.0167165 -0.0080315,-0.0279567 0,-0.0134606 0.00351969,-0.0239961 0.0105591,-0.0316063 0.00701969,-0.00761811 0.0159134,-0.0114252 0.0266575,-0.0114252 0.0120748,0 0.0215906,0.00398819 0.0285787,0.0119685 0.0069685,0.00798425 0.0103071,0.020185 0.0100157,0.0366457l-0.0537992 0c0.000153543,0.00635827 0.00187402,0.011315 0.00518898,0.0148346 0.00331102,0.00355118 0.00746063,0.00532283 0.0123858,0.00532283 0.00336614,0 0.00618504,-0.000913386 0.00847638,-0.00274016 0.00229528,-0.00185039 0.00403937,-0.00479921 0.00518898,-0.00886614zm0.00122835 -0.0216969c-0.00015748,-0.00623622 -0.00174803,-0.0109567 -0.00479921,-0.014189 -0.00305118,-0.00323622 -0.00677953,-0.00485433 -0.0111614,-0.00485433 -0.00469291,0 -0.00855512,0.00172441 -0.0116024,0.0051378 -0.00305906,0.0033937 -0.00456693,0.00803543 -0.00451575,0.0139055l0.0320787 0zm0.0593819 0.0475157l-0.0214606 0 0 -0.0811339 0.0199252 0 0 0.0115276c0.00341732,-0.00545276 0.00649213,-0.00905118 0.00920472,-0.0107717 0.00274016,-0.00172047 0.00581496,-0.0026063 0.00928346,-0.0026063 0.00490157,0 0.00959449,0.00135433 0.0141339,0.00406299l-0.00664567 0.0187008c-0.00360236,-0.0023189 -0.0069685,-0.00349213 -0.0100709,-0.00349213 -0.00302362,0 -0.00555118,0.000807087 -0.00764173,0.00248031 -0.00211024,0.00164173 -0.00372835,0.00464173 -0.0049252,0.0089685 -0.00120079,0.00433071 -0.00180315,0.0134055 -0.00180315,0.0271969l0 0.0250669zm0.124374 -0.112012l0.0225591 0 0 0.0709094c0,0.00925984 -0.000834646,0.0164016 -0.00245276,0.0213858 -0.00218898,0.00651969 -0.00615354,0.0117598 -0.0119173,0.0157008 -0.00576378,0.00396457 -0.0133543,0.00591732 -0.0227677,0.00591732 -0.0110591,0 -0.0195591,-0.00307874 -0.0255315,-0.00928346 -0.00594882,-0.0061811 -0.00897244,-0.0152559 -0.009,-0.0272283l0.0213071 -0.00245276c0.00026378,0.00641732 0.00120079,0.0109567 0.0028189,0.0136142 0.00244882,0.00401969 0.0061811,0.00602362 0.0111614,0.00602362 0.00503543,0 0.0086063,-0.00142913 0.0106929,-0.00432677 0.00208661,-0.00287008 0.00312992,-0.00884252 0.00312992,-0.0179173l0 -0.0723425zm0.0414961 0.0702835c0,-0.00711811 0.00177165,-0.0140276 0.00526772,-0.0207047 0.00351969,-0.00665354 0.0085,-0.0117677 0.0149409,-0.0152598 0.00644094,-0.00351969 0.0136417,-0.00529134 0.0215945,-0.00529134 0.0122559,0 0.0223268,0.00398819 0.0301732,0.0119685 0.00785039,0.00798425 0.0117638,0.0180472 0.0117638,0.0302283 0,0.0122559 -0.00396457,0.0224252 -0.0118661,0.0305118 -0.00792913,0.00808268 -0.0178898,0.0120984 -0.0299134,0.0120984 -0.00746063,0 -0.0145276,-0.00166929 -0.0212795,-0.00503543 -0.00675591,-0.00335827 -0.0118937,-0.00829134 -0.0154134,-0.0147835 -0.00349606,-0.00649213 -0.00526772,-0.0143976 -0.00526772,-0.0237323zm0.0220079 0.00114567c0,0.00805906 0.00190551,0.0142126 0.00574016,0.0184921 0.00380315,0.00427559 0.00852362,0.00641339 0.0141339,0.00641339 0.00561024,0 0.0103031,-0.0021378 0.0140866,-0.00641339 0.00380315,-0.00427953 0.00570866,-0.0104843 0.00570866,-0.0186457 0,-0.00792913 -0.00190551,-0.0140551 -0.00570866,-0.0183346 -0.00378346,-0.00427559 -0.00847638,-0.00641339 -0.0140866,-0.00641339 -0.00561024,0 -0.0103307,0.0021378 -0.0141339,0.00641339 -0.00383465,0.00427953 -0.00574016,0.0104567 -0.00574016,0.0184882zm0.0776417 0.0405827l0 -0.112012 0.0214606 0 0 0.0403425c0.00662598,-0.00753543 0.0144488,-0.011315 0.0235236,-0.011315 0.00988583,0 0.0180512,0.00359449 0.0245433,0.0107441 0.0064685,0.00714567 0.00970079,0.0174213 0.00970079,0.0308228 0,0.0138543 -0.00331102,0.0245433 -0.00990945,0.0320276 -0.00659843,0.00748819 -0.0146063,0.0112126 -0.0240197,0.0112126 -0.00464173,0 -0.00920472,-0.00114567 -0.0137165,-0.0034685 -0.00451575,-0.0023189 -0.00840157,-0.00573622 -0.0116575,-0.0102756l0 0.0119213 -0.0199252 0zm0.0213071 -0.0423268c0,0.00839764 0.00133071,0.0146024 0.00396063,0.0186457 0.00373228,0.0057126 0.00866535,0.00855512 0.0148425,0.00855512 0.00472047,0 0.00875984,-0.00203543 0.0120984,-0.00607874 0.00333858,-0.00403937 0.00500787,-0.0104291 0.00500787,-0.0191378 0,-0.00925984 -0.00169291,-0.0159646 -0.00505906,-0.0200551 -0.00333858,-0.00409843 -0.00764173,-0.00616142 -0.0129094,-0.00616142 -0.0051378,0 -0.00941339,0.00201181 -0.0128307,0.006 -0.00341339,0.00401969 -0.00511024,0.0100669 -0.00511024,0.0182323zm0.067626 0.0191693l0.0215433 -0.0032874c0.000909449,0.00417323 0.00275984,0.00735039 0.00557874,0.00951575 0.00279134,0.00216535 0.00670472,0.00326378 0.0117638,0.00326378 0.00555512,0 0.00972441,-0.00101575 0.0125157,-0.00307874 0.00190157,-0.00140551 0.00284252,-0.00333858 0.00284252,-0.0057126 0,-0.00164173 -0.000523622,-0.003 -0.00153543,-0.00406693 -0.0010748,-0.00101575 -0.0034685,-0.00195669 -0.00717323,-0.0028189 -0.017315,-0.00380709 -0.0282953,-0.00730315 -0.0329409,-0.0104567 -0.00641339,-0.00437795 -0.00961811,-0.0104843 -0.00961811,-0.0182795 0,-0.00701575 0.00275984,-0.012937 0.00831496,-0.0177087 0.00555512,-0.00479528 0.0141614,-0.00719685 0.0258189,-0.00719685 0.0111102,0 0.019378,0.00182283 0.0247756,0.0054252 0.00539764,0.00362205 0.00910236,0.00897244 0.0111339,0.016063l-0.0202362 0.00372835c-0.000858268,-0.00315354 -0.00250394,-0.00557874 -0.0049252,-0.00724803 -0.00242913,-0.00169685 -0.00587008,-0.0025315 -0.0103583,-0.0025315 -0.00565748,0 -0.00969685,0.000783465 -0.0121496,0.00237795 -0.00161811,0.00111811 -0.00242913,0.00257874 -0.00242913,0.00435433 0,0.00153543 0.000708661,0.00281102 0.0021378,0.00388189 0.00193307,0.00143307 0.0086063,0.00344488 0.0200591,0.00605118 0.0114213,0.00258268 0.0194055,0.00575984 0.0239409,0.00954331 0.00448819,0.00383465 0.00672835,0.00915748 0.00672835,0.0159646 0,0.00742913 -0.00310236,0.0138465 -0.00933858,0.0191929 -0.00620472,0.00534646 -0.0153858,0.00800394 -0.027563,0.00800394 -0.0110591,0 -0.0197953,-0.00224016 -0.0262638,-0.00672441 -0.00644094,-0.00446063 -0.0106417,-0.010563 -0.012622,-0.0182559z"/>
  <g id="_121157632">
   <path id="_121158208" class="fil7" d="M1.29049 0.626126l0 -0.014248 0.0367795 0 0 0.0336693c-0.00357874,0.00346063 -0.00875591,0.00651575 -0.0155433,0.00914961 -0.00679134,0.00261811 -0.0136575,0.00393701 -0.0206024,0.00393701 -0.00883858,0 -0.0165512,-0.00185039 -0.023126,-0.00555118 -0.00657087,-0.00371654 -0.0115079,-0.00900787 -0.014811,-0.0159173 -0.00331102,-0.00690551 -0.00496457,-0.0144055 -0.00496457,-0.0225079 0,-0.00879921 0.00185433,-0.0166299 0.0055315,-0.0234764 0.00370079,-0.00683071 0.00909449,-0.0120827 0.0162126,-0.0157244 0.00540945,-0.00281496 0.0121614,-0.0042126 0.0202283,-0.0042126 0.0104882,0 0.0187008,0.00220079 0.0245827,0.00659055 0.00589764,0.00440945 0.00970079,0.0104882 0.0113937,0.0182598l-0.0169449 0.00316929c-0.00120079,-0.00415354 -0.00344094,-0.00743701 -0.00673228,-0.00983465 -0.00328346,-0.00240157 -0.00737795,-0.0036063 -0.0122992,-0.0036063 -0.00745669,0 -0.0133819,0.0023622 -0.0177874,0.00708661 -0.00440945,0.00474409 -0.00659055,0.011748 -0.00659055,0.0210551 0,0.0100157 0.00222441,0.0175512 0.00669291,0.0225709 0.00444488,0.00501575 0.0102874,0.00751575 0.0175118,0.00751575 0.00357874,0 0.00716535,-0.000704724 0.0107638,-0.00210236 0.00358268,-0.00139764 0.00667323,-0.00311024 0.00924409,-0.00509449l0 -0.0107283 -0.0195394 0zm0.0486417 -0.000413386c0,-0.00537402 0.00134252,-0.0105906 0.00398031,-0.015626 0.00265748,-0.00501575 0.00641339,-0.00887008 0.0112717,-0.0115079 0.0048622,-0.00265748 0.0102913,-0.004 0.0162992,-0.004 0.00924409,0 0.0168386,0.00301575 0.0227638,0.00903543 0.0059252,0.00601969 0.00887402,0.0136142 0.00887402,0.0228071 0,0.00924803 -0.00299213,0.0169252 -0.00895276,0.0230236 -0.00598425,0.00610236 -0.0135,0.00912992 -0.0225709,0.00912992 -0.00562598,0 -0.0109606,-0.00125984 -0.0160551,-0.00379921 -0.00509843,-0.00253543 -0.00897244,-0.00625591 -0.0116299,-0.0111535 -0.0026378,-0.00490157 -0.00398031,-0.0108622 -0.00398031,-0.0179094zm0.0166102 0.000866142c0,0.00607874 0.00143701,0.0107283 0.00433071,0.0139528 0.00287402,0.00322441 0.00643701,0.00484252 0.0106654,0.00484252 0.00423228,0 0.00777559,-0.00161811 0.010626,-0.00484252 0.00287402,-0.00322441 0.00431102,-0.00790945 0.00431102,-0.0140709 0,-0.00598425 -0.00143701,-0.0106063 -0.00431102,-0.0138346 -0.00285039,-0.00322835 -0.0063937,-0.00483858 -0.010626,-0.00483858 -0.00422835,0 -0.00779134,0.00161024 -0.0106654,0.00483858 -0.0028937,0.00322835 -0.00433071,0.0078937 -0.00433071,0.0139528zm0.0555118 -0.000866142c0,-0.00537402 0.00134252,-0.0105906 0.00398031,-0.015626 0.00265748,-0.00501575 0.00641339,-0.00887008 0.0112717,-0.0115079 0.0048622,-0.00265748 0.0102953,-0.004 0.0162992,-0.004 0.00924409,0 0.0168386,0.00301575 0.0227638,0.00903543 0.0059252,0.00601969 0.00887402,0.0136142 0.00887402,0.0228071 0,0.00924803 -0.00298819,0.0169252 -0.00895276,0.0230236 -0.00598425,0.00610236 -0.0134961,0.00912992 -0.0225709,0.00912992 -0.00562598,0 -0.0109606,-0.00125984 -0.0160551,-0.00379921 -0.00509843,-0.00253543 -0.00897244,-0.00625591 -0.0116299,-0.0111535 -0.0026378,-0.00490157 -0.00398031,-0.0108622 -0.00398031,-0.0179094zm0.0166102 0.000866142c0,0.00607874 0.00143701,0.0107283 0.00433071,0.0139528 0.00287402,0.00322441 0.00643701,0.00484252 0.0106654,0.00484252 0.00423228,0 0.00777559,-0.00161811 0.010626,-0.00484252 0.00287402,-0.00322441 0.00431102,-0.00790945 0.00431102,-0.0140709 0,-0.00598425 -0.00143701,-0.0106063 -0.00431102,-0.0138346 -0.00285039,-0.00322835 -0.0063937,-0.00483858 -0.010626,-0.00483858 -0.00422835,0 -0.00779134,0.00161024 -0.0106654,0.00483858 -0.0028937,0.00322835 -0.00433071,0.0078937 -0.00433071,0.0139528zm0.0577756 0.0346535l0.0185 0.00224409c0.000314961,0.00216142 0.00102362,0.00364173 0.00212598,0.00444488 0.00153543,0.00116535 0.00397638,0.00173228 0.00725984,0.00173228 0.00423228,0 0.00740157,-0.000629921 0.00952756,-0.00190945 0.00141339,-0.000846457 0.0025,-0.00220472 0.00322441,-0.00409055 0.000496063,-0.00134252 0.000748031,-0.0038189 0.000748031,-0.00744094l0 -0.00893307c-0.00484252,0.00661417 -0.0109606,0.00991732 -0.0183386,0.00991732 -0.00822835,0 -0.0147402,-0.00348425 -0.0195433,-0.0104291 -0.00375591,-0.00551181 -0.00564567,-0.0123346 -0.00564567,-0.0205236 0,-0.0102717 0.00248031,-0.0181024 0.00742126,-0.0235354 0.00493701,-0.00541339 0.0110787,-0.00812992 0.0184173,-0.00812992 0.00755906,0 0.013815,0.00332677 0.0187323,0.00997638l0 -0.0085748 0.0151535 0 0 0.0549409c0,0.00721654 -0.000590551,0.0126142 -0.00179528,0.0161969 -0.00117717,0.00357874 -0.00285039,0.00637402 -0.00499213,0.00842126 -0.00216929,0.00202362 -0.00504331,0.00361811 -0.00862205,0.00478346 -0.00359843,0.00114173 -0.00814567,0.00172835 -0.0136378,0.00172835 -0.0103898,0 -0.017748,-0.00179134 -0.0220787,-0.00533465 -0.00434646,-0.00355906 -0.00651181,-0.00806693 -0.00651181,-0.0135197 0,-0.000547244 1.9685e-005,-0.00120079 5.51181e-005,-0.00196457zm0.0144685 -0.0359134c0,0.00649213 0.00125591,0.0112559 0.00377953,0.0142638 0.00251181,0.00301181 0.0056063,0.00452756 0.00930709,0.00452756 0.00395276,0 0.00729921,-0.00155118 0.0100354,-0.00464173 0.00271654,-0.00309055 0.00409055,-0.00767323 0.00409055,-0.0137559 0,-0.00633465 -0.00131496,-0.0110394 -0.00393307,-0.0141102 -0.00259843,-0.00308661 -0.00590551,-0.00462598 -0.00989764,-0.00462598 -0.00390157,0 -0.00709055,0.00151575 -0.00960236,0.00452756 -0.00252362,0.0030315 -0.00377953,0.00761417 -0.00377953,0.013815zm0.0591535 0.031878l0 -0.0845157 0.0161929 0 0 0.0845157 -0.0161929 0zm0.0682402 -0.0194803l0.0161575 0.00269291c-0.00208661,0.0059252 -0.00535433,0.0104331 -0.00983858,0.0135197 -0.00446457,0.00311024 -0.0100748,0.00464567 -0.0168071,0.00464567 -0.0106457,0 -0.0185197,-0.00346063 -0.0236339,-0.0104291 -0.0040315,-0.00556693 -0.00606299,-0.0126142 -0.00606299,-0.0210984 0,-0.0101496 0.00265748,-0.0181024 0.00797244,-0.0238465 0.00529528,-0.00574803 0.0120039,-0.00862205 0.0201142,-0.00862205 0.00911024,0 0.0162913,0.00301575 0.0215669,0.00903543 0.00525197,0.00601969 0.00777165,0.0152323 0.00755512,0.0276496l-0.0405984 0c0.00011811,0.00479921 0.00142126,0.00853543 0.00392126,0.0111929 0.00249213,0.0026811 0.00562205,0.00401575 0.00934646,0.00401575 0.00253543,0 0.00466142,-0.000688976 0.0063937,-0.00206693 0.00172835,-0.0013937 0.00305118,-0.00362205 0.00391339,-0.00668898zm0.000925197 -0.016374c-0.000114173,-0.00470472 -0.0013189,-0.00826378 -0.00361811,-0.0107008 -0.00230709,-0.00244488 -0.00511811,-0.00366535 -0.0084252,-0.00366535 -0.00354331,0 -0.00645276,0.00129921 -0.00875984,0.00387795 -0.00229921,0.00255906 -0.00344094,0.00606299 -0.00339764,0.0104882l0.0242008 0zm0.0622205 0.0358543l0 -0.0845157 0.027374 0c0.0103701,0 0.0171339,0.000433071 0.0202874,0.00127953 0.00484252,0.00125591 0.00891339,0.00401181 0.0121772,0.00826378 0.00326772,0.00425197 0.00490157,0.00974016 0.00490157,0.0164488 0,0.00519291 -0.000944882,0.00956693 -0.00283071,0.0130866 -0.00188976,0.00354331 -0.00427165,0.00631496 -0.00718504,0.00834252 -0.0028937,0.00201181 -0.00584252,0.00334646 -0.00883465,0.00399606 -0.0040748,0.000807087 -0.00998031,0.00122047 -0.0177087,0.00122047l-0.011122 0 0 0.031878 -0.0170591 0zm0.0170591 -0.0702126l0 0.0239724 0.00933071 0c0.00672835,0 0.0112362,-0.000437008 0.0135,-0.00132283 0.00226378,-0.00088189 0.0040315,-0.00225984 0.00533071,-0.00414961 0.00127953,-0.00188976 0.00192913,-0.0040748 0.00192913,-0.0065748 0,-0.00306693 -0.000901575,-0.00561024 -0.0027126,-0.00761417 -0.00179528,-0.00198819 -0.00409449,-0.00324803 -0.00685433,-0.00374016 -0.00204724,-0.000389764 -0.00613386,-0.000570866 -0.0122756,-0.000570866l-0.00824803 0zm0.0615787 0.0702126l0 -0.0845157 0.0161929 0 0 0.0845157 -0.0161929 0zm0.0448976 -0.0425394l-0.0146969 -0.00265748c0.00165354,-0.00592913 0.00448819,-0.0102953 0.00851969,-0.0131496 0.00405118,-0.00283465 0.0100354,-0.00427165 0.0179882,-0.00427165 0.00724016,0 0.0126142,0.000870079 0.0161535,0.00257874 0.00352362,0.00171654 0.00602362,0.00387795 0.00746063,0.00651575 0.00143307,0.0026378 0.00216142,0.00745669 0.00216142,0.0145039l-0.000173228 0.0189055c0,0.00537402 0.000251969,0.00935433 0.000783465,0.0119094 0.000515748,0.00253937 0.0015,0.00529528 0.00291339,0.00820472l-0.0160394 0c-0.000409449,-0.00108268 -0.000940945,-0.00267717 -0.00155118,-0.00478346 -0.000259843,-0.00096063 -0.000452756,-0.00159449 -0.000574803,-0.00190551 -0.00277165,0.00269685 -0.00572441,0.00470079 -0.00887008,0.00605906 -0.00314961,0.00134252 -0.00651575,0.00200787 -0.0100945,0.00200787 -0.00629921,0 -0.0112795,-0.0017126 -0.0148976,-0.00511417 -0.00364173,-0.0034252 -0.00545276,-0.00775591 -0.00545276,-0.0129882 0,-0.00344488 0.000826772,-0.00653543 0.00248031,-0.00925197 0.00164961,-0.0027126 0.00397638,-0.00478346 0.00694488,-0.00622047 0.00297244,-0.00143307 0.00728346,-0.00269291 0.0128937,-0.00377559 0.00755512,-0.00141732 0.0128071,-0.00275197 0.0157165,-0.00397244l0 -0.00161417c0,-0.00312992 -0.000759843,-0.00533465 -0.00229921,-0.00666929 -0.00153543,-0.00132283 -0.00442913,-0.00199213 -0.00869685,-0.00199213 -0.0028937,0 -0.0051378,0.000574803 -0.00675197,0.00171654 -0.00161024,0.00112205 -0.00290945,0.0031063 -0.00391732,0.00596457zm0.0216654 0.0131378c-0.00206299,0.000688976 -0.00535039,0.00151575 -0.00985433,0.00248425 -0.00448819,0.000964567 -0.00742126,0.00190551 -0.00881496,0.00281102 -0.0021063,0.00151575 -0.00316929,0.00340551 -0.00316929,0.00570866 0,0.00227953 0.00084252,0.00423228 0.00253937,0.00588583 0.00169291,0.00164961 0.00383465,0.00247638 0.00645669,0.00247638 0.00292913,0 0.00570472,-0.00096063 0.0083622,-0.00287402 0.0019685,-0.00145669 0.00324409,-0.00324409 0.00385433,-0.00537008 0.000433071,-0.00138189 0.000625984,-0.00401575 0.000625984,-0.00788976l0 -0.00323228zm0.0242244 -0.031815l0.0172402 0 0.0146417 0.0434685 0.0143071 -0.0434685 0.0167638 0 -0.0216063 0.0589134 -0.00387795 0.0106654c-0.00141339,0.00356299 -0.00277165,0.00629921 -0.00405118,0.00818898 -0.00129921,0.00188976 -0.00277953,0.00340551 -0.00444488,0.00458268 -0.00167323,0.00116535 -0.00372047,0.00208661 -0.00616535,0.00273622 -0.00243701,0.000649606 -0.00519291,0.000984252 -0.00828346,0.000984252 -0.00311024,0 -0.00615748,-0.000334646 -0.00916929,-0.000984252l-0.00143701 -0.0126929c0.00253937,0.000511811 0.00482283,0.000748031 0.00686614,0.000748031 0.00376378,0 0.00655906,-0.00109843 0.00836614,-0.00330315 0.00179134,-0.00220472 0.00318504,-0.00501969 0.00415354,-0.00844094l-0.0233031 -0.0613976z"/>
   <g>
    <path id="_121158112" class="fil8" d="M1.17042 0.626508l-0.0590472 -0.0587717c0,0 0.00166535,-0.00312992 0.0074685,-0.00141732 0.00580709,0.00170866 0.0707047,0.0396693 0.0707047,0.0396693l-0.019126 0.0205197z"/>
    <path id="_121158040" class="fil9" d="M1.19142 0.646441l-0.0212283 -0.0200748 -0.0588622 0.0593031c0,0 0.00409843,0.00409843 0.0109331,0 0.00683071,-0.00410236 0.0691575,-0.0392283 0.0691575,-0.0392283z"/>
    <path id="_121158232" class="fil10" d="M1.10951 0.572264c0.000110236,-0.00252756 0.000901575,-0.0036811 0.0018189,-0.00453543l0.0590945 0.0587795 -0.0589331 0.0591614c0,0 -0.00255118,-0.00239764 -0.00255118,-0.00752362 0,-0.0353268 6.29921e-005,-0.0705512 0.000570866,-0.105882z"/>
    <path id="_121158496" class="fil11" d="M1.19126 0.646681l0.0222008 -0.0126496c0,0 0.0116181,-0.0065 0.000685039,-0.0129961 -0.00608268,-0.00361811 -0.0130157,-0.00774409 -0.0246024,-0.0150354l-0.0194606 0.0205079c0,0 0.0211772,0.0194921 0.0211772,0.0201732z"/>
   </g>
  </g>
  <polygon class="fil0 str0" points="2.49986,0.885472 2.45489,0.836488 2.42697,0.861843 2.36874,0.686886 2.53865,0.760425 2.51073,0.785776 2.5557,0.83476 "/>
  <path class="fil12" d="M0.825929 0.184925c0,-0.00614567 -0.00218504,-0.0108504 -0.00651575,-0.0141457 -0.00433465,-0.00329921 -0.0121496,-0.00677953 -0.0234449,-0.0104094 -0.0112992,-0.00366535 -0.0202244,-0.00725984 -0.026815,-0.010815 -0.0179252,-0.00970472 -0.0268898,-0.0227402 -0.0268898,-0.039185 0,-0.00851575 0.00240945,-0.0161457 0.00722047,-0.022815 0.00477953,-0.00670079 0.0117047,-0.0119252 0.0207047,-0.0157008 0.009,-0.00374409 0.0191102,-0.00562992 0.0303346,-0.00562992 0.0112953,0 0.0213307,0.00203543 0.0301457,0.00614567 0.00885433,0.0040748 0.0157047,0.00985433 0.0205945,0.0172992 0.00485039,0.00744094 0.00729528,0.0159252 0.00729528,0.0253701l-0.0325551 0c0,-0.00722441 -0.00225984,-0.0128543 -0.00681496,-0.0168543 -0.00455512,-0.00403543 -0.0109606,-0.00603543 -0.0192205,-0.00603543 -0.00796457,0 -0.0141496,0.00166535 -0.0185551,0.00503543 -0.00440945,0.00337008 -0.00659449,0.00781496 -0.00659449,0.0132953 0,0.00514961 0.00255512,0.00944488 0.00774016,0.0129291 0.00518504,0.00348031 0.0127795,0.00674016 0.0228543,0.00977559 0.0185157,0.00555512 0.0319961,0.0124803 0.0404803,0.0207047 0.00844488,0.00825984 0.0126654,0.0185197 0.0126654,0.030815 0,0.0137008 -0.00514961,0.0244055 -0.0155197,0.032185 -0.0103307,0.00777559 -0.0242559,0.0116654 -0.0417756,0.0116654 -0.0121496,0 -0.023185,-0.00222047 -0.033185,-0.00666535 -0.01,-0.00444488 -0.0175945,-0.0105551 -0.0228504,-0.0182992 -0.00522441,-0.00774016 -0.00785433,-0.0167008 -0.00785433,-0.0268858l0.0326693 0c0,0.0174449 0.0104055,0.0261457 0.0312205,0.0261457 0.00774016,0 0.013815,-0.00155512 0.0181496,-0.00470079 0.00433071,-0.00314961 0.00651575,-0.00755512 0.00651575,-0.0132244zm0.10663 0.0436299c-0.0172244,0 -0.0312244,-0.00529528 -0.0420394,-0.0158504 -0.010815,-0.0105551 -0.0162205,-0.0246299 -0.0162205,-0.0422244l0 -0.00303543c0,-0.0117795 0.00225984,-0.0223346 0.00681496,-0.0316299 0.00455512,-0.00929528 0.0110354,-0.0164803 0.0193701,-0.0214803 0.00837008,-0.00503937 0.0178898,-0.00755512 0.0285906,-0.00755512 0.0160748,0 0.0287047,0.0050748 0.0379291,0.015185 0.00922047,0.0101457 0.0138504,0.0244803 0.0138504,0.0430709l0 0.012815 -0.0747795 0c0.00103937,0.00766929 0.0040748,0.013815 0.00918504,0.0184449 0.00511417,0.00462992 0.0115591,0.00696457 0.0193701,0.00696457 0.0120748,0 0.0215197,-0.00437008 0.0282992,-0.0131496l0.0154055 0.0172598c-0.00470472,0.00666535 -0.0110354,0.0118504 -0.0190748,0.0155945 -0.00803543,0.00374016 -0.0169252,0.00559055 -0.0267008,0.00559055zm-0.00359449 -0.0963701c-0.00622047,0 -0.0112598,0.00211024 -0.0151102,0.00629528 -0.00388976,0.00418504 -0.00637008,0.010185 -0.00744488,0.018l0.0436299 0 0 -0.00248031c-0.000149606,-0.00696457 -0.00203543,-0.0123346 -0.00566535,-0.0161102 -0.00359449,-0.00381496 -0.00874409,-0.00570472 -0.0154094,-0.00570472zm0.137705 0.094185c-0.00144488,-0.00281496 -0.00248425,-0.00633465 -0.00314961,-0.0105197 -0.00759055,0.00848425 -0.0174803,0.0127047 -0.0296299,0.0127047 -0.0114803,0 -0.0210354,-0.00333465 -0.0285906,-0.01 -0.00755512,-0.00662992 -0.0113346,-0.0150354 -0.0113346,-0.025185 0,-0.0124449 0.00462992,-0.022 0.0138504,-0.0286299 0.00922441,-0.00666535 0.0225551,-0.0100354 0.0399646,-0.0101102l0.0144449 0 0 -0.00674016c0,-0.00540945 -0.00140945,-0.00974016 -0.00418504,-0.013 -0.00277953,-0.00325984 -0.00718504,-0.00488976 -0.013185,-0.00488976 -0.00525984,0 -0.00940945,0.00125984 -0.0124094,0.00377953 -0.003,0.00255512 -0.00451575,0.006 -0.00451575,0.0104055l-0.0313346 0c0,-0.00677559 0.0020748,-0.0130748 0.00625984,-0.0188504 0.00422047,-0.00581496 0.0101457,-0.0103346 0.017815,-0.0136299 0.00766535,-0.00329528 0.0162598,-0.0049252 0.025815,-0.0049252 0.0144803,0 0.0259606,0.00362992 0.0344409,0.0108858 0.00851969,0.00729921 0.0127795,0.0175197 0.0127795,0.0306693l0 0.0508858c7.48031e-005,0.0111496 0.00162992,0.0195945 0.00466535,0.0252992l0 0.00185039 -0.0317008 0zm-0.0259252 -0.0217795c0.00462598,0 0.00888583,-0.00103543 0.012811,-0.00311024 0.00388976,-0.00203543 0.00677953,-0.00481496 0.00866929,-0.00829528l0 -0.0202205 -0.0117047 0c-0.0157047,0 -0.0240748,0.00544488 -0.0250748,0.0162953l-0.000110236 0.00185039c0,0.0039252 0.00137008,0.00714961 0.00411024,0.00966929 0.00274016,0.00255512 0.00651969,0.00381102 0.0112992,0.00381102zm0.142996 -0.0662559c-0.00425984,-0.000555118 -0.00803937,-0.000854331 -0.0112598,-0.000854331 -0.0118898,0 -0.0196654,0.004 -0.0233346,0.0120394l0 0.0768504 -0.0313701 0 0 -0.117406 0.0296299 0 0.000854331 0.014c0.00629528,-0.0107795 0.015,-0.016185 0.0261457,-0.016185 0.00348031,0 0.00674016,0.000480315 0.00977953,0.00140551l-0.000444882 0.0301496zm0.0639252 0.0649252c0.00577559,0 0.0104803,-0.00159449 0.0140709,-0.00477953 0.00362992,-0.00318504 0.00551969,-0.00740551 0.00566929,-0.0127008l0.0294055 0c-7.48031e-005,0.00796063 -0.00225984,0.0152559 -0.00651969,0.0218858 -0.00425591,0.00662992 -0.0101102,0.0117402 -0.0175157,0.0154094 -0.00740945,0.00366535 -0.0156299,0.00548031 -0.0245945,0.00548031 -0.0167756,0 -0.03,-0.00533465 -0.0397008,-0.016 -0.00970472,-0.0106654 -0.0145551,-0.0254055 -0.0145551,-0.0442205l0 -0.0020748c0,-0.0181102 0.00481496,-0.0325197 0.0144409,-0.0432953 0.00962992,-0.0107795 0.022815,-0.016185 0.0395945,-0.016185 0.0147047,0 0.0264803,0.00418504 0.0353346,0.0125157 0.00885039,0.00837008 0.0133701,0.0194843 0.0135157,0.0334094l-0.0294055 0c-0.000149606,-0.0060748 -0.00203937,-0.0110394 -0.00566929,-0.014815 -0.00359055,-0.00381496 -0.00837008,-0.00570472 -0.0142953,-0.00570472 -0.00733071,0 -0.012815,0.00266535 -0.0165551,0.00796457 -0.00374016,0.00533071 -0.00559055,0.0139606 -0.00559055,0.0258858l0 0.00325984c0,0.0120748 0.00185039,0.0207795 0.00555512,0.0260394 0.00366535,0.00529528 0.00925984,0.0079252 0.016815,0.0079252zm0.0976299 -0.0815197c0.00833071,-0.00996063 0.0187756,-0.0149606 0.0313701,-0.0149606 0.0254449,0 0.0383701,0.0147756 0.0387402,0.0443701l0 0.0752205 -0.0313701 0 0 -0.0743701c0,-0.00670472 -0.00144488,-0.0117047 -0.00433465,-0.0149252 -0.00288976,-0.00322441 -0.00770079,-0.00481496 -0.0144449,-0.00481496 -0.00918504,0 -0.0158504,0.00355512 -0.0199606,0.0106299l0 0.0834803 -0.0313701 0 0 -0.166665 0.0313701 0 0 0.0620354zm0.12685 0.10463l-0.0314843 0 0 -0.117406 0.0314843 0 0 0.117406zm-0.0333346 -0.147776c0,-0.00470472 0.00159055,-0.00859449 0.00474016,-0.0116299 0.00314961,-0.00303937 0.00744488,-0.00455512 0.0128504,-0.00455512 0.00537008,0 0.00962992,0.00151575 0.012815,0.00455512 0.00318504,0.00303543 0.00477953,0.0069252 0.00477953,0.0116299 0,0.00474016 -0.00162992,0.00866535 -0.00485039,0.0117008 -0.00322441,0.00303937 -0.00744488,0.00455906 -0.0127441,0.00455906 -0.00529528,0 -0.00951575,-0.00151969 -0.0127402,-0.00455906 -0.00322047,-0.00303543 -0.00485039,-0.00696063 -0.00485039,-0.0117008zm0.088 0.0303701l0.001 0.0135551c0.00837008,-0.0104803 0.0196299,-0.0157402 0.0337402,-0.0157402 0.0124449,0 0.0217008,0.00366535 0.0277756,0.0109606 0.0060748,0.00729921 0.00918504,0.0182244 0.00933465,0.0327795l0 0.0758504 -0.0313701 0 0 -0.0751102c0,-0.00666535 -0.00144488,-0.0114803 -0.00433465,-0.0144803 -0.00288976,-0.003 -0.00770079,-0.00451969 -0.0144449,-0.00451969 -0.00881496,0 -0.0154409,0.00377953 -0.0198504,0.0112953l0 0.082815 -0.0313701 0 0 -0.117406 0.0295197 0zm0.0910354 0.0578504c0,-0.0180354 0.00429921,-0.0325551 0.0128543,-0.0435551 0.00859055,-0.011 0.0201457,-0.0164803 0.0346654,-0.0164803 0.0128898,0 0.0229252,0.00440551 0.0300748,0.0132598l0.00129528 -0.0110748 0.0284449 0 0 0.11348c0,0.0102953 -0.00233465,0.0192205 -0.007,0.026815 -0.00466929,0.00759055 -0.0112244,0.0133701 -0.0197047,0.0173701 -0.00848031,0.00396063 -0.0183701,0.00596063 -0.0297402,0.00596063 -0.00859449,0 -0.017,-0.00170079 -0.0251496,-0.00514567 -0.00818504,-0.00344488 -0.0143701,-0.00785433 -0.0185551,-0.0132953l0.0138898 -0.0190748c0.00781496,0.00874016 0.0172598,0.0131102 0.0284055,0.0131102 0.00833465,0 0.014815,-0.00222441 0.0194449,-0.00666535 0.00462992,-0.00444488 0.00692913,-0.0107795 0.00692913,-0.0189291l0 -0.00629528c-0.00722441,0.00818504 -0.0167441,0.0122598 -0.0285197,0.0122598 -0.0141102,0 -0.0255197,-0.00551969 -0.0342598,-0.0165551 -0.00870472,-0.0110354 -0.0130748,-0.0256654 -0.0130748,-0.0438898l0 -0.00129528zm0.0313701 0.00225984c0,0.0106299 0.00214961,0.0189606 0.00640945,0.025 0.00425984,0.00603543 0.0101102,0.0090748 0.0175551,0.0090748 0.00955512,0 0.0164055,-0.00359449 0.0205197,-0.0107441l0 -0.0494055c-0.00418898,-0.00714961 -0.0109646,-0.0107402 -0.0202992,-0.0107402 -0.00751575,0 -0.0134449,0.0030748 -0.0177402,0.00922047 -0.00429528,0.00614961 -0.00644488,0.0153346 -0.00644488,0.0275945zm0.22115 -0.100705l0.0325551 0 0 0.109409c0,0.0100354 -0.00222441,0.0189252 -0.00666535,0.026626 -0.00448425,0.00770472 -0.0107441,0.0136693 -0.0188543,0.0178543 -0.00811024,0.00418504 -0.0172598,0.00629528 -0.0274449,0.00629528 -0.0167008,0 -0.0297402,-0.00425984 -0.0390709,-0.0127402 -0.00933465,-0.00851969 -0.014,-0.0205197 -0.014,-0.0360748l0.0327756 0c0,0.00774016 0.00162992,0.0134449 0.00488976,0.0171496 0.00325984,0.00366535 0.00840551,0.00551575 0.0154055,0.00551575 0.00622441,0 0.011185,-0.00214567 0.0148543,-0.00640551 0.00370079,-0.00425984 0.00555512,-0.0103346 0.00555512,-0.0182205l0 -0.109409zm0.0535157 0.0982244c0,-0.0116693 0.00222047,-0.0220394 0.00670472,-0.0311496 0.00448031,-0.00914961 0.0109606,-0.016185 0.0193701,-0.021185 0.00844488,-0.005 0.0182205,-0.00748031 0.0293701,-0.00748031 0.015815,0 0.0287402,0.00485039 0.0387756,0.0145551 0.0100394,0.00966535 0.0155945,0.0228504 0.0167795,0.0394803l0.000220472 0.00803543c0,0.0180394 -0.00503543,0.0324843 -0.0151102,0.0433701 -0.0100354,0.0108898 -0.0235197,0.0163346 -0.0404449,0.0163346 -0.0169606,0 -0.0304449,-0.00544488 -0.0405551,-0.0162953 -0.0100748,-0.0108543 -0.0151102,-0.0255945 -0.0151102,-0.0442598l0 -0.00140551zm0.0313346 0.00225591c0,0.0111496 0.00211024,0.0196693 0.00629528,0.0255551 0.00418504,0.00588976 0.0102205,0.00885433 0.0180354,0.00885433 0.00759449,0 0.0135197,-0.0029252 0.0177795,-0.00874016 0.00425984,-0.00581496 0.00640551,-0.0151496 0.00640551,-0.0279252 0,-0.0109291 -0.00214567,-0.0194094 -0.00640551,-0.0254094 -0.00425984,-0.006 -0.0102598,-0.009 -0.018,-0.009 -0.00766929,0 -0.0136299,0.003 -0.017815,0.00896457 -0.00418504,0.00596063 -0.00629528,0.015185 -0.00629528,0.0277008zm0.204996 -0.000110236c0,0.018815 -0.00403543,0.0334803 -0.0120748,0.0440394 -0.008,0.0105157 -0.0192205,0.0157756 -0.0336299,0.0157756 -0.0127008,0 -0.0228858,-0.00488976 -0.0304803,-0.0146654l-0.00140551 0.0124803 -0.0282244 0 0 -0.166665 0.0313701 0 0 0.0597756c0.00722441,-0.00848031 0.0167441,-0.0127008 0.0285197,-0.0127008 0.0143346,0 0.0255551,0.00525984 0.0337047,0.0157756 0.00814567,0.0105551 0.0122205,0.0253701 0.0122205,0.0444449l0 0.00174016zm-0.0313701 -0.00229528c0,-0.0118504 -0.00188976,-0.0205197 -0.00562992,-0.026 -0.00377559,-0.00544488 -0.00937008,-0.00818504 -0.016815,-0.00818504 -0.01,0 -0.0168858,0.0040748 -0.0206299,0.0122598l0 0.0463701c0.00381496,0.00825984 0.0107795,0.0123701 0.020815,0.0123701 0.0101496,0 0.016815,-0.005 0.0199646,-0.015 0.00151969,-0.00474016 0.00229528,-0.0120394 0.00229528,-0.021815zm0.0762598 0.0114449c0,-0.0101102 0.00125984,-0.018185 0.00370472,-0.024185 0.00244094,-0.00603937 0.00696063,-0.0119252 0.0135157,-0.0177402 0.00655512,-0.00585433 0.0108898,-0.0105945 0.0130748,-0.0142244 0.00214961,-0.00366535 0.00325984,-0.00751575 0.00325984,-0.0115906 0,-0.0122244 -0.00566535,-0.0183346 -0.0169252,-0.0183346 -0.00537008,0 -0.00966929,0.00162992 -0.0128543,0.0049252 -0.00322047,0.00329921 -0.0049252,0.00785433 -0.00507087,0.0136693l-0.0314449 0c0.000145669,-0.0138543 0.00459055,-0.0246693 0.0133701,-0.0324843 0.00881496,-0.00781496 0.020815,-0.0117008 0.036,-0.0117008 0.0153307,0 0.0272205,0.00370079 0.0357008,0.0111102 0.00844488,0.00744488 0.0126693,0.0178898 0.0126693,0.0314449 0,0.00614567 -0.00137008,0.0119252 -0.00411024,0.0174055 -0.00274409,0.00544488 -0.00755906,0.0115197 -0.0144449,0.018185l-0.00877953 0.00833465c-0.00548031,0.00529528 -0.00862992,0.0114803 -0.00944488,0.0185551l-0.000444882 0.00662992 -0.0277756 0zm-0.00314961 0.0332953c0,-0.00485039 0.00166929,-0.00885039 0.00496457,-0.012 0.00329528,-0.00314961 0.00748031,-0.00470472 0.0126299,-0.00470472 0.00514567,0 0.00937008,0.00155512 0.0126299,0.00470472 0.00329528,0.00314961 0.00496063,0.00714961 0.00496063,0.012 0,0.00477953 -0.00162992,0.00870472 -0.00485039,0.011815 -0.00322441,0.00311024 -0.00744488,0.00466535 -0.0127402,0.00466535 -0.00525984,0 -0.00951969,-0.00155512 -0.0127402,-0.00466535 -0.00322441,-0.00311024 -0.00485433,-0.00703543 -0.00485433,-0.011815z"/>
  <path class="fil12" d="M0.985807 0.918382l0 -0.106886 0.0328701 0c0.00939764,0 0.017815,0.0021063 0.0252323,0.00633858 0.00741732,0.00423622 0.0132047,0.0102756 0.0173622,0.0180669 0.00415748,0.00781496 0.00624016,0.016685 0.00624016,0.0266063l0 0.00493701c0,0.00992126 -0.00205512,0.0187677 -0.0061378,0.0264843 -0.00408661,0.00774016 -0.00985039,0.0137283 -0.0172913,0.0179882 -0.00744094,0.00425984 -0.0158346,0.00641339 -0.0251772,0.00646457l-0.0330984 0zm0.0220236 -0.0890472l0 0.0713583 0.0106457 0c0.00859449,0 0.015185,-0.00280709 0.0197441,-0.00844488 0.00453543,-0.0056378 0.00686614,-0.0136772 0.00696457,-0.0241535l0 -0.00566142c0,-0.0108465 -0.00225197,-0.0190906 -0.00676378,-0.0247047 -0.00448425,-0.00558661 -0.0110748,-0.0083937 -0.0197441,-0.0083937l-0.0108465 0zm-0.0315709 0.102713l0.097689 0 0 0.00683465 -0.097689 0 0 -0.00683465zm0.102551 -0.0541024c0,-0.0078937 0.0015,-0.0149094 0.00453543,-0.0210748 0.0030315,-0.00618898 0.00741339,-0.0109488 0.0131024,-0.0143307 0.0057126,-0.00338189 0.0123268,-0.00505906 0.0198701,-0.00505906 0.0106969,0 0.0194409,0.00327953 0.0262323,0.00984646 0.0067874,0.00653937 0.0105472,0.0154567 0.0113504,0.0267087l0.000149606 0.00543701c0,0.0122008 -0.00340945,0.0219724 -0.0102244,0.0293386 -0.0067874,0.00736614 -0.0159094,0.0110472 -0.0273583,0.0110472 -0.0114764,0 -0.0205945,-0.0036811 -0.027437,-0.0110236 -0.00681496,-0.00733858 -0.0102205,-0.017311 -0.0102205,-0.0299409l0 -0.000948819zm0.0211969 0.00152756c0,0.00753937 0.0014252,0.0133031 0.00425591,0.0172874 0.00283465,0.00398425 0.00691732,0.00598819 0.0122047,0.00598819 0.00513386,0 0.00914567,-0.00198031 0.0120236,-0.00591339 0.00288189,-0.00393307 0.00433465,-0.010248 0.00433465,-0.0188898 0,-0.0073937 -0.00145276,-0.0131299 -0.00433465,-0.017189 -0.00287795,-0.00405906 -0.00693701,-0.00609055 -0.0121732,-0.00609055 -0.00518898,0 -0.00922047,0.0020315 -0.0120551,0.00606299 -0.00283071,0.00403543 -0.00425591,0.0102756 -0.00425591,0.0187441zm-0.0260591 0.0525748l0.0850118 0 0 0.00683465 -0.0850118 0 0 -0.00683465zm0.162232 -0.0425039l0.0104213 -0.0505866 0.0204724 0 -0.0202441 0.0794252 -0.0177677 0 -0.0150551 -0.0499843 -0.0150354 0.0499843 -0.017689 0 -0.0202677 -0.0794252 0.0204685 0 0.0103504 0.0505118 0.0145315 -0.0505118 0.0153583 0 0.0144567 0.0505866zm-0.0772205 0.0425039l0.110469 0 0 0.00683465 -0.110469 0 0 -0.00683465zm0.13813 -0.0930906l0.000677165 0.00916929c0.00566142,-0.00709055 0.0132795,-0.0106457 0.0228228,-0.0106457 0.00842126,0 0.014685,0.00248031 0.0187913,0.00741339 0.00411024,0.00493701 0.00621654,0.0123268 0.00631496,0.0221772l0 0.051311 -0.0212205 0 0 -0.050811c0,-0.00451181 -0.000976378,-0.00776772 -0.00293307,-0.00979921 -0.00195276,-0.00202756 -0.0052126,-0.00305512 -0.00977165,-0.00305512 -0.00596063,0 -0.0104488,0.00255512 -0.0134291,0.00764173l0 0.0560236 -0.0212205 0 0 -0.0794252 0.0199685 0zm-0.0276614 0.0930906l0.084185 0 0 0.00683465 -0.084185 0 0 -0.00683465zm0.114728 -0.0136654l-0.0212992 0 0 -0.112748 0.0212992 0 0 0.112748zm-0.0305433 0.0136654l0.0398622 0 0 0.00683465 -0.0398622 0 0 -0.00683465zm0.0447244 -0.0541024c0,-0.0078937 0.0015,-0.0149094 0.00453543,-0.0210748 0.0030315,-0.00618898 0.00741339,-0.0109488 0.0131024,-0.0143307 0.0057126,-0.00338189 0.0123268,-0.00505906 0.0198701,-0.00505906 0.0106969,0 0.0194409,0.00327953 0.0262323,0.00984646 0.0067874,0.00653937 0.0105472,0.0154567 0.0113504,0.0267087l0.000149606 0.00543701c0,0.0122008 -0.00340945,0.0219724 -0.0102244,0.0293386 -0.0067874,0.00736614 -0.0159094,0.0110472 -0.0273583,0.0110472 -0.0114764,0 -0.0205945,-0.0036811 -0.027437,-0.0110236 -0.00681496,-0.00733858 -0.0102205,-0.017311 -0.0102205,-0.0299409l0 -0.000948819zm0.0211969 0.00152756c0,0.00753937 0.0014252,0.0133031 0.00425591,0.0172874 0.00283465,0.00398425 0.00691732,0.00598819 0.0122047,0.00598819 0.00513386,0 0.00914567,-0.00198031 0.0120236,-0.00591339 0.00288189,-0.00393307 0.00433465,-0.010248 0.00433465,-0.0188898 0,-0.0073937 -0.00145276,-0.0131299 -0.00433465,-0.017189 -0.00287795,-0.00405906 -0.00693701,-0.00609055 -0.0121732,-0.00609055 -0.00518898,0 -0.00922047,0.0020315 -0.0120551,0.00606299 -0.00283071,0.00403543 -0.00425591,0.0102756 -0.00425591,0.0187441zm-0.0260591 0.0525748l0.0850118 0 0 0.00683465 -0.0850118 0 0 -0.00683465zm0.139181 -0.0136654c-0.000976378,-0.00190551 -0.00167717,-0.00428346 -0.00212992,-0.00711417 -0.0051378,0.00573622 -0.0118268,0.00859055 -0.0200433,0.00859055 -0.00776772,0 -0.0142323,-0.00225197 -0.0193425,-0.00676378 -0.00511024,-0.00448425 -0.00766929,-0.0101732 -0.00766929,-0.0170354 0,-0.00842126 0.00313386,-0.0148858 0.00937402,-0.0193701 0.00623622,-0.00450787 0.0152559,-0.0067874 0.0270315,-0.00683858l0.00977165 0 0 -0.00455906c0,-0.00365748 -0.000952756,-0.00659055 -0.00283071,-0.00879528 -0.00187795,-0.00220472 -0.00485827,-0.00330709 -0.00891732,-0.00330709 -0.00355906,0 -0.00636614,0.000850394 -0.0083937,0.00255512 -0.0020315,0.00172835 -0.00305906,0.00405906 -0.00305906,0.00703937l-0.0211969 0c0,-0.00458268 0.00140551,-0.00884252 0.00423622,-0.012752 0.00285433,-0.00393307 0.00686614,-0.00699213 0.0120512,-0.00922047 0.00518504,-0.00222835 0.011,-0.00333071 0.0174646,-0.00333071 0.00979528,0 0.017563,0.00245276 0.0232992,0.00736614 0.00576378,0.00493307 0.00864567,0.0118504 0.00864567,0.0207441l0 0.0344252c4.72441e-005,0.00754331 0.00110236,0.0132559 0.00315748,0.0171142l0 0.00125197 -0.0214488 0zm-0.0175394 -0.0147323c0.00313386,0 0.00601575,-0.000700787 0.00866929,-0.0021063 0.00262992,-0.00137795 0.00458661,-0.00325591 0.0058622,-0.00561024l0 -0.0136811 -0.00791732 0c-0.010622,0 -0.0162835,0.00368504 -0.0169606,0.0110236l-7.48031e-005 0.00125197c0,0.00265748 0.000925197,0.00483858 0.00277953,0.00653937 0.00185433,0.00173228 0.00440945,0.00258268 0.00764173,0.00258268zm-0.0366299 0.0283976l0.0806024 0 0 0.00683465 -0.0806024 0 0 -0.00683465zm0.085437 -0.0539528c0,-0.0124016 0.00278346,-0.022252 0.00834252,-0.0295906 0.00556299,-0.00734252 0.0131575,-0.0110236 0.0228031,-0.0110236 0.00771654,0 0.0141063,0.00288189 0.0191417,0.00866929l0 -0.0405157 0.0212953 0 0 0.112748 -0.0191654 0 -0.00102756 -0.00844488c-0.0052874,0.00661417 -0.0120787,0.00992126 -0.0203937,0.00992126 -0.00934646,0 -0.0168622,-0.0036811 -0.0225,-0.0110472 -0.00566535,-0.00736614 -0.00849606,-0.0176142 -0.00849606,-0.0307165zm0.0212244 0.00152756c0,0.00744094 0.00129921,0.0131299 0.00388189,0.0171142 0.0026063,0.00395669 0.0063622,0.00593701 0.0113268,0.00593701 0.00653937,0 0.0111732,-0.00275591 0.0138543,-0.00829528l0 -0.0313661c-0.00262992,-0.00553937 -0.00721654,-0.00829528 -0.0137323,-0.00829528 -0.0102205,0 -0.0153307,0.00829528 -0.0153307,0.0249055zm-0.0260591 0.0524252l0.0847126 0 0 0.00683465 -0.0847126 0 0 -0.00683465zm0.0847126 0l0.0374331 0 0 0.00683465 -0.0374331 0 0 -0.00683465zm0.13387 -0.0136654l-0.0220236 0 -0.0428425 -0.0703307 0 0.0703307 -0.0220236 0 0 -0.106886 0.0220236 0 0.0429173 0.0704803 0 -0.0704803 0.0219488 0 0 0.106886zm-0.096437 0.0136654l0.106134 0 0 0.00683465 -0.106134 0 0 -0.00683465zm0.110996 -0.0541024c0,-0.0078937 0.0015,-0.0149094 0.00453543,-0.0210748 0.0030315,-0.00618898 0.00741339,-0.0109488 0.0131024,-0.0143307 0.0057126,-0.00338189 0.0123268,-0.00505906 0.0198701,-0.00505906 0.0106969,0 0.0194409,0.00327953 0.0262323,0.00984646 0.0067874,0.00653937 0.0105472,0.0154567 0.0113504,0.0267087l0.000149606 0.00543701c0,0.0122008 -0.00340945,0.0219724 -0.0102244,0.0293386 -0.0067874,0.00736614 -0.0159094,0.0110472 -0.0273583,0.0110472 -0.0114764,0 -0.0205945,-0.0036811 -0.027437,-0.0110236 -0.00681496,-0.00733858 -0.0102205,-0.017311 -0.0102205,-0.0299409l0 -0.000948819zm0.0211969 0.00152756c0,0.00753937 0.0014252,0.0133031 0.00425591,0.0172874 0.00283465,0.00398425 0.00691732,0.00598819 0.0122047,0.00598819 0.00513386,0 0.00914567,-0.00198031 0.0120236,-0.00591339 0.00288189,-0.00393307 0.00433465,-0.010248 0.00433465,-0.0188898 0,-0.0073937 -0.00145276,-0.0131299 -0.00433465,-0.017189 -0.00287795,-0.00405906 -0.00693701,-0.00609055 -0.0121732,-0.00609055 -0.00518898,0 -0.00922047,0.0020315 -0.0120551,0.00606299 -0.00283071,0.00403543 -0.00425591,0.0102756 -0.00425591,0.0187441zm-0.0260591 0.0525748l0.0850118 0 0 0.00683465 -0.0850118 0 0 -0.00683465zm0.162232 -0.0425039l0.0104213 -0.0505866 0.0204724 0 -0.0202441 0.0794252 -0.0177677 0 -0.0150551 -0.0499843 -0.0150354 0.0499843 -0.017689 0 -0.0202677 -0.0794252 0.0204685 0 0.0103504 0.0505118 0.0145315 -0.0505118 0.0153583 0 0.0144567 0.0505866zm-0.0772205 0.0425039l0.110469 0 0 0.00683465 -0.110469 0 0 -0.00683465zm0.140209 -0.0464882l-0.0176378 0 -0.00248031 -0.074063 0.0225984 0 -0.00248031 0.074063zm-0.0088189 0.0116024c0.00358268,0 0.00643701,0.00105118 0.00861811,0.00315748 0.0021811,0.00210236 0.00328346,0.00480709 0.00328346,0.00806693 0,0.00323228 -0.00110236,0.00591339 -0.00328346,0.00801575 -0.0021811,0.0021063 -0.00503543,0.00315748 -0.00861811,0.00315748 -0.0035315,0 -0.00636614,-0.00105118 -0.00854331,-0.00315748 -0.0021811,-0.00210236 -0.00328346,-0.00478346 -0.00328346,-0.00801575 0,-0.00323228 0.00110236,-0.00588976 0.00328346,-0.00801969 0.00217717,-0.00212992 0.00501181,-0.00320472 0.00854331,-0.00320472zm-0.0209213 0.0348858l0.0408898 0 0 0.00683465 -0.0408898 0 0 -0.00683465z"/>
 </g>
</svg>
