<?xml version="1.0" encoding="UTF-8"?>
<!DOCTYPE svg PUBLIC "-//W3C//DTD SVG 1.1//EN" "http://www.w3.org/Graphics/SVG/1.1/DTD/svg11.dtd">
<!-- Creator: CorelDRAW -->
<svg xmlns="http://www.w3.org/2000/svg" xml:space="preserve" width="190.5mm" height="50.8mm" style="shape-rendering:geometricPrecision; text-rendering:geometricPrecision; image-rendering:optimizeQuality; fill-rule:evenodd; clip-rule:evenodd"
viewBox="0 0 190.5 50.8"
 xmlns:xlink="http://www.w3.org/1999/xlink">
 <defs>
  <style type="text/css">
   <![CDATA[
    .fil1 {fill:#44916C}
    .fil3 {fill:white}
    .fil0 {fill:#E67015}
    .fil2 {fill:white;fill-rule:nonzero}
   ]]>
  </style>
 </defs>
 <g id="Layer_x0020_1">
  <metadata id="CorelCorpID_0Corel-Layer"/>
  <rect class="fil0" x="4.97735e-005" width="190.5" height="50.8"/>
  <g id="_109221200">
   <path id="_109222064" class="fil1" d="M26.8702 12.4139c7.4179,0 13.4333,6.0154 13.4333,13.4331 0,7.4178 -6.0154,13.433 -13.4333,13.433 -7.4174,0 -13.4328,-6.0152 -13.4328,-13.433 0,-7.4177 6.0154,-13.4331 13.4328,-13.4331z"/>
   <path id="_109221440" class="fil2" d="M19.9363 31.7004l0.6243 -0.6221 10.2354 0 0 1.2443 -10.2354 0 -0.6243 -0.6222zm0.6243 -0.6221l0 1.2443 -0.0318 -0.0008 -0.0316 -0.0025 -0.0311 -0.0038 -0.0306 -0.0056 -0.0301 -0.007 -0.0299 -0.0082 -0.0285 -0.0099 -0.0285 -0.0112 -0.0274 -0.0123 -0.0268 -0.0139 -0.0262 -0.0148 -0.0251 -0.0162 -0.0245 -0.0174 -0.0235 -0.0185 -0.0228 -0.0195 -0.0214 -0.0206 -0.0208 -0.0216 -0.0195 -0.0225 -0.0183 -0.0236 -0.0173 -0.0244 -0.0162 -0.0253 -0.0151 -0.026 -0.0138 -0.0268 -0.0122 -0.0276 -0.0112 -0.0283 -0.01 -0.0288 -0.0083 -0.0297 -0.0069 -0.03 -0.0054 -0.0307 -0.0041 -0.031 -0.0025 -0.0317 -0.0006 -0.032 0.0006 -0.032 0.0025 -0.0316 0.0041 -0.031 0.0054 -0.0307 0.0069 -0.0301 0.0083 -0.0296 0.01 -0.0288 0.0112 -0.0283 0.0122 -0.0276 0.0138 -0.0268 0.0151 -0.026 0.0162 -0.0253 0.0173 -0.0245 0.0183 -0.0235 0.0195 -0.0225 0.0208 -0.0216 0.0214 -0.0207 0.0228 -0.0194 0.0235 -0.0185 0.0245 -0.0174 0.0251 -0.0162 0.0262 -0.0148 0.0268 -0.0139 0.0274 -0.0124 0.0285 -0.0111 0.0285 -0.0099 0.0299 -0.0083 0.0301 -0.0069 0.0306 -0.0056 0.0311 -0.0039 0.0316 -0.0025 0.0318 -0.0007zm-0.0071 -4.0662l0.6318 0.6222 0 4.0661 -1.249 0 0 -4.0661 0.6172 -0.6222zm0.6318 0.6222l-1.249 0 0.0006 -0.0322 0.0025 -0.0317 0.0041 -0.0312 0.0054 -0.0308 0.0069 -0.0301 0.0087 -0.0297 0.0096 -0.0289 0.0114 -0.0284 0.0123 -0.0277 0.0137 -0.027 0.0151 -0.0261 0.0163 -0.0254 0.0174 -0.0245 0.0187 -0.0235 0.0197 -0.0226 0.0204 -0.0218 0.0218 -0.0206 0.0225 -0.0197 0.0238 -0.0185 0.0244 -0.0175 0.0253 -0.0162 0.0262 -0.015 0.027 -0.0137 0.0278 -0.0126 0.0281 -0.0111 0.0291 -0.0099 0.0295 -0.0085 0.0301 -0.0069 0.0311 -0.0056 0.031 -0.0038 0.0316 -0.0026 0.0322 -0.0007 0.0324 0.0007 0.0316 0.0026 0.0313 0.0038 0.0306 0.0056 0.0303 0.0069 0.0295 0.0085 0.0289 0.0099 0.0283 0.0111 0.0278 0.0126 0.027 0.0137 0.0262 0.015 0.0255 0.0162 0.0245 0.0175 0.0235 0.0185 0.0223 0.0197 0.022 0.0206 0.0205 0.0218 0.0196 0.0226 0.0185 0.0235 0.0176 0.0245 0.0162 0.0254 0.015 0.0261 0.0139 0.027 0.0125 0.0277 0.011 0.0284 0.01 0.0289 0.0085 0.0297 0.007 0.0301 0.0056 0.0308 0.0038 0.0312 0.0023 0.0317 0.001 0.0322zm-5.0088 -4.6508l1.2443 0.0536 0 0 -0.0073 0.3931 0.0154 0.3613 0.0322 0.3328 0.0523 0.3079 0.0655 0.2813 0.0779 0.2553 0.0912 0.2354 0.1026 0.2138 0.1126 0.1932 0.1188 0.1756 0.1259 0.1593 0.134 0.1459 0.1382 0.1311 0.1434 0.1175 0.1466 0.1043 0.149 0.0944 0.1521 0.0835 0.1508 0.0752 0.149 0.0636 0.1471 0.055 0.1446 0.0445 0.14 0.0401 0.1317 0.0316 0.1215 0.0243 0.1129 0.0176 0.1026 0.0139 0.0883 0.0117 0.075 0.0048 0.0573 0.0045 0.0414 0.0019 0.0207 0.0006 -0.0006 0 0.0144 1.2443 -0.0235 0 -0.0455 -0.0005 -0.0653 -0.002 -0.0868 -0.0044 -0.1045 -0.0098 -0.1222 -0.0118 -0.1367 -0.0189 -0.1518 -0.0272 -0.1656 -0.0339 -0.1758 -0.0417 -0.184 -0.0497 -0.1928 -0.0642 -0.201 -0.0742 -0.2073 -0.088 -0.2096 -0.0998 -0.2107 -0.1174 -0.2123 -0.1338 -0.2101 -0.1529 -0.2067 -0.1711 -0.2017 -0.1897 -0.1928 -0.2095 -0.1845 -0.2322 -0.1724 -0.2539 -0.1565 -0.2761 -0.1415 -0.2967 -0.1254 -0.3183 -0.1072 -0.3432 -0.0852 -0.3642 -0.0619 -0.3858 -0.042 -0.4111 -0.0154 -0.4345 0.0073 -0.4564zm6.7806 -2.9448l1.1565 0.4584 -1.066 0.1587 -0.0689 -0.0771 -0.0968 -0.0854 -0.118 -0.0854 -0.1428 -0.0872 -0.1627 -0.0833 -0.1815 -0.0763 -0.1959 -0.0706 -0.2134 -0.0623 -0.2223 -0.0528 -0.2337 -0.0401 -0.2414 -0.0318 -0.2446 -0.0173 -0.2516 -0.0053 -0.251 0.0105 -0.2495 0.0244 -0.246 0.0369 -0.2434 0.0547 -0.2361 0.0689 -0.2304 0.0831 -0.2195 0.101 -0.2099 0.1172 -0.1967 0.1317 -0.1854 0.1519 -0.1732 0.1678 -0.1615 0.1895 -0.146 0.2094 -0.1305 0.23 -0.114 0.2591 -0.0975 0.2836 -0.0777 0.3143 -0.0529 0.3453 -0.032 0.3769 -1.2443 -0.0536 0.037 -0.4699 0.0725 -0.4428 0.1018 -0.4165 0.1323 -0.3912 0.1623 -0.3613 0.1891 -0.3376 0.2144 -0.3069 0.2345 -0.2774 0.2564 -0.2507 0.2732 -0.2202 0.289 -0.1949 0.2981 -0.1662 0.3073 -0.14 0.3131 -0.1174 0.3195 -0.0931 0.321 -0.0694 0.3241 -0.0515 0.3228 -0.0295 0.3194 -0.0104 0.3149 0.0052 0.3127 0.0224 0.3052 0.0368 0.2971 0.0548 0.2904 0.0674 0.2768 0.0816 0.2692 0.0952 0.2549 0.1103 0.2406 0.1223 0.2258 0.1361 0.2107 0.1536 0.1895 0.1684 0.1714 0.1893 -1.0664 0.1587zm0.0905 0.6171l0.9759 -0.7758 0.0191 0.0256 0.0181 0.0262 0.0162 0.0268 0.0147 0.0276 0.0135 0.028 0.0117 0.0283 0.0104 0.0287 0.0087 0.0292 0.0075 0.0293 0.006 0.0297 0.0046 0.0296 0.0027 0.0299 0.002 0.0301 0.0002 0.0299 -0.0014 0.0299 -0.0029 0.0299 -0.004 0.0295 -0.0056 0.0295 -0.007 0.0291 -0.0083 0.0289 -0.0094 0.0283 -0.0114 0.028 -0.0123 0.0276 -0.0137 0.0269 -0.0152 0.0265 -0.0166 0.0256 -0.0181 0.0251 -0.0191 0.0241 -0.0207 0.0233 -0.0221 0.0226 -0.0232 0.0215 -0.0246 0.0207 -0.0257 0.0193 -0.026 0.0179 -0.0268 0.0162 -0.0276 0.0148 -0.0279 0.0133 -0.0284 0.0118 -0.0289 0.0104 -0.0291 0.0089 -0.0291 0.0073 -0.0299 0.006 -0.0295 0.0046 -0.0301 0.0029 -0.0299 0.0017 -0.0299 0.0002 -0.03 -0.0013 -0.0297 -0.0027 -0.0297 -0.0041 -0.0295 -0.0056 -0.0291 -0.0069 -0.0289 -0.0083 -0.0284 -0.0096 -0.0279 -0.0112 -0.0276 -0.0125 -0.027 -0.0137 -0.0262 -0.0153 -0.0257 -0.0166 -0.0252 -0.0179 -0.0241 -0.0193 -0.0234 -0.0206 -0.0225 -0.022 -0.0214 -0.0231 -0.0206 -0.0247zm4.3411 -0.7392l0.8828 0.8784 -0.9245 -0.0464 -0.1637 -0.1876 -0.1594 -0.1622 -0.1544 -0.1378 -0.1524 -0.115 -0.1492 -0.0979 -0.1403 -0.0769 -0.1396 -0.0602 -0.1352 -0.0462 -0.1303 -0.034 -0.13 -0.0227 -0.1247 -0.0101 -0.1284 -0.0011 -0.1223 0.0089 -0.1228 0.0181 -0.1182 0.0235 -0.1205 0.0326 -0.1145 0.0409 -0.1112 0.0451 -0.1099 0.0484 -0.103 0.0553 -0.1008 0.0563 -0.0931 0.0611 -0.0878 0.0596 -0.079 0.0596 -0.0727 0.0584 -0.0634 0.0559 -0.0519 0.0501 -0.0436 0.0451 -0.0312 0.0346 -0.0152 0.0177 0.0034 -0.005 0.0319 -0.066 -1.1565 -0.4584 0.0658 -0.1296 0.0599 -0.0875 0.064 -0.081 0.07 -0.0785 0.0781 -0.0794 0.0908 -0.0841 0.0978 -0.0852 0.1066 -0.0877 0.1186 -0.0889 0.1264 -0.0889 0.1371 -0.0854 0.1446 -0.0856 0.157 -0.08 0.1635 -0.0777 0.1746 -0.0694 0.1828 -0.0602 0.1888 -0.0522 0.2011 -0.0432 0.2055 -0.0278 0.2148 -0.0139 0.2167 0.0012 0.2271 0.0201 0.2275 0.0374 0.2331 0.0582 0.2325 0.0806 0.232 0.1037 0.2336 0.1259 0.227 0.1465 0.2255 0.1736 0.2229 0.1964 0.2181 0.2208 0.2123 0.2462 -0.9245 -0.0465zm-0.0417 0.832l0.9662 -0.7855 0.0196 0.0254 0.0178 0.0261 0.0165 0.0266 0.0153 0.0271 0.0137 0.0278 0.0119 0.0282 0.0106 0.0287 0.0093 0.0289 0.0077 0.0293 0.0063 0.0295 0.0047 0.0297 0.0034 0.0297 0.002 0.0299 0.0007 0.0299 -0.0009 0.0298 -0.0025 0.0299 -0.0039 0.0295 -0.005 0.0295 -0.0067 0.0291 -0.0081 0.029 -0.0093 0.0285 -0.0108 0.0281 -0.0119 0.0276 -0.0137 0.027 -0.0149 0.0266 -0.0164 0.0259 -0.0175 0.025 -0.0191 0.0245 -0.0201 0.0235 -0.0217 0.0228 -0.0232 0.0218 -0.0243 0.0208 -0.0252 0.0196 -0.0262 0.018 -0.0267 0.0166 -0.0271 0.0152 -0.0278 0.0135 -0.0282 0.0121 -0.0285 0.0106 -0.0289 0.0093 -0.0293 0.0077 -0.0297 0.0064 -0.0295 0.0046 -0.0299 0.0035 -0.0297 0.0019 -0.0301 0.0006 -0.0296 -0.001 -0.0299 -0.0025 -0.0295 -0.0037 -0.0297 -0.0052 -0.0291 -0.0065 -0.0288 -0.0081 -0.0287 -0.0093 -0.0279 -0.0108 -0.0278 -0.0121 -0.027 -0.0135 -0.0266 -0.0149 -0.0258 -0.0163 -0.0249 -0.0176 -0.0245 -0.0191 -0.0237 -0.0202 -0.0226 -0.0216 -0.022 -0.0232 -0.0208 -0.0242zm2.8836 -2.0904l0.0052 1.2443 0 0 -0.0932 0.0039 -0.094 0.0073 -0.0941 0.0127 -0.0949 0.0153 -0.09 0.02 -0.0924 0.0218 -0.09 0.0278 -0.0902 0.0291 -0.087 0.0322 -0.0868 0.0349 -0.0834 0.0372 -0.0802 0.0389 -0.0795 0.0407 -0.0786 0.0417 -0.0749 0.0424 -0.0707 0.0428 -0.0669 0.0428 -0.0656 0.0447 -0.0613 0.0417 -0.0594 0.0405 -0.052 0.041 -0.0501 0.0368 -0.0454 0.0369 -0.0404 0.0318 -0.0376 0.031 -0.0303 0.0299 -0.0274 0.021 -0.0191 0.0193 -0.0162 0.0147 -0.0098 0.0094 -0.0069 0.0066 0.004 -0.0043 -0.8828 -0.8784 0.0104 -0.0104 0.0115 -0.0112 0.0199 -0.0195 0.0257 -0.0242 0.0339 -0.029 0.037 -0.0356 0.0447 -0.0349 0.0477 -0.0407 0.0547 -0.0465 0.06 -0.0464 0.0648 -0.0515 0.0721 -0.0511 0.0738 -0.0552 0.0808 -0.0559 0.0848 -0.0547 0.0916 -0.0575 0.0952 -0.0574 0.0991 -0.0571 0.103 -0.0563 0.1087 -0.0553 0.1144 -0.0536 0.1178 -0.0519 0.1209 -0.0492 0.1261 -0.0468 0.1287 -0.0438 0.134 -0.0378 0.1365 -0.0364 0.1439 -0.0297 0.1436 -0.0249 0.1479 -0.0177 0.1523 -0.0123 0.1564 -0.0039zm4.7949 4.8129l-1.2445 0 0 0 -0.0087 -0.3139 -0.0221 -0.2927 -0.0349 -0.2718 -0.0486 -0.2535 -0.0573 -0.2341 -0.0669 -0.2146 -0.0767 -0.2007 -0.0852 -0.1851 -0.0928 -0.1695 -0.0997 -0.155 -0.106 -0.143 -0.1111 -0.1317 -0.1162 -0.1213 -0.1221 -0.1108 -0.1251 -0.1015 -0.1326 -0.0919 -0.1363 -0.0837 -0.1393 -0.0777 -0.142 -0.0679 -0.1456 -0.0632 -0.1463 -0.0519 -0.1493 -0.0482 -0.148 -0.043 -0.1491 -0.0329 -0.1469 -0.0311 -0.1458 -0.0225 -0.1422 -0.0189 -0.1398 -0.0162 -0.1367 -0.0089 -0.128 -0.0073 -0.1236 -0.0037 -0.1203 -0.0004 -0.0052 -1.2443 0.1403 0.0004 0.1527 0.0036 0.162 0.0074 0.166 0.0139 0.1741 0.0162 0.1812 0.0239 0.1847 0.0322 0.1909 0.036 0.1928 0.0476 0.197 0.0527 0.198 0.0628 0.2002 0.0762 0.1995 0.0829 0.1999 0.0972 0.1981 0.107 0.1949 0.1226 0.191 0.1359 0.1888 0.15 0.1807 0.1645 0.1746 0.1798 0.1647 0.1954 0.155 0.2113 0.1436 0.2282 0.1317 0.2428 0.1194 0.2579 0.1056 0.274 0.092 0.2929 0.0763 0.3069 0.0588 0.3222 0.0444 0.3401 0.027 0.3559 0.009 0.3725zm-3.6162 4.1389l-1.2443 0 0.6563 -0.6222 -0.0042 0.0004 0.0181 0.0009 0.037 0.0002 0.0538 -0.0011 0.0652 -0.0033 0.0819 -0.0066 0.0906 -0.0079 0.102 -0.0129 0.1107 -0.0189 0.1199 -0.0227 0.1251 -0.028 0.1323 -0.0364 0.1346 -0.0457 0.1363 -0.0507 0.139 -0.0619 0.1376 -0.0688 0.1383 -0.0818 0.134 -0.0902 0.1334 -0.0999 0.13 -0.1128 0.1241 -0.1264 0.1178 -0.1414 0.1145 -0.1567 0.1078 -0.1707 0.0993 -0.1929 0.0924 -0.2112 0.0813 -0.2325 0.069 -0.2549 0.0583 -0.2803 0.0432 -0.3046 0.027 -0.3343 0.0094 -0.3627 1.2445 0 -0.0094 0.4259 -0.0322 0.403 -0.0526 0.3825 -0.0731 0.3586 -0.0935 0.3378 -0.1109 0.3154 -0.1263 0.294 -0.1432 0.2709 -0.1568 0.2535 -0.1681 0.23 -0.1808 0.2096 -0.188 0.1901 -0.1932 0.1714 -0.1972 0.1535 -0.2021 0.1342 -0.2013 0.1157 -0.2015 0.1031 -0.1974 0.0862 -0.1947 0.075 -0.1888 0.0603 -0.1806 0.0511 -0.1739 0.0426 -0.1641 0.0328 -0.1543 0.0235 -0.1413 0.018 -0.1295 0.0129 -0.1115 0.0065 -0.0991 0.0033 -0.0783 0.0012 -0.0613 -0.0002 -0.0424 -0.001 -0.0249 -0.0004 0.6561 -0.6221zm-0.588 -0.6222l-0.0681 1.2443 -0.0322 -0.0025 -0.0314 -0.0042 -0.0306 -0.0056 -0.0305 -0.0071 -0.0299 -0.0087 -0.0291 -0.0098 -0.0281 -0.0114 -0.0278 -0.0127 -0.0268 -0.0141 -0.026 -0.0153 -0.0253 -0.0163 -0.0245 -0.0176 -0.0233 -0.0187 -0.0224 -0.0197 -0.0214 -0.0208 -0.0206 -0.0218 -0.0195 -0.0227 -0.0181 -0.0237 -0.0172 -0.0245 -0.0162 -0.0253 -0.0148 -0.0262 -0.0135 -0.0268 -0.0123 -0.0276 -0.0108 -0.0283 -0.0097 -0.0289 -0.0081 -0.0293 -0.0067 -0.0301 -0.0056 -0.0305 -0.0037 -0.031 -0.0023 -0.0312 -0.0008 -0.0319 0.001 -0.032 0.0025 -0.032 0.0043 -0.0314 0.0057 -0.0308 0.0072 -0.0305 0.0085 -0.0297 0.01 -0.0291 0.0114 -0.0283 0.0125 -0.0276 0.0143 -0.0268 0.0152 -0.0262 0.0164 -0.0251 0.0175 -0.0245 0.0187 -0.0233 0.0197 -0.0226 0.0206 -0.0214 0.0218 -0.0206 0.023 -0.0193 0.0235 -0.0183 0.0245 -0.0172 0.0254 -0.016 0.026 -0.0148 0.0268 -0.0137 0.0278 -0.0121 0.0281 -0.011 0.0292 -0.0097 0.0291 -0.0081 0.0302 -0.0067 0.0305 -0.0054 0.031 -0.0039 0.0311 -0.0021 0.032 -0.0008 0.0318 0.001zm-0.0253 5.3348l0 -1.2443 -0.6219 0.6221 -0.0002 -0.1218 -0.0006 -0.123 -0.0002 -0.1242 -0.0002 -0.1251 -0.0002 -0.1261 -0.0006 -0.1269 -0.0001 -0.1276 -0.0002 -0.1282 -0.0002 -0.129 -0.0006 -0.1296 -0.0002 -0.1297 -0.0002 -0.1303 -0.0002 -0.1308 -0.0002 -0.1309 -0.0006 -0.1309 -0.0002 -0.1311 0 -0.1311 -0.0003 -0.1309 -0.0004 -0.1309 -0.0004 -0.1307 0 -0.1304 -0.0002 -0.1297 -0.0006 -0.1296 -0.0002 -0.129 -0.0002 -0.1282 -0.0002 -0.1276 -0.0005 -0.1269 -0.0002 -0.1261 -0.0002 -0.1251 -0.0002 -0.1242 -0.0006 -0.123 -0.0002 -0.1218 1.2443 0 0.0004 0.1218 0.0004 0.123 0 0.1242 0.0004 0.1251 0.0004 0.1261 0.0004 0.1269 0 0.1276 0.0004 0.1282 0.0003 0.129 0.0004 0.1296 0 0.1297 0.0002 0.1304 0.0006 0.1307 0.0002 0.1309 0.0002 0.1309 0.0002 0.1311 0.0002 0.1311 0.0006 0.1309 0.0001 0.1309 0.0002 0.1308 0.0002 0.1303 0.0004 0.1297 0.0004 0.1296 0 0.129 0.0004 0.1282 0.0004 0.1276 0.0004 0.1269 0 0.1261 0.0003 0.1251 0.0004 0.1242 0.0004 0.123 0 0.1218 -0.6222 0.6222zm-0.6219 -0.6222l1.2441 0 -0.0008 0.032 -0.0025 0.0317 -0.0036 0.031 -0.0058 0.0307 -0.0069 0.03 -0.0083 0.0297 -0.0097 0.0288 -0.0114 0.0283 -0.0123 0.0276 -0.0137 0.0268 -0.0148 0.026 -0.0162 0.0253 -0.0176 0.0244 -0.0185 0.0236 -0.0194 0.0225 -0.0205 0.0216 -0.0218 0.0206 -0.0223 0.0195 -0.0236 0.0185 -0.0244 0.0174 -0.0255 0.0162 -0.0258 0.0148 -0.0268 0.0139 -0.0278 0.0123 -0.0281 0.0112 -0.029 0.0099 -0.0295 0.0082 -0.03 0.007 -0.0307 0.0056 -0.0312 0.0038 -0.0315 0.0025 -0.0322 0.0008 -0.0318 -0.0008 -0.0316 -0.0025 -0.0312 -0.0038 -0.0305 -0.0056 -0.0302 -0.007 -0.0295 -0.0082 -0.029 -0.0099 -0.0281 -0.0112 -0.0278 -0.0123 -0.0268 -0.0139 -0.0258 -0.0148 -0.0255 -0.0162 -0.0245 -0.0174 -0.0233 -0.0185 -0.0225 -0.0195 -0.0218 -0.0206 -0.0207 -0.0216 -0.0192 -0.0225 -0.0185 -0.0236 -0.0174 -0.0244 -0.0164 -0.0253 -0.0148 -0.026 -0.0139 -0.0268 -0.0122 -0.0276 -0.0113 -0.0283 -0.0097 -0.0288 -0.0083 -0.0297 -0.0069 -0.03 -0.0056 -0.0307 -0.0039 -0.031 -0.0025 -0.0317 -0.0007 -0.032z"/>
   <path id="_109221056" class="fil2" d="M32.5297 23.4015l-1.2245 0.2341 -0.0052 -0.0317 -0.0038 -0.0316 -0.0018 -0.0314 -0.0005 -0.031 0.0011 -0.0311 0.0029 -0.0306 0.0041 -0.0303 0.0056 -0.0299 0.0071 -0.0295 0.0087 -0.0289 0.0098 -0.0286 0.0112 -0.0277 0.0123 -0.0274 0.0137 -0.0266 0.0152 -0.0258 0.0162 -0.0253 0.0174 -0.0243 0.0185 -0.0235 0.0195 -0.0226 0.0208 -0.0216 0.022 -0.0208 0.0225 -0.0195 0.0239 -0.0187 0.0249 -0.0173 0.0256 -0.0164 0.0267 -0.015 0.0275 -0.0137 0.0284 -0.0126 0.0291 -0.0111 0.0299 -0.0099 0.0306 -0.0083 0.0314 -0.0067 0.0317 -0.0052 0.0314 -0.0037 0.0316 -0.0019 0.0311 -0.0004 0.0308 0.0012 0.0307 0.0027 0.0302 0.0042 0.0299 0.0056 0.0295 0.0071 0.0289 0.0085 0.0288 0.0098 0.0275 0.0112 0.0276 0.0126 0.0266 0.0137 0.0258 0.015 0.0253 0.0162 0.0241 0.0173 0.0237 0.0185 0.0226 0.0197 0.0214 0.0208 0.0208 0.0218 0.0195 0.0228 0.0187 0.0239 0.0175 0.0249 0.0162 0.0256 0.0152 0.0266 0.0137 0.0274 0.0124 0.0283 0.0113 0.0291 0.0097 0.0299 0.0085 0.0307 0.0065 0.0314zm-1.0166 2.7615l-0.6245 -1.0782 0 0 0.0517 -0.0329 0.0418 -0.0305 0.0422 -0.0355 0.0353 -0.0391 0.0343 -0.0407 0.0326 -0.0414 0.0291 -0.0494 0.0286 -0.049 0.0231 -0.0534 0.0233 -0.0549 0.0208 -0.0582 0.0187 -0.0614 0.0151 -0.0638 0.0133 -0.0636 0.01 -0.065 0.0091 -0.0665 0.006 -0.0621 0.0057 -0.0673 0.0037 -0.062 0.0014 -0.0594 -0.0004 -0.0631 -0.002 -0.0541 -0.003 -0.0523 -0.0041 -0.0472 -0.0021 -0.0446 -0.0048 -0.0385 -0.0049 -0.0326 -0.0021 -0.0258 -0.0044 -0.0211 -0.001 -0.0136 0.0004 -0.0031 -0.0008 0.0029 1.2245 -0.2341 0.001 0.0118 0.0046 0.0223 0.0058 0.0284 0.0042 0.0356 0.0072 0.0455 0.005 0.0519 0.0046 0.0582 0.0071 0.0642 0.0043 0.0716 0.0029 0.0765 0.0019 0.0835 0.0002 0.0827 -0.0012 0.0933 -0.0036 0.0964 -0.0058 0.0966 -0.0112 0.106 -0.0141 0.1055 -0.0192 0.1089 -0.0232 0.1123 -0.0295 0.1127 -0.0335 0.1149 -0.0407 0.1169 -0.0474 0.1182 -0.0575 0.117 -0.0627 0.1172 -0.0728 0.1126 -0.0816 0.1147 -0.0923 0.109 -0.1042 0.1027 -0.1102 0.0988 -0.1248 0.094 -0.1299 0.0816zm-1.8602 0.0208l-1.2489 0 0.6343 -0.6222 -0.0019 0 0.0053 -0.0021 0.0116 0.0021 0.0199 -0.0001 0.0208 -0.0006 0.0291 -0.001 0.0318 -0.0015 0.0372 -0.0023 0.0419 -0.0031 0.0466 -0.0039 0.0507 -0.0025 0.0554 -0.0062 0.0588 -0.0073 0.0605 -0.0062 0.0638 -0.01 0.0692 -0.0096 0.0698 -0.0133 0.0727 -0.0129 0.0727 -0.0147 0.0775 -0.017 0.0768 -0.0189 0.0782 -0.0189 0.0804 -0.0237 0.0814 -0.0237 0.0798 -0.0287 0.0806 -0.0268 0.0837 -0.032 0.0792 -0.0349 0.0816 -0.0357 0.0788 -0.0387 0.081 -0.0396 0.0754 -0.043 0.6245 1.0782 -0.1145 0.0627 -0.1099 0.0591 -0.1132 0.0534 -0.1109 0.0504 -0.1135 0.0445 -0.1078 0.0417 -0.1099 0.0414 -0.1093 0.0337 -0.1059 0.0334 -0.1043 0.0287 -0.1029 0.0286 -0.1015 0.0239 -0.0967 0.0216 -0.0972 0.0196 -0.092 0.018 -0.0894 0.0133 -0.0841 0.0142 -0.0831 0.0101 -0.0798 0.0111 -0.0739 0.0074 -0.0698 0.0061 -0.0655 0.0076 -0.0611 0.0038 -0.0567 0.0031 -0.0517 0.0023 -0.0464 0.0016 -0.0388 0.0009 -0.0357 0.0006 -0.0246 0.0002 -0.0213 0.0025 -0.0148 -0.0025 -0.0083 0 0.6343 -0.6222zm-1.2489 0l0 -0.6343 0.6343 0.0121 -0.6343 0.6222zm0 2.6204l0 -2.6204 1.2489 0 0 2.6204 -1.2489 0zm0 0l1.2489 0 -0.0009 0.0322 -0.0025 0.0316 -0.0037 0.0312 -0.0056 0.0309 -0.0071 0.0301 -0.0083 0.0296 -0.01 0.029 -0.011 0.0283 -0.0126 0.0278 -0.0138 0.027 -0.0151 0.026 -0.0162 0.0254 -0.0175 0.0245 -0.0183 0.0235 -0.0197 0.0226 -0.0206 0.0218 -0.022 0.0206 -0.0224 0.0197 -0.0235 0.0185 -0.0245 0.0175 -0.0254 0.0162 -0.0261 0.0151 -0.0272 0.0137 -0.0275 0.0125 -0.0286 0.0112 -0.0287 0.0098 -0.0299 0.0085 -0.03 0.0069 -0.0307 0.0056 -0.0314 0.0039 -0.0315 0.0025 -0.0323 0.0008 -0.0321 -0.0008 -0.0316 -0.0025 -0.0312 -0.0039 -0.031 -0.0056 -0.0299 -0.0069 -0.0299 -0.0085 -0.0289 -0.0098 -0.0282 -0.0112 -0.0279 -0.0125 -0.027 -0.0137 -0.0259 -0.0151 -0.0254 -0.0162 -0.0245 -0.0175 -0.0235 -0.0185 -0.0228 -0.0197 -0.0216 -0.0206 -0.0206 -0.0218 -0.0199 -0.0226 -0.0185 -0.0235 -0.0175 -0.0245 -0.0162 -0.0254 -0.015 -0.026 -0.0135 -0.027 -0.0126 -0.0278 -0.0113 -0.0283 -0.0097 -0.029 -0.0085 -0.0296 -0.0069 -0.0301 -0.0056 -0.0309 -0.0039 -0.0312 -0.0027 -0.0316 -0.0005 -0.0322z"/>
   <path id="_109221368" class="fil3" d="M15.1703 14.1468c5.9122,-5.9124 15.4983,-5.9124 21.4106,0 5.9122,5.9123 5.9122,15.4984 0,21.4106 -5.9123,5.9125 -15.4984,5.9125 -21.4106,0 -5.9127,-5.9122 -5.9127,-15.4983 0,-21.4106zm2.2259 2.2259c4.6829,-4.6831 12.2756,-4.6831 16.9588,0 4.6829,4.683 4.6829,12.2757 0,16.9588 -4.6832,4.6832 -12.2759,4.6832 -16.9588,0 -4.6832,-4.6831 -4.6832,-12.2758 0,-16.9588z"/>
   <path id="_109220864" class="fil3" d="M37.0534 36.0304l0.0002 0c0.6926,-0.6924 1.8249,-0.6924 2.5172,0l2.915 2.9147c0.6923,0.6924 0.6925,1.8249 0,2.5173l0 0.0002c-0.6924,0.6921 -1.8251,0.6921 -2.5174,0l-2.915 -2.915c-0.6921,-0.6922 -0.6921,-1.8249 0,-2.5172z"/>
  </g>
  <path class="fil2" d="M50.9906 28.4164l0 -15.3893 2.0388 0 0 6.3205 7.9974 0 0 -6.3205 2.0388 0 0 15.3893 -2.0388 0 0 -7.2521 -7.9974 0 0 7.2521 -2.0388 0zm14.5187 -5.5752c0,-2.0639 0.5732,-3.5939 1.7234,-4.5864 0.9568,-0.8241 2.1248,-1.2398 3.5042,-1.2398 1.5336,0 2.7877,0.5017 3.7587,1.5086 0.9747,1.0033 1.4584,2.3899 1.4584,4.16 0,1.4367 -0.215,2.5654 -0.645,3.3859 -0.4299,0.8241 -1.057,1.462 -1.8775,1.9169 -0.8241,0.4552 -1.7199,0.6809 -2.6946,0.6809 -1.5585,0 -2.8198,-0.4981 -3.7836,-1.5014 -0.9639,-0.9997 -1.444,-2.4401 -1.444,-4.3247zm1.942 0c0,1.4296 0.3118,2.4973 0.9352,3.2068 0.6234,0.713 1.4082,1.0678 2.3504,1.0678 0.9388,0 1.7199,-0.3584 2.3434,-1.0714 0.6199,-0.713 0.9316,-1.8023 0.9316,-3.2641 0,-1.3796 -0.3117,-2.4258 -0.9388,-3.1353 -0.6269,-0.7094 -1.4045,-1.0641 -2.3362,-1.0641 -0.9422,0 -1.727,0.3547 -2.3504,1.0606 -0.6234,0.7059 -0.9352,1.7736 -0.9352,3.1997zm14.8447 3.8841l0.2723 1.6696c-0.5303,0.1111 -1.0068,0.1685 -1.426,0.1685 -0.688,0 -1.2183,-0.1075 -1.5982,-0.3261 -0.3762,-0.215 -0.6413,-0.5016 -0.7954,-0.8564 -0.154,-0.3511 -0.2328,-1.0964 -0.2328,-2.2287l0 -6.4137 -1.3867 0 0 -1.469 1.3867 0 0 -2.7626 1.8811 -1.1323 0 3.8949 1.899 0 0 1.469 -1.899 0 0 6.5176c0,0.5411 0.0322,0.885 0.0967,1.0392 0.068,0.154 0.1755,0.2758 0.3261,0.369 0.1504,0.0896 0.3654,0.1362 0.645,0.1362 0.2113,0 0.4872,-0.0251 0.8312,-0.0752zm9.4773 -1.8991l1.9528 0.2401c-0.3082,1.143 -0.878,2.028 -1.7093,2.6586 -0.8347,0.6271 -1.899,0.9424 -3.1924,0.9424 -1.6303,0 -2.9238,-0.5017 -3.8769,-1.505 -0.9567,-1.0032 -1.4333,-2.4114 -1.4333,-4.2244 0,-1.8775 0.4837,-3.3322 1.4476,-4.3678 0.9674,-1.0355 2.2179,-1.5551 3.7587,-1.5551 1.4905,0 2.7087,0.5088 3.6511,1.5228 0.946,1.0141 1.4189,2.4437 1.4189,4.2818 0,0.1147 -0.0036,0.2831 -0.0107,0.5053l-8.3128 0c0.0681,1.2254 0.4157,2.1642 1.0391,2.8127 0.6235,0.6521 1.3974,0.9782 2.329,0.9782 0.6916,0 1.2827,-0.1827 1.7736,-0.5483 0.4909,-0.3618 0.8779,-0.9422 1.1646,-1.7413zm-6.2024 -3.0563l6.2239 0c-0.0825,-0.9352 -0.3225,-1.6411 -0.7131,-2.107 -0.6019,-0.7273 -1.3831,-1.0928 -2.3397,-1.0928 -0.8672,0 -1.5982,0.2902 -2.1893,0.8708 -0.5912,0.5804 -0.9173,1.3579 -0.9818,2.329zm10.4876 6.6465l0 -15.3893 1.8884 0 0 15.3893 -1.8884 0zm4.0203 -4.3677l1.8382 -0.2508c0.0465,1.1752 0.2687,1.9814 0.6592,2.415 0.3941,0.4335 0.9352,0.6484 1.6267,0.6484 0.5124,0 0.9532,-0.1146 1.3222,-0.351 0.3727,-0.233 0.627,-0.5519 0.7668,-0.9532 0.1397,-0.4049 0.2114,-1.0462 0.2114,-1.9277l0 -10.6023 2.0351 0 0 10.4877c0,1.2864 -0.154,2.286 -0.4657,2.9919 -0.3118,0.7058 -0.8062,1.2433 -1.4798,1.6159 -0.6773,0.3691 -1.4691,0.5554 -2.3792,0.5554 -1.3509,0 -2.3827,-0.387 -3.1029,-1.1645 -0.7166,-0.7775 -1.0607,-1.9313 -1.032,-3.4648zm10.8424 -1.2075c0,-2.0639 0.5733,-3.5939 1.7235,-4.5864 0.9567,-0.8241 2.1248,-1.2398 3.5042,-1.2398 1.5336,0 2.7877,0.5017 3.7587,1.5086 0.9746,1.0033 1.4583,2.3899 1.4583,4.16 0,1.4367 -0.215,2.5654 -0.645,3.3859 -0.4299,0.8241 -1.0569,1.462 -1.8775,1.9169 -0.8241,0.4552 -1.7198,0.6809 -2.6945,0.6809 -1.5586,0 -2.8199,-0.4981 -3.7837,-1.5014 -0.9639,-0.9997 -1.444,-2.4401 -1.444,-4.3247zm1.9421 0c0,1.4296 0.3117,2.4973 0.9352,3.2068 0.6234,0.713 1.4081,1.0678 2.3504,1.0678 0.9388,0 1.7199,-0.3584 2.3433,-1.0714 0.6199,-0.713 0.9317,-1.8023 0.9317,-3.2641 0,-1.3796 -0.3118,-2.4258 -0.9388,-3.1353 -0.627,-0.7094 -1.4046,-1.0641 -2.3362,-1.0641 -0.9423,0 -1.727,0.3547 -2.3504,1.0606 -0.6235,0.7059 -0.9352,1.7736 -0.9352,3.1997zm12.4619 5.5752l-1.7521 0 0 -15.3893 1.8882 0 0 5.4893c0.7991,-0.9997 1.8167,-1.5014 3.0528,-1.5014 0.688,0 1.3365,0.1398 1.9492,0.4157 0.6127,0.276 1.1144,0.6665 1.5121,1.1645 0.3941,0.5017 0.7058,1.1036 0.928,1.8131 0.2258,0.7058 0.3369,1.4619 0.3369,2.2645 0,1.9134 -0.4731,3.3895 -1.4189,4.4322 -0.9424,1.0428 -2.0783,1.5623 -3.4004,1.5623 -1.315,0 -2.347,-0.5482 -3.0958,-1.6482l0 1.3973zm-0.0215 -5.6576c0,1.3365 0.1827,2.3003 0.5447,2.8951 0.5947,0.9746 1.4009,1.4619 2.4149,1.4619 0.8278,0 1.5408,-0.3584 2.1427,-1.0786 0.602,-0.7165 0.903,-1.7843 0.903,-3.2068 0,-1.4548 -0.2902,-2.5296 -0.8672,-3.2212 -0.5768,-0.6915 -1.2755,-1.0391 -2.0925,-1.0391 -0.8277,0 -1.5407,0.3584 -2.1427,1.0749 -0.6019,0.7166 -0.9029,1.7557 -0.9029,3.1138zm11.9783 5.6576l-1.7522 0 0 -15.3893 1.8882 0 0 5.4893c0.7992,-0.9997 1.8168,-1.5014 3.0528,-1.5014 0.6881,0 1.3366,0.1398 1.9493,0.4157 0.6127,0.276 1.1143,0.6665 1.512,1.1645 0.3941,0.5017 0.7059,1.1036 0.928,1.8131 0.2258,0.7058 0.3369,1.4619 0.3369,2.2645 0,1.9134 -0.473,3.3895 -1.4189,4.4322 -0.9424,1.0428 -2.0782,1.5623 -3.4004,1.5623 -1.315,0 -2.3469,-0.5482 -3.0957,-1.6482l0 1.3973zm-0.0216 -5.6576c0,1.3365 0.1828,2.3003 0.5447,2.8951 0.5948,0.9746 1.401,1.4619 2.415,1.4619 0.8277,0 1.5407,-0.3584 2.1427,-1.0786 0.6019,-0.7165 0.9029,-1.7843 0.9029,-3.2068 0,-1.4548 -0.2902,-2.5296 -0.8672,-3.2212 -0.5768,-0.6915 -1.2755,-1.0391 -2.0924,-1.0391 -0.8277,0 -1.5408,0.3584 -2.1427,1.0749 -0.602,0.7166 -0.903,1.7557 -0.903,3.1138zm17.8653 2.0674l1.9528 0.2401c-0.3081,1.143 -0.8779,2.028 -1.7092,2.6586 -0.8348,0.6271 -1.899,0.9424 -3.1925,0.9424 -1.6303,0 -2.9238,-0.5017 -3.8769,-1.505 -0.9566,-1.0032 -1.4332,-2.4114 -1.4332,-4.2244 0,-1.8775 0.4836,-3.3322 1.4475,-4.3678 0.9674,-1.0355 2.218,-1.5551 3.7587,-1.5551 1.4905,0 2.7088,0.5088 3.6512,1.5228 0.9459,1.0141 1.4189,2.4437 1.4189,4.2818 0,0.1147 -0.0036,0.2831 -0.0108,0.5053l-8.3127 0c0.068,1.2254 0.4156,2.1642 1.0391,2.8127 0.6235,0.6521 1.3974,0.9782 2.329,0.9782 0.6915,0 1.2827,-0.1827 1.7736,-0.5483 0.4908,-0.3618 0.8779,-0.9422 1.1645,-1.7413zm-6.2023 -3.0563l6.2238 0c-0.0825,-0.9352 -0.3225,-1.6411 -0.713,-2.107 -0.602,-0.7273 -1.3831,-1.0928 -2.3398,-1.0928 -0.8671,0 -1.5981,0.2902 -2.1893,0.8708 -0.5912,0.5804 -0.9173,1.3579 -0.9817,2.329zm10.5091 6.6465l0 -11.1469 1.6984 0 0 1.6876c0.4335,-0.7883 0.8348,-1.3114 1.204,-1.5622 0.3654,-0.2508 0.7703,-0.3799 1.2111,-0.3799 0.6377,0 1.2827,0.2043 1.942,0.6092l-0.6522 1.7557c-0.4587,-0.2759 -0.9208,-0.4121 -1.383,-0.4121 -0.4156,0 -0.7848,0.1255 -1.1143,0.3726 -0.3297,0.2509 -0.5626,0.5949 -0.7024,1.0356 -0.2113,0.6701 -0.3152,1.4045 -0.3152,2.2037l0 5.8367 -1.8884 0z"/>
  <path class="fil2" d="M61.3738 40.6492l-0.6207 0 0 -7.4591 0.6207 0 0 7.4591zm2.1768 -5.5427l0.0508 0.9162c0.1468,-0.3235 0.3427,-0.5752 0.5874,-0.7536 0.2431,-0.1766 0.5298,-0.2658 0.8568,-0.2658 0.4965,0 0.8759,0.1836 1.14,0.5508 0.2657,0.3672 0.3969,0.9389 0.3969,1.7135l0 3.3816 -0.619 0 0 -3.3763c0,-0.6331 -0.0926,-1.0771 -0.2762,-1.3324 -0.1853,-0.2571 -0.4529,-0.3847 -0.8043,-0.3847 -0.3148,0 -0.577,0.1032 -0.7903,0.3095 -0.2116,0.2063 -0.369,0.4826 -0.4756,0.8288l0 3.9551 -0.6155 0 0 -5.5427 0.549 0zm4.2156 2.822c0,-0.8882 0.1557,-1.5964 0.4668,-2.1279 0.3113,-0.5315 0.7467,-0.7973 1.3062,-0.7973 0.3043,0 0.57,0.0717 0.7956,0.215 0.2272,0.1434 0.4179,0.3462 0.5717,0.6102l0 -3.1699 0.6155 0 0 7.9906 -0.5438 0 -0.0507 -0.7169c-0.1538,0.2675 -0.3462,0.4703 -0.5787,0.612 -0.2326,0.1416 -0.5036,0.2132 -0.8148,0.2132 -0.5526,0 -0.9862,-0.2465 -1.2991,-0.7395 -0.3113,-0.4948 -0.4687,-1.154 -0.4687,-1.9811l0 -0.1084zm0.626 0.1084c0,0.6662 0.1049,1.196 0.3148,1.5859 0.2097,0.3917 0.5297,0.5874 0.9598,0.5874 0.3008,0 0.5525,-0.0821 0.7554,-0.2465 0.2028,-0.1643 0.3654,-0.3916 0.4843,-0.6871l0 -2.7153c-0.1118,-0.2973 -0.2692,-0.5404 -0.4703,-0.7257 -0.2028,-0.1871 -0.4546,-0.2798 -0.7588,-0.2798 -0.4337,0 -0.7572,0.2186 -0.9687,0.6557 -0.2116,0.4371 -0.3165,1.0106 -0.3165,1.717l0 0.1084zm5.2193 2.6123l-0.619 0 0 -5.5427 0.619 0 0 5.5427zm0 -7.1199l-0.619 0 0 -0.8707 0.619 0 0 0.8707zm4.3344 7.1199c-0.0314,-0.1906 -0.0541,-0.348 -0.0699,-0.4704 -0.014,-0.1241 -0.0227,-0.2482 -0.0227,-0.3742 -0.168,0.2763 -0.3847,0.5053 -0.6522,0.6837 -0.2693,0.1801 -0.5665,0.2692 -0.8953,0.2692 -0.4563,0 -0.8096,-0.1433 -1.0596,-0.4283 -0.25,-0.285 -0.3741,-0.6697 -0.3741,-1.1558 0,-0.5157 0.1819,-0.9266 0.5438,-1.2326 0.3619,-0.3061 0.8514,-0.4581 1.4687,-0.4581l0.9687 0 0 -0.682c0,-0.3916 -0.098,-0.6993 -0.2973,-0.9214 -0.1976,-0.2221 -0.4738,-0.3322 -0.8288,-0.3322 -0.3322,0 -0.605,0.1067 -0.8182,0.3182 -0.2134,0.2116 -0.32,0.4703 -0.32,0.7781l-0.5735 -0.0053 -0.0106 -0.0314c-0.0156,-0.4162 0.1417,-0.7886 0.4739,-1.1138 0.334,-0.327 0.7588,-0.4896 1.2782,-0.4896 0.5123,0 0.9266,0.1556 1.2397,0.4686 0.3146,0.313 0.472,0.7588 0.472,1.3394l0 2.7206c0,0.1993 0.0087,0.3899 0.0245,0.5735 0.0175,0.1853 0.049,0.3654 0.0927,0.5438l-0.64 0zm-1.5631 -0.4442c0.3427,0 0.6452,-0.0979 0.9092,-0.2954 0.2657,-0.1959 0.4528,-0.4459 0.5613,-0.7518l0 -1.1996 -0.9827 0c-0.4214,0 -0.7553,0.1189 -1.0071,0.3567 -0.2518,0.2379 -0.376,0.5316 -0.376,0.8795 0,0.2973 0.0787,0.5403 0.2344,0.7291 0.1573,0.1871 0.3776,0.2815 0.6609,0.2815zm4.088 -6.6249l-0.5421 1.5841 -0.3392 0 0.2622 -1.5685 0 -0.9371 0.6191 0 0 0.9215zm3.7802 5.742c0,-0.2518 -0.0821,-0.4704 -0.2483,-0.6523 -0.1661,-0.1836 -0.4686,-0.3758 -0.9091,-0.5769 -0.5631,-0.2325 -0.9758,-0.4686 -1.238,-0.7099 -0.2605,-0.2396 -0.3917,-0.556 -0.3917,-0.9441 0,-0.397 0.1557,-0.7345 0.4668,-1.016 0.3096,-0.2797 0.7134,-0.4196 1.2083,-0.4196 0.5263,0 0.9424,0.1556 1.2501,0.4669 0.3078,0.3112 0.4547,0.6976 0.4406,1.1627l-0.0104 0.0315 -0.5788 0c0,-0.3007 -0.0997,-0.563 -0.2973,-0.7851 -0.1975,-0.2221 -0.4668,-0.3322 -0.8042,-0.3322 -0.3445,0 -0.6085,0.0874 -0.7886,0.2605 -0.1818,0.1749 -0.271,0.3777 -0.271,0.6102 0,0.2466 0.0717,0.4424 0.215,0.5911 0.1434,0.1485 0.4511,0.3356 0.9215,0.5612 0.5525,0.222 0.9669,0.4633 1.2397,0.7256 0.2727,0.2605 0.4091,0.591 0.4091,0.9914 0,0.4406 -0.1574,0.7955 -0.4738,1.0648 -0.3147,0.2711 -0.7327,0.4056 -1.2519,0.4056 -0.57,0 -1.0159,-0.1608 -1.3393,-0.4843 -0.3235,-0.3234 -0.4757,-0.7063 -0.4582,-1.1504l0.0106 -0.0316 0.5734 0c0.021,0.397 0.1486,0.6855 0.3847,0.8638 0.2343,0.1801 0.5105,0.2693 0.8288,0.2693 0.3444,0 0.6172,-0.0874 0.8148,-0.2606 0.1976,-0.1748 0.2972,-0.3881 0.2972,-0.6416zm4.6702 1.3271l-0.619 0 0 -7.9906 0.619 0 0 7.9906zm3.2434 0.1083c-0.598,0 -1.0858,-0.2238 -1.4652,-0.6731 -0.3794,-0.4494 -0.5683,-1.0228 -0.5683,-1.7206l0 -0.9214c0,-0.7011 0.1907,-1.2816 0.57,-1.7449 0.3812,-0.4634 0.8393,-0.6942 1.3761,-0.6942 0.5805,0 1.0316,0.2081 1.3533,0.6224 0.32,0.4162 0.4809,0.9739 0.4809,1.6734l0 0.6102 -3.1718 0 0 0.4563c0,0.5316 0.1294,0.9757 0.3846,1.3289 0.2571,0.3531 0.6033,0.5298 1.0404,0.5298 0.3042,0 0.5665,-0.0525 0.7868,-0.1592 0.2203,-0.1049 0.4091,-0.2552 0.5648,-0.451l0.2517 0.4371c-0.1678,0.215 -0.3828,0.3864 -0.6487,0.514 -0.264,0.1276 -0.5821,0.1923 -0.9546,0.1923zm-0.0874 -5.2104c-0.3864,0 -0.703,0.1766 -0.9495,0.5281 -0.2482,0.3514 -0.3776,0.785 -0.3881,1.3008l2.5563 0 0 -0.2361c0,-0.4581 -0.1067,-0.8374 -0.3218,-1.1399 -0.215,-0.3025 -0.514,-0.4529 -0.8969,-0.4529zm5.7892 5.1021c-0.0315,-0.1906 -0.0542,-0.348 -0.0699,-0.4704 -0.0141,-0.1241 -0.0228,-0.2482 -0.0228,-0.3742 -0.1679,0.2763 -0.3846,0.5053 -0.6521,0.6837 -0.2694,0.1801 -0.5665,0.2692 -0.8953,0.2692 -0.4563,0 -0.8096,-0.1433 -1.0596,-0.4283 -0.25,-0.285 -0.3741,-0.6697 -0.3741,-1.1558 0,-0.5157 0.1818,-0.9266 0.5438,-1.2326 0.3618,-0.3061 0.8514,-0.4581 1.4687,-0.4581l0.9686 0 0 -0.682c0,-0.3916 -0.0979,-0.6993 -0.2972,-0.9214 -0.1976,-0.2221 -0.4738,-0.3322 -0.8288,-0.3322 -0.3322,0 -0.605,0.1067 -0.8183,0.3182 -0.2134,0.2116 -0.32,0.4703 -0.32,0.7781l-0.5735 -0.0053 -0.0105 -0.0314c-0.0156,-0.4162 0.1416,-0.7886 0.4739,-1.1138 0.3339,-0.327 0.7588,-0.4896 1.2782,-0.4896 0.5122,0 0.9266,0.1556 1.2396,0.4686 0.3147,0.313 0.4721,0.7588 0.4721,1.3394l0 2.7206c0,0.1993 0.0087,0.3899 0.0244,0.5735 0.0175,0.1853 0.0491,0.3654 0.0927,0.5438l-0.6399 0zm-1.5632 -0.4442c0.3427,0 0.6452,-0.0979 0.9092,-0.2954 0.2658,-0.1959 0.4529,-0.4459 0.5613,-0.7518l0 -1.1996 -0.9827 0c-0.4214,0 -0.7553,0.1189 -1.007,0.3567 -0.2519,0.2379 -0.376,0.5316 -0.376,0.8795 0,0.2973 0.0787,0.5403 0.2344,0.7291 0.1572,0.1871 0.3776,0.2815 0.6608,0.2815zm3.2889 -2.2765c0,-0.8882 0.1556,-1.5964 0.4668,-2.1279 0.3113,-0.5315 0.7467,-0.7973 1.3062,-0.7973 0.3043,0 0.57,0.0717 0.7956,0.215 0.2272,0.1434 0.4179,0.3462 0.5717,0.6102l0 -3.1699 0.6155 0 0 7.9906 -0.5438 0 -0.0507 -0.7169c-0.1538,0.2675 -0.3462,0.4703 -0.5787,0.612 -0.2326,0.1416 -0.5036,0.2132 -0.8148,0.2132 -0.5526,0 -0.9862,-0.2465 -1.2991,-0.7395 -0.3113,-0.4948 -0.4687,-1.154 -0.4687,-1.9811l0 -0.1084zm0.626 0.1084c0,0.6662 0.1049,1.196 0.3148,1.5859 0.2097,0.3917 0.5297,0.5874 0.9598,0.5874 0.3008,0 0.5525,-0.0821 0.7554,-0.2465 0.2028,-0.1643 0.3654,-0.3916 0.4843,-0.6871l0 -2.7153c-0.1119,-0.2973 -0.2692,-0.5404 -0.4703,-0.7257 -0.2029,-0.1871 -0.4546,-0.2798 -0.7588,-0.2798 -0.4337,0 -0.7572,0.2186 -0.9687,0.6557 -0.2116,0.4371 -0.3165,1.0106 -0.3165,1.717l0 0.1084zm5.2193 2.6123l-0.619 0 0 -5.5427 0.619 0 0 5.5427zm0 -7.1199l-0.619 0 0 -0.8707 0.619 0 0 0.8707zm2.0036 1.5772l0.0508 0.9162c0.1469,-0.3235 0.3427,-0.5752 0.5875,-0.7536 0.243,-0.1766 0.5298,-0.2658 0.8567,-0.2658 0.4965,0 0.876,0.1836 1.14,0.5508 0.2658,0.3672 0.397,0.9389 0.397,1.7135l0 3.3816 -0.619 0 0 -3.3763c0,-0.6331 -0.0926,-1.0771 -0.2762,-1.3324 -0.1854,-0.2571 -0.453,-0.3847 -0.8044,-0.3847 -0.3148,0 -0.5769,0.1032 -0.7903,0.3095 -0.2115,0.2063 -0.3689,0.4826 -0.4755,0.8288l0 3.9551 -0.6156 0 0 -5.5427 0.549 0zm4.2157 2.5003c0,-0.7868 0.1591,-1.4163 0.4773,-1.8918 0.3166,-0.4739 0.7554,-0.7117 1.3167,-0.7117 0.3094,0 0.5822,0.0751 0.8165,0.2273 0.2343,0.1521 0.4266,0.3689 0.5805,0.6487l0.0629 -0.7728 0.5211 0 0 5.5479c0,0.7099 -0.1644,1.2589 -0.4966,1.6489 -0.3304,0.3899 -0.8007,0.5839 -1.4075,0.5839 -0.2186,0 -0.4547,-0.0332 -0.7046,-0.0997 -0.2518,-0.0664 -0.4738,-0.1538 -0.6697,-0.264l0.1695 -0.5367c0.168,0.1048 0.3533,0.1888 0.5579,0.2482 0.2063,0.0595 0.4178,0.0892 0.6364,0.0892 0.4406,0 0.7658,-0.1416 0.9774,-0.4248 0.2116,-0.2833 0.3182,-0.6978 0.3182,-1.245l0 -0.6714c-0.1574,0.25 -0.3497,0.4424 -0.5788,0.5753 -0.229,0.1328 -0.493,0.1992 -0.7938,0.1992 -0.5577,0 -0.9931,-0.2185 -1.3095,-0.6539 -0.3148,-0.4353 -0.4739,-1.0141 -0.4739,-1.7398l0 -0.757zm0.6207 0.7588c0,0.5595 0.1066,1.0072 0.3218,1.3429 0.2151,0.3339 0.5403,0.5017 0.9739,0.5017 0.2972,0 0.5472,-0.0804 0.7535,-0.243 0.2046,-0.1626 0.3672,-0.3881 0.4861,-0.6749l0 -2.7468c-0.1172,-0.2938 -0.2745,-0.5334 -0.4738,-0.7151 -0.1993,-0.1837 -0.4512,-0.2746 -0.7554,-0.2746 -0.4336,0 -0.7605,0.1888 -0.9791,0.5683 -0.2186,0.3794 -0.327,0.8742 -0.327,1.4827l0 0.7588zm7.4836 -3.2591l0 5.999c0,0.5701 -0.1171,1.0089 -0.3497,1.3183 -0.2308,0.3096 -0.5543,0.4634 -0.9669,0.4634 -0.0822,0 -0.1591,-0.0087 -0.2308,-0.0262 -0.0717,-0.0158 -0.1504,-0.0402 -0.236,-0.0718l0.056 -0.5367c0.0454,0.021 0.1048,0.0402 0.1818,0.056 0.0768,0.0175 0.1398,0.0262 0.1871,0.0262 0.229,0 0.4108,-0.1049 0.5438,-0.313 0.1328,-0.2081 0.1992,-0.5141 0.1992,-0.9162l0 -5.999 0.6155 0zm0 -1.5772l-0.6155 0 0 -0.8707 0.6155 0 0 0.8707zm1.2397 3.9447c0,-0.7187 0.1836,-1.3097 0.5525,-1.7731 0.3689,-0.4651 0.8655,-0.6976 1.4862,-0.6976 0.6207,0 1.1172,0.2308 1.488,0.6942 0.3707,0.4633 0.556,1.0543 0.556,1.7765l0 0.813c0,0.7291 -0.1853,1.3218 -0.5525,1.7816 -0.3689,0.4599 -0.8656,0.6889 -1.4863,0.6889 -0.6259,0 -1.1225,-0.229 -1.4914,-0.6889 -0.3689,-0.4598 -0.5525,-1.0525 -0.5525,-1.7816l0 -0.813zm0.6189 0.813c0,0.5542 0.1241,1.0159 0.3689,1.3848 0.2466,0.3689 0.5981,0.5525 1.0561,0.5525 0.4477,0 0.7956,-0.1854 1.0456,-0.556 0.2483,-0.3708 0.3724,-0.8305 0.3724,-1.3813l0 -0.813c0,-0.5438 -0.1241,-1.0002 -0.3724,-1.3709 -0.25,-0.3706 -0.5997,-0.556 -1.0508,-0.556 -0.4546,0 -0.8043,0.1854 -1.0509,0.556 -0.2448,0.3707 -0.3689,0.8271 -0.3689,1.3709l0 0.813zm8.377 0.0768c0,0.7292 -0.1573,1.3097 -0.4686,1.7433 -0.3129,0.4337 -0.7448,0.6504 -1.2938,0.6504 -0.3252,0 -0.605,-0.0733 -0.8428,-0.2203 -0.2378,-0.1468 -0.4318,-0.3566 -0.5823,-0.6295l-0.0612 0.7415 -0.528 0 0 -7.9906 0.6155 0 0 3.1997c0.1504,-0.2728 0.3409,-0.4843 0.5735,-0.6329 0.2325,-0.1487 0.5036,-0.2221 0.8148,-0.2221 0.5525,0 0.9862,0.2291 1.3008,0.6889 0.3148,0.4598 0.4721,1.07 0.4721,1.8324l0 0.8392zm-0.6207 -0.8392c0,-0.584 -0.1084,-1.0595 -0.3252,-1.4232 -0.2168,-0.3637 -0.5385,-0.5456 -0.9652,-0.5456 -0.3181,0 -0.5787,0.098 -0.7815,0.292 -0.2028,0.1959 -0.3585,0.4476 -0.4686,0.7589l0 2.635c0.1119,0.2971 0.2727,0.5332 0.4808,0.7063 0.2099,0.1749 0.4686,0.2622 0.7799,0.2622 0.4266,0 0.7466,-0.1678 0.9599,-0.5017 0.2133,-0.3357 0.3199,-0.7834 0.3199,-1.3429l0 -0.841zm7.8018 0.8392c0,0.7292 -0.1574,1.3097 -0.4686,1.7433 -0.3129,0.4337 -0.7448,0.6504 -1.2939,0.6504 -0.3112,0 -0.5821,-0.0647 -0.8147,-0.194 -0.2325,-0.1312 -0.4249,-0.3183 -0.5787,-0.5648l0 2.7818 -0.6156 0 0 -7.674 0.5176 0 0.0665 0.7623c0.1539,-0.2762 0.3496,-0.4896 0.584,-0.6399 0.2359,-0.1505 0.5105,-0.2256 0.8253,-0.2256 0.556,0 0.9913,0.236 1.3061,0.7099 0.3146,0.4721 0.472,1.1033 0.472,1.8936l0 0.757zm-0.626 -0.7587c0,-0.605 -0.1101,-1.0963 -0.3321,-1.4775 -0.2221,-0.3812 -0.549,-0.5718 -0.9791,-0.5718 -0.3043,0 -0.5561,0.0909 -0.7555,0.271 -0.1992,0.1819 -0.3531,0.4179 -0.4632,0.7082l0 2.7923c0.1118,0.2798 0.2692,0.5001 0.472,0.6591 0.2011,0.1592 0.4511,0.2379 0.7519,0.2379 0.4301,0 0.7553,-0.1696 0.9756,-0.5106 0.2203,-0.3392 0.3304,-0.7886 0.3304,-1.3499l0 -0.7587zm1.5633 -0.1311c0,-0.7187 0.1836,-1.3097 0.5525,-1.7731 0.3689,-0.4651 0.8655,-0.6976 1.4862,-0.6976 0.6207,0 1.1172,0.2308 1.488,0.6942 0.3707,0.4633 0.556,1.0543 0.556,1.7765l0 0.813c0,0.7291 -0.1853,1.3218 -0.5525,1.7816 -0.3689,0.4599 -0.8656,0.6889 -1.4863,0.6889 -0.6259,0 -1.1225,-0.229 -1.4914,-0.6889 -0.3689,-0.4598 -0.5525,-1.0525 -0.5525,-1.7816l0 -0.813zm0.6189 0.813c0,0.5542 0.1241,1.0159 0.3689,1.3848 0.2466,0.3689 0.5981,0.5525 1.0561,0.5525 0.4477,0 0.7956,-0.1854 1.0456,-0.556 0.2483,-0.3708 0.3724,-0.8305 0.3724,-1.3813l0 -0.813c0,-0.5438 -0.1241,-1.0002 -0.3724,-1.3709 -0.25,-0.3706 -0.5997,-0.556 -1.0508,-0.556 -0.4546,0 -0.8043,0.1854 -1.0509,0.556 -0.2448,0.3707 -0.3689,0.8271 -0.3689,1.3709l0 0.813zm6.7474 -2.628l-0.4039 -0.0314c-0.2884,0 -0.5245,0.0961 -0.7133,0.2902 -0.1871,0.1923 -0.3252,0.458 -0.4144,0.7955l0 3.9359 -0.6155 0 0 -5.5427 0.5438 0 0.0717 0.9162c0.1294,-0.3218 0.3007,-0.5718 0.514,-0.7501 0.2151,-0.1801 0.4651,-0.2693 0.7519,-0.2693 0.0647,0 0.1293,0.0053 0.1941,0.0175 0.0647,0.0122 0.1153,0.0245 0.1538,0.0385l-0.0822 0.5997zm1.8395 -1.9671l0 1.4146 0.9633 0 0 0.5175 -0.9633 0 0 3.5967c0,0.3601 0.0507,0.6137 0.1539,0.764 0.1014,0.1504 0.2377,0.2255 0.4039,0.2255 0.0822,0 0.1626,-0.0052 0.2412,-0.0156 0.0787,-0.0106 0.1679,-0.0246 0.2658,-0.0456l0.0822 0.4705c-0.0822,0.0402 -0.1889,0.0733 -0.32,0.0995 -0.1312,0.0263 -0.264,0.0385 -0.3969,0.0385 -0.327,0 -0.584,-0.1224 -0.7711,-0.3689 -0.1853,-0.2465 -0.2779,-0.6347 -0.2779,-1.1679l0 -3.5967 -0.7694 0 0 -0.5175 0.7694 0 0 -1.4146 0.6189 0zm5.0041 6.9573c-0.0315,-0.1906 -0.0542,-0.348 -0.0699,-0.4704 -0.0141,-0.1241 -0.0227,-0.2482 -0.0227,-0.3742 -0.168,0.2763 -0.3847,0.5053 -0.6522,0.6837 -0.2694,0.1801 -0.5665,0.2692 -0.8953,0.2692 -0.4563,0 -0.8096,-0.1433 -1.0596,-0.4283 -0.25,-0.285 -0.3741,-0.6697 -0.3741,-1.1558 0,-0.5157 0.1818,-0.9266 0.5438,-1.2326 0.3618,-0.3061 0.8514,-0.4581 1.4687,-0.4581l0.9687 0 0 -0.682c0,-0.3916 -0.098,-0.6993 -0.2973,-0.9214 -0.1976,-0.2221 -0.4738,-0.3322 -0.8288,-0.3322 -0.3322,0 -0.605,0.1067 -0.8183,0.3182 -0.2133,0.2116 -0.32,0.4703 -0.32,0.7781l-0.5734 -0.0053 -0.0106 -0.0314c-0.0156,-0.4162 0.1416,-0.7886 0.4739,-1.1138 0.3339,-0.327 0.7588,-0.4896 1.2782,-0.4896 0.5122,0 0.9266,0.1556 1.2396,0.4686 0.3147,0.313 0.4721,0.7588 0.4721,1.3394l0 2.7206c0,0.1993 0.0087,0.3899 0.0244,0.5735 0.0175,0.1853 0.0491,0.3654 0.0928,0.5438l-0.64 0zm-1.5632 -0.4442c0.3427,0 0.6452,-0.0979 0.9093,-0.2954 0.2657,-0.1959 0.4528,-0.4459 0.5613,-0.7518l0 -1.1996 -0.9828 0c-0.4214,0 -0.7553,0.1189 -1.007,0.3567 -0.2519,0.2379 -0.376,0.5316 -0.376,0.8795 0,0.2973 0.0787,0.5403 0.2344,0.7291 0.1572,0.1871 0.3776,0.2815 0.6608,0.2815zm4.1702 0.4442l-0.619 0 0 -7.9906 0.619 0 0 7.9906z"/>
 </g>
</svg>
