<?xml version="1.0" encoding="UTF-8"?>
<!DOCTYPE svg PUBLIC "-//W3C//DTD SVG 1.1//EN" "http://www.w3.org/Graphics/SVG/1.1/DTD/svg11.dtd">
<!-- Creator: CorelDRAW -->
<svg xmlns="http://www.w3.org/2000/svg" xml:space="preserve" width="2in" height="2in" style="shape-rendering:geometricPrecision; text-rendering:geometricPrecision; image-rendering:optimizeQuality; fill-rule:evenodd; clip-rule:evenodd"
viewBox="0 0 2 2"
 xmlns:xlink="http://www.w3.org/1999/xlink">
 <defs>
  <style type="text/css">
   <![CDATA[
    .fil0 {fill:#D68586}
   ]]>
  </style>
 </defs>
 <g id="Layer_x0020_1">
  <metadata id="CorelCorpID_0Corel-Layer"/>
  <g id="_109919616">
   <path id="_109919712" class="fil0" d="M1.00139 0.372917c0.209531,0 0.379461,0.185039 0.379461,0.413213 0,0.228173 -0.169929,0.494441 -0.379461,0.494441 -0.209535,0 -0.379461,-0.266268 -0.379461,-0.494441 0,-0.228173 0.169925,-0.413213 0.379461,-0.413213z"/>
   <path id="_109919640" class="fil0" d="M1.011 1.92704c-0.0885079,0.00119685 -0.734909,-0.0216181 -0.79735,-0.24737 -0.0234094,-0.0846535 0.00212598,-0.192965 0.0698465,-0.262921 0.105618,-0.109102 0.282693,-0.178535 0.382882,-0.199394 0.129673,-0.027 0.154701,0.120913 0.342728,0.121622 0.152933,0.000574803 0.234012,-0.149063 0.348953,-0.107193 0.164728,0.0628031 0.33624,0.105717 0.401047,0.266579 0.064811,0.160862 0.051685,0.219669 -0.124835,0.312181 -0.17652,0.0925079 -0.454146,0.111701 -0.623272,0.116496z"/>
  </g>
 </g>
</svg>
