<?xml version="1.0" encoding="UTF-8"?>
<!DOCTYPE svg PUBLIC "-//W3C//DTD SVG 1.1//EN" "http://www.w3.org/Graphics/SVG/1.1/DTD/svg11.dtd">
<!-- Creator: CorelDRAW -->
<svg xmlns="http://www.w3.org/2000/svg" xml:space="preserve" width="8.5in" height="8.5in" style="shape-rendering:geometricPrecision; text-rendering:geometricPrecision; image-rendering:optimizeQuality; fill-rule:evenodd; clip-rule:evenodd"
viewBox="0 0 8.5 8.5"
 xmlns:xlink="http://www.w3.org/1999/xlink"
 version="1.1">
 <defs>
  <style type="text/css">
   <![CDATA[
    .str0 {stroke:#1F1A17;stroke-width:0.47222}
    .fil1 {fill:white}
    .fil0 {fill:black}
    .fil2 {fill:#DA251D;fill-rule:nonzero}
   ]]>
  </style>
 </defs>
 <g id="Layer_x0020_1">
  <metadata id="CorelCorpID_0Corel-Layer"/>
  <path class="fil0" d="M4.88431 1.04359l-0.634315 0.335531 -0.636476 -0.336677c-0.122307,-0.0646929 -0.262035,0.0500709 -0.222339,0.182618l0.345126 1.15233c0.16952,-0.0529567 0.341102,-0.0796142 0.513689,-0.0796142 0.170209,0 0.339433,0.0259724 0.506677,0.0774882l0.349764 -1.14837c0.0404291,-0.132681 -0.0995079,-0.248161 -0.222126,-0.183303z"/>
  <path class="fil1 str0" d="M6.72646 5.80619c0,-1.36771 -1.10875,-3.3041 -2.47646,-3.3041 -1.36771,0 -2.47646,1.93639 -2.47646,3.3041 0,1.3677 1.10875,1.66989 2.47646,1.66989 1.36771,1.9685e-005 2.47646,-0.302173 2.47646,-1.66989z"/>
  <path class="fil2" d="M3.54981 3.90642l1.63057 0 0 0.00347244c-0.0960512,0.14813 -0.150445,0.226823 -0.162594,0.237236l-0.435705 0c0.0595984,0.0700157 0.100681,0.15565 0.122091,0.255752l0.464055 0c0.0057874,0.00115748 0.0086811,0.00347244 0.0086811,0.00694488 -0.104154,0.156228 -0.156807,0.233764 -0.159122,0.233764l-0.302043 0c-0.0063622,0.0804291 -0.0451299,0.177059 -0.115146,0.28989 -0.0925787,0.114567 -0.18111,0.188634 -0.266165,0.222193 -0.157965,0.0757992 -0.309567,0.113409 -0.45422,0.113409l0 0.00347244c0,0.0115709 0.0352953,0.0584409 0.106465,0.140606l0.805445 0.971512 0 0.0457087c0,0.00462992 -0.00288976,0.00694488 -0.00867717,0.00694488l-0.354118 0c-0.637067,-0.742374 -0.95589,-1.11559 -0.95589,-1.11906l0 -0.225087 0.00347244 -0.00867717c0.056126,0.00809843 0.122669,0.0121496 0.19789,0.0121496 0.357591,0 0.579205,-0.116303 0.666575,-0.347752 0.013311,-0.0341417 0.020252,-0.0688583 0.020252,-0.105311l-0.969776 0c-0.00462598,0 -0.00694094,-0.00231496 -0.00694094,-0.00636614 0.107622,-0.156228 0.162591,-0.234343 0.164906,-0.234343l0.769571 0 0 -0.0028937c-0.0445512,-0.089685 -0.12961,-0.159122 -0.256331,-0.208882 -0.0902638,-0.0295118 -0.17185,-0.0439764 -0.244177,-0.0439764l-0.430496 0 0 -0.00867717c0.10415,-0.154496 0.157965,-0.232031 0.161433,-0.232031z"/>
 </g>
</svg>
