<?xml version="1.0" encoding="UTF-8"?>
<!DOCTYPE svg PUBLIC "-//W3C//DTD SVG 1.1//EN" "http://www.w3.org/Graphics/SVG/1.1/DTD/svg11.dtd">
<!-- Creator: CorelDRAW -->
<svg xmlns="http://www.w3.org/2000/svg" xml:space="preserve" width="2in" height="2in" style="shape-rendering:geometricPrecision; text-rendering:geometricPrecision; image-rendering:optimizeQuality; fill-rule:evenodd; clip-rule:evenodd"
viewBox="0 0 2 2"
 xmlns:xlink="http://www.w3.org/1999/xlink">
 <defs>
  <style type="text/css">
   <![CDATA[
    .str0 {stroke:#1F1A17;stroke-width:0.003}
    .str1 {stroke:#1F1A17;stroke-width:0.0694528;stroke-linejoin:round}
    .fil3 {fill:#1F1A17}
    .fil2 {fill:#957F66}
    .fil1 {fill:#FFFCC8}
    .fil0 {fill:white}
   ]]>
  </style>
 </defs>
 <g id="Layer_x0020_1">
  <metadata id="CorelCorpID_0Corel-Layer"/>
  <path class="fil0" d="M1 0.130016c0.480398,0 0.869984,0.389587 0.869984,0.869984 0,0.480398 -0.389587,0.869984 -0.869984,0.869984 -0.480398,0 -0.869984,-0.389587 -0.869984,-0.869984 0,-0.480398 0.389587,-0.869984 0.869984,-0.869984z"/>
  <path class="fil1 str0" d="M0.646559 0.813331l0.715984 0c0.022315,0 0.0405669,0.018252 0.0405669,0.0405669l0 0.459768c0,0.022315 -0.018252,0.0405669 -0.0405669,0.0405669l-0.715984 0c-0.022315,0 -0.0405669,-0.018252 -0.0405669,-0.0405669l0 -0.459768c0,-0.022315 0.018252,-0.0405669 0.0405669,-0.0405669z"/>
  <path class="fil2 str1" d="M0.741646 0.889319c0,0 -0.0278031,0.107571 -0.141567,0.0923819 -0.113764,-0.015189 -0.136516,-0.11389 -0.0922717,-0.206272 0.0442402,-0.0923819 0.109965,-0.199949 0.109965,-0.199949 0,0 0.0214921,-0.0379724 0.0758425,-0.0379724 0.0543543,0 0.592803,0 0.592803,0 0,0 0.0693661,-0.00732677 0.096063,0.035437 0.0266929,0.0427638 0.106177,0.207543 0.116287,0.231587 0.0101063,0.0240472 0.0404528,0.117677 -0.0353858,0.159445 -0.0758425,0.0417677 -0.187075,0.0126654 -0.206039,-0.0695984 -0.0135827,0.0291063 -0.0466496,0.0862244 -0.118811,0.0885866 -0.0770866,0.00251181 -0.111228,-0.0139173 -0.135244,-0.0860512 -0.00694882,0.0192992 -0.0429724,0.0860591 -0.115016,0.0885827 -0.0720472,0.00252756 -0.133992,-0.0215197 -0.146626,-0.0961772z"/>
  <path class="fil3" d="M0.573413 0.978587l0.0659685 0c-0.000169291,0.00120472 -0.000248031,0.00242913 -0.000248031,0.00367323l0 0.324232c0,0.0145512 0.0118937,0.0264409 0.0264449,0.0264409l0.675173 0c0.0145512,0 0.0264409,-0.0118898 0.0264409,-0.0264409l0 -0.324232c0,-0.00124409 -0.000106299,-0.0024685 -0.000275591,-0.00367323l0.0596772 0 0 0.341402c0,0.0426181 -0.0348701,0.0774843 -0.0774882,0.0774843l-0.698209 0c-0.0426181,0 -0.0774843,-0.0348661 -0.0774843,-0.0774843l0 -0.341402z"/>
 </g>
</svg>
