<?xml version="1.0" encoding="UTF-8"?>
<!DOCTYPE svg PUBLIC "-//W3C//DTD SVG 1.1//EN" "http://www.w3.org/Graphics/SVG/1.1/DTD/svg11.dtd">
<!-- Creator: CorelDRAW -->
<svg xmlns="http://www.w3.org/2000/svg" xml:space="preserve" width="8.5in" height="8.5in" style="shape-rendering:geometricPrecision; text-rendering:geometricPrecision; image-rendering:optimizeQuality; fill-rule:evenodd; clip-rule:evenodd"
viewBox="0 0 8.5 8.5"
 xmlns:xlink="http://www.w3.org/1999/xlink">
 <defs>
  <style type="text/css">
   <![CDATA[
    .fil0 {fill:black}
   ]]>
  </style>
 </defs>
 <g id="Layer_x0020_1">
  <metadata id="CorelCorpID_0Corel-Layer"/>
  <g id="_104031432">
   <path id="_104031528" class="fil0" d="M4.32974 0.994146l-0.159472 0c-0.0159843,0.0101417 -0.155835,0.0479764 -0.201622,0.0708031 -0.0652638,0.0325394 -0.103768,0.0720709 -0.152193,0.120236 -0.0777795,0.0773583 -0.157819,0.227335 -0.157819,0.380398l0 2.42528c0,0.278283 0.27435,0.5515 0.558146,0.5515l0.0797362 0c0.295862,0 0.544858,-0.285654 0.544858,-0.598016l0 -2.3389c0,-0.181697 -0.0587244,-0.322268 -0.151154,-0.413638 -0.0495787,-0.0490039 -0.0898819,-0.0919921 -0.154402,-0.124673 -0.046378,-0.0234921 -0.187591,-0.0612598 -0.206079,-0.0729921z"/>
   <path id="_104031456" class="fil0" d="M4.09053 7.50585l0.318945 0c4.33071e-005,-3.14961e-005 0.288858,-0.0339843 0.313933,-0.0382283 0.0850157,-0.0143819 0.221815,-0.0357087 0.290724,-0.0614409 0.0845039,-0.0315551 0.182378,-0.0544094 0.266618,-0.0855472 0.0882126,-0.0325984 0.165846,-0.064185 0.247256,-0.104906 0.328469,-0.164291 0.57398,-0.335909 0.820039,-0.581972 0.190012,-0.190012 0.475933,-0.558169 0.578835,-0.823177 0.0699055,-0.180039 0.13485,-0.307843 0.186902,-0.517425 0.041,-0.165079 0.0930669,-0.40339 0.0930669,-0.604614l0 -0.219272c0,-0.635587 -0.277476,-1.29295 -0.553299,-1.6527 -0.361492,-0.471492 -0.659728,-0.71598 -1.22081,-0.985201l0 0.664461c0.316063,0.167236 0.604512,0.461843 0.800012,0.754827 0.17128,0.256685 0.382728,0.751181 0.382728,1.17211l0 0.179406c0,0.702382 -0.35278,1.27972 -0.705976,1.63292 -0.355181,0.355177 -0.943858,0.679398 -1.65285,0.679398 -0.710925,0 -1.30066,-0.313949 -1.65616,-0.669453 -0.164717,-0.164717 -0.394646,-0.444606 -0.487398,-0.675406 -0.107866,-0.268421 -0.228567,-0.552713 -0.228567,-0.927594l0 -0.225917c0,-0.211004 0.0739764,-0.483898 0.12874,-0.648673 0.0614291,-0.184819 0.158965,-0.374295 0.256646,-0.520776 0.192921,-0.289295 0.483386,-0.584709 0.797354,-0.750839l0 -0.664461c-0.126732,0.0670551 -0.239366,0.113449 -0.362803,0.188701 -0.114961,0.0700827 -0.21998,0.147331 -0.322827,0.228673 -0.173992,0.13761 -0.408213,0.378551 -0.531638,0.564724 -0.17287,0.260752 -0.254709,0.408035 -0.382016,0.720988 -0.0899843,0.221197 -0.174827,0.613913 -0.174827,0.921531l0 0.239205c0,0.381071 0.155803,0.856846 0.281205,1.12081 0.147358,0.310193 0.35222,0.592346 0.580941,0.821067 0.246209,0.246209 0.492559,0.416457 0.821177,0.580835 0.14078,0.0704173 0.347543,0.150839 0.515701,0.188626 0.0959213,0.0215551 0.183075,0.0478858 0.292138,0.0600236 0.0192992,0.00214961 0.30574,0.0390039 0.306213,0.0393071z"/>
  </g>
 </g>
</svg>
