<?xml version="1.0" encoding="UTF-8"?>
<!DOCTYPE svg PUBLIC "-//W3C//DTD SVG 1.1//EN" "http://www.w3.org/Graphics/SVG/1.1/DTD/svg11.dtd">
<!-- Creator: CorelDRAW -->
<svg xmlns="http://www.w3.org/2000/svg" xml:space="preserve" width="4.2in" height="2in" style="shape-rendering:geometricPrecision; text-rendering:geometricPrecision; image-rendering:optimizeQuality; fill-rule:evenodd; clip-rule:evenodd"
viewBox="0 0 4.2 2"
 xmlns:xlink="http://www.w3.org/1999/xlink">
 <defs>
  <style type="text/css">
   <![CDATA[
    .fil0 {fill:#E77817}
    .fil1 {fill:white}
    .fil2 {fill:#0D809C}
    .fil3 {fill:white;fill-rule:nonzero}
   ]]>
  </style>
 </defs>
 <g id="Layer_x0020_1">
  <metadata id="CorelCorpID_0Corel-Layer"/>
  <path class="fil0" d="M0.383063 0.136878l3.43387 0c0.128185,0 0.233059,0.104957 0.233059,0.233059l0 1.26013c0,0.128102 -0.104957,0.233059 -0.233059,0.233059l-3.43387 0c-0.128102,0 -0.233059,-0.104874 -0.233059,-0.233059l0 -1.26013c0,-0.128181 0.104878,-0.233059 0.233059,-0.233059z"/>
  <path class="fil1" d="M0.85811 0.463756c0.294496,0 0.533327,0.238831 0.533327,0.533331 0,0.294496 -0.238831,0.533327 -0.533327,0.533327 -0.2945,0 -0.533331,-0.238831 -0.533331,-0.533327 0,-0.2945 0.238831,-0.533331 0.533331,-0.533331z"/>
  <g id="_110452776">
   <path id="_110452872" class="fil2" d="M0.811417 0.75135l0.0933858 0c0.00135433,0 0.00245276,0.00110236 0.00245276,0.00245669l0 0.486563c0,0.00135039 -0.00109843,0.00245276 -0.00245276,0.00245276l-0.0933858 0c-0.00135433,0 -0.00245276,-0.00110236 -0.00245276,-0.00245276l0 -0.486563c0,-0.00135433 0.00109843,-0.00245669 0.00245276,-0.00245669z"/>
   <path id="_110452800" class="fil2" d="M0.612374 1.04378l0 -0.0933858c0,-0.00135433 0.00110236,-0.00245276 0.00245276,-0.00245276l0.486563 0c0.00135433,0 0.00245669,0.00109843 0.00245669,0.00245276l0 0.0933858c0,0.00135433 -0.00110236,0.00245276 -0.00245669,0.00245276l-0.486563 0c-0.00135039,0 -0.00245276,-0.00109843 -0.00245276,-0.00245276z"/>
  </g>
  <path class="fil3" d="M1.74056 1.34844l0.000716535 0.00161417c-0.000181102,0.0381772 -0.0103071,0.0676654 -0.0304764,0.0886417 -0.0200787,0.0208819 -0.0484882,0.0313661 -0.0853268,0.0313661 -0.0374606,0 -0.0673976,-0.0126339 -0.0898031,-0.0378189 -0.0224055,-0.025189 -0.0336102,-0.0604134 -0.0336102,-0.105583l0 -0.106028c0,-0.0451732 0.0111142,-0.0804882 0.033248,-0.105854 0.0221378,-0.0253622 0.0517205,-0.0380906 0.0886457,-0.0380906 0.0374606,0 0.0662362,0.0102165 0.0864016,0.0307402 0.0200748,0.020437 0.0303819,0.050374 0.0309213,0.089811l-0.000716535 0.00151969 -0.0504606 0c-0.00053937,-0.0277835 -0.00600787,-0.0483071 -0.0165827,-0.0613937 -0.0104882,-0.0131772 -0.0269764,-0.0197165 -0.049563,-0.0197165 -0.021874,0 -0.0389016,0.00887008 -0.051,0.0265276 -0.0120118,0.0176575 -0.0181063,0.0429331 -0.0181063,0.0756457l0 0.106839c0,0.0333425 0.00618898,0.0587953 0.0185551,0.0764528 0.0122756,0.0176575 0.0296693,0.0265276 0.0520709,0.0265276 0.0220512,0 0.0382717,-0.00645276 0.0484921,-0.0192717 0.0102165,-0.0129055 0.0155079,-0.0335197 0.0158661,-0.0619291l0.0507283 0zm0.301957 -0.0223189c0,0.0453504 -0.0117402,0.0806654 -0.0352205,0.106028 -0.0233937,0.0252795 -0.0548543,0.0379134 -0.0942047,0.0379134 -0.0388976,0 -0.069815,-0.0126339 -0.0927638,-0.0379134 -0.0228543,-0.0253622 -0.0343268,-0.0606772 -0.0343268,-0.106028l0 -0.105043c0,-0.0450866 0.0114724,-0.0804882 0.0345079,-0.106028 0.0230315,-0.0255472 0.0538622,-0.0383622 0.0925827,-0.0383622 0.0391693,0 0.0705394,0.012815 0.0941102,0.0383622 0.0235748,0.0255394 0.035315,0.0609409 0.035315,0.106028l0 0.105043zm-0.0530591 -0.10576c0,-0.033252 -0.00663386,-0.0585276 -0.0199882,-0.0757362 -0.0132677,-0.0172992 -0.0320866,-0.0259016 -0.056378,-0.0259016 -0.0240197,0 -0.0423937,0.00860236 -0.0552087,0.0259016 -0.0127244,0.0172087 -0.0191811,0.0424843 -0.0191811,0.0757362l0 0.10576c0,0.0336102 0.00645669,0.0591535 0.0193622,0.0764528 0.012815,0.0172992 0.031189,0.0259921 0.0550276,0.0259921 0.0244685,0 0.0432913,-0.0086063 0.0565551,-0.0259055 0.0131772,-0.0172047 0.019811,-0.042752 0.019811,-0.0765394l0 -0.10576zm0.367028 0.244146l-0.0529724 0 -0.14502 -0.28439 -0.00151969 0.00053937 0 0.28385 -0.0533268 0 0 -0.382354 0.0533268 0 0.144929 0.283583 0.00161024 -0.000444882 0 -0.283138 0.0529724 0 0 0.382354zm0.295953 -0.34139l-0.0982323 0 0 0.34139 -0.0533268 0 0 -0.34139 -0.0976063 0 0 -0.0409646 0.249165 0 0 0.0409646zm0.219764 0.244772l-0.12189 0 -0.0277874 0.0966181 -0.0541378 0 0.117685 -0.382354 0.0514449 0 0.116606 0.382354 -0.0541339 0 -0.0277874 -0.0966181zm-0.109524 -0.0423071l0.0974252 0 -0.0477717 -0.166976 -0.00161024 0 -0.0480433 0.166976zm0.460331 0.0228583l0.000716535 0.00161417c-0.000181102,0.0381772 -0.0103071,0.0676654 -0.0304764,0.0886417 -0.0200787,0.0208819 -0.0484882,0.0313661 -0.0853268,0.0313661 -0.0374606,0 -0.0673976,-0.0126339 -0.0898031,-0.0378189 -0.0224055,-0.025189 -0.0336102,-0.0604134 -0.0336102,-0.105583l0 -0.106028c0,-0.0451732 0.0111102,-0.0804882 0.033248,-0.105854 0.0221378,-0.0253622 0.0517205,-0.0380906 0.0886417,-0.0380906 0.0374646,0 0.0662402,0.0102165 0.0864055,0.0307402 0.0200748,0.020437 0.0303819,0.050374 0.0309213,0.089811l-0.000716535 0.00151969 -0.0504646 0c-0.000535433,-0.0277835 -0.00600394,-0.0483071 -0.0165787,-0.0613937 -0.0104882,-0.0131772 -0.0269764,-0.0197165 -0.0495669,-0.0197165 -0.0218701,0 -0.0388976,0.00887008 -0.0509961,0.0265276 -0.0120118,0.0176575 -0.0181063,0.0429331 -0.0181063,0.0756457l0 0.106839c0,0.0333425 0.00618898,0.0587953 0.0185551,0.0764528 0.0122756,0.0176575 0.0296654,0.0265276 0.0520709,0.0265276 0.0220512,0 0.0382717,-0.00645276 0.0484921,-0.0192717 0.0102165,-0.0129055 0.0155079,-0.0335197 0.0158661,-0.0619291l0.0507283 0zm0.279906 -0.225323l-0.0982323 0 0 0.34139 -0.0533268 0 0 -0.34139 -0.0976063 0 0 -0.0409646 0.249165 0 0 0.0409646zm0.220756 0.245311c0,-0.0180157 -0.00502362,-0.0328031 -0.0152402,-0.0443661 -0.010126,-0.011563 -0.0278701,-0.0216929 -0.0532362,-0.0304724 -0.0364803,-0.0110276 -0.0643543,-0.0254606 -0.0838031,-0.0432047 -0.0194488,-0.0177441 -0.0291299,-0.0412283 -0.0291299,-0.0705394 0,-0.0300236 0.0107559,-0.0547598 0.0324449,-0.0741181 0.0216024,-0.0193622 0.0493858,-0.0290394 0.0833583,-0.0290394 0.0353071,0 0.063811,0.0112008 0.0854134,0.0335236 0.021689,0.022315 0.0320827,0.0492047 0.0314606,0.080752l-0.00053937 0.00152362 -0.0512677 0c0,-0.0222283 -0.00573622,-0.0403346 -0.0171181,-0.0542244 -0.0114724,-0.0138937 -0.0276929,-0.0208858 -0.0484882,-0.0208858 -0.019811,0 -0.0350433,0.00582677 -0.0458031,0.0174764 -0.010752,0.0116535 -0.0161299,0.0264449 -0.0161299,0.0444567 0,0.016315 0.00573622,0.0300236 0.0172992,0.0411417 0.0115591,0.0111142 0.0306496,0.0212402 0.0572677,0.0302913 0.0347795,0.0108465 0.0613071,0.0256339 0.0795039,0.0443661 0.018189,0.0187323 0.0273346,0.0430197 0.0273346,0.0727795 0,0.0313701 -0.0107559,0.0561969 -0.0322677,0.0745669 -0.0215984,0.018378 -0.0498307,0.0276063 -0.084878,0.0276063 -0.0341457,0 -0.0639016,-0.010126 -0.0893543,-0.0302913 -0.0254606,-0.0202559 -0.0378268,-0.0487598 -0.0369291,-0.0855039l0.000535433 -0.00161417 0.0511811 0c0,0.0262638 0.00689764,0.0457087 0.0206142,0.0583465 0.0138031,0.0126378 0.0317283,0.0189094 0.0539528,0.0189094 0.0199882,0 0.0355827,-0.00555512 0.046878,-0.0166693 0.0112913,-0.0111102 0.0169409,-0.0260827 0.0169409,-0.044811z"/>
  <path class="fil3" d="M1.54869 0.949071l0 -0.384209 0.107173 0c0.0362047,0 0.0644843,0.00864567 0.084752,0.0258465 0.0203543,0.0172953 0.0305315,0.0431417 0.0305315,0.0776378 0,0.0182795 -0.00459449,0.0344016 -0.0138701,0.0483622 -0.00927953,0.0140512 -0.0220669,0.024315 -0.0383701,0.0308031 0.0207165,0.00459055 0.0366575,0.0153976 0.0478268,0.0326024 0.0112559,0.0171102 0.0168386,0.0371929 0.0168386,0.060252 0,0.0353937 -0.00999606,0.0623228 -0.0299882,0.080874 -0.0199961,0.0185551 -0.0475551,0.0278307 -0.0826772,0.0278307l-0.122217 0zm0.0535866 -0.179134l0 0.138516 0.0686299 0c0.0189094,0 0.0335906,-0.00585433 0.0438583,-0.017563 0.0103583,-0.0117087 0.0154921,-0.0284606 0.0154921,-0.0502559 0,-0.0216142 -0.00441339,-0.038815 -0.0132402,-0.0516063 -0.00873622,-0.0126969 -0.0223346,-0.0190906 -0.0406181,-0.0190906l-0.074122 0zm0 -0.0385472l0.058811 0c0.017563,0 0.0314331,-0.00531496 0.0414291,-0.0159409 0.00999606,-0.0106299 0.0150394,-0.0260315 0.0150394,-0.0461142 0,-0.0210748 -0.00522441,-0.0369252 -0.0156693,-0.0474646 -0.0104488,-0.0105354 -0.0258504,-0.0158504 -0.0460236,-0.0158504l-0.0535866 0 0 0.12537zm0.481024 -0.166528l0 0.266315c0,0.0397205 -0.011437,0.070252 -0.0342244,0.0915039 -0.0227835,0.0213465 -0.0525039,0.0319724 -0.0893425,0.0319724 -0.0362047,0 -0.0654724,-0.010626 -0.087811,-0.0319724 -0.0223346,-0.021252 -0.0335039,-0.0517835 -0.0335039,-0.0915039l0 -0.266315 0.0530472 0 0 0.266315c0,0.0274685 0.00612598,0.0480945 0.0184646,0.0619646 0.012248,0.0139606 0.0289094,0.0208937 0.0498031,0.0208937 0.0218858,0 0.039,-0.00666535 0.0515197,-0.0200827 0.0124252,-0.0133307 0.0187323,-0.034315 0.0187323,-0.0627756l0 -0.266315 0.053315 0zm0.174634 0.18661l0.0015315 0 0.078626 -0.18661 0.0593504 0 -0.112937 0.245961 0 0.138248 -0.0532283 0 0 -0.141669 -0.111677 -0.242539 0.0598898 0 0.0784449 0.18661zm0.368358 -0.18661l0.0897008 0.313508 0.00162205 0 0.0899724 -0.313508 0.0690787 0 0 0.384209 -0.0529567 0 0 -0.147524 0.00468504 -0.147791 -0.0015315 -0.000271654 -0.0924055 0.295587 -0.0353071 0 -0.0921339 -0.295315 -0.0015315 0.000267717 0.00495669 0.147524 0 0.147524 -0.0530472 0 0 -0.384209 0.0688976 0zm0.568386 0.24515c0,0.0455748 -0.0117992,0.0810591 -0.0353937,0.106547 -0.0235079,0.0253976 -0.0551181,0.0380945 -0.0946575,0.0380945 -0.0390866,0 -0.0701575,-0.0126969 -0.0932165,-0.0380945 -0.0229646,-0.0254882 -0.0344921,-0.0609724 -0.0344921,-0.106547l0 -0.105551c0,-0.0453031 0.0115276,-0.080878 0.0346732,-0.106547 0.0231457,-0.0256654 0.0541299,-0.0385433 0.0930354,-0.0385433 0.0393583,0 0.070878,0.012878 0.0945669,0.0385433 0.023685,0.0256693 0.0354843,0.0612441 0.0354843,0.106547l0 0.105551zm-0.0533189 -0.106272c0,-0.0334134 -0.00666142,-0.058811 -0.0200827,-0.0761024 -0.0133307,-0.0173858 -0.0322441,-0.0260315 -0.0566496,-0.0260315 -0.0241378,0 -0.0425984,0.00864567 -0.0554803,0.0260315 -0.0127874,0.0172913 -0.0192717,0.042689 -0.0192717,0.0761024l0 0.106272c0,0.0337756 0.00648425,0.0594449 0.0194528,0.0768268 0.012878,0.0173819 0.0313425,0.0261181 0.0552992,0.0261181 0.0245866,0 0.0435,-0.00864567 0.0568307,-0.0260276 0.0132402,-0.0172953 0.0199016,-0.0429606 0.0199016,-0.0769173l0 -0.106272zm0.168331 0.0798858l0 0.165445 -0.0535866 0 0 -0.383937 0.119512 0c0.0364764,0 0.0645748,0.00945669 0.0844803,0.0282795 0.019815,0.0188228 0.029811,0.045752 0.029811,0.0809646 0,0.0200866 -0.00459449,0.0375551 -0.0138701,0.0525079 -0.00927559,0.0149488 -0.0226063,0.0266575 -0.0399882,0.035126 0.019185,0.00648425 0.0330551,0.0175591 0.0416102,0.0330512 0.00846457,0.0155827 0.0127874,0.0348543 0.0127874,0.0577323l0 0.0335c0,0.0117992 0.00117323,0.0226969 0.00351181,0.0327835 0.00243307,0.0101772 0.00648425,0.0181024 0.012248,0.0239567l0 0.00603543 -0.0551181 0c-0.00594094,-0.00576378 -0.00981496,-0.0145906 -0.011437,-0.0262992 -0.0017126,-0.0116181 -0.00251969,-0.0240472 -0.00251969,-0.0370157l0 -0.0325118c0,-0.021437 -0.00486614,-0.0383661 -0.0146811,-0.0508858 -0.00972835,-0.0125197 -0.0231457,-0.0187323 -0.0402598,-0.0187323l-0.0725 0zm0 -0.0408898l0.063315 0c0.0216142,0 0.0375551,-0.00585433 0.0479134,-0.017563 0.0102677,-0.0117087 0.0154016,-0.0282795 0.0154016,-0.0497126 0,-0.0219764 -0.00504331,-0.0390866 -0.0150433,-0.051248 -0.00999606,-0.0121575 -0.0252165,-0.0181929 -0.0456614,-0.0181929l-0.0659252 0 0 0.136717zm0.449055 0.0279213l-0.14248 0 0 0.137795 0.165177 0 0 0.0406181 -0.218764 0 0 -0.384209 0.217142 0 0 0.0411575 -0.163555 0 0 0.123748 0.14248 0 0 0.0408898z"/>
 </g>
</svg>
