<?xml version="1.0" encoding="UTF-8"?>
<!DOCTYPE svg PUBLIC "-//W3C//DTD SVG 1.1//EN" "http://www.w3.org/Graphics/SVG/1.1/DTD/svg11.dtd">
<!-- Creator: CorelDRAW -->
<svg xmlns="http://www.w3.org/2000/svg" xml:space="preserve" width="8.5in" height="8.5in" style="shape-rendering:geometricPrecision; text-rendering:geometricPrecision; image-rendering:optimizeQuality; fill-rule:evenodd; clip-rule:evenodd"
viewBox="0 0 8.5 8.5"
 xmlns:xlink="http://www.w3.org/1999/xlink">
 <defs>
  <style type="text/css">
   <![CDATA[
    .str0 {stroke:#DEDEDD;stroke-width:0.223228}
    .fil3 {fill:#E3556A}
    .fil0 {fill:white}
    .fil2 {fill:#040404}
    .fil1 {fill:#070707}
   ]]>
  </style>
 </defs>
 <g id="Layer_x0020_1">
  <metadata id="CorelCorpID_0Corel-Layer"/>
  <path class="fil0 str0" d="M4.25 0.500004c2.07072,0 3.75,1.67928 3.75,3.75 0,2.07072 -1.67928,3.75 -3.75,3.75 -2.07072,0 -3.75,-1.67928 -3.75,-3.75 0,-2.07072 1.67928,-3.75 3.75,-3.75z"/>
  <g id="_109905064">
   <polygon id="_109905160" class="fil1" points="6.12647,2.74559 6.12107,2.75098 6.11569,2.76177 6.11029,2.76716 6.1049,2.77794 6.09951,2.78333 6.09411,2.79412 6.08872,2.79951 6.08333,2.8103 6.07794,2.81569 6.07255,2.82647 6.06715,2.83187 6.06176,2.84265 6.05637,2.84804 6.05098,2.85883 6.04559,2.86422 6.04019,2.875 6.0348,2.88039 6.02941,2.89118 6.02402,2.89657 6.01863,2.90735 6.01323,2.91275 6.00784,2.92353 6.00245,2.92893 5.99706,2.93971 5.99167,2.9451 5.98627,2.95589 5.98627,2.96128 5.99167,2.96667 6.00245,2.97206 6.00784,2.97745 6.01863,2.98285 6.02941,2.98824 6.04019,2.99363 6.04559,2.99902 6.05637,3.00441 6.06176,3.00981 6.07255,3.0152 6.07794,3.02059 6.08872,3.02598 6.09411,3.03137 6.1049,3.03677 6.11029,3.04216 6.12107,3.04755 6.12647,3.05294 6.13186,3.05833 6.14265,3.06373 6.14804,3.06912 6.15343,3.07451 6.16421,3.07991 6.16961,3.0853 6.175,3.09069 6.18578,3.09608 6.19117,3.10147 6.19657,3.10687 6.20196,3.11226 6.20735,3.11765 6.21813,3.12304 6.22353,3.12843 6.22892,3.13383 6.23431,3.13922 6.2397,3.14461 6.24509,3.15 6.25049,3.15539 6.25588,3.16079 6.26127,3.16618 6.26667,3.17157 6.27206,3.17696 6.27745,3.18235 6.28284,3.18775 6.28823,3.19314 6.29363,3.19853 6.29902,3.20393 6.30441,3.20931 6.3098,3.21471 6.31519,3.2201 6.32059,3.22549 6.32598,3.23089 6.33137,3.23628 6.33676,3.24167 6.34215,3.25245 6.34755,3.25785 6.35294,3.26324 6.35833,3.26863 6.36372,3.27402 6.36911,3.28481 6.37451,3.2902 6.3799,3.29559 6.38529,3.30098 6.39069,3.31177 6.39607,3.31716 6.40147,3.32255 6.40686,3.33333 6.41225,3.33873 6.41765,3.34951 6.42304,3.35491 6.42843,3.3603 6.43382,3.37108 6.43921,3.37647 6.44461,3.38726 6.45,3.39804 6.45539,3.40343 6.46078,3.41422 6.46617,3.41961 6.47157,3.43039 6.47696,3.44118 6.48235,3.45196 6.48774,3.45735 6.49313,3.46814 6.49853,3.47893 6.50392,3.48971 6.50931,3.50049 6.5147,3.51128 6.52009,3.52206 6.52549,3.53824 6.53088,3.54902 6.53627,3.55981 6.54167,3.57598 6.54706,3.58677 6.55245,3.60294 6.55784,3.61912 6.56323,3.62991 6.56863,3.64608 6.57402,3.66765 6.57941,3.68383 6.5848,3.70539 6.59019,3.72157 6.59559,3.74853 6.60098,3.7701 6.60637,3.80245 6.61176,3.83481 6.61715,3.87794 6.61715,4.09363 6.61176,4.13677 6.60637,4.16912 6.60098,4.20147 6.59559,4.22304 6.59019,4.25 6.5848,4.26618 6.57941,4.28775 6.57402,4.30392 6.56863,4.32549 6.56323,4.34167 6.55784,4.35245 6.55245,4.36863 6.54706,4.38481 6.54167,4.39559 6.53627,4.41177 6.53088,4.42255 6.52549,4.43333 6.52009,4.44951 6.5147,4.4603 6.50931,4.47108 6.50392,4.48186 6.49853,4.49265 6.49313,4.50343 6.48774,4.51422 6.48235,4.51961 6.47696,4.53039 6.47157,4.54118 6.46617,4.55196 6.46078,4.55735 6.45539,4.56814 6.45,4.57353 6.44461,4.58431 6.43921,4.5951 6.43382,4.60049 6.42843,4.61128 6.42304,4.61667 6.41765,4.62206 6.41225,4.63284 6.40686,4.63824 6.40147,4.64902 6.39607,4.65441 6.39069,4.6598 6.38529,4.67059 6.3799,4.67598 6.37451,4.68137 6.36911,4.68676 6.36372,4.69755 6.35833,4.70294 6.35294,4.70833 6.34755,4.71372 6.34215,4.71912 6.33676,4.7299 6.33137,4.7353 6.32598,4.74069 6.32059,4.74608 6.31519,4.75147 6.3098,4.75686 6.30441,4.76226 6.29902,4.76765 6.29363,4.77304 6.28823,4.77843 6.28284,4.78382 6.27745,4.78922 6.27206,4.79461 6.26667,4.8 6.26127,4.80539 6.25588,4.81078 6.25049,4.81618 6.24509,4.82157 6.2397,4.82696 6.23431,4.83235 6.22892,4.83774 6.22353,4.84314 6.21274,4.84853 6.20735,4.85392 6.20196,4.85931 6.19657,4.86471 6.19117,4.8701 6.18578,4.87549 6.175,4.88088 6.16961,4.88628 6.16421,4.89167 6.15343,4.89706 6.14804,4.90245 6.14265,4.90784 6.13186,4.91324 6.12647,4.91863 6.12107,4.92402 6.11029,4.92941 6.1049,4.9348 6.09411,4.9402 6.08872,4.94559 6.07794,4.95098 6.07255,4.95637 6.06176,4.96176 6.05637,4.96716 6.04559,4.97255 6.04019,4.97794 6.02941,4.98333 6.01863,4.98872 6.00784,4.99412 6.00245,4.99951 5.99167,5.0049 5.98627,5.0103 5.98627,5.01569 5.99167,5.02647 5.99706,5.03186 6.00245,5.04265 6.00784,5.04804 6.01323,5.05882 6.01863,5.06422 6.02402,5.075 6.02941,5.08039 6.0348,5.09118 6.04019,5.09657 6.04559,5.10735 6.05098,5.11274 6.05637,5.12353 6.06176,5.12892 6.06715,5.1397 6.07255,5.1451 6.07794,5.15588 6.08333,5.16128 6.08872,5.17206 6.09411,5.17745 6.09951,5.18824 6.1049,5.19363 6.11029,5.20441 6.11569,5.2098 6.12107,5.22059 6.12647,5.22598 6.13186,5.23676 6.14265,5.23676 6.14804,5.23137 6.15882,5.22598 6.16961,5.22059 6.175,5.2152 6.18578,5.2098 6.19657,5.20441 6.20196,5.19902 6.21274,5.19363 6.21813,5.18824 6.22892,5.18284 6.23431,5.17745 6.24509,5.17206 6.25049,5.16667 6.26127,5.16128 6.26667,5.15588 6.27745,5.15049 6.28284,5.1451 6.28823,5.1397 6.29902,5.13431 6.30441,5.12892 6.3098,5.12353 6.32059,5.11814 6.32598,5.11274 6.33137,5.10735 6.34215,5.10196 6.34755,5.09657 6.35294,5.09118 6.35833,5.08578 6.36372,5.08039 6.37451,5.075 6.3799,5.06961 6.38529,5.06422 6.39069,5.05882 6.39607,5.05343 6.40147,5.04804 6.41225,5.04265 6.41765,5.03726 6.42304,5.03186 6.42843,5.02647 6.43382,5.02108 6.43921,5.01569 6.44461,5.0103 6.45,5.0049 6.45539,4.99951 6.46078,4.99412 6.46617,4.98872 6.47157,4.98333 6.47696,4.97794 6.48235,4.97255 6.48774,4.96716 6.49313,4.96176 6.49853,4.95637 6.50392,4.95098 6.50931,4.94559 6.5147,4.9402 6.52009,4.9348 6.52549,4.92941 6.53088,4.92402 6.53627,4.91863 6.54167,4.90784 6.54706,4.90245 6.55245,4.89706 6.55784,4.89167 6.56323,4.88628 6.56863,4.88088 6.57402,4.8701 6.57941,4.86471 6.5848,4.85931 6.59019,4.85392 6.59559,4.84314 6.60098,4.83774 6.60637,4.83235 6.61176,4.82696 6.61715,4.81618 6.62255,4.81078 6.62794,4.8 6.63333,4.79461 6.63872,4.78922 6.64411,4.77843 6.64951,4.77304 6.6549,4.76226 6.66029,4.75686 6.66569,4.74608 6.67107,4.74069 6.67647,4.7299 6.68186,4.72451 6.68725,4.71372 6.69265,4.70833 6.69804,4.69755 6.70343,4.68676 6.70882,4.67598 6.71421,4.67059 6.71961,4.6598 6.725,4.64902 6.73039,4.63824 6.73578,4.63284 6.74117,4.62206 6.74657,4.61128 6.75196,4.60049 6.75735,4.58971 6.76274,4.57892 6.76813,4.56275 6.77353,4.55196 6.77892,4.54118 6.78431,4.53039 6.7897,4.51422 6.79509,4.50343 6.80049,4.49265 6.80588,4.47647 6.81127,4.4603 6.81667,4.44951 6.82206,4.43333 6.82745,4.41716 6.83284,4.40098 6.83823,4.38481 6.84363,4.36324 6.84902,4.34706 6.85441,4.32549 6.8598,4.30392 6.86519,4.28235 6.87059,4.25539 6.87598,4.22843 6.88137,4.19608 6.88676,4.15833 6.89215,4.10445 6.89215,3.86712 6.88676,3.81324 6.88137,3.77549 6.87598,3.74314 6.87059,3.71618 6.86519,3.68922 6.8598,3.66765 6.85441,3.64608 6.84902,3.62451 6.84363,3.60833 6.83823,3.58677 6.83284,3.57059 6.82745,3.55441 6.82206,3.53824 6.81667,3.52206 6.81127,3.51128 6.80588,3.4951 6.80049,3.47893 6.79509,3.46814 6.7897,3.45735 6.78431,3.44118 6.77892,3.43039 6.77353,3.41961 6.76813,3.40883 6.76274,3.39265 6.75735,3.38187 6.75196,3.37108 6.74657,3.3603 6.74117,3.34951 6.73578,3.34412 6.73039,3.33333 6.725,3.32255 6.71961,3.31177 6.71421,3.30098 6.70882,3.29559 6.70343,3.28481 6.69804,3.27402 6.69265,3.26863 6.68725,3.25785 6.68186,3.24706 6.67647,3.24167 6.67107,3.23089 6.66569,3.22549 6.66029,3.21471 6.6549,3.20931 6.64951,3.19853 6.64411,3.19314 6.63872,3.18235 6.63333,3.17696 6.62794,3.17157 6.62255,3.16079 6.61715,3.15539 6.61176,3.15 6.60637,3.13922 6.60098,3.13383 6.59559,3.12843 6.59019,3.11765 6.5848,3.11226 6.57941,3.10687 6.57402,3.10147 6.56863,3.09069 6.56323,3.0853 6.55784,3.07991 6.55245,3.07451 6.54706,3.06912 6.54167,3.06373 6.53627,3.05833 6.53088,3.04755 6.52549,3.04216 6.52009,3.03677 6.5147,3.03137 6.50931,3.02598 6.50392,3.02059 6.49853,3.0152 6.49313,3.00981 6.48774,3.00441 6.48235,2.99902 6.47696,2.99363 6.47157,2.98824 6.46617,2.98285 6.46078,2.97745 6.45539,2.97206 6.45,2.96667 6.44461,2.96128 6.43921,2.95589 6.43382,2.95049 6.42843,2.9451 6.42304,2.93971 6.41765,2.93431 6.41225,2.92893 6.40147,2.92353 6.39607,2.91814 6.39069,2.91275 6.38529,2.90735 6.3799,2.90196 6.37451,2.89657 6.36372,2.89118 6.35833,2.88579 6.35294,2.88039 6.34755,2.875 6.34215,2.86961 6.33137,2.86422 6.32598,2.85883 6.32059,2.85343 6.3098,2.84804 6.30441,2.84265 6.29902,2.83726 6.28823,2.83187 6.28284,2.82647 6.27745,2.82108 6.26667,2.81569 6.26127,2.8103 6.25049,2.80491 6.24509,2.79951 6.23431,2.79412 6.22892,2.78873 6.21813,2.78333 6.21274,2.77794 6.20196,2.77255 6.19657,2.76716 6.18578,2.76177 6.175,2.75637 6.16961,2.75098 6.15882,2.74559 6.14804,2.7402 6.14265,2.73481 6.13186,2.73481 "/>
   <path id="_109905088" class="fil2" d="M3.60833 4.91863l0.0053937 0.0107835 0.00538976 0.0107835 0.0053937 0.0161772 0.00538976 0.0107835 0.0053937 0.0107835 0.0053937 0.0161772 0.00538976 0.0107835 0.0053937 0.0107835 0.00538976 0.0161772 0.0053937 0.0107874 0.0053937 0.0107835 0.00538976 0.0161732 0.0053937 0.0107874 0.0053937 0.0107835 0.00538976 0.0161772 0.0053937 0.0107835 0.00538976 0.0107835 0.0053937 0.0161772 0.00538976 0.0107835 0.0053937 0.0107835 0.0053937 0.0161772 0.00538976 0.0107835 0.0053937 0.0107874 0.00538976 0.0161772 0.0053937 0.0107835 0.0053937 0.0107835 0.00538976 0.0161772 0.0053937 0.0107835 0.0053937 0.0107835 0.00538976 0.0161772 0.0053937 0.0107835 0.00538976 0.0107835 0.0053937 0.0161772 0.0053937 0.0107835 0.00538976 0.0107874 0.0053937 0.0161732 0.00538976 0.0107874 0.0053937 0.0107835 0.0053937 0.0161772 0.00538976 0.0107835 0.0053937 0.0107835 0.00538976 0.0161772 0.0053937 0.0107835 0.0053937 0.0107835 0.00538976 0.0161772 0.0053937 0.0107835 0.0053937 0.0107874 0.00538976 0.0161732 0.0053937 0.0107874 0.00538976 0.0107835 0.0053937 0.0161772 0.00538976 0.0107835 0.0053937 0.0107835 0.0053937 0.0161772 0.00538976 0.0107835 0.0053937 0.0107835 0.00538976 0.0161772 0.0053937 0.0107835 0.0053937 0.0107874 0.00538976 0.0161732 0.0053937 0.0107874 0.0053937 0.0107835 0.00538976 0.0161772 0.0053937 0.0107835 0.00538976 0.0107835 0.0053937 0.0161772 0.0053937 0.0107835 0.00538976 0.0107835 0.0053937 0.0161772 0.00538976 0.0107835 0.0053937 0.0107835 0.0053937 0.0161772 0.00538976 0.0107874 0.0053937 0.0107835 0.00538976 0.0161772 0.0053937 0.0107835 0.0053937 0.0107835 0.00538976 0.0161772 0.0053937 0.0107835 0.00538976 0.0107835 0.0053937 0.0161772 0.0053937 0.0107835 0.00538976 0.0107874 0 0.00538976 -0.0107835 0.0053937 -0.0107835 0.00538976 -0.0107835 0.0053937 -0.0107874 0.00538976 -0.0107835 0.0053937 -0.0107835 0.0053937 -0.0107835 0.00538976 -0.0107835 0.0053937 -0.0107874 0.0053937 -0.0107835 0.00538976 -0.0107835 0.0053937 -0.0107835 0.00538976 -0.0107874 0.0053937 -0.0107835 0.0053937 -0.0107835 0.00538976 -0.0107835 0.0053937 -0.0107835 0.00538976 -0.0107835 0.0053937 -0.0107874 0.0053937 -0.0107835 0.00538976 -0.0107835 0.0053937 -0.0107835 0.00538976 -0.0107874 0.0053937 -0.0107835 0.0053937 -0.0107835 0.00538976 -0.0107835 0.0053937 -0.0107835 0.0053937 -0.0107874 0.00538976 -0.0107835 0.0053937 -0.0107835 0.00538976 -0.0107835 0.0053937 -0.0107874 0.0053937 -0.0107835 0.00538976 -0.0107835 0.0053937 -0.0107835 0.00538976 -0.0107835 0.0053937 -0.0107874 0.00538976 -0.0107835 0.0053937 -0.0107835 0.0053937 -0.0107835 0.00538976 -0.0107835 0.0053937 -0.0107874 0.0053937 -0.0107835 0.00538976 -0.0107835 0.0053937 -0.0107835 0.00538976 -0.0107874 0.0053937 -0.0107835 0.0053937 -0.0107835 0 -0.0053937 -0.0107874 -0.00538976 -0.0107835 -0.0053937 -0.0161772 -0.00538976 -0.0107835 -0.0053937 -0.0107835 -0.00538976 -0.0161772 -0.0053937 -0.0107835 -0.0053937 -0.0107835 -0.00538976 -0.0161772 -0.0053937 -0.0107835 -0.0053937 -0.0107874 -0.00538976 -0.0161732 -0.0053937 -0.0107874 -0.00538976 -0.0107835 -0.0053937 -0.0161772 -0.0053937 -0.0107835 -0.00538976 -0.0107835 -0.0053937 -0.0161772 -0.0053937 -0.0107835 -0.00538976 -0.0107835 -0.0053937 -0.0161772 -0.00538976 -0.0107835 -0.0053937 -0.0107835 -0.00538976 -0.0161772 -0.0053937 -0.0107874 -0.0053937 -0.0107835 -0.00538976 -0.0161772 -0.0053937 -0.0107835 -0.0053937 -0.0107835 -0.00538976 -0.0161772 -0.0053937 -0.0107835 -0.00538976 -0.0107835 -0.0053937 -0.0161772 -0.0053937 -0.0107835 -0.00538976 -0.0107835 -0.0053937 -0.0161772 -0.00538976 -0.0107835 -0.0053937 -0.0107874 -0.00538976 -0.0161772 -0.0053937 -0.0107835 -0.0053937 -0.0107835 -0.00538976 -0.0161772 -0.0053937 -0.0107835 -0.0053937 -0.0107835 -0.00538976 -0.0161772 -0.0053937 -0.0107835 -0.00538976 -0.0107874 -0.0053937 -0.0161732 -0.0053937 -0.0107874 -0.00538976 -0.0107835 -0.0053937 -0.0161732 -0.0053937 -0.0107874 -0.00538976 -0.0107835 -0.0053937 -0.0161772 -0.00538976 -0.0107835 -0.0053937 -0.0107835 -0.00538976 -0.0161772 -0.0053937 -0.0107835 -0.0053937 -0.0107835 -0.00538976 -0.0161772 -0.0053937 -0.0107874 -0.0053937 -0.0107835 -0.00538976 -0.0161772 -0.0053937 -0.0107835 -0.00538976 -0.0107835 -0.0053937 -0.0161772 -0.0053937 -0.0107835 -0.00538976 -0.0107835 -0.0053937 -0.0161772 -0.00538976 -0.0107835 -0.0053937 -0.0107835 -0.0053937 -0.0161772 -0.00538976 -0.0107835 -0.0053937 -0.0107874 -0.00538976 -0.0161732 -0.0053937 -0.0107874 -0.0053937 -0.0107835 -0.00538976 -0.0161772 -0.0053937 -0.0107835 -0.00538976 -0.0107835 -0.0053937 -0.0161772 -0.0053937 -0.0107835 -0.00538976 -0.0107835 -0.0053937 -0.0161772 -0.0053937 -0.0107874 -0.00538976 -0.0107835 -0.0053937 -0.0161732 -0.00538976 -0.0107874 -0.0053937 -0.0107835 -0.00538976 -0.0161772 -0.0053937 -0.0107835 -0.0053937 -0.0107835 -0.00538976 -0.0161772 -0.0053937 -0.0107835 -0.0053937 -0.0107835 -0.00538976 -0.0161772 -0.0053937 -0.0107835 -0.00538976 -0.0107874 -0.0053937 -0.0161772 -0.0053937 -0.0107835 -0.00538976 -0.0107835 -0.0053937 -0.0161772 -0.0053937 -0.0107835 -0.00538976 -0.0108701 0.630882 0.00548031zm1.92499 -2.91715l0.0755079 0 0.0269528 0.00538976 0.0215669 0.0053937 0.0161772 0.00538976 0.0107835 0.0053937 0.0107874 0.0053937 0.0107835 0.00538976 0.00538976 0.0053937 0.0107874 0.00538976 0.00538976 0.0053937 0.0107835 0.00538976 0.0053937 0.0053937 0.0053937 0.0053937 0.00538976 0.00538976 0.0053937 0.0053937 0.0053937 0.0053937 0.00538976 0.00538976 0.0053937 0.0053937 0.00538976 0.00538976 0.0053937 0.0107874 0.0053937 0.00538976 0.00538976 0.0053937 0.0053937 0.0107835 0.00538976 0.0107835 0.0053937 0.0107835 0.00538976 0.0107874 0.0053937 0.0161732 0.0053937 0.0161772 0.00538976 0.0215709 0.0053937 0.932843 0.0107835 0.00538976 0.0107835 0.0053937 0.0107874 0.00538976 0.00538976 0.0053937 0.0107835 0.0053937 0.0107874 0.00538976 0.0107835 0.0053937 0.00538976 0.0053937 0.0107874 0.00538976 0.0107835 0.0053937 0.0053937 0.00538976 0.0107835 0.0053937 0.00538976 0.0053937 0.0107874 0.00538976 0.00538976 0.0053937 0.0053937 0.00538976 0.0107835 0.0053937 0.00538976 0.00538976 0.0107874 0.0053937 0.00538976 0.0053937 0.0053937 0.00538976 0.0053937 0.0053937 0.00538976 0.0053937 0.0107835 0.00538976 0.0053937 0.0053937 0.0053937 0.00538976 0.00538976 0.0053937 0.0053937 0.0053937 0.00538976 0.00538976 0.0053937 0.0053937 0.0053937 0.00538976 0.00538976 0.0053937 0.0053937 0.0053937 0.0107835 0.00538976 0.0053937 0.0107835 0.00538976 0.0053937 0.0053937 0.0053937 0.00538976 0.00538976 0.0053937 0.0053937 0.0053937 0.00538976 0.00538976 0.0053937 0.0053937 0.0053937 0.0053937 0.00538976 0.00538976 0.0053937 0.0053937 0.0107835 0.00538976 0.0053937 0.0053937 0.00538976 0.00538976 0.0053937 0.0053937 0.0107835 0.0053937 0.0053937 0.00538976 0.00538976 0.0053937 0.0107874 0.0053937 0.00538976 0.00538976 0.0107835 0.0053937 0.0053937 0.00538976 0.0107835 0.0053937 0.0053937 0.0053937 0.0107835 0.00538976 0.0053937 0.0053937 0.0107835 0.00538976 0.0107835 0.0053937 0.0053937 0.0053937 0.0107835 0.00538976 0.0107835 0.0053937 0.0107835 0.00538976 0.0107874 0.0053937 0.0107835 0.0053937 0.0107835 0.00538976 0.0107835 0.0053937 0.0161772 0.00538976 0.0107835 0.0053937 0.0107835 0.0053937 0.0161772 0.00538976 0.0161772 0.0053937 0.0161772 0.0053937 0.0161772 0.00538976 0.0161732 0.0053937 0.0161772 0.00538976 0.0215709 0.0053937 0.0269606 0.00538976 0.0269606 0.0053937 0.0269606 0.0053937 0.0485276 0 0.188724 -0.0053937 0.0431378 -0.0053937 0.0269606 -0.00538976 0.0269606 -0.0053937 0.0269646 -0.00538976 0.0215669 -0.0053937 0.0161772 -0.00538976 0.0161732 -0.0053937 0.0161772 -0.0053937 0.0161772 -0.00538976 0.0161772 -0.0053937 0.0161772 -0.0053937 0.0107835 -0.00538976 0.0107835 -0.0053937 0.0161772 -0.00538976 0.0107835 -0.0053937 0.0107874 -0.0053937 0.0107835 -0.00538976 0.0107835 -0.0053937 0.0107835 -0.00538976 0.0107835 -0.0053937 0.0107835 -0.0053937 0.0053937 -0.00538976 0.0107835 -0.0053937 0.0107874 -0.00538976 0.00538976 -0.0053937 0.0107835 -0.0053937 0.0053937 -0.00538976 0.0107835 -0.0053937 0.0053937 -0.00538976 0.0107835 -0.0053937 0.0053937 -0.0053937 0.0107835 -0.00538976 0.00538976 -0.0053937 0.0053937 -0.0053937 0.0107835 -0.00538976 0.0053937 -0.0053937 0.0053937 -0.00538976 0.00538976 -0.0053937 0.0107835 -0.00538976 0.0053937 -0.0053937 0.0053937 -0.0053937 0.00538976 -0.00538976 0.0053937 -0.0053937 0.00538976 -0.0053937 0.0053937 -0.00538976 0.00538976 -0.0053937 0.0053937 -0.00538976 0.0107835 -0.0053937 0.0053937 -0.0053937 0.0053937 -0.00538976 0.00538976 -0.0107835 0.0053937 -0.0053937 0.00538976 -0.0053937 0.0053937 -0.00538976 0.0053937 -0.0053937 0.00538976 -0.00538976 0.0053937 -0.0053937 0.00538976 -0.0053937 0.0053937 -0.00538976 0.0053937 -0.0107835 0.00538976 -0.0053937 0.0053937 -0.0053937 0.00538976 -0.00538976 0.0053937 -0.0107874 0.0053937 -0.00538976 0.00538976 -0.0053937 0.0053937 -0.0107835 0.0053937 -0.00538976 0.00538976 -0.0107874 0.0053937 -0.00538976 0.00538976 -0.0107835 0.0053937 -0.0053937 0.0053937 -0.0107835 0.00538976 -0.0053937 0.0053937 -0.0107835 0.00538976 -0.0107835 0.0053937 -0.0107874 0.00538976 -0.00538976 0.0053937 -0.0107835 0.0053937 -0.0107874 0.00538976 -0.0107835 0.0053937 -0.0107835 0.0053937 -0.0053937 0.938232 -0.00538976 0.0215709 -0.0053937 0.0161732 -0.0053937 0.0107835 -0.00538976 0.0107874 -0.0053937 0.0107835 -0.00538976 0.0107835 -0.0053937 0.0107835 -0.00538976 0.0053937 -0.0053937 0.0107835 -0.0053937 0.0053937 -0.00538976 0.00538976 -0.0053937 0.0053937 -0.00538976 0.0053937 -0.0053937 0.00538976 -0.0053937 0.0053937 -0.00538976 0.00538976 -0.0053937 0.0053937 -0.0053937 0.0053937 -0.0107835 0.00538976 -0.00538976 0.0053937 -0.0107874 0.0053937 -0.00538976 0.00538976 -0.0107835 0.0053937 -0.0107874 0.00538976 -0.0107835 0.0053937 -0.0161772 0.0053937 -0.0215669 0.00538976 -0.0269606 0.0053937 -0.0754921 0 -0.0269606 -0.0053937 -0.0215669 -0.00538976 -0.0107835 -0.0053937 -0.0161772 -0.0053937 -0.0107835 -0.00538976 -0.0107874 -0.0053937 -0.00538976 -0.00538976 -0.0107835 -0.0053937 -0.0053937 -0.0053937 -0.0107835 -0.00538976 -0.0053937 -0.0053937 -0.00538976 -0.0053937 -0.0107874 -0.00538976 -0.00538976 -0.0053937 -0.0053937 -0.00538976 -0.00538976 -0.0053937 -0.0107874 -0.0053937 -0.00538976 -0.00538976 -0.0053937 -0.0053937 -0.00538976 -0.00538976 -0.0107874 -0.0053937 -0.00538976 -0.0053937 -0.0053937 -0.00538976 -0.00538976 -0.0053937 -0.0107874 -0.00538976 -0.00538976 -0.0053937 -0.0053937 -0.0053937 -0.0053937 -0.00538976 -0.0107835 -0.0053937 -0.00538976 -0.0053937 -0.0053937 -0.00538976 -0.0053937 -0.0053937 -0.0107835 -0.00538976 -0.00538976 -0.0053937 -0.0053937 -0.00538976 -0.00538976 -0.0053937 -0.0107874 -0.0053937 -0.00538976 -0.00538976 -0.0053937 -0.0053937 -0.0053937 -0.00538976 -0.0107835 -0.0053937 -0.00538976 -0.0053937 -0.0053937 -0.00538976 -0.0053937 -0.0053937 -0.0107835 -0.0053937 -0.00538976 -0.00538976 -0.0053937 -0.0053937 -0.0053937 -0.00538976 -0.0107835 -0.0053937 -0.00538976 -0.0053937 -0.0053937 -0.00538976 -0.0053937 -0.0053937 -0.0107835 -0.00538976 -0.0053937 -0.0053937 -0.00538976 -0.0053937 -0.0053937 -0.00538976 -0.0107835 -0.0053937 -0.0053937 -0.00538976 -0.00538976 -0.0053937 -0.0053937 -0.0053937 -0.0107835 -0.00538976 -0.00538976 -0.0053937 -0.0053937 -0.0053937 -0.0053937 -0.00538976 -0.0107835 -0.0053937 -0.0053937 -0.00538976 -0.00538976 -0.0053937 -0.0053937 -0.0053937 -0.0107835 -0.00538976 -0.0053937 -0.0053937 -0.00538976 -0.00538976 -0.0053937 -0.0053937 -0.0107835 -0.00538976 -0.0053937 -0.0053937 -0.00538976 -0.0053937 -0.0053937 -0.00538976 -0.0107835 -0.0053937 -0.0053937 -0.0053937 -0.00538976 -0.00538976 -0.0053937 -0.0053937 -0.0107835 -0.00538976 -0.0053937 -0.0053937 -0.00538976 -0.0053937 -0.0053937 -0.00538976 -0.0107835 -0.0053937 -0.0053937 -0.00538976 -0.00538976 -0.0053937 -0.0053937 -0.0053937 -0.0107835 -0.00538976 -0.0053937 -0.0053937 -0.00538976 -0.00538976 -0.0053937 -0.0053937 -0.0107835 -0.0053937 -0.0053937 -0.00538976 -0.00538976 -0.0053937 -0.0053937 -0.0053937 -0.0107835 -0.00538976 -0.0053937 -0.0053937 -0.0053937 -0.00538976 -0.00538976 -0.0053937 -0.0107835 -0.0053937 -0.0053937 -0.00538976 -0.00538976 -0.0053937 -0.0053937 -0.00538976 -0.0107835 -0.0053937 -0.0053937 -0.00538976 -0.0053937 -0.0053937 -0.00538976 -0.0053937 -0.0107835 -0.00538976 -0.0053937 -0.0053937 -0.0053937 -0.0053937 -0.00538976 -0.00538976 -0.0107835 -0.0053937 -0.0053937 -0.00538976 -0.00538976 -0.0053937 -0.0053937 -0.0053937 -0.0107835 -0.00538976 -0.0053937 -0.0053937 -0.0053937 -0.00538976 -0.00538976 -0.0053937 -0.0107835 -0.0053937 -0.0053937 -0.00538976 -0.0053937 -0.0053937 -0.00538976 -0.00538976 -0.0053937 -0.0053937 -0.0107835 -0.0053937 -0.0053937 -0.00538976 -0.00538976 -0.0053937 -0.0053937 -0.00538976 -0.0107835 -0.0053937 -0.0053937 -0.0053937 -0.00538976 -0.00538976 -0.0053937 -0.0053937 -0.0107835 -0.0053937 -0.0053937 -0.00538976 -0.00538976 -0.0053937 -0.0053937 -0.00538976 -0.0107835 -0.0053937 -0.0053937 -0.00538976 -0.00538976 -0.0053937 -0.0053937 -0.0053937 -0.0107835 -0.00538976 -0.0053937 -0.0053937 -0.00538976 -0.0053937 -0.0053937 -0.00538976 -0.0107835 -0.0053937 -0.0053937 -0.00538976 -0.00538976 -0.0053937 -0.0053937 -0.0053937 -0.0107835 -0.00538976 -0.0053937 -0.0053937 -0.0053937 -0.0053937 -0.00538976 -0.00538976 -0.0107835 -0.0053937 -0.0053937 -0.00538976 -0.00538976 -0.0053937 -0.0053937 -0.00538976 -0.0107835 -0.0053937 -0.0053937 -0.0053937 -0.0053937 -0.00538976 -0.00538976 -0.0053937 -0.0107835 -0.0053937 -0.0053937 -0.00538976 -0.0053937 -0.0053937 -0.00538976 -0.00538976 -0.0107835 -0.0053937 -0.0053937 -0.0053937 -0.0053937 -0.00538976 -0.00538976 -0.0053937 -0.0107835 -0.00538976 -0.0053937 -0.0053937 -0.0053937 -0.00538976 -0.00538976 -0.0053937 -0.0107835 -0.0053937 -0.0053937 -0.00538976 -0.0053937 -0.0053937 -0.00538976 -0.0053937 -0.0107874 -0.00538976 -0.00538976 -0.0053937 -0.0053937 -0.00538976 -0.00538976 -0.0053937 -0.0107835 -0.0053937 -0.0053937 -0.00538976 -0.0053937 -0.0053937 -0.00538976 -0.0053937 -0.0107874 -0.00538976 -0.00538976 -0.0053937 -0.0053937 -0.00538976 -0.00538976 -0.0053937 -0.0107874 -0.00538976 -0.00538976 -0.0053937 -0.0053937 -0.0053937 -0.00538976 -0.00538976 -0.0107874 -0.0053937 -0.00538976 -0.00538976 -0.248039 0 0.00538976 0.0161732 0.0053937 0.0107874 0.0053937 0.0107835 0.00538976 0.0161732 0.0053937 0.0107874 0.0053937 0.0107835 0.00538976 0.0161772 0.0053937 0.0107835 0.00538976 0.0107835 0.0053937 0.0161772 0.0053937 0.0107835 0.00538976 0.0107835 0.0053937 0.0161772 0.00538976 0.0107835 0.0053937 0.0107874 0.0053937 0.0161772 0.00538976 0.0107835 0.0053937 0.0107835 0.00538976 0.0161772 0.0053937 0.0107835 0.0053937 0.0107835 0.00538976 0.0161772 0.0053937 0.0107835 0.00538976 0.0107874 0.0053937 0.0161732 0.0053937 0.0107835 0.00538976 0.0107874 0.0053937 0.0161772 0.00538976 0.0107835 0.0053937 0.0107835 0.0053937 0.0161772 0.00538976 0.0107835 0.0053937 0.0107835 0.00538976 0.0161772 0.0053937 0.0107835 0.0053937 0.0107835 0.00538976 0.0161772 0.0053937 0.0107874 0.0053937 0.0107835 0.00538976 0.0161732 0.0053937 0.0107874 0.00538976 0.0107835 0.0053937 0.0161772 0.0053937 0.0107835 0.00538976 0.0107835 0.0053937 0.0161772 0.00538976 0.0107835 0.0053937 0.0107835 0.0053937 0.0161772 0.00538976 0.0107835 0.0053937 0.0107874 0.00538976 0.0161772 0.0053937 0.0107835 0.0053937 0.0107835 0.00538976 0.0161772 0.0053937 0.0107835 0.00538976 0.0107835 0.0053937 0.0161772 0.0053937 0.0107835 0.00538976 0.0107835 0.0053937 0.0161772 0.0053937 0.0107835 0.00538976 0.0107874 0.0053937 0.0161732 0.00538976 0.0107874 0.0053937 0.0107835 0.00538976 0.0161772 0.0053937 0.0107835 0.0053937 0.0107835 0.00538976 0.0161772 0.0053937 0.0107835 0.0053937 0.0161772 0.00538976 0.0107835 0.0053937 0.0107835 0.00538976 0.0161772 0.0053937 0.0107835 0.0053937 0.0215709 0.00538976 0.0215669 0 0.0916693 -0.00538976 0.0269606 -0.0053937 0.0161732 -0.0053937 0.0107874 -0.00538976 0.0161732 -0.0053937 0.0107874 -0.00538976 0.0107835 -0.0053937 0.0053937 -0.0053937 0.0107835 -0.00538976 0.00538976 -0.0053937 0.0053937 -0.0053937 0.0107835 -0.00538976 0.0053937 -0.0053937 0.00538976 -0.00538976 0.0053937 -0.0053937 0.00538976 -0.00538976 0.0053937 -0.0053937 0.0053937 -0.0107835 0.00538976 -0.0053937 0.0053937 -0.0053937 0.0053937 -0.0107835 0.00538976 -0.0107835 0.0053937 -0.0053937 0.00538976 -0.0107835 0.0053937 -0.0107835 0.0053937 -0.0107835 0.00538976 -0.0107835 0.0053937 -0.0107874 0.00538976 -0.0107835 0.0053937 -0.0107835 0.0053937 -0.0107835 0.00538976 -0.0107874 0.0053937 -0.0107835 0.00538976 -0.0107835 0.0053937 -0.0107835 0.0053937 -0.0107835 0.00538976 -0.0107874 0.0053937 -0.0107835 0.0053937 -0.0107835 0.00538976 -0.0107835 0.0053937 -0.0107835 0.00538976 -0.0107874 0.0053937 -0.0107835 0.0053937 -0.0107835 0.00538976 -0.0107835 0.0053937 -0.0107835 0.00538976 -0.0107874 0.0053937 -0.0107835 0.00538976 -0.0107835 0.0053937 -0.0107835 0.0053937 -0.0107874 0.00538976 -0.0107835 0.0053937 -0.0107835 0.0053937 -0.0107835 0.00538976 -0.0107835 0.0053937 -0.0107874 0.00538976 -0.0107835 0.0053937 -0.0107835 0.0053937 -0.0107835 0.00538976 -0.0107835 0.0053937 -0.0107874 0.0053937 -0.0107835 0.00538976 -0.0107835 0.0053937 -0.0107835 0.00538976 -0.0107874 0.0053937 -0.0107835 0.00538976 -0.0107835 0.0053937 -0.0107835 0.0053937 -0.0107835 0.00538976 -0.0107835 0.0053937 -0.0107874 0.0053937 -0.0107835 0.00538976 -0.0107835 0.0053937 -0.0161772 0.00538976 -0.0161772 0.0053937 -0.0161772 0.0053937 -0.0269606 0.00538976 -0.0754882 0 -0.0323543 -0.00538976 -0.0161772 -0.0053937 -0.0161772 -0.0053937 -0.0107835 -0.00538976 -0.0107835 -0.0053937 -0.0107835 -0.00538976 -0.0107835 -0.0053937 -0.0053937 -0.0053937 -0.0107835 -0.00538976 -0.0053937 -0.0053937 -0.00538976 -0.0053937 -0.0053937 -0.00538976 -0.0107835 -0.0053937 -0.0053937 -0.0107835 -0.00538976 -0.00538976 -0.0053937 -0.0053937 -0.00538976 -0.0053937 -0.0053937 -0.00538976 -0.0053937 -0.0053937 -0.00538976 -0.0107835 -0.0053937 -0.0053937 -0.0053937 -0.0107835 -0.00538976 -0.0107835 -0.0053937 -0.0107874 -0.00538976 -0.0107835 -0.0053937 -0.0161732 -0.0053937 -0.0107874 -0.00538976 -0.0107835 -0.0053937 -0.0161772 -0.0053937 -0.0107835 -0.00538976 -0.0107835 -0.0053937 -0.0161772 -0.00538976 -0.0107835 -0.0053937 -0.0107835 -0.00538976 -0.0161772 -0.0053937 -0.0107835 -0.0053937 -0.0107874 -0.00538976 -0.0161772 -0.0053937 -0.0107835 -0.0053937 -0.0107835 -0.00538976 -0.0161772 -0.0053937 -0.0107835 -0.00538976 -0.0107835 -0.0053937 -0.0161772 -0.0053937 -0.0107835 -0.00538976 -0.0107835 -0.0053937 -0.0161772 -0.00538976 -0.0107835 -0.0053937 -0.0107874 -0.0053937 -0.0161732 -0.00538976 -0.0107874 -0.0053937 -0.0107835 -0.00538976 -0.0161772 -0.0053937 -0.0107835 -0.0053937 -0.0107835 -0.00538976 -0.0161772 -0.0053937 -0.0107835 -0.00538976 -0.0107835 -0.0053937 -0.0161772 -0.0053937 -0.0107835 -0.00538976 -0.0107874 -0.0053937 -0.0161732 -0.0053937 -0.0107874 -0.00538976 -0.0107835 -0.0053937 -0.0161772 -0.00538976 -0.0107835 -0.0053937 -0.0107835 -0.00538976 -0.0161772 -0.0053937 -0.0107835 -0.0053937 -0.0107835 -0.00538976 -0.0161772 -0.0053937 -0.0107835 -0.0053937 -0.0107874 -0.00538976 -0.0161732 -0.0053937 -0.0107874 -0.00538976 -0.0107835 -0.0053937 -0.0161772 -0.0053937 -0.0107835 -0.00538976 -0.0107835 -0.0053937 -0.0161772 -0.0053937 -0.0107835 -0.00538976 -0.0107835 -0.0053937 -0.0161772 -0.00538976 -0.0107835 -0.0053937 -0.0107835 -0.00538976 -0.0161772 -0.0053937 -0.0107874 -0.0053937 -0.0107835 -0.00538976 -0.0161772 -0.0053937 -0.0107835 -0.00538976 -0.0107835 -0.0053937 -0.0161772 -0.0053937 -0.0107835 -0.00538976 -0.0107835 -0.0053937 -0.0161772 -0.0053937 -0.0107835 -0.00538976 -0.0107874 -0.0053937 -0.0161732 -0.00538976 -0.0107835 -0.0053937 -0.0107874 -0.00538976 -0.0161772 -0.0053937 -0.0107835 -0.0053937 -0.0107835 -0.00538976 -0.0161772 -0.0053937 -0.0107835 -0.0053937 -0.0107835 -0.00538976 -0.0161772 -0.0053937 -0.0107835 -0.00538976 -0.0107835 -0.0053937 -0.0161772 -0.0053937 -0.0107874 -0.00538976 -0.0107835 -0.0053937 -0.0161732 -0.0053937 -0.0107874 -0.00538976 -0.0107835 -0.0053937 -0.0161772 -0.00538976 -0.0107835 -0.0053937 -0.0107835 -0.00538976 -0.0161772 -0.0053937 -0.0107835 -0.0053937 -0.0107835 -0.00538976 -0.0161772 -0.0053937 -0.0107874 -0.00538976 -0.0107835 -0.0053937 -0.0161772 -0.0053937 -0.0107835 -0.00538976 -0.0107835 -0.0053937 -0.0161772 -0.0053937 -0.0107835 -0.00538976 -0.0107835 -0.0053937 -0.0161772 -0.00538976 -0.0107835 -0.0053937 -0.0107874 -0.0053937 -0.0161732 -0.00538976 -0.0107835 -0.0053937 -0.0107874 -0.00538976 -0.0161732 -0.215689 -0.0053937 -0.0539213 -0.0053937 -0.0377441 -0.00538976 -0.0269606 -0.0053937 -0.0269606 -0.0053937 -0.0215669 -0.00538976 -0.0161772 -0.0053937 -0.0215709 -0.00538976 -0.0161732 -0.0053937 -0.0161772 -0.00538976 -0.0161772 -0.0053937 -0.0107835 -0.0053937 -0.0161772 -0.00538976 -0.0161772 -0.0053937 -0.0107835 -0.0053937 -0.0107835 -0.00538976 -0.0107835 -0.0053937 -0.0107874 -0.00538976 -0.0107835 -0.0053937 -0.0107835 -0.0053937 -0.0107835 -0.00538976 -0.0107874 -0.0053937 -0.0107835 -0.0053937 -0.0053937 -0.00538976 -0.0107835 -0.0053937 -0.0107835 -0.00538976 -0.00538976 -0.0053937 -0.0107874 -0.00538976 -0.00538976 -0.0053937 -0.0107874 -0.0053937 -0.00538976 -0.00538976 -0.0107835 -0.0053937 -0.0053937 -0.00538976 -0.0107835 -0.0053937 -0.0053937 -0.0053937 -0.00538976 -0.00538976 -0.0107835 -0.0053937 -0.0053937 -0.0053937 -0.0053937 -0.00538976 -0.00538976 -0.0053937 -0.0053937 -0.00538976 -0.0107835 -0.0053937 -0.0053937 -0.0053937 -0.00538976 -0.00538976 -0.0053937 -0.0053937 -0.0053937 -0.00538976 -0.00538976 -0.0053937 -0.0053937 -0.0053937 -0.0053937 -0.00538976 -0.00538976 -0.0053937 -0.0053937 -0.00538976 -0.00538976 -0.0053937 -0.0053937 -0.0053937 -0.00538976 -0.00538976 -0.0053937 -0.0053937 -0.0053937 -0.0053937 -0.00538976 -0.00538976 -0.0053937 -0.0053937 -0.0053937 -0.00538976 -0.00538976 -0.0053937 -0.0053937 -0.00538976 -0.00538976 -0.0107874 -0.0053937 -0.00538976 -0.0053937 -0.0053937 -0.00538976 -0.00538976 -0.0053937 -0.0107874 -0.00538976 -0.00538976 -0.0053937 -0.0053937 -0.0053937 -0.0107835 -0.00538976 -0.0053937 -0.0053937 -0.00538976 -0.00538976 -0.0107874 -0.0053937 -0.00538976 -0.0053937 -0.0107835 -0.00538976 -0.0053937 -0.0053937 -0.0107835 -0.00538976 -0.0107835 -0.0053937 -0.0053937 -0.0053937 -0.0107835 -0.00538976 -0.0107874 -0.0053937 -0.00538976 -0.0053937 -0.0107835 -0.00538976 -0.0107835 -0.0053937 -0.0107874 -0.00538976 -0.0107835 -0.0053937 -0.0107835 -0.00538976 -0.0161772 -0.0053937 -0.0107835 -0.0053937 -0.0107835 -0.00538976 -0.0161772 -0.0053937 -0.0107835 -0.0053937 -0.0161772 -0.00538976 -0.0161772 -0.0053937 -0.0161772 -0.00538976 -0.0161772 -0.0053937 -0.0215669 -0.0053937 -0.0215669 -0.00538976 -0.0215709 -0.0053937 -0.0269606 -0.00538976 -0.0269606 -0.0053937 -0.0431378 0 -0.204902 0.0053937 -0.0431378 0.00538976 -0.0269606 0.0053937 -0.0269606 0.00538976 -0.0215669 0.0053937 -0.0215709 0.0053937 -0.0215669 0.00538976 -0.0161772 0.0053937 -0.0161772 0.00538976 -0.0161732 0.0053937 -0.0161772 0.0053937 -0.0107874 0.00538976 -0.0161732 0.0053937 -0.0107874 0.0053937 -0.0107835 0.00538976 -0.0161772 0.0053937 -0.0107835 0.00538976 -0.0107835 0.0053937 -0.0107835 0.00538976 -0.0107874 0.0053937 -0.0107835 0.0053937 -0.00538976 0.00538976 -0.0107874 0.0053937 -0.0107835 0.0053937 -0.00538976 0.00538976 -0.0107835 0.0053937 -0.0107874 0.00538976 -0.00538976 0.0053937 -0.0107874 0.0053937 -0.00538976 0.00538976 -0.0107835 0.0053937 -0.0053937 0.00538976 -0.0053937 0.0053937 -0.0107835 0.0053937 -0.0053937 0.00538976 -0.00538976 0.0053937 -0.0107835 0.00538976 -0.0053937 0.0053937 -0.00538976 0.0053937 -0.0053937 0.00538976 -0.0107835 0.0053937 -0.0053937 0.00538976 -0.0053937 0.0053937 -0.00538976 0.0053937 -0.0053937 0.00538976 -0.00538976 0.0053937 -0.0053937 0.0053937 -0.0053937 0.00538976 -0.00538976 0.0053937 -0.0053937 0.00538976 -0.00538976 0.0053937 -0.0053937 0.00538976 -0.0053937 0.0053937 -0.00538976 0.0053937 -0.0053937 0.00538976 -0.00538976 0.0053937 -0.0053937 0.0053937 -0.0053937 0.00538976 -0.00538976 0.0053937 -0.0053937 0.0107835 -0.00538976 0.0053937 -0.0053937 0.00538976 -0.0053937 0.0053937 -0.00538976 0.0053937 -0.0053937 0.0107835 -0.0053937 0.00538976 -0.00538976 0.0053937 -0.0053937 0.0107835 -0.00538976 0.0053937 -0.0053937 0.0107835 -0.00538976 0.00538976 -0.0053937 0.0107874 -0.0053937 0.00538976 -0.00538976 0.0107874 -0.0053937 0.00538976 -0.00538976 0.0107835 -0.0053937 0.0107835 -0.0053937 0.0053937 -0.00538976 0.0107835 -0.0053937 0.0107874 -0.0053937 0.0107835 -0.00538976 0.0107835 -0.0053937 0.0107835 -0.00538976 0.0107874 -0.0053937 0.0107835 -0.0053937 0.0107835 -0.00538976 0.0107835 -0.0053937 0.0161772 -0.00538976 0.0161772 -0.0053937 0.0107835 -0.0053937 0.0161772 -0.00538976 0.0161772 -0.0053937 0.0161732 -0.00538976 0.0215709 -0.0053937 0.0161772 -0.0053937 0.0215669 -0.00538976 0.0269606 -0.0053937 0.0269606 -0.0053937 0.0377441 -0.00538976 0.0539213 -0.0053937 1.69314 -0.00538976 0.00538976 -0.0053937 0.0107874 -0.00538976 0.00538976 -0.0053937 0.0053937 -0.0053937 0.00538976 -0.00538976 0.0107874 -0.0053937 0.00538976 -0.00538976 0.0053937 -0.0053937 0.00538976 -0.0053937 0.0053937 -0.00538976 0.0107835 -0.0053937 0.0053937 -0.0053937 0.0053937 -0.00538976 0.00538976 -0.0053937 0.0107835 -0.00538976 0.0053937 -0.0053937 0.00538976 -0.0053937 0.0053937 -0.00538976 0.0107835 -0.0053937 0.0053937 -0.00538976 0.0053937 -0.0053937 0.00538976 -0.0053937 0.0107835 -0.00538976 0.0053937 -0.0053937 0.0053937 -0.00538976 0.00538976 -0.0053937 0.0107835 -0.0053937 0.0053937 -0.00538976 0.0053937 -0.0053937 0.00538976 -0.0053937 0.0107835 -0.00538976 0.0053937 -0.0053937 0.0053937 -0.00538976 0.00538976 -0.0053937 0.0107835 -0.00538976 0.0053937 -0.0053937 0.0053937 -0.0053937 0.00538976 -0.00538976 0.0107874 -0.0053937 0.00538976 -0.00538976 0.0053937 -0.0053937 0.00538976 -0.0053937 0.0107835 -0.00538976 0.0053937 -0.0053937 0.0053937 -0.0053937 0.00538976 -0.00538976 0.0107874 -0.0053937 0.00538976 -0.00538976 0.0053937 -0.0053937 0.00538976 -0.0053937 0.0107874 -0.00538976 0.00538976 -0.0053937 0.0053937 -0.00538976 0.00538976 -0.0053937 0.0107874 -0.0053937 0.00538976 -0.00538976 0.0053937 -0.0053937 0.00538976 -0.00538976 0.0107874 -0.0053937 0.00538976 -0.0053937 0.0053937 -0.00538976 0.00538976 -0.0053937 0.0107874 -0.0053937 0.00538976 -0.00538976 0.0053937 -0.0053937 0.0053937 -0.00538976 0.0107835 -0.0053937 0.00538976 -0.0053937 0.0053937 -0.00538976 0.00538976 -0.0053937 0.0107874 -0.00538976 0.00538976 -0.0053937 0.0053937 -0.00538976 0.0053937 -0.0053937 0.0107835 -0.0053937 0.00538976 -0.00538976 0.0053937 -0.0053937 0.0053937 -0.0053937 0.0107835 -0.00538976 0.0053937 -0.0053937 0.00538976 -0.00538976 0.0053937 -0.0053937 0.0107835 -0.0053937 0.00538976 -0.00538976 0.0053937 -0.0053937 0.0053937 -0.00538976 0.0107835 -0.0053937 0.00538976 -0.0053937 0.0053937 -0.00538976 0.0053937 -0.0053937 0.0107835 -0.00538976 0.0053937 -0.0053937 0.00538976 -0.0053937 0.0053937 -0.00538976 0.0107835 -0.0053937 0.00538976 -0.0053937 0.0053937 -0.00538976 0.0053937 -0.0053937 0.0107835 -0.00538976 0.0053937 -0.0053937 0.00538976 -0.0053937 0.0053937 -0.00538976 0.0107835 -0.0053937 0.0053937 -0.00538976 0.00538976 -0.0053937 0.0053937 -0.00538976 0.0107835 -0.0053937 0.0053937 -0.0053937 0.00538976 -0.00538976 0.0053937 -0.0053937 0.0107835 -0.0053937 0.0053937 -0.00538976 0.00538976 -0.0053937 0.0053937 -0.00538976 0.0107835 -0.0053937 0.0053937 -0.0053937 0.00538976 -0.00538976 0.0053937 -0.0053937 0.0107835 -0.00538976 0.0053937 -0.0053937 0.00538976 -0.0053937 0.0053937 -0.00538976 0.0107835 -0.0053937 0.0053937 -0.00538976 0.00538976 -0.0053937 0.0053937 -0.0053937 0.0107835 -0.00538976 0.0053937 -0.0053937 0.00538976 -0.0053937 0.0053937 -0.00538976 0.0107835 -0.0053937 0.0053937 -0.00538976 0.0053937 -0.0053937 0.00538976 -0.0053937 0.0107835 -0.00538976 0.0053937 -0.0053937 0.00538976 -0.00538976 0.0053937 -0.0053937 0.0107835 -0.00538976 0.0053937 -0.0053937 0.00538976 -0.0053937 0.0053937 -0.00538976 0.0107835 -0.0053937 0.0053937 -0.0053937 0.0053937 -0.00538976 0.00538976 -0.0053937 0.0107835 -0.00538976 0.0053937 -0.0053937 0.0053937 -0.0053937 0.00538976 -0.00538976 0.0107835 -0.0053937 0.0053937 -0.00538976 0.0053937 -0.0053937 0.00538976 -0.0053937 0.0107835 -0.00538976 0.0053937 -0.0053937 0.0053937 -0.00538976 0.00538976 -0.0053937 0.0107874 -0.0053937 0.00538976 -0.00538976 0.0053937 -0.0053937 0.00538976 -0.0053937 0.0107835 -0.00538976 0.0053937 -0.0053937 0.0053937 -0.00538976 0.00538976 -0.0053937 0.0107835 -0.0053937 0.0053937 -0.00538976 0.0053937 -0.0053937 0.00538976 -0.00538976 0.0107874 -0.0053937 0.00538976 -0.00538976 0.0053937 -0.0053937 0.00538976 -0.0053937 0.0107874 -0.00538976 0.00538976 -0.0053937 0.0053937 -0.0053937 0.00538976 -0.00538976 0.0107874 -0.0053937 0.00538976 -0.00538976 0.0053937 -0.0053937 0.00538976 -0.0053937 0.0107874 -0.00538976 0.00538976 -0.0053937 0.0053937 -0.0053937 0.0107835 -0.00538976 0.0053937 -0.0053937 0.00538976 -0.00538976 0.0107835 -0.0053937 0.0107874 -0.00538976 0.0107835 -0.0053937 0.0107835 -0.0053937 0.0161772 -0.00538976 0.0215669 -0.0053937 0.0269528 -0.00538976zm-1.27793 1.32647l0.00538976 -0.0053937 0.0107835 -0.0053937 0.0053937 -0.00538976 0.0053937 -0.0053937 0.00538976 -0.00538976 0.0107874 -0.0053937 0.00538976 -0.0053937 0.0053937 -0.00538976 0.00538976 -0.0053937 0.0107874 -0.00538976 0.00538976 -0.0053937 0.0053937 -0.0053937 0.00538976 -0.00538976 0.0107874 -0.0053937 0.00538976 -0.0053937 0.0053937 -0.00538976 0.00538976 -0.0053937 0.0107874 -0.00538976 0.00538976 -0.0053937 0.0053937 -0.00538976 0.00538976 -0.0053937 0.0107874 -0.0053937 0.00538976 -0.00538976 0.0053937 -0.0053937 0.0053937 -0.00538976 0.0107835 -0.0053937 0.00538976 -0.0053937 0.0053937 -0.00538976 0.00538976 -0.0053937 0.0107874 -0.0053937 0.00538976 -0.00538976 0.0053937 -0.0053937 0.0053937 -0.00538976 0.0107835 -0.0053937 0.00538976 -0.0053937 0.0053937 -0.00538976 0.0053937 -0.0053937 0.0107835 -0.00538976 0.00538976 -0.0053937 0.0053937 -0.0053937 0.0053937 -0.00538976 0.0107835 -0.0053937 0.00538976 -0.00538976 0.0053937 -0.0053937 0.0053937 -0.0053937 0.0107835 -0.00538976 0.00538976 -0.0053937 0.0053937 -0.0053937 0.0053937 -0.00538976 0.0107835 -0.0053937 0.0053937 -0.00538976 0.00538976 -0.0053937 0.0053937 -0.00538976 0.0107835 -0.0053937 0.00538976 -0.0053937 0.0053937 -0.00538976 0.0053937 -0.0053937 0.0107835 -0.00538976 0.0053937 -0.0053937 0.00538976 -0.0053937 0.0053937 -0.00538976 0.0107835 -0.0053937 0.0053937 -0.0053937 0.00538976 -0.00538976 0.0053937 -0.0053937 0.0107835 -0.00538976 0.0053937 -0.0053937 0.00538976 -0.0053937 0.0053937 -0.00538976 0.0107835 -0.0053937 0.0053937 -0.00538976 0.00538976 -0.0053937 0.0053937 -0.0053937 0.0107835 -0.00538976 0.0053937 -0.0053937 0.00538976 -0.00538976 0.0053937 -0.0053937 0.0107835 -0.0053937 0.0053937 -0.00538976 0.00538976 -0.0053937 0.0053937 -0.0053937 0.0107835 -0.00538976 0.0053937 -0.0053937 0.00538976 -0.00538976 0.0053937 -0.0053937 0.0107835 -0.00538976 0.0053937 -0.0053937 0.00538976 -0.0053937 0.0053937 -0.00538976 0.0107835 -0.0053937 0.0053937 -0.00538976 0.0053937 -0.0053937 0.00538976 -0.0053937 0.0107835 -0.00538976 0.0053937 -0.0053937 0.00538976 -0.0053937 0.0053937 -0.00538976 0.0107835 -0.0053937 0.0053937 -0.00538976 0.00538976 -0.0053937 0.0053937 -0.0053937 0.0107835 -0.00538976 0.0053937 -0.0053937 0.0053937 -0.00538976 0.00538976 -0.0053937 0.0107835 -0.0053937 0.0053937 -0.00538976 0.00538976 -0.0053937 0.0053937 -0.00538976 0.0107835 -0.0053937 0.0053937 -0.0053937 0.0053937 -0.00538976 0.00538976 -0.0053937 0.0107835 -0.0053937 0.0053937 -0.00538976 0.0053937 -0.0053937 0.00538976 -0.00538976 0.0107874 -0.0053937 0.00538976 -0.0053937 0.0053937 -0.00538976 0.00538976 -0.0053937 0.0107835 -0.00538976 0.0053937 -0.0053937 0.0053937 -0.00538976 0.00538976 -0.0053937 0.0107835 -0.0053937 0.0053937 -0.00538976 0.0053937 -0.0053937 0.00538976 -0.0053937 0.0107874 -0.00538976 0.00538976 -0.0053937 0.0053937 -0.00538976 0.00538976 -0.0053937 0.0107874 -0.0053937 0.00538976 -0.00538976 0.0053937 -0.0053937 0.00538976 -0.00538976 0.0107874 -0.0053937 0.00538976 -0.0053937 0.0053937 -0.00538976 0.00538976 -0.0053937 0.0107874 -0.00538976 0.00538976 -0.0053937 0.0053937 -0.0053937 0.0053937 -0.00538976 0.0107835 -0.0053937 0.00538976 -0.0053937 0.0053937 -0.00538976 0.00538976 -0.0053937 0.0107874 -0.00538976 0.00538976 -0.0053937 0.0053937 -0.0053937 0.00538976 -0.00538976 0.0107874 -0.0053937 0.00538976 -0.00538976 0.0053937 -0.0053937 0.0053937 -0.00538976 0.0107835 -0.0053937 0.00538976 -0.0053937 0.0053937 -0.00538976 0.0053937 -0.0053937 0.0107835 -0.0053937 0.00538976 -0.00538976 0.0053937 -0.0053937 0.0053937 -0.00538976 0.0107835 -0.0053937 0.00538976 -0.0053937 0.0053937 -0.00538976 0.0053937 -0.0053937 0.0107835 -0.00538976 0.0053937 -0.0053937 0.00538976 -0.0053937 0.0053937 -0.00538976 0.0107835 -0.0053937 0.00538976 -0.00538976 0.0053937 -0.0053937 0.0053937 -0.0053937 0.0107835 -0.00538976 0.00538976 -0.0053937 0.0053937 -0.0053937 0.0053937 -0.00538976 0.0107835 -0.0053937 0.0053937 -0.00538976 0.00538976 -0.0053937 0.0053937 -0.0053937 0.0107835 -0.00538976 0.0053937 -0.0053937 0.00538976 -0.00538976 0.0053937 -0.0053937 0.0107835 -0.00538976 0.0053937 -0.0053937 0.00538976 -0.0053937 0.0053937 -0.00538976 0.0107835 -0.0053937 0 3.40784 -0.0107835 -0.00538976 -0.0053937 -0.0053937 -0.00538976 -0.0053937 -0.0053937 -0.00538976 -0.0107835 -0.0053937 -0.0053937 -0.00538976 -0.00538976 -0.0053937 -0.0053937 -0.0053937 -0.0107835 -0.00538976 -0.0053937 -0.0053937 -0.00538976 -0.0053937 -0.0053937 -0.00538976 -0.0107835 -0.0053937 -0.0053937 -0.00538976 -0.0053937 -0.0053937 -0.00538976 -0.0053937 -0.0107835 -0.00538976 -0.0053937 -0.0053937 -0.0053937 -0.00538976 -0.00538976 -0.0053937 -0.0107835 -0.00538976 -0.0053937 -0.0053937 -0.00538976 -0.0053937 -0.0053937 -0.00538976 -0.0107835 -0.0053937 -0.0053937 -0.0053937 -0.0053937 -0.00538976 -0.00538976 -0.0053937 -0.0107835 -0.00538976 -0.0053937 -0.0053937 -0.0053937 -0.0053937 -0.00538976 -0.00538976 -0.0107835 -0.0053937 -0.0053937 -0.00538976 -0.0053937 -0.0053937 -0.00538976 -0.0053937 -0.0107835 -0.00538976 -0.0053937 -0.0053937 -0.0053937 -0.00538976 -0.00538976 -0.0053937 -0.0107874 -0.0053937 -0.00538976 -0.00538976 -0.0053937 -0.0053937 -0.00538976 -0.0053937 -0.0107874 -0.00538976 -0.00538976 -0.0053937 -0.0053937 -0.00538976 -0.00538976 -0.0053937 -0.0107835 -0.0053937 -0.0053937 -0.00538976 -0.0053937 -0.0053937 -0.00538976 -0.00538976 -0.0107874 -0.0053937 -0.00538976 -0.00538976 -0.0053937 -0.0053937 -0.00538976 -0.0053937 -0.0107874 -0.00538976 -0.00538976 -0.0053937 -0.0053937 -0.0053937 -0.00538976 -0.00538976 -0.0107874 -0.0053937 -0.00538976 -0.00538976 -0.0053937 -0.0053937 -0.00538976 -0.0053937 -0.0107874 -0.00538976 -0.00538976 -0.0053937 -0.0053937 -0.00538976 -0.0053937 -0.0053937 -0.0107835 -0.0053937 -0.00538976 -0.00538976 -0.0053937 -0.0053937 -0.0053937 -0.00538976 -0.0107835 -0.0053937 -0.00538976 -0.0053937 -0.0053937 -0.00538976 -0.00538976 -0.0053937 -0.0107874 -0.00538976 -0.00538976 -0.0053937 -0.0053937 -0.0053937 -0.0053937 -0.00538976 -0.0107835 -0.0053937 -0.00538976 -0.0053937 -0.0053937 -0.00538976 -0.0053937 -0.0053937 -0.0107835 -0.00538976 -0.0053937 -0.0053937 -0.00538976 -0.00538976 -0.0053937 -0.0053937 -0.0107835 -0.0053937 -0.00538976 -0.00538976 -0.0053937 -0.0053937 -0.0053937 -0.0053937 -0.0107835 -0.00538976 -0.0053937 -0.0053937 -0.00538976 -0.00538976 -0.0053937 -0.0053937 -0.0107835 -0.0053937 -0.0053937 -0.00538976 -0.00538976 -0.0053937 -0.0053937 -0.0053937 -0.0107835 -0.00538976 -0.00538976 -0.0053937 -0.0053937 -0.00538976 -0.0053937 -0.0053937 -0.0107835 -0.00538976 -0.0053937 -0.0053937 -0.00538976 -0.0053937 -0.0053937 -0.00538976 -0.0107835 -0.0053937 -0.0053937 -0.0053937 -0.00538976 -0.00538976 -0.0053937 -0.0053937 -0.0107835 -0.00538976 -0.0053937 -0.0053937 -0.00538976 -0.0053937 -0.0053937 -0.00538976 -0.0107835 -0.0053937 -0.0053937 -0.00538976 -0.00538976 -0.0053937 -0.0053937 -0.00538976 -0.0107835 -0.0053937 -0.0053937 -0.0053937 -0.00538976 -0.00538976 -0.0053937 -0.0053937 -0.0107835 -0.0053937 -0.0053937 -0.00538976 -0.00538976 -0.0053937 -0.0053937 -0.00538976 -0.0107835 -0.0053937 -0.0053937 -0.0053937 -0.00538976 -0.00538976 -0.0053937 -0.0053937 -0.0107835 -0.0053937 -0.0053937 -0.00538976 -0.00538976 -0.0053937 -0.0053937 -0.00538976 -0.0107835 -0.0053937 -0.0053937 -0.00538976 -0.0053937 -0.0053937 -0.00538976 -0.0053937 -0.0107835 -0.00538976 -0.0053937 -0.0053937 -0.00538976 -0.00538976 -0.0053937 -0.0053937 -0.0107835 -0.0053937 -0.0053937 -0.00538976 -0.0053937 -0.0053937 -0.00538976 -0.0053937 -0.0107835 -0.00538976 -0.0053937 -0.0053937 -0.0053937 -0.00538976 -0.00538976 -0.0053937 -0.0107835 -0.00538976 -0.0053937 -0.0053937 -0.0053937 -0.0053937 -0.00538976 -0.00538976 -0.0107835 -0.0053937 -0.0053937 -0.0053937 -0.0053937 -0.00538976 -0.00538976 -0.0053937 -0.0107835 -0.00538976 -0.0053937 -0.0053937 -0.0053937 -0.0053937 -0.00538976 -0.00538976 -0.0107874 -0.0053937 -0.00538976 -0.0053937 -0.0053937 -0.00538976 -0.00538976 -0.0053937 -0.0107835 -0.00538976 -0.0053937 -0.0053937 -0.0053937 -0.00538976 -0.00538976 -0.0053937 -0.0107874 -0.0053937 -0.00538976 -0.00538976 -0.0053937 -0.0053937 -0.00538976 -0.00538976 -0.0107874 -0.0053937 -0.00538976 -0.0053937 -0.0053937 -0.00538976 -0.00538976 -0.0053937 -0.0107874 -0.0053937 -0.00538976 -0.00538976 -0.0053937 -0.0053937 -0.00538976 -0.00538976 -0.0107874 -0.0053937 -0.00538976 -0.0053937 -0.0053937 -0.00538976 -0.00538976 -0.0053937 -0.0107874 -0.00538976 -0.00538976 -0.0053937 -0.0053937 -0.0053937 -0.0053937 -0.00538976 -0.0107835 -0.0053937 -0.00538976 -0.00538976 -1.32647 0 0 -1.31569 1.32647 0zm-2.37255 0.576957l0.00538976 -0.0377441 0.0053937 -0.0269606 0.0053937 -0.0215669 0.00538976 -0.0161772 0.0053937 -0.0215669 0.0053937 -0.0107874 0.00538976 -0.0161732 0.0053937 -0.0161772 0.00538976 -0.0107874 0.0053937 -0.0107835 0.0053937 -0.0161772 0.00538976 -0.0107835 0.0053937 -0.00538976 0.0053937 -0.0107835 0.00538976 -0.0107874 0.0053937 -0.0107835 0.00538976 -0.0107835 0.0053937 -0.0053937 0.00538976 -0.0107835 0.0053937 -0.0053937 0.0053937 -0.0107835 0.00538976 -0.00538976 0.0053937 -0.0053937 0.00538976 -0.0107835 0.0053937 -0.0053937 0.0053937 -0.00538976 0.00538976 -0.0107874 0.0053937 -0.00538976 0.0053937 -0.0053937 0.00538976 -0.0053937 0.0053937 -0.00538976 0.00538976 -0.0053937 0.0053937 -0.00538976 0.00538976 -0.0053937 0.0053937 -0.0053937 0.0053937 -0.00538976 0.00538976 -0.0053937 0.0053937 -0.00538976 0.0053937 -0.0053937 0.00538976 -0.00538976 0.0053937 -0.0053937 0.00538976 -0.0053937 0.0107874 -0.00538976 0.00538976 -0.0053937 0.0053937 -0.0053937 0.0053937 -0.00538976 0.0107835 -0.0053937 0.00538976 -0.00538976 0.0107835 -0.0053937 0.0053937 -0.0053937 0.0107835 -0.00538976 0.0053937 -0.0053937 0.0107835 -0.0053937 0.0107835 -0.00538976 0.0053937 -0.0053937 0.0107835 -0.00538976 0.0107835 -0.0053937 0.0107874 -0.00538976 0.0107835 -0.0053937 0.0107835 -0.0053937 0.0161772 -0.00538976 0.0107835 -0.0053937 0.0161772 -0.0053937 0.0107835 -0.00538976 0.0161772 -0.0053937 0.0215669 -0.00538976 0.0215709 -0.0053937 0.0215669 -0.0053937 0.0323543 -0.00538976 0.0431378 -0.0053937 0.188724 -0.00538976 0 1.31593 -0.188724 -0.00564173 -0.0431378 -0.0053937 -0.0323543 -0.00538976 -0.0215669 -0.0053937 -0.0215709 -0.0053937 -0.0161772 -0.00538976 -0.0215669 -0.0053937 -0.0107835 -0.00538976 -0.0161772 -0.0053937 -0.0161772 -0.00538976 -0.0107835 -0.0053937 -0.0107835 -0.0053937 -0.0107835 -0.00538976 -0.0107874 -0.0053937 -0.0107835 -0.00538976 -0.0107835 -0.0053937 -0.0053937 -0.0053937 -0.0107835 -0.00538976 -0.0107835 -0.0053937 -0.0053937 -0.0053937 -0.0107835 -0.00538976 -0.0053937 -0.0053937 -0.0107835 -0.00538976 -0.00538976 -0.0053937 -0.0107835 -0.0053937 -0.0053937 -0.00538976 -0.0053937 -0.0053937 -0.00538976 -0.00538976 -0.0107874 -0.0053937 -0.00538976 -0.0053937 -0.0053937 -0.00538976 -0.00538976 -0.0053937 -0.0053937 -0.00538976 -0.0053937 -0.0053937 -0.00538976 -0.0053937 -0.0053937 -0.00538976 -0.0053937 -0.0053937 -0.00538976 -0.0053937 -0.0053937 -0.00538976 -0.00538976 -0.0053937 -0.0053937 -0.00538976 -0.00538976 -0.0053937 -0.0053937 -0.00538976 -0.0053937 -0.0053937 -0.00538976 -0.0107835 -0.0053937 -0.0053937 -0.0053937 -0.00538976 -0.00538976 -0.0107874 -0.0053937 -0.00538976 -0.00538976 -0.0053937 -0.0053937 -0.0107835 -0.0053937 -0.0053937 -0.00538976 -0.0107835 -0.0053937 -0.0053937 -0.00538976 -0.0107835 -0.0053937 -0.0107835 -0.00538976 -0.0107835 -0.0053937 -0.0107835 -0.0053937 -0.0053937 -0.00538976 -0.0107835 -0.0053937 -0.0161772 -0.0053937 -0.0107835 -0.00538976 -0.0107874 -0.0053937 -0.0161732 -0.00538976 -0.0161772 -0.0053937 -0.0107835 -0.0053937 -0.0215709 -0.00538976 -0.0161772 -0.0053937 -0.0215669 -0.0053937 -0.0269606 -0.00538976 -0.0377441 0 -0.161768zm4.20048 0.194118l-0.00538976 0.0269606 -0.0053937 0.0215709 -0.0053937 0.0215669 -0.00538976 0.0161772 -0.0053937 0.0161772 -0.00538976 0.0161772 -0.0053937 0.0107835 -0.0053937 0.0161772 -0.00538976 0.0107835 -0.0053937 0.0107835 -0.00538976 0.0107835 -0.0053937 0.0107874 -0.0053937 0.0107835 -0.00538976 0.00538976 -0.0053937 0.0107874 -0.0053937 0.0107835 -0.00538976 0.00538976 -0.0053937 0.0107874 -0.00538976 0.0107835 -0.0053937 0.00538976 -0.00538976 0.0053937 -0.0053937 0.0107835 -0.0053937 0.0053937 -0.00538976 0.0053937 -0.0053937 0.0107835 -0.00538976 0.00538976 -0.0053937 0.0053937 -0.0053937 0.0053937 -0.00538976 0.00538976 -0.0053937 0.0053937 -0.0053937 0.0107835 -0.00538976 0.00538976 -0.0053937 0.0053937 -0.00538976 0.0053937 -0.0053937 0.00538976 -0.0053937 0.0053937 -0.0107835 0.0053937 -0.00538976 0.00538976 -0.0053937 0.0053937 -0.0053937 0.00538976 -0.00538976 0.0053937 -0.0053937 0.0053937 -0.0107835 0.00538976 0 -1.02451 0.0107835 0.0053937 0.0053937 0.00538976 0.00538976 0.0053937 0.0053937 0.0053937 0.0053937 0.00538976 0.00538976 0.0053937 0.0107835 0.00538976 0.0053937 0.0053937 0.0053937 0.00538976 0.00538976 0.0053937 0.0053937 0.0053937 0.00538976 0.00538976 0.0053937 0.0107835 0.0053937 0.0053937 0.00538976 0.0053937 0.0053937 0.00538976 0.0053937 0.0053937 0.00538976 0.0053937 0.0053937 0.0107835 0.00538976 0.00538976 0.0053937 0.0053937 0.0053937 0.0107835 0.00538976 0.0053937 0.0053937 0.0107835 0.00538976 0.0053937 0.0053937 0.0107835 0.00538976 0.00538976 0.0053937 0.0107874 0.0053937 0.0107835 0.00538976 0.0053937 0.0053937 0.0107835 0.0053937 0.0107835 0.00538976 0.0107835 0.0053937 0.0107835 0.00538976 0.0161772 0.0053937 0.0107835 0.0053937 0.0107874 0.00538976 0.0161732 0.0053937 0.0161772 0.00538976 0.0161772 0.0053937 0.0215669 0.0053937 0.0215709 0.00538976 0.0269606 0.0053937 0.0377441 0 0.15098 -0.0053937 0.0377441z"/>
  </g>
  <path class="fil3" d="M7.00672 0.429201c0.60187,0 1.08996,0.488094 1.08996,1.08996 0,0.60187 -0.488094,1.08996 -1.08996,1.08996 -0.60187,0 -1.08996,-0.488094 -1.08996,-1.08996 0,-0.60187 0.488094,-1.08996 1.08996,-1.08996z"/>
  <g id="_109643392">
   <path id="_109643296" class="fil0" d="M6.40314 1.10956l0.193984 -0.193984c0.0228622,-0.0228622 0.0602677,-0.0228622 0.0831299,0l0.930063 0.930067c0.0228622,0.0228622 0.0228622,0.0602677 0,0.0831299l-0.19398 0.193984c-0.0228622,0.0228622 -0.0602677,0.0228622 -0.0831299,0l-0.930067 -0.930067c-0.0228622,-0.0228622 -0.0228622,-0.0602677 0,-0.0831299z"/>
   <path id="_109643368" class="fil0" d="M6.59712 2.12276l-0.193984 -0.193984c-0.0228622,-0.0228622 -0.0228622,-0.0602677 0,-0.0831299l0.930067 -0.930067c0.0228622,-0.0228622 0.0602677,-0.0228622 0.0831299,0l0.19398 0.193984c0.0228622,0.0228622 0.0228622,0.0602677 0,0.0831299l-0.930063 0.930067c-0.0228622,0.0228622 -0.0602677,0.0228622 -0.0831299,0z"/>
  </g>
 </g>
</svg>
