<?xml version="1.0" encoding="UTF-8"?>
<!DOCTYPE svg PUBLIC "-//W3C//DTD SVG 1.1//EN" "http://www.w3.org/Graphics/SVG/1.1/DTD/svg11.dtd">
<!-- Creator: CorelDRAW -->
<svg xmlns="http://www.w3.org/2000/svg" xml:space="preserve" width="8.5in" height="8.5in" style="shape-rendering:geometricPrecision; text-rendering:geometricPrecision; image-rendering:optimizeQuality; fill-rule:evenodd; clip-rule:evenodd"
viewBox="0 0 8.5 8.5"
 xmlns:xlink="http://www.w3.org/1999/xlink"
 version="1.0">
 <defs>
  <style type="text/css">
   <![CDATA[
    .str1 {stroke:#1F1A17;stroke-width:0.21511;stroke-linecap:round;stroke-linejoin:round}
    .str2 {stroke:#1F1A17;stroke-width:0.258024;stroke-linecap:round;stroke-linejoin:round}
    .str0 {stroke:#1F1A17;stroke-width:0.258134;stroke-linecap:round;stroke-linejoin:round}
    .fil2 {fill:none}
    .fil3 {fill:#1F1A17}
    .fil0 {fill:white}
    .fil1 {fill:#DEDEDD;fill-rule:nonzero}
   ]]>
  </style>
 </defs>
 <g id="Layer_x0020_1">
  <metadata id="CorelCorpID_0Corel-Layer"/>
  <g>
   <path class="fil0" d="M4.25 0.500004c2.07072,0 3.75,1.67928 3.75,3.75 0,2.07072 -1.67928,3.75 -3.75,3.75 -2.07072,0 -3.75,-1.67928 -3.75,-3.75 0,-2.07072 1.67928,-3.75 3.75,-3.75z"/>
   <path id="1" class="fil1" d="M8.11161 4.25l-0.223228 0 0 0 -0.00444488 -0.187713 -0.0140472 -0.184744 -0.0234173 -0.181984 -0.0316732 -0.178976 -0.0405748 -0.176181 -0.0492323 -0.172272 -0.0572205 -0.169 -0.0649764 -0.165488 -0.0729252 -0.160874 -0.0802126 -0.156894 -0.087689 -0.152677 -0.094937 -0.147354 -0.101508 -0.142669 -0.10785 -0.137744 -0.114386 -0.131717 -0.120685 -0.126315 -0.126319 -0.120689 -0.131717 -0.114386 -0.137744 -0.107846 -0.142669 -0.101512 -0.147354 -0.0949331 -0.152677 -0.0876929 -0.156894 -0.0802087 -0.160874 -0.0729252 -0.165492 -0.0649764 -0.168996 -0.0572205 -0.172276 -0.0492323 -0.176177 -0.0405748 -0.17898 -0.0316732 -0.181984 -0.0234173 -0.184744 -0.0140472 -0.187713 -0.00444488 0 -0.223228 0.198177 0.0053189 0.196083 0.0149213 0.193315 0.0242835 0.190319 0.0342953 0.186642 0.043189 0.183606 0.0518465 0.179461 0.0607087 0.175083 0.0693386 0.171339 0.0772874 0.166484 0.085437 0.161402 0.0929213 0.156945 0.100169 0.151386 0.107614 0.145594 0.114823 0.140433 0.121362 0.134169 0.127665 0.127661 0.134165 0.121362 0.140433 0.114827 0.145594 0.10761 0.151386 0.100173 0.156945 0.0929173 0.161402 0.0854409 0.166484 0.0772874 0.171339 0.0693386 0.175079 0.0607087 0.179465 0.0518465 0.183602 0.043189 0.186646 0.0342953 0.190315 0.0242835 0.193315 0.0149213 0.196083 0.0053189 0.198177 0 0zm-3.86162 3.86162l0 -0.223228 0 0 0.187713 -0.00444488 0.184744 -0.0140472 0.181984 -0.0234173 0.17898 -0.0316732 0.176177 -0.0405748 0.172276 -0.0492323 0.168996 -0.0572205 0.165492 -0.0649764 0.160874 -0.0729252 0.156894 -0.0802126 0.152677 -0.087689 0.147354 -0.094937 0.142669 -0.101508 0.137744 -0.10785 0.131717 -0.114386 0.126319 -0.120685 0.120685 -0.126319 0.114386 -0.131717 0.10785 -0.137744 0.101508 -0.142669 0.094937 -0.147354 0.087689 -0.152677 0.0802126 -0.156894 0.0729252 -0.160874 0.0649764 -0.165492 0.0572205 -0.168996 0.0492323 -0.172276 0.0405748 -0.176177 0.0316732 -0.17898 0.0234173 -0.181984 0.0140472 -0.184744 0.00444488 -0.187713 0.223228 0 -0.0053189 0.198177 -0.0149213 0.196083 -0.0242835 0.193315 -0.0342953 0.190319 -0.043189 0.186642 -0.0518465 0.183606 -0.0607087 0.179461 -0.0693386 0.175083 -0.0772874 0.171339 -0.0854409 0.166484 -0.0929173 0.161402 -0.100173 0.156945 -0.10761 0.151386 -0.114827 0.145594 -0.121362 0.140433 -0.127661 0.134169 -0.134169 0.127661 -0.140433 0.121362 -0.145594 0.114827 -0.151386 0.10761 -0.156945 0.100173 -0.161402 0.0929173 -0.166484 0.0854409 -0.171339 0.0772874 -0.175083 0.0693386 -0.179461 0.0607087 -0.183606 0.0518465 -0.186642 0.043189 -0.190319 0.0342953 -0.193315 0.0242835 -0.196083 0.0149213 -0.198177 0.0053189 0 0zm-3.86161 -3.86162l0.223228 0 0 0 0.00444488 0.187713 0.0140472 0.184744 0.0234173 0.181984 0.0316732 0.17898 0.0405748 0.176177 0.0492323 0.172276 0.0572205 0.168996 0.0649764 0.165492 0.0729252 0.160874 0.0802126 0.156894 0.087689 0.152677 0.094937 0.147354 0.101508 0.142669 0.10785 0.137744 0.114382 0.131717 0.120689 0.126319 0.126319 0.120685 0.131717 0.114386 0.13774 0.10785 0.142669 0.101508 0.147358 0.094937 0.152673 0.087689 0.156898 0.0802126 0.160874 0.0729252 0.165488 0.0649764 0.169 0.0572205 0.172272 0.0492323 0.176181 0.0405748 0.178976 0.0316732 0.181984 0.0234173 0.184744 0.0140472 0.187713 0.00444488 0 0.223228 -0.198177 -0.0053189 -0.196083 -0.0149213 -0.193315 -0.0242835 -0.190315 -0.0342953 -0.186646 -0.043189 -0.183602 -0.0518465 -0.179465 -0.0607087 -0.175079 -0.0693386 -0.171339 -0.0772874 -0.166488 -0.0854409 -0.161398 -0.0929173 -0.156949 -0.100173 -0.151386 -0.10761 -0.145591 -0.114827 -0.140433 -0.121362 -0.134169 -0.127661 -0.127665 -0.134169 -0.121358 -0.140433 -0.114827 -0.145594 -0.10761 -0.151386 -0.100173 -0.156945 -0.0929173 -0.161402 -0.0854409 -0.166484 -0.0772874 -0.171339 -0.0693386 -0.175083 -0.0607087 -0.179461 -0.0518465 -0.183606 -0.043189 -0.186642 -0.0342953 -0.190319 -0.0242835 -0.193315 -0.0149213 -0.196083 -0.0053189 -0.198177 0 0zm3.86161 -3.86161l0 0.223228 0 0 -0.187713 0.00444488 -0.184744 0.0140472 -0.181984 0.0234173 -0.178976 0.0316732 -0.176181 0.0405748 -0.172272 0.0492323 -0.169 0.0572205 -0.165488 0.0649764 -0.160874 0.0729252 -0.156898 0.0802087 -0.152673 0.0876929 -0.147358 0.0949331 -0.142669 0.101512 -0.13774 0.107846 -0.131717 0.114386 -0.126319 0.120689 -0.120689 0.126315 -0.114382 0.131717 -0.10785 0.137744 -0.101508 0.142669 -0.094937 0.147354 -0.087689 0.152677 -0.0802126 0.156894 -0.0729252 0.160874 -0.0649764 0.165488 -0.0572205 0.169 -0.0492323 0.172272 -0.0405748 0.176181 -0.0316732 0.178976 -0.0234173 0.181984 -0.0140472 0.184744 -0.00444488 0.187713 -0.223228 0 0.0053189 -0.198177 0.0149213 -0.196083 0.0242835 -0.193315 0.0342953 -0.190315 0.043189 -0.186646 0.0518465 -0.183602 0.0607087 -0.179465 0.0693386 -0.175079 0.0772874 -0.171339 0.0854409 -0.166484 0.0929173 -0.161402 0.100173 -0.156945 0.10761 -0.151386 0.114827 -0.145594 0.121358 -0.140433 0.127665 -0.134165 0.134169 -0.127665 0.140433 -0.121362 0.145591 -0.114823 0.151386 -0.107614 0.156949 -0.100169 0.161398 -0.0929213 0.166488 -0.085437 0.171339 -0.0772874 0.175079 -0.0693386 0.179465 -0.0607087 0.183602 -0.0518465 0.186646 -0.043189 0.190315 -0.0342953 0.193315 -0.0242835 0.196083 -0.0149213 0.198177 -0.0053189 0 0z"/>
  </g>
  <path class="fil2 str0" d="M2.69492 4.87192l0.202406 -1.15661c0,0 -0.626496,-0.327705 -0.375898,-0.992756 0.250598,-0.665051 0.89637,-0.453004 0.89637,-0.453004"/>
  <path class="fil2 str0" d="M3.31178 2.54906c0,0 0.115661,-0.703602 0.877094,-0.73252 0.761433,-0.0289134 0.906008,0.722882 0.906008,0.722882"/>
  <path class="fil2 str0" d="M5.03706 2.32738c0,0 0.790346,-0.144579 0.89637,0.491559 0.106024,0.636134 -0.337343,0.886732 -0.337343,0.886732l0.192768 1.2048"/>
  <path class="fil2 str0" d="M2.81058 5.7972c0,0 -0.25063,-0.0819213 -0.332531,-0.265051 -0.0819016,-0.18313 -0.120476,-0.371087 -0.0915591,-0.457831 0.0289134,-0.0867441 0.173492,-0.221685 0.36626,-0.144575 0,0 0.71324,-0.240961 1.48431,-0.221685 0.771071,0.0192756 1.57106,0.202406 1.57106,0.202406 0,0 0.159102,-0.0529764 0.279476,0.0915984 0.120374,0.144579 -0.0939488,0.609646 -0.212008,0.679476 -0.118059,0.0698307 -0.195173,0.0674685 -0.195173,0.0674685 0,0 -0.373492,0.934925 -1.36625,0.934925 -0.992756,0 -1.50359,-0.886732 -1.50359,-0.886732z"/>
  <path class="fil3" d="M3.63549 5.17658c0.116972,0 0.211846,0.094874 0.211846,0.211846 0,0.116972 -0.094874,0.211835 -0.211846,0.211835 -0.116972,0 -0.211835,-0.0948622 -0.211835,-0.211835 0,-0.116972 0.0948622,-0.211846 0.211835,-0.211846z"/>
  <path class="fil3" d="M4.84345 5.16744c0.116984,0 0.211846,0.0948622 0.211846,0.211835 0,0.116972 -0.0948622,0.211835 -0.211846,0.211835 -0.116972,0 -0.211835,-0.0948622 -0.211835,-0.211835 0,-0.116972 0.0948622,-0.211835 0.211835,-0.211835z"/>
  <path class="fil3" d="M3.34662 5.99987c0,0 0.322575,-0.101102 0.418866,-0.182953 0.0962913,-0.0818465 0.245539,-0.0722165 0.245539,-0.0722165 0,0 0.0914764,0.154067 0.231098,0.154067 0.139622,0 0.211839,-0.168512 0.211839,-0.168512 0,0 0.149252,0.00481496 0.312945,0.105921 0.163697,0.101106 0.385165,0.149252 0.385165,0.149252 0,0 -0.211839,0.245539 -0.399606,0.269614 -0.187768,0.0240709 -0.467012,-0.00962992 -0.505528,-0.0770354 0,0 -0.235913,0.110736 -0.361091,0.105921 -0.125177,-0.00481496 -0.385161,-0.0625906 -0.539228,-0.284059z"/>
  <line class="fil2 str1" x1="4.77681" y1="3.54181" x2="4.95994" y2= "4.39" />
  <line class="fil2 str2" x1="4.1696" y1="3.50326" x2="4.17924" y2= "4.32253" />
  <line class="fil2 str0" x1="3.57202" y1="3.59001" x2="3.45635" y2= "4.36108" />
 </g>
</svg>
