<?xml version="1.0" encoding="UTF-8"?>
<!DOCTYPE svg PUBLIC "-//W3C//DTD SVG 1.1//EN" "http://www.w3.org/Graphics/SVG/1.1/DTD/svg11.dtd">
<!-- Creator: CorelDRAW -->
<svg xmlns="http://www.w3.org/2000/svg" xml:space="preserve" width="8.5in" height="8.5in" style="shape-rendering:geometricPrecision; text-rendering:geometricPrecision; image-rendering:optimizeQuality; fill-rule:evenodd; clip-rule:evenodd"
viewBox="0 0 8.5 8.5"
 xmlns:xlink="http://www.w3.org/1999/xlink">
 <defs>
  <style type="text/css">
   <![CDATA[
    .fil0 {fill:#010101}
    .fil1 {fill:#030303}
   ]]>
  </style>
 </defs>
 <g id="Layer_x0020_1">
  <metadata id="CorelCorpID_0Corel-Layer"/>
  <path class="fil0" d="M4.19713 7.08982l-0.045315 0c-0.84811,0 -1.57403,-0.414661 -1.99959,-0.840228 -0.420988,-0.420992 -0.855335,-1.14819 -0.855335,-1.98449l0 -0.120843c0,-0.84472 0.416205,-1.56802 0.840232,-1.99204 0.422161,-0.422161 1.14571,-0.855335 1.98448,-0.855335l0.143504 0c0.836071,0 1.56363,0.43448 1.98449,0.855335 0.428429,0.428433 0.840228,1.15309 0.840228,2.00715l0 0.0377598c0,1.59245 -1.30019,2.89269 -2.89269,2.89269zm-3.67062 -2.89269c0,2.00369 1.64536,3.66307 3.64041,3.66307l0.0528661 0c1.99748,0 3.64041,-1.6631 3.64041,-3.67062l0 -0.0377638c0,-1.10311 -0.535626,-2.0122 -1.08947,-2.56605 -0.562067,-0.562079 -1.4645,-1.05926 -2.5887,-1.05926 -2.0151,0 -3.65551,1.65056 -3.65551,3.67062z"/>
  <path class="fil0" d="M3.963 1.71229l0 0.347425c0,0.119815 0.105555,0.219028 0.226583,0.219028l0.0151063 0c0.118264,0 0.219028,-0.106984 0.219028,-0.226579l0 -0.30211c0,-0.116358 -0.095311,-0.219028 -0.211476,-0.219028l-0.0604213 0c-0.0836654,0 -0.188819,0.103783 -0.188819,0.181264z"/>
  <path class="fil1" d="M2.74701 2.05971l0 0.0151063c0,0.0940591 0.0914528,0.229571 0.132933,0.297571 0.054311,0.0890276 0.0947441,0.200906 0.23715,0.200906 0.129957,0 0.241689,-0.100441 0.241689,-0.219028 0,-0.0974843 -0.0985118,-0.231295 -0.141028,-0.304579 -0.0510669,-0.0880197 -0.109701,-0.201453 -0.244161,-0.201453l-0.0151063 0c-0.0889646,0 -0.211476,0.116374 -0.211476,0.211476z"/>
  <path class="fil0" d="M5.02793 2.33917l0 0.00755118c0,0.126256 0.105024,0.226579 0.234134,0.226579 0.135441,0 0.184102,-0.0952559 0.234012,-0.181386 0.0285472,-0.0492677 0.136071,-0.222697 0.136071,-0.279327l0 -0.0604213c0,-0.101319 -0.114669,-0.196374 -0.219028,-0.196374l-0.0302087 0c-0.111752,0 -0.172803,0.125819 -0.21752,0.197886 -0.0354252,0.0570984 -0.137461,0.211146 -0.137461,0.285492z"/>
  <path class="fil0" d="M1.85579 2.94338l0 0.045315c0,0.129886 0.113299,0.182031 0.198846,0.231661 0.0662913,0.0384606 0.205874,0.138421 0.292083,0.138421 0.121248,0 0.226579,-0.106567 0.226579,-0.234134 0,-0.133319 -0.092937,-0.188587 -0.181264,-0.234134 -0.0485945,-0.0250591 -0.233445,-0.1435 -0.279453,-0.1435l-0.0604173 0c-0.0938976,0 -0.196374,0.103984 -0.196374,0.19637z"/>
  <path class="fil0" d="M1.4857 4.15937l0 0.0528661c0,0.0832953 0.0646102,0.155626 0.123264,0.186398 0.0973307,0.0510669 0.138933,0.0250787 0.26948,0.0250787 0.103496,0 0.21315,0.0110276 0.282272,-0.0273898 0.0580157,-0.0322402 0.11802,-0.104516 0.11802,-0.191638l0 -0.00755512c0,-0.127681 -0.0943307,-0.234134 -0.219028,-0.234134l-0.35498 0 -0.00755118 0c-0.102878,0 -0.211476,0.10785 -0.211476,0.196374z"/>
  <path class="fil0" d="M6.06265 4.19713c0,0.0932874 0.0538386,0.162004 0.113382,0.19628 0.0994055,0.0572165 0.129531,0.0302992 0.264252,0.0303031 0.102736,3.93701e-006 0.21676,0.0102953 0.287193,-0.0224685 0.0597559,-0.0277953 0.128209,-0.104575 0.128209,-0.189008l0 -0.0302087c0,-0.115445 -0.103587,-0.219031 -0.219031,-0.219031l-0.385189 0c-0.0975669,0 -0.188815,0.123366 -0.188815,0.234134z"/>
  <path class="fil0" d="M4.38595 3.71376c-0.0339094,0 -0.100024,-0.0377638 -0.173713,-0.0377638l-0.0755276 0c-0.208496,0 -0.460717,0.25222 -0.460717,0.460717l0 0.098185c0,0.232878 0.247598,0.475823 0.483374,0.475823l0.0755276 0c0.222909,0 0.463382,-0.241402 0.470437,-0.457811l1.90112 -1.42281c-0.00790945,-0.011811 -0.0196417,-0.0453189 -0.0302126,-0.0453189 -0.0267362,0 -0.970724,0.416567 -1.09061,0.465248 -0.129894,0.0527402 -1.05552,0.463736 -1.09968,0.463736z"/>
  <path class="fil1" d="M1.82558 5.40557l0 0.0377638c0,0.0984134 0.114571,0.211476 0.219028,0.211476l0.0226575 0c0.0761693,0 0.234697,-0.108622 0.294681,-0.143382 0.0857874,-0.0497047 0.203799,-0.0990866 0.203799,-0.234256l0 -0.0302087c0,-0.0987047 -0.103378,-0.211476 -0.188819,-0.211476l-0.0830787 0c-0.031126,0 -0.23024,0.123079 -0.268831,0.146567 -0.0775354,0.0471811 -0.199437,0.103382 -0.199437,0.223516z"/>
  <path class="fil0" d="M5.81341 5.23941l0 0.0528701c0,0.112748 0.139311,0.177709 0.214488,0.223567 0.0643622,0.0392638 0.216323,0.138965 0.299094,0.138965 0.113386,0 0.226583,-0.0940079 0.226583,-0.203925l0 -0.0528701c0,-0.127209 -0.123693,-0.171335 -0.202417,-0.220531 -0.0500551,-0.0312795 -0.22128,-0.141996 -0.280957,-0.141996l-0.045315 0c-0.107626,0 -0.211476,0.10324 -0.211476,0.203921z"/>
 </g>
</svg>
