<?xml version="1.0" encoding="UTF-8"?>
<!DOCTYPE svg PUBLIC "-//W3C//DTD SVG 1.1//EN" "http://www.w3.org/Graphics/SVG/1.1/DTD/svg11.dtd">
<!-- Creator: CorelDRAW -->
<svg xmlns="http://www.w3.org/2000/svg" xml:space="preserve" width="3.5in" height="3.5in" style="shape-rendering:geometricPrecision; text-rendering:geometricPrecision; image-rendering:optimizeQuality; fill-rule:evenodd; clip-rule:evenodd"
viewBox="0 0 3.5 3.5"
 xmlns:xlink="http://www.w3.org/1999/xlink">
 <defs>
  <style type="text/css">
   <![CDATA[
    .str0 {stroke:#DEDEDD;stroke-width:0.0892913}
    .str1 {stroke:#1F1A17;stroke-width:0.110012}
    .fil1 {fill:none}
    .fil0 {fill:white}
    .fil2 {fill:#010101}
    .fil3 {fill:#030303}
   ]]>
  </style>
 </defs>
 <g id="Layer_x0020_1">
  <metadata id="CorelCorpID_0Corel-Layer"/>
  <g id="_110052232">
   <path id="_109891552" class="fil0 str0" d="M1.75 0.25c0.828287,0 1.5,0.671713 1.5,1.5 0,0.828287 -0.671713,1.5 -1.5,1.5 -0.828287,0 -1.5,-0.671713 -1.5,-1.5 0,-0.828287 0.671713,-1.5 1.5,-1.5z"/>
   <g>
    <circle id="_44577888" class="fil1 str1" cx="1.75" cy="1.75" r="0.976299"/>
    <path id="_44578008" class="fil2" d="M1.67424 0.996819l0 0.106898c0,0.0368661 0.0324764,0.0673898 0.0697126,0.0673898l0.00464961 0c0.0363898,0 0.0673898,-0.0329173 0.0673898,-0.0697126l0 -0.0929567c0,-0.0357992 -0.0293228,-0.0673898 -0.0650669,-0.0673898l-0.0185906 0c-0.0257402,0 -0.0580945,0.0319331 -0.0580945,0.0557717z"/>
    <path id="_44577528" class="fil3" d="M1.3001 1.10371l0 0.00464961c0,0.0289409 0.0281378,0.0706339 0.0409016,0.0915591 0.0167126,0.0273898 0.0291535,0.061815 0.0729685,0.061815 0.0399843,0 0.0743622,-0.0309055 0.0743622,-0.0673937 0,-0.0299921 -0.030311,-0.0711654 -0.0433898,-0.0937126 -0.0157126,-0.0270827 -0.0337559,-0.0619843 -0.075126,-0.0619843l-0.00464961 0c-0.0273701,0 -0.0650669,0.0358071 -0.0650669,0.0650669z"/>
    <path id="_44577648" class="fil2" d="M2.00191 1.1897l0 0.00232283c0,0.0388465 0.032311,0.0697126 0.0720394,0.0697126 0.0416732,0 0.0566457,-0.0293071 0.072,-0.0558071 0.00878346,-0.0151614 0.0418661,-0.0685197 0.0418661,-0.0859449l0 -0.0185906c0,-0.0311732 -0.0352795,-0.0604213 -0.0673898,-0.0604213l-0.00929528 0c-0.0343858,0 -0.0531693,0.0387126 -0.0669291,0.0608858 -0.0108976,0.0175669 -0.0422913,0.0649646 -0.0422913,0.0878425z"/>
    <path id="_44577576" class="fil2" d="M1.02589 1.37561l0 0.0139409c0,0.0399646 0.0348583,0.0560079 0.0611811,0.0712795 0.0203976,0.0118346 0.0633425,0.0425906 0.0898701,0.0425906 0.0373031,0 0.0697126,-0.0327874 0.0697126,-0.0720394 0,-0.0410197 -0.0285945,-0.0580236 -0.0557717,-0.0720394 -0.0149528,-0.00770866 -0.0718268,-0.0441535 -0.0859843,-0.0441535l-0.0185866 0c-0.0288937,0 -0.0604213,0.0319961 -0.0604213,0.0604213z"/>
    <path id="_109537848" class="fil2" d="M0.91202 1.74975l0 0.0162638c0,0.0256299 0.019878,0.0478858 0.0379252,0.0573504 0.0299449,0.0157126 0.042748,0.00771654 0.0829134,0.00771654 0.0318465,0 0.0655827,0.0033937 0.0868504,-0.0084252 0.0178504,-0.00992126 0.036315,-0.0321575 0.036315,-0.0589646l0 -0.00232283c0,-0.0392874 -0.0290236,-0.0720394 -0.0673937,-0.0720394l-0.10922 0 -0.00232283 0c-0.0316535,0 -0.0650669,0.0331811 -0.0650669,0.0604213z"/>
    <path id="_109537824" class="fil2" d="M2.32027 1.76137c0,0.0287008 0.016563,0.0498425 0.0348858,0.0603898 0.0305866,0.0176063 0.0398543,0.00932283 0.0813071,0.00932283 0.0316102,3.93701e-006 0.0666929,0.00316929 0.0883622,-0.00691339 0.0183858,-0.00855118 0.0394488,-0.0321732 0.0394488,-0.0581535l0 -0.00929528c0,-0.0355197 -0.031874,-0.0673898 -0.0673937,-0.0673898l-0.118516 0c-0.0300197,0 -0.0580945,0.0379567 -0.0580945,0.0720394z"/>
    <path id="_109538016" class="fil2" d="M1.80438 1.61264c-0.0104331,0 -0.0307756,-0.0116181 -0.0534488,-0.0116181l-0.0232402 0c-0.0641496,0 -0.141752,0.0776024 -0.141752,0.141756l0 0.0302087c0,0.0716535 0.0761811,0.146402 0.148724,0.146402l0.0232402 0c0.0685827,0 0.142575,-0.0742717 0.144744,-0.140858l0.584945 -0.437776c-0.00243701,-0.00363386 -0.00604331,-0.0139449 -0.00929921,-0.0139449 -0.00822441,0 -0.298673,0.128169 -0.335563,0.14315 -0.0399646,0.0162283 -0.324764,0.142685 -0.33835,0.142685l0 -3.93701e-006z"/>
    <path id="_109537728" class="fil3" d="M1.01659 2.13318l0 0.0116181c0,0.0302835 0.035252,0.0650709 0.0673898,0.0650709l0.00697244 0c0.0234331,0 0.0722126,-0.0334213 0.0906693,-0.0441181 0.0263937,-0.0152913 0.0627047,-0.0304882 0.0627047,-0.0720748l0 -0.00929528c0,-0.0303701 -0.0318071,-0.0650669 -0.0580984,-0.0650669l-0.0255591 0c-0.00957874,0 -0.0708425,0.0378661 -0.0827165,0.0450945 -0.0238583,0.0145157 -0.0613622,0.031811 -0.0613622,0.0687717z"/>
    <path id="_110051680" class="fil2" d="M2.24358 2.08206l0 0.0162677c0,0.0346929 0.0428661,0.0546811 0.0659961,0.0687874 0.0198031,0.0120827 0.0665591,0.0427598 0.0920276,0.0427598 0.0348858,0 0.0697126,-0.0289252 0.0697126,-0.0627441l0 -0.0162677c0,-0.0391417 -0.0380551,-0.0527165 -0.0622795,-0.0678543 -0.0154016,-0.00962598 -0.0680827,-0.043689 -0.0864449,-0.043689l-0.0139409 0c-0.0331181,0 -0.0650709,0.0317638 -0.0650709,0.0627402z"/>
   </g>
  </g>
 </g>
</svg>
