<?xml version="1.0" encoding="UTF-8"?>
<!DOCTYPE svg PUBLIC "-//W3C//DTD SVG 1.1//EN" "http://www.w3.org/Graphics/SVG/1.1/DTD/svg11.dtd">
<!-- Creator: CorelDRAW -->
<svg xmlns="http://www.w3.org/2000/svg" xml:space="preserve" width="3.5in" height="3.5in" style="shape-rendering:geometricPrecision; text-rendering:geometricPrecision; image-rendering:optimizeQuality; fill-rule:evenodd; clip-rule:evenodd"
viewBox="0 0 3.5 3.5"
 xmlns:xlink="http://www.w3.org/1999/xlink">
 <defs>
  <style type="text/css">
   <![CDATA[
    .str0 {stroke:#DEDEDD;stroke-width:0.0892913}
    .fil0 {fill:white}
    .fil1 {fill:#1F1A17;fill-rule:nonzero}
   ]]>
  </style>
 </defs>
 <g id="Layer_x0020_1">
  <metadata id="CorelCorpID_0Corel-Layer"/>
  <g id="_110370696">
   <path id="_110371056" class="fil0 str0" d="M1.75 0.25c0.828287,0 1.5,0.671713 1.5,1.5 0,0.828287 -0.671713,1.5 -1.5,1.5 -0.828287,0 -1.5,-0.671713 -1.5,-1.5 0,-0.828287 0.671713,-1.5 1.5,-1.5z"/>
   <path id="_110371080" class="fil1" d="M1.65672 2.14413c-0.000700787,-0.0245039 -0.00104724,-0.0430551 -0.00104724,-0.0553071 0,-0.0724528 0.0101496,-0.13511 0.0307992,-0.187614 0.0150512,-0.0395551 0.0392047,-0.0794567 0.0728071,-0.120063 0.0245039,-0.0294016 0.0689567,-0.0721024 0.132661,-0.128461 0.0640551,-0.0567047 0.105358,-0.101508 0.124614,-0.13511 0.019248,-0.033252 0.0287008,-0.0700039 0.0287008,-0.109559 0,-0.0717559 -0.028,-0.13476 -0.0840079,-0.189366 -0.0560039,-0.0542559 -0.124961,-0.0815551 -0.206169,-0.0815551 -0.0787559,0 -0.144213,0.0248504 -0.196717,0.0738583 -0.0528543,0.0493504 -0.0871535,0.126358 -0.10361,0.231016l-0.189713 -0.022752c0.0171496,-0.140008 0.0679016,-0.247472 0.15226,-0.322024 0.0843583,-0.0745591 0.196016,-0.111661 0.33463,-0.111661 0.147012,0 0.264272,0.0399016 0.35178,0.120059 0.0875079,0.0798071 0.131264,0.176417 0.131264,0.290177 0,0.0654567 -0.0154016,0.126008 -0.0462047,0.181311 -0.0308031,0.0553071 -0.0906575,0.122862 -0.180264,0.201972 -0.0602047,0.0535551 -0.0994134,0.0927559 -0.117961,0.117957 -0.0185512,0.0255512 -0.0322047,0.0546063 -0.0409567,0.0871575 -0.00909843,0.0329055 -0.014,0.0861063 -0.0154016,0.159965l-0.177465 0zm-0.0112008 0.370331l0 -0.210366 0.21002 0 0 0.210366 -0.21002 0z"/>
  </g>
 </g>
</svg>
