<?xml version="1.0" encoding="UTF-8"?>
<!DOCTYPE svg PUBLIC "-//W3C//DTD SVG 1.1//EN" "http://www.w3.org/Graphics/SVG/1.1/DTD/svg11.dtd">
<!-- Creator: CorelDRAW -->
<svg xmlns="http://www.w3.org/2000/svg" xml:space="preserve" width="8.5in" height="8.5in" style="shape-rendering:geometricPrecision; text-rendering:geometricPrecision; image-rendering:optimizeQuality; fill-rule:evenodd; clip-rule:evenodd"
viewBox="0 0 8.5 8.5"
 xmlns:xlink="http://www.w3.org/1999/xlink">
 <defs>
  <style type="text/css">
   <![CDATA[
    .str0 {stroke:#1F1A17;stroke-width:0.003}
    .fil0 {fill:#1F1A17}
    .fil2 {fill:white}
    .fil1 {fill:#010101}
   ]]>
  </style>
 </defs>
 <g id="Layer_x0020_1">
  <metadata id="CorelCorpID_0Corel-Layer"/>
  <polygon class="fil0 str0" points="1.75809,3.40275 4.20016,1.75809 6.76683,3.40275 6.76683,6.79175 1.75809,6.79175 "/>
  <path class="fil1" d="M6.58552 3.60647l0.00680315 2.98763 -4.68218 -0.00682283 0.000964567 -2.9794 2.34165 -1.60971 2.33276 1.60831zm-5.48425 0.042252l0.232417 0.35548 0.147717 -0.0982913 0 3.11011 5.53286 0 0.00205906 -3.11313 0.145638 0.0969213 0.236772 -0.350587 -3.14694 -2.16526 -3.15053 2.16475z"/>
  <path class="fil2" d="M4.25957 4.12104c0,-0.152953 0.13478,-0.284898 0.291091,-0.284898 0.141075,0 0.284902,0.12374 0.284902,0.260126l0 0.0743189c0,0.11937 -0.147161,0.241543 -0.284902,0.241543l-0.00619291 0c-0.156535,0 -0.284898,-0.134469 -0.284898,-0.291091zm-0.458315 0.0371614l0 0.0185787c0,0.104732 0.0805157,0.271591 0.0805157,0.291094 0,0.00792126 -0.552319,0.555433 -0.6085,0.611614 -0.102665,0.102665 -0.200811,0.200811 -0.30348,0.303476 -0.0750197,0.0750236 -0.264776,0.21961 -0.264776,0.348374 0,0.123327 0.0938031,0.23535 0.210575,0.23535l0.0495472 0c0.0958465,0 0.178213,-0.12387 0.191996,-0.12387 0.0183346,0 0.146768,0.137492 0.168764,0.159492 0.0467323,0.0467283 0.105622,0.137795 0.190457,0.137795l0.0123898 0c0.0582598,0 0.223681,-0.189638 0.267858,-0.233811 0.0441732,-0.0441772 0.233811,-0.209598 0.233811,-0.267858l0 -0.0309685c0,-0.0780118 -0.254217,-0.267075 -0.30348,-0.340638 0.061874,-0.041437 0.459421,-0.470705 0.476898,-0.470705 0.0415276,0 0.167673,0.0743228 0.291091,0.0743228l0.142449 0c0.0594882,0 0.223366,-0.0579173 0.263866,-0.0829685 0.0893858,-0.0552992 0.123386,-0.0790394 0.196008,-0.150827 0.0997126,-0.098563 0.202827,-0.300319 0.202827,-0.497035 0,-0.414039 -0.323346,-0.761791 -0.730827,-0.761791l-0.0433543 0c-0.418079,0 -0.724634,0.351724 -0.724634,0.780374z"/>
 </g>
</svg>
