<?xml version="1.0" encoding="UTF-8"?>
<!DOCTYPE svg PUBLIC "-//W3C//DTD SVG 1.1//EN" "http://www.w3.org/Graphics/SVG/1.1/DTD/svg11.dtd">
<!-- Creator: CorelDRAW -->
<svg xmlns="http://www.w3.org/2000/svg" xml:space="preserve" width="8.5in" height="8.5in" style="shape-rendering:geometricPrecision; text-rendering:geometricPrecision; image-rendering:optimizeQuality; fill-rule:evenodd; clip-rule:evenodd"
viewBox="0 0 8.5 8.5"
 xmlns:xlink="http://www.w3.org/1999/xlink"
 version="1.0">
 <defs>
  <style type="text/css">
   <![CDATA[
    .fil0 {fill:#383431}
   ]]>
  </style>
 </defs>
 <g id="Layer_x0020_1">
  <metadata id="CorelCorpID_0Corel-Layer"/>
  <path id="_105360512" class="fil0" d="M4.04021 1.13646c-0.628311,0.0266063 -1.05504,0.237409 -1.24435,0.615016 -0.0695866,0.139173 -0.105398,0.261969 -0.14224,0.491189l-0.0061378 0.0388898 -0.627291 0 -0.628323 0 -0.0900472 0.0266024c-0.127917,0.0368386 -0.20978,0.084937 -0.306996,0.18215 -0.0890276,0.0900512 -0.133028,0.157594 -0.176012,0.274252l-0.0276299 0.0746969 -0.00306693 1.95454c-0.00204724,1.31803 0.00102756,1.97091 0.00818504,2.00467 0.0450276,0.210807 0.192382,0.400118 0.383748,0.492217 0.173957,0.0839094 -0.101311,0.0767441 3.06995,0.0767441 3.17126,0 2.89598,0.00716535 3.06995,-0.0767441 0.191362,-0.0920984 0.33872,-0.281409 0.383748,-0.492217 0.00715748,-0.0337638 0.0102323,-0.686642 0.00818504,-2.00467l-0.00306693 -1.95454 -0.0276339 -0.0746969c-0.0429803,-0.116661 -0.0869803,-0.184201 -0.176008,-0.274252 -0.0972165,-0.0972126 -0.179079,-0.145311 -0.306996,-0.18215l-0.0900472 -0.0266024 -0.60785 0 -0.606827 0 -0.00614173 -0.0388898c-0.0368346,-0.249689 -0.0869803,-0.414441 -0.158614,-0.52087 -0.102335,-0.153496 -0.283457,-0.311087 -0.455378,-0.396024 -0.293689,-0.146331 -0.714272,-0.210799 -1.23309,-0.189311l0 0 -1.1811e-005 0zm0.531106 0.588409c0.210803,0.024563 0.390906,0.0706142 0.505512,0.128937 0.0624213,0.0307047 0.128941,0.0992638 0.161685,0.163732 0.0276339,0.0542362 0.0706142,0.203642 0.0706142,0.245594 0,0.0174016 -0.0562835,0.0184213 -1.04276,0.0184213l-1.04378 0 0.0061378 -0.0388898c0.0194449,-0.138146 0.0654961,-0.248661 0.132008,-0.315181 0.0501417,-0.0501378 0.174984,-0.112567 0.300854,-0.151449 0.240476,-0.0726535 0.568961,-0.0910748 0.909728,-0.0511654l0 0zm2.53168 1.00592c0.0654882,0.0286535 0.123819,0.0839094 0.15452,0.149406l0.0266063 0.0573071 0 0.684594 0 0.685622 -1.13076 0 -1.13076 0 0 -0.0665157c0,-0.25174 -0.16987,-0.46561 -0.40728,-0.515752 -0.0726535,-0.0153543 -0.627291,-0.0153543 -0.699949,0 -0.191358,0.0399094 -0.356118,0.204661 -0.39602,0.39602 -0.00614567,0.029685 -0.0112638,0.0839173 -0.0112638,0.119732l0 0.0665157 -1.14611 0 -1.14612 0 0 -0.685622 0 -0.684594 0.0255827 -0.0552638c0.0317244,-0.0665118 0.0777717,-0.113587 0.144287,-0.146331l0.0501457 -0.0235394 2.81104 -0.00101969c2.75374,0 2.81105,0 2.85607,0.0194409l3.93701e-006 0 7.87402e-006 0zm-2.53577 1.43878l0.0255787 0.024563 0 0.405232 0 0.405236 -0.0255787 0.0245591 -0.0245591 0.0255787 -0.277319 0 -0.277319 0 -0.024563 -0.0255787 -0.0255787 -0.0245591 0 -0.405236 0 -0.405232 0.0255787 -0.024563 0.024563 -0.0255787 0.277319 0 0.277319 0 0.0245591 0.0255787zm-1.05913 0.747024c0,0.0583228 0.00511811,0.13098 0.0112559,0.160657 0.0399094,0.191358 0.204665,0.356118 0.396024,0.39602 0.0726535,0.0153543 0.627291,0.0153543 0.699949,0 0.191358,-0.0399016 0.356118,-0.204661 0.39602,-0.39602 0.00614567,-0.0296772 0.0112638,-0.102335 0.0112638,-0.160657l0 -0.107457 1.13076 0 1.13076 0 0 0.951689 0 0.952709 -0.0296772 0.0593504c-0.0347913,0.0675315 -0.0757244,0.106421 -0.149406,0.140193l-0.0511654 0.0245591 -2.80388 0 -2.80387 0 -0.0511732 -0.0245591c-0.0736732,-0.0337717 -0.114606,-0.0726535 -0.149402,-0.140193l-0.0296811 -0.0593504 0 -0.952709 0 -0.951689 1.14612 0 1.14611 0 0 0.107457 3.93701e-006 0 -1.1811e-005 0z"/>
 </g>
</svg>
