<?xml version="1.0" encoding="UTF-8"?>
<!DOCTYPE svg PUBLIC "-//W3C//DTD SVG 1.1//EN" "http://www.w3.org/Graphics/SVG/1.1/DTD/svg11.dtd">
<!-- Creator: CorelDRAW -->
<svg xmlns="http://www.w3.org/2000/svg" xml:space="preserve" width="6.667in" height="7.111in" style="shape-rendering:geometricPrecision; text-rendering:geometricPrecision; image-rendering:optimizeQuality; fill-rule:evenodd; clip-rule:evenodd"
viewBox="0 0 6.667 7.111"
 xmlns:xlink="http://www.w3.org/1999/xlink">
 <defs>
  <style type="text/css">
   <![CDATA[
    .fil0 {fill:#EDA523}
   ]]>
  </style>
 </defs>
 <g id="Layer_x0020_1">
  <metadata id="CorelCorpID_0Corel-Layer"/>
  <path class="fil0" d="M3.38906 -5.51181e-005l-0.11111 0c-0.0800354,0.0556102 -0.166665,0.0734567 -0.166665,0.22222l0 0.694445c0,0.0867323 0.107713,0.194445 0.194441,0.194445l0.0555591 0c0.0867283,0 0.194441,-0.107713 0.194441,-0.194445l0 -0.694445c0,-0.148764 -0.0866299,-0.16661 -0.166665,-0.22222z"/>
  <path class="fil0" d="M1.55572 0.611055l0 0.0555551c0,0.0561024 0.191382,0.372252 0.230469,0.436197 0.0761063,0.124504 0.146646,0.341583 0.325087,0.341583 0.117075,0 0.22222,-0.102496 0.22222,-0.222224 0,-0.117413 -0.167906,-0.363744 -0.222449,-0.458106 -0.0719724,-0.124512 -0.154807,-0.347449 -0.333106,-0.347449l-0.0277795 0c-0.0867323,0 -0.194441,0.107713 -0.194441,0.194445z"/>
  <path class="fil0" d="M4.3335 1.23606l0 0.0138898c0,0.0942323 0.119272,0.194445 0.208335,0.194445l0.0277756 0c0.158717,0 0.241709,-0.227906 0.311197,-0.341583 0.0390866,-0.0639449 0.230472,-0.380094 0.230472,-0.436197l0 -0.0555551c0,-0.102295 -0.113638,-0.194445 -0.222224,-0.194445 -0.179453,0 -0.261055,0.223102 -0.333106,0.347449 -0.0608031,0.104941 -0.222449,0.333937 -0.222449,0.471996z"/>
  <path class="fil0" d="M0.416835 1.77772c0,0.182819 0.206055,0.244535 0.330516,0.32226 0.0588583,0.0367598 0.384504,0.233295 0.433374,0.233295l0.0694409 0c0.0942323,0 0.194445,-0.119272 0.194445,-0.208335l0 -0.0277795c0,-0.158717 -0.227902,-0.241705 -0.341583,-0.311193 -0.0639449,-0.0390906 -0.380091,-0.230472 -0.436193,-0.230472l-0.0555551 0c-0.102299,0 -0.194445,0.113634 -0.194445,0.222224z"/>
  <path class="fil0" d="M5.41683 2.33328l0.0694409 0c0.0507087,0 0.35787,-0.18802 0.416252,-0.222642 0.101882,-0.0604252 0.347638,-0.163311 0.347638,-0.305138l0 -0.0555551c0,-0.0867323 -0.107713,-0.194445 -0.194445,-0.194445l-0.0555551 0c-0.0602835,0 -0.492256,0.261189 -0.569217,0.305783 -0.0971457,0.0562874 -0.181835,0.087685 -0.204146,0.227496 -0.0174961,0.109634 0.0850866,0.2445 0.190031,0.2445z"/>
  <path class="fil0" d="M0.000165354 3.33328c0,0.125524 0.0966969,0.22222 0.222224,0.22222l0.694445 0c0.0867323,0 0.194445,-0.107713 0.194445,-0.194445l0 -0.0555551c0,-0.0867323 -0.107713,-0.194445 -0.194445,-0.194445l-0.694445 0c-0.125528,0 -0.222224,0.0966969 -0.222224,0.222224z"/>
  <path class="fil0" d="M5.55572 3.33328c0,0.125524 0.0966969,0.22222 0.222224,0.22222l0.666665 0c0.125528,0 0.222224,-0.0966969 0.222224,-0.22222 0,-0.125528 -0.0966969,-0.222224 -0.222224,-0.222224l-0.666665 0c-0.125528,0 -0.222224,0.0966969 -0.222224,0.222224z"/>
  <path class="fil0" d="M0.666835 5.11106c0.0679961,0 0.357591,-0.190921 0.435102,-0.231563 0.114173,-0.0598622 0.342673,-0.158445 0.342673,-0.310102l0 -0.0277795c0,-0.089063 -0.100213,-0.208331 -0.194445,-0.208331l-0.0694409 0c-0.051937,0 -0.373256,0.1955 -0.433362,0.233303 -0.12372,0.077811 -0.330528,0.138047 -0.330528,0.322252 0,0.108587 0.0921457,0.22222 0.194445,0.22222l0.0555551 0z"/>
  <path class="fil0" d="M5.22239 4.56939c0,0.16048 0.23665,0.245854 0.349988,0.316677 0.0597323,0.0373228 0.373075,0.224988 0.427787,0.224988l0.0555551 0c0.0867323,0 0.194445,-0.107713 0.194445,-0.194445l0 -0.0555551c0,-0.140098 -0.245626,-0.246331 -0.347449,-0.305327 -0.0580748,-0.0336535 -0.369406,-0.222449 -0.416441,-0.222449l-0.0694409 0c-0.107075,0 -0.194445,0.124343 -0.194445,0.23611z"/>
  <path class="fil0" d="M2.88906 5.77772l0.88889 0 0 0.444445 -0.88889 0 0 -0.444445zm-1.11111 -2.45833c0,-0.824575 0.7075,-1.54167 1.52778,-1.54167 0.87648,0 1.58333,0.685957 1.58333,1.55556 0,0.401012 -0.158748,0.740413 -0.343413,0.962138 -0.151559,0.181976 -0.515059,0.479 -0.767697,0.537862l0 0.5 -0.88889 0 0 -0.5c-0.264626,-0.0616535 -0.613299,-0.358807 -0.774394,-0.545051 -0.184583,-0.213402 -0.336717,-0.573488 -0.336717,-0.968839zm1.45833 3.79167l0.194441 0c0.170327,-0.108071 0.347224,-0.132909 0.347224,-0.444445 0.232398,0 0.444445,-0.188319 0.444445,-0.402776l0 -1.15278c0.237858,-0.0554134 0.637181,-0.465717 0.769728,-0.660827 0.183248,-0.269748 0.341382,-0.642996 0.341382,-1.08917l0 -0.13889c0,-0.950244 -0.938642,-1.88889 -1.88889,-1.88889l-0.22222 0c-0.950248,0 -1.88889,0.938642 -1.88889,1.88889l0 0.222224c0,0.364681 0.199594,0.819661 0.358705,1.03018 0.142024,0.187913 0.509862,0.579976 0.752406,0.636484l0 1.13889c0,0.232236 0.206012,0.416665 0.444445,0.416665 0,0.311535 0.176898,0.336374 0.347224,0.444445z"/>
 </g>
</svg>
