<?xml version="1.0" encoding="UTF-8"?>
<!DOCTYPE svg PUBLIC "-//W3C//DTD SVG 1.1//EN" "http://www.w3.org/Graphics/SVG/1.1/DTD/svg11.dtd">
<!-- Creator: CorelDRAW -->
<svg xmlns="http://www.w3.org/2000/svg" xml:space="preserve" width="1.8in" height="1in" style="shape-rendering:geometricPrecision; text-rendering:geometricPrecision; image-rendering:optimizeQuality; fill-rule:evenodd; clip-rule:evenodd"
viewBox="0 0 1.8 1"
 xmlns:xlink="http://www.w3.org/1999/xlink">
 <defs>
  <style type="text/css">
   <![CDATA[
    .str3 {stroke:#0093DD;stroke-width:0.003}
    .str2 {stroke:#2986B9;stroke-width:0.0711063}
    .str0 {stroke:#2986B9;stroke-width:0.0712559}
    .str1 {stroke:#2986B9;stroke-width:0.0713307}
    .fil0 {fill:none}
    .fil1 {fill:#383431}
   ]]>
  </style>
 </defs>
 <g id="Layer_x0020_1">
  <metadata id="CorelCorpID_0Corel-Layer"/>
  <path class="fil0 str0" d="M0.673626 0.126657l0.977961 0c0.0205315,0 0.0373346,0.0167992 0.0373346,0.0373346l0 0.672024c0,0.0205354 -0.0168031,0.0373346 -0.0373346,0.0373346l-0.977961 0c-0.0205354,0 -0.0373346,-0.0167992 -0.0373346,-0.0373346l0 -0.672024c0,-0.0205354 0.0167992,-0.0373346 0.0373346,-0.0373346z"/>
  <path class="fil0 str1" d="M1.66263 0.134031c-0.141114,0.110177 -0.261492,0.228126 -0.402606,0.338299 -0.0652677,0.0498819 -0.10048,0.0722323 -0.202898,-0.00714567l-0.389969 -0.320091"/>
  <line class="fil0 str1" x1="0.646661" y1="0.847425" x2="1.06149" y2= "0.474079" />
  <line class="fil0 str2" x1="1.66818" y1="0.868165" x2="1.25335" y2= "0.453335" />
  <path class="fil1 str3" d="M0.148071 0.28898l0.332953 0c0.0203504,0 0.0369961,0.0166457 0.0369961,0.0369961l0 0c0,0.0203465 -0.0166457,0.0369961 -0.0369961,0.0369961l-0.332953 0c-0.0203465,0 -0.0369921,-0.0166496 -0.0369921,-0.0369961l0 0c0,-0.0203504 0.0166457,-0.0369961 0.0369921,-0.0369961z"/>
  <path class="fil1 str3" d="M0.249563 0.467646l0.219272 0c0.0203504,0 0.0369961,0.0166496 0.0369961,0.0369961l0 0c0,0.0203465 -0.0166535,0.0369961 -0.0369961,0.0369961l-0.219272 0c-0.0203425,0 -0.0369961,-0.0166496 -0.0369961,-0.0369961l0 0c0,-0.0203465 0.0166457,-0.0369961 0.0369961,-0.0369961z"/>
  <path class="fil1 str3" d="M0.351051 0.646311l0.105594 0c0.0203504,0 0.0369961,0.0166496 0.0369961,0.0369961l0 0c0,0.0203465 -0.0166575,0.0369961 -0.0369961,0.0369961l-0.105594 0c-0.0203386,0 -0.0369961,-0.0166496 -0.0369961,-0.0369961l0 0c0,-0.0203465 0.0166496,-0.0369961 0.0369961,-0.0369961z"/>
 </g>
</svg>
