<?xml version="1.0" encoding="UTF-8"?>
<!DOCTYPE svg PUBLIC "-//W3C//DTD SVG 1.1//EN" "http://www.w3.org/Graphics/SVG/1.1/DTD/svg11.dtd">
<!-- Creator: CorelDRAW -->
<svg xmlns="http://www.w3.org/2000/svg" xml:space="preserve" width="2in" height="2in" style="shape-rendering:geometricPrecision; text-rendering:geometricPrecision; image-rendering:optimizeQuality; fill-rule:evenodd; clip-rule:evenodd"
viewBox="0 0 2 2"
 xmlns:xlink="http://www.w3.org/1999/xlink">
 <defs>
  <style type="text/css">
   <![CDATA[
    .str0 {stroke:white;stroke-width:0.0416654}
    .fil3 {fill:none}
    .fil1 {fill:#1F1A17}
    .fil0 {fill:white}
    .fil2 {fill:#FED000}
   ]]>
  </style>
 </defs>
 <g id="Layer_x0020_1">
  <metadata id="CorelCorpID_0Corel-Layer"/>
  <path class="fil0" d="M1 0.130016c0.480398,0 0.869984,0.389587 0.869984,0.869984 0,0.480398 -0.389587,0.869984 -0.869984,0.869984 -0.480398,0 -0.869984,-0.389587 -0.869984,-0.869984 0,-0.480398 0.389587,-0.869984 0.869984,-0.869984z"/>
  <g id="_109360968">
   <polygon id="_93300584" class="fil1" points="0.853201,1.43956 0.849094,1.44161 0.844988,1.44366 0.842937,1.44572 0.840886,1.44777 0.838831,1.44982 0.836776,1.45393 0.834724,1.46009 0.834724,1.48472 0.836776,1.48883 0.838831,1.49294 0.840886,1.49499 0.842937,1.49704 0.844988,1.49909 0.847043,1.50115 0.849094,1.5032 0.855256,1.50526 0.861413,1.50731 1.13858,1.50731 1.14474,1.50526 1.1509,1.5032 1.15295,1.50115 1.155,1.49909 1.15706,1.49704 1.15911,1.49499 1.16116,1.49294 1.16322,1.48883 1.16527,1.48472 1.16527,1.46009 1.16322,1.45393 1.16116,1.45187 1.15911,1.44777 1.15706,1.44572 1.155,1.44366 1.1509,1.44161 1.14679,1.43956 1.14063,1.4375 0.857307,1.4375 "/>
   <polygon id="_93301160" class="fil1" points="0.861413,1.54837 0.857307,1.55042 0.853201,1.55248 0.85115,1.55453 0.849094,1.55658 0.847043,1.55863 0.844988,1.56069 0.842937,1.5648 0.840886,1.5689 0.840886,1.59559 0.842937,1.5997 0.844988,1.6038 0.847043,1.60585 0.849094,1.60791 0.85115,1.60996 0.853201,1.61202 0.857307,1.61407 0.863469,1.61612 0.871681,1.61817 1.13037,1.61817 1.13858,1.61612 1.14269,1.61407 1.14679,1.61202 1.14884,1.60996 1.1509,1.60791 1.15295,1.60585 1.155,1.6038 1.15706,1.5997 1.15911,1.59354 1.15911,1.57095 1.15706,1.5648 1.155,1.56069 1.15295,1.55863 1.1509,1.55658 1.14884,1.55453 1.14679,1.55248 1.14474,1.55042 1.14063,1.54837 1.13242,1.54631 0.867575,1.54631 "/>
   <path id="_109353360" class="fil2" d="M0.999996 0.381827c0.230189,0 0.416862,0.186673 0.416862,0.416858 0,0.166138 -0.0972559,0.309583 -0.237917,0.376563l0 0.150965c0,0.0295236 -0.0241614,0.053685 -0.053685,0.053685l-0.25052 0c-0.0295236,0 -0.053685,-0.0241575 -0.053685,-0.053685l0 -0.150969c-0.140657,-0.0669803 -0.237913,-0.210421 -0.237913,-0.376559 0,-0.230185 0.186673,-0.416858 0.416858,-0.416858z"/>
   <path id="_109358496" class="fil3 str0" d="M0.948315 1.38048l0 -0.501315c0,-0.0378898 -0.0631654,-0.104508 -0.12978,-0.0470906 -0.0283228,0.0244173 -0.0234961,0.0633819 -0.0179803,0.0823898 0.00918898,0.031685 0.0455354,0.0473937 0.074252,0.0473937 0.0459449,0 0.244634,0 0.244634,0 0,0 0.0446575,0.00193307 0.0683425,-0.0277402 0.0268465,-0.033626 0.0219449,-0.10239 -0.0327402,-0.119268 -0.111177,-0.0343228 -0.110256,0.091878 -0.110256,0.091878l0 0.473248"/>
  </g>
 </g>
</svg>
