<?xml version="1.0" encoding="UTF-8"?>
<!DOCTYPE svg PUBLIC "-//W3C//DTD SVG 1.1//EN" "http://www.w3.org/Graphics/SVG/1.1/DTD/svg11.dtd">
<!-- Creator: CorelDRAW -->
<svg xmlns="http://www.w3.org/2000/svg" xml:space="preserve" width="5.3in" height="2in" style="shape-rendering:geometricPrecision; text-rendering:geometricPrecision; image-rendering:optimizeQuality; fill-rule:evenodd; clip-rule:evenodd"
viewBox="0 0 5.3 2"
 xmlns:xlink="http://www.w3.org/1999/xlink">
 <defs>
  <style type="text/css">
   <![CDATA[
    .fil0 {fill:#84C225}
    .fil3 {fill:white}
    .fil2 {fill:#1F1A17;fill-rule:nonzero}
    .fil1 {fill:#84C225;fill-rule:nonzero}
   ]]>
  </style>
 </defs>
 <g id="Layer_x0020_1">
  <metadata id="CorelCorpID_0Corel-Layer"/>
  <path class="fil0" d="M1.13611 0.352969c0.364157,0 0.659476,0.295319 0.659476,0.659472 0,0.364157 -0.295319,0.659476 -0.659476,0.659476 -0.364154,0 -0.659472,-0.295319 -0.659472,-0.659476 0,-0.364154 0.295319,-0.659472 0.659472,-0.659472z"/>
  <g>
   <path class="fil1" d="M4.91694 0.167807l0 0 -4.53388 0 0 -0.0618661 4.53388 0 0 0.0618661zm0.263992 0.202126l-0.0618661 0 0 0 -0.000185039 -0.010374 -0.000783465 -0.0102205 -0.00136614 -0.0101811 -0.00169685 -0.00987402 -0.00225197 -0.00967717 -0.00279134 -0.00958661 -0.00319291 -0.00936614 -0.00358661 -0.00912205 -0.00407874 -0.00898425 -0.00443701 -0.00872047 -0.00490551 -0.0084252 -0.00535433 -0.00825197 -0.00554331 -0.00793307 -0.00609055 -0.00760236 -0.00637402 -0.00738189 -0.00675984 -0.00701969 -0.00701969 -0.00675984 -0.00738189 -0.00637795 -0.00760236 -0.00608661 -0.00793307 -0.00566929 -0.00824803 -0.00523228 -0.00842913 -0.00490551 -0.00872047 -0.00444094 -0.00898425 -0.0040748 -0.00912205 -0.00358661 -0.00936614 -0.00319685 -0.00958661 -0.00279134 -0.0096811 -0.00225197 -0.00987402 -0.00169685 -0.0101811 -0.00136614 -0.0102244 -0.000783465 -0.010374 -0.000185039 0 -0.0618661 0.0135157 0.00042126 0.0133661 0.00102756 0.0130787 0.00161024 0.0130157 0.00242126 0.0128228 0.00297638 0.0124921 0.00351575 0.0122638 0.00416535 0.0120197 0.00479134 0.0116457 0.0052874 0.011374 0.00588976 0.0110906 0.00635433 0.0106654 0.0069252 0.0103504 0.0073622 0.0100197 0.00777953 0.00955512 0.00830709 0.00919291 0.00869685 0.00869685 0.00919291 0.00830315 0.00955512 0.00778346 0.0100197 0.00748031 0.0103504 0.00680315 0.0106693 0.00635433 0.0110866 0.00588583 0.011374 0.00529134 0.0116457 0.00479134 0.0120197 0.00416142 0.0122638 0.00351575 0.0124921 0.00297638 0.0128189 0.00242126 0.0130157 0.00161024 0.0130787 0.00102756 0.0133622 0.00042126 0.0135157 0 0zm-0.0618661 1.26013l0 0 0 -1.26013 0.0618661 0 0 1.26013 -0.0618661 0zm-0.202126 0.263992l0 -0.0618661 0 0 0.010374 -0.000185039 0.0102205 -0.000783465 0.0101811 -0.00136614 0.00987402 -0.00169685 0.00967717 -0.00225197 0.00958661 -0.00279134 0.00936614 -0.00319685 0.00912205 -0.00358661 0.00898425 -0.0040748 0.00872047 -0.00444094 0.0084252 -0.00490551 0.00825197 -0.00523228 0.00793307 -0.00566929 0.00760236 -0.00608661 0.00738189 -0.00637795 0.00701969 -0.00675984 0.00675984 -0.00701969 0.00637795 -0.00738189 0.00608661 -0.00760236 0.00566929 -0.00793307 0.00523228 -0.00825197 0.00490551 -0.0084252 0.00444094 -0.00872047 0.0040748 -0.00898425 0.00358661 -0.00912205 0.00319685 -0.00936614 0.00279134 -0.00958661 0.00225197 -0.00967717 0.00169685 -0.00987402 0.00136614 -0.0101811 0.000783465 -0.0102205 0.000185039 -0.010374 0.0618661 0 -0.00042126 0.0135157 -0.00102756 0.0133622 -0.00161024 0.0130787 -0.00242126 0.0130157 -0.00297638 0.0128189 -0.00351575 0.0124921 -0.00416535 0.0122638 -0.00479134 0.0120197 -0.0052874 0.0116457 -0.00588976 0.011374 -0.00635433 0.0110866 -0.0069252 0.0106693 -0.0073622 0.0103504 -0.00777953 0.0100197 -0.00830709 0.00955512 -0.00869685 0.00919291 -0.00919291 0.00869685 -0.00955512 0.00830709 -0.0100197 0.00777953 -0.0103504 0.0073622 -0.0106693 0.0069252 -0.0110866 0.00635433 -0.011374 0.00588976 -0.0116457 0.0052874 -0.0120197 0.00479134 -0.0122638 0.00416535 -0.0124921 0.00351575 -0.0128189 0.00297638 -0.0130157 0.00242126 -0.0130787 0.00161024 -0.0133622 0.00102756 -0.0135157 0.00042126 0 0zm-4.53388 -0.0618661l0 0 4.53388 0 0 0.0618661 -4.53388 0 0 -0.0618661zm-0.263992 -0.202126l0.0618661 0 0 0 0.000185039 0.010374 0.000783465 0.0102244 0.00136614 0.0101811 0.00169685 0.00987795 0.00225197 0.00967717 0.00279134 0.00958661 0.00319685 0.00936614 0.00358661 0.00912205 0.0040748 0.00898819 0.00444094 0.00871654 0.00490551 0.00842913 0.00523228 0.00824803 0.00566929 0.00793701 0.00608661 0.00760236 0.00637795 0.00737795 0.00675984 0.0071378 0.00701969 0.00664567 0.00738189 0.00637402 0.00760236 0.00608661 0.00793307 0.00566929 0.00825197 0.00523228 0.0084252 0.00490157 0.00872047 0.00444094 0.00898425 0.0040748 0.00912205 0.00358661 0.00936614 0.00319291 0.00958661 0.00279134 0.00967717 0.00225197 0.00987402 0.00169685 0.0101811 0.00136614 0.0102205 0.000783465 0.010374 0.000185039 0 0.0618661 -0.0135157 -0.00042126 -0.0133622 -0.00102756 -0.0130787 -0.00161024 -0.0130157 -0.00242126 -0.0128189 -0.00297638 -0.0124921 -0.00351575 -0.0122638 -0.00416142 -0.0120197 -0.00479134 -0.0116457 -0.0052874 -0.011374 -0.00588976 -0.0110866 -0.00635039 -0.0106693 -0.0069252 -0.0103504 -0.0073622 -0.0100197 -0.00777953 -0.00955512 -0.00830315 -0.00919291 -0.0088189 -0.00869685 -0.0090748 -0.00830709 -0.00955118 -0.00777953 -0.0100197 -0.0073622 -0.0103543 -0.0069252 -0.0106654 -0.00635433 -0.0110906 -0.00588976 -0.0113701 -0.0052874 -0.0116496 -0.00479134 -0.0120197 -0.00416535 -0.0122638 -0.00351575 -0.0124921 -0.00297638 -0.0128189 -0.00242126 -0.0130197 -0.00161024 -0.0130787 -0.00102756 -0.0133661 -0.00042126 -0.0135157 0 0zm0.0618661 -1.26013l0 0 0 1.26013 -0.0618661 0 0 -1.26013 0.0618661 0zm0.202126 -0.263992l0 0.0618661 0 0 -0.010374 0.000185039 -0.0102244 0.000783465 -0.0101811 0.00136614 -0.00987402 0.00169685 -0.0096811 0.00225197 -0.00958661 0.00279134 -0.00936614 0.00319291 -0.00912205 0.00358661 -0.00898425 0.00407874 -0.00872047 0.00443701 -0.00842913 0.00490551 -0.00824803 0.00523228 -0.00793307 0.00566535 -0.00760236 0.00609055 -0.00738189 0.00637402 -0.00701969 0.00675984 -0.00675984 0.00701969 -0.00637402 0.00738189 -0.00609055 0.00760236 -0.00566535 0.00793307 -0.00523228 0.00824803 -0.00490551 0.00842913 -0.00443701 0.00872047 -0.00407874 0.00898425 -0.00358661 0.00912205 -0.00319291 0.00936614 -0.00279134 0.00958661 -0.00225197 0.0096811 -0.00169685 0.00987402 -0.00136614 0.0101811 -0.000783465 0.0102244 -0.000185039 0.010374 -0.0618661 0 0.00042126 -0.0135157 0.00102756 -0.0133661 0.00161024 -0.0130787 0.00242126 -0.0130157 0.00297638 -0.0128228 0.00351575 -0.0124921 0.00416142 -0.0122638 0.00479134 -0.0120197 0.00529134 -0.0116457 0.00588583 -0.011374 0.00635433 -0.0110906 0.0069252 -0.0106654 0.00735827 -0.0103504 0.00778346 -0.0100197 0.00830315 -0.00955512 0.00869685 -0.00919291 0.00919291 -0.00869685 0.00955512 -0.00830315 0.0100197 -0.00778346 0.0103504 -0.00735827 0.0106654 -0.0069252 0.0110906 -0.00635433 0.011374 -0.00588583 0.0116457 -0.00529134 0.0120197 -0.00479134 0.0122638 -0.00416142 0.0124921 -0.00351575 0.0128228 -0.00297638 0.0130157 -0.00242126 0.0130787 -0.00161024 0.0133661 -0.00102756 0.0135157 -0.00042126 0 0z"/>
  </g>
  <path class="fil2" d="M2.20906 0.7265l0.132913 0.464535 0.00240551 0 0.133315 -0.464535 0.102354 0 0 0.569291 -0.0784685 0 0 -0.218591 0.00694094 -0.218988 -0.00227165 -0.000401575 -0.136917 0.43798 -0.052311 0 -0.13652 -0.437579 -0.00226772 0.000401575 0.00733858 0.218587 0 0.218591 -0.0785984 0 0 -0.569291 0.102087 0zm0.588776 0.423433l0.00587402 0.0277559 0.00240157 0 0.0812677 -0.304929 0.0864764 0 -0.148264 0.488689c-0.00987402,0.0292244 -0.0232165,0.0540472 -0.0401654,0.0744646 -0.0169488,0.0204173 -0.0413701,0.0306929 -0.0731299,0.0306929 -0.00653937,0 -0.0134803,-0.000669291 -0.0209528,-0.00213386 -0.00747244,-0.0014685 -0.014811,-0.00307087 -0.0220197,-0.00494094l0.00854331 -0.0587165c0.00293307,0.000535433 0.00680315,0.00106693 0.0117402,0.00160236 0.00494094,0.000531496 0.00881102,0.000799213 0.0117441,0.000799213 0.0153465,0 0.0274921,-0.00653937 0.0365669,-0.019748 0.00894094,-0.0130787 0.015878,-0.0286929 0.0209488,-0.0467087l0.0140157 -0.0429685 -0.13065 -0.421031 0.0860748 0 0.0695276 0.277173zm0.750783 -0.0269567l0.00106693 0.00240157c-0.000267717,0.0568504 -0.0153465,0.100752 -0.045374,0.13198 -0.0298937,0.0310945 -0.0721969,0.0467087 -0.127043,0.0467087 -0.0557795,0 -0.100354,-0.0188189 -0.133717,-0.0563189 -0.0333622,-0.0374961 -0.0500433,-0.0899409 -0.0500433,-0.157201l0 -0.15787c0,-0.0672598 0.0165512,-0.119839 0.0495118,-0.157602 0.0329606,-0.0377677 0.077,-0.0567165 0.13198,-0.0567165 0.0557795,0 0.0986181,0.0152126 0.128646,0.0457717 0.0298898,0.0304291 0.0452362,0.075 0.0460394,0.133717l-0.00106693 0.00226772 -0.0751339 0c-0.000799213,-0.0413661 -0.00894094,-0.0719291 -0.024689,-0.0914094 -0.0156102,-0.0196181 -0.0401654,-0.0293622 -0.0737953,-0.0293622 -0.032563,0 -0.0579173,0.0132126 -0.0759331,0.0395039 -0.0178819,0.0262874 -0.0269567,0.0639213 -0.0269567,0.11263l0 0.159071c0,0.0496417 0.00920866,0.0875433 0.027626,0.113831 0.0182795,0.0262913 0.0441693,0.0395 0.0775315,0.0395 0.0328307,0 0.0569843,-0.0096063 0.0721969,-0.028689 0.0152126,-0.0192165 0.0230866,-0.0499094 0.023622,-0.0922126l0.0755315 0zm0.292787 0.172815c-0.00280315,-0.00961024 -0.00520472,-0.0190827 -0.0070748,-0.0282913 -0.00173228,-0.00934252 -0.00293307,-0.0185472 -0.0034685,-0.0280236 -0.0117441,0.0190827 -0.0264213,0.034563 -0.0441732,0.0465748 -0.017748,0.0120079 -0.0373622,0.0180157 -0.0589843,0.0180157 -0.0357638,0 -0.0636535,-0.0113465 -0.083937,-0.0338976 -0.0201496,-0.0225512 -0.0302953,-0.0527126 -0.0302953,-0.0904803 0,-0.0404331 0.013748,-0.0721929 0.0412362,-0.0952795 0.0274921,-0.0230866 0.0661929,-0.034563 0.115969,-0.034563l0.0589843 0 0 -0.043374c0,-0.0258858 -0.00574016,-0.0460394 -0.0172165,-0.0604488 -0.0114764,-0.0145472 -0.0277559,-0.021752 -0.0488425,-0.021752 -0.0189488,0 -0.0342953,0.00653543 -0.0459055,0.0196142 -0.0116102,0.0129449 -0.0174803,0.0292244 -0.0174803,0.0488425l-0.0753976 -0.000401575 -0.00120079 -0.00240157c-0.00120472,-0.0325591 0.0117402,-0.0615197 0.0390984,-0.086874 0.0273583,-0.0254882 0.0627205,-0.0381654 0.105957,-0.0381654 0.0417717,0 0.0755354,0.0122756 0.101421,0.0369646 0.0260236,0.0245551 0.0389685,0.0597835 0.0389685,0.105425l0 0.196169c0,0.0165472 0.000933071,0.0322953 0.00293701,0.0475079 0.002,0.0153465 0.00507087,0.0302913 0.0096063,0.0448386l-0.0802008 0zm-0.0958189 -0.0527126c0.0185512,0 0.0353661,-0.00547244 0.0507126,-0.0164134 0.0152126,-0.0109449 0.0262874,-0.024689 0.0333622,-0.0411024l0 -0.0864764 -0.060185 0c-0.0242874,0 -0.0431063,0.00774016 -0.0564488,0.0232205 -0.0134803,0.0156142 -0.0201496,0.034563 -0.0201496,0.0569843 0,0.0190827 0.00453543,0.0344291 0.0136102,0.0461732 0.00920866,0.0117441 0.0221535,0.0176142 0.0390984,0.0176142zm0.338295 0.0527126l-0.0794016 0 0 -0.609862 0.0794016 0 0 0.609862zm0.180689 0l-0.0794016 0 0 -0.609862 0.0794016 0 0 0.609862zm0.293185 -0.105957c0,-0.0164173 -0.00533858,-0.0302953 -0.0161457,-0.0416378 -0.010811,-0.0113425 -0.0312283,-0.023752 -0.0612559,-0.0373661 -0.0435039,-0.0169488 -0.0757953,-0.0349646 -0.096748,-0.0541811 -0.0209528,-0.0190827 -0.0314961,-0.0439016 -0.0314961,-0.0744646 0,-0.0325591 0.0129449,-0.0603189 0.0385669,-0.0831378 0.025622,-0.0228189 0.0593858,-0.0341614 0.101024,-0.0341614 0.0435039,0 0.0782008,0.0122756 0.104087,0.0369646 0.0257559,0.024689 0.0381693,0.0553819 0.0371024,0.0920787l-0.00080315 0.00240157 -0.0761969 0c0,-0.0201496 -0.00574016,-0.0373661 -0.0170827,-0.0517756 -0.0113425,-0.0145472 -0.0269567,-0.021752 -0.0471063,-0.021752 -0.019752,0 -0.0352323,0.00560236 -0.0463071,0.016815 -0.0110787,0.0112087 -0.0165472,0.0244213 -0.0165472,0.0395 0,0.0161457 0.00466929,0.0289567 0.0142756,0.0382992 0.00947638,0.00934252 0.0300276,0.0216181 0.0615236,0.0366969 0.0443031,0.0158819 0.0772638,0.0340315 0.098752,0.0541811 0.0214843,0.0202835 0.0321614,0.0461732 0.0321614,0.0776693 0,0.0349606 -0.0132126,0.0633858 -0.0397717,0.0852717 -0.026689,0.0218858 -0.0615197,0.0328307 -0.10489,0.0328307 -0.0465709,0 -0.0834055,-0.0132126 -0.110228,-0.0396378 -0.0268228,-0.0265551 -0.0396339,-0.0575157 -0.0382992,-0.0930118l0.000799213 -0.00226772 0.0739331 0c0.00106693,0.0273543 0.00853937,0.0471063 0.022685,0.059252 0.0140118,0.0121417 0.0314961,0.0181457 0.052311,0.0181457 0.020685,0 0.0367008,-0.00533465 0.048311,-0.015878 0.0116102,-0.0105433 0.0173465,-0.0241535 0.0173465,-0.0408346z"/>
  <polygon class="fil3" points="0.938567,0.571752 0.935055,0.571906 0.932378,0.572232 0.930539,0.572724 0.928697,0.57322 0.926854,0.573717 0.92585,0.574382 0.924008,0.574874 0.922169,0.57537 0.921161,0.576035 0.919319,0.576528 0.91748,0.577024 0.916472,0.577689 0.914634,0.578185 0.913626,0.57885 0.911787,0.579343 0.91078,0.580008 0.908941,0.580504 0.907933,0.581169 0.906091,0.581661 0.905087,0.582327 0.904083,0.582992 0.90224,0.583488 0.901232,0.584154 0.899394,0.584646 0.898386,0.585311 0.897382,0.585976 0.895539,0.586472 0.894535,0.587138 0.893528,0.587803 0.892524,0.588469 0.890681,0.588961 0.889677,0.589626 0.888669,0.590291 0.887665,0.590957 0.886661,0.591622 0.884819,0.592118 0.883811,0.592783 0.882807,0.593445 0.881803,0.59411 0.880795,0.594776 0.879791,0.595441 0.877949,0.595937 0.876945,0.596602 0.875937,0.597268 0.874933,0.597933 0.873925,0.598598 0.872921,0.59926 0.871913,0.599925 0.870909,0.600591 0.869902,0.601256 0.868898,0.601921 0.86789,0.602587 0.866886,0.603252 0.865882,0.603917 0.864874,0.604583 0.86387,0.605248 0.862862,0.605913 0.861858,0.606579 0.86085,0.60724 0.859846,0.607906 0.858839,0.608571 0.857835,0.609236 0.856657,0.610736 0.855654,0.611402 0.854646,0.612067 0.853642,0.612732 0.852634,0.613398 0.85163,0.614063 0.850453,0.615563 0.849449,0.616228 0.848441,0.616894 0.847437,0.617559 0.84626,0.619059 0.845256,0.619724 0.844248,0.62039 0.843075,0.62189 0.842067,0.622555 0.841063,0.62322 0.839886,0.62472 0.838878,0.625386 0.837705,0.626886 0.836697,0.627551 0.835693,0.628217 0.834516,0.629717 0.833339,0.631217 0.832335,0.631882 0.831157,0.633382 0.830154,0.634047 0.828976,0.635547 0.827799,0.637047 0.826795,0.637713 0.825618,0.639213 0.824441,0.640713 0.823268,0.642213 0.82226,0.642878 0.821087,0.644378 0.819909,0.645878 0.818732,0.647378 0.817555,0.648878 0.816382,0.650382 0.815205,0.651882 0.813858,0.654217 0.812681,0.655717 0.811508,0.657217 0.810331,0.658717 0.808984,0.661051 0.807807,0.662555 0.806461,0.66489 0.805114,0.667224 0.803937,0.668724 0.802591,0.671063 0.801244,0.673398 0.799728,0.676567 0.798382,0.678906 0.797035,0.68124 0.79552,0.684409 0.794004,0.687583 0.792484,0.690752 0.790799,0.69476 0.788941,0.699602 0.787083,0.704445 0.785228,0.709283 0.782689,0.717469 0.778957,0.7315 0.776232,0.744866 0.774343,0.758402 0.773472,0.766925 0.773114,0.772945 0.773098,0.777291 0.773083,0.781638 0.773067,0.785984 0.77339,0.788661 0.773543,0.792173 0.77387,0.79485 0.774193,0.797528 0.77452,0.800205 0.774843,0.802878 0.775165,0.805555 0.775492,0.808232 0.775815,0.810909 0.776142,0.813587 0.776634,0.815425 0.776961,0.818102 0.777283,0.82078 0.777606,0.823457 0.777933,0.826134 0.778425,0.827972 0.778752,0.83065 0.779244,0.832492 0.779571,0.835165 0.779894,0.837843 0.78039,0.839685 0.780713,0.842362 0.781209,0.844201 0.781531,0.846878 0.782028,0.84872 0.78235,0.851398 0.782846,0.853236 0.783169,0.855913 0.783665,0.857756 0.783988,0.860433 0.784484,0.862272 0.78498,0.864114 0.785472,0.865953 0.785799,0.86863 0.786291,0.870472 0.786787,0.872315 0.78711,0.874988 0.787606,0.876831 0.788102,0.878673 0.788594,0.880512 0.789091,0.882354 0.789413,0.885031 0.789909,0.88687 0.790406,0.888713 0.790898,0.890555 0.791394,0.892394 0.79189,0.894236 0.792382,0.896079 0.792878,0.897917 0.79337,0.89976 0.793866,0.901598 0.794362,0.903441 0.794854,0.905283 0.79535,0.907122 0.795673,0.909799 0.796169,0.911642 0.796835,0.912646 0.797331,0.914488 0.797823,0.916331 0.798319,0.918169 0.798815,0.920012 0.799307,0.92185 0.799803,0.923693 0.800299,0.925535 0.800791,0.927374 0.801287,0.929217 0.801783,0.931059 0.802445,0.932063 0.802941,0.933906 0.803437,0.935744 0.803929,0.937587 0.804425,0.939429 0.805091,0.940433 0.805587,0.942276 0.806079,0.944114 0.806575,0.945957 0.807071,0.947799 0.807732,0.948803 0.808228,0.950646 0.808724,0.952484 0.809217,0.954327 0.809882,0.955331 0.810378,0.957173 0.810874,0.959016 0.811539,0.96002 0.812031,0.961862 0.812528,0.963701 0.813193,0.964709 0.813685,0.966551 0.814181,0.96839 0.814846,0.969398 0.815343,0.971236 0.815835,0.973079 0.8165,0.974083 0.816996,0.975925 0.817488,0.977768 0.818154,0.978772 0.81865,0.980614 0.819315,0.981618 0.819811,0.983461 0.820303,0.985299 0.820969,0.986307 0.821465,0.988146 0.82213,0.989154 0.822622,0.990996 0.823287,0.992 0.823783,0.993843 0.82428,0.995681 0.824941,0.996689 0.825437,0.998528 0.826102,0.999535 0.826598,1.00137 0.827264,1.00238 0.827756,1.00422 0.828421,1.00523 0.828917,1.00707 0.829583,1.00807 0.830075,1.00992 0.83074,1.01092 0.831236,1.01276 0.831902,1.01377 0.832567,1.01478 0.833059,1.01661 0.833724,1.01762 0.83422,1.01946 0.834886,1.02047 0.835382,1.02231 0.836043,1.02331 0.836539,1.02516 0.837205,1.02616 0.83787,1.02717 0.838366,1.02901 0.839031,1.03002 0.839524,1.03185 0.840189,1.03286 0.840854,1.03387 0.84135,1.03571 0.842016,1.03671 0.842508,1.03856 0.843173,1.03956 0.843839,1.04057 0.844335,1.04241 0.845,1.04341 0.845665,1.04442 0.846157,1.04626 0.846823,1.04726 0.847488,1.04827 0.847984,1.05011 0.84865,1.05112 0.849315,1.05212 0.849807,1.05396 0.850472,1.05497 0.851138,1.05598 0.851634,1.05782 0.852299,1.05882 0.852961,1.05983 0.853626,1.06083 0.854122,1.06268 0.854787,1.06368 0.855453,1.06469 0.855949,1.06653 0.85661,1.06754 0.857276,1.06854 0.857772,1.07038 0.858437,1.07139 0.859102,1.07239 0.859768,1.0734 0.86026,1.07524 0.860925,1.07624 0.861591,1.07725 0.862256,1.07826 0.862752,1.0801 0.863417,1.0811 0.864083,1.08211 0.864748,1.08311 0.865409,1.08412 0.865906,1.08596 0.866571,1.08697 0.867236,1.08797 0.867902,1.08898 0.868398,1.09082 0.869059,1.09183 0.869724,1.09283 0.87039,1.09383 0.871055,1.09484 0.871551,1.09668 0.872217,1.09769 0.872882,1.09869 0.873547,1.0997 0.874213,1.1007 0.874874,1.10171 0.87537,1.10355 0.876035,1.10456 0.876701,1.10556 0.877366,1.10657 0.878031,1.10757 0.878697,1.10858 0.879189,1.11042 0.879854,1.11143 0.88052,1.11243 0.881185,1.11344 0.88185,1.11444 0.882516,1.11545 0.883012,1.11729 0.883673,1.1183 0.884339,1.1193 0.885004,1.12031 0.885669,1.12131 0.886335,1.12232 0.887,1.12333 0.887665,1.12433 0.888161,1.12617 0.888827,1.12718 0.889488,1.12819 0.890154,1.12919 0.890819,1.1302 0.891484,1.1312 0.89215,1.13221 0.892815,1.13321 0.89348,1.13422 0.894146,1.13522 0.894638,1.13707 0.895303,1.13807 0.895969,1.13908 0.896634,1.14008 0.897299,1.14109 0.897965,1.14209 0.89863,1.1431 0.899295,1.14411 0.899961,1.14511 0.900626,1.14612 0.901291,1.14712 0.901957,1.14813 0.902618,1.14913 0.903283,1.15014 0.903949,1.15115 0.904445,1.15299 0.90511,1.15399 0.905776,1.155 0.906441,1.156 0.907106,1.15701 0.907772,1.15802 0.908433,1.15902 0.909098,1.16003 0.909764,1.16103 0.910429,1.16204 0.911094,1.16304 0.91176,1.16405 0.912425,1.16506 0.913091,1.16606 0.913756,1.16707 0.914421,1.16807 0.915087,1.16908 0.915752,1.17008 0.916413,1.17109 0.917079,1.17209 0.917744,1.1731 0.918409,1.17411 0.919075,1.17511 0.91974,1.17612 0.920406,1.17712 0.921071,1.17813 0.921736,1.17913 0.922402,1.18014 0.923067,1.18115 0.923732,1.18215 0.924394,1.18316 0.925059,1.18417 0.925724,1.18517 0.92639,1.18618 0.927055,1.18718 0.92772,1.18819 0.928386,1.18919 0.929051,1.1902 0.929717,1.1912 0.930382,1.19221 0.931047,1.19322 0.931713,1.19422 0.932374,1.19523 0.933039,1.19623 0.933705,1.19724 0.935205,1.19841 0.93587,1.19942 0.936535,1.20043 0.937201,1.20143 0.937866,1.20244 0.938531,1.20344 0.939197,1.20445 0.939862,1.20545 0.940528,1.20646 0.941193,1.20746 0.941858,1.20847 0.94252,1.20948 0.943185,1.21048 0.94385,1.21149 0.94535,1.21267 0.946016,1.21367 0.946681,1.21468 0.947346,1.21568 0.948012,1.21669 0.948677,1.21769 0.949343,1.2187 0.950008,1.2197 0.950673,1.22071 0.951339,1.22172 0.952004,1.22272 0.953504,1.2239 0.954169,1.22491 0.954835,1.22591 0.955496,1.22691 0.956161,1.22792 0.956827,1.22893 0.957492,1.22993 0.958157,1.23094 0.959657,1.23211 0.960323,1.23312 0.960988,1.23413 0.961654,1.23513 0.962319,1.23614 0.962984,1.23714 0.96365,1.23815 0.96515,1.23932 0.965815,1.24033 0.96648,1.24133 0.967146,1.24234 0.967807,1.24335 0.968472,1.24435 0.969138,1.24536 0.970638,1.24654 0.971303,1.24754 0.971969,1.24855 0.972634,1.24955 0.973299,1.25056 0.973965,1.25156 0.975465,1.25274 0.97613,1.25374 0.976795,1.25475 0.977461,1.25576 0.978126,1.25676 0.979626,1.25794 0.980291,1.25894 0.980957,1.25995 0.981622,1.26096 0.982287,1.26196 0.983787,1.26314 0.984453,1.26414 0.985114,1.26515 0.98578,1.26615 0.986445,1.26716 0.987945,1.26833 0.98861,1.26934 0.989276,1.27035 0.989941,1.27135 0.991441,1.27253 0.992106,1.27354 0.992772,1.27454 0.993437,1.27555 0.994937,1.27672 0.995602,1.27773 0.996268,1.27873 0.996933,1.27974 0.998433,1.28092 0.999098,1.28192 0.999764,1.28293 1.00043,1.28393 1.00193,1.28511 1.00259,1.28611 1.00326,1.28712 1.00393,1.28813 1.00543,1.2893 1.00609,1.29031 1.00675,1.29131 1.00742,1.29232 1.00892,1.2935 1.00958,1.2945 1.01025,1.29551 1.01175,1.29668 1.01241,1.29769 1.01308,1.29869 1.01458,1.29987 1.01524,1.30087 1.01591,1.30188 1.01741,1.30306 1.01807,1.30406 1.01874,1.30507 1.01941,1.30607 1.02091,1.30725 1.02157,1.30826 1.02307,1.30943 1.02374,1.31044 1.0244,1.31144 1.0259,1.31262 1.02657,1.31363 1.02723,1.31463 1.02873,1.31581 1.0294,1.31681 1.03006,1.31782 1.03156,1.319 1.03223,1.32 1.03289,1.32101 1.03439,1.32218 1.03506,1.32319 1.03572,1.32419 1.03722,1.32537 1.03789,1.32637 1.03939,1.32755 1.04006,1.32856 1.04072,1.32956 1.04222,1.33074 1.04289,1.33174 1.04439,1.33292 1.04505,1.33393 1.04655,1.3351 1.04722,1.33611 1.04788,1.33711 1.04938,1.33829 1.05005,1.3393 1.05155,1.34047 1.05221,1.34148 1.05288,1.34248 1.05438,1.34366 1.05504,1.34467 1.05654,1.34584 1.05721,1.34685 1.05871,1.34802 1.05937,1.34903 1.06087,1.3502 1.06154,1.35121 1.06304,1.35239 1.0637,1.35339 1.06437,1.3544 1.06587,1.35557 1.06654,1.35658 1.06804,1.35776 1.0687,1.35876 1.0702,1.35994 1.07087,1.36094 1.07237,1.36212 1.07303,1.36313 1.07453,1.3643 1.07603,1.36548 1.0767,1.36648 1.0782,1.36766 1.07886,1.36867 1.08036,1.36984 1.08103,1.37085 1.08253,1.37202 1.08319,1.37303 1.08469,1.3742 1.08536,1.37521 1.08686,1.37639 1.08752,1.37739 1.08902,1.37857 1.09052,1.37974 1.09119,1.38075 1.09269,1.38193 1.09335,1.38293 1.09485,1.38411 1.09552,1.38511 1.09702,1.38629 1.09852,1.38746 1.09919,1.38847 1.10069,1.38965 1.10219,1.39082 1.10285,1.39183 1.10435,1.393 1.10502,1.39401 1.10652,1.39519 1.10802,1.39636 1.10868,1.39737 1.11018,1.39854 1.11169,1.39972 1.11235,1.40073 1.11385,1.4019 1.11535,1.40308 1.11602,1.40408 1.11752,1.40526 1.11902,1.40644 1.11968,1.40744 1.12118,1.40862 1.12268,1.4098 1.12418,1.41097 1.12485,1.41198 1.12635,1.41315 1.12785,1.41433 1.12935,1.4155 1.13001,1.41651 1.13151,1.41769 1.13301,1.41886 1.13451,1.42004 1.13518,1.42104 1.13668,1.42222 1.13818,1.4234 1.13968,1.42457 1.14118,1.42575 1.14185,1.42675 1.14335,1.42793 1.14485,1.42911 1.14635,1.43028 1.14785,1.43146 1.14935,1.43263 1.15001,1.43364 1.15151,1.43481 1.15301,1.43599 1.15451,1.43717 1.15602,1.43834 1.15752,1.43952 1.15902,1.4407 1.16052,1.44187 1.16202,1.44305 1.16352,1.44422 1.16502,1.4454 1.16652,1.44657 1.16885,1.44792 1.17035,1.4491 1.17269,1.45044 1.17502,1.45179 1.17652,1.45297 1.17886,1.45431 1.1812,1.45566 1.18353,1.45701 1.18587,1.45835 1.1882,1.4597 1.19054,1.46105 1.19287,1.46239 1.19605,1.46391 1.19838,1.46526 1.20072,1.4666 1.20389,1.46812 1.20706,1.46963 1.21023,1.47115 1.2134,1.47267 1.21741,1.47436 1.22141,1.47604 1.22459,1.47756 1.22943,1.47942 1.23427,1.48128 1.23995,1.4833 1.2473,1.48567 1.25631,1.48838 1.28889,1.49502 1.29825,1.49606 1.30511,1.49659 1.31029,1.49678 1.31547,1.49696 1.31982,1.49698 1.32417,1.497 1.32768,1.49684 1.33119,1.49669 1.33387,1.49636 1.33738,1.49621 1.34006,1.49589 1.34273,1.49556 1.34541,1.49524 1.34808,1.49491 1.35076,1.49459 1.35344,1.49426 1.35528,1.49377 1.35795,1.49344 1.3598,1.49295 1.36164,1.49246 1.36431,1.49213 1.36615,1.49164 1.368,1.49114 1.36983,1.49065 1.37168,1.49015 1.37352,1.48966 1.37536,1.48916 1.3772,1.48867 1.37904,1.48817 1.38088,1.48768 1.38272,1.48719 1.38456,1.48669 1.38557,1.48602 1.38741,1.48553 1.38925,1.48504 1.39026,1.48437 1.3921,1.48387 1.39394,1.48338 1.39494,1.48272 1.39679,1.48222 1.39779,1.48156 1.39963,1.48106 1.40064,1.4804 1.40248,1.4799 1.40349,1.47924 1.40533,1.47874 1.40633,1.47808 1.40734,1.47741 1.40918,1.47692 1.41019,1.47625 1.41119,1.47559 1.41303,1.47509 1.41404,1.47443 1.41504,1.47376 1.41689,1.47327 1.41789,1.4726 1.4189,1.47194 1.4199,1.47127 1.42174,1.47078 1.42275,1.47011 1.42376,1.46945 1.42476,1.46878 1.42577,1.46812 1.42761,1.46762 1.42861,1.46696 1.42962,1.46629 1.43063,1.46563 1.43163,1.46496 1.43264,1.4643 1.43364,1.46363 1.43465,1.46297 1.43565,1.4623 1.43666,1.46164 1.43767,1.46097 1.43867,1.46031 1.43968,1.45964 1.44068,1.45898 1.44169,1.45831 1.44269,1.45765 1.4437,1.45698 1.4447,1.45632 1.44571,1.45565 1.44672,1.45499 1.44772,1.45432 1.44873,1.45366 1.44973,1.45299 1.45074,1.45233 1.45174,1.45166 1.45275,1.451 1.45376,1.45033 1.45493,1.44883 1.45594,1.44817 1.45694,1.4475 1.45795,1.44684 1.45896,1.44617 1.45996,1.44551 1.46114,1.44401 1.46214,1.44334 1.46315,1.44268 1.46415,1.44201 1.46533,1.44051 1.46633,1.43985 1.46734,1.43918 1.46852,1.43768 1.46952,1.43702 1.47053,1.43635 1.4717,1.43485 1.47271,1.43419 1.47372,1.43352 1.47489,1.43202 1.4759,1.43135 1.47707,1.42985 1.47808,1.42919 1.47926,1.42769 1.48026,1.42702 1.48144,1.42552 1.48261,1.42402 1.48362,1.42336 1.4848,1.42186 1.48597,1.42036 1.48715,1.41886 1.48832,1.41736 1.4895,1.41585 1.49085,1.41352 1.49219,1.41119 1.49371,1.40801 1.4954,1.40401 1.49915,1.38563 1.49916,1.38128 1.49901,1.37777 1.49868,1.37509 1.49836,1.37242 1.49803,1.36974 1.49754,1.3679 1.49704,1.36606 1.49655,1.36422 1.49606,1.36237 1.49556,1.36054 1.49507,1.35869 1.49457,1.35685 1.49391,1.35585 1.49341,1.354 1.49274,1.353 1.49225,1.35116 1.49159,1.35015 1.49092,1.34915 1.49043,1.34731 1.48976,1.3463 1.48909,1.3453 1.48843,1.34429 1.48693,1.34311 1.48627,1.34211 1.48476,1.34093 1.4841,1.33993 1.4826,1.33875 1.48193,1.33774 1.48043,1.33657 1.47977,1.33556 1.47827,1.33439 1.4776,1.33338 1.4761,1.3322 1.47544,1.3312 1.47394,1.33002 1.47327,1.32902 1.47177,1.32784 1.47111,1.32683 1.46961,1.32566 1.46894,1.32465 1.46744,1.32348 1.46678,1.32247 1.46528,1.3213 1.46461,1.32029 1.46311,1.31911 1.46244,1.31811 1.46094,1.31693 1.45944,1.31576 1.45878,1.31475 1.45728,1.31357 1.45661,1.31257 1.45511,1.31139 1.45445,1.31039 1.45295,1.30921 1.45228,1.3082 1.45078,1.30703 1.45012,1.30602 1.44862,1.30485 1.44795,1.30384 1.44645,1.30267 1.44579,1.30166 1.44429,1.30048 1.44362,1.29948 1.44212,1.2983 1.44146,1.2973 1.43996,1.29612 1.43929,1.29511 1.43779,1.29394 1.43713,1.29293 1.43563,1.29176 1.43496,1.29075 1.43346,1.28957 1.4328,1.28857 1.4313,1.28739 1.43063,1.28639 1.42913,1.28521 1.42846,1.2842 1.42696,1.28303 1.4263,1.28202 1.4248,1.28085 1.42413,1.27984 1.42263,1.27867 1.42197,1.27766 1.42047,1.27648 1.4198,1.27548 1.4183,1.2743 1.41764,1.2733 1.41614,1.27212 1.41547,1.27111 1.41397,1.26994 1.41331,1.26893 1.41181,1.26776 1.41114,1.26675 1.40964,1.26557 1.40898,1.26457 1.40748,1.26339 1.40681,1.26239 1.40531,1.26121 1.40465,1.2602 1.40315,1.25903 1.40248,1.25802 1.40098,1.25685 1.40031,1.25584 1.39881,1.25467 1.39731,1.25349 1.39665,1.25248 1.39515,1.25131 1.39448,1.2503 1.39298,1.24913 1.39232,1.24812 1.39082,1.24694 1.39015,1.24594 1.38865,1.24476 1.38799,1.24376 1.38648,1.24258 1.38582,1.24157 1.38432,1.2404 1.38366,1.23939 1.38215,1.23822 1.38149,1.23721 1.37999,1.23604 1.37933,1.23503 1.37782,1.23385 1.37716,1.23285 1.37566,1.23167 1.37499,1.23067 1.37349,1.22949 1.37283,1.22848 1.37133,1.22731 1.37066,1.2263 1.36916,1.22513 1.3685,1.22412 1.367,1.22294 1.36633,1.22194 1.36483,1.22076 1.36417,1.21976 1.36267,1.21858 1.362,1.21757 1.3605,1.2164 1.35983,1.21539 1.35833,1.21422 1.35767,1.21321 1.35617,1.21204 1.3555,1.21103 1.354,1.20985 1.35334,1.20885 1.35184,1.20767 1.35117,1.20667 1.34967,1.20549 1.34901,1.20448 1.34834,1.20348 1.34684,1.2023 1.34618,1.2013 1.34551,1.20029 1.34401,1.19912 1.34335,1.19811 1.34185,1.19693 1.34035,1.19576 1.33968,1.19475 1.33818,1.19357 1.33668,1.1924 1.33518,1.19122 1.33368,1.19005 1.33135,1.1887 1.32901,1.18735 1.32667,1.18601 1.3235,1.18449 1.31783,1.18246 1.30696,1.18025 1.30095,1.17989 1.29744,1.18005 1.29476,1.18037 1.29208,1.1807 1.29024,1.18119 1.2884,1.18169 1.28656,1.18218 1.28472,1.18267 1.28288,1.18317 1.28187,1.18383 1.28003,1.18433 1.27902,1.18499 1.27802,1.18566 1.27701,1.18632 1.27601,1.18699 1.275,1.18765 1.274,1.18832 1.27299,1.18898 1.27198,1.18965 1.27098,1.19031 1.26997,1.19098 1.26897,1.19165 1.26796,1.19231 1.26696,1.19297 1.26595,1.19364 1.26494,1.1943 1.26394,1.19497 1.26293,1.19563 1.26193,1.1963 1.26092,1.19696 1.25992,1.19763 1.25891,1.1983 1.25791,1.19896 1.2569,1.19963 1.25589,1.20029 1.25472,1.20179 1.25371,1.20246 1.2527,1.20312 1.2517,1.20378 1.25069,1.20445 1.24969,1.20511 1.24868,1.20578 1.24768,1.20644 1.24667,1.20711 1.24567,1.20778 1.24466,1.20844 1.24365,1.20911 1.24265,1.20977 1.24164,1.21044 1.24064,1.2111 1.23963,1.21176 1.23863,1.21243 1.23762,1.21309 1.23661,1.21376 1.23561,1.21443 1.2346,1.21509 1.2336,1.21576 1.23259,1.21642 1.23159,1.21709 1.23058,1.21775 1.22957,1.21842 1.22857,1.21908 1.22739,1.22058 1.22639,1.22124 1.22538,1.22191 1.22437,1.22257 1.22337,1.22324 1.22236,1.22391 1.22136,1.22457 1.22035,1.22524 1.21935,1.2259 1.21834,1.22657 1.21733,1.22723 1.21633,1.2279 1.21532,1.22856 1.21432,1.22922 1.21331,1.22989 1.21231,1.23056 1.21046,1.23105 1.20946,1.23172 1.20845,1.23238 1.20661,1.23287 1.20561,1.23354 1.20377,1.23404 1.20276,1.2347 1.20092,1.2352 1.19908,1.23569 1.19724,1.23619 1.1954,1.23668 1.19356,1.23717 1.19171,1.23767 1.18904,1.23799 1.1872,1.23849 1.18369,1.23864 1.18101,1.23896 1.17583,1.23878 1.16079,1.23571 1.15678,1.23403 1.15361,1.23251 1.15128,1.23116 1.14978,1.22999 1.14828,1.22881 1.14678,1.22763 1.14444,1.22629 1.14294,1.22511 1.14144,1.22394 1.13994,1.22276 1.13844,1.22158 1.1361,1.22024 1.1346,1.21906 1.1331,1.21789 1.1316,1.21671 1.1301,1.21553 1.1286,1.21436 1.1271,1.21318 1.1256,1.212 1.1241,1.21083 1.1226,1.20965 1.1211,1.20848 1.1196,1.2073 1.11893,1.2063 1.11743,1.20512 1.11593,1.20394 1.11443,1.20277 1.11293,1.20159 1.11143,1.20041 1.11076,1.19941 1.10926,1.19823 1.10776,1.19706 1.10626,1.19588 1.1056,1.19487 1.1041,1.1937 1.1026,1.19252 1.10193,1.19152 1.10043,1.19034 1.09893,1.18917 1.09827,1.18816 1.09677,1.18698 1.09527,1.18581 1.0946,1.1848 1.0931,1.18363 1.09244,1.18262 1.09094,1.18144 1.09027,1.18044 1.08877,1.17926 1.08811,1.17826 1.08661,1.17708 1.08594,1.17607 1.08444,1.1749 1.08378,1.17389 1.08228,1.17272 1.08161,1.17171 1.08011,1.17054 1.07944,1.16953 1.07794,1.16835 1.07728,1.16735 1.07661,1.16634 1.07511,1.16517 1.07445,1.16416 1.07295,1.16298 1.07228,1.16198 1.07162,1.16097 1.07012,1.1598 1.06945,1.15879 1.06879,1.15778 1.06729,1.15661 1.06662,1.1556 1.06596,1.1546 1.06446,1.15342 1.06379,1.15242 1.06313,1.15141 1.06246,1.15041 1.06096,1.14923 1.0603,1.14822 1.05963,1.14722 1.05896,1.14621 1.0583,1.1452 1.0568,1.14403 1.05613,1.14302 1.05547,1.14202 1.0548,1.14101 1.0533,1.13983 1.05264,1.13883 1.05197,1.13782 1.05131,1.13682 1.05065,1.13581 1.04998,1.13481 1.04931,1.1338 1.04781,1.13263 1.04715,1.13162 1.04648,1.13061 1.04582,1.12961 1.04515,1.1286 1.04449,1.1276 1.04382,1.12659 1.04316,1.12559 1.04166,1.12441 1.04099,1.12341 1.04033,1.1224 1.03966,1.12139 1.039,1.12039 1.03833,1.11938 1.03767,1.11837 1.037,1.11737 1.03634,1.11636 1.03567,1.11536 1.03501,1.11435 1.03434,1.11335 1.03368,1.11234 1.03301,1.11133 1.03235,1.11033 1.03168,1.10932 1.03102,1.10832 1.03035,1.10731 1.02969,1.10631 1.02902,1.1053 1.02836,1.1043 1.02769,1.10329 1.02703,1.10228 1.02636,1.10128 1.0257,1.10027 1.02503,1.09927 1.02437,1.09826 1.0237,1.09726 1.02304,1.09625 1.02254,1.09441 1.02188,1.0934 1.02121,1.0924 1.02055,1.09139 1.01988,1.09039 1.01922,1.08938 1.01855,1.08837 1.01789,1.08737 1.01722,1.08636 1.01673,1.08452 1.01606,1.08352 1.0154,1.08251 1.01473,1.0815 1.01407,1.0805 1.0134,1.07949 1.01291,1.07765 1.01224,1.07665 1.01158,1.07564 1.01091,1.07463 1.01025,1.07363 1.00975,1.07179 1.00909,1.07078 1.00842,1.06978 1.00776,1.06877 1.00726,1.06693 1.0066,1.06593 1.00593,1.06492 1.00544,1.06308 1.00478,1.06207 1.00411,1.06107 1.00344,1.06006 1.00295,1.05822 1.00228,1.05721 1.00162,1.05621 1.00113,1.05437 1.00046,1.05336 0.999965,1.05152 0.999299,1.05052 0.998634,1.04951 0.998142,1.04767 0.997476,1.04666 0.99698,1.04482 0.996315,1.04381 0.99565,1.04281 0.995154,1.04097 0.994492,1.03996 0.993996,1.03812 0.993331,1.03711 0.992835,1.03528 0.992169,1.03427 0.991677,1.03243 0.991012,1.03142 0.990516,1.02958 0.98985,1.02857 0.989358,1.02673 0.988862,1.02489 0.988197,1.02389 0.987701,1.02205 0.987209,1.0202 0.986543,1.0192 0.986047,1.01736 0.985555,1.01552 0.98489,1.01451 0.984394,1.01267 0.983898,1.01083 0.983232,1.00982 0.98274,1.00798 0.982244,1.00614 0.981748,1.0043 0.981256,1.00246 0.98076,1.00062 0.980094,0.999614 0.979602,0.997772 0.979106,0.995929 0.97861,0.994091 0.978118,0.992248 0.977622,0.990406 0.977126,0.988567 0.976634,0.986724 0.976307,0.984047 0.975815,0.982209 0.975319,0.980366 0.974823,0.978524 0.974331,0.976685 0.974004,0.974008 0.973512,0.972165 0.973185,0.969488 0.972693,0.96765 0.972366,0.964972 0.972043,0.962295 0.97189,0.958783 0.971906,0.954437 0.972264,0.948417 0.974476,0.937559 0.976673,0.931047 0.978362,0.927039 0.979878,0.92387 0.981224,0.921531 0.982571,0.919197 0.983917,0.916862 0.985264,0.914528 0.986441,0.913028 0.987618,0.911524 0.988965,0.909189 0.990138,0.907689 0.991315,0.906189 0.992323,0.905524 0.993496,0.904024 0.994673,0.902524 0.99585,0.901024 0.996854,0.900358 0.998031,0.898858 0.999209,0.897358 1.00021,0.896693 1.00139,0.895193 1.00239,0.894528 1.00357,0.893028 1.00457,0.892362 1.00558,0.891697 1.00676,0.890197 1.00776,0.889531 1.00894,0.888031 1.00994,0.887366 1.01095,0.886701 1.01196,0.886035 1.01313,0.884535 1.01414,0.88387 1.01515,0.883205 1.01615,0.882539 1.01716,0.881874 1.01816,0.881209 1.01934,0.879709 1.02034,0.879043 1.02135,0.878378 1.02235,0.877713 1.02336,0.877047 1.02437,0.876382 1.02537,0.87572 1.02638,0.875055 1.02738,0.87439 1.02839,0.873724 1.02939,0.873059 1.0304,0.872394 1.03141,0.871728 1.03241,0.871063 1.03342,0.870398 1.03443,0.869732 1.03543,0.869067 1.03643,0.868402 1.03744,0.86774 1.03844,0.867075 1.03945,0.866409 1.04129,0.865913 1.0423,0.865248 1.0433,0.864583 1.04431,0.863917 1.04531,0.863252 1.04632,0.862591 1.04733,0.861925 1.04917,0.861429 1.05017,0.860764 1.05118,0.860098 1.05219,0.859433 1.05403,0.858941 1.05503,0.858276 1.05604,0.85761 1.05704,0.856945 1.05889,0.856449 1.05989,0.855783 1.0609,0.855118 1.06274,0.854626 1.06374,0.853961 1.06475,0.853295 1.06576,0.85263 1.06676,0.851965 1.06777,0.851299 1.06877,0.850634 1.06995,0.849134 1.07095,0.848469 1.07213,0.846969 1.07331,0.845469 1.07448,0.843969 1.07566,0.842469 1.07683,0.840969 1.07835,0.837795 1.08021,0.832953 1.08191,0.824602 1.08227,0.818583 1.08211,0.815071 1.08179,0.812394 1.08146,0.809717 1.08097,0.807878 1.08048,0.806035 1.07998,0.804193 1.07949,0.802354 1.07899,0.800512 1.07833,0.799508 1.07783,0.797665 1.07717,0.796661 1.07667,0.794819 1.07601,0.793811 1.07551,0.791972 1.07485,0.790965 1.07435,0.789126 1.07369,0.788118 1.07319,0.78628 1.07253,0.785272 1.07204,0.783433 1.07137,0.782425 1.07087,0.780587 1.07038,0.778744 1.06972,0.777736 1.06922,0.775898 1.06856,0.77489 1.06806,0.773051 1.06739,0.772043 1.0669,0.770205 1.06624,0.769197 1.06574,0.767358 1.06507,0.76635 1.06458,0.764508 1.06392,0.763504 1.06342,0.761661 1.06276,0.760657 1.06226,0.758815 1.0616,0.757811 1.0611,0.755969 1.06044,0.754965 1.05994,0.753122 1.05928,0.752118 1.05878,0.750276 1.05812,0.749272 1.05762,0.747429 1.05696,0.746421 1.05646,0.744583 1.0558,0.743575 1.0553,0.741736 1.05464,0.740728 1.05415,0.73889 1.05348,0.737882 1.05298,0.736043 1.05232,0.735035 1.05182,0.733193 1.05116,0.732189 1.05067,0.730346 1.05,0.729343 1.0495,0.7275 1.04884,0.726496 1.04835,0.724654 1.04768,0.72365 1.04719,0.721807 1.04652,0.720803 1.04603,0.718961 1.04553,0.717118 1.04487,0.716114 1.04437,0.714272 1.0437,0.713268 1.04321,0.711425 1.04255,0.710421 1.04205,0.708579 1.04139,0.707575 1.04089,0.705732 1.04023,0.704728 1.03973,0.702886 1.03907,0.701882 1.03857,0.700039 1.03791,0.699031 1.03741,0.697193 1.03675,0.696185 1.03625,0.694346 1.03559,0.693339 1.03509,0.6915 1.03443,0.690492 1.03393,0.688654 1.03327,0.687646 1.03278,0.685803 1.03211,0.684799 1.03161,0.682957 1.03095,0.681953 1.03046,0.68011 1.02979,0.679106 1.0293,0.677264 1.02863,0.67626 1.02813,0.674417 1.02747,0.673413 1.02698,0.671571 1.02631,0.670567 1.02581,0.668724 1.02515,0.667717 1.02466,0.665878 1.02399,0.66487 1.0235,0.663031 1.02283,0.662024 1.02234,0.660185 1.02167,0.659177 1.02118,0.657339 1.02068,0.655496 1.02002,0.654488 1.01952,0.65265 1.01886,0.651642 1.01836,0.649803 1.0177,0.648795 1.0172,0.646957 1.01654,0.645949 1.01604,0.64411 1.01538,0.643102 1.01489,0.641264 1.01422,0.640256 1.01372,0.638413 1.01306,0.637409 1.01256,0.635567 1.0119,0.634563 1.01141,0.63272 1.01074,0.631717 1.01024,0.629874 1.00958,0.62887 1.00909,0.627028 1.00842,0.626024 1.00793,0.624181 1.00726,0.623177 1.00677,0.621335 1.0061,0.620327 1.00561,0.618488 1.00494,0.61748 1.00444,0.615642 1.00378,0.614634 1.00329,0.612795 1.00262,0.611787 1.00213,0.609949 1.00146,0.608941 1.00097,0.607098 1.0003,0.606094 0.999807,0.604252 0.999142,0.603248 0.998476,0.60224 0.997811,0.601236 0.99715,0.600232 0.996484,0.599224 0.994984,0.598047 0.994319,0.597043 0.993654,0.596035 0.992154,0.594862 0.991488,0.593854 0.989988,0.592681 0.989323,0.591673 0.987823,0.590496 0.986319,0.589323 0.984819,0.588146 0.983319,0.586969 0.981819,0.585795 0.980319,0.584618 0.977984,0.583272 0.976484,0.582094 0.974146,0.580748 0.970976,0.579232 0.967803,0.577717 0.962126,0.575689 0.944587,0.57211 "/>
 </g>
</svg>
