<?xml version="1.0" encoding="UTF-8"?>
<!DOCTYPE svg PUBLIC "-//W3C//DTD SVG 1.1//EN" "http://www.w3.org/Graphics/SVG/1.1/DTD/svg11.dtd">
<!-- Creator: CorelDRAW -->
<svg xmlns="http://www.w3.org/2000/svg" xml:space="preserve" width="8.5in" height="8.5in" style="shape-rendering:geometricPrecision; text-rendering:geometricPrecision; image-rendering:optimizeQuality; fill-rule:evenodd; clip-rule:evenodd"
viewBox="0 0 8.5 8.5"
 xmlns:xlink="http://www.w3.org/1999/xlink">
 <defs>
  <style type="text/css">
   <![CDATA[
    .fil0 {fill:black}
   ]]>
  </style>
 </defs>
 <g id="Layer_x0020_1">
  <metadata id="CorelCorpID_0Corel-Layer"/>
  <path class="fil0" d="M4.32573 1.15757l-0.151465 0c-0.015185,0.00963386 -0.148016,0.0455669 -0.191504,0.067252 -0.0619843,0.0309055 -0.0985591,0.0684488 -0.144555,0.114201 -0.073874,0.0734724 -0.149894,0.215921 -0.149894,0.361303l0 2.30355c0,0.264315 0.260575,0.523819 0.53013,0.523819l0.0757323 0c0.281012,0 0.517508,-0.271319 0.517508,-0.568l0 -2.2215c0,-0.172579 -0.0557717,-0.306094 -0.143567,-0.392878 -0.0470906,-0.0465472 -0.0853661,-0.087374 -0.146646,-0.118417 -0.0440551,-0.022311 -0.178181,-0.058185 -0.19574,-0.0693268z"/>
  <path class="fil0" d="M4.09853 7.34243l0.302937 0c3.93701e-005,-2.75591e-005 0.274358,-0.0322795 0.298177,-0.036311 0.080748,-0.0136614 0.210681,-0.0339134 0.27613,-0.0583543 0.0802638,-0.0299724 0.173224,-0.0516811 0.253236,-0.081252 0.0837874,-0.0309646 0.15752,-0.0609685 0.234846,-0.0996417 0.31198,-0.156047 0.545169,-0.319051 0.778878,-0.552764 0.180472,-0.180472 0.452043,-0.53015 0.54978,-0.781858 0.0664016,-0.171 0.128083,-0.292394 0.17752,-0.491453 0.0389409,-0.156795 0.0883976,-0.383142 0.0883976,-0.574268l0 -0.208264c0,-0.603689 -0.263551,-1.22806 -0.525528,-1.56975 -0.34335,-0.447827 -0.626614,-0.680043 -1.15953,-0.935752l0 0.63111c0.300197,0.158843 0.574165,0.438661 0.759854,0.716941 0.162681,0.243799 0.36352,0.713476 0.36352,1.11327l0 0.170402c0,0.667126 -0.335075,1.21549 -0.670543,1.55096 -0.337354,0.33735 -0.896484,0.645299 -1.56989,0.645299 -0.67524,0 -1.23537,-0.298193 -1.57303,-0.635854 -0.156449,-0.156449 -0.374835,-0.422291 -0.462929,-0.641504 -0.102457,-0.254949 -0.217098,-0.524972 -0.217098,-0.881035l0 -0.214579c0,-0.200413 0.0702638,-0.459606 0.122283,-0.616114 0.0583425,-0.175539 0.15098,-0.355508 0.24376,-0.494634 0.183236,-0.274776 0.459126,-0.555362 0.757331,-0.713154l0 -0.63111c-0.120366,0.0636929 -0.227346,0.107756 -0.344591,0.179228 -0.109189,0.0665669 -0.208937,0.139937 -0.306622,0.217201 -0.165256,0.130697 -0.387724,0.359547 -0.504953,0.536374 -0.164193,0.247665 -0.241925,0.387555 -0.362843,0.684799 -0.0854646,0.210098 -0.166051,0.583102 -0.166051,0.875276l0 0.227201c0,0.361945 0.147984,0.813839 0.267091,1.06455 0.139961,0.294622 0.334539,0.562614 0.55178,0.779854 0.233854,0.233854 0.467839,0.395555 0.779961,0.551681 0.133713,0.0668819 0.330098,0.143268 0.489815,0.179157 0.0911102,0.0204724 0.17389,0.0454843 0.277476,0.0570118 0.0183307,0.00204331 0.290394,0.0370472 0.290843,0.0373346z"/>
 </g>
</svg>
