<?xml version="1.0" encoding="UTF-8"?>
<!DOCTYPE svg PUBLIC "-//W3C//DTD SVG 1.1//EN" "http://www.w3.org/Graphics/SVG/1.1/DTD/svg11.dtd">
<!-- Creator: CorelDRAW -->
<svg xmlns="http://www.w3.org/2000/svg" xml:space="preserve" width="8.5in" height="8.5in" style="shape-rendering:geometricPrecision; text-rendering:geometricPrecision; image-rendering:optimizeQuality; fill-rule:evenodd; clip-rule:evenodd"
viewBox="0 0 8.5 8.5"
 xmlns:xlink="http://www.w3.org/1999/xlink"
 version="1.0">
 <defs>
  <style type="text/css">
   <![CDATA[
    .fil0 {fill:white}
    .fil2 {fill:black}
    .fil1 {fill:#DEDEDD;fill-rule:nonzero}
   ]]>
  </style>
 </defs>
 <g id="Layer_x0020_1">
  <metadata id="CorelCorpID_0Corel-Layer"/>
  <g>
   <path class="fil0" d="M4.25 0.500004c2.07072,0 3.75,1.67928 3.75,3.75 0,2.07072 -1.67928,3.75 -3.75,3.75 -2.07072,0 -3.75,-1.67928 -3.75,-3.75 0,-2.07072 1.67928,-3.75 3.75,-3.75z"/>
   <path id="1" class="fil1" d="M8.11161 4.25l-0.223228 0 0 0 -0.00444488 -0.187713 -0.0140472 -0.184744 -0.0234173 -0.181984 -0.0316732 -0.178976 -0.0405748 -0.176181 -0.0492323 -0.172272 -0.0572205 -0.169 -0.0649764 -0.165488 -0.0729252 -0.160874 -0.0802126 -0.156894 -0.087689 -0.152677 -0.094937 -0.147354 -0.101508 -0.142669 -0.10785 -0.137744 -0.114386 -0.131717 -0.120685 -0.126315 -0.126319 -0.120689 -0.131717 -0.114386 -0.137744 -0.107846 -0.142669 -0.101512 -0.147354 -0.0949331 -0.152677 -0.0876929 -0.156894 -0.0802087 -0.160874 -0.0729252 -0.165492 -0.0649764 -0.168996 -0.0572205 -0.172276 -0.0492323 -0.176177 -0.0405748 -0.17898 -0.0316732 -0.181984 -0.0234173 -0.184744 -0.0140472 -0.187713 -0.00444488 0 -0.223228 0.198177 0.0053189 0.196083 0.0149213 0.193315 0.0242835 0.190319 0.0342953 0.186642 0.043189 0.183606 0.0518465 0.179461 0.0607087 0.175083 0.0693386 0.171339 0.0772874 0.166484 0.085437 0.161402 0.0929213 0.156945 0.100169 0.151386 0.107614 0.145594 0.114823 0.140433 0.121362 0.134169 0.127665 0.127661 0.134165 0.121362 0.140433 0.114827 0.145594 0.10761 0.151386 0.100173 0.156945 0.0929173 0.161402 0.0854409 0.166484 0.0772874 0.171339 0.0693386 0.175079 0.0607087 0.179465 0.0518465 0.183602 0.043189 0.186646 0.0342953 0.190315 0.0242835 0.193315 0.0149213 0.196083 0.0053189 0.198177 0 0zm-3.86162 3.86162l0 -0.223228 0 0 0.187713 -0.00444488 0.184744 -0.0140472 0.181984 -0.0234173 0.17898 -0.0316732 0.176177 -0.0405748 0.172276 -0.0492323 0.168996 -0.0572205 0.165492 -0.0649764 0.160874 -0.0729252 0.156894 -0.0802126 0.152677 -0.087689 0.147354 -0.094937 0.142669 -0.101508 0.137744 -0.10785 0.131717 -0.114386 0.126319 -0.120685 0.120685 -0.126319 0.114386 -0.131717 0.10785 -0.137744 0.101508 -0.142669 0.094937 -0.147354 0.087689 -0.152677 0.0802126 -0.156894 0.0729252 -0.160874 0.0649764 -0.165492 0.0572205 -0.168996 0.0492323 -0.172276 0.0405748 -0.176177 0.0316732 -0.17898 0.0234173 -0.181984 0.0140472 -0.184744 0.00444488 -0.187713 0.223228 0 -0.0053189 0.198177 -0.0149213 0.196083 -0.0242835 0.193315 -0.0342953 0.190319 -0.043189 0.186642 -0.0518465 0.183606 -0.0607087 0.179461 -0.0693386 0.175083 -0.0772874 0.171339 -0.0854409 0.166484 -0.0929173 0.161402 -0.100173 0.156945 -0.10761 0.151386 -0.114827 0.145594 -0.121362 0.140433 -0.127661 0.134169 -0.134169 0.127661 -0.140433 0.121362 -0.145594 0.114827 -0.151386 0.10761 -0.156945 0.100173 -0.161402 0.0929173 -0.166484 0.0854409 -0.171339 0.0772874 -0.175083 0.0693386 -0.179461 0.0607087 -0.183606 0.0518465 -0.186642 0.043189 -0.190319 0.0342953 -0.193315 0.0242835 -0.196083 0.0149213 -0.198177 0.0053189 0 0zm-3.86161 -3.86162l0.223228 0 0 0 0.00444488 0.187713 0.0140472 0.184744 0.0234173 0.181984 0.0316732 0.17898 0.0405748 0.176177 0.0492323 0.172276 0.0572205 0.168996 0.0649764 0.165492 0.0729252 0.160874 0.0802126 0.156894 0.087689 0.152677 0.094937 0.147354 0.101508 0.142669 0.10785 0.137744 0.114382 0.131717 0.120689 0.126319 0.126319 0.120685 0.131717 0.114386 0.13774 0.10785 0.142669 0.101508 0.147358 0.094937 0.152673 0.087689 0.156898 0.0802126 0.160874 0.0729252 0.165488 0.0649764 0.169 0.0572205 0.172272 0.0492323 0.176181 0.0405748 0.178976 0.0316732 0.181984 0.0234173 0.184744 0.0140472 0.187713 0.00444488 0 0.223228 -0.198177 -0.0053189 -0.196083 -0.0149213 -0.193315 -0.0242835 -0.190315 -0.0342953 -0.186646 -0.043189 -0.183602 -0.0518465 -0.179465 -0.0607087 -0.175079 -0.0693386 -0.171339 -0.0772874 -0.166488 -0.0854409 -0.161398 -0.0929173 -0.156949 -0.100173 -0.151386 -0.10761 -0.145591 -0.114827 -0.140433 -0.121362 -0.134169 -0.127661 -0.127665 -0.134169 -0.121358 -0.140433 -0.114827 -0.145594 -0.10761 -0.151386 -0.100173 -0.156945 -0.0929173 -0.161402 -0.0854409 -0.166484 -0.0772874 -0.171339 -0.0693386 -0.175083 -0.0607087 -0.179461 -0.0518465 -0.183606 -0.043189 -0.186642 -0.0342953 -0.190319 -0.0242835 -0.193315 -0.0149213 -0.196083 -0.0053189 -0.198177 0 0zm3.86161 -3.86161l0 0.223228 0 0 -0.187713 0.00444488 -0.184744 0.0140472 -0.181984 0.0234173 -0.178976 0.0316732 -0.176181 0.0405748 -0.172272 0.0492323 -0.169 0.0572205 -0.165488 0.0649764 -0.160874 0.0729252 -0.156898 0.0802087 -0.152673 0.0876929 -0.147358 0.0949331 -0.142669 0.101512 -0.13774 0.107846 -0.131717 0.114386 -0.126319 0.120689 -0.120689 0.126315 -0.114382 0.131717 -0.10785 0.137744 -0.101508 0.142669 -0.094937 0.147354 -0.087689 0.152677 -0.0802126 0.156894 -0.0729252 0.160874 -0.0649764 0.165488 -0.0572205 0.169 -0.0492323 0.172272 -0.0405748 0.176181 -0.0316732 0.178976 -0.0234173 0.181984 -0.0140472 0.184744 -0.00444488 0.187713 -0.223228 0 0.0053189 -0.198177 0.0149213 -0.196083 0.0242835 -0.193315 0.0342953 -0.190315 0.043189 -0.186646 0.0518465 -0.183602 0.0607087 -0.179465 0.0693386 -0.175079 0.0772874 -0.171339 0.0854409 -0.166484 0.0929173 -0.161402 0.100173 -0.156945 0.10761 -0.151386 0.114827 -0.145594 0.121358 -0.140433 0.127665 -0.134165 0.134169 -0.127665 0.140433 -0.121362 0.145591 -0.114823 0.151386 -0.107614 0.156949 -0.100169 0.161398 -0.0929213 0.166488 -0.085437 0.171339 -0.0772874 0.175079 -0.0693386 0.179465 -0.0607087 0.183602 -0.0518465 0.186646 -0.043189 0.190315 -0.0342953 0.193315 -0.0242835 0.196083 -0.0149213 0.198177 -0.0053189 0 0z"/>
  </g>
  <g>
   <path class="fil2" d="M4.10844 2.14918c-0.423949,0.0179528 -0.711878,0.160189 -0.839614,0.414976 -0.0469528,0.0939055 -0.0711181,0.17676 -0.0959764,0.331425l-0.00414173 0.0262402 -0.42326 0 -0.423953 0 -0.0607598 0.0179488c-0.086311,0.0248583 -0.141547,0.057311 -0.207142,0.122906 -0.0600709,0.0607598 -0.0897598,0.106335 -0.118764,0.185047l-0.0186417 0.0504016 -0.00207087 1.31881c-0.00138189,0.889327 0.000692913,1.32985 0.00552362,1.35263 0.0303819,0.14224 0.129807,0.269976 0.258929,0.332118 0.117378,0.0566181 -0.0683583,0.0517835 2.07142,0.0517835 2.13978,0 1.95404,0.00483465 2.07142,-0.0517835 0.129118,-0.0621417 0.228547,-0.189878 0.258929,-0.332118 0.00483071,-0.0227835 0.00690551,-0.463307 0.00552362,-1.35263l-0.00207087 -1.31881 -0.0186457 -0.0504016c-0.029,-0.0787165 -0.058689,-0.124287 -0.11876,-0.185047 -0.0655945,-0.0655945 -0.120831,-0.0980472 -0.207142,-0.122906l-0.0607598 -0.0179488 -0.410142 0 -0.409449 0 -0.00414567 -0.0262402c-0.0248543,-0.168476 -0.058689,-0.279642 -0.107024,-0.351453 -0.0690472,-0.103571 -0.19126,-0.209902 -0.30726,-0.267213 -0.198165,-0.0987362 -0.481949,-0.142236 -0.83202,-0.127736l0 0zm0.358358 0.397024c0.142236,0.0165748 0.26376,0.0476457 0.341091,0.087 0.0421181,0.0207165 0.087,0.0669764 0.109094,0.110476 0.0186457,0.0365945 0.0476457,0.137406 0.0476457,0.165713 0,0.0117402 -0.0379764,0.0124291 -0.703594,0.0124291l-0.70428 0 0.00414173 -0.0262402c0.013122,-0.0932126 0.0441929,-0.167783 0.0890709,-0.212665 0.0338346,-0.0338307 0.118071,-0.0759528 0.203,-0.102189 0.16226,-0.0490236 0.383902,-0.0614528 0.613831,-0.0345236l0 0zm1.70823 0.678736c0.044189,0.0193346 0.0835472,0.0566181 0.10426,0.100811l0.0179528 0.0386654 0 0.461925 0 0.462618 -0.762972 0 -0.762972 0 0 -0.0448819c0,-0.169858 -0.114618,-0.314165 -0.274807,-0.348 -0.0490236,-0.0103583 -0.42326,-0.0103583 -0.472283,0 -0.129118,0.0269291 -0.240287,0.138094 -0.267213,0.267213 -0.00414567,0.0200276 -0.00759843,0.056622 -0.00759843,0.0807874l0 0.0448819 -0.773327 0 -0.773331 0 0 -0.462618 0 -0.461925 0.0172598 -0.0372874c0.0214055,-0.044878 0.0524764,-0.0766417 0.0973583,-0.0987362l0.0338346 -0.0158819 1.89672 -0.000688976c1.85806,0 1.89673,0 1.92711,0.0131181l3.93701e-006 0zm-1.71099 0.970803l0.0172598 0.0165748 0 0.273425 0 0.273429 -0.0172598 0.0165709 -0.0165709 0.0172598 -0.187118 0 -0.187118 0 -0.0165748 -0.0172598 -0.0172598 -0.0165709 0 -0.273429 0 -0.273425 0.0172598 -0.0165748 0.0165748 -0.0172598 0.187118 0 0.187118 0 0.0165709 0.0172598zm-0.714638 0.504047c0,0.0393543 0.00345276,0.088378 0.00759449,0.108402 0.0269291,0.129118 0.138094,0.240287 0.267213,0.267213 0.0490236,0.0103583 0.42326,0.0103583 0.472283,0 0.129118,-0.0269252 0.240287,-0.138094 0.267213,-0.267213 0.00414567,-0.0200236 0.00759843,-0.0690472 0.00759843,-0.108402l0 -0.0725039 0.762972 0 0.762969 0 0 0.642142 0 0.642831 -0.0200236 0.0400472c-0.0234764,0.0455669 -0.0510945,0.0718071 -0.100811,0.0945945l-0.0345236 0.0165709 -1.89189 0 -1.89189 0 -0.0345276 -0.0165709c-0.0497126,-0.0227874 -0.0773307,-0.0490236 -0.100807,-0.0945945l-0.0200276 -0.0400472 0 -0.642831 0 -0.642142 0.773331 0 0.773331 0 0 0.0725039 3.93701e-006 0z"/>
  </g>
 </g>
</svg>
