<?xml version="1.0" encoding="UTF-8"?>
<!DOCTYPE svg PUBLIC "-//W3C//DTD SVG 1.1//EN" "http://www.w3.org/Graphics/SVG/1.1/DTD/svg11.dtd">
<!-- Creator: CorelDRAW -->
<svg xmlns="http://www.w3.org/2000/svg" xml:space="preserve" width="210mm" height="210mm" style="shape-rendering:geometricPrecision; text-rendering:geometricPrecision; image-rendering:optimizeQuality; fill-rule:evenodd; clip-rule:evenodd"
viewBox="0 0 210 210"
 xmlns:xlink="http://www.w3.org/1999/xlink">
 <defs>
  <style type="text/css">
   <![CDATA[
    .fil0 {fill:#020202}
    .fil2 {fill:#060606}
    .fil1 {fill:#8F8F8F}
   ]]>
  </style>
 </defs>
 <g id="Layer_x0020_1">
  <metadata id="CorelCorpID_0Corel-Layer"/>
  <polygon class="fil0" points="99.9683,60.0397 98.9945,60.202 98.0206,60.3643 97.3714,60.5266 96.7221,60.6889 96.0729,60.8512 95.5859,61.0136 94.9367,61.1759 94.6121,61.3382 94.1251,61.5005 93.6382,61.6628 93.3136,61.8251 92.8266,61.9874 92.502,62.1497 92.1774,62.312 91.8528,62.4744 91.5281,62.6367 91.2035,62.799 90.8789,62.9613 90.5543,63.1236 90.2296,63.2859 90.0673,63.4482 89.7427,63.6105 89.4181,63.7729 89.2558,63.9352 88.9312,64.0975 88.7688,64.2598 88.6065,64.4221 88.2819,64.5844 88.1196,64.7467 87.795,64.909 87.6327,65.0713 87.4703,65.2337 87.1457,65.396 86.9834,65.5583 86.8211,65.7206 86.6588,65.8829 86.4965,66.0452 86.3342,66.2075 86.1719,66.3698 85.8472,66.5321 85.6849,66.6945 85.5226,66.8568 85.3603,67.0191 85.198,67.1814 85.0357,67.3437 84.8734,67.506 84.711,67.6683 84.5487,67.8306 84.3864,67.993 84.2241,68.1553 84.0618,68.4799 83.8995,68.6422 83.7372,68.8045 83.5749,68.9668 83.4126,69.1291 83.2502,69.2914 83.0879,69.4538 82.9256,69.7784 82.7633,69.9407 82.601,70.103 82.4387,70.2653 82.2764,70.5899 82.1141,70.7523 81.9518,70.9146 81.7894,71.0769 81.6271,71.4015 81.4648,71.5638 81.3025,71.8884 81.1402,72.0507 80.9779,72.2131 80.8156,72.5377 80.6533,72.7 80.4909,73.0246 80.3286,73.1869 80.1663,73.5115 80.004,73.8362 79.8417,73.9985 79.6794,74.3231 79.5171,74.6477 79.3548,74.9724 79.1925,75.297 79.0301,75.6216 78.8678,75.9462 78.7055,76.2708 78.5432,76.5955 78.3809,77.0824 78.2186,77.407 78.0563,77.894 77.894,78.3809 77.7316,78.8678 77.5693,79.3548 77.407,80.004 77.2447,80.6533 77.0824,81.3025 76.9201,82.1141 76.7578,83.0879 76.5955,84.2241 76.4332,85.5226 76.2708,87.4703 76.1085,91.3658 76.1085,94.4497 91.3658,94.4497 91.5281,89.4181 91.6904,86.9834 91.8528,85.8472 92.0151,84.8734 92.1774,84.2241 92.3397,83.5749 92.502,83.0879 92.6643,82.601 92.8266,82.2764 92.9889,81.9518 93.1513,81.4648 93.3136,81.1402 93.4759,80.9779 93.6382,80.6533 93.8005,80.3286 93.9628,80.1663 94.1251,80.004 94.2874,79.6794 94.4497,79.5171 94.6121,79.3548 94.7744,79.1925 94.9367,79.0301 95.099,78.8678 95.2613,78.7055 95.4236,78.5432 95.5859,78.3809 95.7482,78.2186 95.9105,78.0563 96.2352,77.894 96.3975,77.7316 96.5598,77.5693 96.8844,77.407 97.209,77.2447 97.3714,77.0824 97.696,76.9201 98.0206,76.7578 98.3452,76.5955 98.6698,76.4332 99.1568,76.2708 99.6437,76.1085 100.131,75.9462 100.618,75.7839 101.267,75.6216 102.078,75.4593 102.89,75.297 104.838,75.1347 105.649,75.1347 107.435,75.297 108.409,75.4593 109.058,75.6216 109.707,75.7839 110.194,75.9462 110.681,76.1085 111.006,76.2708 111.493,76.4332 111.817,76.5955 112.142,76.7578 112.466,76.9201 112.791,77.0824 112.953,77.2447 113.278,77.407 113.44,77.5693 113.765,77.7316 113.927,77.894 114.252,78.0563 114.414,78.2186 114.576,78.3809 114.739,78.5432 114.901,78.7055 115.063,78.8678 115.226,79.0301 115.388,79.1925 115.55,79.3548 115.713,79.5171 115.875,79.6794 116.037,80.004 116.2,80.1663 116.362,80.4909 116.524,80.8156 116.686,81.1402 116.849,81.4648 117.011,81.9518 117.173,82.4387 117.336,83.2502 117.498,84.711 117.498,85.3603 117.336,86.8211 117.173,87.4703 117.011,88.1196 116.849,88.6065 116.686,88.9312 116.524,89.4181 116.362,89.7427 116.2,89.905 116.037,90.2296 115.875,90.5543 115.713,90.7166 115.55,91.0412 115.388,91.2035 115.226,91.3658 115.063,91.5281 114.901,91.8528 114.739,92.0151 114.576,92.1774 114.414,92.3397 114.252,92.502 113.927,92.6643 113.765,92.8266 113.603,92.9889 113.278,93.1513 113.116,93.3136 112.953,93.4759 112.629,93.6382 112.466,93.8005 112.142,93.9628 111.979,94.1251 111.655,94.2874 111.493,94.4497 111.168,94.6121 111.006,94.7744 110.681,94.9367 110.519,95.099 110.194,95.2613 110.032,95.4236 109.707,95.5859 109.545,95.7482 109.22,95.9105 109.058,96.0729 108.733,96.2352 108.571,96.3975 108.246,96.5598 108.084,96.7221 107.922,96.8844 107.597,97.0467 107.435,97.209 107.11,97.3714 106.948,97.5337 106.623,97.696 106.461,97.8583 106.136,98.0206 105.974,98.1829 105.649,98.3452 105.487,98.5075 105.162,98.6698 105,98.8322 104.675,98.9945 104.513,99.1568 104.188,99.3191 104.026,99.4814 103.702,99.6437 103.539,99.806 103.377,99.9683 103.052,100.131 102.89,100.293 102.728,100.455 102.565,100.618 102.403,100.78 102.078,100.942 101.916,101.105 101.754,101.267 101.592,101.429 101.429,101.592 101.267,101.754 101.105,102.078 100.942,102.241 100.78,102.403 100.618,102.565 100.455,102.728 100.293,103.052 100.131,103.215 99.9683,103.377 99.806,103.702 99.6437,104.026 99.4814,104.188 99.3191,104.513 99.1568,104.838 98.9945,105.325 98.8322,105.649 98.6698,106.136 98.5075,106.623 98.3452,107.435 98.1829,108.246 98.1829,109.869 98.1829,128.535 113.112,128.535 113.278,116.2 113.44,115.875 113.603,114.901 113.765,114.252 113.927,113.765 114.09,113.278 114.252,112.953 114.414,112.629 114.576,112.466 114.739,112.142 114.901,111.817 115.063,111.655 115.226,111.33 115.388,111.168 115.55,111.006 115.713,110.843 115.875,110.681 116.037,110.519 116.2,110.194 116.362,110.032 116.686,109.869 116.849,109.707 117.011,109.545 117.173,109.382 117.336,109.22 117.498,109.058 117.823,108.896 117.985,108.733 118.147,108.571 118.472,108.409 118.634,108.246 118.959,108.084 119.121,107.922 119.446,107.759 119.77,107.597 119.933,107.435 120.257,107.272 120.42,107.11 120.744,106.948 121.069,106.785 121.231,106.623 121.556,106.461 121.718,106.299 122.043,106.136 122.205,105.974 122.53,105.812 122.692,105.649 123.017,105.487 123.179,105.325 123.504,105.162 123.666,105 123.991,104.838 124.153,104.675 124.315,104.513 124.64,104.351 124.802,104.188 124.964,104.026 125.127,103.864 125.451,103.702 125.614,103.539 125.776,103.377 125.938,103.215 126.101,103.052 126.425,102.89 126.587,102.728 126.75,102.565 126.912,102.403 127.074,102.241 127.237,102.078 127.399,101.916 127.561,101.754 127.724,101.592 127.886,101.429 128.048,101.267 128.211,101.105 128.373,100.942 128.535,100.78 128.697,100.455 128.86,100.293 129.022,100.131 129.184,99.9683 129.347,99.806 129.509,99.4814 129.671,99.3191 129.834,99.1568 129.996,98.8322 130.158,98.6698 130.321,98.5075 130.483,98.1829 130.645,98.0206 130.808,97.696 130.97,97.3714 131.132,97.209 131.295,96.8844 131.457,96.5598 131.619,96.2352 131.781,95.9105 131.944,95.5859 132.106,95.2613 132.268,94.9367 132.431,94.4497 132.593,94.1251 132.755,93.6382 132.918,93.1513 133.08,92.502 133.242,92.0151 133.405,91.2035 133.567,90.392 133.729,89.2558 133.892,87.4703 133.892,85.0357 133.729,83.2502 133.567,82.1141 133.405,81.1402 133.242,80.4909 133.08,79.8417 132.918,79.3548 132.755,78.7055 132.593,78.2186 132.431,77.894 132.268,77.407 132.106,77.0824 131.944,76.5955 131.781,76.2708 131.619,75.9462 131.457,75.6216 131.295,75.297 131.132,74.9724 130.97,74.6477 130.808,74.3231 130.645,73.9985 130.483,73.6739 130.321,73.5115 130.158,73.1869 129.996,73.0246 129.834,72.7 129.671,72.5377 129.509,72.2131 129.347,72.0507 129.184,71.7261 129.022,71.5638 128.86,71.4015 128.697,71.0769 128.535,70.9146 128.373,70.7523 128.211,70.4276 128.048,70.2653 127.886,70.103 127.724,69.9407 127.561,69.7784 127.399,69.6161 127.237,69.2914 127.074,69.1291 126.912,68.9668 126.75,68.8045 126.587,68.6422 126.425,68.4799 126.263,68.3176 126.101,68.1553 125.938,67.993 125.776,67.8306 125.614,67.6683 125.451,67.506 125.289,67.3437 124.964,67.1814 124.802,67.0191 124.64,66.8568 124.477,66.6945 124.315,66.5321 124.153,66.3698 123.828,66.2075 123.666,66.0452 123.504,65.8829 123.341,65.7206 123.017,65.5583 122.854,65.396 122.692,65.2337 122.367,65.0713 122.205,64.909 121.88,64.7467 121.718,64.5844 121.394,64.4221 121.231,64.2598 120.906,64.0975 120.744,63.9352 120.42,63.7729 120.095,63.6105 119.933,63.4482 119.608,63.2859 119.283,63.1236 118.959,62.9613 118.634,62.799 118.31,62.6367 117.985,62.4744 117.66,62.312 117.173,62.1497 116.849,61.9874 116.524,61.8251 116.037,61.6628 115.55,61.5005 115.226,61.3382 114.739,61.1759 114.09,61.0136 113.603,60.8512 112.953,60.6889 112.142,60.5266 111.168,60.3643 110.356,60.202 109.058,60.0397 107.435,59.8774 101.429,59.8774 "/>
  <polygon class="fil1" points="98.0206,128.697 113.278,128.697 113.278,116.2 113.112,128.535 98.1829,128.535 98.1829,109.869 98.0206,109.869 "/>
  <polygon class="fil2" points="104.026,134.541 103.377,134.703 102.89,134.865 102.403,135.028 102.078,135.19 101.754,135.352 101.592,135.515 101.267,135.677 101.105,135.839 100.78,136.001 100.618,136.164 100.455,136.326 100.293,136.488 100.131,136.651 99.9683,136.813 99.806,136.975 99.6437,137.138 99.4814,137.3 99.3191,137.462 99.1568,137.787 98.9945,137.949 98.8322,138.274 98.6698,138.436 98.5075,138.761 98.3452,139.085 98.1829,139.572 98.0206,140.059 97.8583,140.709 97.8583,143.955 98.0206,144.604 98.1829,145.091 98.3452,145.416 98.5075,145.74 98.6698,146.065 98.8322,146.39 98.9945,146.714 99.1568,146.876 99.3191,147.039 99.4814,147.363 99.6437,147.526 99.806,147.688 99.9683,147.85 100.131,148.013 100.293,148.175 100.455,148.337 100.78,148.5 100.942,148.662 101.105,148.824 101.429,148.986 101.754,149.149 101.916,149.311 102.241,149.473 102.728,149.636 103.052,149.798 103.702,149.96 104.513,150.123 106.948,150.123 107.759,149.96 108.246,149.798 108.733,149.636 109.058,149.473 109.382,149.311 109.707,149.149 110.032,148.986 110.194,148.824 110.356,148.662 110.681,148.5 110.843,148.337 111.006,148.175 111.168,148.013 111.33,147.85 111.493,147.688 111.655,147.526 111.817,147.363 111.979,147.201 112.142,146.876 112.304,146.714 112.466,146.39 112.629,146.227 112.791,145.903 112.953,145.578 113.116,145.091 113.278,144.604 113.44,143.955 113.603,142.656 113.603,142.007 113.44,140.546 113.278,139.897 113.116,139.572 112.953,139.085 112.791,138.761 112.629,138.436 112.466,138.112 112.304,137.949 112.142,137.625 111.979,137.462 111.817,137.3 111.655,137.138 111.493,136.975 111.33,136.651 111.006,136.488 110.843,136.326 110.681,136.164 110.519,136.001 110.356,135.839 110.032,135.677 109.869,135.515 109.545,135.352 109.22,135.19 108.896,135.028 108.409,134.865 108.084,134.703 107.435,134.541 105.974,134.378 105.325,134.378 "/>
  <path class="fil0" d="M43.6462 102.565l0.1623 -2.597 0.1623 -1.7854 0.1623 -1.2985 0.1624 -1.1362 0.1623 -0.9738 0.1623 -0.9739 0.1623 -0.8116 0.1623 -0.8115 0.1623 -0.8116 0.1623 -0.6492 0.1623 -0.6493 0.1624 -0.6492 0.1623 -0.6493 0.1623 -0.4869 0.1623 -0.6492 0.1623 -0.487 0.1623 -0.4869 0.1623 -0.4869 0.1623 -0.6493 0.1623 -0.4869 0.1624 -0.3247 0.1623 -0.4869 0.1623 -0.4869 0.1623 -0.487 0.1623 -0.3246 0.1623 -0.4869 0.1623 -0.3246 0.1623 -0.487 0.1623 -0.3246 0.1624 -0.4869 0.1623 -0.3247 0.1623 -0.3246 0.1623 -0.3246 0.1623 -0.4869 0.1623 -0.3247 0.1623 -0.3246 0.1623 -0.3246 0.1624 -0.3246 0.1623 -0.3247 0.1623 -0.3246 0.1623 -0.3246 0.1623 -0.3246 0.1623 -0.3246 0.1623 -0.3247 0.1623 -0.3246 0.1623 -0.1623 0.1624 -0.3246 0.1623 -0.3246 0.1623 -0.3247 0.1623 -0.3246 0.1623 -0.1623 0.1623 -0.3246 0.1623 -0.3247 0.1623 -0.1623 0.1623 -0.3246 0.1624 -0.3246 0.1623 -0.1623 0.1623 -0.3246 0.1623 -0.1624 0.1623 -0.3246 0.1623 -0.1623 0.1623 -0.3246 0.1623 -0.1623 0.1624 -0.3246 0.1623 -0.1624 0.1623 -0.3246 0.1623 -0.1623 0.1623 -0.3246 0.1623 -0.1623 0.1623 -0.3247 0.1623 -0.1623 0.1623 -0.1623 0.1624 -0.3246 0.1623 -0.1623 0.1623 -0.3246 0.1623 -0.1623 0.1623 -0.1624 0.1623 -0.1623 0.1623 -0.3246 0.1623 -0.1623 0.1624 -0.1623 0.1623 -0.3246 0.1623 -0.1624 0.1623 -0.1623 0.1623 -0.1623 0.1623 -0.3246 0.1623 -0.1623 0.1623 -0.1623 0.1623 -0.1623 0.1624 -0.1623 0.1623 -0.1624 0.1623 -0.3246 0.1623 -0.1623 0.1623 -0.1623 0.1623 -0.1623 0.1623 -0.1623 0.1623 -0.1623 0.1623 -0.1623 0.1624 -0.1624 0.1623 -0.3246 0.1623 -0.1623 0.1623 -0.1623 0.1623 -0.1623 0.1623 -0.1623 0.1623 -0.1623 0.1623 -0.1624 0.1624 -0.1623 0.1623 -0.1623 0.1623 -0.1623 0.1623 -0.1623 0.1623 -0.1623 0.1623 -0.1623 0.1623 -0.1623 0.1623 -0.1623 0.1623 -0.1624 0.1624 -0.1623 0.1623 -0.1623 0.1623 -0.1623 0.1623 -0.1623 0.1623 -0.1623 0.1623 -0.1623 0.3246 -0.1623 0.1624 -0.1624 0.1623 -0.1623 0.1623 -0.1623 0.1623 -0.1623 0.1623 -0.1623 0.1623 -0.1623 0.1623 -0.1623 0.3246 -0.1623 0.1624 -0.1623 0.1623 -0.1624 0.1623 -0.1623 0.1623 -0.1623 0.3246 -0.1623 0.1623 -0.1623 0.1623 -0.1623 0.1623 -0.1623 0.3247 -0.1623 0.1623 -0.1623 0.1623 -0.1624 0.1623 -0.1623 0.3246 -0.1623 0.1623 -0.1623 0.1624 -0.1623 0.3246 -0.1623 0.1623 -0.1623 0.1623 -0.1623 0.3246 -0.1624 0.1623 -0.1623 0.1623 -0.1623 0.3247 -0.1623 0.1623 -0.1623 0.3246 -0.1623 0.1623 -0.1623 0.3246 -0.1623 0.1624 -0.1623 0.3246 -0.1624 0.1623 -0.1623 0.3246 -0.1623 0.1623 -0.1623 0.3246 -0.1623 0.1624 -0.1623 0.3246 -0.1623 0.3246 -0.1623 0.1623 -0.1624 0.3246 -0.1623 0.3247 -0.1623 0.1623 -0.1623 0.3246 -0.1623 0.3246 -0.1623 0.1623 -0.1623 0.3247 -0.1623 0.3246 -0.1623 0.3246 -0.1624 0.3246 -0.1623 0.3246 -0.1623 0.1624 -0.1623 0.3246 -0.1623 0.3246 -0.1623 0.3246 -0.1623 0.3246 -0.1623 0.3247 -0.1623 0.3246 -0.1624 0.3246 -0.1623 0.487 -0.1623 0.3246 -0.1623 0.3246 -0.1623 0.3246 -0.1623 0.3246 -0.1623 0.487 -0.1623 0.3246 -0.1624 0.4869 -0.1623 0.3247 -0.1623 0.3246 -0.1623 0.4869 -0.1623 0.487 -0.1623 0.3246 -0.1623 0.4869 -0.1623 0.4869 -0.1623 0.487 -0.1624 0.4869 -0.1623 0.487 -0.1623 0.4869 -0.1623 0.4869 -0.1623 0.6493 -0.1623 0.4869 -0.1623 0.6493 -0.1623 0.4869 -0.1623 0.6492 -0.1624 0.8116 -0.1623 0.6492 -0.1623 0.6493 -0.1623 0.8115 -0.1623 0.8116 -0.1623 0.9739 -0.1623 0.9738 -0.1623 1.1362 -0.1624 1.4608 -0.1623 1.6231 -0.1623 2.597 -0.1623 4.8694 0 2.7593 0.1623 1.6231 0.1623 1.2985 0.1623 1.1362 0.1624 0.9738 0.1623 0.9739 0.1623 0.8116 0.1623 0.8115 0.1623 0.8116 0.1623 0.6492 0.1623 0.6493 0.1623 0.6492 0.1624 0.6493 0.1623 0.4869 0.1623 0.6492 0.1623 0.487 0.1623 0.6492 0.1623 0.487 0.1623 0.4869 0.1623 0.4869 0.1623 0.3247 0.1624 0.4869 0.1623 0.4869 0.1623 0.487 0.1623 0.3246 0.1623 0.4869 0.1623 0.3246 0.1623 0.487 0.1623 0.3246 0.1623 0.4869 0.1624 0.3247 0.1623 0.3246 0.1623 0.3246 0.1623 0.4869 0.1623 0.3247 0.1623 0.3246 0.1623 0.3246 0.1623 0.3246 0.1624 0.3247 0.1623 0.3246 0.1623 0.3246 0.1623 0.3246 0.1623 0.3246 0.1623 0.3247 0.1623 0.3246 0.1623 0.3246 0.1623 0.1623 0.1624 0.3246 0.1623 0.3247 0.1623 0.3246 0.1623 0.1623 0.1623 0.3246 0.1623 0.3247 0.1623 0.1623 0.1623 0.3246 0.1623 0.3246 0.1624 0.1623 0.1623 0.3246 0.1623 0.1624 0.1623 0.3246 0.1623 0.3246 0.1623 0.1623 0.1623 0.3246 0.1623 0.1623 0.1624 0.3247 0.1623 0.1623 0.1623 0.1623 0.1623 0.3246 0.1623 0.1623 0.1623 0.3247 0.1623 0.1623 0.1623 0.3246 0.1623 0.1623 0.1624 0.1623 0.1623 0.3246 0.1623 0.1623 0.1623 0.1624 0.1623 0.3246 0.1623 0.1623 0.1623 0.1623 0.1623 0.1623 0.1624 0.3246 0.1623 0.1624 0.1623 0.1623 0.1623 0.1623 0.1623 0.3246 0.1623 0.1623 0.1623 0.1623 0.1623 0.1623 0.1623 0.1623 0.1624 0.3247 0.1623 0.1623 0.1623 0.1623 0.1623 0.1623 0.1623 0.1623 0.1623 0.1623 0.1623 0.1623 0.1623 0.3247 0.1623 0.1623 0.1624 0.1623 0.1623 0.1623 0.1623 0.1623 0.1623 0.1623 0.1623 0.1623 0.1623 0.1623 0.1623 0.1624 0.1623 0.1623 0.1624 0.1623 0.1623 0.1623 0.1623 0.1623 0.1623 0.1623 0.1623 0.1623 0.1623 0.1623 0.1623 0.1623 0.1623 0.1624 0.1623 0.1623 0.1624 0.1623 0.1623 0.1623 0.1623 0.1623 0.1623 0.1623 0.1623 0.1623 0.1623 0.1623 0.1623 0.1624 0.1623 0.1623 0.3247 0.1623 0.1623 0.1623 0.1623 0.1623 0.1623 0.1623 0.1623 0.1623 0.1623 0.1623 0.1623 0.1623 0.3247 0.1624 0.1623 0.1623 0.1623 0.1623 0.1623 0.1623 0.1623 0.1623 0.3246 0.1623 0.1623 0.1623 0.1623 0.1623 0.1624 0.1623 0.3246 0.1624 0.1623 0.1623 0.1623 0.1623 0.1623 0.1623 0.3246 0.1623 0.1624 0.1623 0.1623 0.1623 0.3246 0.1623 0.1623 0.1624 0.1623 0.1623 0.3246 0.1623 0.1623 0.1623 0.3247 0.1623 0.1623 0.1623 0.3246 0.1623 0.1623 0.1623 0.1623 0.1623 0.3247 0.1624 0.1623 0.1623 0.3246 0.1623 0.1623 0.1623 0.3246 0.1623 0.3246 0.1623 0.1624 0.1623 0.3246 0.1623 0.1623 0.1624 0.3246 0.1623 0.3246 0.1623 0.1623 0.1623 0.3247 0.1623 0.3246 0.1623 0.1623 0.1623 0.3246 0.1623 0.3247 0.1623 0.3246 0.1624 0.1623 0.1623 0.3246 0.1623 0.3246 0.1623 0.3247 0.1623 0.3246 0.1623 0.3246 0.1623 0.3246 0.1623 0.3246 0.1623 0.3247 0.1624 0.3246 0.1623 0.3246 0.1623 0.3246 0.1623 0.3247 0.1623 0.4869 0.1623 0.3246 0.1623 0.3246 0.1623 0.3247 0.1624 0.4869 0.1623 0.3246 0.1623 0.487 0.1623 0.3246 0.1623 0.4869 0.1623 0.3246 0.1623 0.487 0.1623 0.4869 0.1623 0.4869 0.1624 0.3247 0.1623 0.4869 0.1623 0.4869 0.1623 0.6493 0.1623 0.4869 0.1623 0.487 0.1623 0.6492 0.1623 0.4869 0.1623 0.6493 0.1624 0.6492 0.1623 0.6493 0.1623 0.6492 0.1623 0.8116 0.1623 0.8115 0.1623 0.8116 0.1623 0.9739 0.1623 0.9738 0.1624 1.1362 0.1623 1.2985 0.1623 1.7854 0.1623 2.7593 0 4.5448 -0.1623 2.7593 -0.1623 1.6231 -0.1623 1.2985 -0.1624 1.1362 -0.1623 1.1361 -0.1623 0.8116 -0.1623 0.9739 -0.1623 0.6492 -0.1623 0.8116 -0.1623 0.6492 -0.1623 0.6493 -0.1624 0.6492 -0.1623 0.6492 -0.1623 0.6493 -0.1623 0.4869 -0.1623 0.6493 -0.1623 0.4869 -0.1623 0.4869 -0.1623 0.487 -0.1623 0.4869 -0.1624 0.487 -0.1623 0.4869 -0.1623 0.3246 -0.1623 0.4869 -0.1623 0.487 -0.1623 0.3246 -0.1623 0.4869 -0.1623 0.3247 -0.1623 0.4869 -0.1624 0.3246 -0.1623 0.3246 -0.1623 0.487 -0.1623 0.3246 -0.1623 0.3246 -0.1623 0.3246 -0.1623 0.3247 -0.1623 0.4869 -0.1624 0.3246 -0.1623 0.3247 -0.1623 0.3246 -0.1623 0.3246 -0.1623 0.3246 -0.1623 0.1623 -0.1623 0.3247 -0.1623 0.3246 -0.1623 0.3246 -0.1624 0.3246 -0.1623 0.3246 -0.1623 0.1624 -0.1623 0.3246 -0.1623 0.3246 -0.1623 0.3246 -0.1623 0.1623 -0.1623 0.3247 -0.1623 0.3246 -0.1624 0.1623 -0.1623 0.3246 -0.1623 0.1623 -0.1623 0.3247 -0.1623 0.3246 -0.1623 0.1623 -0.1623 0.3246 -0.1623 0.1623 -0.1624 0.3246 -0.1623 0.1624 -0.1623 0.3246 -0.1623 0.1623 -0.1623 0.3246 -0.1623 0.1623 -0.1623 0.1623 -0.1623 0.3247 -0.1623 0.1623 -0.1624 0.3246 -0.1623 0.1623 -0.1623 0.1623 -0.1623 0.3246 -0.1623 0.1624 -0.1623 0.1623 -0.1623 0.1623 -0.1623 0.3246 -0.1624 0.1623 -0.1623 0.1623 -0.1623 0.3247 -0.1623 0.1623 -0.1623 0.1623 -0.1623 0.1623 -0.1623 0.1623 -0.1623 0.3246 -0.1623 0.1623 -0.1624 0.1623 -0.1623 0.1624 -0.1623 0.1623 -0.1623 0.3246 -0.1623 0.1623 -0.1623 0.1623 -0.1623 0.1623 -0.1623 0.1623 -0.1623 0.1623 -0.1624 0.1624 -0.1623 0.1623 -0.1623 0.1623 -0.1623 0.1623 -0.1623 0.3246 -0.1623 0.1623 -0.1623 0.1623 -0.1623 0.1624 -0.1624 0.1623 -0.1623 0.1623 -0.1623 0.1623 -0.1623 0.1623 -0.1623 0.1623 -0.1623 0.1623 -0.1623 0.1623 -0.1623 0.1623 -0.1623 0.1624 -0.1624 0.1623 -0.1623 0.1623 -0.1623 0.1623 -0.1623 0.1623 -0.3246 0.1623 -0.1623 0.1623 -0.1623 0.1623 -0.1624 0.1624 -0.1623 0.1623 -0.1623 0.1623 -0.1623 0.1623 -0.1623 0.1623 -0.1623 0.1623 -0.3246 0.1623 -0.1623 0.1623 -0.1624 0.1623 -0.1623 0.1624 -0.1623 0.1623 -0.1623 0.1623 -0.3246 0.1623 -0.1623 0.1623 -0.1623 0.1623 -0.1623 0.1623 -0.3247 0.1623 -0.1623 0.1623 -0.1623 0.1624 -0.1623 0.1623 -0.3246 0.1623 -0.1623 0.1623 -0.1624 0.1623 -0.3246 0.1623 -0.1623 0.1623 -0.1623 0.1623 -0.3246 0.1624 -0.1623 0.1623 -0.3247 0.1623 -0.1623 0.1623 -0.1623 0.1623 -0.3246 0.1623 -0.1623 0.1623 -0.3246 0.1623 -0.1624 0.1623 -0.3246 0.1624 -0.1623 0.1623 -0.3246 0.1623 -0.1623 0.1623 -0.3246 0.1623 -0.1624 0.1623 -0.3246 0.1623 -0.3246 0.1623 -0.1623 0.1624 -0.3246 0.1623 -0.3247 0.1623 -0.1623 0.1623 -0.3246 0.1623 -0.3246 0.1623 -0.1623 0.1623 -0.3247 0.1623 -0.3246 0.1623 -0.3246 0.1624 -0.3246 0.1623 -0.3246 0.1623 -0.1624 0.1623 -0.3246 0.1623 -0.3246 0.1623 -0.3246 0.1623 -0.3246 0.1623 -0.3247 0.1623 -0.3246 0.1624 -0.3246 0.1623 -0.487 0.1623 -0.3246 0.1623 -0.3246 0.1623 -0.3246 0.1623 -0.3246 0.1623 -0.487 0.1623 -0.3246 0.1624 -0.4869 0.1623 -0.3247 0.1623 -0.4869 0.1623 -0.3246 0.1623 -0.487 0.1623 -0.3246 0.1623 -0.4869 0.1623 -0.4869 0.1623 -0.487 0.1624 -0.4869 0.1623 -0.487 0.1623 -0.4869 0.1623 -0.4869 0.1623 -0.6493 0.1623 -0.4869 0.1623 -0.6493 0.1623 -0.4869 0.1623 -0.6492 0.1624 -0.6493 0.1623 -0.8115 0.1623 -0.6493 0.1623 -0.8115 0.1623 -0.8116 0.1623 -0.9739 0.1623 -1.1361 0.1623 -0.9739 0.1624 -1.4608 0.1623 -1.7855 0.1623 -2.9216 0.1623 -3.8954 0 -2.9216 -0.1623 -1.6232 -0.1623 -1.4608 -0.1623 -1.1362 -0.1624 -0.9738 -0.1623 -0.9739 -0.1623 -0.8115 -0.1623 -0.8116 -0.1623 -0.8116 -0.1623 -0.6492 -0.1623 -0.6493 -0.1623 -0.6492 -0.1624 -0.6492 -0.1623 -0.487 -0.1623 -0.6492 -0.1623 -0.487 -0.1623 -0.6492 -0.1623 -0.4869 -0.1623 -0.487 -0.1623 -0.4869 -0.1623 -0.487 -0.1624 -0.3246 -0.1623 -0.4869 -0.1623 -0.4869 -0.1623 -0.3247 -0.1623 -0.4869 -0.1623 -0.4869 -0.1623 -0.3247 -0.1623 -0.3246 -0.1623 -0.4869 -0.1624 -0.3246 -0.1623 -0.3247 -0.1623 -0.4869 -0.1623 -0.3246 -0.1623 -0.3246 -0.1623 -0.3247 -0.1623 -0.3246 -0.1623 -0.3246 -0.1624 -0.3246 -0.1623 -0.3247 -0.1623 -0.3246 -0.1623 -0.3246 -0.1623 -0.3246 -0.1623 -0.3247 -0.1623 -0.3246 -0.1623 -0.3246 -0.1623 -0.3246 -0.1624 -0.1623 -0.1623 -0.3247 -0.1623 -0.3246 -0.1623 -0.3246 -0.1623 -0.1623 -0.1623 -0.3246 -0.1623 -0.3247 -0.1623 -0.1623 -0.1623 -0.3246 -0.1624 -0.3246 -0.1623 -0.1623 -0.1623 -0.3247 -0.1623 -0.1623 -0.1623 -0.3246 -0.1623 -0.1623 -0.1623 -0.3246 -0.1623 -0.3246 -0.1624 -0.1624 -0.1623 -0.1623 -0.1623 -0.3246 -0.1623 -0.1623 -0.1623 -0.3246 -0.1623 -0.1623 -0.1623 -0.3247 -0.1623 -0.1623 -0.1623 -0.1623 -0.1624 -0.3246 -0.1623 -0.1623 -0.1623 -0.1623 -0.1623 -0.3247 -0.1623 -0.1623 -0.1623 -0.1623 -0.1623 -0.3246 -0.1623 -0.1623 -0.1624 -0.1623 -0.1623 -0.1623 -0.1623 -0.3247 -0.1623 -0.1623 -0.1623 -0.1623 -0.1623 -0.1623 -0.1623 -0.1623 -0.1623 -0.3246 -0.1623 -0.1623 -0.1624 -0.1624 -0.1623 -0.1623 -0.1623 -0.1623 -0.1623 -0.1623 -0.1623 -0.3246 -0.1623 -0.1623 -0.1623 -0.1623 -0.1623 -0.1623 -0.1623 -0.1624 -0.1624 -0.1623 -0.1623 -0.1623 -0.1623 -0.1623 -0.1623 -0.1623 -0.1623 -0.1623 -0.1623 -0.3246 -0.1623 -0.1624 -0.1623 -0.1623 -0.1624 -0.1623 -0.1623 -0.1623 -0.1623 -0.1623 -0.1623 -0.1623 -0.1623 -0.1623 -0.1623 -0.1623 -0.1623 -0.1623 -0.1623 -0.1624 -0.1623 -0.1623 -0.1624 -0.1623 -0.3246 -0.1623 -0.1623 -0.1623 -0.1623 -0.1623 -0.1623 -0.1623 -0.1623 -0.1623 -0.1623 -0.1624 -0.1624 -0.1623 -0.1623 -0.1623 -0.1623 -0.1623 -0.1623 -0.1623 -0.1623 -0.1623 -0.3246 -0.1623 -0.1623 -0.1623 -0.1623 -0.1623 -0.1624 -0.1624 -0.1623 -0.1623 -0.1623 -0.1623 -0.3246 -0.1623 -0.1623 -0.1623 -0.1623 -0.1623 -0.1623 -0.1623 -0.3247 -0.1623 -0.1623 -0.1623 -0.1623 -0.1624 -0.1623 -0.1623 -0.3246 -0.1623 -0.1623 -0.1623 -0.1623 -0.1623 -0.3247 -0.1623 -0.1623 -0.1623 -0.1623 -0.1623 -0.3246 -0.1624 -0.1623 -0.1623 -0.1623 -0.1623 -0.3247 -0.1623 -0.1623 -0.1623 -0.3246 -0.1623 -0.1623 -0.1623 -0.1623 -0.1623 -0.3246 -0.1623 -0.1624 -0.1624 -0.3246 -0.1623 -0.1623 -0.1623 -0.3246 -0.1623 -0.1623 -0.1623 -0.3246 -0.1623 -0.3247 -0.1623 -0.1623 -0.1623 -0.3246 -0.1624 -0.1623 -0.1623 -0.3246 -0.1623 -0.3247 -0.1623 -0.1623 -0.1623 -0.3246 -0.1623 -0.3246 -0.1623 -0.3246 -0.1623 -0.1624 -0.1623 -0.3246 -0.1624 -0.3246 -0.1623 -0.3246 -0.1623 -0.3246 -0.1623 -0.3247 -0.1623 -0.3246 -0.1623 -0.1623 -0.1623 -0.3246 -0.1623 -0.3246 -0.1623 -0.3247 -0.1624 -0.4869 -0.1623 -0.3246 -0.1623 -0.3247 -0.1623 -0.3246 -0.1623 -0.3246 -0.1623 -0.3246 -0.1623 -0.487 -0.1623 -0.3246 -0.1624 -0.3246 -0.1623 -0.4869 -0.1623 -0.3247 -0.1623 -0.4869 -0.1623 -0.3246 -0.1623 -0.487 -0.1623 -0.4869 -0.1623 -0.3246 -0.1623 -0.4869 -0.1624 -0.487 -0.1623 -0.4869 -0.1623 -0.487 -0.1623 -0.4869 -0.1623 -0.4869 -0.1623 -0.6493 -0.1623 -0.4869 -0.1623 -0.6493 -0.1623 -0.6492 -0.1624 -0.4869 -0.1623 -0.8116 -0.1623 -0.6492 -0.1623 -0.8116 -0.1623 -0.6492 -0.1623 -0.9739 -0.1623 -0.8116 -0.1623 -0.9738 -0.1624 -1.1362 -0.1623 -1.4608 -0.1623 -1.6231 -0.1623 -2.7593 0 -4.7071zm56.1598 -77.098l-2.11 0.1623 -1.6231 0.1623 -1.4608 0.1623 -1.1362 0.1624 -1.1362 0.1623 -0.9739 0.1623 -0.8115 0.1623 -0.8116 0.1623 -0.9739 0.1623 -0.6492 0.1623 -0.8116 0.1623 -0.6492 0.1624 -0.6493 0.1623 -0.6492 0.1623 -0.6493 0.1623 -0.6492 0.1623 -0.6492 0.1623 -0.487 0.1623 -0.6492 0.1623 -0.487 0.1623 -0.4869 0.1624 -0.4869 0.1623 -0.487 0.1623 -0.6492 0.1623 -0.4869 0.1623 -0.3247 0.1623 -0.4869 0.1623 -0.4869 0.1623 -0.487 0.1623 -0.3246 0.1624 -0.4869 0.1623 -0.487 0.1623 -0.3246 0.1623 -0.4869 0.1623 -0.3246 0.1623 -0.487 0.1623 -0.3246 0.1623 -0.4869 0.1624 -0.3247 0.1623 -0.3246 0.1623 -0.3246 0.1623 -0.4869 0.1623 -0.3247 0.1623 -0.3246 0.1623 -0.3246 0.1623 -0.3246 0.1623 -0.3247 0.1624 -0.3246 0.1623 -0.3246 0.1623 -0.3246 0.1623 -0.3247 0.1623 -0.3246 0.1623 -0.3246 0.1623 -0.3246 0.1623 -0.3246 0.1624 -0.3247 0.1623 -0.3246 0.1623 -0.3246 0.1623 -0.3246 0.1623 -0.3247 0.1623 -0.1623 0.1623 -0.3246 0.1623 -0.3246 0.1623 -0.3246 0.1624 -0.1624 0.1623 -0.3246 0.1623 -0.3246 0.1623 -0.1623 0.1623 -0.3246 0.1623 -0.3247 0.1623 -0.1623 0.1623 -0.3246 0.1623 -0.3246 0.1624 -0.1623 0.1623 -0.3247 0.1623 -0.1623 0.1623 -0.3246 0.1623 -0.1623 0.1623 -0.3246 0.1623 -0.3246 0.1623 -0.1624 0.1624 -0.3246 0.1623 -0.1623 0.1623 -0.1623 0.1623 -0.3246 0.1623 -0.1623 0.1623 -0.3247 0.1623 -0.1623 0.1623 -0.3246 0.1623 -0.1623 0.1624 -0.1623 0.1623 -0.3246 0.1623 -0.1624 0.1623 -0.3246 0.1623 -0.1623 0.1623 -0.1623 0.1623 -0.3246 0.1623 -0.1623 0.1623 -0.1623 0.1624 -0.3247 0.1623 -0.1623 0.1623 -0.1623 0.1623 -0.1623 0.1623 -0.3246 0.1623 -0.1623 0.1623 -0.1624 0.1623 -0.1623 0.1624 -0.3246 0.1623 -0.1623 0.1623 -0.1623 0.1623 -0.1623 0.1623 -0.3246 0.1623 -0.1624 0.1623 -0.1623 0.1623 -0.1623 0.1623 -0.1623 0.1624 -0.3246 0.1623 -0.1623 0.1623 -0.1623 0.1623 -0.1624 0.1623 -0.1623 0.1623 -0.1623 0.1623 -0.1623 0.1623 -0.1623 0.1624 -0.3246 0.1623 -0.1623 0.1623 -0.1623 0.1623 -0.1624 0.1623 -0.1623 0.1623 -0.1623 0.1623 -0.1623 0.1623 -0.1623 0.1623 -0.1623 0.1624 -0.1623 0.1623 -0.1623 0.1623 -0.1623 0.1623 -0.1624 0.1623 -0.1623 0.1623 -0.1623 0.1623 -0.3246 0.1623 -0.1623 0.1623 -0.1623 0.1624 -0.1623 0.1623 -0.1624 0.1623 -0.1623 0.1623 -0.1623 0.3246 -0.1623 0.1623 -0.1623 0.1623 -0.1623 0.1624 -0.1623 0.1623 -0.1623 0.1623 -0.1623 0.1623 -0.1624 0.1623 -0.1623 0.1623 -0.1623 0.1623 -0.1623 0.1623 -0.1623 0.1623 -0.1623 0.1624 -0.1623 0.1623 -0.1623 0.1623 -0.1623 0.1623 -0.1624 0.3246 -0.1623 0.1623 -0.1623 0.1623 -0.1623 0.1623 -0.1623 0.1624 -0.1623 0.1623 -0.1623 0.1623 -0.1623 0.3246 -0.1624 0.1623 -0.1623 0.1623 -0.1623 0.1623 -0.1623 0.1624 -0.1623 0.3246 -0.1623 0.1623 -0.1623 0.1623 -0.1623 0.1623 -0.1623 0.3246 -0.1624 0.1623 -0.1623 0.1624 -0.1623 0.1623 -0.1623 0.3246 -0.1623 0.1623 -0.1623 0.1623 -0.1623 0.1623 -0.1623 0.3247 -0.1624 0.1623 -0.1623 0.1623 -0.1623 0.3246 -0.1623 0.1623 -0.1623 0.1623 -0.1623 0.3246 -0.1623 0.1624 -0.1623 0.3246 -0.1623 0.1623 -0.1624 0.1623 -0.1623 0.3246 -0.1623 0.1623 -0.1623 0.3247 -0.1623 0.1623 -0.1623 0.3246 -0.1623 0.1623 -0.1623 0.1623 -0.1623 0.3246 -0.1624 0.1624 -0.1623 0.3246 -0.1623 0.3246 -0.1623 0.1623 -0.1623 0.3246 -0.1623 0.1623 -0.1623 0.3247 -0.1623 0.1623 -0.1624 0.3246 -0.1623 0.3246 -0.1623 0.1623 -0.1623 0.3247 -0.1623 0.3246 -0.1623 0.1623 -0.1623 0.3246 -0.1623 0.3246 -0.1623 0.1624 -0.1624 0.3246 -0.1623 0.3246 -0.1623 0.3246 -0.1623 0.1623 -0.1623 0.3247 -0.1623 0.3246 -0.1623 0.3246 -0.1623 0.3246 -0.1623 0.3247 -0.1624 0.3246 -0.1623 0.3246 -0.1623 0.3246 -0.1623 0.3246 -0.1623 0.3247 -0.1623 0.3246 -0.1623 0.3246 -0.1623 0.3246 -0.1624 0.3247 -0.1623 0.3246 -0.1623 0.3246 -0.1623 0.3246 -0.1623 0.3247 -0.1623 0.4869 -0.1623 0.3246 -0.1623 0.3246 -0.1623 0.487 -0.1624 0.3246 -0.1623 0.3246 -0.1623 0.487 -0.1623 0.3246 -0.1623 0.4869 -0.1623 0.3246 -0.1623 0.487 -0.1623 0.4869 -0.1624 0.3246 -0.1623 0.487 -0.1623 0.4869 -0.1623 0.4869 -0.1623 0.487 -0.1623 0.4869 -0.1623 0.4869 -0.1623 0.487 -0.1623 0.4869 -0.1624 0.4869 -0.1623 0.487 -0.1623 0.6492 -0.1623 0.487 -0.1623 0.6492 -0.1623 0.6492 -0.1623 0.6493 -0.1623 0.6492 -0.1623 0.6493 -0.1624 0.6492 -0.1623 0.8116 -0.1623 0.6492 -0.1623 0.9739 -0.1623 0.8116 -0.1623 0.9738 -0.1623 0.9739 -0.1623 0.9739 -0.1624 1.2985 -0.1623 1.2985 -0.1623 1.6231 -0.1623 2.2723 0 10.0634 0.1623 2.11 0.1623 1.6231 0.1623 1.4608 0.1624 1.1362 0.1623 1.1362 0.1623 0.9739 0.1623 0.9738 0.1623 0.8116 0.1623 0.8115 0.1623 0.8116 0.1623 0.6493 0.1624 0.8115 0.1623 0.6493 0.1623 0.6492 0.1623 0.6493 0.1623 0.4869 0.1623 0.6492 0.1623 0.6493 0.1623 0.4869 0.1623 0.4869 0.1624 0.6493 0.1623 0.4869 0.1623 0.487 0.1623 0.4869 0.1623 0.4869 0.1623 0.487 0.1623 0.4869 0.1623 0.4869 0.1623 0.3247 0.1624 0.4869 0.1623 0.4869 0.1623 0.3247 0.1623 0.4869 0.1623 0.3246 0.1623 0.4869 0.1623 0.3247 0.1623 0.4869 0.1624 0.3246 0.1623 0.3247 0.1623 0.4869 0.1623 0.3246 0.1623 0.3246 0.1623 0.3247 0.1623 0.4869 0.1623 0.3246 0.1623 0.3246 0.1624 0.3247 0.1623 0.3246 0.1623 0.3246 0.1623 0.3246 0.1623 0.3247 0.1623 0.3246 0.1623 0.3246 0.1623 0.3246 0.1624 0.3246 0.1623 0.3247 0.1623 0.3246 0.1623 0.3246 0.1623 0.1623 0.1623 0.3247 0.1623 0.3246 0.1623 0.3246 0.1623 0.3246 0.1624 0.1623 0.1623 0.3247 0.1623 0.3246 0.1623 0.1623 0.1623 0.3246 0.1623 0.3246 0.1623 0.3247 0.1623 0.1623 0.1623 0.3246 0.1624 0.1623 0.1623 0.3246 0.1623 0.3247 0.1623 0.1623 0.1623 0.3246 0.1623 0.1623 0.1623 0.3246 0.1623 0.1623 0.1624 0.3247 0.1623 0.1623 0.1623 0.3246 0.1623 0.1623 0.1623 0.3246 0.1623 0.1623 0.1623 0.3247 0.1623 0.1623 0.1623 0.1623 0.1624 0.3246 0.1623 0.1623 0.1623 0.3246 0.1623 0.1624 0.1623 0.1623 0.1623 0.3246 0.1623 0.1623 0.1623 0.1623 0.1623 0.3246 0.1624 0.1623 0.1623 0.1624 0.1623 0.3246 0.1623 0.1623 0.1623 0.1623 0.1623 0.1623 0.1623 0.3246 0.1623 0.1624 0.1624 0.1623 0.1623 0.1623 0.1623 0.3246 0.1623 0.1623 0.1623 0.1623 0.1623 0.1623 0.1623 0.3247 0.1623 0.1623 0.1623 0.1623 0.1624 0.1623 0.1623 0.1623 0.1623 0.1623 0.1623 0.3246 0.1623 0.1624 0.1623 0.1623 0.1623 0.1623 0.1623 0.1623 0.1624 0.1623 0.1623 0.1623 0.1623 0.3246 0.1623 0.1623 0.1623 0.1624 0.1623 0.1623 0.1623 0.1623 0.1623 0.1623 0.1623 0.1623 0.1624 0.1623 0.1623 0.1623 0.1623 0.1623 0.1623 0.1623 0.1623 0.1624 0.1623 0.1623 0.1623 0.1623 0.1623 0.1623 0.1623 0.1623 0.1624 0.1623 0.1623 0.1623 0.1623 0.1623 0.1623 0.1624 0.1623 0.1623 0.1623 0.1623 0.1623 0.1623 0.1623 0.1623 0.1624 0.1623 0.1623 0.1623 0.1623 0.1623 0.1623 0.1623 0.1623 0.1624 0.1623 0.1623 0.1623 0.1623 0.1623 0.1623 0.1623 0.1623 0.1624 0.1623 0.1623 0.1623 0.3246 0.1623 0.1623 0.1623 0.1623 0.1624 0.1623 0.1623 0.1623 0.1623 0.1623 0.1623 0.1624 0.1623 0.3246 0.1623 0.1623 0.1623 0.1623 0.1623 0.1623 0.1624 0.1623 0.1623 0.1623 0.1623 0.3247 0.1623 0.1623 0.1623 0.1623 0.1623 0.1623 0.1623 0.3246 0.1623 0.1623 0.1623 0.1623 0.1624 0.1624 0.1623 0.1623 0.1623 0.3246 0.1623 0.1623 0.1623 0.1623 0.1623 0.3246 0.1623 0.1624 0.1623 0.1623 0.1624 0.3246 0.1623 0.1623 0.1623 0.1623 0.1623 0.3246 0.1623 0.1623 0.1623 0.1624 0.1623 0.3246 0.1623 0.1623 0.1623 0.3246 0.1624 0.1623 0.1623 0.1623 0.1623 0.3247 0.1623 0.1623 0.1623 0.3246 0.1623 0.1623 0.1623 0.3246 0.1623 0.1623 0.1623 0.3247 0.1624 0.1623 0.1623 0.3246 0.1623 0.1623 0.1623 0.3246 0.1623 0.1623 0.1623 0.3247 0.1623 0.3246 0.1623 0.1623 0.1624 0.3246 0.1623 0.1623 0.1623 0.3247 0.1623 0.3246 0.1623 0.1623 0.1623 0.3246 0.1623 0.3246 0.1623 0.3247 0.1623 0.1623 0.1624 0.3246 0.1623 0.3246 0.1623 0.3246 0.1623 0.1624 0.1623 0.3246 0.1623 0.3246 0.1623 0.3246 0.1623 0.3247 0.1623 0.3246 0.1624 0.3246 0.1623 0.3246 0.1623 0.3246 0.1623 0.3247 0.1623 0.3246 0.1623 0.3246 0.1623 0.3246 0.1623 0.3247 0.1624 0.3246 0.1623 0.3246 0.1623 0.3246 0.1623 0.487 0.1623 0.3246 0.1623 0.3246 0.1623 0.3246 0.1623 0.487 0.1623 0.3246 0.1624 0.4869 0.1623 0.3247 0.1623 0.3246 0.1623 0.4869 0.1623 0.3246 0.1623 0.487 0.1623 0.4869 0.1623 0.3246 0.1624 0.487 0.1623 0.4869 0.1623 0.4869 0.1623 0.487 0.1623 0.4869 0.1623 0.4869 0.1623 0.487 0.1623 0.4869 0.1623 0.4869 0.1624 0.6493 0.1623 0.4869 0.1623 0.6493 0.1623 0.4869 0.1623 0.6492 0.1623 0.6493 0.1623 0.6492 0.1623 0.6493 0.1623 0.6492 0.1624 0.8116 0.1623 0.6492 0.1623 0.9739 0.1623 0.8116 0.1623 0.9738 0.1623 0.9739 0.1623 0.9739 0.1623 1.1362 0.1624 1.4608 0.1623 1.6231 0.1623 2.11 0.1623 4.2201 0.1623 1.9478 0 4.2201 -0.1623 2.11 -0.1623 1.6231 -0.1623 1.4608 -0.1623 1.1362 -0.1624 1.1362 -0.1623 0.9739 -0.1623 0.8115 -0.1623 0.9739 -0.1623 0.8116 -0.1623 0.6492 -0.1623 0.8116 -0.1623 0.6492 -0.1624 0.6493 -0.1623 0.8115 -0.1623 0.487 -0.1623 0.6492 -0.1623 0.6492 -0.1623 0.487 -0.1623 0.6492 -0.1623 0.487 -0.1623 0.4869 -0.1624 0.4869 -0.1623 0.6493 -0.1623 0.4869 -0.1623 0.4869 -0.1623 0.3247 -0.1623 0.4869 -0.1623 0.4869 -0.1623 0.487 -0.1623 0.4869 -0.1624 0.3246 -0.1623 0.487 -0.1623 0.3246 -0.1623 0.4869 -0.1623 0.3246 -0.1623 0.487 -0.1623 0.3246 -0.1623 0.4869 -0.1624 0.3247 -0.1623 0.3246 -0.1623 0.3246 -0.1623 0.4869 -0.1623 0.3247 -0.1623 0.3246 -0.1623 0.3246 -0.1623 0.3246 -0.1623 0.3247 -0.1624 0.3246 -0.1623 0.3246 -0.1623 0.3246 -0.1623 0.3247 -0.1623 0.3246 -0.1623 0.3246 -0.1623 0.3246 -0.1623 0.3246 -0.1624 0.3247 -0.1623 0.3246 -0.1623 0.3246 -0.1623 0.3246 -0.1623 0.1624 -0.1623 0.3246 -0.1623 0.3246 -0.1623 0.3246 -0.1623 0.3246 -0.1624 0.1624 -0.1623 0.3246 -0.1623 0.3246 -0.1623 0.1623 -0.1623 0.3246 -0.1623 0.3247 -0.1623 0.1623 -0.1623 0.3246 -0.1623 0.3246 -0.1624 0.1623 -0.1623 0.3247 -0.1623 0.1623 -0.1623 0.3246 -0.1623 0.1623 -0.1623 0.3246 -0.1623 0.1623 -0.1623 0.3247 -0.1624 0.1623 -0.1623 0.3246 -0.1623 0.1623 -0.1623 0.3246 -0.1623 0.1623 -0.1623 0.3247 -0.1623 0.1623 -0.1623 0.3246 -0.1623 0.1623 -0.1624 0.1623 -0.1623 0.3246 -0.1623 0.1624 -0.1623 0.1623 -0.1623 0.3246 -0.1623 0.1623 -0.1623 0.3246 -0.1623 0.1623 -0.1623 0.1623 -0.1624 0.1624 -0.1623 0.3246 -0.1623 0.1623 -0.1623 0.1623 -0.1623 0.3246 -0.1623 0.1623 -0.1623 0.1624 -0.1623 0.1623 -0.1624 0.3246 -0.1623 0.1623 -0.1623 0.1623 -0.1623 0.1623 -0.1623 0.3246 -0.1623 0.1624 -0.1623 0.1623 -0.1623 0.1623 -0.1623 0.1623 -0.1624 0.1623 -0.1623 0.3246 -0.1623 0.1623 -0.1623 0.1624 -0.1623 0.1623 -0.1623 0.1623 -0.1623 0.1623 -0.1623 0.1623 -0.1624 0.3246 -0.1623 0.1623 -0.1623 0.1623 -0.1623 0.1624 -0.1623 0.1623 -0.1623 0.1623 -0.1623 0.1623 -0.1623 0.1623 -0.1623 0.1623 -0.1624 0.1623 -0.1623 0.1623 -0.1623 0.1623 -0.1623 0.1624 -0.1623 0.1623 -0.1623 0.1623 -0.1623 0.1623 -0.1623 0.1623 -0.1623 0.1623 -0.1624 0.1623 -0.1623 0.1623 -0.1623 0.1624 -0.1623 0.1623 -0.1623 0.1623 -0.1623 0.1623 -0.1623 0.1623 -0.1623 0.1623 -0.1624 0.1623 -0.1623 0.1623 -0.1623 0.1623 -0.1623 0.1624 -0.1623 0.1623 -0.1623 0.1623 -0.1623 0.1623 -0.1623 0.1623 -0.1623 0.1623 -0.1624 0.1623 -0.1623 0.1623 -0.3246 0.1623 -0.1623 0.1624 -0.1623 0.1623 -0.1623 0.1623 -0.1623 0.1623 -0.1623 0.1623 -0.1624 0.1623 -0.1623 0.1623 -0.3246 0.1623 -0.1623 0.1624 -0.1623 0.1623 -0.1623 0.1623 -0.1623 0.1623 -0.3247 0.1623 -0.1623 0.1623 -0.1623 0.1623 -0.1623 0.1623 -0.1623 0.1623 -0.3246 0.1624 -0.1623 0.1623 -0.1624 0.1623 -0.1623 0.1623 -0.3246 0.1623 -0.1623 0.1623 -0.1623 0.1623 -0.3246 0.1623 -0.1624 0.1624 -0.1623 0.1623 -0.3246 0.1623 -0.1623 0.1623 -0.1623 0.1623 -0.3246 0.1623 -0.1623 0.1623 -0.1624 0.1623 -0.3246 0.1623 -0.1623 0.1624 -0.3246 0.1623 -0.1623 0.1623 -0.1623 0.1623 -0.3247 0.1623 -0.1623 0.1623 -0.3246 0.1623 -0.1623 0.1623 -0.3246 0.1623 -0.1623 0.1624 -0.3247 0.1623 -0.1623 0.1623 -0.3246 0.1623 -0.1623 0.1623 -0.3246 0.1623 -0.1623 0.1623 -0.3247 0.1623 -0.3246 0.1624 -0.1623 0.1623 -0.3246 0.1623 -0.1623 0.1623 -0.3247 0.1623 -0.3246 0.1623 -0.1623 0.1623 -0.3246 0.1623 -0.3246 0.1623 -0.3247 0.1624 -0.1623 0.1623 -0.3246 0.1623 -0.3246 0.1623 -0.3246 0.1623 -0.3247 0.1623 -0.1623 0.1623 -0.3246 0.1623 -0.3246 0.1623 -0.3247 0.1624 -0.3246 0.1623 -0.3246 0.1623 -0.3246 0.1623 -0.3246 0.1623 -0.3247 0.1623 -0.3246 0.1623 -0.3246 0.1623 -0.3246 0.1624 -0.3247 0.1623 -0.3246 0.1623 -0.3246 0.1623 -0.3246 0.1623 -0.487 0.1623 -0.3246 0.1623 -0.3246 0.1623 -0.4869 0.1623 -0.3247 0.1624 -0.3246 0.1623 -0.4869 0.1623 -0.3247 0.1623 -0.4869 0.1623 -0.3246 0.1623 -0.4869 0.1623 -0.3247 0.1623 -0.4869 0.1624 -0.4869 0.1623 -0.3247 0.1623 -0.4869 0.1623 -0.4869 0.1623 -0.487 0.1623 -0.4869 0.1623 -0.4869 0.1623 -0.487 0.1623 -0.4869 0.1624 -0.4869 0.1623 -0.6493 0.1623 -0.4869 0.1623 -0.6493 0.1623 -0.4869 0.1623 -0.6492 0.1623 -0.6493 0.1623 -0.6492 0.1623 -0.6493 0.1624 -0.8115 0.1623 -0.6493 0.1623 -0.8116 0.1623 -0.8115 0.1623 -0.8116 0.1623 -0.9738 0.1623 -0.9739 0.1623 -1.1362 0.1624 -1.1362 0.1623 -1.4608 0.1623 -1.6231 0.1623 -2.11 0 -10.0634 -0.1623 -2.2723 -0.1623 -1.6231 -0.1623 -1.2985 -0.1624 -1.2985 -0.1623 -0.9739 -0.1623 -0.9739 -0.1623 -0.9738 -0.1623 -0.8116 -0.1623 -0.9739 -0.1623 -0.6492 -0.1623 -0.8116 -0.1624 -0.6492 -0.1623 -0.6493 -0.1623 -0.6492 -0.1623 -0.6493 -0.1623 -0.6492 -0.1623 -0.6492 -0.1623 -0.487 -0.1623 -0.4869 -0.1623 -0.6493 -0.1624 -0.4869 -0.1623 -0.4869 -0.1623 -0.487 -0.1623 -0.4869 -0.1623 -0.6492 -0.1623 -0.3247 -0.1623 -0.4869 -0.1623 -0.4869 -0.1623 -0.487 -0.1624 -0.3246 -0.1623 -0.4869 -0.1623 -0.487 -0.1623 -0.3246 -0.1623 -0.4869 -0.1623 -0.3246 -0.1623 -0.487 -0.1623 -0.3246 -0.1624 -0.4869 -0.1623 -0.3247 -0.1623 -0.3246 -0.1623 -0.3246 -0.1623 -0.4869 -0.1623 -0.3247 -0.1623 -0.3246 -0.1623 -0.3246 -0.1623 -0.3246 -0.1624 -0.3247 -0.1623 -0.3246 -0.1623 -0.3246 -0.1623 -0.4869 -0.1623 -0.3247 -0.1623 -0.3246 -0.1623 -0.3246 -0.1623 -0.1623 -0.1624 -0.3246 -0.1623 -0.3247 -0.1623 -0.3246 -0.1623 -0.3246 -0.1623 -0.3246 -0.1623 -0.3247 -0.1623 -0.1623 -0.1623 -0.3246 -0.1623 -0.3246 -0.1624 -0.3246 -0.1623 -0.1624 -0.1623 -0.3246 -0.1623 -0.3246 -0.1623 -0.1623 -0.1623 -0.3246 -0.1623 -0.3247 -0.1623 -0.1623 -0.1623 -0.3246 -0.1624 -0.3246 -0.1623 -0.1623 -0.1623 -0.3247 -0.1623 -0.1623 -0.1623 -0.3246 -0.1623 -0.3246 -0.1623 -0.1623 -0.1623 -0.3246 -0.1624 -0.1624 -0.1623 -0.3246 -0.1623 -0.1623 -0.1623 -0.3246 -0.1623 -0.1623 -0.1623 -0.1623 -0.1623 -0.3247 -0.1623 -0.1623 -0.1623 -0.3246 -0.1624 -0.1623 -0.1623 -0.3246 -0.1623 -0.1623 -0.1623 -0.1624 -0.1623 -0.3246 -0.1623 -0.1623 -0.1623 -0.1623 -0.1623 -0.3246 -0.1623 -0.1623 -0.1624 -0.1623 -0.1623 -0.3247 -0.1623 -0.1623 -0.1623 -0.1623 -0.1623 -0.3246 -0.1623 -0.1623 -0.1623 -0.1623 -0.1623 -0.1624 -0.1624 -0.3246 -0.1623 -0.1623 -0.1623 -0.1623 -0.1623 -0.1623 -0.1623 -0.1623 -0.1623 -0.3246 -0.1623 -0.1624 -0.1623 -0.1623 -0.1623 -0.1623 -0.1624 -0.1623 -0.1623 -0.3246 -0.1623 -0.1623 -0.1623 -0.1623 -0.1623 -0.1624 -0.1623 -0.1623 -0.1623 -0.1623 -0.1623 -0.1623 -0.1624 -0.3246 -0.1623 -0.1623 -0.1623 -0.1623 -0.1623 -0.1623 -0.1623 -0.1624 -0.1623 -0.1623 -0.1623 -0.1623 -0.1623 -0.1623 -0.1623 -0.1623 -0.1624 -0.1623 -0.1623 -0.1623 -0.1623 -0.1623 -0.1623 -0.1623 -0.1623 -0.1624 -0.1623 -0.3246 -0.1623 -0.1623 -0.1623 -0.1623 -0.1623 -0.1623 -0.1624 -0.1623 -0.1623 -0.1623 -0.1623 -0.1624 -0.1623 -0.1623 -0.1623 -0.1623 -0.1623 -0.1623 -0.3246 -0.1623 -0.1624 -0.1623 -0.1623 -0.1623 -0.1623 -0.1623 -0.1623 -0.1623 -0.1623 -0.1624 -0.1623 -0.1623 -0.1623 -0.1623 -0.1623 -0.1623 -0.1623 -0.1623 -0.1624 -0.1623 -0.1623 -0.1623 -0.1623 -0.1623 -0.1623 -0.1623 -0.3246 -0.1624 -0.1623 -0.1623 -0.1623 -0.1623 -0.1623 -0.1623 -0.1624 -0.1623 -0.1623 -0.1623 -0.1623 -0.1623 -0.3246 -0.1623 -0.1623 -0.1624 -0.1623 -0.1623 -0.1623 -0.1623 -0.1624 -0.1623 -0.3246 -0.1623 -0.1623 -0.1623 -0.1623 -0.1623 -0.1623 -0.1623 -0.1623 -0.1623 -0.3246 -0.1624 -0.1624 -0.1623 -0.1623 -0.1623 -0.1623 -0.1623 -0.3246 -0.1623 -0.1623 -0.1623 -0.1623 -0.1623 -0.3247 -0.1623 -0.1623 -0.1624 -0.1623 -0.1623 -0.3246 -0.1623 -0.1623 -0.1623 -0.1623 -0.1623 -0.3246 -0.1623 -0.1624 -0.1623 -0.1623 -0.1623 -0.3246 -0.1623 -0.1623 -0.1624 -0.3246 -0.1623 -0.1623 -0.1623 -0.3247 -0.1623 -0.1623 -0.1623 -0.1623 -0.1623 -0.3246 -0.1623 -0.1623 -0.1623 -0.3246 -0.1623 -0.1624 -0.1624 -0.3246 -0.1623 -0.1623 -0.1623 -0.3246 -0.1623 -0.1623 -0.1623 -0.3246 -0.1623 -0.3247 -0.1623 -0.1623 -0.1623 -0.3246 -0.1624 -0.1623 -0.1623 -0.3246 -0.1623 -0.3247 -0.1623 -0.1623 -0.1623 -0.3246 -0.1623 -0.3246 -0.1623 -0.3246 -0.1623 -0.1624 -0.1623 -0.3246 -0.1624 -0.3246 -0.1623 -0.3246 -0.1623 -0.1623 -0.1623 -0.3247 -0.1623 -0.3246 -0.1623 -0.3246 -0.1623 -0.3246 -0.1623 -0.3247 -0.1623 -0.3246 -0.1624 -0.1623 -0.1623 -0.3246 -0.1623 -0.3246 -0.1623 -0.3247 -0.1623 -0.3246 -0.1623 -0.3246 -0.1623 -0.3246 -0.1623 -0.487 -0.1624 -0.3246 -0.1623 -0.3246 -0.1623 -0.3246 -0.1623 -0.3247 -0.1623 -0.3246 -0.1623 -0.4869 -0.1623 -0.3246 -0.1623 -0.3247 -0.1623 -0.4869 -0.1624 -0.3246 -0.1623 -0.487 -0.1623 -0.3246 -0.1623 -0.4869 -0.1623 -0.3246 -0.1623 -0.487 -0.1623 -0.3246 -0.1623 -0.4869 -0.1624 -0.487 -0.1623 -0.4869 -0.1623 -0.3246 -0.1623 -0.487 -0.1623 -0.4869 -0.1623 -0.4869 -0.1623 -0.487 -0.1623 -0.6492 -0.1623 -0.4869 -0.1624 -0.487 -0.1623 -0.6492 -0.1623 -0.487 -0.1623 -0.6492 -0.1623 -0.6492 -0.1623 -0.487 -0.1623 -0.6492 -0.1623 -0.8116 -0.1623 -0.6492 -0.1624 -0.6493 -0.1623 -0.8115 -0.1623 -0.8116 -0.1623 -0.8116 -0.1623 -0.9738 -0.1623 -0.9739 -0.1623 -1.1362 -0.1623 -1.1362 -0.1624 -1.4608 -0.1623 -1.4608 -0.1623 -2.11 -0.1623 -4.3824 -0.1623 -1.9478 0 -4.2201 0.1623z"/>
 </g>
</svg>
