<?xml version="1.0" encoding="UTF-8"?>
<!DOCTYPE svg PUBLIC "-//W3C//DTD SVG 1.1//EN" "http://www.w3.org/Graphics/SVG/1.1/DTD/svg11.dtd">
<!-- Creator: CorelDRAW -->
<svg xmlns="http://www.w3.org/2000/svg" xml:space="preserve" width="3.4in" height="1.1in" style="shape-rendering:geometricPrecision; text-rendering:geometricPrecision; image-rendering:optimizeQuality; fill-rule:evenodd; clip-rule:evenodd"
viewBox="0 0 3.4 1.1"
 xmlns:xlink="http://www.w3.org/1999/xlink">
 <defs>
  <style type="text/css">
   <![CDATA[
    .str0 {stroke:#DEDEDD;stroke-width:0.0555551}
    .fil1 {fill:#F8C300}
    .fil0 {fill:white}
    .fil2 {fill:#AAA9A9;fill-rule:nonzero}
   ]]>
  </style>
 </defs>
 <g id="Layer_x0020_1">
  <metadata id="CorelCorpID_0Corel-Layer"/>
  <path class="fil0 str0" d="M0.300724 0.0408543l2.79856 0c0.136094,0 0.247449,0.0924764 0.247449,0.228134l0 0.542705c0,0.135669 -0.111776,0.247449 -0.247449,0.247449l-2.79856 0c-0.135657,0 -0.247449,-0.111354 -0.247449,-0.247449l0 -0.523386c0,-0.136098 0.111354,-0.247453 0.247449,-0.247453z"/>
  <path class="fil1" d="M0.696051 0.215972c0.209831,0 0.38,0.14535 0.38,0.324583 0,0.12322 -0.0804331,0.230429 -0.198886,0.285402 -0.0260787,0.0121024 0.018126,0.0568583 0.0697362,0.10837 -0.0312047,0.00708268 -0.217039,-0.069189 -0.25085,-0.069189 -0.209831,0 -0.38,-0.14535 -0.38,-0.324583 0,-0.179232 0.170169,-0.324583 0.38,-0.324583z"/>
  <path class="fil2" d="M1.28328 0.571445c-0.0323543,-0.00933071 -0.0559173,-0.0207441 -0.070685,-0.0342992 -0.0147717,-0.0135591 -0.0221535,-0.0303425 -0.0221535,-0.0502795 0,-0.0225551 0.00906299,-0.0412205 0.0270512,-0.0559213 0.0180591,-0.0147677 0.0414882,-0.0221535 0.0703543,-0.0221535 0.0196693,0 0.037189,0.00382677 0.052563,0.0114134 0.015437,0.00758661 0.0273228,0.0180591 0.0357795,0.0314843 0.00845669,0.0133583 0.012689,0.0279921 0.012689,0.0438346l-0.0379291 0c0,-0.0173189 -0.00550394,-0.030878 -0.0165157,-0.040815 -0.0110079,-0.00986614 -0.0265827,-0.0148346 -0.0465866,-0.0148346 -0.0186614,0 -0.0331614,0.00409449 -0.0435669,0.0122835 -0.0104724,0.00819291 -0.0156417,0.0195354 -0.0156417,0.0341024 0,0.0116811 0.00490157,0.0215512 0.0148346,0.0296063 0.00987008,0.00805512 0.0267165,0.0154409 0.0505512,0.0221535 0.0237638,0.00664567 0.0424252,0.0140236 0.0558504,0.0220787 0.0134252,0.00805906 0.0234291,0.0174567 0.029874,0.0282638 0.00651181,0.0107402 0.00973228,0.0233622 0.00973228,0.0379291 0,0.0232244 -0.00906299,0.0418189 -0.027122,0.0557835 -0.018122,0.0139646 -0.0422913,0.0209449 -0.0725669,0.0209449 -0.0196693,0 -0.038063,-0.00375984 -0.0550472,-0.0112795 -0.0170472,-0.00758268 -0.0302047,-0.0179213 -0.0394724,-0.0310118 -0.00926378,-0.0130906 -0.0138268,-0.0279921 -0.0138268,-0.0446417l0.0379291 0c0,0.0173189 0.00637795,0.0309449 0.0191969,0.0410157 0.0127559,0.0100039 0.0298071,0.0150394 0.0512205,0.0150394 0.019937,0 0.0351772,-0.00409843 0.0457835,-0.0122205 0.0106732,-0.00812205 0.0159764,-0.0191969 0.0159764,-0.0332283 0,-0.0140315 -0.00490157,-0.0248386 -0.0147677,-0.0325591 -0.00979921,-0.00765354 -0.0276575,-0.0152362 -0.0535039,-0.022689zm0.23724 0.131575c-0.0288661,0 -0.0523622,-0.00946457 -0.0704173,-0.0283976 -0.018126,-0.0189961 -0.027122,-0.0443031 -0.027122,-0.0760551l0 -0.0067126c0,-0.0210787 0.00402756,-0.0399449 0.0120827,-0.0565197 0.00805512,-0.0165827 0.0193346,-0.0296063 0.0338346,-0.038937 0.0145,-0.00939764 0.0301417,-0.0140984 0.0470591,-0.0140984 0.0276575,0 0.0492047,0.00912992 0.0645118,0.0273228 0.0153701,0.0182598 0.0230236,0.0443031 0.0230236,0.0782717l0 0.0151693 -0.144126 0c0.000468504,0.0210118 0.00664567,0.0379961 0.0183937,0.0508858 0.0116772,0.0129567 0.0266496,0.0193976 0.0447087,0.0193976 0.0128189,0 0.0237638,-0.00261811 0.032622,-0.00785039 0.00892913,-0.00530709 0.0167165,-0.0122205 0.0234291,-0.020878l0.0222205 0.0173189c-0.0178583,0.0273898 -0.0445748,0.0410827 -0.0802205,0.0410827zm-0.00456299 -0.190846c-0.0146378,0 -0.0269882,0.00537008 -0.0369213,0.0160433 -0.0100039,0.0106732 -0.0161811,0.0257087 -0.0185315,0.0449724l0.106602 0 0 -0.00275197c-0.00107087,-0.0185276 -0.00603937,-0.0328228 -0.0149685,-0.0430236 -0.0088622,-0.0101378 -0.0209449,-0.0152402 -0.0361811,-0.0152402zm0.164063 -0.0259134l0.00120866 0.0267205c0.0162441,-0.0204764 0.0374567,-0.0306811 0.0637047,-0.0306811 0.0449803,0 0.0676693,0.025378 0.0680709,0.076122l0 0.140638 -0.0363858 0 0 -0.140839c-0.000133858,-0.0153701 -0.00368898,-0.0267126 -0.0105394,-0.0340315 -0.00691339,-0.00731496 -0.0175866,-0.0110079 -0.0321535,-0.0110079 -0.011815,0 -0.0221535,0.00315354 -0.0310827,0.00946457 -0.0089252,0.00624409 -0.0158425,0.0145 -0.020874,0.0247677l0 0.151646 -0.0363858 0 0 -0.212799 0.034437 0zm0.178969 0.104654c0,-0.0326929 0.0077874,-0.058937 0.0232283,-0.0788071 0.0155079,-0.0198701 0.0357126,-0.0298071 0.060752,-0.0298071 0.0249724,0 0.0446417,0.00852756 0.0592047,0.0255787l0 -0.110898 0.0363858 0 0 0.302079 -0.0334331 0 -0.00174409 -0.0228228c-0.0145669,0.0178543 -0.0348386,0.0267835 -0.060748,0.0267835 -0.0247047,0 -0.0447756,-0.0100709 -0.0602835,-0.0302756 -0.0155748,-0.0202047 -0.0233622,-0.0465866 -0.0233622,-0.0790787l0 -0.00275197zm0.0363858 0.00409449c0,0.0241654 0.00503543,0.0430315 0.0149685,0.0566575 0.0100039,0.013626 0.0237638,0.0204764 0.0412874,0.0204764 0.0230906,0 0.039937,-0.0103386 0.0505433,-0.0310827l0 -0.0978031c-0.010874,-0.0200748 -0.0275866,-0.0300748 -0.0501417,-0.0300748 -0.0177913,0 -0.031685,0.00691339 -0.041689,0.0206732 -0.00993307,0.0137598 -0.0149685,0.0341654 -0.0149685,0.0611535zm0.389417 -0.023563c-0.0323543,-0.00933071 -0.0559173,-0.0207441 -0.070685,-0.0342992 -0.0147717,-0.0135591 -0.0221535,-0.0303425 -0.0221535,-0.0502795 0,-0.0225551 0.00906299,-0.0412205 0.0270512,-0.0559213 0.0180591,-0.0147677 0.0414882,-0.0221535 0.0703543,-0.0221535 0.0196693,0 0.037189,0.00382677 0.052563,0.0114134 0.015437,0.00758661 0.0273228,0.0180591 0.0357795,0.0314843 0.00845669,0.0133583 0.012689,0.0279921 0.012689,0.0438346l-0.0379291 0c0,-0.0173189 -0.00550394,-0.030878 -0.0165157,-0.040815 -0.0110079,-0.00986614 -0.0265827,-0.0148346 -0.0465866,-0.0148346 -0.0186614,0 -0.0331614,0.00409449 -0.0435669,0.0122835 -0.0104724,0.00819291 -0.0156417,0.0195354 -0.0156417,0.0341024 0,0.0116811 0.00490157,0.0215512 0.0148346,0.0296063 0.00987008,0.00805512 0.0267165,0.0154409 0.0505512,0.0221535 0.0237638,0.00664567 0.0424252,0.0140236 0.0558504,0.0220787 0.0134252,0.00805906 0.0234291,0.0174567 0.029874,0.0282638 0.00651181,0.0107402 0.00973228,0.0233622 0.00973228,0.0379291 0,0.0232244 -0.00906299,0.0418189 -0.027122,0.0557835 -0.018122,0.0139646 -0.0422913,0.0209449 -0.0725669,0.0209449 -0.0196693,0 -0.038063,-0.00375984 -0.0550472,-0.0112795 -0.0170472,-0.00758268 -0.0302047,-0.0179213 -0.0394724,-0.0310118 -0.00926378,-0.0130906 -0.0138268,-0.0279921 -0.0138268,-0.0446417l0.0379291 0c0,0.0173189 0.00637795,0.0309449 0.0191969,0.0410157 0.0127559,0.0100039 0.0298071,0.0150394 0.0512205,0.0150394 0.019937,0 0.0351772,-0.00409843 0.0457835,-0.0122205 0.0106732,-0.00812205 0.0159764,-0.0191969 0.0159764,-0.0332283 0,-0.0140315 -0.00490157,-0.0248386 -0.0147677,-0.0325591 -0.00979921,-0.00765354 -0.0276575,-0.0152362 -0.0535039,-0.022689zm0.203406 -0.15876l0.0935787 0.233677 0.0936496 -0.233677 0.048937 0 0 0.286374 -0.0377283 0 0 -0.111504 0.00349213 -0.120358 -0.0939843 0.231862 -0.0289331 0 -0.0937795 -0.231327 0.00375984 0.119823 0 0.111504 -0.0377953 0 0 -0.286374 0.0488031 0zm0.387205 0.15876c-0.0323543,-0.00933071 -0.0559173,-0.0207441 -0.070685,-0.0342992 -0.0147717,-0.0135591 -0.0221535,-0.0303425 -0.0221535,-0.0502795 0,-0.0225551 0.00906299,-0.0412205 0.0270512,-0.0559213 0.0180591,-0.0147677 0.0414882,-0.0221535 0.0703543,-0.0221535 0.0196693,0 0.037189,0.00382677 0.052563,0.0114134 0.015437,0.00758661 0.0273228,0.0180591 0.0357795,0.0314843 0.00845669,0.0133583 0.012689,0.0279921 0.012689,0.0438346l-0.0379291 0c0,-0.0173189 -0.00550394,-0.030878 -0.0165157,-0.040815 -0.0110079,-0.00986614 -0.0265827,-0.0148346 -0.0465866,-0.0148346 -0.0186614,0 -0.0331614,0.00409449 -0.0435669,0.0122835 -0.0104724,0.00819291 -0.0156417,0.0195354 -0.0156417,0.0341024 0,0.0116811 0.00490157,0.0215512 0.0148346,0.0296063 0.00987008,0.00805512 0.0267165,0.0154409 0.0505512,0.0221535 0.0237638,0.00664567 0.0424252,0.0140236 0.0558504,0.0220787 0.0134252,0.00805906 0.0234291,0.0174567 0.029874,0.0282638 0.00651181,0.0107402 0.00973228,0.0233622 0.00973228,0.0379291 0,0.0232244 -0.00906299,0.0418189 -0.027122,0.0557835 -0.018122,0.0139646 -0.0422913,0.0209449 -0.0725669,0.0209449 -0.0196693,0 -0.038063,-0.00375984 -0.0550472,-0.0112795 -0.0170472,-0.00758268 -0.0302047,-0.0179213 -0.0394724,-0.0310118 -0.00926378,-0.0130906 -0.0138268,-0.0279921 -0.0138268,-0.0446417l0.0379291 0c0,0.0173189 0.00637795,0.0309449 0.0191969,0.0410157 0.0127559,0.0100039 0.0298071,0.0150394 0.0512205,0.0150394 0.019937,0 0.0351772,-0.00409843 0.0457835,-0.0122205 0.0106732,-0.00812205 0.0159764,-0.0191969 0.0159764,-0.0332283 0,-0.0140315 -0.00490157,-0.0248386 -0.0147677,-0.0325591 -0.00979921,-0.00765354 -0.0276575,-0.0152362 -0.0535039,-0.022689z"/>
  <path class="fil0" d="M0.536067 0.600827c-0.0280669,0 -0.0508268,-0.0227598 -0.0508268,-0.0508268 0,-0.0280669 0.0227598,-0.0508268 0.0508268,-0.0508268 0.0280669,0 0.0508268,0.0227598 0.0508268,0.0508268 0,0.0280669 -0.0227598,0.0508268 -0.0508268,0.0508268z"/>
  <path class="fil0" d="M0.692256 0.600827c-0.0280669,0 -0.0508268,-0.0227598 -0.0508268,-0.0508268 0,-0.0280669 0.0227598,-0.0508268 0.0508268,-0.0508268 0.0280669,0 0.0508268,0.0227598 0.0508268,0.0508268 0,0.0280669 -0.0227598,0.0508268 -0.0508268,0.0508268z"/>
  <path class="fil0" d="M0.848445 0.600827c-0.0280669,0 -0.0508268,-0.0227598 -0.0508268,-0.0508268 0,-0.0280669 0.0227598,-0.0508268 0.0508268,-0.0508268 0.0280669,0 0.0508268,0.0227598 0.0508268,0.0508268 0,0.0280669 -0.0227598,0.0508268 -0.0508268,0.0508268z"/>
 </g>
</svg>
