<?xml version="1.0" standalone="no"?>
<!DOCTYPE svg PUBLIC "-//W3C//DTD SVG 20010904//EN"
 "http://www.w3.org/TR/2001/REC-SVG-20010904/DTD/svg10.dtd">
<svg version="1.0" xmlns="http://www.w3.org/2000/svg"
 width="944.000000pt" height="944.000000pt" viewBox="0 0 944.000000 944.000000"
 preserveAspectRatio="xMidYMid meet">
<metadata>
Created by potrace 1.15, written by Peter Selinger 2001-2017
</metadata>
<g transform="translate(0.000000,944.000000) scale(0.100000,-0.100000)"
fill="#000000" stroke="none">
<path d="M2801 7618 c-65 -25 -134 -90 -164 -156 -21 -45 -22 -61 -22 -327 0
-320 3 -333 88 -418 73 -74 124 -87 332 -87 l175 0 0 -755 c0 -826 -2 -795 58
-858 44 -47 99 -69 167 -69 92 0 163 43 208 127 22 40 22 43 25 798 l3 757
164 0 165 0 0 -755 c0 -826 -2 -795 58 -858 44 -47 99 -69 167 -69 92 0 163
43 208 127 22 40 22 43 25 798 l3 757 164 0 165 0 0 -755 c0 -826 -2 -795 58
-858 44 -47 99 -69 167 -69 92 0 163 43 208 127 22 40 22 43 25 798 l3 757
164 0 165 0 0 -755 c0 -826 -2 -795 58 -858 44 -47 99 -70 167 -69 93 0 164
44 211 132 18 33 19 76 22 793 l3 757 139 0 c115 0 149 4 193 20 67 25 132 87
166 159 l26 56 0 270 0 270 -27 57 c-34 73 -95 132 -164 158 -54 20 -66 20
-1787 19 -1728 0 -1732 0 -1786 -21z"/>
<path d="M2817 4796 c-83 -30 -138 -82 -177 -168 -19 -42 -20 -74 -20 -1439
l0 -1396 30 -60 c94 -187 344 -218 486 -60 79 88 74 3 74 1349 l0 1198 1380 0
1380 0 0 -1208 0 -1209 30 -60 c94 -188 344 -218 486 -59 80 88 75 -18 72
1527 l-3 1374 -21 46 c-29 63 -83 120 -141 149 l-48 25 -1745 2 c-1450 2
-1751 0 -1783 -11z"/>
</g>
</svg>
