<?xml version="1.0" encoding="UTF-8"?>
<!DOCTYPE svg PUBLIC "-//W3C//DTD SVG 1.1//EN" "http://www.w3.org/Graphics/SVG/1.1/DTD/svg11.dtd">
<!-- Creator: CorelDRAW -->
<svg xmlns="http://www.w3.org/2000/svg" xml:space="preserve" width="2in" height="2in" style="shape-rendering:geometricPrecision; text-rendering:geometricPrecision; image-rendering:optimizeQuality; fill-rule:evenodd; clip-rule:evenodd"
viewBox="0 0 2 2"
 xmlns:xlink="http://www.w3.org/1999/xlink">
 <defs>
  <style type="text/css">
   <![CDATA[
    .str0 {stroke:#1F1A17;stroke-width:0.003}
    .fil1 {fill:#1F1A17}
    .fil0 {fill:white}
    .fil2 {fill:#B8DADB}
   ]]>
  </style>
 </defs>
 <g id="Layer_x0020_1">
  <metadata id="CorelCorpID_0Corel-Layer"/>
  <path class="fil0" d="M1 0.130016c0.480398,0 0.869984,0.389583 0.869984,0.869984 0,0.480398 -0.389587,0.869984 -0.869984,0.869984 -0.480398,0 -0.869984,-0.389587 -0.869984,-0.869984 0,-0.480402 0.389587,-0.869984 0.869984,-0.869984z"/>
  <polygon class="fil1" points="1.43533,0.65098 1.43408,0.652232 1.43283,0.654736 1.43158,0.655984 1.43033,0.658488 1.42908,0.659736 1.42783,0.66224 1.42657,0.663492 1.42532,0.665992 1.42407,0.667244 1.42282,0.669744 1.42157,0.670996 1.42032,0.6735 1.41907,0.674748 1.41782,0.677252 1.41657,0.678504 1.41532,0.681004 1.41407,0.682256 1.41281,0.684756 1.41156,0.686008 1.41031,0.688512 1.40906,0.68976 1.40781,0.692264 1.40656,0.693516 1.40531,0.696016 1.40406,0.697268 1.40281,0.699768 1.40281,0.70102 1.40406,0.702272 1.40656,0.70352 1.40781,0.704772 1.41031,0.706024 1.41281,0.707276 1.41532,0.708524 1.41657,0.709776 1.41907,0.711028 1.42032,0.71228 1.42282,0.713528 1.42407,0.71478 1.42657,0.716031 1.42783,0.717283 1.43033,0.718531 1.43158,0.719783 1.43408,0.721035 1.43533,0.722287 1.43658,0.723535 1.43909,0.724787 1.44033,0.726039 1.44159,0.727291 1.44409,0.728539 1.44534,0.729791 1.44659,0.731043 1.44909,0.732295 1.45034,0.733543 1.45159,0.734795 1.45285,0.736047 1.4541,0.737299 1.4566,0.738547 1.45785,0.739799 1.4591,0.741051 1.46035,0.742303 1.4616,0.743551 1.46285,0.744803 1.46411,0.746055 1.46535,0.747307 1.46661,0.748555 1.46786,0.749807 1.46911,0.751059 1.47036,0.752307 1.47161,0.753559 1.47286,0.754811 1.47411,0.756063 1.47536,0.757311 1.47661,0.758563 1.47787,0.759815 1.47911,0.761067 1.48037,0.762315 1.48162,0.763567 1.48287,0.764819 1.48412,0.766071 1.48537,0.768571 1.48662,0.769823 1.48787,0.771075 1.48912,0.772323 1.49037,0.773575 1.49163,0.776079 1.49288,0.777327 1.49413,0.778579 1.49538,0.779831 1.49663,0.782331 1.49788,0.783583 1.49913,0.784835 1.50038,0.787335 1.50163,0.788587 1.50289,0.791091 1.50413,0.792339 1.50539,0.793591 1.50664,0.796091 1.50789,0.797343 1.50914,0.799846 1.51039,0.802346 1.51164,0.803598 1.51289,0.806098 1.51414,0.80735 1.51539,0.809854 1.51665,0.812354 1.51789,0.814858 1.51915,0.816106 1.5204,0.81861 1.52165,0.82111 1.5229,0.823614 1.52415,0.826114 1.5254,0.828618 1.52665,0.831118 1.5279,0.834874 1.52915,0.837374 1.53041,0.839874 1.53166,0.84363 1.53291,0.84613 1.53416,0.849882 1.53541,0.853638 1.53666,0.856138 1.53791,0.85989 1.53916,0.864894 1.54041,0.86865 1.54167,0.873654 1.54291,0.877406 1.54417,0.883657 1.54542,0.888661 1.54667,0.896169 1.54792,0.903673 1.54917,0.913681 1.54917,0.96372 1.54792,0.973728 1.54667,0.981232 1.54542,0.98874 1.54417,0.993744 1.54291,1 1.54167,1.00375 1.54041,1.00876 1.53916,1.01251 1.53791,1.01751 1.53666,1.02126 1.53541,1.02377 1.53416,1.02752 1.53291,1.03127 1.53166,1.03378 1.53041,1.03753 1.52915,1.04003 1.5279,1.04253 1.52665,1.04628 1.5254,1.04879 1.52415,1.05129 1.5229,1.05379 1.52165,1.05629 1.5204,1.0588 1.51915,1.0613 1.51789,1.06255 1.51665,1.06505 1.51539,1.06755 1.51414,1.07005 1.51289,1.0713 1.51164,1.0738 1.51039,1.07506 1.50914,1.07756 1.50789,1.08006 1.50664,1.08131 1.50539,1.08381 1.50413,1.08506 1.50289,1.08631 1.50163,1.08881 1.50038,1.09007 1.49913,1.09257 1.49788,1.09382 1.49663,1.09507 1.49538,1.09757 1.49413,1.09882 1.49288,1.10007 1.49163,1.10133 1.49037,1.10383 1.48912,1.10508 1.48787,1.10633 1.48662,1.10758 1.48537,1.10883 1.48412,1.11133 1.48287,1.11258 1.48162,1.11383 1.48037,1.11509 1.47911,1.11634 1.47787,1.11759 1.47661,1.11884 1.47536,1.12009 1.47411,1.12134 1.47286,1.12259 1.47161,1.12384 1.47036,1.12509 1.46911,1.12635 1.46786,1.12759 1.46661,1.12885 1.46535,1.1301 1.46411,1.13135 1.46285,1.1326 1.4616,1.13385 1.46035,1.1351 1.4591,1.13635 1.45785,1.1376 1.45535,1.13885 1.4541,1.14011 1.45285,1.14136 1.45159,1.14261 1.45034,1.14386 1.44909,1.14511 1.44659,1.14636 1.44534,1.14761 1.44409,1.14886 1.44159,1.15011 1.44033,1.15136 1.43909,1.15261 1.43658,1.15387 1.43533,1.15512 1.43408,1.15637 1.43158,1.15762 1.43033,1.15887 1.42783,1.16012 1.42657,1.16137 1.42407,1.16262 1.42282,1.16387 1.42032,1.16513 1.41907,1.16637 1.41657,1.16763 1.41532,1.16888 1.41281,1.17013 1.41031,1.17138 1.40781,1.17263 1.40656,1.17388 1.40406,1.17513 1.40281,1.17638 1.40281,1.17763 1.40406,1.18014 1.40531,1.18139 1.40656,1.18389 1.40781,1.18514 1.40906,1.18764 1.41031,1.18889 1.41156,1.19139 1.41281,1.19265 1.41407,1.19515 1.41532,1.1964 1.41657,1.1989 1.41782,1.20015 1.41907,1.20265 1.42032,1.20391 1.42157,1.20641 1.42282,1.20766 1.42407,1.21016 1.42532,1.21141 1.42657,1.21391 1.42783,1.21516 1.42908,1.21767 1.43033,1.21892 1.43158,1.22142 1.43283,1.22267 1.43408,1.22517 1.43533,1.22642 1.43658,1.22893 1.43909,1.22893 1.44033,1.22767 1.44284,1.22642 1.44534,1.22517 1.44659,1.22392 1.44909,1.22267 1.45159,1.22142 1.45285,1.22017 1.45535,1.21892 1.4566,1.21767 1.4591,1.21641 1.46035,1.21516 1.46285,1.21391 1.46411,1.21266 1.46661,1.21141 1.46786,1.21016 1.47036,1.20891 1.47161,1.20766 1.47286,1.20641 1.47536,1.20515 1.47661,1.20391 1.47787,1.20265 1.48037,1.2014 1.48162,1.20015 1.48287,1.1989 1.48537,1.19765 1.48662,1.1964 1.48787,1.19515 1.48912,1.1939 1.49037,1.19265 1.49288,1.19139 1.49413,1.19015 1.49538,1.18889 1.49663,1.18764 1.49788,1.18639 1.49913,1.18514 1.50163,1.18389 1.50289,1.18264 1.50413,1.18139 1.50539,1.18014 1.50664,1.17889 1.50789,1.17763 1.50914,1.17638 1.51039,1.17513 1.51164,1.17388 1.51289,1.17263 1.51414,1.17138 1.51539,1.17013 1.51665,1.16888 1.51789,1.16763 1.51915,1.16637 1.5204,1.16513 1.52165,1.16387 1.5229,1.16262 1.52415,1.16137 1.5254,1.16012 1.52665,1.15887 1.5279,1.15762 1.52915,1.15637 1.53041,1.15512 1.53166,1.15261 1.53291,1.15136 1.53416,1.15011 1.53541,1.14886 1.53666,1.14761 1.53791,1.14636 1.53916,1.14386 1.54041,1.14261 1.54167,1.14136 1.54291,1.14011 1.54417,1.1376 1.54542,1.13635 1.54667,1.1351 1.54792,1.13385 1.54917,1.13135 1.55042,1.1301 1.55167,1.12759 1.55292,1.12635 1.55417,1.12509 1.55543,1.12259 1.55668,1.12134 1.55793,1.11884 1.55918,1.11759 1.56043,1.11509 1.56168,1.11383 1.56293,1.11133 1.56418,1.11008 1.56543,1.10758 1.56668,1.10633 1.56793,1.10383 1.56919,1.10133 1.57044,1.09882 1.57169,1.09757 1.57294,1.09507 1.57419,1.09257 1.57544,1.09007 1.57669,1.08881 1.57794,1.08631 1.57919,1.08381 1.58044,1.08131 1.58169,1.07881 1.58294,1.07631 1.5842,1.07256 1.58545,1.07005 1.5867,1.06755 1.58795,1.06505 1.5892,1.0613 1.59045,1.0588 1.5917,1.05629 1.59295,1.05254 1.5942,1.04879 1.59546,1.04628 1.5967,1.04253 1.59796,1.03878 1.59921,1.03502 1.60046,1.03127 1.60171,1.02627 1.60296,1.02252 1.60421,1.01751 1.60546,1.01251 1.60671,1.0075 1.60796,1.00125 1.60922,0.994996 1.61046,0.987488 1.61172,0.978732 1.61297,0.966232 1.61297,0.911173 1.61172,0.898669 1.61046,0.889913 1.60922,0.882409 1.60796,0.876154 1.60671,0.869898 1.60546,0.864894 1.60421,0.85989 1.60296,0.854886 1.60171,0.851134 1.60046,0.84613 1.59921,0.842378 1.59796,0.838626 1.5967,0.834874 1.59546,0.831118 1.5942,0.828618 1.59295,0.824866 1.5917,0.82111 1.59045,0.81861 1.5892,0.816106 1.58795,0.812354 1.5867,0.809854 1.58545,0.80735 1.5842,0.80485 1.58294,0.801094 1.58169,0.798594 1.58044,0.796091 1.57919,0.793591 1.57794,0.791091 1.57669,0.789839 1.57544,0.787335 1.57419,0.784835 1.57294,0.782331 1.57169,0.779831 1.57044,0.778579 1.56919,0.776079 1.56793,0.773575 1.56668,0.772323 1.56543,0.769823 1.56418,0.767319 1.56293,0.766071 1.56168,0.763567 1.56043,0.762315 1.55918,0.759815 1.55793,0.758563 1.55668,0.756063 1.55543,0.754811 1.55417,0.752307 1.55292,0.751059 1.55167,0.749807 1.55042,0.747307 1.54917,0.746055 1.54792,0.744803 1.54667,0.742303 1.54542,0.741051 1.54417,0.739799 1.54291,0.737299 1.54167,0.736047 1.54041,0.734795 1.53916,0.733543 1.53791,0.731043 1.53666,0.729791 1.53541,0.728539 1.53416,0.727291 1.53291,0.726039 1.53166,0.724787 1.53041,0.723535 1.52915,0.721035 1.5279,0.719783 1.52665,0.718531 1.5254,0.717283 1.52415,0.716031 1.5229,0.71478 1.52165,0.713528 1.5204,0.71228 1.51915,0.711028 1.51789,0.709776 1.51665,0.708524 1.51539,0.707276 1.51414,0.706024 1.51289,0.704772 1.51164,0.70352 1.51039,0.702272 1.50914,0.70102 1.50789,0.699768 1.50664,0.69852 1.50539,0.697268 1.50413,0.696016 1.50289,0.694764 1.50163,0.693516 1.49913,0.692264 1.49788,0.691012 1.49663,0.68976 1.49538,0.688512 1.49413,0.68726 1.49288,0.686008 1.49037,0.684756 1.48912,0.683508 1.48787,0.682256 1.48662,0.681004 1.48537,0.679752 1.48287,0.678504 1.48162,0.677252 1.48037,0.676 1.47787,0.674748 1.47661,0.6735 1.47536,0.672248 1.47286,0.670996 1.47161,0.669744 1.47036,0.668496 1.46786,0.667244 1.46661,0.665992 1.46411,0.66474 1.46285,0.663492 1.46035,0.66224 1.4591,0.660988 1.4566,0.659736 1.45535,0.658488 1.45285,0.657236 1.45159,0.655984 1.44909,0.654736 1.44659,0.653484 1.44534,0.652232 1.44284,0.65098 1.44033,0.649732 1.43909,0.64848 1.43658,0.64848 "/>
  <path class="fil2 str0" d="M0.824354 1.50117l0.17487 -0.0874291 -0.119957 -0.288752 0.109807 -0.00407874 0.33348 0.254181 -0.00405906 -0.866248 -0.327398 0.248079 -0.41076 0c0,0 -0.134201,0.0304882 -0.150469,0.115894 -0.0162677,0.0854055 -0.0203425,0.0915079 0.00812598,0.156579 0.0284685,0.0650709 0.0915157,0.0813504 0.148453,0.0935512 0.056937,0.0122008 0.0833701,0.0162874 0.0833701,0.0162874l0.154535 0.361937z"/>
  <path class="fil1" d="M0.851134 1.15512l0.00125197 0.0025 0.00125197 0.00250394 0.00125197 0.00375197 0.00124803 0.0025 0.00125197 0.00250394 0.00125197 0.00375197 0.00125197 0.00250394 0.00124803 0.0025 0.00125197 0.00375197 0.00125197 0.00250394 0.00125197 0.0025 0.00124803 0.00375591 0.00125197 0.0025 0.00125197 0.0025 0.00125197 0.00375591 0.00124803 0.0025 0.00125197 0.00250394 0.00125197 0.00375197 0.00125197 0.0025 0.00124803 0.00250394 0.00125197 0.00375197 0.00125197 0.00250394 0.00125197 0.0025 0.00124803 0.00375197 0.00125197 0.00250394 0.00125197 0.0025 0.00124803 0.00375591 0.00125197 0.0025 0.00125197 0.00250394 0.00125197 0.00375197 0.00124803 0.0025 0.00125197 0.00250394 0.00125197 0.00375197 0.00125197 0.0025 0.00124803 0.00250394 0.00125197 0.00375197 0.00125197 0.00250394 0.00125197 0.0025 0.00124803 0.00375197 0.00125197 0.00250394 0.00125197 0.0025 0.00125197 0.00375591 0.00124803 0.0025 0.00125197 0.00250394 0.00125197 0.00375197 0.00125197 0.0025 0.00124803 0.00250394 0.00125197 0.00375197 0.00125197 0.0025 0.00125197 0.00250394 0.00124803 0.00375197 0.00125197 0.00250394 0.00125197 0.0025 0.00125197 0.00375197 0.00124803 0.00250394 0.00125197 0.0025 0.00125197 0.00375591 0.00125197 0.0025 0.00124803 0.00250394 0.00125197 0.00375197 0.00125197 0.0025 0.00124803 0.00250394 0.00125197 0.00375197 0.00125197 0.0025 0.00125197 0.00250394 0.00124803 0.00375197 0.00125197 0.00250394 0.00125197 0.0025 0.00125197 0.00375197 0.00124803 0.00250394 0.00125197 0.0025 0.00125197 0.00375591 0.00125197 0.0025 0.00124803 0.00250394 0.00125197 0.00375197 0.00125197 0.0025 0.00125197 0.00250394 0.00124803 0.00375197 0.00125197 0.0025 0.00125197 0.00250394 0.00125197 0.00375197 0.00124803 0.00250394 0.00125197 0.0025 0 0.00125197 -0.0025 0.00125197 -0.00250394 0.00124803 -0.0025 0.00125197 -0.00250394 0.00125197 -0.0025 0.00125197 -0.00250394 0.00124803 -0.0025 0.00125197 -0.00250394 0.00125197 -0.0025 0.00125197 -0.00250394 0.00124803 -0.0025 0.00125197 -0.00250394 0.00125197 -0.0025 0.00125197 -0.00250394 0.00124803 -0.0025 0.00125197 -0.00250394 0.00125197 -0.0025 0.00125197 -0.00250394 0.00124803 -0.0025 0.00125197 -0.00250394 0.00125197 -0.0025 0.00125197 -0.00250394 0.00124803 -0.0025 0.00125197 -0.00250394 0.00125197 -0.0025 0.00124803 -0.00250394 0.00125197 -0.0025 0.00125197 -0.00250394 0.00125197 -0.0025 0.00124803 -0.0025 0.00125197 -0.00250394 0.00125197 -0.0025 0.00125197 -0.00250394 0.00124803 -0.0025 0.00125197 -0.00250394 0.00125197 -0.0025 0.00125197 -0.00250394 0.00124803 -0.0025 0.00125197 -0.00250394 0.00125197 -0.0025 0.00125197 -0.00250394 0.00124803 -0.0025 0.00125197 -0.00250394 0.00125197 -0.0025 0.00125197 -0.00250394 0.00124803 -0.0025 0.00125197 -0.00250394 0.00125197 -0.0025 0 -0.00125197 -0.00250394 -0.00125197 -0.0025 -0.00124803 -0.00375197 -0.00125197 -0.00250394 -0.00125197 -0.0025 -0.00125197 -0.00375591 -0.00124803 -0.0025 -0.00125197 -0.00250394 -0.00125197 -0.00375197 -0.00125197 -0.0025 -0.00124803 -0.00250394 -0.00125197 -0.00375197 -0.00125197 -0.0025 -0.00125197 -0.00250394 -0.00124803 -0.00375197 -0.00125197 -0.00250394 -0.00125197 -0.0025 -0.00125197 -0.00375197 -0.00124803 -0.00250394 -0.00125197 -0.0025 -0.00125197 -0.00375591 -0.00125197 -0.0025 -0.00124803 -0.00250394 -0.00125197 -0.00375197 -0.00125197 -0.0025 -0.00125197 -0.00250394 -0.00124803 -0.00375197 -0.00125197 -0.0025 -0.00125197 -0.00250394 -0.00125197 -0.00375197 -0.00124803 -0.00250394 -0.00125197 -0.0025 -0.00125197 -0.00375197 -0.00125197 -0.00250394 -0.00124803 -0.0025 -0.00125197 -0.00375591 -0.00125197 -0.0025 -0.00124803 -0.00250394 -0.00125197 -0.00375197 -0.00125197 -0.0025 -0.00125197 -0.00250394 -0.00124803 -0.00375197 -0.00125197 -0.0025 -0.00125197 -0.00250394 -0.00125197 -0.00375197 -0.00124803 -0.00250394 -0.00125197 -0.0025 -0.00125197 -0.00375197 -0.00125197 -0.00250394 -0.00124803 -0.0025 -0.00125197 -0.00375591 -0.00125197 -0.0025 -0.00125197 -0.00250394 -0.00124803 -0.00375197 -0.00125197 -0.0025 -0.00125197 -0.00250394 -0.00125197 -0.00375197 -0.00124803 -0.0025 -0.00125197 -0.00250394 -0.00125197 -0.00375197 -0.00125197 -0.00250394 -0.00124803 -0.0025 -0.00125197 -0.00375197 -0.00125197 -0.00250394 -0.00125197 -0.0025 -0.00124803 -0.00375591 -0.00125197 -0.0025 -0.00125197 -0.00250394 -0.00125197 -0.00375197 -0.00124803 -0.0025 -0.00125197 -0.00250394 -0.00125197 -0.00375197 -0.00124803 -0.0025 -0.00125197 -0.00250394 -0.00125197 -0.00375197 -0.00125197 -0.00250394 -0.00124803 -0.0025 -0.00125197 -0.00375197 -0.00125197 -0.00250394 -0.00125197 -0.0025 -0.00124803 -0.00375591 -0.00125197 -0.0025 -0.00125197 -0.00250394 -0.00125197 -0.00375197 -0.00124803 -0.0025 -0.00125197 -0.00250394 -0.00125197 -0.00375197 -0.00125197 -0.0025 -0.00124803 -0.00250394 -0.00125197 -0.00375197 -0.00125197 -0.00250394 -0.00125197 -0.0025 -0.00124803 -0.00375197 -0.00125197 -0.00250394 -0.00125197 -0.0025 -0.00125197 -0.00375591 -0.00124803 -0.0025 -0.00125197 -0.00250394 -0.00125197 -0.00375197 -0.00125197 -0.0025 -0.00124803 -0.00250394 -0.00125197 -0.00375197 -0.00125197 -0.0025 -0.00125197 -0.00252362 0.146362 0.00127165zm0.446591 -0.676768l0.0175197 0 0.00625197 0.00125197 0.00500394 0.00124803 0.00375197 0.00125197 0.00250394 0.00125197 0.0025 0.00124803 0.0025 0.00125197 0.00125197 0.00125197 0.00250394 0.00125197 0.00124803 0.00124803 0.00250394 0.00125197 0.00125197 0.00125197 0.00124803 0.00125197 0.00125197 0.00124803 0.00125197 0.00125197 0.00125197 0.00125197 0.00124803 0.00125197 0.00125197 0.00124803 0.00125197 0.00125197 0.00125197 0.00250394 0.00124803 0.00124803 0.00125197 0.00125197 0.00125197 0.00250394 0.00125197 0.0025 0.00124803 0.00250394 0.00125197 0.0025 0.00125197 0.00375197 0.00125197 0.00375591 0.00124803 0.005 0.00125197 0.216417 0.00250394 0.00125197 0.0025 0.00125197 0.00250394 0.00124803 0.00124803 0.00125197 0.00250394 0.00125197 0.0025 0.00124803 0.00250394 0.00125197 0.00124803 0.00125197 0.00250394 0.00125197 0.0025 0.00124803 0.00125197 0.00125197 0.00250394 0.00125197 0.00124803 0.00125197 0.00250394 0.00124803 0.00125197 0.00125197 0.00124803 0.00125197 0.00250394 0.00125197 0.00125197 0.00124803 0.0025 0.00125197 0.00125197 0.00125197 0.00125197 0.00125197 0.00124803 0.00124803 0.00125197 0.00125197 0.00250394 0.00125197 0.00124803 0.00125197 0.00125197 0.00124803 0.00125197 0.00125197 0.00125197 0.00125197 0.00124803 0.00125197 0.00125197 0.00124803 0.00125197 0.00125197 0.00124803 0.00125197 0.00125197 0.00125197 0.00250394 0.00124803 0.00124803 0.00250394 0.00125197 0.00125197 0.00125197 0.00124803 0.00125197 0.00125197 0.00124803 0.00125197 0.00125197 0.00124803 0.00125197 0.00125197 0.00125197 0.00125197 0.00124803 0.00125197 0.00125197 0.00124803 0.00125197 0.00250394 0.00125197 0.00125197 0.00124803 0.00124803 0.00125197 0.00125197 0.00125197 0.00250394 0.00125197 0.00124803 0.00124803 0.00125197 0.00125197 0.00250394 0.00125197 0.00124803 0.00125197 0.00250394 0.00124803 0.00125197 0.00125197 0.0025 0.00125197 0.00125197 0.00125197 0.0025 0.00124803 0.00125197 0.00125197 0.00250394 0.00125197 0.0025 0.00125197 0.00125197 0.00124803 0.0025 0.00125197 0.00250394 0.00125197 0.0025 0.00124803 0.00250394 0.00125197 0.0025 0.00125197 0.00250394 0.00125197 0.0025 0.00124803 0.00375197 0.00125197 0.00250394 0.00125197 0.0025 0.00125197 0.00375591 0.00124803 0.00375197 0.00125197 0.00375197 0.00125197 0.00375197 0.00125197 0.00375591 0.00124803 0.00375197 0.00125197 0.00500394 0.00125197 0.00625197 0.00125197 0.00625591 0.00124803 0.00625591 0.00125197 0.0112598 0 0.0437835 -0.00125197 0.0100079 -0.00124803 0.00625197 -0.00125197 0.00625591 -0.00125197 0.00625591 -0.00125197 0.00500394 -0.00124803 0.00375197 -0.00125197 0.00375197 -0.00125197 0.00375197 -0.00125197 0.00375591 -0.00124803 0.00375197 -0.00125197 0.00375197 -0.00125197 0.0025 -0.00125197 0.00250394 -0.00124803 0.00375197 -0.00125197 0.00250394 -0.00125197 0.0025 -0.00125197 0.00250394 -0.00124803 0.0025 -0.00125197 0.00250394 -0.00125197 0.0025 -0.00124803 0.00250394 -0.00125197 0.00124803 -0.00125197 0.00250394 -0.00125197 0.0025 -0.00124803 0.00125197 -0.00125197 0.00250394 -0.00125197 0.00124803 -0.00125197 0.00250394 -0.00124803 0.00125197 -0.00125197 0.0025 -0.00125197 0.00125197 -0.00125197 0.0025 -0.00124803 0.00125197 -0.00125197 0.00125197 -0.00125197 0.0025 -0.00125197 0.00125197 -0.00124803 0.00125197 -0.00125197 0.00124803 -0.00125197 0.00250394 -0.00125197 0.00125197 -0.00124803 0.00124803 -0.00125197 0.00125197 -0.00125197 0.00125197 -0.00125197 0.00125197 -0.00124803 0.00124803 -0.00125197 0.00125197 -0.00125197 0.00125197 -0.00125197 0.0025 -0.00124803 0.00125197 -0.00125197 0.00125197 -0.00125197 0.00125197 -0.0025 0.00124803 -0.00125197 0.00125197 -0.00125197 0.00125197 -0.00124803 0.00125197 -0.00125197 0.00124803 -0.00125197 0.00125197 -0.00125197 0.00125197 -0.00124803 0.00125197 -0.00125197 0.00124803 -0.00250394 0.00125197 -0.00124803 0.00125197 -0.00125197 0.00124803 -0.00125197 0.00125197 -0.0025 0.00125197 -0.00125197 0.00125197 -0.00125197 0.00124803 -0.0025 0.00125197 -0.00125197 0.00125197 -0.00250394 0.00125197 -0.00124803 0.00124803 -0.00250394 0.00125197 -0.00125197 0.00125197 -0.0025 0.00125197 -0.00125197 0.00124803 -0.0025 0.00125197 -0.00250394 0.00125197 -0.0025 0.00125197 -0.00125197 0.00124803 -0.0025 0.00125197 -0.00250394 0.00125197 -0.0025 0.00125197 -0.00250394 0.00124803 -0.00125197 0.217669 -0.00124803 0.00500394 -0.00125197 0.00375197 -0.00125197 0.0025 -0.00125197 0.00250394 -0.00124803 0.0025 -0.00125197 0.00250394 -0.00125197 0.0025 -0.00125197 0.00125197 -0.00124803 0.00250394 -0.00125197 0.00124803 -0.00125197 0.00125197 -0.00125197 0.00125197 -0.00124803 0.00124803 -0.00125197 0.00125197 -0.00125197 0.00125197 -0.00125197 0.00125197 -0.00124803 0.00124803 -0.00125197 0.00125197 -0.00250394 0.00125197 -0.00124803 0.00125197 -0.00250394 0.00124803 -0.00125197 0.00125197 -0.0025 0.00125197 -0.0025 0.00125197 -0.00250394 0.00124803 -0.00375197 0.00125197 -0.00500394 0.00125197 -0.00625591 0.00125197 -0.0175118 0 -0.00625591 -0.00125197 -0.00500394 -0.00125197 -0.00250394 -0.00125197 -0.00375197 -0.00124803 -0.0025 -0.00125197 -0.00250394 -0.00125197 -0.00124803 -0.00125197 -0.00250394 -0.00124803 -0.00125197 -0.00125197 -0.0025 -0.00125197 -0.00125197 -0.00125197 -0.00125197 -0.00124803 -0.0025 -0.00125197 -0.00125197 -0.00125197 -0.00125197 -0.00125197 -0.00124803 -0.00124803 -0.00250394 -0.00125197 -0.00125197 -0.00125197 -0.00124803 -0.00124803 -0.00125197 -0.00125197 -0.00250394 -0.00125197 -0.00124803 -0.00125197 -0.00125197 -0.00124803 -0.00125197 -0.00125197 -0.0025 -0.00125197 -0.00125197 -0.00125197 -0.00125197 -0.00124803 -0.00125197 -0.00125197 -0.0025 -0.00125197 -0.00125197 -0.00125197 -0.00124803 -0.00124803 -0.00125197 -0.00125197 -0.00250394 -0.00125197 -0.00124803 -0.00125197 -0.00125197 -0.00124803 -0.00125197 -0.00125197 -0.0025 -0.00125197 -0.00125197 -0.00125197 -0.00125197 -0.00124803 -0.00125197 -0.00125197 -0.0025 -0.00125197 -0.00125197 -0.00125197 -0.00125197 -0.00124803 -0.00124803 -0.00125197 -0.00250394 -0.00125197 -0.00125197 -0.00125197 -0.00124803 -0.00124803 -0.00125197 -0.00125197 -0.00250394 -0.00125197 -0.00124803 -0.00125197 -0.00125197 -0.00124803 -0.00125197 -0.00125197 -0.0025 -0.00125197 -0.00125197 -0.00124803 -0.00125197 -0.00125197 -0.00125197 -0.00125197 -0.0025 -0.00125197 -0.00125197 -0.00124803 -0.00124803 -0.00125197 -0.00125197 -0.00125197 -0.00250394 -0.00125197 -0.00124803 -0.00124803 -0.00125197 -0.00125197 -0.00125197 -0.00125197 -0.0025 -0.00125197 -0.00125197 -0.00124803 -0.00125197 -0.00125197 -0.00125197 -0.00125197 -0.0025 -0.00125197 -0.00125197 -0.00124803 -0.00125197 -0.00125197 -0.00124803 -0.00125197 -0.00250394 -0.00125197 -0.00125197 -0.00124803 -0.00124803 -0.00125197 -0.00125197 -0.00125197 -0.00250394 -0.00125197 -0.00124803 -0.00124803 -0.00125197 -0.00125197 -0.00125197 -0.00125197 -0.0025 -0.00125197 -0.00125197 -0.00124803 -0.00125197 -0.00125197 -0.00125197 -0.00125197 -0.0025 -0.00125197 -0.00125197 -0.00124803 -0.00124803 -0.00125197 -0.00125197 -0.00125197 -0.00250394 -0.00124803 -0.00124803 -0.00125197 -0.00125197 -0.00125197 -0.00125197 -0.00125197 -0.0025 -0.00124803 -0.00125197 -0.00125197 -0.00125197 -0.00125197 -0.00125197 -0.00125197 -0.0025 -0.00124803 -0.00125197 -0.00125197 -0.00125197 -0.00125197 -0.00124803 -0.00125197 -0.00250394 -0.00124803 -0.00125197 -0.00125197 -0.00124803 -0.00125197 -0.00125197 -0.00125197 -0.00250394 -0.00124803 -0.00124803 -0.00125197 -0.00125197 -0.00125197 -0.00125197 -0.00125197 -0.0025 -0.00124803 -0.00125197 -0.00125197 -0.00125197 -0.00125197 -0.00125197 -0.00125197 -0.0025 -0.00124803 -0.00125197 -0.00125197 -0.00124803 -0.00125197 -0.00125197 -0.00125197 -0.00250394 -0.00124803 -0.00124803 -0.00125197 -0.00125197 -0.00125197 -0.00125197 -0.00125197 -0.0025 -0.00124803 -0.00125197 -0.00125197 -0.00125197 -0.00125197 -0.00125197 -0.00124803 -0.00124803 -0.00125197 -0.00250394 -0.00125197 -0.00125197 -0.00125197 -0.00124803 -0.00124803 -0.00125197 -0.00125197 -0.00250394 -0.00125197 -0.00124803 -0.00125197 -0.00125197 -0.00124803 -0.00125197 -0.00125197 -0.0025 -0.00125197 -0.00125197 -0.00125197 -0.00125197 -0.00124803 -0.00125197 -0.00125197 -0.0025 -0.00125197 -0.00125197 -0.00125197 -0.00125197 -0.00124803 -0.00124803 -0.00125197 -0.00250394 -0.00125197 -0.00125197 -0.00125197 -0.00124803 -0.00124803 -0.00125197 -0.00125197 -0.0025 -0.00125197 -0.00125197 -0.00125197 -0.00125197 -0.00124803 -0.00125197 -0.00125197 -0.0025 -0.00125197 -0.00125197 -0.00125197 -0.00125197 -0.00124803 -0.00124803 -0.00125197 -0.00250394 -0.00125197 -0.00125197 -0.00125197 -0.00124803 -0.00124803 -0.00125197 -0.00125197 -0.00250394 -0.00125197 -0.00124803 -0.00124803 -0.00125197 -0.00125197 -0.00125197 -0.00125197 -0.0025 -0.00125197 -0.00125197 -0.00125197 -0.00125197 -0.00124803 -0.00125197 -0.00125197 -0.0025 -0.00125197 -0.00125197 -0.00124803 -0.00125197 -0.00125197 -0.00124803 -0.00125197 -0.00250394 -0.00125197 -0.00125197 -0.00124803 -0.00124803 -0.00125197 -0.00125197 -0.00125197 -0.0025 -0.00125197 -0.00125197 -0.00124803 -0.00125197 -0.00125197 -0.00125197 -0.00125197 -0.0025 -0.00125197 -0.00125197 -0.00124803 -0.00125197 -0.00125197 -0.00124803 -0.00125197 -0.00250394 -0.00125197 -0.00125197 -0.00124803 -0.00124803 -0.00125197 -0.00125197 -0.00125197 -0.00250394 -0.00125197 -0.00124803 -0.00124803 -0.00125197 -0.00125197 -0.00125197 -0.00125197 -0.0025 -0.00125197 -0.00125197 -0.00124803 -0.00125197 -0.00125197 -0.00125197 -0.00125197 -0.0025 -0.00124803 -0.00125197 -0.00125197 -0.0575433 0 0.00125197 0.00375197 0.00125197 0.0025 0.00124803 0.00250394 0.00125197 0.00375197 0.00125197 0.00250394 0.00124803 0.0025 0.00125197 0.00375197 0.00125197 0.00250394 0.00125197 0.0025 0.00124803 0.00375591 0.00125197 0.0025 0.00125197 0.00250394 0.00125197 0.00375197 0.00124803 0.0025 0.00125197 0.00250394 0.00125197 0.00375197 0.00125197 0.0025 0.00124803 0.00250394 0.00125197 0.00375197 0.00125197 0.00250394 0.00125197 0.0025 0.00124803 0.00375197 0.00125197 0.00250394 0.00125197 0.0025 0.00125197 0.00375591 0.00124803 0.0025 0.00125197 0.00250394 0.00125197 0.00375197 0.00125197 0.0025 0.00124803 0.00250394 0.00125197 0.00375197 0.00125197 0.0025 0.00125197 0.00250394 0.00124803 0.00375197 0.00125197 0.00250394 0.00125197 0.0025 0.00125197 0.00375197 0.00124803 0.00250394 0.00125197 0.0025 0.00125197 0.00375591 0.00124803 0.0025 0.00125197 0.00250394 0.00125197 0.00375197 0.00125197 0.0025 0.00124803 0.00250394 0.00125197 0.00375197 0.00125197 0.0025 0.00125197 0.00250394 0.00124803 0.00375197 0.00125197 0.00250394 0.00125197 0.0025 0.00125197 0.00375197 0.00124803 0.00250394 0.00125197 0.0025 0.00125197 0.00375591 0.00125197 0.0025 0.00124803 0.00250394 0.00125197 0.00375197 0.00125197 0.0025 0.00125197 0.00250394 0.00124803 0.00375197 0.00125197 0.0025 0.00125197 0.00250394 0.00125197 0.00375197 0.00124803 0.00250394 0.00125197 0.0025 0.00125197 0.00375197 0.00125197 0.00250394 0.00124803 0.0025 0.00125197 0.00375591 0.00125197 0.0025 0.00125197 0.00375197 0.00124803 0.00250394 0.00125197 0.0025 0.00125197 0.00375591 0.00124803 0.0025 0.00125197 0.00500394 0.00125197 0.00500394 0 0.0212677 -0.00125197 0.00625197 -0.00125197 0.00375591 -0.00124803 0.0025 -0.00125197 0.00375197 -0.00125197 0.00250394 -0.00124803 0.0025 -0.00125197 0.00125197 -0.00125197 0.0025 -0.00125197 0.00125197 -0.00124803 0.00125197 -0.00125197 0.0025 -0.00125197 0.00125197 -0.00125197 0.00125197 -0.00124803 0.00125197 -0.00125197 0.00124803 -0.00125197 0.00125197 -0.00125197 0.00125197 -0.0025 0.00125197 -0.00125197 0.00124803 -0.00125197 0.00125197 -0.0025 0.00125197 -0.00250394 0.00125197 -0.00124803 0.00124803 -0.00250394 0.00125197 -0.0025 0.00125197 -0.00250394 0.00125197 -0.0025 0.00124803 -0.00250394 0.00125197 -0.0025 0.00125197 -0.00250394 0.00125197 -0.0025 0.00124803 -0.00250394 0.00125197 -0.0025 0.00125197 -0.00250394 0.00125197 -0.0025 0.00124803 -0.00250394 0.00125197 -0.0025 0.00125197 -0.00250394 0.00124803 -0.0025 0.00125197 -0.00250394 0.00125197 -0.0025 0.00125197 -0.00250394 0.00124803 -0.0025 0.00125197 -0.00250394 0.00125197 -0.0025 0.00125197 -0.00250394 0.00124803 -0.0025 0.00125197 -0.0025 0.00125197 -0.00250394 0.00125197 -0.0025 0.00124803 -0.00250394 0.00125197 -0.0025 0.00125197 -0.00250394 0.00125197 -0.0025 0.00124803 -0.00250394 0.00125197 -0.0025 0.00125197 -0.00250394 0.00125197 -0.0025 0.00124803 -0.00250394 0.00125197 -0.0025 0.00125197 -0.00250394 0.00125197 -0.0025 0.00124803 -0.00250394 0.00125197 -0.0025 0.00125197 -0.00250394 0.00125197 -0.0025 0.00124803 -0.00250394 0.00125197 -0.0025 0.00125197 -0.00250394 0.00125197 -0.0025 0.00124803 -0.00250394 0.00125197 -0.0025 0.00125197 -0.00250394 0.00124803 -0.00375197 0.00125197 -0.00375197 0.00125197 -0.00375197 0.00125197 -0.00625591 0.00124803 -0.0175118 0 -0.00750787 -0.00124803 -0.00375197 -0.00125197 -0.00375197 -0.00125197 -0.00250394 -0.00125197 -0.0025 -0.00124803 -0.00250394 -0.00125197 -0.0025 -0.00125197 -0.00125197 -0.00124803 -0.00250394 -0.00125197 -0.00124803 -0.00125197 -0.00125197 -0.00125197 -0.00125197 -0.00124803 -0.0025 -0.00125197 -0.00125197 -0.00250394 -0.00125197 -0.00124803 -0.00124803 -0.00125197 -0.00125197 -0.00125197 -0.00125197 -0.00125197 -0.00125197 -0.00124803 -0.00124803 -0.00250394 -0.00125197 -0.00125197 -0.00125197 -0.0025 -0.00125197 -0.00250394 -0.00124803 -0.0025 -0.00125197 -0.00250394 -0.00125197 -0.00375197 -0.00125197 -0.0025 -0.00124803 -0.00250394 -0.00125197 -0.00375197 -0.00125197 -0.0025 -0.00125197 -0.00250394 -0.00124803 -0.00375197 -0.00125197 -0.00250394 -0.00125197 -0.0025 -0.00125197 -0.00375197 -0.00124803 -0.00250394 -0.00125197 -0.0025 -0.00125197 -0.00375591 -0.00125197 -0.0025 -0.00124803 -0.00250394 -0.00125197 -0.00375197 -0.00125197 -0.0025 -0.00125197 -0.00250394 -0.00124803 -0.00375197 -0.00125197 -0.0025 -0.00125197 -0.00250394 -0.00125197 -0.00375197 -0.00124803 -0.00250394 -0.00125197 -0.0025 -0.00125197 -0.00375197 -0.00124803 -0.00250394 -0.00125197 -0.0025 -0.00125197 -0.00375591 -0.00125197 -0.0025 -0.00124803 -0.00250394 -0.00125197 -0.00375197 -0.00125197 -0.0025 -0.00125197 -0.00250394 -0.00124803 -0.00375197 -0.00125197 -0.00250394 -0.00125197 -0.0025 -0.00125197 -0.00375197 -0.00124803 -0.00250394 -0.00125197 -0.0025 -0.00125197 -0.00375197 -0.00125197 -0.00250394 -0.00124803 -0.0025 -0.00125197 -0.00375591 -0.00125197 -0.0025 -0.00125197 -0.00250394 -0.00124803 -0.00375197 -0.00125197 -0.0025 -0.00125197 -0.00250394 -0.00125197 -0.00375197 -0.00124803 -0.00250394 -0.00125197 -0.0025 -0.00125197 -0.00375197 -0.00125197 -0.00250394 -0.00124803 -0.0025 -0.00125197 -0.00375197 -0.00125197 -0.00250394 -0.00125197 -0.0025 -0.00124803 -0.00375591 -0.00125197 -0.0025 -0.00125197 -0.00250394 -0.00124803 -0.00375197 -0.00125197 -0.0025 -0.00125197 -0.00250394 -0.00125197 -0.00375197 -0.00124803 -0.00250394 -0.00125197 -0.0025 -0.00125197 -0.00375197 -0.00125197 -0.00250394 -0.00124803 -0.0025 -0.00125197 -0.00375197 -0.00125197 -0.00250394 -0.00125197 -0.0025 -0.00124803 -0.00375591 -0.00125197 -0.0025 -0.00125197 -0.00250394 -0.00125197 -0.00375197 -0.00124803 -0.0025 -0.00125197 -0.00250394 -0.00125197 -0.00375197 -0.00125197 -0.00250394 -0.00124803 -0.0025 -0.00125197 -0.00375197 -0.00125197 -0.00250394 -0.00125197 -0.0025 -0.00124803 -0.00375197 -0.00125197 -0.00250394 -0.00125197 -0.0025 -0.00125197 -0.00375591 -0.00124803 -0.0025 -0.00125197 -0.00250394 -0.00125197 -0.00375197 -0.00125197 -0.0025 -0.00124803 -0.00250394 -0.00125197 -0.00375197 -0.00125197 -0.00250394 -0.00124803 -0.0025 -0.00125197 -0.00375197 -0.00125197 -0.00250394 -0.00125197 -0.0025 -0.00125197 -0.00375197 -0.00124803 -0.00250394 -0.00125197 -0.0025 -0.00125197 -0.00375591 -0.00124803 -0.0025 -0.00125197 -0.00250394 -0.00125197 -0.00375197 -0.00125197 -0.0025 -0.00124803 -0.00250394 -0.00125197 -0.00375197 -0.00125197 -0.00250394 -0.00125197 -0.0025 -0.00124803 -0.00375197 -0.0500394 -0.00125197 -0.0125118 -0.00125197 -0.00875591 -0.00125197 -0.00625197 -0.00124803 -0.00625591 -0.00125197 -0.00500394 -0.00125197 -0.00375197 -0.00124803 -0.00500394 -0.00125197 -0.00375591 -0.00125197 -0.00375197 -0.00125197 -0.00375197 -0.00124803 -0.00250394 -0.00125197 -0.00375197 -0.00125197 -0.00375197 -0.00125197 -0.0025 -0.00124803 -0.00250394 -0.00125197 -0.0025 -0.00125197 -0.00250394 -0.00125197 -0.0025 -0.00124803 -0.00250394 -0.00125197 -0.0025 -0.00125197 -0.00250394 -0.00125197 -0.0025 -0.00124803 -0.00125197 -0.00125197 -0.00250394 -0.00125197 -0.0025 -0.00125197 -0.00125197 -0.00124803 -0.0025 -0.00125197 -0.00125197 -0.00125197 -0.00250394 -0.00125197 -0.00124803 -0.00124803 -0.00250394 -0.00125197 -0.00125197 -0.00125197 -0.0025 -0.00125197 -0.00125197 -0.00124803 -0.00124803 -0.00125197 -0.00250394 -0.00125197 -0.00125197 -0.00125197 -0.00124803 -0.00124803 -0.00125197 -0.00125197 -0.00125197 -0.00125197 -0.0025 -0.00124803 -0.00125197 -0.00125197 -0.00125197 -0.00125197 -0.00125197 -0.00125197 -0.00124803 -0.00124803 -0.00125197 -0.00125197 -0.00125197 -0.00125197 -0.00125197 -0.00125197 -0.00124803 -0.00124803 -0.00125197 -0.00125197 -0.00125197 -0.00125197 -0.00125197 -0.00125197 -0.00124803 -0.00124803 -0.00125197 -0.00125197 -0.00125197 -0.00125197 -0.00125197 -0.00125197 -0.00124803 -0.00124803 -0.00125197 -0.00125197 -0.00125197 -0.00125197 -0.00125197 -0.00125197 -0.00124803 -0.0025 -0.00125197 -0.00125197 -0.00125197 -0.00125197 -0.00125197 -0.00124803 -0.00124803 -0.00250394 -0.00125197 -0.00125197 -0.00125197 -0.00124803 -0.00125197 -0.00250394 -0.00124803 -0.00125197 -0.00125197 -0.00124803 -0.00125197 -0.00250394 -0.00124803 -0.00124803 -0.00125197 -0.00250394 -0.00125197 -0.00125197 -0.00125197 -0.0025 -0.00124803 -0.00250394 -0.00125197 -0.00124803 -0.00125197 -0.00250394 -0.00125197 -0.0025 -0.00124803 -0.00125197 -0.00125197 -0.00250394 -0.00125197 -0.0025 -0.00125197 -0.00250394 -0.00124803 -0.0025 -0.00125197 -0.00250394 -0.00125197 -0.00375197 -0.00125197 -0.0025 -0.00124803 -0.00250394 -0.00125197 -0.00375197 -0.00125197 -0.0025 -0.00125197 -0.00375591 -0.00124803 -0.00375197 -0.00125197 -0.00375197 -0.00125197 -0.00375197 -0.00125197 -0.00500394 -0.00124803 -0.00500394 -0.00125197 -0.00500394 -0.00125197 -0.00625591 -0.00125197 -0.00625591 -0.00124803 -0.0100079 0 -0.0475354 0.00124803 -0.0100079 0.00125197 -0.00625591 0.00125197 -0.00625197 0.00125197 -0.00500394 0.00124803 -0.00500394 0.00125197 -0.00500394 0.00125197 -0.00375197 0.00125197 -0.00375591 0.00124803 -0.00375197 0.00125197 -0.00375197 0.00125197 -0.00250394 0.00125197 -0.00375197 0.00124803 -0.0025 0.00125197 -0.00250394 0.00125197 -0.00375197 0.00125197 -0.00250394 0.00124803 -0.0025 0.00125197 -0.00250394 0.00125197 -0.0025 0.00125197 -0.0025 0.00124803 -0.00125197 0.00125197 -0.00250394 0.00125197 -0.0025 0.00125197 -0.00125197 0.00124803 -0.0025 0.00125197 -0.00250394 0.00125197 -0.00125197 0.00125197 -0.0025 0.00124803 -0.00125197 0.00125197 -0.0025 0.00125197 -0.00125197 0.00124803 -0.00125197 0.00125197 -0.0025 0.00125197 -0.00125197 0.00125197 -0.00125197 0.00124803 -0.0025 0.00125197 -0.00125197 0.00125197 -0.00125197 0.00125197 -0.00125197 0.00124803 -0.0025 0.00125197 -0.00125197 0.00125197 -0.00125197 0.00125197 -0.00124803 0.00124803 -0.00125197 0.00125197 -0.00125197 0.00125197 -0.00124803 0.00125197 -0.00125197 0.00124803 -0.00125197 0.00125197 -0.00125197 0.00125197 -0.00124803 0.00125197 -0.00125197 0.00124803 -0.00125197 0.00125197 -0.00125197 0.00125197 -0.00124803 0.00125197 -0.00125197 0.00124803 -0.00125197 0.00125197 -0.00125197 0.00125197 -0.00124803 0.00125197 -0.00125197 0.0025 -0.00125197 0.00125197 -0.00125197 0.00125197 -0.00124803 0.00124803 -0.00125197 0.00125197 -0.00125197 0.00250394 -0.00125197 0.00124803 -0.00124803 0.00125197 -0.00125197 0.0025 -0.00125197 0.00125197 -0.00125197 0.00250394 -0.00124803 0.00124803 -0.00125197 0.00250394 -0.00125197 0.00125197 -0.00125197 0.0025 -0.00124803 0.00125197 -0.00125197 0.0025 -0.00125197 0.00250394 -0.00125197 0.00125197 -0.00124803 0.0025 -0.00125197 0.00250394 -0.00125197 0.0025 -0.00124803 0.00250394 -0.00125197 0.0025 -0.00125197 0.00250394 -0.00125197 0.0025 -0.00124803 0.00250394 -0.00125197 0.0025 -0.00125197 0.00375197 -0.00125197 0.00375197 -0.00124803 0.00250394 -0.00125197 0.00375197 -0.00125197 0.00375197 -0.00125197 0.00375591 -0.00124803 0.00500394 -0.00125197 0.00375197 -0.00125197 0.00500394 -0.00125197 0.00625591 -0.00124803 0.00625197 -0.00125197 0.00875591 -0.00125197 0.0125118 -0.00125197 0.392799 -0.00124803 0.00125197 -0.00125197 0.0025 -0.00125197 0.00125197 -0.00125197 0.00125197 -0.00124803 0.00125197 -0.00125197 0.0025 -0.00125197 0.00125197 -0.00125197 0.00125197 -0.00124803 0.00124803 -0.00125197 0.00125197 -0.00125197 0.00250394 -0.00125197 0.00124803 -0.00124803 0.00125197 -0.00125197 0.00125197 -0.00125197 0.0025 -0.00125197 0.00125197 -0.00124803 0.00125197 -0.00125197 0.00125197 -0.00125197 0.0025 -0.00124803 0.00125197 -0.00125197 0.00125197 -0.00125197 0.00124803 -0.00125197 0.00250394 -0.00124803 0.00124803 -0.00125197 0.00125197 -0.00125197 0.00125197 -0.00125197 0.0025 -0.00124803 0.00125197 -0.00125197 0.00125197 -0.00125197 0.00125197 -0.00125197 0.0025 -0.00124803 0.00125197 -0.00125197 0.00125197 -0.00125197 0.00124803 -0.00125197 0.00250394 -0.00124803 0.00125197 -0.00125197 0.00124803 -0.00125197 0.00125197 -0.00125197 0.00250394 -0.00124803 0.00124803 -0.00125197 0.00125197 -0.00125197 0.00125197 -0.00125197 0.0025 -0.00124803 0.00125197 -0.00125197 0.00125197 -0.00125197 0.00125197 -0.00125197 0.0025 -0.00124803 0.00125197 -0.00125197 0.00125197 -0.00125197 0.00124803 -0.00125197 0.00250394 -0.00124803 0.00124803 -0.00125197 0.00125197 -0.00125197 0.00125197 -0.00124803 0.0025 -0.00125197 0.00125197 -0.00125197 0.00125197 -0.00125197 0.00125197 -0.00124803 0.0025 -0.00125197 0.00125197 -0.00125197 0.00125197 -0.00125197 0.00124803 -0.00124803 0.00250394 -0.00125197 0.00125197 -0.00125197 0.00124803 -0.00125197 0.00125197 -0.00124803 0.00250394 -0.00125197 0.00124803 -0.00125197 0.00125197 -0.00125197 0.00125197 -0.00124803 0.0025 -0.00125197 0.00125197 -0.00125197 0.00125197 -0.00125197 0.00125197 -0.00124803 0.0025 -0.00125197 0.00125197 -0.00125197 0.00125197 -0.00125197 0.00124803 -0.00124803 0.00250394 -0.00125197 0.00125197 -0.00125197 0.00124803 -0.00125197 0.00125197 -0.00124803 0.0025 -0.00125197 0.00125197 -0.00125197 0.00125197 -0.00125197 0.00125197 -0.00124803 0.0025 -0.00125197 0.00125197 -0.00125197 0.00125197 -0.00124803 0.00124803 -0.00125197 0.00250394 -0.00125197 0.00125197 -0.00125197 0.00124803 -0.00124803 0.00125197 -0.00125197 0.00250394 -0.00125197 0.00124803 -0.00125197 0.00125197 -0.00124803 0.00125197 -0.00125197 0.0025 -0.00125197 0.00125197 -0.00125197 0.00125197 -0.00124803 0.00125197 -0.00125197 0.0025 -0.00125197 0.00125197 -0.00125197 0.00125197 -0.00124803 0.00124803 -0.00125197 0.00250394 -0.00125197 0.00125197 -0.00125197 0.00124803 -0.00124803 0.00125197 -0.00125197 0.0025 -0.00125197 0.00125197 -0.00125197 0.00125197 -0.00124803 0.00125197 -0.00125197 0.0025 -0.00125197 0.00125197 -0.00125197 0.00125197 -0.00124803 0.00124803 -0.00125197 0.00250394 -0.00125197 0.00125197 -0.00125197 0.00124803 -0.00124803 0.00125197 -0.00125197 0.00250394 -0.00125197 0.00124803 -0.00124803 0.00125197 -0.00125197 0.00125197 -0.00125197 0.0025 -0.00125197 0.00125197 -0.00124803 0.00125197 -0.00125197 0.00125197 -0.00125197 0.0025 -0.00125197 0.00125197 -0.00124803 0.00125197 -0.00125197 0.00124803 -0.00125197 0.00250394 -0.00125197 0.00125197 -0.00124803 0.00124803 -0.00125197 0.00125197 -0.00125197 0.0025 -0.00125197 0.00125197 -0.00124803 0.00125197 -0.00125197 0.00125197 -0.00125197 0.0025 -0.00125197 0.00125197 -0.00124803 0.00125197 -0.00125197 0.00124803 -0.00125197 0.00250394 -0.00125197 0.00125197 -0.00124803 0.00124803 -0.00125197 0.00125197 -0.00125197 0.00250394 -0.00125197 0.00124803 -0.00124803 0.00125197 -0.00125197 0.00125197 -0.00125197 0.0025 -0.00125197 0.00125197 -0.00124803 0.00125197 -0.00125197 0.00125197 -0.00125197 0.0025 -0.00124803 0.00125197 -0.00125197 0.00125197 -0.00125197 0.00124803 -0.00125197 0.00250394 -0.00125197 0.00125197 -0.00124803 0.00124803 -0.00125197 0.00125197 -0.00125197 0.0025 -0.00124803 0.00125197 -0.00125197 0.00125197 -0.00125197 0.00125197 -0.00125197 0.0025 -0.00124803 0.00125197 -0.00125197 0.00125197 -0.00125197 0.00124803 -0.00125197 0.00250394 -0.00124803 0.00125197 -0.00125197 0.00124803 -0.00125197 0.00125197 -0.00125197 0.00250394 -0.00124803 0.00124803 -0.00125197 0.00125197 -0.00125197 0.00125197 -0.00125197 0.0025 -0.00124803 0.00125197 -0.00125197 0.00125197 -0.00125197 0.0025 -0.00125197 0.00125197 -0.00124803 0.00125197 -0.00125197 0.0025 -0.00125197 0.00250394 -0.00125197 0.0025 -0.00124803 0.00250394 -0.00125197 0.00375197 -0.00125197 0.00500394 -0.00124803 0.00625197 -0.00125197zm-0.296472 0.307736l0.00124803 -0.00125197 0.00250394 -0.00125197 0.00125197 -0.00125197 0.00124803 -0.00124803 0.00125197 -0.00125197 0.00250394 -0.00125197 0.00124803 -0.00125197 0.00125197 -0.00124803 0.00125197 -0.00125197 0.0025 -0.00125197 0.00125197 -0.00125197 0.00125197 -0.00124803 0.00124803 -0.00125197 0.00250394 -0.00125197 0.00125197 -0.00125197 0.00124803 -0.00124803 0.00125197 -0.00125197 0.00250394 -0.00125197 0.00124803 -0.00125197 0.00125197 -0.00124803 0.00125197 -0.00125197 0.0025 -0.00125197 0.00125197 -0.00125197 0.00125197 -0.00124803 0.00125197 -0.00125197 0.0025 -0.00125197 0.00125197 -0.00125197 0.00125197 -0.00124803 0.00124803 -0.00125197 0.00250394 -0.00125197 0.00125197 -0.00124803 0.00124803 -0.00125197 0.00125197 -0.00125197 0.00250394 -0.00125197 0.00124803 -0.00124803 0.00125197 -0.00125197 0.00125197 -0.00125197 0.0025 -0.00125197 0.00125197 -0.00124803 0.00125197 -0.00125197 0.00124803 -0.00125197 0.00250394 -0.00125197 0.00125197 -0.00124803 0.00124803 -0.00125197 0.00125197 -0.00125197 0.00250394 -0.00125197 0.00124803 -0.00124803 0.00125197 -0.00125197 0.00125197 -0.00125197 0.0025 -0.00125197 0.00125197 -0.00124803 0.00125197 -0.00125197 0.00125197 -0.00125197 0.0025 -0.00125197 0.00125197 -0.00124803 0.00125197 -0.00125197 0.00124803 -0.00125197 0.00250394 -0.00125197 0.00125197 -0.00124803 0.00124803 -0.00125197 0.00125197 -0.00125197 0.00250394 -0.00125197 0.00124803 -0.00124803 0.00125197 -0.00125197 0.00125197 -0.00125197 0.0025 -0.00125197 0.00125197 -0.00124803 0.00125197 -0.00125197 0.00124803 -0.00125197 0.00250394 -0.00124803 0.00125197 -0.00125197 0.00124803 -0.00125197 0.00125197 -0.00125197 0.00250394 -0.00124803 0.00124803 -0.00125197 0.00125197 -0.00125197 0.00125197 -0.00125197 0.0025 -0.00124803 0.00125197 -0.00125197 0.00125197 -0.00125197 0.00125197 -0.00125197 0.0025 -0.00124803 0.00125197 -0.00125197 0.00125197 -0.00125197 0.00124803 -0.00125197 0.00250394 -0.00124803 0.00125197 -0.00125197 0.00124803 -0.00125197 0.00125197 -0.00125197 0.00250394 -0.00124803 0.00124803 -0.00125197 0.00125197 -0.00125197 0.00125197 -0.00125197 0.0025 -0.00124803 0.00125197 -0.00125197 0.00125197 -0.00125197 0.00124803 -0.00125197 0.00250394 -0.00124803 0.00125197 -0.00125197 0.00124803 -0.00125197 0.00125197 -0.00125197 0.00250394 -0.00124803 0.00124803 -0.00125197 0.00125197 -0.00125197 0.00125197 -0.00124803 0.0025 -0.00125197 0.00125197 -0.00125197 0.00125197 -0.00125197 0.00125197 -0.00124803 0.0025 -0.00125197 0.00125197 -0.00125197 0.00125197 -0.00125197 0.00124803 -0.00124803 0.00250394 -0.00125197 0.00125197 -0.00125197 0.00124803 -0.00125197 0.00125197 -0.00124803 0.00250394 -0.00125197 0.00124803 -0.00125197 0.00125197 -0.00125197 0.00125197 -0.00124803 0.0025 -0.00125197 0.00125197 -0.00125197 0.00125197 -0.00125197 0.00124803 -0.00124803 0.00250394 -0.00125197 0.00125197 -0.00125197 0.00124803 -0.00125197 0.00125197 -0.00124803 0.00250394 -0.00125197 0.00124803 -0.00125197 0.00125197 -0.00125197 0.00125197 -0.00124803 0.0025 -0.00125197 0.00125197 -0.00125197 0.00125197 -0.00125197 0.00125197 -0.00124803 0.0025 -0.00125197 0.00125197 -0.00125197 0.00125197 -0.00124803 0.00124803 -0.00125197 0.00250394 -0.00125197 0.00125197 -0.00125197 0.00124803 -0.00124803 0.00125197 -0.00125197 0.00250394 -0.00125197 0.00124803 -0.00125197 0.00125197 -0.00124803 0.00125197 -0.00125197 0.0025 -0.00125197 0.00125197 -0.00125197 0.00125197 -0.00124803 0.00124803 -0.00125197 0.00250394 -0.00125197 0.00125197 -0.00125197 0.00124803 -0.00124803 0.00125197 -0.00125197 0.00250394 -0.00125197 0.00124803 -0.00125197 0.00125197 -0.00124803 0.00125197 -0.00125197 0.0025 -0.00125197 0.00125197 -0.00125197 0.00125197 -0.00124803 0.00125197 -0.00125197 0.0025 -0.00125197 0.00125197 -0.00125197 0.00125197 -0.00124803 0.00124803 -0.00125197 0.00250394 -0.00125197 0.00125197 -0.00125197 0.00124803 -0.00124803 0.00125197 -0.00125197 0.00250394 -0.00125197 0.00124803 -0.00124803 0.00125197 -0.00125197 0.00125197 -0.00125197 0.0025 -0.00125197 0.00125197 -0.00124803 0.00125197 -0.00125197 0.00124803 -0.00125197 0.00250394 -0.00125197 0.00125197 -0.00124803 0.00124803 -0.00125197 0.00125197 -0.00125197 0.00250394 -0.00125197 0.00124803 -0.00124803 0.00125197 -0.00125197 0.00125197 -0.00125197 0.0025 -0.00125197 0.00125197 -0.00124803 0.00125197 -0.00125197 0.00125197 -0.00125197 0.0025 -0.00125197 0 0.790606 -0.0025 -0.00125197 -0.00125197 -0.00124803 -0.00125197 -0.00125197 -0.00125197 -0.00125197 -0.0025 -0.00125197 -0.00125197 -0.00124803 -0.00125197 -0.00125197 -0.00124803 -0.00125197 -0.00250394 -0.00125197 -0.00125197 -0.00124803 -0.00124803 -0.00125197 -0.00125197 -0.00125197 -0.00250394 -0.00125197 -0.00124803 -0.00124803 -0.00125197 -0.00125197 -0.00125197 -0.00125197 -0.0025 -0.00125197 -0.00125197 -0.00124803 -0.00125197 -0.00125197 -0.00124803 -0.00125197 -0.00250394 -0.00125197 -0.00125197 -0.00124803 -0.00124803 -0.00125197 -0.00125197 -0.00125197 -0.00250394 -0.00125197 -0.00124803 -0.00124803 -0.00125197 -0.00125197 -0.00125197 -0.00125197 -0.0025 -0.00125197 -0.00125197 -0.00124803 -0.00125197 -0.00125197 -0.00125197 -0.00125197 -0.0025 -0.00125197 -0.00125197 -0.00124803 -0.00125197 -0.00125197 -0.00124803 -0.00125197 -0.00250394 -0.00124803 -0.00125197 -0.00125197 -0.00124803 -0.00125197 -0.00125197 -0.00125197 -0.00250394 -0.00124803 -0.00124803 -0.00125197 -0.00125197 -0.00125197 -0.00125197 -0.00125197 -0.0025 -0.00124803 -0.00125197 -0.00125197 -0.00125197 -0.00125197 -0.00124803 -0.00125197 -0.00250394 -0.00124803 -0.00125197 -0.00125197 -0.00124803 -0.00125197 -0.00125197 -0.00125197 -0.00250394 -0.00124803 -0.00124803 -0.00125197 -0.00125197 -0.00125197 -0.00125197 -0.00125197 -0.0025 -0.00124803 -0.00125197 -0.00125197 -0.00125197 -0.00125197 -0.00125197 -0.00125197 -0.0025 -0.00124803 -0.00125197 -0.00125197 -0.00125197 -0.00125197 -0.00124803 -0.00125197 -0.00250394 -0.00124803 -0.00125197 -0.00125197 -0.00124803 -0.00125197 -0.00125197 -0.00125197 -0.00250394 -0.00124803 -0.00124803 -0.00125197 -0.00125197 -0.00125197 -0.00125197 -0.00124803 -0.0025 -0.00125197 -0.00125197 -0.00125197 -0.00125197 -0.00125197 -0.00124803 -0.00124803 -0.00250394 -0.00125197 -0.00125197 -0.00125197 -0.00124803 -0.00125197 -0.00125197 -0.00124803 -0.00250394 -0.00125197 -0.00124803 -0.00125197 -0.00125197 -0.00125197 -0.00125197 -0.00124803 -0.0025 -0.00125197 -0.00125197 -0.00125197 -0.00125197 -0.00125197 -0.00125197 -0.00124803 -0.0025 -0.00125197 -0.00125197 -0.00125197 -0.00125197 -0.00125197 -0.00124803 -0.00124803 -0.00250394 -0.00125197 -0.00125197 -0.00125197 -0.00124803 -0.00125197 -0.00125197 -0.00124803 -0.00250394 -0.00125197 -0.00124803 -0.00125197 -0.00125197 -0.00125197 -0.00125197 -0.00124803 -0.0025 -0.00125197 -0.00125197 -0.00125197 -0.00125197 -0.00125197 -0.00124803 -0.00124803 -0.00250394 -0.00125197 -0.00125197 -0.00125197 -0.00124803 -0.00124803 -0.00125197 -0.00125197 -0.00250394 -0.00125197 -0.00124803 -0.00125197 -0.00125197 -0.00125197 -0.00125197 -0.00124803 -0.0025 -0.00125197 -0.00125197 -0.00125197 -0.00125197 -0.00124803 -0.00125197 -0.00125197 -0.0025 -0.00125197 -0.00125197 -0.00125197 -0.00125197 -0.00124803 -0.00124803 -0.00125197 -0.00250394 -0.00125197 -0.00125197 -0.00125197 -0.00124803 -0.00124803 -0.00125197 -0.00125197 -0.00250394 -0.00125197 -0.00124803 -0.00125197 -0.00125197 -0.00124803 -0.00125197 -0.00125197 -0.0025 -0.00125197 -0.00125197 -0.00125197 -0.00125197 -0.00124803 -0.00124803 -0.00125197 -0.00250394 -0.00125197 -0.00125197 -0.00125197 -0.00124803 -0.00124803 -0.00125197 -0.00125197 -0.00250394 -0.00125197 -0.00124803 -0.00125197 -0.00125197 -0.00124803 -0.00125197 -0.00125197 -0.0025 -0.00125197 -0.00125197 -0.00124803 -0.00125197 -0.00125197 -0.00125197 -0.00125197 -0.0025 -0.00125197 -0.00125197 -0.00125197 -0.00125197 -0.00124803 -0.00124803 -0.00125197 -0.00250394 -0.00125197 -0.00125197 -0.00124803 -0.00124803 -0.00125197 -0.00125197 -0.00125197 -0.00250394 -0.00125197 -0.00124803 -0.00124803 -0.00125197 -0.00125197 -0.00125197 -0.00125197 -0.0025 -0.00125197 -0.00125197 -0.00124803 -0.00125197 -0.00125197 -0.00124803 -0.00125197 -0.00250394 -0.00125197 -0.00125197 -0.00124803 -0.00124803 -0.00125197 -0.00125197 -0.00125197 -0.00250394 -0.00125197 -0.00124803 -0.00124803 -0.00125197 -0.00125197 -0.00125197 -0.00125197 -0.0025 -0.00125197 -0.00125197 -0.00124803 -0.00125197 -0.00125197 -0.00125197 -0.00125197 -0.0025 -0.00125197 -0.00125197 -0.00124803 -0.00125197 -0.00125197 -0.00124803 -0.00125197 -0.00250394 -0.00125197 -0.00125197 -0.00124803 -0.00124803 -0.00125197 -0.00125197 -0.00125197 -0.00250394 -0.00125197 -0.00124803 -0.00124803 -0.00125197 -0.00125197 -0.00125197 -0.00125197 -0.0025 -0.00124803 -0.00125197 -0.00125197 -0.00125197 -0.00125197 -0.00124803 -0.00125197 -0.00250394 -0.00124803 -0.00125197 -0.00125197 -0.00124803 -0.00125197 -0.00125197 -0.00125197 -0.00250394 -0.00124803 -0.00124803 -0.00125197 -0.307736 0 0 -0.305232 0.307736 0zm-0.550421 0.13385l0.00124803 -0.00875591 0.00125197 -0.00625591 0.00125197 -0.00500394 0.00125197 -0.00375197 0.00124803 -0.00500394 0.00125197 -0.00250394 0.00125197 -0.00375197 0.00125197 -0.00375197 0.00124803 -0.0025 0.00125197 -0.00250394 0.00125197 -0.00375197 0.00125197 -0.00250394 0.00124803 -0.00124803 0.00125197 -0.00250394 0.00125197 -0.0025 0.00125197 -0.00250394 0.00124803 -0.0025 0.00125197 -0.00125197 0.00125197 -0.00250394 0.00124803 -0.00124803 0.00125197 -0.00250394 0.00125197 -0.00125197 0.00125197 -0.00124803 0.00124803 -0.00250394 0.00125197 -0.00125197 0.00125197 -0.00124803 0.00125197 -0.00250394 0.00124803 -0.00125197 0.00125197 -0.00124803 0.00125197 -0.00125197 0.00125197 -0.00125197 0.00124803 -0.00124803 0.00125197 -0.00125197 0.00125197 -0.00125197 0.00125197 -0.00125197 0.00124803 -0.00124803 0.00125197 -0.00125197 0.00125197 -0.00125197 0.00125197 -0.00125197 0.00124803 -0.00124803 0.00125197 -0.00125197 0.00125197 -0.00125197 0.0025 -0.00125197 0.00125197 -0.00124803 0.00125197 -0.00125197 0.00125197 -0.00125197 0.0025 -0.00125197 0.00125197 -0.00124803 0.0025 -0.00125197 0.00125197 -0.00125197 0.0025 -0.00125197 0.00125197 -0.00124803 0.00250394 -0.00125197 0.0025 -0.00125197 0.00125197 -0.00125197 0.0025 -0.00124803 0.00250394 -0.00125197 0.0025 -0.00125197 0.00250394 -0.00125197 0.0025 -0.00124803 0.00375591 -0.00125197 0.0025 -0.00125197 0.00375197 -0.00125197 0.00250394 -0.00124803 0.00375197 -0.00125197 0.00500394 -0.00125197 0.00500394 -0.00124803 0.00500394 -0.00125197 0.00750394 -0.00125197 0.0100079 -0.00125197 0.0437835 -0.00124803 0 0.305291 -0.0437835 -0.00131102 -0.0100079 -0.00125197 -0.00750394 -0.00124803 -0.00500394 -0.00125197 -0.00500394 -0.00125197 -0.00375197 -0.00125197 -0.00500394 -0.00124803 -0.00250394 -0.00125197 -0.00375197 -0.00125197 -0.00375197 -0.00125197 -0.00250394 -0.00124803 -0.0025 -0.00125197 -0.00250394 -0.00125197 -0.0025 -0.00125197 -0.00250394 -0.00124803 -0.0025 -0.00125197 -0.00125197 -0.00125197 -0.0025 -0.00125197 -0.00250394 -0.00124803 -0.00125197 -0.00125197 -0.0025 -0.00125197 -0.00125197 -0.00125197 -0.0025 -0.00124803 -0.00125197 -0.00125197 -0.0025 -0.00125197 -0.00125197 -0.00124803 -0.00125197 -0.00125197 -0.00125197 -0.00125197 -0.0025 -0.00125197 -0.00125197 -0.00124803 -0.00125197 -0.00125197 -0.00124803 -0.00125197 -0.00125197 -0.00125197 -0.00125197 -0.00124803 -0.00125197 -0.00125197 -0.00124803 -0.00125197 -0.00125197 -0.00125197 -0.00125197 -0.00124803 -0.00125197 -0.00125197 -0.00124803 -0.00125197 -0.00125197 -0.00125197 -0.00125197 -0.00124803 -0.00125197 -0.00125197 -0.00124803 -0.00125197 -0.00125197 -0.0025 -0.00125197 -0.00125197 -0.00125197 -0.00125197 -0.00124803 -0.0025 -0.00125197 -0.00125197 -0.00125197 -0.00125197 -0.00125197 -0.0025 -0.00124803 -0.00125197 -0.00125197 -0.00250394 -0.00125197 -0.00124803 -0.00124803 -0.00250394 -0.00125197 -0.0025 -0.00125197 -0.00250394 -0.00125197 -0.0025 -0.00124803 -0.00125197 -0.00125197 -0.0025 -0.00125197 -0.00375591 -0.00125197 -0.0025 -0.00124803 -0.00250394 -0.00125197 -0.00375197 -0.00125197 -0.00375197 -0.00125197 -0.00250394 -0.00124803 -0.00500394 -0.00125197 -0.00375197 -0.00125197 -0.00500394 -0.00125197 -0.00625197 -0.00124803 -0.00875984 0 -0.0375276zm0.974492 0.0450354l-0.00124803 0.00625591 -0.00125197 0.005 -0.00125197 0.00500394 -0.00124803 0.00375591 -0.00125197 0.00375197 -0.00125197 0.00375197 -0.00125197 0.00250394 -0.00124803 0.00375197 -0.00125197 0.0025 -0.00125197 0.00250394 -0.00125197 0.0025 -0.00124803 0.00250394 -0.00125197 0.0025 -0.00125197 0.00125197 -0.00125197 0.00250394 -0.00124803 0.0025 -0.00125197 0.00125197 -0.00125197 0.0025 -0.00125197 0.00250394 -0.00124803 0.00124803 -0.00125197 0.00125197 -0.00125197 0.00250394 -0.00125197 0.00124803 -0.00124803 0.00125197 -0.00125197 0.00250394 -0.00125197 0.00124803 -0.00125197 0.00125197 -0.00124803 0.00125197 -0.00125197 0.00125197 -0.00125197 0.00124803 -0.00125197 0.00250394 -0.00124803 0.00125197 -0.00125197 0.00124803 -0.00125197 0.00125197 -0.00125197 0.00125197 -0.00124803 0.00125197 -0.00250394 0.00124803 -0.00124803 0.00125197 -0.00125197 0.00125197 -0.00125197 0.00125197 -0.00125197 0.00124803 -0.00124803 0.00125197 -0.00250394 0.00125197 0 -0.237681 0.00250394 0.00124803 0.00124803 0.00125197 0.00125197 0.00125197 0.00125197 0.00125197 0.00125197 0.00124803 0.00124803 0.00125197 0.00250394 0.00125197 0.00124803 0.00125197 0.00125197 0.00124803 0.00125197 0.00125197 0.00125197 0.00125197 0.00124803 0.00125197 0.00125197 0.0025 0.00125197 0.00125197 0.00125197 0.00124803 0.00124803 0.00125197 0.00125197 0.00125197 0.00125197 0.00125197 0.00125197 0.0025 0.00124803 0.00125197 0.00125197 0.00125197 0.00125197 0.0025 0.00125197 0.00125197 0.00124803 0.0025 0.00125197 0.00125197 0.00125197 0.00250394 0.00125197 0.00124803 0.00124803 0.00250394 0.00125197 0.0025 0.00125197 0.00125197 0.00125197 0.00250394 0.00124803 0.0025 0.00125197 0.00250394 0.00125197 0.0025 0.00125197 0.00375197 0.00124803 0.00250394 0.00125197 0.0025 0.00125197 0.00375197 0.00125197 0.00375591 0.00124803 0.00375197 0.00125197 0.00500394 0.00125197 0.00500394 0.00124803 0.00625591 0.00125197 0.00875591 0 0.0350276 -0.00125197 0.00875591z"/>
 </g>
</svg>
