<?xml version="1.0" encoding="UTF-8"?>
<!DOCTYPE svg PUBLIC "-//W3C//DTD SVG 1.1//EN" "http://www.w3.org/Graphics/SVG/1.1/DTD/svg11.dtd">
<!-- Creator: CorelDRAW -->
<svg xmlns="http://www.w3.org/2000/svg" xml:space="preserve" width="5in" height="5in" style="shape-rendering:geometricPrecision; text-rendering:geometricPrecision; image-rendering:optimizeQuality; fill-rule:evenodd; clip-rule:evenodd"
viewBox="0 0 5 5"
 xmlns:xlink="http://www.w3.org/1999/xlink">
 <defs>
  <style type="text/css">
   <![CDATA[
    .str0 {stroke:#DEDEDD;stroke-width:0.22222}
    .fil1 {fill:#0093DD}
    .fil0 {fill:white}
   ]]>
  </style>
 </defs>
 <g id="Layer_x0020_1">
  <metadata id="CorelCorpID_0Corel-Layer"/>
  <path class="fil0 str0" d="M2.5 0.192551c1.27415,0 2.30745,1.0333 2.30745,2.30745 0,1.27415 -1.0333,2.30745 -2.30745,2.30745 -1.27415,0 -2.30745,-1.0333 -2.30745,-2.30745 0,-1.27415 1.0333,-2.30745 2.30745,-2.30745z"/>
  <g id="_109159872">
   <polygon id="_109160856" class="fil1" points="2.67956,0.859539 2.66696,0.862689 2.65436,0.865839 2.64806,0.868988 2.63861,0.872138 2.63231,0.875287 2.62601,0.878441 2.6197,0.881591 2.61656,0.88474 2.61341,0.88789 2.60711,0.891039 2.60396,0.894189 2.60081,0.897343 2.59765,0.900492 2.5945,0.903642 2.59135,0.906791 2.5882,0.909941 2.58506,0.913091 2.58191,0.919394 2.57875,0.922543 2.5756,0.928843 2.57245,0.935142 2.5693,0.941445 2.56615,0.947744 2.563,0.957193 2.55985,0.966646 2.5567,0.982398 2.55355,1.0013 2.5504,1.0391 2.54725,1.06115 2.5441,1.1147 2.54095,1.15251 2.5378,1.17771 2.53465,1.19976 2.5315,1.21867 2.52835,1.23442 2.5252,1.25017 2.52205,1.26277 2.5189,1.27852 2.51575,1.28797 2.5126,1.30057 2.50945,1.31317 2.5063,1.32262 2.50315,1.33207 2.5,1.34152 2.49685,1.35097 2.4937,1.36043 2.49055,1.36987 2.4874,1.37933 2.48425,1.38878 2.48109,1.39508 2.47794,1.40453 2.4748,1.41083 2.47165,1.42028 2.4685,1.42658 2.46535,1.43603 2.46219,1.44233 2.45904,1.44863 2.45589,1.45808 2.45274,1.46438 2.44959,1.47068 2.44644,1.47698 2.4433,1.48328 2.44014,1.48958 2.43699,1.49588 2.43384,1.50219 2.43069,1.50848 2.42754,1.51479 2.42439,1.52109 2.42124,1.52739 2.41809,1.53369 2.41494,1.53999 2.41179,1.54629 2.40864,1.54944 2.40549,1.55574 2.40234,1.56204 2.39919,1.56834 2.39604,1.57149 2.39289,1.57779 2.38974,1.58409 2.38659,1.58724 2.38344,1.59354 2.38029,1.59984 2.37714,1.60299 2.37399,1.60929 2.37084,1.61559 2.36769,1.61874 2.36454,1.62504 2.36139,1.62819 2.35824,1.6345 2.35509,1.6408 2.35194,1.64394 2.34879,1.65024 2.34563,1.65339 2.34248,1.6597 2.33933,1.66285 2.33619,1.666 2.33304,1.6723 2.32989,1.67545 2.32673,1.68175 2.32358,1.6849 2.32043,1.6912 2.31728,1.69435 2.31413,1.6975 2.31098,1.7038 2.30783,1.70695 2.30468,1.71325 2.30153,1.7164 2.29838,1.71955 2.29523,1.72585 2.29208,1.729 2.28893,1.73215 2.28578,1.73845 2.28263,1.7416 2.27948,1.74475 2.27633,1.75106 2.27318,1.7542 2.27003,1.75735 2.26688,1.7605 2.26373,1.7668 2.26058,1.76995 2.25743,1.77311 2.25428,1.77626 2.25113,1.78256 2.24798,1.7857 2.24483,1.78885 2.24168,1.79201 2.23853,1.79831 2.23538,1.80146 2.23223,1.80461 2.22908,1.80776 2.22593,1.81091 2.22278,1.81721 2.21963,1.82036 2.21648,1.82351 2.21333,1.82666 2.21018,1.82981 2.20703,1.83296 2.20387,1.83926 2.20072,1.84241 2.19757,1.84556 2.19443,1.84871 2.19128,1.85186 2.18813,1.85501 2.18497,1.85816 2.18182,1.86131 2.17867,1.86446 2.17552,1.87076 2.17237,1.87391 2.16922,1.87706 2.16607,1.88021 2.16292,1.88336 2.15977,1.88651 2.15662,1.88967 2.15347,1.89281 2.15032,1.89596 2.14717,1.89911 2.14402,1.90226 2.14087,1.90541 2.13772,1.90857 2.13457,1.91172 2.13142,1.91487 2.12827,1.91802 2.12512,1.92117 2.12197,1.92431 2.11882,1.92746 2.11567,1.93062 2.11252,1.93377 2.10937,1.93692 2.10622,1.94007 2.10307,1.94322 2.09992,1.94637 2.09677,1.94952 2.09362,1.95267 2.09047,1.95582 2.08732,1.95897 2.08417,1.96212 2.08102,1.96527 2.07787,1.96842 2.07472,1.97157 2.07157,1.97472 2.06842,1.97787 2.06526,1.98102 2.06211,1.98417 2.05896,1.98732 2.05581,1.99047 2.05267,1.99362 2.04952,1.99677 2.04321,1.99992 2.04006,2.00307 2.03691,2.00622 2.03376,2.00937 2.03061,2.01252 2.02746,2.01567 2.02431,2.01882 2.02116,2.02197 2.01801,2.02512 2.01171,2.02828 2.00856,2.03143 2.00541,2.03457 2.00226,2.03772 1.99911,2.04087 1.99596,2.04402 1.98966,2.04718 1.98651,2.05033 1.98336,2.05348 1.98021,2.05663 1.97706,2.05978 1.97076,2.06293 1.96761,2.06608 1.96446,2.06923 1.96131,2.07238 1.95501,2.07553 1.95186,2.07868 1.9487,2.08183 1.94556,2.08498 1.93926,2.08813 1.93926,3.75775 1.94241,3.77035 1.94556,3.7798 1.9487,3.78925 1.95186,3.79556 1.95501,3.80185 1.95816,3.80815 1.96131,3.81446 1.96446,3.81761 1.96761,3.82391 1.97076,3.82706 1.97391,3.8302 1.97706,3.83335 1.98021,3.83966 1.98336,3.84281 1.98651,3.84596 1.98966,3.84911 1.99281,3.85226 1.99596,3.85541 1.99911,3.85856 2.00541,3.86171 2.00856,3.86486 2.01171,3.86801 2.01486,3.87116 2.02116,3.87431 2.02431,3.87746 2.03061,3.88061 2.03376,3.88376 2.04006,3.88691 2.04321,3.89006 2.04952,3.89321 2.05581,3.89636 2.06211,3.89951 2.06842,3.90266 2.07472,3.90581 2.08102,3.90896 2.09047,3.91211 2.09677,3.91526 2.10622,3.91841 2.11252,3.92156 2.12197,3.92471 2.13142,3.92786 2.14402,3.93102 2.15662,3.93417 2.16922,3.93731 2.18497,3.94046 2.20387,3.94361 3.49862,3.94361 3.50807,3.94046 3.51437,3.93731 3.52067,3.93417 3.52382,3.93102 3.53012,3.92786 3.53328,3.92471 3.53643,3.92156 3.53957,3.91841 3.54272,3.91526 3.54587,3.91211 3.54902,3.90896 3.55218,3.90581 3.55533,3.90266 3.55848,3.89951 3.56163,3.89636 3.56478,3.89321 3.56793,3.89006 3.57107,3.88691 3.57423,3.88061 3.57738,3.87746 3.58053,3.87431 3.58368,3.86801 3.58683,3.86486 3.58998,3.85856 3.59313,3.85541 3.59628,3.84911 3.59943,3.84596 3.60258,3.83966 3.60573,3.83335 3.60888,3.8302 3.61203,3.82391 3.61518,3.81761 3.61833,3.8113 3.62148,3.805 3.62463,3.7987 3.62778,3.79241 3.63093,3.7861 3.63408,3.7798 3.63723,3.7735 3.64038,3.7672 3.64353,3.7609 3.64669,3.7546 3.64983,3.74515 3.65298,3.73885 3.65613,3.73255 3.65928,3.7231 3.66243,3.7168 3.66558,3.70735 3.66874,3.70105 3.67189,3.69159 3.67504,3.68215 3.67819,3.67584 3.68133,3.66639 3.68448,3.65694 3.68764,3.64749 3.69079,3.63804 3.69394,3.62544 3.69709,3.61599 3.70024,3.60654 3.70339,3.59394 3.70654,3.58449 3.70969,3.57189 3.71284,3.56244 3.71599,3.54983 3.71914,3.54039 3.72229,3.52778 3.72544,3.51833 3.72859,3.50573 3.73174,3.49628 3.73489,3.48368 3.73804,3.47423 3.74119,3.46163 3.74434,3.45218 3.74749,3.43958 3.75064,3.43013 3.75379,3.41753 3.75694,3.40807 3.76009,3.39548 3.76324,3.38287 3.76639,3.37342 3.76954,3.36082 3.77269,3.35137 3.77584,3.33877 3.77899,3.32617 3.78214,3.31672 3.78529,3.30412 3.78844,3.29152 3.79159,3.28207 3.79474,3.26946 3.79789,3.25687 3.80104,3.24426 3.80419,3.23481 3.80735,3.22221 3.8105,3.20961 3.81365,3.19701 3.8168,3.18441 3.81994,3.17496 3.82309,3.16236 3.82625,3.14976 3.8294,3.13715 3.83255,3.12456 3.8357,3.11195 3.83885,3.09935 3.842,3.08675 3.84515,3.07415 3.8483,3.06155 3.85145,3.04895 3.8546,3.03635 3.85775,3.0269 3.8609,3.0143 3.86405,3.00169 3.8672,2.98909 3.87035,2.97334 3.8735,2.96074 3.87665,2.94814 3.8798,2.93554 3.88295,2.92294 3.8861,2.90719 3.88925,2.89459 3.8924,2.88199 3.89555,2.86939 3.8987,2.85363 3.90185,2.84103 3.905,2.82528 3.90815,2.81268 3.9113,2.79693 3.91445,2.78433 3.9176,2.76858 3.92075,2.75598 3.9239,2.74023 3.92705,2.72448 3.9302,2.71187 3.93335,2.69612 3.9365,2.68037 3.93965,2.66462 3.9428,2.64887 3.94595,2.63312 3.94911,2.61737 3.95226,2.60161 3.95541,2.58272 3.95856,2.56696 3.9617,2.54806 3.96485,2.53231 3.96801,2.51341 3.97116,2.49451 3.97431,2.47246 3.97746,2.45356 3.98061,2.4315 3.98376,2.40945 3.98691,2.38425 3.99006,2.35905 3.99321,2.32441 3.99321,2.25823 3.99006,2.23619 3.98691,2.22359 3.98376,2.21099 3.98061,2.20154 3.97746,2.19524 3.97431,2.18894 3.97116,2.18263 3.96801,2.17633 3.96485,2.17003 3.9617,2.16688 3.95856,2.16058 3.95541,2.15743 3.95226,2.15428 3.94911,2.15113 3.94595,2.14798 3.9428,2.14483 3.93965,2.14168 3.9365,2.13853 3.93335,2.13538 3.9302,2.13223 3.92705,2.12908 3.92075,2.12593 3.9176,2.12278 3.9113,2.11963 3.90815,2.11648 3.90185,2.11333 3.89555,2.11018 3.8861,2.10703 3.8798,2.10388 3.87035,2.10073 3.85775,2.09758 3.84515,2.09443 3.82625,2.09128 2.96895,2.09122 2.97253,2.07868 2.97568,2.06608 2.97883,2.05348 2.98198,2.04087 2.98513,2.03143 2.98828,2.01567 2.99143,2.00307 2.99458,1.99047 2.99774,1.97787 3.00089,1.96527 3.00404,1.95267 3.00719,1.93692 3.01033,1.92431 3.01348,1.90857 3.01663,1.89281 3.01979,1.88021 3.02294,1.86446 3.02609,1.84871 3.02924,1.82981 3.03239,1.81406 3.03554,1.79516 3.03869,1.77941 3.04184,1.75735 3.04499,1.73845 3.04814,1.7164 3.05129,1.69435 3.05444,1.66915 3.05759,1.64394 3.06074,1.61244 3.06389,1.57779 3.06704,1.52424 3.06704,1.37618 3.06389,1.33207 3.06074,1.30057 3.05759,1.27852 3.05444,1.25647 3.05129,1.24072 3.04814,1.22496 3.04499,1.20921 3.04184,1.19661 3.03869,1.18401 3.03554,1.17141 3.03239,1.15881 3.02924,1.14936 3.02609,1.13991 3.02294,1.13046 3.01979,1.12101 3.01663,1.1147 3.01348,1.10526 3.01033,1.09896 3.00719,1.0895 3.00404,1.0832 3.00089,1.07691 2.99774,1.0706 2.99458,1.0643 2.99143,1.058 2.98828,1.0517 2.98513,1.0454 2.98198,1.0391 2.97883,1.0328 2.97568,1.0265 2.97253,1.02335 2.96938,1.01705 2.96623,1.0139 2.96308,1.0076 2.95993,1.00445 2.95678,0.998146 2.95363,0.994996 2.95048,0.988697 2.94733,0.985547 2.94418,0.982398 2.94103,0.979244 2.93788,0.972945 2.93473,0.969795 2.93158,0.966646 2.92843,0.963496 2.92528,0.960346 2.92213,0.957193 2.91898,0.954043 2.91583,0.947744 2.91268,0.944594 2.90953,0.941445 2.90638,0.938291 2.90323,0.935142 2.89693,0.931992 2.89378,0.928843 2.89063,0.925693 2.88748,0.922543 2.88433,0.919394 2.88117,0.91624 2.87487,0.913091 2.87172,0.909941 2.86857,0.906791 2.86228,0.903642 2.85912,0.900492 2.85282,0.897343 2.84967,0.894189 2.84337,0.891039 2.84022,0.88789 2.83392,0.88474 2.82762,0.881591 2.82132,0.878441 2.81502,0.875287 2.80872,0.872138 2.79927,0.868988 2.79297,0.865839 2.78352,0.862689 2.77407,0.859539 2.76147,0.856386 2.69846,0.856386 "/>
   <polygon id="_109160784" class="fil1" points="1.07609,2.09443 1.06664,2.09758 1.06034,2.10073 1.05404,2.10388 1.05089,2.10703 1.04459,2.11018 1.04144,2.11333 1.03829,2.11648 1.03514,2.11963 1.03199,2.12278 1.02884,2.12593 1.02569,2.13223 1.02254,2.13538 1.01939,2.14168 1.01624,2.14798 1.01309,2.15428 1.00994,2.16373 1.00679,2.17948 1.00679,2.22045 1.00994,2.27084 1.01309,2.32124 1.01624,2.37165 1.01939,2.4252 1.02254,2.47561 1.02569,2.52601 1.02884,2.57641 1.03199,2.62997 1.03514,2.68037 1.03829,2.73078 1.04144,2.78118 1.04459,2.83158 1.04774,2.88514 1.05089,2.93554 1.05404,2.98594 1.05719,3.03635 1.06034,3.0899 1.06349,3.14031 1.06664,3.19071 1.06979,3.24111 1.07294,3.29152 1.07609,3.34507 1.07924,3.39548 1.08239,3.44588 1.08554,3.49628 1.08869,3.54983 1.09184,3.60024 1.09499,3.65064 1.09814,3.70105 1.10129,3.75145 1.10444,3.805 1.10759,3.85541 1.11074,3.87431 1.11389,3.88376 1.11704,3.89006 1.1202,3.89636 1.12335,3.90266 1.1265,3.90581 1.12965,3.90896 1.1328,3.91211 1.13594,3.91526 1.1391,3.91841 1.14225,3.92156 1.1454,3.92471 1.1517,3.92786 1.15485,3.93102 1.16115,3.93417 1.1706,3.93731 1.1769,3.94046 1.1895,3.94361 1.67149,3.94361 1.68094,3.94046 1.69039,3.93731 1.69354,3.93417 1.69984,3.93102 1.70299,3.92786 1.70929,3.92471 1.71244,3.91841 1.71559,3.91526 1.71874,3.91211 1.72189,3.90581 1.72504,3.89951 1.72819,3.89006 1.72819,2.18894 1.72504,2.17319 1.72189,2.16688 1.71874,2.15743 1.71559,2.15113 1.71244,2.14798 1.70929,2.14168 1.70614,2.13853 1.70299,2.13223 1.69984,2.12908 1.69669,2.12593 1.69354,2.12278 1.68724,2.11963 1.68409,2.11648 1.68094,2.11333 1.67464,2.11018 1.66833,2.10703 1.66204,2.10388 1.65574,2.10073 1.64628,2.09758 1.63368,2.09443 1.61478,2.09128 1.09499,2.09128 "/>
  </g>
 </g>
</svg>
