<?xml version="1.0" encoding="UTF-8"?>
<!DOCTYPE svg PUBLIC "-//W3C//DTD SVG 1.1//EN" "http://www.w3.org/Graphics/SVG/1.1/DTD/svg11.dtd">
<!-- Creator: CorelDRAW -->
<svg xmlns="http://www.w3.org/2000/svg" xml:space="preserve" width="2in" height="2in" style="shape-rendering:geometricPrecision; text-rendering:geometricPrecision; image-rendering:optimizeQuality; fill-rule:evenodd; clip-rule:evenodd"
viewBox="0 0 2 2"
 xmlns:xlink="http://www.w3.org/1999/xlink">
 <defs>
  <style type="text/css">
   <![CDATA[
    .str0 {stroke:#1F1A17;stroke-width:0.0695394}
    .fil2 {fill:#84C225}
    .fil0 {fill:white}
    .fil1 {fill:black}
   ]]>
  </style>
 </defs>
 <g id="Layer_x0020_1">
  <metadata id="CorelCorpID_0Corel-Layer"/>
  <path class="fil0" d="M1 0.130016c0.480398,0 0.869984,0.389587 0.869984,0.869984 0,0.480398 -0.389587,0.869984 -0.869984,0.869984 -0.480398,0 -0.869984,-0.389587 -0.869984,-0.869984 0,-0.480398 0.389587,-0.869984 0.869984,-0.869984z"/>
  <path class="fil1" d="M1.10948 0.446583l-0.10948 0.0579134 -0.109854 -0.0581102c-0.0211102,-0.0111654 -0.0452283,0.00864173 -0.038374,0.0315197l0.0595669 0.202949c0.0292598,-0.0091378 0.058874,-0.0137402 0.0886614,-0.0137402 0.029378,0 0.0585866,0.00448425 0.0874528,0.013374l0.0603661 -0.202268c0.00698031,-0.0229016 -0.0171732,-0.0428307 -0.0383386,-0.0316378z"/>
  <path class="fil2 str0" d="M1.42743 1.26859c0,-0.236063 -0.191366,-0.57028 -0.427433,-0.57028 -0.236063,0 -0.427429,0.334217 -0.427429,0.57028 0,0.236063 0.191366,0.28822 0.427429,0.28822 0.236067,3.93701e-006 0.427433,-0.0521535 0.427433,-0.28822z"/>
  <polygon class="fil0" points="0.928512,0.901772 0.926626,0.901854 0.925189,0.902031 0.924201,0.902295 0.923213,0.902563 0.92222,0.902827 0.921681,0.903185 0.920693,0.903449 0.919705,0.903717 0.919165,0.904071 0.918177,0.904339 0.917189,0.904602 0.91665,0.904961 0.915661,0.905224 0.915118,0.905583 0.91413,0.90585 0.913591,0.906205 0.912602,0.906472 0.912063,0.906831 0.911075,0.907094 0.910535,0.907453 0.909996,0.907807 0.909004,0.908075 0.908465,0.908433 0.907476,0.908697 0.906937,0.909055 0.906398,0.909409 0.905409,0.909677 0.90487,0.910035 0.904327,0.91039 0.903787,0.910748 0.902799,0.911012 0.90226,0.91137 0.90172,0.911728 0.901181,0.912083 0.900642,0.912441 0.89965,0.912709 0.89911,0.913063 0.898571,0.913421 0.898031,0.91378 0.897492,0.914134 0.896953,0.914492 0.895965,0.91476 0.895421,0.915114 0.894882,0.915472 0.894343,0.915831 0.893803,0.916185 0.893264,0.916543 0.892724,0.916902 0.892185,0.917256 0.891642,0.917614 0.891102,0.917972 0.890563,0.918331 0.890024,0.918685 0.889484,0.919043 0.888945,0.919402 0.888402,0.919756 0.887862,0.920114 0.887323,0.920472 0.886783,0.920827 0.886244,0.921185 0.885705,0.921543 0.885161,0.921898 0.884531,0.922705 0.883992,0.923063 0.883453,0.923421 0.882913,0.923776 0.88237,0.924134 0.881831,0.924492 0.881201,0.925295 0.880661,0.925654 0.880122,0.926012 0.879579,0.926366 0.878949,0.927173 0.878409,0.927531 0.87787,0.927886 0.877236,0.928693 0.876697,0.929051 0.876157,0.929406 0.875528,0.930213 0.874984,0.930571 0.874354,0.931374 0.873815,0.931732 0.873276,0.932091 0.872642,0.932894 0.872012,0.933701 0.871472,0.934059 0.870839,0.934862 0.870299,0.93522 0.869669,0.936028 0.869035,0.936831 0.868496,0.937189 0.867866,0.937996 0.867236,0.938799 0.866602,0.939606 0.866063,0.939961 0.865433,0.940768 0.864799,0.941575 0.864169,0.942378 0.863535,0.943185 0.862906,0.943992 0.862276,0.944795 0.861551,0.946051 0.860921,0.946854 0.860287,0.947661 0.859657,0.948469 0.858933,0.94972 0.858303,0.950528 0.857579,0.95178 0.856858,0.953035 0.856224,0.953839 0.855504,0.955094 0.85478,0.95635 0.853965,0.958051 0.85324,0.959307 0.85252,0.960559 0.851705,0.962264 0.85089,0.963965 0.850075,0.965669 0.849169,0.967819 0.848173,0.970417 0.847177,0.97302 0.846177,0.975618 0.844815,0.980012 0.842811,0.987547 0.841346,0.99472 0.840335,1.00199 0.839866,1.00657 0.839677,1.0098 0.839665,1.01213 0.839657,1.01446 0.83965,1.0168 0.839823,1.01824 0.839906,1.02012 0.840079,1.02156 0.840256,1.023 0.840429,1.02443 0.840602,1.02587 0.840776,1.02731 0.840953,1.02874 0.841126,1.03018 0.841299,1.03162 0.841563,1.03261 0.84174,1.03404 0.841913,1.03548 0.842087,1.03692 0.84226,1.03836 0.842528,1.03935 0.842701,1.04078 0.842969,1.04177 0.843142,1.04321 0.843315,1.04465 0.843579,1.04563 0.843756,1.04707 0.84402,1.04806 0.844193,1.0495 0.844461,1.05048 0.844634,1.05192 0.844902,1.05291 0.845075,1.05435 0.845339,1.05533 0.845512,1.05677 0.84578,1.05776 0.846043,1.05875 0.846311,1.05974 0.846484,1.06118 0.846752,1.06217 0.847016,1.06315 0.847189,1.06459 0.847457,1.06558 0.84772,1.06657 0.847988,1.06756 0.848252,1.06854 0.848425,1.06998 0.848693,1.07097 0.848957,1.07196 0.849224,1.07294 0.849488,1.07393 0.849756,1.07492 0.85002,1.07591 0.850287,1.0769 0.850551,1.07789 0.850819,1.07888 0.851083,1.07987 0.851346,1.08085 0.851614,1.08184 0.851787,1.08328 0.852055,1.08427 0.852409,1.08481 0.852677,1.0858 0.852941,1.08679 0.853209,1.08778 0.853472,1.08876 0.85374,1.08975 0.854004,1.09074 0.854272,1.09173 0.854535,1.09272 0.854799,1.0937 0.855067,1.09469 0.855425,1.09523 0.855689,1.09622 0.855957,1.09721 0.85622,1.0982 0.856488,1.09919 0.856843,1.09973 0.85711,1.10072 0.857374,1.1017 0.857642,1.10269 0.857906,1.10368 0.858264,1.10422 0.858528,1.10521 0.858795,1.1062 0.859059,1.10719 0.859417,1.10773 0.859681,1.10872 0.859949,1.1097 0.860303,1.11024 0.860571,1.11123 0.860835,1.11222 0.861193,1.11276 0.861461,1.11375 0.861724,1.11474 0.862083,1.11528 0.862346,1.11627 0.862614,1.11726 0.862969,1.1178 0.863236,1.11878 0.8635,1.11977 0.863858,1.12031 0.864122,1.1213 0.86448,1.12184 0.864748,1.12283 0.865012,1.12382 0.86537,1.12436 0.865634,1.12535 0.865992,1.12589 0.866256,1.12687 0.866614,1.12742 0.866882,1.12841 0.867146,1.12939 0.867504,1.12993 0.867768,1.13092 0.868126,1.13146 0.86839,1.13245 0.868748,1.13299 0.869012,1.13398 0.86937,1.13452 0.869638,1.13551 0.869992,1.13605 0.87026,1.13704 0.870618,1.13757 0.870882,1.13856 0.87124,1.1391 0.871594,1.13964 0.871862,1.14063 0.87222,1.14117 0.872484,1.14216 0.872843,1.1427 0.873106,1.14369 0.873465,1.14423 0.873728,1.14522 0.874087,1.14576 0.874445,1.1463 0.874709,1.14729 0.875067,1.14783 0.875331,1.14881 0.875689,1.14935 0.876047,1.14989 0.876311,1.15088 0.876669,1.15143 0.876933,1.15241 0.877291,1.15295 0.87765,1.15349 0.877913,1.15448 0.878272,1.15502 0.87863,1.15556 0.878894,1.15655 0.879252,1.15709 0.879606,1.15763 0.879874,1.15862 0.880232,1.15916 0.880587,1.1597 0.880854,1.16069 0.881209,1.16122 0.881567,1.16177 0.881835,1.16276 0.882189,1.1633 0.882547,1.16383 0.882906,1.16437 0.883169,1.16536 0.883528,1.1659 0.883886,1.16644 0.88415,1.16743 0.884508,1.16797 0.884862,1.16851 0.88513,1.1695 0.885488,1.17004 0.885843,1.17058 0.886201,1.17112 0.886465,1.17211 0.886823,1.17265 0.887181,1.17319 0.887539,1.17373 0.887803,1.17472 0.888161,1.17526 0.888516,1.1758 0.888874,1.17634 0.889232,1.17688 0.889496,1.17787 0.889854,1.17841 0.890213,1.17894 0.890567,1.17948 0.890835,1.18047 0.891189,1.18102 0.891547,1.18156 0.891906,1.18209 0.892264,1.18263 0.892528,1.18362 0.892886,1.18416 0.89324,1.1847 0.893598,1.18524 0.893957,1.18578 0.894311,1.18632 0.894579,1.18731 0.894937,1.18785 0.895291,1.18839 0.89565,1.18893 0.896008,1.18947 0.896362,1.19001 0.89663,1.191 0.896988,1.19154 0.897343,1.19208 0.897701,1.19262 0.898059,1.19316 0.898413,1.1937 0.898681,1.19469 0.899039,1.19523 0.899394,1.19577 0.899752,1.19631 0.90011,1.19685 0.900465,1.19739 0.900823,1.19793 0.901181,1.19847 0.901445,1.19946 0.901803,1.2 0.902161,1.20054 0.902516,1.20107 0.902874,1.20162 0.903232,1.20216 0.903587,1.2027 0.903945,1.20324 0.904303,1.20378 0.904657,1.20431 0.904925,1.2053 0.905283,1.20585 0.905638,1.20639 0.905996,1.20693 0.906354,1.20746 0.906709,1.208 0.907067,1.20854 0.907425,1.20909 0.90778,1.20963 0.908138,1.21017 0.908496,1.2107 0.908854,1.21124 0.909209,1.21178 0.909567,1.21233 0.909925,1.21287 0.910189,1.21385 0.910547,1.21439 0.910906,1.21493 0.91126,1.21547 0.911618,1.21601 0.911976,1.21656 0.912331,1.21709 0.912689,1.21763 0.913047,1.21817 0.913402,1.21871 0.91376,1.21925 0.914118,1.2198 0.914472,1.22033 0.914831,1.22087 0.915189,1.22141 0.915547,1.22195 0.915902,1.22249 0.91626,1.22303 0.916618,1.22357 0.916972,1.22411 0.917331,1.22465 0.917689,1.22519 0.918043,1.22573 0.918402,1.22627 0.91876,1.22681 0.919118,1.22735 0.919472,1.22789 0.919831,1.22843 0.920189,1.22897 0.920543,1.22951 0.920902,1.23006 0.92126,1.23059 0.921614,1.23113 0.921972,1.23167 0.922331,1.23221 0.922685,1.23275 0.923043,1.2333 0.923402,1.23383 0.92376,1.23437 0.924114,1.23491 0.924472,1.23545 0.924831,1.23599 0.925185,1.23653 0.925543,1.23707 0.925902,1.23761 0.926705,1.23824 0.927063,1.23878 0.927421,1.23932 0.927776,1.23987 0.928134,1.24041 0.928492,1.24094 0.92885,1.24148 0.929205,1.24202 0.929563,1.24256 0.929921,1.24311 0.930276,1.24365 0.930634,1.24419 0.930992,1.24472 0.931346,1.24526 0.932154,1.2459 0.932512,1.24644 0.932866,1.24698 0.933224,1.24752 0.933583,1.24806 0.933937,1.24859 0.934295,1.24914 0.934654,1.24968 0.935012,1.25022 0.935366,1.25076 0.935724,1.2513 0.936531,1.25193 0.936886,1.25247 0.937244,1.25301 0.937602,1.25355 0.937957,1.25409 0.938315,1.25463 0.938673,1.25517 0.939028,1.25571 0.939835,1.25634 0.940193,1.25688 0.940547,1.25742 0.940906,1.25796 0.941264,1.2585 0.941622,1.25904 0.941976,1.25958 0.942783,1.26021 0.943142,1.26075 0.943496,1.26129 0.943854,1.26183 0.944213,1.26237 0.944567,1.26291 0.944925,1.26345 0.945732,1.26408 0.946087,1.26462 0.946445,1.26516 0.946803,1.2657 0.947157,1.26624 0.947516,1.26678 0.948323,1.26741 0.948677,1.26795 0.949035,1.26849 0.949394,1.26903 0.949752,1.26957 0.950555,1.2702 0.950913,1.27074 0.951272,1.27128 0.951626,1.27182 0.951984,1.27237 0.952791,1.273 0.953146,1.27354 0.953504,1.27407 0.953862,1.27461 0.954217,1.27516 0.955024,1.27579 0.955382,1.27633 0.955736,1.27687 0.956094,1.27741 0.956902,1.27804 0.957256,1.27858 0.957614,1.27912 0.957972,1.27966 0.958776,1.28029 0.959134,1.28083 0.959492,1.28137 0.95985,1.28191 0.960654,1.28254 0.961012,1.28308 0.96137,1.28362 0.961724,1.28416 0.962531,1.2848 0.96289,1.28533 0.963244,1.28587 0.963602,1.28641 0.964409,1.28704 0.964764,1.28759 0.965122,1.28813 0.96548,1.28867 0.966283,1.2893 0.966642,1.28983 0.967,1.29038 0.967803,1.29101 0.968161,1.29155 0.96852,1.29209 0.969323,1.29272 0.969681,1.29326 0.970039,1.2938 0.970843,1.29443 0.971201,1.29497 0.971559,1.29551 0.971913,1.29605 0.97272,1.29668 0.973079,1.29722 0.973882,1.29785 0.97424,1.29839 0.974598,1.29893 0.975402,1.29956 0.97576,1.30011 0.976118,1.30065 0.976921,1.30128 0.97728,1.30181 0.977638,1.30236 0.978441,1.30299 0.978799,1.30353 0.979157,1.30407 0.979961,1.3047 0.980319,1.30524 0.980677,1.30578 0.98148,1.30641 0.981839,1.30695 0.982646,1.30758 0.983,1.30812 0.983358,1.30866 0.984165,1.3093 0.98452,1.30983 0.985327,1.31046 0.985685,1.311 0.986488,1.31164 0.986846,1.31218 0.987205,1.31272 0.988008,1.31335 0.988366,1.31389 0.989173,1.31452 0.989528,1.31506 0.989886,1.3156 0.990693,1.31623 0.991047,1.31677 0.991854,1.3174 0.992213,1.31794 0.993016,1.31857 0.993374,1.31911 0.994181,1.31974 0.994535,1.32028 0.995343,1.32092 0.995701,1.32146 0.996055,1.322 0.996862,1.32263 0.99722,1.32317 0.998024,1.3238 0.998382,1.32434 0.999189,1.32497 0.999543,1.32551 1.00035,1.32614 1.00071,1.32668 1.00151,1.32731 1.00232,1.32794 1.00268,1.32848 1.00348,1.32912 1.00384,1.32966 1.00465,1.33029 1.005,1.33083 1.00581,1.33146 1.00617,1.332 1.00697,1.33263 1.00733,1.33317 1.00813,1.3338 1.00849,1.33434 1.0093,1.33497 1.0101,1.33561 1.01046,1.33615 1.01126,1.33678 1.01162,1.33732 1.01243,1.33795 1.01278,1.33849 1.01359,1.33912 1.01439,1.33975 1.01475,1.34029 1.01556,1.34092 1.01636,1.34156 1.01672,1.34209 1.01752,1.34272 1.01788,1.34327 1.01869,1.3439 1.01949,1.34453 1.01985,1.34507 1.02066,1.3457 1.02146,1.34633 1.02182,1.34687 1.02262,1.3475 1.02343,1.34813 1.02379,1.34867 1.02459,1.34931 1.0254,1.34994 1.02576,1.35048 1.02656,1.35111 1.02737,1.35174 1.02817,1.35237 1.02853,1.35291 1.02933,1.35354 1.03014,1.35417 1.03094,1.35481 1.0313,1.35535 1.03211,1.35598 1.03291,1.35661 1.03372,1.35724 1.03407,1.35778 1.03488,1.35841 1.03569,1.35904 1.03649,1.35967 1.0373,1.36031 1.03766,1.36085 1.03846,1.36148 1.03927,1.36211 1.04007,1.36274 1.04088,1.36337 1.04169,1.364 1.04204,1.36454 1.04285,1.36517 1.04365,1.36581 1.04446,1.36644 1.04526,1.36707 1.04607,1.3677 1.04687,1.36833 1.04768,1.36896 1.04848,1.36959 1.04929,1.37023 1.0501,1.37086 1.0509,1.37149 1.05216,1.37221 1.05296,1.37284 1.05422,1.37357 1.05547,1.37429 1.05628,1.37492 1.05753,1.37565 1.05878,1.37637 1.06004,1.37709 1.06129,1.37781 1.06255,1.37854 1.0638,1.37926 1.06506,1.37998 1.06676,1.3808 1.06801,1.38152 1.06927,1.38224 1.07097,1.38306 1.07267,1.38387 1.07437,1.38469 1.07608,1.3855 1.07823,1.38641 1.08038,1.38731 1.08208,1.38813 1.08468,1.38912 1.08728,1.39012 1.09033,1.39121 1.09428,1.39248 1.09912,1.39394 1.11661,1.3975 1.12163,1.39806 1.12531,1.39834 1.1281,1.39844 1.13088,1.39854 1.13322,1.39855 1.13555,1.39856 1.13743,1.39848 1.13932,1.3984 1.14076,1.39822 1.14264,1.39814 1.14408,1.39796 1.14552,1.39779 1.14695,1.39762 1.14839,1.39744 1.14983,1.39727 1.15126,1.39709 1.15225,1.39683 1.15369,1.39665 1.15468,1.39639 1.15567,1.39612 1.15711,1.39595 1.15809,1.39569 1.15908,1.39542 1.16007,1.39515 1.16106,1.39489 1.16205,1.39462 1.16304,1.39435 1.16402,1.39409 1.16501,1.39382 1.166,1.39356 1.16699,1.39329 1.16798,1.39303 1.16852,1.39267 1.16951,1.39241 1.1705,1.39214 1.17104,1.39178 1.17202,1.39152 1.17301,1.39125 1.17355,1.39089 1.17454,1.39063 1.17508,1.39027 1.17607,1.39 1.17661,1.38965 1.1776,1.38938 1.17814,1.38903 1.17913,1.38876 1.17967,1.3884 1.18021,1.38805 1.1812,1.38778 1.18174,1.38743 1.18228,1.38707 1.18326,1.3868 1.1838,1.38644 1.18434,1.38609 1.18533,1.38582 1.18587,1.38546 1.18641,1.38511 1.18695,1.38475 1.18794,1.38448 1.18848,1.38413 1.18902,1.38377 1.18956,1.38341 1.1901,1.38306 1.19109,1.38279 1.19163,1.38243 1.19217,1.38207 1.19271,1.38172 1.19325,1.38136 1.19379,1.381 1.19433,1.38065 1.19487,1.38029 1.19541,1.37993 1.19595,1.37957 1.19649,1.37922 1.19703,1.37886 1.19757,1.3785 1.19811,1.37815 1.19865,1.37779 1.19919,1.37743 1.19973,1.37708 1.20027,1.37672 1.20081,1.37636 1.20135,1.376 1.20189,1.37565 1.20243,1.37529 1.20297,1.37493 1.20351,1.37458 1.20405,1.37422 1.20459,1.37386 1.20513,1.37351 1.20576,1.3727 1.2063,1.37234 1.20684,1.37199 1.20738,1.37163 1.20792,1.37127 1.20846,1.37092 1.20909,1.37011 1.20963,1.36975 1.21017,1.36939 1.21071,1.36904 1.21134,1.36823 1.21188,1.36787 1.21243,1.36752 1.21306,1.36671 1.21359,1.36635 1.21413,1.366 1.21477,1.36519 1.21531,1.36483 1.21585,1.36448 1.21648,1.36367 1.21702,1.36331 1.21765,1.36251 1.21819,1.36215 1.21882,1.36135 1.21936,1.36099 1.21999,1.36019 1.22062,1.35938 1.22117,1.35902 1.2218,1.35822 1.22243,1.35741 1.22306,1.35661 1.22369,1.3558 1.22432,1.355 1.22504,1.35374 1.22577,1.35249 1.22658,1.35078 1.22749,1.34863 1.2295,1.33876 1.22951,1.33643 1.22943,1.33455 1.22925,1.33311 1.22908,1.33167 1.2289,1.33024 1.22864,1.32924 1.22837,1.32826 1.22811,1.32727 1.22784,1.32628 1.22757,1.32529 1.22731,1.3243 1.22704,1.32331 1.22669,1.32278 1.22642,1.32179 1.22606,1.32125 1.2258,1.32026 1.22544,1.31972 1.22508,1.31918 1.22482,1.31819 1.22446,1.31765 1.22411,1.31711 1.22375,1.31657 1.22294,1.31594 1.22259,1.3154 1.22178,1.31477 1.22142,1.31422 1.22062,1.31359 1.22026,1.31306 1.21945,1.31243 1.2191,1.31188 1.21829,1.31125 1.21793,1.31071 1.21713,1.31008 1.21677,1.30954 1.21596,1.30891 1.21561,1.30837 1.2148,1.30774 1.21444,1.3072 1.21364,1.30657 1.21328,1.30603 1.21248,1.30539 1.21212,1.30485 1.21131,1.30422 1.21096,1.30368 1.21015,1.30305 1.2098,1.30251 1.20899,1.30188 1.20819,1.30125 1.20783,1.30071 1.20702,1.30008 1.20667,1.29954 1.20586,1.29891 1.2055,1.29837 1.2047,1.29774 1.20434,1.29719 1.20353,1.29656 1.20318,1.29602 1.20237,1.29539 1.20201,1.29485 1.20121,1.29422 1.20085,1.29368 1.20005,1.29305 1.19969,1.29251 1.19888,1.29188 1.19853,1.29134 1.19772,1.2907 1.19736,1.29017 1.19656,1.28954 1.1962,1.289 1.19539,1.28836 1.19504,1.28782 1.19423,1.28719 1.19387,1.28665 1.19307,1.28602 1.19271,1.28548 1.19191,1.28485 1.19155,1.28431 1.19074,1.28368 1.19039,1.28314 1.18958,1.2825 1.18922,1.28196 1.18842,1.28133 1.18806,1.2808 1.18726,1.28016 1.1869,1.27962 1.18609,1.27899 1.18574,1.27845 1.18493,1.27782 1.18457,1.27728 1.18377,1.27665 1.18341,1.27611 1.18261,1.27548 1.18225,1.27494 1.18144,1.27431 1.18109,1.27376 1.18028,1.27313 1.17992,1.27259 1.17912,1.27196 1.17876,1.27142 1.17795,1.27079 1.1776,1.27025 1.17679,1.26962 1.17643,1.26908 1.17563,1.26845 1.17482,1.26781 1.17447,1.26728 1.17366,1.26665 1.1733,1.26611 1.1725,1.26547 1.17214,1.26493 1.17133,1.2643 1.17098,1.26376 1.17017,1.26313 1.16981,1.26259 1.16901,1.26196 1.16865,1.26142 1.16785,1.26079 1.16749,1.26025 1.16669,1.25962 1.16633,1.25907 1.16552,1.25844 1.16517,1.25791 1.16436,1.25727 1.164,1.25673 1.1632,1.2561 1.16284,1.25556 1.16204,1.25493 1.16168,1.25439 1.16087,1.25376 1.16052,1.25322 1.15971,1.25259 1.15935,1.25205 1.15855,1.25142 1.15819,1.25088 1.15738,1.25024 1.15703,1.2497 1.15622,1.24907 1.15586,1.24853 1.15506,1.2479 1.1547,1.24736 1.15389,1.24673 1.15354,1.24619 1.15273,1.24556 1.15237,1.24502 1.15157,1.24439 1.15121,1.24385 1.15041,1.24322 1.15005,1.24268 1.14924,1.24204 1.14889,1.2415 1.14853,1.24096 1.14772,1.24033 1.14737,1.23979 1.14701,1.23925 1.1462,1.23862 1.14585,1.23808 1.14504,1.23745 1.14424,1.23682 1.14388,1.23628 1.14307,1.23565 1.14227,1.23502 1.14146,1.23439 1.14066,1.23375 1.1394,1.23303 1.13815,1.23231 1.13689,1.23158 1.13519,1.23077 1.13215,1.22968 1.12631,1.22849 1.12308,1.2283 1.1212,1.22838 1.11976,1.22856 1.11832,1.22873 1.11733,1.229 1.11635,1.22926 1.11536,1.22953 1.11437,1.2298 1.11338,1.23006 1.11284,1.23042 1.11185,1.23068 1.11131,1.23104 1.11077,1.2314 1.11023,1.23175 1.10969,1.23211 1.10915,1.23247 1.10861,1.23282 1.10807,1.23318 1.10753,1.23354 1.10699,1.23389 1.10645,1.23425 1.10591,1.23461 1.10537,1.23497 1.10483,1.23532 1.10429,1.23568 1.10375,1.23604 1.10321,1.23639 1.10267,1.23675 1.10213,1.23711 1.10159,1.23746 1.10105,1.23782 1.10051,1.23818 1.09997,1.23854 1.09943,1.23889 1.09889,1.23925 1.09826,1.24006 1.09772,1.24041 1.09718,1.24077 1.09664,1.24113 1.0961,1.24148 1.09556,1.24184 1.09502,1.2422 1.09448,1.24256 1.09394,1.24291 1.0934,1.24327 1.09286,1.24363 1.09232,1.24398 1.09178,1.24434 1.09124,1.2447 1.0907,1.24506 1.09016,1.24541 1.08962,1.24577 1.08908,1.24613 1.08854,1.24648 1.088,1.24684 1.08746,1.2472 1.08692,1.24756 1.08638,1.24791 1.08584,1.24827 1.0853,1.24863 1.08476,1.24898 1.08422,1.24934 1.08359,1.25015 1.08305,1.2505 1.08251,1.25086 1.08197,1.25122 1.08143,1.25157 1.08089,1.25193 1.08035,1.25229 1.07981,1.25265 1.07927,1.253 1.07873,1.25336 1.07819,1.25372 1.07765,1.25407 1.07711,1.25443 1.07657,1.25479 1.07603,1.25515 1.07549,1.2555 1.0745,1.25577 1.07396,1.25613 1.07342,1.25648 1.07243,1.25675 1.07189,1.25711 1.0709,1.25737 1.07036,1.25773 1.06937,1.25799 1.06839,1.25826 1.0674,1.25852 1.06641,1.25879 1.06542,1.25906 1.06443,1.25932 1.063,1.2595 1.06201,1.25976 1.06012,1.25984 1.05869,1.26002 1.0559,1.25992 1.04783,1.25827 1.04568,1.25737 1.04397,1.25655 1.04272,1.25583 1.04191,1.2552 1.04111,1.25457 1.0403,1.25393 1.03905,1.25321 1.03824,1.25258 1.03744,1.25195 1.03663,1.25131 1.03583,1.25069 1.03457,1.24996 1.03377,1.24933 1.03296,1.2487 1.03215,1.24807 1.03135,1.24744 1.03054,1.2468 1.02974,1.24617 1.02893,1.24554 1.02813,1.24491 1.02732,1.24428 1.02652,1.24365 1.02571,1.24302 1.02535,1.24248 1.02455,1.24185 1.02374,1.24121 1.02294,1.24058 1.02213,1.23995 1.02133,1.23932 1.02097,1.23878 1.02016,1.23815 1.01936,1.23752 1.01855,1.23689 1.01819,1.23635 1.01739,1.23571 1.01658,1.23508 1.01622,1.23454 1.01542,1.23391 1.01461,1.23328 1.01426,1.23274 1.01345,1.23211 1.01265,1.23148 1.01229,1.23094 1.01148,1.2303 1.01113,1.22976 1.01032,1.22913 1.00996,1.22859 1.00916,1.22796 1.0088,1.22742 1.008,1.22679 1.00764,1.22625 1.00683,1.22562 1.00648,1.22508 1.00567,1.22445 1.00531,1.22391 1.00451,1.22328 1.00415,1.22274 1.00335,1.2221 1.00299,1.22156 1.00263,1.22102 1.00183,1.22039 1.00147,1.21985 1.00066,1.21922 1.00031,1.21868 0.999949,1.21814 0.999142,1.21751 0.998787,1.21697 0.998429,1.21643 0.997622,1.2158 0.997268,1.21526 0.996909,1.21472 0.996102,1.21409 0.995748,1.21355 0.99539,1.21301 0.995031,1.21247 0.994228,1.21183 0.99387,1.2113 0.993512,1.21076 0.993154,1.21022 0.992799,1.20968 0.991992,1.20904 0.991634,1.2085 0.99128,1.20796 0.990921,1.20743 0.990114,1.20679 0.98976,1.20625 0.989402,1.20571 0.989043,1.20517 0.988689,1.20463 0.988331,1.20409 0.987972,1.20355 0.987169,1.20292 0.986811,1.20238 0.986453,1.20184 0.986098,1.2013 0.98574,1.20076 0.985382,1.20022 0.985024,1.19968 0.984669,1.19914 0.983862,1.19851 0.983504,1.19797 0.98315,1.19743 0.982791,1.19689 0.982433,1.19635 0.982079,1.19581 0.98172,1.19527 0.981362,1.19473 0.981008,1.19419 0.98065,1.19365 0.980291,1.19311 0.979937,1.19257 0.979579,1.19203 0.97922,1.19149 0.978862,1.19095 0.978508,1.19041 0.97815,1.18987 0.977791,1.18933 0.977437,1.18879 0.977079,1.18825 0.97672,1.18771 0.976366,1.18717 0.976008,1.18663 0.97565,1.18609 0.975291,1.18555 0.974937,1.18501 0.974579,1.18447 0.97422,1.18393 0.973866,1.18339 0.973598,1.1824 0.973244,1.18186 0.972886,1.18132 0.972528,1.18078 0.972169,1.18024 0.971815,1.1797 0.971457,1.17916 0.971098,1.17862 0.970744,1.17808 0.970476,1.17709 0.970122,1.17655 0.969764,1.17601 0.969406,1.17547 0.969047,1.17493 0.968693,1.17439 0.968425,1.17341 0.968071,1.17287 0.967713,1.17232 0.967354,1.17178 0.966996,1.17124 0.966732,1.17026 0.966374,1.16972 0.96602,1.16918 0.965661,1.16864 0.965394,1.16765 0.965039,1.16711 0.964681,1.16657 0.964417,1.16558 0.964059,1.16504 0.963701,1.1645 0.963346,1.16396 0.963079,1.16297 0.96272,1.16243 0.962366,1.16189 0.962098,1.1609 0.961744,1.16036 0.961476,1.15937 0.961118,1.15883 0.960764,1.15829 0.960496,1.1573 0.960138,1.15676 0.959874,1.15578 0.959516,1.15524 0.959161,1.1547 0.958894,1.15371 0.958535,1.15317 0.958272,1.15218 0.957913,1.15164 0.95765,1.15065 0.957291,1.15011 0.957028,1.14912 0.956669,1.14858 0.956406,1.14759 0.956047,1.14706 0.95578,1.14607 0.955516,1.14507 0.955157,1.14454 0.954894,1.14355 0.954626,1.14256 0.954272,1.14202 0.954004,1.14103 0.95374,1.14004 0.953382,1.1395 0.953118,1.13852 0.95285,1.13752 0.952492,1.13698 0.952228,1.136 0.951961,1.13501 0.951697,1.13402 0.951429,1.13303 0.951165,1.13204 0.950807,1.1315 0.950543,1.13052 0.950276,1.12953 0.950012,1.12854 0.949744,1.12755 0.94948,1.12656 0.949217,1.12557 0.948949,1.12458 0.948776,1.12315 0.948508,1.12216 0.948244,1.12117 0.947976,1.12018 0.947713,1.11919 0.947539,1.11776 0.947272,1.11677 0.947098,1.11533 0.946835,1.11434 0.946657,1.11291 0.946484,1.11147 0.946402,1.10958 0.946409,1.10725 0.946602,1.10402 0.947791,1.09819 0.948972,1.09469 0.949878,1.09254 0.950693,1.09083 0.951413,1.08958 0.952138,1.08833 0.952862,1.08707 0.953583,1.08582 0.954217,1.08501 0.954846,1.0842 0.955571,1.08295 0.956201,1.08215 0.956831,1.08134 0.957374,1.08098 0.958004,1.08018 0.958634,1.07937 0.959268,1.07857 0.959807,1.07821 0.960437,1.07741 0.961071,1.0766 0.96161,1.07624 0.96224,1.07544 0.96278,1.07508 0.963413,1.07427 0.963953,1.07392 0.964492,1.07356 0.965126,1.07275 0.965665,1.0724 0.966295,1.07159 0.966835,1.07123 0.967374,1.07088 0.967917,1.07052 0.968547,1.06971 0.969087,1.06936 0.969626,1.069 0.970165,1.06864 0.970709,1.06829 0.971248,1.06793 0.971878,1.06712 0.972417,1.06677 0.972957,1.06641 0.9735,1.06605 0.974039,1.0657 0.974579,1.06534 0.975118,1.06498 0.975657,1.06462 0.976197,1.06427 0.97674,1.06391 0.97728,1.06355 0.977819,1.0632 0.978358,1.06284 0.978898,1.06248 0.979437,1.06213 0.97998,1.06177 0.98052,1.06141 0.981059,1.06105 0.981598,1.0607 0.982138,1.06034 0.982677,1.05998 0.983665,1.05972 0.984209,1.05936 0.984748,1.059 0.985287,1.05865 0.985827,1.05829 0.986366,1.05793 0.986906,1.05757 0.987894,1.05731 0.988437,1.05695 0.988976,1.05659 0.989516,1.05624 0.990504,1.05597 0.991043,1.05561 0.991583,1.05526 0.992122,1.0549 0.993114,1.05463 0.993654,1.05428 0.994193,1.05392 0.995181,1.05365 0.99572,1.0533 0.99626,1.05294 0.996799,1.05258 0.997343,1.05223 0.997882,1.05187 0.998421,1.05151 0.999051,1.05071 0.999591,1.05035 1.00022,1.04954 1.00085,1.04874 1.00149,1.04793 1.00212,1.04713 1.00275,1.04632 1.00356,1.04462 1.00456,1.04202 1.00548,1.03754 1.00567,1.0343 1.00559,1.03242 1.00541,1.03098 1.00524,1.02954 1.00497,1.02856 1.0047,1.02757 1.00444,1.02658 1.00417,1.02559 1.00391,1.0246 1.00355,1.02406 1.00329,1.02307 1.00293,1.02253 1.00266,1.02154 1.00231,1.021 1.00204,1.02002 1.00169,1.01948 1.00142,1.01849 1.00106,1.01794 1.0008,1.01696 1.00044,1.01642 1.00017,1.01543 0.999815,1.01489 0.999551,1.0139 0.999283,1.01291 0.998929,1.01237 0.998661,1.01138 0.998303,1.01084 0.998039,1.00985 0.997681,1.00931 0.997417,1.00833 0.997059,1.00779 0.996795,1.0068 0.996437,1.00626 0.996169,1.00527 0.995815,1.00473 0.995547,1.00374 0.995193,1.0032 0.994925,1.00221 0.994567,1.00167 0.994303,1.00069 0.993945,1.00015 0.993681,0.999157 0.993323,0.998614 0.993059,0.997626 0.992701,0.997087 0.992433,0.996098 0.992079,0.995559 0.991811,0.994571 0.991457,0.994031 0.991189,0.993043 0.990831,0.9925 0.990567,0.991512 0.990209,0.990972 0.989945,0.989984 0.989587,0.989445 0.989323,0.988457 0.988965,0.987917 0.988697,0.986929 0.988343,0.986386 0.988075,0.985398 0.98772,0.984858 0.987453,0.98387 0.987094,0.983331 0.986831,0.982343 0.986472,0.981803 0.986209,0.980815 0.985941,0.979823 0.985587,0.979283 0.985319,0.978295 0.984965,0.977756 0.984697,0.976768 0.984339,0.976228 0.984075,0.97524 0.983717,0.974701 0.983453,0.973713 0.983094,0.973169 0.982831,0.972181 0.982472,0.971642 0.982205,0.970654 0.98185,0.970114 0.981583,0.969126 0.981228,0.968587 0.980961,0.967598 0.980602,0.967055 0.980339,0.966067 0.97998,0.965528 0.979717,0.964539 0.979358,0.964 0.979094,0.963012 0.978736,0.962472 0.978469,0.961484 0.978114,0.960941 0.977846,0.959953 0.977492,0.959413 0.977224,0.958425 0.976866,0.957886 0.976602,0.956898 0.976244,0.956358 0.97598,0.95537 0.975622,0.954827 0.975358,0.953839 0.975,0.953299 0.974736,0.952311 0.974378,0.951772 0.97411,0.950783 0.973756,0.950244 0.973488,0.949256 0.97313,0.948713 0.972866,0.947724 0.972602,0.946736 0.972244,0.946197 0.971976,0.945209 0.971622,0.944669 0.971354,0.943681 0.971,0.943142 0.970732,0.942154 0.970374,0.94161 0.97011,0.940622 0.969752,0.940083 0.969488,0.939094 0.96913,0.938555 0.968866,0.937567 0.968508,0.937028 0.96824,0.936039 0.967886,0.935496 0.967618,0.934508 0.967264,0.933969 0.966996,0.93298 0.966638,0.932441 0.966374,0.931453 0.966016,0.930913 0.965752,0.929925 0.965394,0.929382 0.96513,0.928394 0.964772,0.927854 0.964504,0.926866 0.96415,0.926327 0.963882,0.925339 0.963528,0.924799 0.96326,0.923811 0.962902,0.923268 0.962638,0.92228 0.96228,0.92174 0.962016,0.920752 0.961657,0.920213 0.961394,0.919224 0.961035,0.918685 0.960677,0.918146 0.960323,0.917602 0.959965,0.917063 0.959606,0.916524 0.958803,0.915894 0.958445,0.91535 0.958087,0.914811 0.957283,0.914181 0.956925,0.913642 0.956118,0.913008 0.955764,0.912469 0.954957,0.911839 0.95415,0.911205 0.953346,0.910575 0.952539,0.909945 0.951732,0.909311 0.950929,0.908681 0.949673,0.907957 0.94887,0.907327 0.947614,0.906602 0.945913,0.905787 0.944209,0.904976 0.941161,0.903886 0.93174,0.901965 "/>
 </g>
</svg>
