<?xml version="1.0" encoding="UTF-8"?>
<!DOCTYPE svg PUBLIC "-//W3C//DTD SVG 1.1//EN" "http://www.w3.org/Graphics/SVG/1.1/DTD/svg11.dtd">
<!-- Creator: CorelDRAW -->
<svg xmlns="http://www.w3.org/2000/svg" xml:space="preserve" width="2in" height="2in" style="shape-rendering:geometricPrecision; text-rendering:geometricPrecision; image-rendering:optimizeQuality; fill-rule:evenodd; clip-rule:evenodd"
viewBox="0 0 2 2"
 xmlns:xlink="http://www.w3.org/1999/xlink">
 <defs>
  <style type="text/css">
   <![CDATA[
    .fil0 {fill:#D68586}
   ]]>
  </style>
 </defs>
 <g id="Layer_x0020_1">
  <metadata id="CorelCorpID_0Corel-Layer"/>
  <g id="_110308936">
   <path id="_110309392" class="fil0" d="M0.19422 0.953772l1.61156 0c0.0444291,0 0.0807756,0.0363465 0.0807756,0.0807756l0 0.135063 -1.7731 0 0 -0.135063c0,-0.0444291 0.0363465,-0.0807756 0.0807717,-0.0807756zm1.69233 0.343059l0 0.585965c0,0.0444252 -0.0363465,0.0807717 -0.0807756,0.0807717l-1.61156 0c-0.0444252,0 -0.0807717,-0.0363465 -0.0807717,-0.0807717l0 -0.585965 1.7731 0z"/>
   <path id="_110309320" class="fil0" d="M0.920685 0.684012l0.158626 0c0.00229921,0 0.00417323,0.00187795 0.00417323,0.00417717l0 0.365354c0,0.00229528 -0.00187402,0.00417323 -0.00417323,0.00417323l-0.158626 0c-0.00229528,0 -0.00417323,-0.00187795 -0.00417323,-0.00417323l0 -0.365354c0,-0.00229921 0.00187795,-0.00417717 0.00417323,-0.00417717z"/>
   <path id="_110309248" class="fil0" d="M1.00461 0.336433c0,0 -0.0735276,0.097378 -0.0914134,0.184819 -0.0178858,0.0874409 0.0775039,0.149047 0.145071,0.0934016 0.0675709,-0.0556417 0.0119252,-0.162957 -0.0536575,-0.27822z"/>
   <path id="_110309176" class="fil0" d="M0.423508 0.684012l0.158622 0c0.00229921,0 0.00417717,0.00187795 0.00417717,0.00417717l0 0.365354c0,0.00229528 -0.00187795,0.00417323 -0.00417717,0.00417323l-0.158622 0c-0.00229921,0 -0.00417717,-0.00187795 -0.00417717,-0.00417323l0 -0.365354c0,-0.00229921 0.00187795,-0.00417717 0.00417717,-0.00417717z"/>
   <path id="_110309104" class="fil0" d="M0.507429 0.336433c0,0 -0.0735315,0.097378 -0.0914173,0.184819 -0.0178858,0.0874409 0.0775039,0.149047 0.145075,0.0934016 0.0675669,-0.0556417 0.0119213,-0.162957 -0.0536575,-0.27822z"/>
   <path id="_110309032" class="fil0" d="M1.40081 0.684012l0.158622 0c0.00229921,0 0.00417717,0.00187795 0.00417717,0.00417717l0 0.365354c0,0.00229528 -0.00187795,0.00417323 -0.00417717,0.00417323l-0.158622 0c-0.00229921,0 -0.00417717,-0.00187795 -0.00417717,-0.00417323l0 -0.365354c0,-0.00229921 0.00187795,-0.00417717 0.00417717,-0.00417717z"/>
   <path id="_110308960" class="fil0" d="M1.48473 0.336433c0,0 -0.0735315,0.097378 -0.0914173,0.184819 -0.0178858,0.0874409 0.0775039,0.149047 0.145075,0.0934016 0.0675669,-0.0556417 0.0119213,-0.162957 -0.0536575,-0.27822z"/>
  </g>
 </g>
</svg>
