<?xml version="1.0" standalone="no"?>
<!DOCTYPE svg PUBLIC "-//W3C//DTD SVG 20010904//EN"
 "http://www.w3.org/TR/2001/REC-SVG-20010904/DTD/svg10.dtd">
<svg version="1.0" xmlns="http://www.w3.org/2000/svg"
 width="944.000000pt" height="944.000000pt" viewBox="0 0 944.000000 944.000000"
 preserveAspectRatio="xMidYMid meet">
<metadata>
Created by potrace 1.15, written by Peter Selinger 2001-2017
</metadata>
<g transform="translate(0.000000,944.000000) scale(0.100000,-0.100000)"
fill="#000000" stroke="none">
<path d="M3190 7625 c-232 -30 -359 -75 -537 -191 -149 -96 -300 -259 -386
-414 -104 -190 -144 -359 -154 -651 l-6 -207 -166 -4 c-145 -4 -172 -7 -216
-27 -69 -31 -103 -65 -137 -141 -26 -55 -29 -73 -26 -130 2 -37 13 -84 26
-111 26 -57 98 -124 148 -139 22 -7 114 -15 207 -17 l167 -5 0 -364 0 -364
-164 0 c-96 0 -177 -5 -197 -11 -110 -38 -189 -149 -189 -269 0 -120 79 -231
189 -269 20 -6 101 -11 197 -11 l164 0 0 -364 0 -364 -167 -5 c-93 -2 -185
-10 -207 -17 -50 -15 -122 -82 -148 -139 -13 -27 -24 -74 -26 -111 -3 -57 0
-75 26 -130 34 -76 68 -110 137 -141 44 -20 71 -23 216 -27 l166 -4 6 -207 c6
-162 12 -229 31 -316 54 -248 164 -445 346 -619 160 -153 360 -259 565 -299
184 -37 247 -38 2145 -35 1763 3 1868 4 1918 21 71 24 120 70 154 144 l28 63
0 2830 0 2830 -28 63 c-34 74 -83 120 -154 144 -50 17 -154 18 -1943 19 -1456
1 -1912 -1 -1985 -11z m3545 -3045 l0 -2485 -1760 0 c-1678 0 -1763 1 -1819
18 -114 35 -192 83 -280 170 -90 90 -134 162 -169 272 l-22 70 0 1955 0 1955
22 70 c35 110 79 182 169 272 106 105 228 169 359 186 17 2 811 4 1765 3
l1735 -1 0 -2485z"/>
<path d="M4585 6054 c-11 -2 -45 -9 -75 -15 -75 -15 -191 -64 -264 -112 -79
-52 -201 -176 -248 -254 -116 -188 -152 -412 -103 -644 64 -302 326 -556 638
-619 72 -14 83 -19 51 -19 -142 -3 -403 -89 -555 -184 -257 -160 -455 -409
-553 -699 -30 -87 -66 -285 -66 -359 l0 -49 1297 2 1297 3 -3 60 c-21 521
-374 992 -871 1161 -102 34 -236 63 -299 65 -25 0 -10 6 50 18 214 46 405 175
525 356 46 70 97 186 116 265 19 82 17 339 -5 416 -67 244 -249 453 -478 550
-35 15 -86 33 -114 41 -49 14 -300 27 -340 17z"/>
</g>
</svg>
