<?xml version="1.0" encoding="UTF-8"?>
<!DOCTYPE svg PUBLIC "-//W3C//DTD SVG 1.1//EN" "http://www.w3.org/Graphics/SVG/1.1/DTD/svg11.dtd">
<!-- Creator: CorelDRAW -->
<svg xmlns="http://www.w3.org/2000/svg" xml:space="preserve" width="8.5in" height="8.5in" style="shape-rendering:geometricPrecision; text-rendering:geometricPrecision; image-rendering:optimizeQuality; fill-rule:evenodd; clip-rule:evenodd"
viewBox="0 0 8.5 8.5"
 xmlns:xlink="http://www.w3.org/1999/xlink">
 <defs>
  <style type="text/css">
   <![CDATA[
    .fil0 {fill:#25211E}
    .fil1 {fill:#FDFDFD}
   ]]>
  </style>
 </defs>
 <g id="Layer_x0020_1">
  <metadata id="CorelCorpID_0Corel-Layer"/>
  <g id="_70735496">
   <path id="_103723360" class="fil0" d="M3.28919 0.864382l0 0.0249528c0,0.062748 0.162244,0.571835 0.192276,0.664551 0.0278819,0.0860945 0.0816063,0.241843 0.0983504,0.325902 0.00766142,0.0384764 0.0917047,0.323902 0.108673,0.323902 0.0334843,0 0.185189,-0.0434567 0.252937,-0.0548543 0.0908386,-0.0152835 0.178858,-0.0283346 0.279461,-0.0283346l0.0582283 0c0.102028,0 0.192437,0.00873228 0.279232,0.028563 0.0510984,0.0116732 0.233217,0.054626 0.261484,0.054626 0.0244803,-0.105083 0.0665827,-0.226008 0.098937,-0.325315 0.0291535,-0.0894724 0.0818425,-0.246319 0.0989213,-0.325335 0.0315,-0.145732 0.193122,-0.55739 0.193122,-0.663705l0 -0.0249528c0,-0.0759134 -0.0723071,-0.158059 -0.141421,-0.158059l-0.0415945 0c-0.0575827,0 -0.702307,0.343213 -0.773638,0.39098 -0.0701969,-0.0371457 -0.737902,-0.39098 -0.748681,-0.39098l-0.0748661 0c-0.0691142,0 -0.141421,0.0821457 -0.141421,0.158059z"/>
   <path id="_104811600" class="fil1" d="M3.40093 4.3715l0.47889 0.00336614c0.187953,0 0.470496,0.119528 0.507441,0.257878l-0.798594 0c-0.0267598,0 -0.176012,0.211177 -0.183012,0.241244l1.03152 0 0 0.0249528c0,0.111618 -0.134138,0.255339 -0.209622,0.306138 -0.0859055,0.0578071 -0.264984,0.118118 -0.405961,0.118118l-0.183173 0.00195276 -0.14126 -0.0102717 0 0.232925c0,0.0304409 0.447142,0.495992 0.502445,0.570665 0.0408858,0.0552047 0.502551,0.560677 0.52076,0.560677l0.374339 0 0 -0.0415945c0,-0.0409961 -0.867831,-0.98628 -0.964969,-1.13134 0.214579,0 0.456945,-0.0835748 0.585752,-0.171252 0.115669,-0.0787362 0.296031,-0.276965 0.296031,-0.460969l0.307791 0c0.0267677,0 0.17602,-0.215071 0.183012,-0.241244l-0.499122 0c-0.00768898,-0.0923819 -0.0836614,-0.196472 -0.12478,-0.257878l0.449209 0 0.0070315 0.00498425 0.176276 -0.248433 -0.00861417 -0.00611417 -1.72742 0.00204724 -0.173965 0.24415z"/>
   <path id="_103729456" class="fil0" d="M3.5749 4.12735l1.72742 -0.00204724 0.00861417 0.00611417 -0.176276 0.248433 -0.0070315 -0.00498425 -0.449209 0c0.0411181,0.0614055 0.117091,0.165496 0.12478,0.257878l0.499122 0c-0.00699213,0.0261732 -0.156244,0.241244 -0.183012,0.241244l-0.307791 0c0,0.184004 -0.180362,0.382232 -0.296031,0.460969 -0.128807,0.0876772 -0.371173,0.171252 -0.585752,0.171252 0.0971378,0.145063 0.964969,1.09035 0.964969,1.13134l0 0.0415945 -0.374339 0c-0.0182087,0 -0.479874,-0.505472 -0.52076,-0.560677 -0.0553031,-0.0746732 -0.502445,-0.540224 -0.502445,-0.570665l0 -0.232925 0.14126 0.0102717 0.183173 -0.00195276c0.140976,0 0.320055,-0.060311 0.405961,-0.118118 0.0754843,-0.0507992 0.209622,-0.19452 0.209622,-0.306138l0 -0.0249528 -1.03152 0c0.007,-0.0300669 0.156252,-0.241244 0.183012,-0.241244l0.798594 0c-0.0369449,-0.13835 -0.319488,-0.257878 -0.507441,-0.257878l-0.47889 -0.00336614 0.173965 -0.24415zm-2.08254 2.00276c0,0.345012 0.11222,0.66948 0.244563,0.88678 0.151228,0.248319 0.34685,0.390173 0.595752,0.535591 0.425654,0.248677 1.22739,0.341193 1.91317,0.341193l0.108142 0c0.659713,0 1.44659,-0.113787 1.85176,-0.361024 0.258606,-0.157803 0.410843,-0.278142 0.570654,-0.535728 0.13248,-0.213543 0.23126,-0.531697 0.23126,-0.87513l0 -0.158055c0,-0.87326 -0.43178,-1.78728 -0.785287,-2.31759 -0.186016,-0.279047 -0.468327,-0.617748 -0.732039,-0.815232 -0.163539,-0.122476 -0.281331,-0.203555 -0.47365,-0.299992 -0.103484,-0.0518976 -0.170732,-0.0667362 -0.282646,-0.108335 -0.0489646,-0.0181969 -0.25815,-0.0691654 -0.313492,-0.0691654l-0.216291 0c-0.833579,0 -1.55366,0.737906 -1.89505,1.24941 -0.223366,0.334669 -0.380154,0.630299 -0.537327,1.03491 -0.126461,0.325555 -0.279512,0.85178 -0.279512,1.29272l0 0.19965z"/>
  </g>
 </g>
</svg>
