<?xml version="1.0" encoding="UTF-8"?>
<!DOCTYPE svg PUBLIC "-//W3C//DTD SVG 1.1//EN" "http://www.w3.org/Graphics/SVG/1.1/DTD/svg11.dtd">
<!-- Creator: CorelDRAW -->
<svg xmlns="http://www.w3.org/2000/svg" xml:space="preserve" width="8.5in" height="8.5in" style="shape-rendering:geometricPrecision; text-rendering:geometricPrecision; image-rendering:optimizeQuality; fill-rule:evenodd; clip-rule:evenodd"
viewBox="0 0 8.5 8.5"
 xmlns:xlink="http://www.w3.org/1999/xlink">
 <defs>
  <style type="text/css">
   <![CDATA[
    .fil1 {fill:#1F1A17}
    .fil0 {fill:#E5E6E9}
   ]]>
  </style>
 </defs>
 <g id="Layer_x0020_1">
  <metadata id="CorelCorpID_0Corel-Layer"/>
  <path class="fil0" d="M3.82801 6.04806l0.843984 0c0,-0.988102 0.862335,-1.48735 0.862335,-2.35765l0 -0.0458701c0,-0.381453 -0.195122,-0.656654 -0.387571,-0.85089 -0.105744,-0.106728 -0.2415,-0.172429 -0.391984,-0.231831 -0.167685,-0.0661969 -0.308799,-0.0823465 -0.541465,-0.0823465l-0.128433 0c-0.169866,0 -0.289374,0.0656378 -0.419331,0.112748 -0.135118,0.0489803 -0.223315,0.133453 -0.329256,0.211992 -0.147984,0.109713 -0.361437,0.463909 -0.361437,0.721067l0 0.247693c0,0.389311 0.292917,0.852547 0.451461,1.10807 0.176461,0.284402 0.401697,0.707551 0.401697,1.16702z"/>
  <path class="fil0" d="M4.02983 2.06665l-0.0642165 0.00917323 -0.0550433 0.00917323 -0.0550394 0.00917323 -0.0366969 0.00917323 -0.0458701 0.00917717 -0.0275197 0.00917323 -0.0366969 0.00916929 -0.0366929 0.00917717 -0.0275236 0.00917323 -0.0275197 0.00917323 -0.0275236 0.00917717 -0.0275197 0.00916929 -0.0275197 0.00917323 -0.0183465 0.00917717 -0.0275236 0.00917323 -0.0183465 0.00917323 -0.0183465 0.00917323 -0.0275236 0.00917323 -0.0183465 0.00917323 -0.0183465 0.00917717 -0.0183465 0.00916929 -0.0183504 0.00917717 -0.0183465 0.00917323 -0.00917323 0.00917323 -0.0183504 0.00917323 -0.0183465 0.00917323 -0.0183465 0.00917323 -0.00917323 0.00917717 -0.0183465 0.00917323 -0.00917717 0.00917323 -0.0183465 0.00917323 -0.00917323 0.00917323 -0.0183465 0.00917323 -0.00917717 0.00917323 -0.0183425 0.00917323 -0.00917717 0.00917717 -0.00917323 0.00917323 -0.0183465 0.00917323 -0.00917323 0.00917323 -0.00917323 0.00917323 -0.00917717 0.00917323 -0.00917323 0.00917717 -0.0183465 0.00916929 -0.00917323 0.00917323 -0.00917323 0.00917717 -0.00917323 0.00917323 -0.00917323 0.00917323 -0.00917717 0.00917323 -0.00917323 0.00917323 -0.00917323 0.00917323 -0.00917323 0.00917717 -0.00917323 0.00916929 -0.00917323 0.00917717 -0.00917717 0.00917323 -0.00916929 0.00917323 -0.00917717 0.00917717 -0.00917323 0.00916929 -0.00917323 0.00917323 -0.00917323 0.0183504 -0.00917323 0.00917323 -0.00917323 0.00917323 -0.00917717 0.00917323 -0.00917323 0.00917323 -0.00916929 0.0183465 -0.00917717 0.00917717 -0.00917323 0.00917323 -0.00917323 0.0183465 -0.00917717 0.00917323 -0.00916929 0.0183504 -0.00917717 0.00917323 -0.00917323 0.0183465 -0.00917323 0.00917323 -0.00917323 0.0183465 -0.00917323 0.0183504 -0.00917323 0.00917323 -0.00917717 0.0183465 -0.00917323 0.0183465 -0.00916929 0.0183465 -0.00917717 0.00917323 -0.00917323 0.0183504 -0.00917323 0.0183465 -0.00917323 0.0183465 -0.00917323 0.0183465 -0.00917323 0.0275236 -0.00917717 0.0183465 -0.00917323 0.0183504 -0.00917323 0.0275197 -0.00917323 0.0183465 -0.00917323 0.0275236 -0.00917323 0.0275197 -0.00917323 0.0183465 -0.00917323 0.0366969 -0.00917717 0.0275197 -0.00917323 0.0275236 -0.00917323 0.0366929 -0.00917323 0.0458701 -0.00917323 0.0458701 -0.00917323 0.0550394 -0.00917717 0.0733937 0 0.348598 0.00917717 0.0733898 0.00917323 0.0642205 0.00917323 0.0458661 0.00917323 0.0458701 0.00917323 0.0366969 0.00917323 0.0366929 0.00917717 0.0366929 0.00917323 0.0275236 0.00917323 0.0275197 0.00917323 0.0275236 0.00917323 0.0275197 0.00917323 0.0275236 0.00917323 0.0275197 0.00917323 0.0275197 0.00917717 0.0183504 0.00917323 0.0275197 0.00917323 0.0183465 0.00917323 0.0275197 0.00917323 0.0183504 0.00917323 0.0183465 0.00917717 0.0183465 0.00916929 0.0275236 0.00917323 0.0183465 0.00917717 0.0183465 0.00917323 0.0183504 0.00917323 0.0183465 0.00917323 0.0183465 0.00917323 0.0183465 0.00917323 0.0275236 0.00917717 0.0183465 0.00916929 0.00917323 0.00917717 0.0183504 0.00917323 0.0183465 0.00917323 0.0183465 0.00917717 0.0183465 0.00916929 0.00917323 0.00917323 0.0183504 0.00917717 0.0183465 0.00917323 0.0183465 0.00917323 0.00917323 0.00917323 0.0183465 0.00917323 0.0183504 0.00917323 0.0183465 0.00917717 0.00917323 0.00916929 0.0183465 0.00917717 0.0183504 0.00917323 0.00917323 0.00917323 0.0183465 0.00917323 0.0183465 0.00917323 0.00917717 0.00917323 0.0183465 0.00917717 0.0183465 0.00917323 0.00917323 0.00917323 0.0183465 0.00917323 0.0183504 0.00917323 0.0183465 0.00917323 0.00917323 0.00917323 0.0183504 0.00917323 0.0183425 0.00917717 0.00917717 0.00917323 0.0183465 0.00917323 0.0183465 0.00917323 0.0183504 0.00917323 0.00916929 0.00917323 0.0183504 0.00917717 0.0183465 0.00916929 0.0183465 0.00917323 0.0183504 0.00917717 0.00917323 0.00917323 0.0183465 0.00917323 0.0183465 0.00917323 0.0183504 0.00917323 0.0183465 0.00917323 0.0183465 0.00917717 0.0183504 0.00916929 0.0183465 0.00917717 0.0183465 0.00917323 0.0183465 0.00917323 0.0275236 0.00917323 0.0183465 0.00917323 0.0183465 0.00917323 0.0275197 0.00917717 0.0183504 0.00917323 0.0275197 0.00917323 0.0275197 0.00917323 0.0275236 0.00917323 0.0275197 0.00917323 0.0275236 0.00917717 0.0366929 0.00916929 0.0366969 0.00917717 0.0366969 0.00917323 0.0550394 0.00917323 0.128433 0.00917323 0.0275236 0.00917323 0.00916929 0.403646 0 0 -0.00916929c0,-0.459465 -0.225236,-0.882614 -0.401697,-1.16702 -0.158543,-0.255528 -0.451461,-0.718764 -0.451461,-1.10807l0 -0.247693c0,-0.257157 0.213453,-0.611354 0.361437,-0.721067 0.105941,-0.0785394 0.194138,-0.163012 0.329256,-0.211992 0.129957,-0.0471102 0.249465,-0.112748 0.419331,-0.112748l0.128433 0c0.232665,0 0.37378,0.0161496 0.541465,0.0823465 0.150484,0.0594016 0.28624,0.125102 0.391984,0.231831 0.192449,0.194236 0.387571,0.469437 0.387571,0.85089l0 0.0458701c0,0.870307 -0.862335,1.36955 -0.862335,2.35765l0.403646 0 0.00917323 -0.0550433 0.00917717 -0.0917402 0.00917323 -0.0550433 0.00916929 -0.0458661 0.00917717 -0.0366969 0.00917323 -0.0366929 0.00917323 -0.0275236 0.00917323 -0.0366929 0.00917323 -0.0183504 0.00917323 -0.0275197 0.00917717 -0.0275197 0.00917323 -0.0183504 0.00917323 -0.0275197 0.00917323 -0.0183465 0.00917323 -0.0183465 0.00917323 -0.0275236 0.00917323 -0.0183465 0.00917323 -0.0183465 0.00917717 -0.0183465 0.00917323 -0.0183504 0.00917323 -0.0183465 0.00917323 -0.0183465 0.00917323 -0.0183504 0.00917323 -0.00917323 0.00917717 -0.0183465 0.00916929 -0.0183465 0.00917717 -0.0183504 0.00917323 -0.0183465 0.00917323 -0.00917323 0.00917323 -0.0183465 0.00917323 -0.0183465 0.00917323 -0.0183504 0.00917717 -0.00917323 0.00917323 -0.0183465 0.00916929 -0.0183504 0.00917717 -0.0183425 0.00917323 -0.00917717 0.00917323 -0.0183465 0.00917717 -0.0183465 0.00916929 -0.00917323 0.00917323 -0.0183504 0.00917717 -0.0183465 0.00917323 -0.0183465 0.00917323 -0.00917717 0.00917323 -0.0183465 0.00917323 -0.0183465 0.00917717 -0.0183465 0.00917323 -0.00917323 0.00916929 -0.0183504 0.00917717 -0.0183465 0.00917323 -0.00917323 0.00917323 -0.0183465 0.00917323 -0.0183504 0.00917323 -0.0183465 0.00917323 -0.00917323 0.00917717 -0.0183465 0.00917323 -0.0183465 0.00917323 -0.0183504 0.00917323 -0.00917323 0.00917323 -0.0183465 0.00917323 -0.0183465 0.00917323 -0.0183465 0.00917323 -0.0183504 0.00917717 -0.00917323 0.00917323 -0.0183465 0.00917323 -0.0275236 0.00917323 -0.0183465 0.00917323 -0.0183465 0.00917323 -0.0183465 0.00917717 -0.0183504 0.00916929 -0.0183465 0.00917717 -0.0183465 0.00917323 -0.0183504 0.00917323 -0.0275197 0.00917323 -0.0183465 0.00917323 -0.0183504 0.00917323 -0.0275197 0.00917717 -0.0183465 0.00917323 -0.0183465 0.00916929 -0.0275236 0.00917717 -0.0275197 0.00917323 -0.0183504 0.00917323 -0.0275197 0.00917717 -0.0275197 0.00916929 -0.0275236 0.00917323 -0.0275197 0.00917717 -0.0366969 0.00917323 -0.0275197 0.00917323 -0.0366969 0.00917323 -0.0458661 0.00917323 -0.0458701 0.00917323 -0.0458661 0.00917717 -0.0642205 0.00916929 -0.0917362 0 -0.266039 -0.00916929 -0.100909 -0.00917717 -0.0642165 -0.00917323 -0.0550433 -0.00917323 -0.0458701 -0.00917323 -0.0458661 -0.00917323 -0.0366969 -0.00917323 -0.0366929 -0.00917717 -0.0275236 -0.00917323 -0.0275197 -0.00916929 -0.0275236 -0.00917717 -0.0275197 -0.00917323 -0.0275197 -0.00917323 -0.0183504 -0.00917717 -0.0183465 -0.00916929 -0.0275197 -0.00917323 -0.0183465 -0.00917717 -0.0183504 -0.00917323 -0.0183465 -0.00917323 -0.0183465 -0.00917323 -0.0183504 -0.00917323 -0.0183465 -0.00917323 -0.0183465 -0.00917717 -0.00917323 -0.00916929 -0.0183465 -0.00917717 -0.0183504 -0.00917323 -0.00917323 -0.00917323 -0.0183465 -0.00917323 -0.00917323 -0.00917323 -0.0183465 -0.00917323 -0.00917717 -0.00917717 -0.00917323 -0.00917323 -0.0183465 -0.00917323 -0.00917323 -0.00917323 -0.00917323 -0.00917323 -0.0183465 -0.00917323 -0.00917717 -0.00917323 -0.00917323 -0.00917323 -0.00917323 -0.00917717 -0.00917323 -0.00917323 -0.0183465 -0.00917323 -0.00917717 -0.00917323 -0.00917323 -0.00917323 -0.00916929 -0.00917323 -0.00917717 -0.00917717 -0.00917323 -0.00916929 -0.00917323 -0.00917323 -0.00917717 -0.00917717 -0.00916929 -0.00917323 -0.00917717 -0.00917323 -0.00917323 -0.00917323 -0.00917323 -0.00917323 -0.00917323 -0.00917717 -0.00917323 -0.0183425 -0.00917323 -0.00917717 -0.00917717 -0.00917323 -0.00917323 -0.00917323 -0.00916929 -0.00917717 -0.00917717 -0.0183425 -0.00917323 -0.00917717 -0.00917323 -0.00917323 -0.00917323 -0.0183465 -0.00917323 -0.00917323 -0.00917323 -0.00917323 -0.00917717 -0.0183465 -0.00917323 -0.00917717 -0.00917323 -0.0183465 -0.00917323 -0.00917323 -0.00917323 -0.0183465 -0.00917323 -0.00917717 -0.00917323 -0.0183465 -0.00917323 -0.00917323 -0.00917717 -0.0183465 -0.00917323 -0.0183465 -0.00917323 -0.0183504 -0.00917323 -0.00917323 -0.00917323 -0.0183465 -0.00917323 -0.0183504 -0.00917717 -0.0183425 -0.00916929 -0.0183504 -0.00917717 -0.0183465 -0.00917323 -0.0183465 -0.00917323 -0.0183465 -0.00917323 -0.0275236 -0.00917323 -0.0183465 -0.00917323 -0.0183504 -0.00917717 -0.0275197 -0.00917323 -0.0183465 -0.00916929 -0.0275236 -0.00917717 -0.0275197 -0.00917323 -0.0275236 -0.00917323 -0.0275197 -0.00917717 -0.0275197 -0.00916929 -0.0366969 -0.00917323 -0.0366969 -0.00917717 -0.0366929 -0.00917323 -0.0458701 -0.00917323 -0.0550394 -0.00917323 -0.0642165 -0.00917323 -0.0917402 -0.00917717 -0.284386 0 -0.0917362 0.00917717z"/>
  <polygon class="fil1" points="3.58949,6.25905 3.57115,6.26822 3.5528,6.2774 3.54362,6.28657 3.53445,6.29574 3.52528,6.30492 3.5161,6.32327 3.50693,6.35079 3.50693,6.46087 3.5161,6.47922 3.52528,6.49757 3.53445,6.50674 3.54362,6.51591 3.5528,6.52509 3.56197,6.53426 3.57115,6.54344 3.59867,6.55261 3.62619,6.56178 4.86464,6.56178 4.89217,6.55261 4.91969,6.54344 4.92886,6.53426 4.93803,6.52509 4.9472,6.51591 4.95638,6.50674 4.96556,6.49757 4.97473,6.47922 4.9839,6.46087 4.9839,6.35079 4.97473,6.32327 4.96556,6.31409 4.95638,6.29574 4.9472,6.28657 4.93803,6.2774 4.91969,6.26822 4.90133,6.25905 4.87381,6.24988 3.60784,6.24988 "/>
  <polygon class="fil1" points="3.62619,6.74526 3.60784,6.75443 3.58949,6.76361 3.58031,6.77278 3.57115,6.78195 3.56197,6.79113 3.5528,6.8003 3.54362,6.81865 3.53445,6.837 3.53445,6.95626 3.54362,6.9746 3.5528,6.99295 3.56197,7.00213 3.57115,7.0113 3.58031,7.02047 3.58949,7.02965 3.60784,7.03882 3.63536,7.04799 3.67206,7.05717 4.82794,7.05717 4.86464,7.04799 4.88299,7.03882 4.90133,7.02965 4.91051,7.02047 4.91969,7.0113 4.92886,7.00213 4.93803,6.99295 4.9472,6.9746 4.95638,6.94708 4.95638,6.84617 4.9472,6.81865 4.93803,6.8003 4.92886,6.79113 4.91969,6.78195 4.91051,6.77278 4.90133,6.76361 4.89217,6.75443 4.87381,6.74526 4.83712,6.73609 3.65371,6.73609 "/>
  <polygon class="fil1" points="3.6904,7.24981 3.69957,7.25899 3.70875,7.26816 3.71792,7.27733 3.7271,7.28651 3.73627,7.29568 3.74544,7.30486 3.75462,7.31403 3.77296,7.3232 3.78214,7.33238 3.79131,7.34155 3.80049,7.35072 3.80966,7.3599 3.81883,7.36907 3.82801,7.37825 3.83718,7.38742 3.84635,7.39659 3.85553,7.40577 3.8647,7.41494 3.87387,7.42411 3.88305,7.43329 3.89222,7.44246 3.9014,7.45164 3.91057,7.46081 3.91974,7.46998 3.92892,7.47916 3.93809,7.48833 3.95644,7.49751 3.96561,7.50668 3.97479,7.51585 3.99313,7.52503 4.00231,7.5342 4.02066,7.54337 4.04818,7.55255 4.06653,7.56172 4.10322,7.5709 4.16744,7.58007 4.24083,7.58007 4.32339,7.5709 4.36926,7.56172 4.40595,7.55255 4.44265,7.54337 4.47017,7.5342 4.48852,7.52503 4.50687,7.51585 4.52521,7.50668 4.54356,7.49751 4.55274,7.48833 4.56191,7.47916 4.58026,7.46998 4.58943,7.46081 4.5986,7.45164 4.60778,7.44246 4.61695,7.43329 4.62613,7.42411 4.6353,7.41494 4.64447,7.40577 4.65365,7.39659 4.66282,7.38742 4.67199,7.37825 4.68117,7.36907 4.69034,7.3599 4.69951,7.35072 4.70869,7.34155 4.71786,7.33238 4.72704,7.3232 4.73621,7.31403 4.74538,7.30486 4.75456,7.29568 4.76373,7.28651 4.77291,7.27733 4.78208,7.26816 4.79125,7.25899 4.8096,7.24981 4.8096,7.22229 3.6904,7.22229 "/>
 </g>
</svg>
