<?xml version="1.0" encoding="UTF-8"?>
<!DOCTYPE svg PUBLIC "-//W3C//DTD SVG 1.1//EN" "http://www.w3.org/Graphics/SVG/1.1/DTD/svg11.dtd">
<!-- Creator: CorelDRAW -->
<svg xmlns="http://www.w3.org/2000/svg" xml:space="preserve" width="0.621in" height="0.621in" style="shape-rendering:geometricPrecision; text-rendering:geometricPrecision; image-rendering:optimizeQuality; fill-rule:evenodd; clip-rule:evenodd"
viewBox="0 0 0.621 0.621"
 xmlns:xlink="http://www.w3.org/1999/xlink">
 <defs>
  <style type="text/css">
   <![CDATA[
    .fil1 {fill:#84C225}
    .fil0 {fill:white}
   ]]>
  </style>
 </defs>
 <g id="Layer_x0020_1">
  <metadata id="CorelCorpID_0Corel-Layer"/>
  <circle class="fil0" cx="0.310499" cy="0.310503" r="0.310513"/>
  <g id="_183637568">
   <path id="_183642824" class="fil1" d="M0.166795 0.24928l0.000791339 -0.00491339 -0.000437008 -9.44882e-005 0.000783465 -0.000897638 -0.00080315 -0.000133858 0.000937008 -0.00151969c-0.0010315,-0.00184252 -0.00057874,-0.00108268 -0.000448819,-0.00270079l1.9685e-005 -0.00233858 0.00158268 -0.0135236 0.000661417 5.11811e-005 0.00015748 -0.00198425c2.75591e-005,-0.000322835 0.00174409,-0.00676772 0.00199213,-0.00744488 0.000807087,-0.00223622 0.0017126,-0.00484646 0.0025315,-0.00716535 0.00155512,-0.00440157 0.00331102,-0.00816535 0.00573622,-0.0124606 0.00225984,-0.00399606 0.00474016,-0.00770866 0.00739764,-0.0112323 0.00132283,-0.00175984 0.00269685,-0.00367323 0.00422835,-0.00517717 0.000712598,-0.00069685 0.00399213,-0.0042126 0.00448425,-0.00487402 0.0037126,-0.00498819 0.0150118,-0.0122835 0.0203819,-0.0162717 0.00504724,-0.00374803 0.0159685,-0.0128031 0.0246378,-0.0113661l0.0049252 0.000807087 -5.11811e-005 0.000661417c0.00427165,0.00034252 0.00897244,0.00620866 0.0100118,0.00595669l0.00403937 0.00558661 0.00164961 0.000374016c-0.00322047,-0.00575591 -0.0123268,-0.015311 -0.0213701,-0.0160354 -0.0104646,-0.000838583 -0.0197165,0.00799606 -0.026248,0.0126457 -0.00759055,0.00540551 -0.015937,0.0109646 -0.0218661,0.0181457 -0.0116142,0.0140709 -0.0232362,0.0323268 -0.0252598,0.057622l-0.000653543 0.0062874 0.000188976 0.0119961z"/>
   <path id="_183638984" class="fil1" d="M0.166795 0.24928c-0.00105906,0.0132362 0.0048937,0.0315866 0.00766142,0.0422126 0.0028622,0.0109921 0.0097874,0.0264331 0.0147874,0.0361457 0.00599606,0.0116575 0.0120512,0.0217874 0.0189213,0.032622 0.00590945,0.00931496 0.0144764,0.0218386 0.0215551,0.0300709 0.00402756,0.00468504 0.00758268,0.00962992 0.0116693,0.0144291 0.00411811,0.00483071 0.0082874,0.00905906 0.0123819,0.0138189 0.00392913,0.00456693 0.0089252,0.00879134 0.0132795,0.0130591 0.0046811,0.00459449 0.00942913,0.00795669 0.0141929,0.0122795 0.00801181,0.00727953 0.022122,0.015752 0.0325394,0.0210236 0.010626,0.00537795 0.0266024,0.0114567 0.0419606,0.012685l0.00662205 0.000531496c0.0211535,0.00169291 0.0414094,-0.00517717 0.0548031,-0.0128031 0.00658268,-0.00374803 0.014437,-0.00981102 0.0202756,-0.0145827 0.00548425,-0.00447638 0.0152047,-0.0100197 0.0159724,-0.0196339l0.000185039 -0.00231496c0.000625984,-0.00781102 -0.00555906,-0.0188307 -0.00920472,-0.0233189 -0.00256693,-0.00316142 -0.00496063,-0.00614567 -0.00776772,-0.00911417 -0.00267323,-0.00283071 -0.00582677,-0.0054685 -0.00833858,-0.0083189 -0.00774803,-0.00877953 -0.0252874,-0.0259331 -0.0408819,-0.0271811l-0.000330709 -2.75591e-005c-0.0138622,-0.00111024 -0.0222677,0.00684646 -0.0302677,0.0129921 -0.00455512,0.0035 -0.00782283,0.00629921 -0.0121339,0.0100157 -0.00325591,0.00280709 -0.00964961,0.00614173 -0.0155315,0.00567323l-0.000661417 -5.51181e-005c-0.0142913,-0.00114173 -0.0247835,-0.0112087 -0.0324567,-0.018315 -0.00640945,-0.00593307 -0.0182008,-0.0189961 -0.0227441,-0.0262795 -0.00273228,-0.00438189 -0.00700394,-0.00971654 -0.0101496,-0.0141811 -0.00332677,-0.00472441 -0.00647244,-0.00979528 -0.00931102,-0.0148976 -0.00500787,-0.00899213 -0.0122756,-0.0223031 -0.0111654,-0.0361417 0.00126772,-0.0158622 0.0145,-0.0190787 0.0234882,-0.0260197 0.00927559,-0.00715748 0.0197756,-0.0121417 0.0220866,-0.0273031 0.00198819,-0.0130354 -0.00441339,-0.0282795 -0.00895669,-0.0370984 -0.00258268,-0.00502362 -0.0144646,-0.0284134 -0.0172717,-0.0306339l-0.00164961 -0.000374016 -0.00403937 -0.00558661c-0.00103937,0.000251969 -0.00574016,-0.00561417 -0.0100118,-0.00595669l5.11811e-005 -0.000661417 -0.0049252 -0.000807087c-0.00866929,-0.00143701 -0.0195906,0.00761811 -0.0246378,0.0113661 -0.00537008,0.00398819 -0.0166693,0.0112835 -0.0203819,0.0162717 -0.000492126,0.000661417 -0.00377165,0.00417717 -0.00448425,0.00487402 -0.0015315,0.00150394 -0.00290551,0.00341732 -0.00422835,0.00517717 -0.00265748,0.00352362 -0.0051378,0.00723622 -0.00739764,0.0112323 -0.0024252,0.00429528 -0.0041811,0.00805906 -0.00573622,0.0124606 -0.000818898,0.0023189 -0.00172441,0.00492913 -0.0025315,0.00716535 -0.000248031,0.000677165 -0.00196457,0.00712205 -0.00199213,0.00744488l-0.00015748 0.00198425 -0.000661417 -5.11811e-005 -0.00158268 0.0135236 -1.9685e-005 0.00233858c-0.000129921,0.00161811 -0.000582677,0.000858268 0.000448819,0.00270079l-0.000937008 0.00151969 0.00080315 0.000133858 -0.000783465 0.000897638 0.000437008 9.44882e-005 -0.000791339 0.00491339z"/>
  </g>
 </g>
</svg>
