<?xml version="1.0" standalone="no"?>
<!DOCTYPE svg PUBLIC "-//W3C//DTD SVG 20010904//EN"
 "http://www.w3.org/TR/2001/REC-SVG-20010904/DTD/svg10.dtd">
<svg version="1.0" xmlns="http://www.w3.org/2000/svg"
 width="944.000000pt" height="944.000000pt" viewBox="0 0 944.000000 944.000000"
 preserveAspectRatio="xMidYMid meet">
<metadata>
Created by potrace 1.15, written by Peter Selinger 2001-2017
</metadata>
<g transform="translate(0.000000,944.000000) scale(0.100000,-0.100000)"
fill="#000000" stroke="none">
<path d="M4450 7669 c-614 -26 -1031 -232 -1216 -601 -68 -136 -103 -256 -139
-480 l-6 -38 -613 0 -614 0 -88 -26 c-125 -36 -205 -83 -300 -178 -87 -88
-130 -154 -172 -268 l-27 -73 -3 -1910 c-2 -1288 1 -1926 8 -1959 44 -206 188
-391 375 -481 170 -82 -99 -75 3000 -75 3099 0 2830 -7 3000 75 187 90 331
275 375 481 7 33 10 671 8 1959 l-3 1910 -27 73 c-42 114 -85 180 -172 268
-95 95 -175 142 -300 178 l-88 26 -594 0 -593 0 -6 38 c-36 244 -85 405 -155
509 -100 150 -277 304 -445 387 -287 143 -698 206 -1205 185z m519 -575 c206
-24 382 -69 494 -126 61 -30 126 -97 158 -160 27 -53 69 -199 69 -240 0 -17
-55 -18 -1019 -18 l-1020 0 6 38 c19 135 64 243 129 308 49 49 171 110 294
148 235 71 556 89 889 50z m2474 -983 c64 -28 121 -82 151 -146 l26 -56 0
-669 0 -670 -1105 0 -1105 0 0 65 c0 246 -166 455 -398 504 -71 15 -613 15
-684 0 -187 -39 -348 -200 -387 -387 -6 -29 -11 -82 -11 -117 l0 -65 -1120 0
-1120 0 0 670 0 669 25 54 c31 65 76 111 141 143 l49 23 2747 1 c2691 0 2747
0 2791 -19z m-2478 -1406 l25 -24 0 -396 0 -396 -25 -24 -24 -25 -271 0 -271
0 -24 25 -25 24 0 396 0 396 25 24 24 25 271 0 271 0 24 -25z m-1035 -730 c0
-57 5 -128 11 -157 39 -187 200 -348 387 -387 71 -15 613 -15 684 0 187 39
348 200 387 387 6 29 11 100 11 157 l0 105 1105 0 1105 0 0 -930 0 -931 -29
-58 c-34 -66 -74 -104 -146 -137 l-50 -24 -2740 0 -2740 0 -50 24 c-72 33
-112 71 -146 137 l-29 58 0 931 0 930 1120 0 1120 0 0 -105z"/>
</g>
</svg>
