<?xml version="1.0" encoding="UTF-8"?>
<!DOCTYPE svg PUBLIC "-//W3C//DTD SVG 1.1//EN" "http://www.w3.org/Graphics/SVG/1.1/DTD/svg11.dtd">
<!-- Creator: CorelDRAW -->
<svg xmlns="http://www.w3.org/2000/svg" xml:space="preserve" width="3.5in" height="3.5in" style="shape-rendering:geometricPrecision; text-rendering:geometricPrecision; image-rendering:optimizeQuality; fill-rule:evenodd; clip-rule:evenodd"
viewBox="0 0 3.5 3.5"
 xmlns:xlink="http://www.w3.org/1999/xlink">
 <defs>
  <style type="text/css">
   <![CDATA[
    .fil2 {fill:#1F1A17}
    .fil0 {fill:white}
    .fil3 {fill:#1F1A17;fill-rule:nonzero}
    .fil1 {fill:#DEDEDD;fill-rule:nonzero}
   ]]>
  </style>
 </defs>
 <g id="Layer_x0020_1">
  <metadata id="CorelCorpID_0Corel-Layer"/>
  <g id="_44595952">
   <g>
    <path id="_110067200" class="fil0" d="M1.75 0.25c0.828287,0 1.5,0.671713 1.5,1.5 0,0.828287 -0.671713,1.5 -1.5,1.5 -0.828287,0 -1.5,-0.671713 -1.5,-1.5 0,-0.828287 0.671713,-1.5 1.5,-1.5z"/>
    <path id="_1100672001" class="fil1" d="M3.29465 1.75l-0.0892913 0 0 0 -0.00177953 -0.0750827 -0.00561417 -0.0739016 -0.00937008 -0.0727913 -0.0126693 -0.0715945 -0.0162283 -0.0704685 -0.0196929 -0.0689094 -0.0228898 -0.0675984 -0.0259921 -0.0661969 -0.0291693 -0.0643504 -0.0320827 -0.0627559 -0.0350787 -0.0610748 -0.0379724 -0.0589409 -0.0406063 -0.0570669 -0.0431339 -0.0550984 -0.0457559 -0.052685 -0.0482795 -0.0505236 -0.0505236 -0.0482795 -0.052685 -0.0457559 -0.0550984 -0.0431339 -0.0570669 -0.0406063 -0.0589409 -0.0379724 -0.0610748 -0.0350787 -0.0627559 -0.0320827 -0.0643504 -0.0291693 -0.0661969 -0.0259921 -0.0675984 -0.0228898 -0.0689094 -0.0196929 -0.0704685 -0.0162283 -0.0715945 -0.0126693 -0.0727913 -0.00937008 -0.0739016 -0.00561417 -0.0750827 -0.00177953 0 -0.0892913 0.0792717 0.00212598 0.0784291 0.0059685 0.0773268 0.00971654 0.0761299 0.0137165 0.0746575 0.0172756 0.0734449 0.0207402 0.0717795 0.0242835 0.0700315 0.0277323 0.0685394 0.0309173 0.0665906 0.0341772 0.064563 0.0371654 0.0627756 0.0400669 0.0605551 0.0430472 0.0582402 0.0459291 0.0561732 0.0485433 0.0536654 0.0510669 0.0510669 0.0536654 0.0485433 0.0561732 0.0459291 0.0582402 0.0430472 0.0605551 0.0400669 0.0627756 0.0371654 0.064563 0.0341772 0.0665906 0.0309173 0.0685394 0.0277323 0.0700315 0.0242835 0.0717795 0.0207402 0.0734449 0.0172756 0.0746575 0.0137165 0.0761299 0.00971654 0.0773268 0.0059685 0.0784291 0.00212598 0.0792717 0 0zm-1.54465 1.54465l0 -0.0892913 0 0 0.0750827 -0.00177953 0.0739016 -0.00561417 0.0727913 -0.00937008 0.0715945 -0.0126693 0.0704685 -0.0162283 0.0689094 -0.0196929 0.0675984 -0.0228898 0.0661969 -0.0259921 0.0643504 -0.0291693 0.0627559 -0.0320827 0.0610748 -0.0350787 0.0589409 -0.0379724 0.0570669 -0.0406063 0.0550984 -0.0431339 0.052685 -0.0457559 0.0505236 -0.0482795 0.0482795 -0.0505236 0.0457559 -0.052685 0.0431339 -0.0550984 0.0406063 -0.0570669 0.0379724 -0.0589409 0.0350787 -0.0610748 0.0320827 -0.0627559 0.0291693 -0.0643504 0.0259921 -0.0661969 0.0228898 -0.0675984 0.0196929 -0.0689094 0.0162283 -0.0704685 0.0126693 -0.0715945 0.00937008 -0.0727913 0.00561417 -0.0739016 0.00177953 -0.0750827 0.0892913 0 -0.00212598 0.0792717 -0.0059685 0.0784291 -0.00971654 0.0773268 -0.0137165 0.0761299 -0.0172756 0.0746575 -0.0207402 0.0734449 -0.0242835 0.0717795 -0.0277323 0.0700315 -0.0309173 0.0685394 -0.0341772 0.0665906 -0.0371654 0.064563 -0.0400669 0.0627756 -0.0430472 0.0605551 -0.0459291 0.0582402 -0.0485433 0.0561732 -0.0510669 0.0536654 -0.0536654 0.0510669 -0.0561732 0.0485433 -0.0582402 0.0459291 -0.0605551 0.0430472 -0.0627756 0.0400669 -0.064563 0.0371654 -0.0665906 0.0341772 -0.0685394 0.0309173 -0.0700315 0.0277323 -0.0717795 0.0242835 -0.0734449 0.0207402 -0.0746575 0.0172756 -0.0761299 0.0137165 -0.0773268 0.00971654 -0.0784291 0.0059685 -0.0792717 0.00212598 0 0zm-1.54465 -1.54465l0.0892913 0 0 0 0.00177953 0.0750827 0.00561417 0.0739016 0.00937008 0.0727913 0.0126693 0.0715945 0.0162283 0.0704685 0.0196929 0.0689094 0.0228898 0.0675984 0.0259921 0.0661969 0.0291693 0.0643504 0.0320827 0.0627559 0.0350787 0.0610748 0.0379724 0.0589409 0.0406063 0.0570669 0.0431339 0.0550984 0.0457559 0.052685 0.0482795 0.0505236 0.0505236 0.0482795 0.052685 0.0457559 0.0550984 0.0431339 0.0570669 0.0406063 0.0589409 0.0379724 0.0610748 0.0350787 0.0627559 0.0320827 0.0643504 0.0291693 0.0661969 0.0259921 0.0675984 0.0228898 0.0689094 0.0196929 0.0704685 0.0162283 0.0715945 0.0126693 0.0727913 0.00937008 0.0739016 0.00561417 0.0750827 0.00177953 0 0.0892913 -0.0792717 -0.00212598 -0.0784291 -0.0059685 -0.0773268 -0.00971654 -0.0761299 -0.0137165 -0.0746575 -0.0172756 -0.0734449 -0.0207402 -0.0717795 -0.0242835 -0.0700315 -0.0277323 -0.0685394 -0.0309173 -0.0665906 -0.0341772 -0.064563 -0.0371654 -0.0627756 -0.0400669 -0.0605551 -0.0430472 -0.0582402 -0.0459291 -0.0561732 -0.0485433 -0.0536654 -0.0510669 -0.0510669 -0.0536654 -0.0485433 -0.0561732 -0.0459291 -0.0582402 -0.0430472 -0.0605551 -0.0400669 -0.0627756 -0.0371654 -0.064563 -0.0341772 -0.0665906 -0.0309173 -0.0685394 -0.0277323 -0.0700315 -0.0242835 -0.0717795 -0.0207402 -0.0734449 -0.0172756 -0.0746575 -0.0137165 -0.0761299 -0.00971654 -0.0773268 -0.0059685 -0.0784291 -0.00212598 -0.0792717 0 0zm1.54465 -1.54465l0 0.0892913 0 0 -0.0750827 0.00177953 -0.0739016 0.00561417 -0.0727913 0.00937008 -0.0715945 0.0126693 -0.0704685 0.0162283 -0.0689094 0.0196929 -0.0675984 0.0228898 -0.0661969 0.0259921 -0.0643504 0.0291693 -0.0627559 0.0320827 -0.0610748 0.0350787 -0.0589409 0.0379724 -0.0570669 0.0406063 -0.0550984 0.0431339 -0.052685 0.0457559 -0.0505236 0.0482795 -0.0482795 0.0505236 -0.0457559 0.052685 -0.0431339 0.0550984 -0.0406063 0.0570669 -0.0379724 0.0589409 -0.0350787 0.0610748 -0.0320827 0.0627559 -0.0291693 0.0643504 -0.0259921 0.0661969 -0.0228898 0.0675984 -0.0196929 0.0689094 -0.0162283 0.0704685 -0.0126693 0.0715945 -0.00937008 0.0727913 -0.00561417 0.0739016 -0.00177953 0.0750827 -0.0892913 0 0.00212598 -0.0792717 0.0059685 -0.0784291 0.00971654 -0.0773268 0.0137165 -0.0761299 0.0172756 -0.0746575 0.0207402 -0.0734449 0.0242835 -0.0717795 0.0277323 -0.0700315 0.0309173 -0.0685394 0.0341772 -0.0665906 0.0371654 -0.064563 0.0400669 -0.0627756 0.0430472 -0.0605551 0.0459291 -0.0582402 0.0485433 -0.0561732 0.0510669 -0.0536654 0.0536654 -0.0510669 0.0561732 -0.0485433 0.0582402 -0.0459291 0.0605551 -0.0430472 0.0627756 -0.0400669 0.064563 -0.0371654 0.0665906 -0.0341772 0.0685394 -0.0309173 0.0700315 -0.0277323 0.0717795 -0.0242835 0.0734449 -0.0207402 0.0746575 -0.0172756 0.0761299 -0.0137165 0.0773268 -0.00971654 0.0784291 -0.0059685 0.0792717 -0.00212598 0 0z"/>
   </g>
   <polygon class="fil2" points="1.59836,1.18435 1.59397,1.18454 1.59063,1.18494 1.58833,1.18556 1.58604,1.18618 1.58374,1.1868 1.58248,1.18763 1.58018,1.18824 1.57788,1.18886 1.57663,1.18969 1.57433,1.19031 1.57203,1.19093 1.57077,1.19176 1.56847,1.19237 1.56722,1.1932 1.56492,1.19382 1.56366,1.19465 1.56137,1.19527 1.56011,1.1961 1.55781,1.19672 1.55656,1.19755 1.5553,1.19838 1.553,1.199 1.55174,1.19983 1.54944,1.20044 1.54819,1.20128 1.54693,1.20211 1.54463,1.20272 1.54338,1.20356 1.54212,1.20439 1.54087,1.20522 1.53857,1.20583 1.53731,1.20667 1.53606,1.2075 1.5348,1.20833 1.53354,1.20916 1.53124,1.20977 1.52999,1.2106 1.52873,1.21143 1.52748,1.21226 1.52622,1.21309 1.52496,1.21393 1.52267,1.21454 1.52141,1.21537 1.52016,1.2162 1.5189,1.21704 1.51765,1.21787 1.51639,1.2187 1.51513,1.21952 1.51388,1.22035 1.51262,1.22119 1.51137,1.22202 1.51011,1.22285 1.50885,1.22368 1.5076,1.22451 1.50634,1.22534 1.50509,1.22617 1.50383,1.227 1.50257,1.22783 1.50132,1.22866 1.50006,1.22949 1.49881,1.23032 1.49755,1.23115 1.49608,1.23302 1.49483,1.23385 1.49357,1.23469 1.49231,1.23552 1.49106,1.23635 1.4898,1.23718 1.48833,1.23905 1.48708,1.23988 1.48582,1.24071 1.48457,1.24154 1.4831,1.24341 1.48184,1.24424 1.48059,1.24507 1.47912,1.24695 1.47786,1.24778 1.47661,1.24861 1.47514,1.25048 1.47388,1.25131 1.47241,1.25319 1.47116,1.25402 1.4699,1.25485 1.46843,1.25672 1.46696,1.25859 1.46571,1.25943 1.46424,1.2613 1.46298,1.26213 1.46152,1.264 1.46005,1.26588 1.45879,1.2667 1.45732,1.26858 1.45585,1.27045 1.45439,1.27233 1.45313,1.27316 1.45167,1.27503 1.4502,1.27691 1.44873,1.27878 1.44726,1.28065 1.44579,1.28252 1.44432,1.2844 1.44264,1.28731 1.44117,1.28919 1.4397,1.29106 1.43823,1.29294 1.43655,1.29585 1.43508,1.29772 1.4334,1.30064 1.43172,1.30356 1.43025,1.30543 1.42857,1.30835 1.42689,1.31126 1.425,1.31522 1.42331,1.31814 1.42163,1.32106 1.41974,1.32502 1.41785,1.32898 1.41595,1.33294 1.41385,1.33794 1.41153,1.34398 1.40921,1.35003 1.40689,1.35608 1.40372,1.3663 1.39906,1.38381 1.39566,1.40051 1.3933,1.41741 1.39221,1.42805 1.39177,1.43557 1.39174,1.441 1.39172,1.44642 1.3917,1.45185 1.39211,1.45519 1.3923,1.45958 1.39271,1.46292 1.39311,1.46626 1.39352,1.4696 1.39392,1.47294 1.39433,1.47629 1.39473,1.47963 1.39514,1.48297 1.39554,1.48631 1.39616,1.48861 1.39656,1.49196 1.39697,1.4953 1.39737,1.49864 1.39778,1.50198 1.3984,1.50428 1.3988,1.50762 1.39942,1.50992 1.39983,1.51326 1.40023,1.51661 1.40085,1.51891 1.40125,1.52224 1.40187,1.52454 1.40228,1.52789 1.40289,1.53019 1.4033,1.53353 1.40392,1.53583 1.40432,1.53917 1.40494,1.54147 1.40534,1.54481 1.40596,1.54711 1.40658,1.54941 1.4072,1.5517 1.4076,1.55505 1.40822,1.55735 1.40884,1.55965 1.40924,1.56299 1.40986,1.56529 1.41048,1.56759 1.41109,1.56989 1.41171,1.57219 1.41212,1.57552 1.41274,1.57782 1.41335,1.58012 1.41397,1.58242 1.41459,1.58472 1.4152,1.58702 1.41582,1.58932 1.41644,1.59162 1.41706,1.59392 1.41768,1.59622 1.4183,1.59852 1.41891,1.60081 1.41953,1.60311 1.41993,1.60645 1.42055,1.60875 1.42138,1.61001 1.422,1.61231 1.42262,1.61461 1.42324,1.61691 1.42385,1.6192 1.42447,1.6215 1.42509,1.6238 1.42571,1.6261 1.42632,1.6284 1.42694,1.6307 1.42756,1.633 1.42839,1.63425 1.42901,1.63655 1.42963,1.63885 1.43024,1.64115 1.43086,1.64345 1.43169,1.6447 1.43231,1.647 1.43293,1.6493 1.43354,1.6516 1.43416,1.6539 1.43499,1.65516 1.43561,1.65746 1.43623,1.65976 1.43685,1.66206 1.43768,1.66331 1.4383,1.66561 1.43891,1.66791 1.43974,1.66916 1.44036,1.67146 1.44098,1.67376 1.44181,1.67502 1.44243,1.67731 1.44304,1.67961 1.44387,1.68087 1.44449,1.68317 1.44511,1.68547 1.44594,1.68672 1.44656,1.68902 1.44717,1.69132 1.448,1.69258 1.44862,1.69488 1.44945,1.69613 1.45007,1.69843 1.45069,1.70073 1.45152,1.70198 1.45214,1.70428 1.45297,1.70554 1.45358,1.70784 1.45441,1.70909 1.45503,1.71139 1.45565,1.71369 1.45648,1.71495 1.4571,1.71725 1.45793,1.7185 1.45855,1.7208 1.45938,1.72206 1.46,1.72436 1.46083,1.72561 1.46144,1.72791 1.46227,1.72917 1.46289,1.73146 1.46372,1.73272 1.46434,1.73502 1.46517,1.73628 1.466,1.73753 1.46662,1.73983 1.46745,1.74109 1.46807,1.74339 1.4689,1.74464 1.46951,1.74694 1.47034,1.7482 1.47096,1.7505 1.47179,1.75175 1.47262,1.75301 1.47324,1.75531 1.47407,1.75656 1.47469,1.75886 1.47552,1.76012 1.47635,1.76137 1.47697,1.76367 1.4778,1.76493 1.47841,1.76722 1.47924,1.76848 1.48007,1.76974 1.48069,1.77204 1.48152,1.77329 1.48235,1.77455 1.48297,1.77685 1.4838,1.7781 1.48463,1.77936 1.48525,1.78166 1.48608,1.78291 1.48691,1.78417 1.48753,1.78647 1.48836,1.78772 1.48919,1.78898 1.48981,1.79128 1.49064,1.79254 1.49147,1.79379 1.4923,1.79505 1.49292,1.79735 1.49375,1.7986 1.49458,1.79986 1.49519,1.80216 1.49602,1.80341 1.49685,1.80467 1.49747,1.80696 1.4983,1.80822 1.49913,1.80948 1.49996,1.81073 1.50058,1.81303 1.50141,1.81429 1.50224,1.81554 1.50307,1.8168 1.50369,1.8191 1.50452,1.82035 1.50535,1.82161 1.50618,1.82287 1.50701,1.82412 1.50763,1.82642 1.50846,1.82768 1.50929,1.82893 1.51012,1.83019 1.51074,1.83249 1.51157,1.83374 1.5124,1.835 1.51323,1.83626 1.51406,1.83751 1.51468,1.83981 1.51551,1.84107 1.51634,1.84232 1.51717,1.84358 1.518,1.84483 1.51883,1.84609 1.51945,1.84839 1.52028,1.84964 1.52111,1.8509 1.52194,1.85215 1.52277,1.85341 1.5236,1.85467 1.52422,1.85696 1.52505,1.85822 1.52588,1.85948 1.52671,1.86073 1.52754,1.86199 1.52837,1.86324 1.52899,1.86554 1.52982,1.8668 1.53065,1.86806 1.53148,1.86931 1.53231,1.87057 1.53314,1.87182 1.53397,1.87308 1.5348,1.87433 1.53542,1.87663 1.53625,1.87789 1.53708,1.87915 1.53791,1.8804 1.53874,1.88166 1.53957,1.88291 1.5404,1.88417 1.54123,1.88543 1.54206,1.88668 1.54289,1.88793 1.54351,1.89023 1.54434,1.89149 1.54517,1.89274 1.546,1.894 1.54683,1.89526 1.54766,1.89651 1.54849,1.89777 1.54932,1.89902 1.55015,1.90028 1.55098,1.90154 1.55181,1.90279 1.55264,1.90405 1.55347,1.9053 1.5543,1.90656 1.55513,1.90781 1.55575,1.91011 1.55658,1.91137 1.55741,1.91263 1.55824,1.91388 1.55907,1.91514 1.55991,1.91639 1.56074,1.91765 1.56156,1.91891 1.56239,1.92016 1.56322,1.92142 1.56406,1.92267 1.56489,1.92393 1.56572,1.92519 1.56655,1.92644 1.56738,1.9277 1.56821,1.92895 1.56904,1.93021 1.56987,1.93146 1.5707,1.93272 1.57153,1.93397 1.57236,1.93523 1.57319,1.93648 1.57402,1.93774 1.57485,1.939 1.57568,1.94025 1.57651,1.94151 1.57734,1.94276 1.57817,1.94402 1.579,1.94528 1.57983,1.94653 1.58067,1.94779 1.5815,1.94904 1.58232,1.9503 1.58315,1.95156 1.58398,1.95281 1.58481,1.95407 1.58565,1.95532 1.58648,1.95658 1.58731,1.95783 1.58814,1.95909 1.58897,1.96035 1.5898,1.9616 1.59063,1.96286 1.59146,1.96411 1.59229,1.96537 1.59416,1.96684 1.59499,1.96809 1.59582,1.96935 1.59665,1.97061 1.59748,1.97186 1.59831,1.97312 1.59915,1.97437 1.59998,1.97563 1.60081,1.97689 1.60164,1.97814 1.60247,1.9794 1.6033,1.98065 1.60413,1.98191 1.60496,1.98316 1.60683,1.98463 1.60766,1.98589 1.60849,1.98714 1.60932,1.9884 1.61015,1.98965 1.61098,1.99091 1.61181,1.99217 1.61265,1.99342 1.61348,1.99468 1.6143,1.99593 1.61513,1.99719 1.61701,1.99866 1.61784,1.99991 1.61867,2.00117 1.6195,2.00243 1.62033,2.00368 1.62116,2.00494 1.62199,2.00619 1.62282,2.00745 1.6247,2.00892 1.62553,2.01017 1.62635,2.01143 1.62719,2.01269 1.62802,2.01394 1.62885,2.0152 1.62968,2.01645 1.63155,2.01792 1.63238,2.01918 1.63321,2.02043 1.63404,2.02169 1.63487,2.02294 1.6357,2.0242 1.63654,2.02546 1.63841,2.02693 1.63924,2.02818 1.64007,2.02944 1.6409,2.03069 1.64173,2.03195 1.64256,2.0332 1.64443,2.03467 1.64526,2.03593 1.64609,2.03719 1.64693,2.03844 1.64776,2.0397 1.64963,2.04117 1.65046,2.04242 1.65129,2.04367 1.65212,2.04493 1.65295,2.04619 1.65482,2.04765 1.65565,2.04891 1.65648,2.05017 1.65731,2.05142 1.65815,2.05268 1.66002,2.05415 1.66085,2.0554 1.66168,2.05666 1.66251,2.05791 1.66438,2.05938 1.66521,2.06064 1.66604,2.06189 1.66687,2.06315 1.66875,2.06462 1.66958,2.06587 1.67041,2.06713 1.67124,2.06839 1.67311,2.06985 1.67394,2.07111 1.67477,2.07237 1.6756,2.07362 1.67748,2.07509 1.67831,2.07635 1.67914,2.0776 1.67997,2.07886 1.68184,2.08033 1.68267,2.08158 1.6835,2.08284 1.68433,2.08409 1.6862,2.08556 1.68704,2.08682 1.68787,2.08807 1.68974,2.08954 1.69057,2.0908 1.6914,2.09206 1.69328,2.09352 1.69411,2.09478 1.69494,2.09604 1.69681,2.0975 1.69764,2.09876 1.69847,2.10002 1.6993,2.10127 1.70117,2.10274 1.702,2.104 1.70388,2.10546 1.70471,2.10672 1.70554,2.10798 1.70741,2.10944 1.70824,2.1107 1.70907,2.11196 1.71094,2.11343 1.71178,2.11468 1.71261,2.11593 1.71448,2.1174 1.71531,2.11866 1.71614,2.11991 1.71802,2.12138 1.71885,2.12264 1.71967,2.12389 1.72155,2.12536 1.72238,2.12662 1.72425,2.12809 1.72508,2.12934 1.72591,2.1306 1.72779,2.13207 1.72862,2.13332 1.73049,2.13479 1.73132,2.13605 1.73319,2.13752 1.73402,2.13877 1.73485,2.14003 1.73673,2.1415 1.73756,2.14275 1.73943,2.14422 1.74026,2.14548 1.74109,2.14673 1.74297,2.1482 1.7438,2.14946 1.74567,2.15093 1.7465,2.15218 1.74837,2.15365 1.7492,2.15491 1.75108,2.15637 1.75191,2.15763 1.75378,2.1591 1.75461,2.16035 1.75544,2.16161 1.75731,2.16308 1.75815,2.16433 1.76002,2.1658 1.76085,2.16706 1.76272,2.16853 1.76356,2.16978 1.76543,2.17125 1.76626,2.17251 1.76813,2.17398 1.77001,2.17544 1.77083,2.1767 1.77271,2.17817 1.77354,2.17943 1.77541,2.18089 1.77624,2.18215 1.77812,2.18362 1.77895,2.18487 1.78082,2.18634 1.78165,2.1876 1.78352,2.18907 1.78435,2.19032 1.78623,2.19179 1.7881,2.19326 1.78893,2.19452 1.79081,2.19598 1.79164,2.19724 1.79351,2.19871 1.79434,2.19996 1.79621,2.20143 1.79809,2.2029 1.79892,2.20416 1.80079,2.20563 1.80267,2.20709 1.8035,2.20835 1.80537,2.20982 1.8062,2.21107 1.80807,2.21254 1.80994,2.21401 1.81078,2.21527 1.81265,2.21674 1.81452,2.2182 1.81535,2.21946 1.81723,2.22093 1.8191,2.2224 1.81993,2.22365 1.82181,2.22512 1.82368,2.22659 1.82451,2.22784 1.82638,2.22931 1.82826,2.23078 1.83013,2.23225 1.83096,2.2335 1.83283,2.23497 1.83471,2.23644 1.83658,2.23791 1.83741,2.23917 1.83928,2.24063 1.84116,2.2421 1.84303,2.24357 1.84386,2.24483 1.84574,2.2463 1.84761,2.24776 1.84948,2.24923 1.85135,2.2507 1.85219,2.25196 1.85406,2.25343 1.85593,2.25489 1.85781,2.25636 1.85968,2.25783 1.86156,2.2593 1.86239,2.26056 1.86426,2.26202 1.86613,2.26349 1.868,2.26496 1.86988,2.26643 1.87175,2.2679 1.87363,2.26937 1.8755,2.27083 1.87737,2.2723 1.87924,2.27377 1.88112,2.27524 1.88299,2.27671 1.88591,2.27839 1.88778,2.27986 1.8907,2.28154 1.89361,2.28322 1.89549,2.28469 1.89841,2.28637 1.90132,2.28806 1.90424,2.28974 1.90716,2.29142 1.91007,2.2931 1.91299,2.29478 1.91591,2.29646 1.91987,2.29835 1.92278,2.30004 1.9257,2.30172 1.92966,2.30361 1.93362,2.3055 1.93758,2.3074 1.94154,2.30929 1.94654,2.3114 1.95154,2.3135 1.9555,2.3154 1.96155,2.31772 1.96759,2.32004 1.97469,2.32257 1.98386,2.32553 1.99512,2.32891 2.0358,2.3372 2.04749,2.3385 2.05604,2.33916 2.06252,2.33939 2.06899,2.33963 2.07442,2.33965 2.07984,2.33967 2.08423,2.33948 2.08861,2.33928 2.09196,2.33888 2.09634,2.33869 2.09969,2.33828 2.10302,2.33787 2.10637,2.33747 2.10971,2.33707 2.11305,2.33666 2.11639,2.33626 2.11869,2.33564 2.12204,2.33523 2.12433,2.33461 2.12663,2.334 2.12997,2.33359 2.13227,2.33298 2.13457,2.33236 2.13687,2.33174 2.13917,2.33112 2.14147,2.3305 2.14377,2.32989 2.14607,2.32927 2.14837,2.32865 2.15067,2.32803 2.15296,2.32742 2.15526,2.3268 2.15652,2.32597 2.15881,2.32535 2.16111,2.32473 2.16237,2.3239 2.16467,2.32328 2.16697,2.32267 2.16822,2.32183 2.17052,2.32122 2.17178,2.32039 2.17408,2.31977 2.17533,2.31894 2.17763,2.31832 2.17889,2.31749 2.18119,2.31687 2.18244,2.31604 2.1837,2.31521 2.186,2.31459 2.18726,2.31376 2.18851,2.31293 2.19081,2.31232 2.19206,2.31149 2.19332,2.31066 2.19562,2.31004 2.19687,2.30921 2.19813,2.30838 2.19939,2.30755 2.20169,2.30693 2.20294,2.3061 2.2042,2.30527 2.20545,2.30444 2.20671,2.30361 2.20901,2.30299 2.21026,2.30216 2.21152,2.30133 2.21278,2.3005 2.21403,2.29967 2.21529,2.29884 2.21654,2.29801 2.2178,2.29718 2.21906,2.29635 2.22031,2.29552 2.22157,2.29469 2.22282,2.29385 2.22408,2.29302 2.22533,2.2922 2.22659,2.29137 2.22785,2.29054 2.2291,2.2897 2.23036,2.28887 2.23161,2.28804 2.23287,2.28721 2.23413,2.28638 2.23538,2.28555 2.23663,2.28472 2.23789,2.28389 2.23915,2.28306 2.2404,2.28223 2.24166,2.2814 2.24313,2.27953 2.24438,2.2787 2.24564,2.27787 2.24689,2.27704 2.24815,2.2762 2.24941,2.27537 2.25087,2.2735 2.25213,2.27267 2.25339,2.27184 2.25464,2.27101 2.25611,2.26914 2.25737,2.26831 2.25862,2.26748 2.26009,2.2656 2.26135,2.26477 2.2626,2.26394 2.26407,2.26207 2.26533,2.26124 2.26658,2.26041 2.26805,2.25854 2.26931,2.2577 2.27078,2.25583 2.27203,2.255 2.2735,2.25313 2.27476,2.2523 2.27622,2.25042 2.27769,2.24855 2.27895,2.24772 2.28042,2.24584 2.28189,2.24397 2.28335,2.2421 2.28482,2.24022 2.28629,2.23835 2.28797,2.23543 2.28965,2.23252 2.29155,2.22856 2.29365,2.22356 2.29833,2.20061 2.29835,2.19518 2.29816,2.19079 2.29776,2.18745 2.29735,2.18411 2.29694,2.18077 2.29633,2.17847 2.29571,2.17617 2.29509,2.17387 2.29448,2.17157 2.29386,2.16927 2.29324,2.16697 2.29262,2.16467 2.29179,2.16342 2.29117,2.16112 2.29034,2.15987 2.28973,2.15757 2.2889,2.15631 2.28807,2.15506 2.28745,2.15276 2.28662,2.1515 2.28579,2.15024 2.28496,2.14899 2.28308,2.14752 2.28225,2.14626 2.28038,2.1448 2.27955,2.14354 2.27768,2.14207 2.27685,2.14081 2.27497,2.13935 2.27414,2.13809 2.27227,2.13662 2.27144,2.13537 2.26956,2.1339 2.26873,2.13264 2.26686,2.13117 2.26603,2.12992 2.26416,2.12845 2.26333,2.12719 2.26145,2.12572 2.26062,2.12447 2.25875,2.123 2.25792,2.12174 2.25604,2.12028 2.25521,2.11902 2.25334,2.11755 2.25251,2.1163 2.25064,2.11483 2.24876,2.11336 2.24793,2.1121 2.24606,2.11063 2.24523,2.10938 2.24335,2.10791 2.24252,2.10665 2.24065,2.10519 2.23982,2.10393 2.23795,2.10246 2.23712,2.1012 2.23524,2.09974 2.23441,2.09848 2.23254,2.09701 2.23171,2.09576 2.22983,2.09429 2.229,2.09303 2.22713,2.09156 2.2263,2.09031 2.22443,2.08884 2.2236,2.08758 2.22172,2.08611 2.22089,2.08486 2.21902,2.08339 2.21819,2.08213 2.21631,2.08067 2.21548,2.07941 2.21361,2.07794 2.21278,2.07669 2.21091,2.07522 2.21008,2.07396 2.2082,2.07249 2.20737,2.07124 2.2055,2.06977 2.20467,2.06852 2.2028,2.06705 2.20197,2.06579 2.20009,2.06432 2.19926,2.06307 2.19739,2.0616 2.19656,2.06034 2.19469,2.05887 2.19385,2.05762 2.19198,2.05615 2.19115,2.05489 2.18928,2.05343 2.18845,2.05217 2.18657,2.0507 2.18574,2.04944 2.18387,2.04798 2.18304,2.04672 2.18117,2.04525 2.18033,2.044 2.17846,2.04253 2.17763,2.04127 2.17576,2.0398 2.17493,2.03855 2.17306,2.03708 2.17118,2.03561 2.17035,2.03435 2.16848,2.03289 2.16765,2.03163 2.16577,2.03016 2.16494,2.02891 2.16307,2.02744 2.16224,2.02618 2.16037,2.02471 2.15954,2.02346 2.15766,2.02199 2.15683,2.02073 2.15496,2.01926 2.15413,2.01801 2.15225,2.01654 2.15143,2.01528 2.14955,2.01381 2.14872,2.01256 2.14685,2.01109 2.14602,2.00983 2.14414,2.00837 2.14331,2.00711 2.14144,2.00564 2.14061,2.00439 2.13873,2.00292 2.13791,2.00166 2.13603,2.00019 2.1352,1.99894 2.13333,1.99747 2.1325,1.99621 2.13062,1.99474 2.12979,1.99349 2.12792,1.99202 2.12709,1.99076 2.12522,1.9893 2.12439,1.98804 2.12251,1.98657 2.12168,1.98531 2.11981,1.98385 2.11898,1.98259 2.1171,1.98112 2.11627,1.97987 2.1144,1.9784 2.11357,1.97714 2.1117,1.97567 2.11087,1.97442 2.11004,1.97316 2.10816,1.97169 2.10733,1.97044 2.1065,1.96918 2.10463,1.96771 2.1038,1.96646 2.10192,1.96499 2.10005,1.96352 2.09922,1.96226 2.09735,1.9608 2.09547,1.95933 2.0936,1.95786 2.09172,1.95639 2.08881,1.95471 2.08589,1.95303 2.08298,1.95135 2.07902,1.94945 2.07193,1.94692 2.05837,1.94416 2.05085,1.94371 2.04647,1.9439 2.04313,1.94431 2.03978,1.94471 2.03748,1.94533 2.03519,1.94595 2.03289,1.94657 2.03059,1.94719 2.02829,1.9478 2.02703,1.94863 2.02473,1.94925 2.02348,1.95008 2.02222,1.95091 2.02096,1.95174 2.01971,1.95257 2.01845,1.9534 2.0172,1.95423 2.01594,1.95506 2.01469,1.95589 2.01343,1.95672 2.01218,1.95756 2.01092,1.95839 2.00967,1.95922 2.00841,1.96004 2.00715,1.96087 2.0059,1.9617 2.00464,1.96254 2.00339,1.96337 2.00213,1.9642 2.00087,1.96503 1.99962,1.96586 1.99836,1.96669 1.99711,1.96752 1.99585,1.96835 1.99459,1.96918 1.99313,1.97105 1.99187,1.97188 1.99061,1.97271 1.98936,1.97354 1.9881,1.97437 1.98685,1.9752 1.98559,1.97604 1.98433,1.97687 1.98308,1.9777 1.98182,1.97853 1.98057,1.97936 1.97931,1.98019 1.97806,1.98102 1.9768,1.98185 1.97554,1.98268 1.97429,1.98351 1.97303,1.98434 1.97178,1.98517 1.97052,1.986 1.96926,1.98683 1.96801,1.98766 1.96675,1.98849 1.9655,1.98932 1.96424,1.99015 1.96299,1.99098 1.96173,1.99181 1.96048,1.99264 1.95901,1.99452 1.95775,1.99535 1.9565,1.99618 1.95524,1.99701 1.95398,1.99784 1.95273,1.99867 1.95147,1.9995 1.95022,2.00033 1.94896,2.00116 1.9477,2.00199 1.94645,2.00282 1.94519,2.00365 1.94394,2.00448 1.94268,2.00531 1.94143,2.00614 1.94017,2.00697 1.93787,2.00759 1.93661,2.00842 1.93536,2.00925 1.93306,2.00987 1.9318,2.0107 1.9295,2.01131 1.92825,2.01215 1.92595,2.01276 1.92365,2.01338 1.92135,2.014 1.91906,2.01462 1.91676,2.01524 1.91446,2.01585 1.91111,2.01626 1.90881,2.01688 1.90443,2.01707 1.90109,2.01747 1.89462,2.01724 1.87584,2.01341 1.87084,2.0113 1.86688,2.00941 1.86396,2.00773 1.86209,2.00626 1.86022,2.00479 1.85834,2.00332 1.85543,2.00164 1.85355,2.00017 1.85168,1.9987 1.8498,1.99724 1.84793,1.99577 1.84502,1.99409 1.84314,1.99262 1.84127,1.99115 1.83939,1.98968 1.83752,1.98821 1.83565,1.98674 1.83377,1.98528 1.8319,1.98381 1.83003,1.98234 1.82815,1.98087 1.82628,1.9794 1.82441,1.97793 1.82357,1.97668 1.8217,1.97521 1.81983,1.97374 1.81795,1.97227 1.81608,1.9708 1.81421,1.96933 1.81338,1.96808 1.8115,1.96661 1.80963,1.96514 1.80776,1.96367 1.80693,1.96242 1.80505,1.96095 1.80318,1.95948 1.80235,1.95822 1.80048,1.95676 1.7986,1.95529 1.79777,1.95403 1.7959,1.95256 1.79402,1.95109 1.79319,1.94984 1.79132,1.94837 1.79049,1.94711 1.78862,1.94565 1.78779,1.94439 1.78591,1.94292 1.78508,1.94167 1.78321,1.9402 1.78238,1.93894 1.7805,1.93748 1.77967,1.93622 1.7778,1.93475 1.77697,1.9335 1.7751,1.93203 1.77427,1.93077 1.77239,1.9293 1.77156,1.92805 1.77073,1.92679 1.76886,1.92532 1.76803,1.92407 1.76615,1.9226 1.76533,1.92134 1.7645,1.92009 1.76262,1.91862 1.76179,1.91736 1.76096,1.91611 1.75909,1.91464 1.75826,1.91338 1.75743,1.91213 1.75555,1.91066 1.75472,1.9094 1.75389,1.90815 1.75306,1.90689 1.75119,1.90542 1.75036,1.90417 1.74953,1.90291 1.7487,1.90165 1.74787,1.9004 1.74599,1.89893 1.74516,1.89767 1.74433,1.89642 1.7435,1.89516 1.74163,1.89369 1.7408,1.89244 1.73997,1.89118 1.73914,1.88993 1.73831,1.88867 1.73748,1.88741 1.73665,1.88616 1.73477,1.88469 1.73394,1.88343 1.73311,1.88218 1.73228,1.88092 1.73145,1.87967 1.73062,1.87841 1.72979,1.87715 1.72896,1.8759 1.72709,1.87443 1.72626,1.87317 1.72543,1.87192 1.72459,1.87067 1.72376,1.86941 1.72293,1.86815 1.7221,1.8669 1.72127,1.86564 1.72044,1.86439 1.71961,1.86313 1.71878,1.86187 1.71795,1.86062 1.71712,1.85936 1.71629,1.85811 1.71546,1.85685 1.71463,1.85559 1.7138,1.85434 1.71297,1.85308 1.71214,1.85183 1.71131,1.85057 1.71048,1.84931 1.70965,1.84806 1.70882,1.8468 1.70799,1.84555 1.70716,1.84429 1.70633,1.84304 1.7055,1.84178 1.70467,1.84052 1.70383,1.83927 1.70322,1.83697 1.70239,1.83571 1.70156,1.83446 1.70072,1.8332 1.69989,1.83194 1.69907,1.83069 1.69824,1.82943 1.69741,1.82818 1.69657,1.82692 1.69596,1.82463 1.69513,1.82337 1.6943,1.82211 1.69346,1.82086 1.69263,1.8196 1.6918,1.81835 1.69119,1.81605 1.69035,1.81479 1.68953,1.81354 1.6887,1.81228 1.68787,1.81102 1.68725,1.80872 1.68642,1.80747 1.68559,1.80621 1.68476,1.80496 1.68414,1.80266 1.68331,1.8014 1.68248,1.80015 1.68186,1.79785 1.68103,1.79659 1.6802,1.79533 1.67937,1.79408 1.67875,1.79178 1.67792,1.79052 1.67709,1.78927 1.67647,1.78697 1.67564,1.78571 1.67502,1.78342 1.67419,1.78216 1.67336,1.78091 1.67274,1.77861 1.67192,1.77735 1.6713,1.77505 1.67047,1.7738 1.66964,1.77254 1.66902,1.77024 1.66819,1.76898 1.66757,1.76669 1.66674,1.76543 1.66612,1.76313 1.66529,1.76187 1.66467,1.75957 1.66385,1.75832 1.66323,1.75602 1.6624,1.75476 1.66178,1.75246 1.66116,1.75017 1.66033,1.74891 1.65971,1.74661 1.65909,1.74431 1.65826,1.74306 1.65765,1.74076 1.65703,1.73846 1.6562,1.7372 1.65558,1.73491 1.65496,1.73261 1.65413,1.73135 1.65352,1.72905 1.6529,1.72675 1.65228,1.72445 1.65166,1.72215 1.65104,1.71985 1.65022,1.7186 1.6496,1.7163 1.64898,1.714 1.64836,1.7117 1.64774,1.70941 1.64713,1.70711 1.64651,1.70481 1.64589,1.70251 1.64548,1.69917 1.64487,1.69687 1.64425,1.69457 1.64363,1.69227 1.64302,1.68997 1.64261,1.68663 1.64199,1.68433 1.64159,1.68099 1.64097,1.67869 1.64056,1.67535 1.64016,1.672 1.63997,1.66762 1.63999,1.66219 1.64043,1.65468 1.6432,1.64112 1.64594,1.63298 1.64805,1.62798 1.64994,1.62402 1.65163,1.62111 1.65331,1.61819 1.65499,1.61527 1.65667,1.61235 1.65814,1.61048 1.65961,1.60861 1.66129,1.60569 1.66276,1.60382 1.66422,1.60194 1.66548,1.60111 1.66695,1.59924 1.66842,1.59737 1.66989,1.5955 1.67114,1.59467 1.67261,1.59279 1.67408,1.59092 1.67533,1.59009 1.6768,1.58821 1.67806,1.58738 1.67953,1.58551 1.68078,1.58468 1.68204,1.58385 1.68351,1.58198 1.68476,1.58115 1.68623,1.57927 1.68749,1.57844 1.68874,1.57761 1.69,1.57678 1.69147,1.57491 1.69272,1.57407 1.69398,1.57324 1.69524,1.57241 1.69649,1.57158 1.69775,1.57076 1.69922,1.56888 1.70047,1.56805 1.70173,1.56722 1.70298,1.56639 1.70424,1.56556 1.70549,1.56473 1.70675,1.5639 1.708,1.56307 1.70926,1.56224 1.71052,1.56141 1.71177,1.56058 1.71303,1.55975 1.71428,1.55892 1.71554,1.55809 1.7168,1.55726 1.71805,1.55643 1.71931,1.55559 1.72056,1.55476 1.72182,1.55393 1.72307,1.5531 1.72433,1.55227 1.72663,1.55165 1.72789,1.55082 1.72914,1.55 1.7304,1.54917 1.73165,1.54833 1.73291,1.5475 1.73417,1.54667 1.73646,1.54606 1.73772,1.54522 1.73898,1.54439 1.74023,1.54356 1.74253,1.54294 1.74379,1.54211 1.74504,1.54128 1.7463,1.54046 1.74859,1.53984 1.74985,1.53901 1.75111,1.53818 1.75341,1.53756 1.75466,1.53673 1.75592,1.5359 1.75717,1.53507 1.75843,1.53424 1.75969,1.53341 1.76094,1.53257 1.76241,1.5307 1.76367,1.52987 1.76513,1.528 1.7666,1.52613 1.76807,1.52425 1.76954,1.52238 1.77101,1.5205 1.7729,1.51655 1.77522,1.5105 1.77735,1.50007 1.7778,1.49256 1.7776,1.48817 1.7772,1.48483 1.77679,1.48148 1.77617,1.47919 1.77556,1.47689 1.77494,1.47459 1.77432,1.47229 1.7737,1.46999 1.77287,1.46874 1.77226,1.46644 1.77143,1.46518 1.77081,1.46288 1.76998,1.46163 1.76936,1.45933 1.76853,1.45807 1.76791,1.45577 1.76708,1.45452 1.76646,1.45222 1.76563,1.45096 1.76502,1.44866 1.76419,1.44741 1.76357,1.44511 1.76295,1.44281 1.76212,1.44155 1.7615,1.43925 1.76067,1.438 1.76006,1.4357 1.75922,1.43444 1.75861,1.43215 1.75778,1.43089 1.75716,1.42859 1.75633,1.42733 1.75571,1.42504 1.75488,1.42378 1.75426,1.42148 1.75343,1.42022 1.75281,1.41793 1.75198,1.41667 1.75137,1.41437 1.75054,1.41311 1.74992,1.41081 1.74909,1.40956 1.74847,1.40726 1.74764,1.406 1.74702,1.40371 1.74619,1.40245 1.74557,1.40015 1.74474,1.3989 1.74413,1.3966 1.7433,1.39534 1.74268,1.39304 1.74185,1.39179 1.74123,1.38949 1.7404,1.38823 1.73978,1.38593 1.73895,1.38468 1.73833,1.38238 1.7375,1.38112 1.73689,1.37882 1.73606,1.37757 1.73544,1.37527 1.73461,1.37401 1.73399,1.37171 1.73316,1.37046 1.73254,1.36816 1.73192,1.36586 1.73109,1.36461 1.73047,1.36231 1.72964,1.36105 1.72903,1.35875 1.7282,1.3575 1.72758,1.3552 1.72675,1.35394 1.72613,1.35164 1.7253,1.35039 1.72468,1.34809 1.72385,1.34683 1.72323,1.34453 1.7224,1.34328 1.72178,1.34098 1.72096,1.33972 1.72034,1.33742 1.71951,1.33617 1.71889,1.33387 1.71806,1.33261 1.71744,1.33031 1.71661,1.32906 1.71599,1.32676 1.71516,1.3255 1.71454,1.3232 1.71372,1.32195 1.7131,1.31965 1.71227,1.31839 1.71165,1.31609 1.71082,1.31484 1.7102,1.31254 1.70937,1.31128 1.70875,1.30898 1.70792,1.30773 1.7073,1.30543 1.70647,1.30417 1.70586,1.30187 1.70503,1.30062 1.70441,1.29832 1.70358,1.29707 1.70296,1.29477 1.70213,1.29351 1.70151,1.29121 1.70089,1.28891 1.70006,1.28766 1.69944,1.28536 1.69861,1.2841 1.698,1.2818 1.69717,1.28055 1.69655,1.27825 1.69572,1.27699 1.6951,1.27469 1.69427,1.27344 1.69365,1.27114 1.69282,1.26988 1.6922,1.26759 1.69137,1.26633 1.69076,1.26403 1.68993,1.26278 1.68931,1.26048 1.68848,1.25922 1.68786,1.25692 1.68703,1.25567 1.68641,1.25337 1.68558,1.25211 1.68496,1.24981 1.68413,1.24856 1.68352,1.24626 1.68269,1.245 1.68207,1.2427 1.68124,1.24144 1.68062,1.23915 1.67979,1.23789 1.67917,1.23559 1.67834,1.23433 1.67772,1.23204 1.67689,1.23078 1.67628,1.22848 1.67544,1.22723 1.67483,1.22493 1.674,1.22367 1.67317,1.22242 1.67234,1.22116 1.67151,1.21991 1.67068,1.21865 1.6688,1.21718 1.66797,1.21593 1.66714,1.21467 1.66527,1.2132 1.66444,1.21194 1.66257,1.21048 1.66174,1.20922 1.65986,1.20775 1.65799,1.20628 1.65611,1.20481 1.65424,1.20335 1.65237,1.20188 1.65049,1.20041 1.64758,1.19873 1.6457,1.19726 1.64279,1.19558 1.63883,1.19369 1.63487,1.19179 1.62778,1.18926 1.60587,1.18479 "/>
   <g>
    <path class="fil3" d="M2.32308 0.81463l0 0 -1.10347 0 0 -0.11111 1.10347 0 0 0.11111zm0.220358 0.109248l-0.11111 0 0 0 0 -0.00562598 -0.00042126 -0.00551969 -0.000838583 -0.00561811 -0.000799213 -0.00527559 -0.00120079 -0.00512992 -0.00157874 -0.00520472 -0.00173228 -0.00503937 -0.00187795 -0.00487402 -0.00222441 -0.00490551 -0.00235039 -0.00471654 -0.00267717 -0.00451575 -0.00277953 -0.00451969 -0.00308661 -0.00429134 -0.00338583 -0.00406299 -0.00345276 -0.0040315 -0.00372835 -0.00399606 -0.00377953 -0.00351575 -0.00403543 -0.00345276 -0.00406299 -0.00338189 -0.00429134 -0.00308661 -0.00451969 -0.00277953 -0.00451181 -0.0026811 -0.00472047 -0.00235039 -0.00490551 -0.00222441 -0.00487008 -0.00187795 -0.00504331 -0.00173228 -0.00520079 -0.00157874 -0.00513386 -0.00120079 -0.00527559 -0.000799213 -0.00561811 -0.000838583 -0.00551969 -0.00042126 -0.00562598 0 0 -0.11111 0.0112717 0.000433071 0.0111575 0.000854331 0.0108307 0.00127165 0.0109134 0.0021063 0.0107795 0.0025 0.0104055 0.00287795 0.0102559 0.00347244 0.0100748 0.00404331 0.00968504 0.00439764 0.00949213 0.00495669 0.00928346 0.00527953 0.00885827 0.0058189 0.0086378 0.00612598 0.00840157 0.00642126 0.00794094 0.0069252 0.00768504 0.00742126 0.00720079 0.0074685 0.0069252 0.00793701 0.0064252 0.00840157 0.00612598 0.0086378 0.0058189 0.00885827 0.00527559 0.0092874 0.00495669 0.00948819 0.00439764 0.00968504 0.00404331 0.0100787 0.00347244 0.010252 0.00287795 0.0104094 0.0025 0.0107756 0.0021063 0.0109134 0.00127165 0.0108307 0.000854331 0.0111575 0.000433071 0.0112717 0 0zm-0.11111 1.65224l0 0 0 -1.65224 0.11111 0 0 1.65224 -0.11111 0zm-0.109248 0.220358l0 -0.11111 0 0 0.00562598 0 0.00551969 -0.00042126 0.00561811 -0.000838583 0.00527559 -0.000799213 0.00512992 -0.00120079 0.00520472 -0.00157874 0.00503937 -0.00173228 0.00487402 -0.00187795 0.00490551 -0.00222441 0.00471654 -0.00235039 0.00451575 -0.0026811 0.00451969 -0.00277953 0.00429134 -0.00308661 0.00406299 -0.00338189 0.0040315 -0.00345276 0.00377953 -0.00373228 0.00373228 -0.00377953 0.00345276 -0.0040315 0.00338189 -0.00406299 0.00308661 -0.00429134 0.00277953 -0.00451969 0.0026811 -0.00451575 0.00235039 -0.00471654 0.00222441 -0.00490551 0.00187795 -0.00487402 0.00173228 -0.00503937 0.00157874 -0.00520472 0.00120079 -0.00512992 0.000799213 -0.00527559 0.000838583 -0.00561811 0.00042126 -0.00551969 0 -0.00562598 0.11111 0 -0.000433071 0.0112717 -0.000854331 0.0111575 -0.00127165 0.0108307 -0.0021063 0.0109134 -0.0025 0.0107756 -0.00287795 0.0104094 -0.00347244 0.010252 -0.00404331 0.0100787 -0.00439764 0.00968504 -0.00495669 0.00948819 -0.00527953 0.0092874 -0.0058189 0.00885827 -0.00612598 0.0086378 -0.00642126 0.00840157 -0.0069252 0.00793701 -0.00720472 0.00768504 -0.00768504 0.00720472 -0.00793701 0.0069252 -0.00840157 0.00642126 -0.0086378 0.00612598 -0.00885827 0.0058189 -0.0092874 0.00527953 -0.00948819 0.00495669 -0.00968504 0.00439764 -0.0100787 0.00404331 -0.010252 0.00347244 -0.0104094 0.00287795 -0.0107756 0.0025 -0.0109134 0.0021063 -0.0108307 0.00127165 -0.0111575 0.000854331 -0.0112717 0.000433071 0 0zm-1.10347 -0.11111l0 0 1.10347 0 0 0.11111 -1.10347 0 0 -0.11111zm-0.220358 -0.109248l0.11111 0 0 0 0 0.00562598 0.00042126 0.00551969 0.000838583 0.00561811 0.000799213 0.00527559 0.00120079 0.00513386 0.00157874 0.00520079 0.00173228 0.00504331 0.00187795 0.00487008 0.00222441 0.00490551 0.00235039 0.00472047 0.0026811 0.00451181 0.00277953 0.00451969 0.00308661 0.00429134 0.00338189 0.00406299 0.00345276 0.00403543 0.00351575 0.00377953 0.00399606 0.00372835 0.0040315 0.00345276 0.00406299 0.00338583 0.00429134 0.00308661 0.00451969 0.00277953 0.00451575 0.00267717 0.00471654 0.00235039 0.00490551 0.00222441 0.00487402 0.00187795 0.00503937 0.00173228 0.00520472 0.00157874 0.00512992 0.00120079 0.00527559 0.000799213 0.00561811 0.000838583 0.00551969 0.00042126 0.00562598 0 0 0.11111 -0.0112717 -0.000433071 -0.0111575 -0.000854331 -0.0108307 -0.00127165 -0.0109134 -0.0021063 -0.0107756 -0.0025 -0.0104094 -0.00287795 -0.010252 -0.00347244 -0.0100787 -0.00404331 -0.00968504 -0.00439764 -0.00948819 -0.00495669 -0.0092874 -0.00527559 -0.00885827 -0.0058189 -0.0086378 -0.00612598 -0.00840157 -0.0064252 -0.00793701 -0.0069252 -0.0074685 -0.00720079 -0.00742126 -0.00768504 -0.0069252 -0.00794094 -0.00642126 -0.00840157 -0.00612598 -0.0086378 -0.0058189 -0.00885827 -0.00527953 -0.00928346 -0.00495669 -0.00949213 -0.00439764 -0.00968504 -0.00404331 -0.0100748 -0.00347244 -0.0102559 -0.00287795 -0.0104055 -0.0025 -0.0107795 -0.0021063 -0.0109134 -0.00127165 -0.0108307 -0.000854331 -0.0111575 -0.000433071 -0.0112717 0 0zm0.11111 -1.65224l0 0 0 1.65224 -0.11111 0 0 -1.65224 0.11111 0zm0.109248 -0.220358l0 0.11111 0 0 -0.00562598 0 -0.00551969 0.00042126 -0.00561811 0.000838583 -0.00527559 0.000799213 -0.00513386 0.00120079 -0.00520079 0.00157874 -0.00504331 0.00173228 -0.00487008 0.00187795 -0.00490551 0.00222441 -0.00472047 0.00235039 -0.00451181 0.00267717 -0.00451969 0.00277953 -0.00429134 0.00308661 -0.00406299 0.00338583 -0.00403543 0.00345276 -0.00377953 0.00372835 -0.00372835 0.00377953 -0.00345276 0.00403543 -0.00338583 0.00406299 -0.00308661 0.00429134 -0.00277953 0.00451969 -0.00267717 0.00451181 -0.00235039 0.00472047 -0.00222441 0.00490551 -0.00187795 0.00487008 -0.00173228 0.00504331 -0.00157874 0.00520079 -0.00120079 0.00513386 -0.000799213 0.00527559 -0.000838583 0.00561811 -0.00042126 0.00551969 0 0.00562598 -0.11111 0 0.000433071 -0.0112717 0.000854331 -0.0111575 0.00127165 -0.0108307 0.0021063 -0.0109134 0.0025 -0.0107795 0.00287795 -0.0104055 0.00347244 -0.0102559 0.00404331 -0.0100748 0.00439764 -0.00968504 0.00495669 -0.00949213 0.00527559 -0.00928346 0.0058189 -0.00885827 0.00612598 -0.0086378 0.0064252 -0.00840157 0.0069252 -0.00794094 0.00720079 -0.00768504 0.00768504 -0.00720079 0.00794094 -0.0069252 0.00840157 -0.0064252 0.0086378 -0.00612598 0.00885827 -0.0058189 0.00928346 -0.00527559 0.00949213 -0.00495669 0.00968504 -0.00439764 0.0100748 -0.00404331 0.0102559 -0.00347244 0.0104055 -0.00287795 0.0107795 -0.0025 0.0109134 -0.0021063 0.0108307 -0.00127165 0.0111575 -0.000854331 0.0112717 -0.000433071 0 0z"/>
   </g>
   <path class="fil2" d="M0.905791 1.21711l0.271335 0c0.0295197,0 0.0536693,0.0241535 0.0536693,0.0536732l0 0c0,0.0295197 -0.0241732,0.0536693 -0.0536693,0.0536693l-0.271335 0c-0.0295,0 -0.0536732,-0.0241496 -0.0536732,-0.0536693l0 0c0,-0.0295197 0.0241535,-0.0536732 0.0536732,-0.0536732z"/>
   <path class="fil2" d="M0.905791 1.65711l0.271335 0c0.0295197,0 0.0536693,0.0241535 0.0536693,0.0536732l0 0c0,0.0295197 -0.0241732,0.0536693 -0.0536693,0.0536693l-0.271335 0c-0.0295,0 -0.0536732,-0.0241496 -0.0536732,-0.0536693l0 0c0,-0.0295197 0.0241535,-0.0536732 0.0536732,-0.0536732z"/>
   <path class="fil2" d="M0.905791 2.09711l0.271335 0c0.0295197,0 0.0536693,0.0241535 0.0536693,0.0536732l0 0c0,0.0295197 -0.0241732,0.0536693 -0.0536693,0.0536693l-0.271335 0c-0.0295,0 -0.0536732,-0.0241496 -0.0536732,-0.0536693l0 0c0,-0.0295197 0.0241535,-0.0536732 0.0536732,-0.0536732z"/>
  </g>
 </g>
</svg>
