<?xml version="1.0" encoding="UTF-8"?>
<!DOCTYPE svg PUBLIC "-//W3C//DTD SVG 1.1//EN" "http://www.w3.org/Graphics/SVG/1.1/DTD/svg11.dtd">
<!-- Creator: CorelDRAW -->
<svg xmlns="http://www.w3.org/2000/svg" xml:space="preserve" width="2.8in" height="4.1in" style="shape-rendering:geometricPrecision; text-rendering:geometricPrecision; image-rendering:optimizeQuality; fill-rule:evenodd; clip-rule:evenodd"
viewBox="0 0 2.8 4.1"
 xmlns:xlink="http://www.w3.org/1999/xlink">
 <defs>
  <style type="text/css">
   <![CDATA[
    .fil0 {fill:#ED4544}
   ]]>
  </style>
 </defs>
 <g id="Layer_x0020_1">
  <metadata id="CorelCorpID_0Corel-Layer"/>
  <path class="fil0" d="M1.43404 2.16011l-0.064063 0c-0.0782008,0 -0.171961,-0.0342756 -0.230646,-0.0576417 -0.0587835,-0.0234094 -0.127185,-0.0778543 -0.168764,-0.119531 -0.0574213,-0.0575551 -0.0815984,-0.0912677 -0.122547,-0.165736 -0.0233898,-0.0425276 -0.0626299,-0.163087 -0.0626299,-0.225657l0 -0.0960984c0,-0.0651969 0.0395472,-0.186587 0.0641024,-0.228189 0.0418504,-0.0709055 0.0655591,-0.111362 0.123091,-0.169205 0.0847362,-0.0851969 0.247898,-0.171173 0.417413,-0.171173l0.0200197 0c0.178783,0 0.333295,0.0870354 0.423429,0.177169 0.0872244,0.0872244 0.185177,0.248291 0.185177,0.419425l0 0.0440472c0,0.166382 -0.0960669,0.322307 -0.181173,0.407409 -0.0489449,0.0489488 -0.102429,0.0945433 -0.167646,0.12465 -0.0504843,0.023311 -0.164976,0.0605315 -0.235764,0.0605315zm0.0800787 -2.11011l-0.228228 0c-0.000834646,0.000531496 -0.123618,0.0171929 -0.136413,0.0197441 -0.0453622,0.00903937 -0.0874764,0.0218189 -0.129449,0.0307087 -0.0610906,0.012937 -0.182795,0.0612874 -0.232067,0.088252 -0.148551,0.0812953 -0.256949,0.153823 -0.371933,0.268709 -0.104803,0.104709 -0.192571,0.233894 -0.261862,0.374776 -0.0391457,0.0795984 -0.0575,0.144031 -0.0878189,0.2325 -0.016248,0.0474094 -0.0457205,0.215224 -0.0457205,0.274602l0 0.172169c0,0.11813 0.0497362,0.306205 0.0827244,0.397756 0.0364409,0.101146 0.108673,0.236201 0.161488,0.323 0.0298898,0.049122 0.0576142,0.102618 0.0889843,0.151256 0.0112126,0.0173858 0.0345906,0.0595118 0.0432441,0.076874 0.0132047,0.0264843 0.0307835,0.0505118 0.0439803,0.0761417 0.0537008,0.104287 0.122106,0.205795 0.175484,0.308996 0.0230748,0.0446102 0.0606693,0.108606 0.0879646,0.152276 0.0308071,0.0492835 0.0567559,0.10463 0.0881575,0.152083 0.00954724,0.0144252 0.0381614,0.0636339 0.0439094,0.0762126 0.0128937,0.0282087 0.0299449,0.0484843 0.0435827,0.0765394 0.0216535,0.0445551 0.0612008,0.113508 0.0880591,0.156185 0.0633583,0.100677 0.114217,0.205913 0.178866,0.305618 0.0130945,0.0201969 0.029063,0.0603583 0.0419173,0.0782008 0.0161772,0.0224567 0.0324764,0.0502402 0.0448465,0.0752756 0.0396024,0.0801496 0.0463228,0.0813858 0.116165,0.127728l0.0480039 0.00439764 0.00400394 0c0.0761102,0 0.119504,-0.0451732 0.14402,-0.0962205 0.0209724,-0.0436732 0.0633622,-0.110878 0.0906969,-0.153543 0.0106063,-0.0165551 0.0345906,-0.0601142 0.0429016,-0.0772205 0.0131063,-0.0269764 0.0314882,-0.0508701 0.0453386,-0.0787835 0.0256457,-0.051685 0.0610827,-0.105535 0.0894016,-0.154846 0.0296929,-0.0517126 0.0568465,-0.100398 0.0867047,-0.153535 0.0147717,-0.0262874 0.0308858,-0.0473465 0.0441811,-0.075937 0.0083937,-0.0180512 0.0347126,-0.0622598 0.0460354,-0.0780906 0.0129094,-0.0180433 0.0330906,-0.0563465 0.0434016,-0.0767165 0.0130276,-0.0257244 0.0337402,-0.0527717 0.0461772,-0.0779449 0.0243031,-0.0491811 0.0589055,-0.110343 0.0882165,-0.156028 0.0276535,-0.0430984 0.0643976,-0.10726 0.0871142,-0.153126 0.0249331,-0.0503386 0.0616693,-0.105067 0.0901339,-0.154114 0.0306378,-0.0527913 0.0572677,-0.104583 0.0886969,-0.155547 0.0307638,-0.0498898 0.056126,-0.106835 0.0874173,-0.156827 0.0319843,-0.0510906 0.0585276,-0.103827 0.0887087,-0.155535 0.0321457,-0.0550748 0.0496693,-0.1065 0.0774213,-0.166823 0.0352638,-0.0766457 0.090811,-0.289598 0.090811,-0.397681l0 -0.200201c0,-0.143161 -0.0803386,-0.411567 -0.133799,-0.502839 -0.0205748,-0.0351299 -0.0341299,-0.0693386 -0.0541457,-0.102012 -0.0208228,-0.0339921 -0.0416614,-0.063811 -0.0635079,-0.0966496 -0.0397402,-0.0597441 -0.0957835,-0.124224 -0.145941,-0.174382 -0.116953,-0.116953 -0.218882,-0.184079 -0.369941,-0.266693 -0.0488858,-0.0267362 -0.168457,-0.0756654 -0.228748,-0.0875709 -0.0368858,-0.00727953 -0.0865984,-0.0224134 -0.129358,-0.0307992 -0.0132913,-0.0026063 -0.138937,-0.0197717 -0.139827,-0.0203346z"/>
 </g>
</svg>
