<?xml version="1.0" encoding="UTF-8"?>
<!DOCTYPE svg PUBLIC "-//W3C//DTD SVG 1.1//EN" "http://www.w3.org/Graphics/SVG/1.1/DTD/svg11.dtd">
<!-- Creator: CorelDRAW -->
<svg xmlns="http://www.w3.org/2000/svg" xml:space="preserve" width="8.5in" height="8.5in" style="shape-rendering:geometricPrecision; text-rendering:geometricPrecision; image-rendering:optimizeQuality; fill-rule:evenodd; clip-rule:evenodd"
viewBox="0 0 8.5 8.5"
 xmlns:xlink="http://www.w3.org/1999/xlink"
 version="1.1">
 <defs>
  <style type="text/css">
   <![CDATA[
    .fil0 {fill:black}
   ]]>
  </style>
 </defs>
 <g id="Layer_x0020_1">
  <metadata id="CorelCorpID_0Corel-Layer"/>
  <g id="_105800520">
   <g>
    <g>
     <path id="_105801072" class="fil0" d="M5.56155 4.19062c0,-0.186106 -0.142295,-0.273681 -0.410516,-0.273681l-0.268193 0 0 0.574717 0.268193 0c0.262732,-7.87402e-006 0.410516,-0.0985354 0.410516,-0.301035z"/>
     <path id="_105800976" class="fil0" d="M3.41591 4.49438c0.281878,0 0.462492,-0.257252 0.462492,-0.659547 0,-0.399579 -0.180614,-0.643134 -0.462492,-0.643134 -0.28189,0 -0.462508,0.243563 -0.462508,0.643134 0,0.402295 0.180626,0.659547 0.462508,0.659547z"/>
     <path id="_105801144" class="fil0" d="M5.46576 3.42707c0,-0.164217 -0.117669,-0.23263 -0.350307,-0.23263l-0.232622 -3.93701e-006 0 0.49535 0.22715 3.93701e-006c0.249039,0 0.35578,-0.0957874 0.35578,-0.26272z"/>
     <g>
      <path id="_105801216" class="fil0" d="M0.683315 1.61205l0 5.83802c0,0.264709 0.214591,0.479303 0.479303,0.479303l4.27667 3.93701e-006 0 0 0 -1.92989c0,-0.314138 0.254654,-0.568783 0.568791,-0.568783l1.92987 0 0 -3.81865c0,-0.264713 -0.214591,-0.479303 -0.479303,-0.479303l-1.0405 0c-0.14522,0.217709 -0.392996,0.361437 -0.673764,0.361437 -0.134555,0 -0.2615,-0.0330512 -0.373276,-0.0913858l-0.780075 0.518126c-0.0542402,0.0360276 -0.11874,-0.0284843 -0.0827126,-0.0827205l0.468555 -0.705449 -3.81426 0c-0.264717,-7.87402e-006 -0.479303,0.214583 -0.479303,0.479295zm6.0359 2.38972l-0.246307 -0.10672c-0.175154,-0.0738937 -0.36126,-0.21348 -0.36126,-0.476197 0,-0.284618 0.251783,-0.503555 0.602075,-0.503555 0.207988,0 0.410524,0.0875748 0.550075,0.22715l-0.161465 0.20252c-0.114953,-0.0957835 -0.235362,-0.153256 -0.388602,-0.153256 -0.169673,0 -0.281878,0.0793622 -0.281878,0.210724 0,0.139583 0.136831,0.191563 0.284618,0.251776l0.243563 0.101264c0.210732,0.0903228 0.36126,0.224417 0.36126,0.484413 0,0.290094 -0.240835,0.530933 -0.643134,0.530933 -0.240839,0 -0.476197,-0.0957874 -0.645894,-0.262744l0.186094 -0.216201c0.12865,0.120417 0.301067,0.202531 0.465244,0.202531 0.202535,0 0.312,-0.0903071 0.312,-0.229866 1.5748e-005,-0.147823 -0.114929,-0.194346 -0.27639,-0.262772zm-2.15385 -1.05365l0.572 0c0.369465,0 0.640402,0.112213 0.640402,0.440614 0,0.169681 -0.0985236,0.33389 -0.306516,0.388622l0 0.0109449c0.257256,0.0437756 0.399559,0.183358 0.399559,0.424189 0,0.358512 -0.292827,0.525453 -0.686921,0.525453l-0.618508 0 -1.5748e-005 -1.78982 0 0zm-1.14945 -0.0328346c0.467984,0 0.790921,0.342087 0.790921,0.919543 0,0.580189 -0.322937,0.935976 -0.790921,0.935976 -0.465244,0 -0.788185,-0.35578 -0.788185,-0.935976 0,-0.577457 0.322945,-0.919543 0.788185,-0.919543zm-1.9896 1.39026c0.0711496,0.13137 0.169673,0.188846 0.279138,0.188846 0.166941,0 0.251783,-0.090315 0.251783,-0.344827l0 -1.20144 0.317457 0 0 1.2288c0,0.325685 -0.158728,0.59389 -0.533661,0.59389 -0.249051,0 -0.421465,-0.104012 -0.533677,-0.303783l0.218961 -0.16148z"/>
      <path id="_105801120" class="fil0" d="M6.00807 5.75983c-0.132343,0 -0.23965,0.107303 -0.23965,0.239654l0 1.77525 0 0.15463 2.16961 -2.16954 -0.122677 0 -1.80728 0 0 0z"/>
      <path id="_105801288" class="fil0" d="M5.39259 1.13275c0.0647441,0.0509331 0.140772,0.0880906 0.22378,0.107157 0.0411654,0.00945669 0.0839882,0.014626 0.128012,0.014626 0.132835,0 0.254917,-0.0455827 0.351803,-0.121783 0.132634,-0.104307 0.217882,-0.266094 0.217882,-0.447902 1.1811e-005,-0.31463 -0.255051,-0.569685 -0.569685,-0.569685 -0.314622,0 -0.569673,0.255055 -0.569673,0.569685 0,0.0440472 0.00515748,0.0868583 0.014626,0.128031 0.0295827,0.128787 0.10276,0.240843 0.203256,0.31987z"/>
     </g>
    </g>
   </g>
   <g>
   </g>
   <g>
   </g>
   <g>
   </g>
   <g>
   </g>
   <g>
   </g>
   <g>
   </g>
   <g>
   </g>
   <g>
   </g>
   <g>
   </g>
   <g>
   </g>
   <g>
   </g>
   <g>
   </g>
   <g>
   </g>
   <g>
   </g>
   <g>
   </g>
  </g>
 </g>
</svg>
