<?xml version="1.0" encoding="UTF-8"?>
<!DOCTYPE svg PUBLIC "-//W3C//DTD SVG 1.1//EN" "http://www.w3.org/Graphics/SVG/1.1/DTD/svg11.dtd">
<!-- Creator: CorelDRAW -->
<svg xmlns="http://www.w3.org/2000/svg" xml:space="preserve" width="8.5in" height="8.5in" style="shape-rendering:geometricPrecision; text-rendering:geometricPrecision; image-rendering:optimizeQuality; fill-rule:evenodd; clip-rule:evenodd"
viewBox="0 0 8.5 8.5"
 xmlns:xlink="http://www.w3.org/1999/xlink">
 <defs>
  <style type="text/css">
   <![CDATA[
    .fil2 {fill:#1F1A17}
    .fil1 {fill:#E77817}
    .fil0 {fill:#F8C300}
   ]]>
  </style>
 </defs>
 <g id="Layer_x0020_1">
  <metadata id="CorelCorpID_0Corel-Layer"/>
  <g id="_103662904">
   <polygon id="_103656856" class="fil0" points="4.04818,1.663 4.461,1.663 4.461,0.919925 4.04818,0.919925 "/>
   <polygon id="_103663864" class="fil0" points="2.97485,1.12175 2.9565,1.13092 2.93815,1.14009 2.91981,1.14927 2.90146,1.15844 2.88311,1.16762 2.86476,1.17679 2.85559,1.18596 2.83724,1.19514 2.81889,1.20431 2.80055,1.21349 2.7822,1.22266 2.76385,1.23183 2.74551,1.24101 2.73633,1.25018 2.71798,1.25935 2.69964,1.26853 2.68129,1.2777 2.66294,1.28688 2.64459,1.29605 2.64459,1.34192 2.65377,1.35109 2.66294,1.36944 2.67211,1.38779 2.68129,1.40613 2.69046,1.42448 2.69964,1.44283 2.70881,1.46118 2.71798,1.47952 2.72716,1.4887 2.73633,1.50704 2.74551,1.52539 2.75468,1.54374 2.76385,1.56209 2.77303,1.58044 2.7822,1.59878 2.79137,1.60796 2.80055,1.62631 2.80972,1.64465 2.81889,1.663 2.82807,1.68135 2.83724,1.6997 2.84642,1.71804 2.85559,1.72722 2.86476,1.74556 2.87394,1.76391 2.88311,1.78226 2.89228,1.80061 2.90146,1.81895 2.91063,1.8373 2.91981,1.85565 2.92898,1.86482 2.93815,1.88317 2.94733,1.90152 2.9565,1.91987 2.96567,1.93821 2.97485,1.95656 2.98402,1.97491 2.9932,1.98408 3.02989,1.98408 3.04824,1.97491 3.06659,1.96573 3.08493,1.95656 3.09411,1.94739 3.11246,1.93821 3.1308,1.92904 3.14915,1.91987 3.1675,1.91069 3.18585,1.90152 3.19502,1.89234 3.21337,1.88317 3.23171,1.874 3.25006,1.86482 3.26841,1.85565 3.28676,1.84647 3.3051,1.8373 3.31428,1.82813 3.33263,1.81895 3.35097,1.80978 3.36932,1.80061 3.37849,1.79143 3.37849,1.77308 3.36932,1.75474 3.36015,1.73639 3.35097,1.72722 3.3418,1.70887 3.33263,1.69052 3.32345,1.67217 3.31428,1.65383 3.3051,1.63548 3.29593,1.61713 3.28676,1.60796 3.27758,1.58961 3.26841,1.57126 3.25924,1.55291 3.25006,1.53457 3.24089,1.51622 3.23171,1.49787 3.22254,1.47952 3.21337,1.47035 3.20419,1.452 3.19502,1.43365 3.18585,1.41531 3.17667,1.39696 3.1675,1.37861 3.15833,1.36026 3.14915,1.35109 3.13998,1.33274 3.1308,1.3144 3.12163,1.29605 3.11246,1.2777 3.10328,1.25935 3.09411,1.24101 3.08493,1.23183 3.07576,1.21349 3.06659,1.19514 3.05741,1.17679 3.04824,1.15844 3.03907,1.14009 3.02989,1.12175 3.02072,1.11257 2.9932,1.11257 "/>
   <polygon id="_103645720" class="fil0" points="5.47011,1.13092 5.46094,1.14927 5.45176,1.16762 5.44259,1.17679 5.43342,1.19514 5.42424,1.21349 5.41507,1.23183 5.40589,1.25018 5.39672,1.26853 5.38755,1.28688 5.37837,1.30522 5.3692,1.3144 5.36002,1.33274 5.35085,1.35109 5.34168,1.36944 5.3325,1.38779 5.32333,1.40613 5.31415,1.42448 5.30498,1.43365 5.29581,1.452 5.28663,1.47035 5.27746,1.4887 5.26829,1.50704 5.25911,1.52539 5.24994,1.54374 5.24076,1.55291 5.23159,1.57126 5.22242,1.58961 5.21324,1.60796 5.20407,1.62631 5.1949,1.64465 5.18572,1.663 5.17655,1.67217 5.16737,1.69052 5.1582,1.70887 5.14903,1.72722 5.13985,1.74556 5.13068,1.76391 5.13068,1.80061 5.14903,1.80978 5.16737,1.81895 5.18572,1.82813 5.20407,1.8373 5.21324,1.84647 5.23159,1.85565 5.24994,1.86482 5.26829,1.874 5.28663,1.88317 5.30498,1.89234 5.32333,1.90152 5.34168,1.91069 5.35085,1.91987 5.3692,1.92904 5.38755,1.93821 5.40589,1.94739 5.42424,1.95656 5.44259,1.96573 5.46094,1.97491 5.47011,1.98408 5.49763,1.98408 5.50681,1.97491 5.51598,1.95656 5.52515,1.93821 5.53433,1.91987 5.5435,1.91069 5.55267,1.89234 5.56185,1.874 5.57102,1.85565 5.58019,1.8373 5.58937,1.81895 5.59854,1.80061 5.60772,1.79143 5.61689,1.77308 5.62606,1.75474 5.63524,1.73639 5.64441,1.71804 5.65358,1.6997 5.66276,1.68135 5.67193,1.67217 5.68111,1.65383 5.69028,1.63548 5.69945,1.61713 5.70863,1.59878 5.7178,1.58044 5.72697,1.56209 5.73615,1.54374 5.74532,1.53457 5.7545,1.51622 5.76367,1.49787 5.77284,1.47952 5.78202,1.46118 5.79119,1.44283 5.80037,1.42448 5.80954,1.41531 5.81871,1.39696 5.82789,1.37861 5.83706,1.36026 5.84624,1.34192 5.85541,1.32357 5.85541,1.30522 5.84624,1.29605 5.82789,1.28688 5.80954,1.2777 5.79119,1.26853 5.78202,1.25935 5.76367,1.25018 5.74532,1.24101 5.72697,1.23183 5.70863,1.22266 5.69028,1.21349 5.67193,1.20431 5.66276,1.19514 5.64441,1.18596 5.62606,1.17679 5.60772,1.16762 5.58937,1.15844 5.57102,1.14927 5.55267,1.14009 5.53433,1.13092 5.52515,1.12175 5.50681,1.11257 5.47928,1.11257 "/>
   <polygon id="_103640224" class="fil0" points="1.8373,1.98408 1.82813,1.99326 1.81896,2.00243 1.80978,2.02078 1.80061,2.02995 1.79144,2.0483 1.78226,2.05747 1.77309,2.06665 1.76391,2.08499 1.75474,2.09417 1.74557,2.11252 1.73639,2.12169 1.72722,2.13086 1.71804,2.14921 1.70887,2.15838 1.6997,2.17673 1.69052,2.1859 1.68135,2.19508 1.67218,2.21343 1.663,2.2226 1.65383,2.24094 1.64465,2.25012 1.63548,2.25929 1.62631,2.27764 1.61713,2.28681 1.60796,2.30516 1.60796,2.32351 1.62631,2.33269 1.63548,2.34186 1.64465,2.35103 1.663,2.3602 1.67218,2.36938 1.69052,2.37855 1.6997,2.38772 1.70887,2.3969 1.72722,2.40607 1.73639,2.41525 1.75474,2.42442 1.76391,2.43359 1.77309,2.44277 1.79144,2.45194 1.80061,2.46111 1.80978,2.47029 1.82813,2.47946 1.8373,2.48864 1.85565,2.49781 1.86483,2.50698 1.874,2.51616 1.89235,2.52533 1.90152,2.53451 1.91987,2.54368 1.92904,2.55285 1.93822,2.56203 1.95656,2.5712 1.96574,2.58038 1.98408,2.58955 1.99326,2.59872 2.00243,2.6079 2.02078,2.61707 2.02995,2.62624 2.0483,2.63542 2.05747,2.64459 2.06665,2.65376 2.085,2.66294 2.09417,2.67211 2.11252,2.68129 2.12169,2.69046 2.13087,2.69963 2.14921,2.70881 2.15839,2.71798 2.17673,2.72715 2.18591,2.73633 2.19508,2.7455 2.21343,2.75468 2.2226,2.76385 2.24095,2.77302 2.25012,2.7822 2.28682,2.7822 2.29599,2.76385 2.30517,2.75468 2.31434,2.73633 2.32351,2.72715 2.33269,2.71798 2.34186,2.69963 2.35103,2.69046 2.36021,2.67211 2.36938,2.66294 2.37856,2.65376 2.38773,2.63542 2.3969,2.62624 2.40608,2.6079 2.41525,2.59872 2.42442,2.58955 2.4336,2.5712 2.44277,2.56203 2.45194,2.54368 2.46112,2.53451 2.47029,2.52533 2.47946,2.50698 2.48864,2.49781 2.49781,2.48864 2.50699,2.47029 2.51616,2.46111 2.51616,2.43359 2.50699,2.42442 2.49781,2.41525 2.47946,2.40607 2.47029,2.3969 2.45194,2.38772 2.44277,2.37855 2.4336,2.36938 2.41525,2.3602 2.40608,2.35103 2.38773,2.34186 2.37856,2.33269 2.36938,2.32351 2.35103,2.31433 2.34186,2.30516 2.32351,2.29599 2.31434,2.28681 2.30517,2.27764 2.28682,2.26847 2.27765,2.25929 2.2593,2.25012 2.25012,2.24094 2.24095,2.23177 2.2226,2.2226 2.21343,2.21343 2.19508,2.20425 2.18591,2.19508 2.17673,2.1859 2.15839,2.17673 2.14921,2.16756 2.14004,2.15838 2.12169,2.14921 2.11252,2.14004 2.09417,2.13086 2.085,2.12169 2.07582,2.11252 2.05747,2.10334 2.0483,2.09417 2.02995,2.08499 2.02078,2.07582 2.0116,2.06665 1.99326,2.05747 1.98408,2.0483 1.96574,2.03913 1.95656,2.02995 1.94739,2.02078 1.92904,2.0116 1.91987,2.00243 1.90152,1.99326 1.89235,1.98408 1.88317,1.97491 1.84648,1.97491 "/>
   <polygon id="_103652560" class="fil0" points="6.60765,1.98408 6.59848,1.99326 6.58013,2.00243 6.57096,2.0116 6.56178,2.02078 6.54344,2.02995 6.53426,2.03913 6.51592,2.0483 6.50674,2.05747 6.49757,2.06665 6.47922,2.07582 6.47005,2.08499 6.46087,2.09417 6.44253,2.10334 6.43335,2.11252 6.41501,2.12169 6.40583,2.13086 6.39666,2.14004 6.37831,2.14921 6.36914,2.15838 6.35079,2.16756 6.34162,2.17673 6.33244,2.1859 6.31409,2.19508 6.30492,2.20425 6.28657,2.21343 6.2774,2.2226 6.26822,2.23177 6.24988,2.24094 6.2407,2.25012 6.22235,2.25929 6.21319,2.26847 6.20401,2.27764 6.18566,2.28681 6.17649,2.29599 6.15814,2.30516 6.14897,2.31433 6.13979,2.32351 6.12144,2.33269 6.11227,2.34186 6.1031,2.35103 6.08475,2.3602 6.07558,2.36938 6.05723,2.37855 6.04806,2.38772 6.03888,2.3969 6.02054,2.40607 6.01136,2.41525 5.99301,2.42442 5.98384,2.43359 5.98384,2.45194 5.99301,2.47029 6.00219,2.47946 6.01136,2.49781 6.02054,2.50698 6.02971,2.51616 6.03888,2.53451 6.04806,2.54368 6.05723,2.56203 6.0664,2.5712 6.07558,2.58038 6.08475,2.59872 6.09393,2.6079 6.1031,2.62624 6.11227,2.63542 6.12144,2.64459 6.13062,2.66294 6.13979,2.67211 6.14897,2.68129 6.15814,2.69963 6.16731,2.70881 6.17649,2.72715 6.18566,2.73633 6.19483,2.7455 6.20401,2.76385 6.21319,2.77302 6.22235,2.7822 6.24988,2.7822 6.26822,2.77302 6.2774,2.76385 6.28657,2.75468 6.30492,2.7455 6.31409,2.73633 6.33244,2.72715 6.34162,2.71798 6.35079,2.70881 6.36914,2.69963 6.37831,2.69046 6.39666,2.68129 6.40583,2.67211 6.41501,2.66294 6.43335,2.65376 6.44253,2.64459 6.46087,2.63542 6.47005,2.62624 6.47922,2.61707 6.49757,2.6079 6.50674,2.59872 6.52509,2.58955 6.53426,2.58038 6.54344,2.5712 6.56178,2.56203 6.57096,2.55285 6.58931,2.54368 6.59848,2.53451 6.60765,2.52533 6.626,2.51616 6.63518,2.50698 6.65352,2.49781 6.6627,2.48864 6.67187,2.47946 6.69022,2.47029 6.69939,2.46111 6.71774,2.45194 6.72691,2.44277 6.73609,2.43359 6.75444,2.42442 6.76361,2.41525 6.78196,2.40607 6.79113,2.3969 6.8003,2.38772 6.81865,2.37855 6.82783,2.36938 6.84617,2.3602 6.85535,2.35103 6.86452,2.34186 6.88287,2.33269 6.89204,2.32351 6.89204,2.29599 6.88287,2.28681 6.87369,2.26847 6.86452,2.25929 6.85535,2.25012 6.84617,2.23177 6.837,2.2226 6.82783,2.20425 6.81865,2.19508 6.80948,2.1859 6.8003,2.16756 6.79113,2.15838 6.78196,2.14004 6.77278,2.13086 6.76361,2.12169 6.75444,2.10334 6.74526,2.09417 6.73609,2.07582 6.72691,2.06665 6.71774,2.05747 6.70857,2.03913 6.69939,2.02995 6.69022,2.0116 6.68104,2.00243 6.67187,1.99326 6.6627,1.97491 6.626,1.97491 "/>
   <polygon id="_103641136" class="fil0" points="1.30522,3.83718 2.14004,3.83718 2.14004,3.42436 1.30522,3.42436 "/>
   <polygon id="_103641352" class="fil0" points="6.35996,3.83718 7.19478,3.83718 7.19478,3.42436 6.35996,3.42436 "/>
   <polygon id="_103663336" class="fil0" points="2.2226,4.53438 2.20426,4.54356 2.18591,4.55273 2.16756,4.56191 2.14004,4.57108 2.12169,4.58025 2.10334,4.58943 2.085,4.5986 2.06665,4.60777 2.03913,4.61695 2.02078,4.62612 2.00243,4.6353 1.98408,4.64447 1.95656,4.65364 1.93822,4.66281 1.91987,4.67199 1.90152,4.68117 1.88317,4.69034 1.85565,4.69951 1.8373,4.70869 1.81896,4.71786 1.80061,4.72704 1.78226,4.7362 1.75474,4.74538 1.73639,4.75456 1.71804,4.76373 1.6997,4.7729 1.67218,4.78207 1.65383,4.79125 1.63548,4.80043 1.61713,4.8096 1.59878,4.81877 1.57126,4.82794 1.55292,4.83712 1.53457,4.84629 1.53457,4.88299 1.54374,4.90133 1.55292,4.91968 1.56209,4.93803 1.57126,4.96555 1.58044,4.9839 1.58961,5.00224 1.59878,5.02059 1.60796,5.03894 1.61713,5.06646 1.62631,5.08481 1.63548,5.10315 1.64465,5.1215 1.65383,5.14902 1.663,5.16737 1.67218,5.18572 1.68135,5.20407 1.69052,5.22242 1.6997,5.24076 1.72722,5.24076 1.74557,5.23159 1.76391,5.22242 1.79144,5.21324 1.80978,5.20407 1.82813,5.19489 1.84648,5.18572 1.874,5.17655 1.89235,5.16737 1.91069,5.1582 1.92904,5.14902 1.95656,5.13985 1.97491,5.13068 1.99326,5.1215 2.0116,5.11233 2.02995,5.10315 2.05747,5.09398 2.07582,5.08481 2.09417,5.07563 2.11252,5.06646 2.14004,5.05729 2.15839,5.04811 2.17673,5.03894 2.19508,5.02977 2.21343,5.02059 2.24095,5.01142 2.2593,5.00224 2.27765,4.99307 2.29599,4.9839 2.32351,4.97472 2.34186,4.96555 2.36021,4.95638 2.37856,4.9472 2.3969,4.93803 2.42442,4.92885 2.44277,4.91968 2.45194,4.91051 2.45194,4.89216 2.44277,4.87381 2.4336,4.85546 2.42442,4.82794 2.41525,4.8096 2.40608,4.79125 2.3969,4.7729 2.38773,4.75456 2.37856,4.72704 2.36938,4.70869 2.36021,4.69034 2.35103,4.67199 2.34186,4.64447 2.33269,4.62612 2.32351,4.60777 2.31434,4.58943 2.30517,4.56191 2.29599,4.54356 2.28682,4.52521 2.25012,4.52521 "/>
   <polygon id="_103652680" class="fil0" points="6.20401,4.56191 6.19483,4.58943 6.18566,4.60777 6.17649,4.6353 6.16731,4.65364 6.15814,4.68117 6.14897,4.69951 6.13979,4.72704 6.13062,4.74538 6.12144,4.7729 6.11227,4.79125 6.1031,4.81877 6.09393,4.83712 6.08475,4.86464 6.07558,4.88299 6.0664,4.90133 6.05723,4.92885 6.05723,4.9472 6.07558,4.95638 6.09393,4.96555 6.12144,4.97472 6.13979,4.9839 6.15814,4.99307 6.18566,5.00224 6.20401,5.01142 6.23153,5.02059 6.24988,5.02977 6.2774,5.03894 6.29575,5.04811 6.32327,5.05729 6.34162,5.06646 6.36914,5.07563 6.38748,5.08481 6.41501,5.09398 6.43335,5.10315 6.46087,5.11233 6.47922,5.1215 6.50674,5.13068 6.52509,5.13985 6.54344,5.14902 6.57096,5.1582 6.58931,5.16737 6.61683,5.17655 6.63518,5.18572 6.6627,5.19489 6.68104,5.20407 6.70857,5.21324 6.72691,5.22242 6.75444,5.23159 6.77278,5.24076 6.80948,5.24076 6.81865,5.23159 6.82783,5.20407 6.837,5.18572 6.84617,5.1582 6.85535,5.13985 6.86452,5.11233 6.87369,5.09398 6.88287,5.06646 6.89204,5.04811 6.90122,5.02059 6.91039,5.00224 6.91956,4.9839 6.92874,4.95638 6.93791,4.93803 6.94708,4.91051 6.95626,4.89216 6.96543,4.86464 6.96543,4.84629 6.94708,4.83712 6.92874,4.82794 6.90122,4.81877 6.88287,4.8096 6.85535,4.80043 6.837,4.79125 6.80948,4.78207 6.79113,4.7729 6.76361,4.76373 6.74526,4.75456 6.71774,4.74538 6.69939,4.7362 6.68104,4.72704 6.65352,4.71786 6.63518,4.70869 6.60765,4.69951 6.58931,4.69034 6.56178,4.68117 6.54344,4.67199 6.51592,4.66281 6.49757,4.65364 6.47005,4.64447 6.4517,4.6353 6.42418,4.62612 6.40583,4.61695 6.37831,4.60777 6.35996,4.5986 6.33244,4.58943 6.31409,4.58025 6.29575,4.57108 6.26822,4.56191 6.24988,4.55273 6.21319,4.55273 "/>
   <path id="_103663240" class="fil0" d="M3.82801 6.04806l0.843984 0c0,-0.988102 0.862335,-1.48735 0.862335,-2.35765l0 -0.0458701c0,-0.381453 -0.195122,-0.656654 -0.387571,-0.85089 -0.105744,-0.106728 -0.2415,-0.172429 -0.391984,-0.231831 -0.167685,-0.0661969 -0.308799,-0.0823465 -0.541465,-0.0823465l-0.128433 0c-0.169866,0 -0.289374,0.0656378 -0.419331,0.112748 -0.135118,0.0489803 -0.223315,0.133453 -0.329256,0.211992 -0.147984,0.109713 -0.361437,0.463909 -0.361437,0.721067l0 0.247693c0,0.389311 0.292917,0.852547 0.451461,1.10807 0.176461,0.284402 0.401697,0.707551 0.401697,1.16702z"/>
   <path id="_103661272" class="fil1" d="M4.02983 2.06665l-0.0642165 0.00917323 -0.0550433 0.00917323 -0.0550394 0.00917323 -0.0366969 0.00917323 -0.0458701 0.00917717 -0.0275197 0.00917323 -0.0366969 0.00916929 -0.0366929 0.00917717 -0.0275236 0.00917323 -0.0275197 0.00917323 -0.0275236 0.00917717 -0.0275197 0.00916929 -0.0275197 0.00917323 -0.0183465 0.00917717 -0.0275236 0.00917323 -0.0183465 0.00917323 -0.0183465 0.00917323 -0.0275236 0.00917323 -0.0183465 0.00917323 -0.0183465 0.00917717 -0.0183465 0.00916929 -0.0183504 0.00917717 -0.0183465 0.00917323 -0.00917323 0.00917323 -0.0183504 0.00917323 -0.0183465 0.00917323 -0.0183465 0.00917323 -0.00917323 0.00917717 -0.0183465 0.00917323 -0.00917717 0.00917323 -0.0183465 0.00917323 -0.00917323 0.00917323 -0.0183465 0.00917323 -0.00917717 0.00917323 -0.0183425 0.00917323 -0.00917717 0.00917717 -0.00917323 0.00917323 -0.0183465 0.00917323 -0.00917323 0.00917323 -0.00917323 0.00917323 -0.00917717 0.00917323 -0.00917323 0.00917717 -0.0183465 0.00916929 -0.00917323 0.00917323 -0.00917323 0.00917717 -0.00917323 0.00917323 -0.00917323 0.00917323 -0.00917717 0.00917323 -0.00917323 0.00917323 -0.00917323 0.00917323 -0.00917323 0.00917717 -0.00917323 0.00916929 -0.00917323 0.00917717 -0.00917717 0.00917323 -0.00916929 0.00917323 -0.00917717 0.00917717 -0.00917323 0.00916929 -0.00917323 0.00917323 -0.00917323 0.0183504 -0.00917323 0.00917323 -0.00917323 0.00917323 -0.00917717 0.00917323 -0.00917323 0.00917323 -0.00916929 0.0183465 -0.00917717 0.00917717 -0.00917323 0.00917323 -0.00917323 0.0183465 -0.00917717 0.00917323 -0.00916929 0.0183504 -0.00917717 0.00917323 -0.00917323 0.0183465 -0.00917323 0.00917323 -0.00917323 0.0183465 -0.00917323 0.0183504 -0.00917323 0.00917323 -0.00917717 0.0183465 -0.00917323 0.0183465 -0.00916929 0.0183465 -0.00917717 0.00917323 -0.00917323 0.0183504 -0.00917323 0.0183465 -0.00917323 0.0183465 -0.00917323 0.0183465 -0.00917323 0.0275236 -0.00917717 0.0183465 -0.00917323 0.0183504 -0.00917323 0.0275197 -0.00917323 0.0183465 -0.00917323 0.0275236 -0.00917323 0.0275197 -0.00917323 0.0183465 -0.00917323 0.0366969 -0.00917717 0.0275197 -0.00917323 0.0275236 -0.00917323 0.0366929 -0.00917323 0.0458701 -0.00917323 0.0458701 -0.00917323 0.0550394 -0.00917717 0.0733937 0 0.348598 0.00917717 0.0733898 0.00917323 0.0642205 0.00917323 0.0458661 0.00917323 0.0458701 0.00917323 0.0366969 0.00917323 0.0366929 0.00917717 0.0366929 0.00917323 0.0275236 0.00917323 0.0275197 0.00917323 0.0275236 0.00917323 0.0275197 0.00917323 0.0275236 0.00917323 0.0275197 0.00917323 0.0275197 0.00917717 0.0183504 0.00917323 0.0275197 0.00917323 0.0183465 0.00917323 0.0275197 0.00917323 0.0183504 0.00917323 0.0183465 0.00917717 0.0183465 0.00916929 0.0275236 0.00917323 0.0183465 0.00917717 0.0183465 0.00917323 0.0183504 0.00917323 0.0183465 0.00917323 0.0183465 0.00917323 0.0183465 0.00917323 0.0275236 0.00917717 0.0183465 0.00916929 0.00917323 0.00917717 0.0183504 0.00917323 0.0183465 0.00917323 0.0183465 0.00917717 0.0183465 0.00916929 0.00917323 0.00917323 0.0183504 0.00917717 0.0183465 0.00917323 0.0183465 0.00917323 0.00917323 0.00917323 0.0183465 0.00917323 0.0183504 0.00917323 0.0183465 0.00917717 0.00917323 0.00916929 0.0183465 0.00917717 0.0183504 0.00917323 0.00917323 0.00917323 0.0183465 0.00917323 0.0183465 0.00917323 0.00917717 0.00917323 0.0183465 0.00917717 0.0183465 0.00917323 0.00917323 0.00917323 0.0183465 0.00917323 0.0183504 0.00917323 0.0183465 0.00917323 0.00917323 0.00917323 0.0183504 0.00917323 0.0183425 0.00917717 0.00917717 0.00917323 0.0183465 0.00917323 0.0183465 0.00917323 0.0183504 0.00917323 0.00916929 0.00917323 0.0183504 0.00917717 0.0183465 0.00916929 0.0183465 0.00917323 0.0183504 0.00917717 0.00917323 0.00917323 0.0183465 0.00917323 0.0183465 0.00917323 0.0183504 0.00917323 0.0183465 0.00917323 0.0183465 0.00917717 0.0183504 0.00916929 0.0183465 0.00917717 0.0183465 0.00917323 0.0183465 0.00917323 0.0275236 0.00917323 0.0183465 0.00917323 0.0183465 0.00917323 0.0275197 0.00917717 0.0183504 0.00917323 0.0275197 0.00917323 0.0275197 0.00917323 0.0275236 0.00917323 0.0275197 0.00917323 0.0275236 0.00917717 0.0366929 0.00916929 0.0366969 0.00917717 0.0366969 0.00917323 0.0550394 0.00917323 0.128433 0.00917323 0.0275236 0.00917323 0.00916929 0.403646 0 0 -0.00916929c0,-0.459465 -0.225236,-0.882614 -0.401697,-1.16702 -0.158543,-0.255528 -0.451461,-0.718764 -0.451461,-1.10807l0 -0.247693c0,-0.257157 0.213453,-0.611354 0.361437,-0.721067 0.105941,-0.0785394 0.194138,-0.163012 0.329256,-0.211992 0.129957,-0.0471102 0.249465,-0.112748 0.419331,-0.112748l0.128433 0c0.232665,0 0.37378,0.0161496 0.541465,0.0823465 0.150484,0.0594016 0.28624,0.125102 0.391984,0.231831 0.192449,0.194236 0.387571,0.469437 0.387571,0.85089l0 0.0458701c0,0.870307 -0.862335,1.36955 -0.862335,2.35765l0.403646 0 0.00917323 -0.0550433 0.00917717 -0.0917402 0.00917323 -0.0550433 0.00916929 -0.0458661 0.00917717 -0.0366969 0.00917323 -0.0366929 0.00917323 -0.0275236 0.00917323 -0.0366929 0.00917323 -0.0183504 0.00917323 -0.0275197 0.00917717 -0.0275197 0.00917323 -0.0183504 0.00917323 -0.0275197 0.00917323 -0.0183465 0.00917323 -0.0183465 0.00917323 -0.0275236 0.00917323 -0.0183465 0.00917323 -0.0183465 0.00917717 -0.0183465 0.00917323 -0.0183504 0.00917323 -0.0183465 0.00917323 -0.0183465 0.00917323 -0.0183504 0.00917323 -0.00917323 0.00917717 -0.0183465 0.00916929 -0.0183465 0.00917717 -0.0183504 0.00917323 -0.0183465 0.00917323 -0.00917323 0.00917323 -0.0183465 0.00917323 -0.0183465 0.00917323 -0.0183504 0.00917717 -0.00917323 0.00917323 -0.0183465 0.00916929 -0.0183504 0.00917717 -0.0183425 0.00917323 -0.00917717 0.00917323 -0.0183465 0.00917717 -0.0183465 0.00916929 -0.00917323 0.00917323 -0.0183504 0.00917717 -0.0183465 0.00917323 -0.0183465 0.00917323 -0.00917717 0.00917323 -0.0183465 0.00917323 -0.0183465 0.00917717 -0.0183465 0.00917323 -0.00917323 0.00916929 -0.0183504 0.00917717 -0.0183465 0.00917323 -0.00917323 0.00917323 -0.0183465 0.00917323 -0.0183504 0.00917323 -0.0183465 0.00917323 -0.00917323 0.00917717 -0.0183465 0.00917323 -0.0183465 0.00917323 -0.0183504 0.00917323 -0.00917323 0.00917323 -0.0183465 0.00917323 -0.0183465 0.00917323 -0.0183465 0.00917323 -0.0183504 0.00917717 -0.00917323 0.00917323 -0.0183465 0.00917323 -0.0275236 0.00917323 -0.0183465 0.00917323 -0.0183465 0.00917323 -0.0183465 0.00917717 -0.0183504 0.00916929 -0.0183465 0.00917717 -0.0183465 0.00917323 -0.0183504 0.00917323 -0.0275197 0.00917323 -0.0183465 0.00917323 -0.0183504 0.00917323 -0.0275197 0.00917717 -0.0183465 0.00917323 -0.0183465 0.00916929 -0.0275236 0.00917717 -0.0275197 0.00917323 -0.0183504 0.00917323 -0.0275197 0.00917717 -0.0275197 0.00916929 -0.0275236 0.00917323 -0.0275197 0.00917717 -0.0366969 0.00917323 -0.0275197 0.00917323 -0.0366969 0.00917323 -0.0458661 0.00917323 -0.0458701 0.00917323 -0.0458661 0.00917717 -0.0642205 0.00916929 -0.0917362 0 -0.266039 -0.00916929 -0.100909 -0.00917717 -0.0642165 -0.00917323 -0.0550433 -0.00917323 -0.0458701 -0.00917323 -0.0458661 -0.00917323 -0.0366969 -0.00917323 -0.0366929 -0.00917717 -0.0275236 -0.00917323 -0.0275197 -0.00916929 -0.0275236 -0.00917717 -0.0275197 -0.00917323 -0.0275197 -0.00917323 -0.0183504 -0.00917717 -0.0183465 -0.00916929 -0.0275197 -0.00917323 -0.0183465 -0.00917717 -0.0183504 -0.00917323 -0.0183465 -0.00917323 -0.0183465 -0.00917323 -0.0183504 -0.00917323 -0.0183465 -0.00917323 -0.0183465 -0.00917717 -0.00917323 -0.00916929 -0.0183465 -0.00917717 -0.0183504 -0.00917323 -0.00917323 -0.00917323 -0.0183465 -0.00917323 -0.00917323 -0.00917323 -0.0183465 -0.00917323 -0.00917717 -0.00917717 -0.00917323 -0.00917323 -0.0183465 -0.00917323 -0.00917323 -0.00917323 -0.00917323 -0.00917323 -0.0183465 -0.00917323 -0.00917717 -0.00917323 -0.00917323 -0.00917323 -0.00917323 -0.00917717 -0.00917323 -0.00917323 -0.0183465 -0.00917323 -0.00917717 -0.00917323 -0.00917323 -0.00917323 -0.00916929 -0.00917323 -0.00917717 -0.00917717 -0.00917323 -0.00916929 -0.00917323 -0.00917323 -0.00917717 -0.00917717 -0.00916929 -0.00917323 -0.00917717 -0.00917323 -0.00917323 -0.00917323 -0.00917323 -0.00917323 -0.00917323 -0.00917717 -0.00917323 -0.0183425 -0.00917323 -0.00917717 -0.00917717 -0.00917323 -0.00917323 -0.00917323 -0.00916929 -0.00917717 -0.00917717 -0.0183425 -0.00917323 -0.00917717 -0.00917323 -0.00917323 -0.00917323 -0.0183465 -0.00917323 -0.00917323 -0.00917323 -0.00917323 -0.00917717 -0.0183465 -0.00917323 -0.00917717 -0.00917323 -0.0183465 -0.00917323 -0.00917323 -0.00917323 -0.0183465 -0.00917323 -0.00917717 -0.00917323 -0.0183465 -0.00917323 -0.00917323 -0.00917717 -0.0183465 -0.00917323 -0.0183465 -0.00917323 -0.0183504 -0.00917323 -0.00917323 -0.00917323 -0.0183465 -0.00917323 -0.0183504 -0.00917717 -0.0183425 -0.00916929 -0.0183504 -0.00917717 -0.0183465 -0.00917323 -0.0183465 -0.00917323 -0.0183465 -0.00917323 -0.0275236 -0.00917323 -0.0183465 -0.00917323 -0.0183504 -0.00917717 -0.0275197 -0.00917323 -0.0183465 -0.00916929 -0.0275236 -0.00917717 -0.0275197 -0.00917323 -0.0275236 -0.00917323 -0.0275197 -0.00917717 -0.0275197 -0.00916929 -0.0366969 -0.00917323 -0.0366969 -0.00917717 -0.0366929 -0.00917323 -0.0458701 -0.00917323 -0.0550394 -0.00917323 -0.0642165 -0.00917323 -0.0917402 -0.00917717 -0.284386 0 -0.0917362 0.00917717z"/>
   <polygon id="_103634464" class="fil2" points="3.58949,6.25905 3.57115,6.26822 3.5528,6.2774 3.54362,6.28657 3.53445,6.29574 3.52528,6.30492 3.5161,6.32327 3.50693,6.35079 3.50693,6.46087 3.5161,6.47922 3.52528,6.49757 3.53445,6.50674 3.54362,6.51591 3.5528,6.52509 3.56197,6.53426 3.57115,6.54344 3.59867,6.55261 3.62619,6.56178 4.86464,6.56178 4.89217,6.55261 4.91969,6.54344 4.92886,6.53426 4.93803,6.52509 4.9472,6.51591 4.95638,6.50674 4.96556,6.49757 4.97473,6.47922 4.9839,6.46087 4.9839,6.35079 4.97473,6.32327 4.96556,6.31409 4.95638,6.29574 4.9472,6.28657 4.93803,6.2774 4.91969,6.26822 4.90133,6.25905 4.87381,6.24988 3.60784,6.24988 "/>
   <polygon id="_103650424" class="fil2" points="3.62619,6.74526 3.60784,6.75443 3.58949,6.76361 3.58031,6.77278 3.57115,6.78195 3.56197,6.79113 3.5528,6.8003 3.54362,6.81865 3.53445,6.837 3.53445,6.95626 3.54362,6.9746 3.5528,6.99295 3.56197,7.00213 3.57115,7.0113 3.58031,7.02047 3.58949,7.02965 3.60784,7.03882 3.63536,7.04799 3.67206,7.05717 4.82794,7.05717 4.86464,7.04799 4.88299,7.03882 4.90133,7.02965 4.91051,7.02047 4.91969,7.0113 4.92886,7.00213 4.93803,6.99295 4.9472,6.9746 4.95638,6.94708 4.95638,6.84617 4.9472,6.81865 4.93803,6.8003 4.92886,6.79113 4.91969,6.78195 4.91051,6.77278 4.90133,6.76361 4.89217,6.75443 4.87381,6.74526 4.83712,6.73609 3.65371,6.73609 "/>
   <polygon id="_103652440" class="fil2" points="3.6904,7.24981 3.69957,7.25899 3.70875,7.26816 3.71792,7.27733 3.7271,7.28651 3.73627,7.29568 3.74544,7.30486 3.75462,7.31403 3.77296,7.3232 3.78214,7.33238 3.79131,7.34155 3.80049,7.35072 3.80966,7.3599 3.81883,7.36907 3.82801,7.37825 3.83718,7.38742 3.84635,7.39659 3.85553,7.40577 3.8647,7.41494 3.87387,7.42411 3.88305,7.43329 3.89222,7.44246 3.9014,7.45164 3.91057,7.46081 3.91974,7.46998 3.92892,7.47916 3.93809,7.48833 3.95644,7.49751 3.96561,7.50668 3.97479,7.51585 3.99313,7.52503 4.00231,7.5342 4.02066,7.54337 4.04818,7.55255 4.06653,7.56172 4.10322,7.5709 4.16744,7.58007 4.24083,7.58007 4.32339,7.5709 4.36926,7.56172 4.40595,7.55255 4.44265,7.54337 4.47017,7.5342 4.48852,7.52503 4.50687,7.51585 4.52521,7.50668 4.54356,7.49751 4.55274,7.48833 4.56191,7.47916 4.58026,7.46998 4.58943,7.46081 4.5986,7.45164 4.60778,7.44246 4.61695,7.43329 4.62613,7.42411 4.6353,7.41494 4.64447,7.40577 4.65365,7.39659 4.66282,7.38742 4.67199,7.37825 4.68117,7.36907 4.69034,7.3599 4.69951,7.35072 4.70869,7.34155 4.71786,7.33238 4.72704,7.3232 4.73621,7.31403 4.74538,7.30486 4.75456,7.29568 4.76373,7.28651 4.77291,7.27733 4.78208,7.26816 4.79125,7.25899 4.8096,7.24981 4.8096,7.22229 3.6904,7.22229 "/>
  </g>
 </g>
</svg>
