<?xml version="1.0" encoding="UTF-8"?>
<!DOCTYPE svg PUBLIC "-//W3C//DTD SVG 1.1//EN" "http://www.w3.org/Graphics/SVG/1.1/DTD/svg11.dtd">
<!-- Creator: CorelDRAW -->
<svg xmlns="http://www.w3.org/2000/svg" xml:space="preserve" width="3.5in" height="3.5in" style="shape-rendering:geometricPrecision; text-rendering:geometricPrecision; image-rendering:optimizeQuality; fill-rule:evenodd; clip-rule:evenodd"
viewBox="0 0 3.5 3.5"
 xmlns:xlink="http://www.w3.org/1999/xlink">
 <defs>
  <style type="text/css">
   <![CDATA[
    .str0 {stroke:#1F1A17;stroke-width:0.11111}
    .fil2 {fill:none}
    .fil3 {fill:#1F1A17}
    .fil0 {fill:white}
    .fil1 {fill:#DEDEDD;fill-rule:nonzero}
   ]]>
  </style>
 </defs>
 <g id="Layer_x0020_1">
  <metadata id="CorelCorpID_0Corel-Layer"/>
  <g id="_109443544">
   <g>
    <path id="_109890664" class="fil0" d="M1.75 0.25c0.828287,0 1.5,0.671713 1.5,1.5 0,0.828287 -0.671713,1.5 -1.5,1.5 -0.828287,0 -1.5,-0.671713 -1.5,-1.5 0,-0.828287 0.671713,-1.5 1.5,-1.5z"/>
    <path id="_1098906641" class="fil1" d="M3.29465 1.75l-0.0892913 0 0 0 -0.00177953 -0.0750827 -0.00561417 -0.0739016 -0.00937008 -0.0727913 -0.0126693 -0.0715945 -0.0162283 -0.0704685 -0.0196929 -0.0689094 -0.0228898 -0.0675984 -0.0259921 -0.0661969 -0.0291693 -0.0643504 -0.0320827 -0.0627559 -0.0350787 -0.0610748 -0.0379724 -0.0589409 -0.0406063 -0.0570669 -0.0431339 -0.0550984 -0.0457559 -0.052685 -0.0482795 -0.0505236 -0.0505236 -0.0482795 -0.052685 -0.0457559 -0.0550984 -0.0431339 -0.0570669 -0.0406063 -0.0589409 -0.0379724 -0.0610748 -0.0350787 -0.0627559 -0.0320827 -0.0643504 -0.0291693 -0.0661969 -0.0259921 -0.0675984 -0.0228898 -0.0689094 -0.0196929 -0.0704685 -0.0162283 -0.0715945 -0.0126693 -0.0727913 -0.00937008 -0.0739016 -0.00561417 -0.0750827 -0.00177953 0 -0.0892913 0.0792717 0.00212598 0.0784291 0.0059685 0.0773268 0.00971654 0.0761299 0.0137165 0.0746575 0.0172756 0.0734449 0.0207402 0.0717795 0.0242835 0.0700315 0.0277323 0.0685394 0.0309173 0.0665906 0.0341772 0.064563 0.0371654 0.0627756 0.0400669 0.0605551 0.0430472 0.0582402 0.0459291 0.0561732 0.0485433 0.0536654 0.0510669 0.0510669 0.0536654 0.0485433 0.0561732 0.0459291 0.0582402 0.0430472 0.0605551 0.0400669 0.0627756 0.0371654 0.064563 0.0341772 0.0665906 0.0309173 0.0685394 0.0277323 0.0700315 0.0242835 0.0717795 0.0207402 0.0734449 0.0172756 0.0746575 0.0137165 0.0761299 0.00971654 0.0773268 0.0059685 0.0784291 0.00212598 0.0792717 0 0zm-1.54465 1.54465l0 -0.0892913 0 0 0.0750827 -0.00177953 0.0739016 -0.00561417 0.0727913 -0.00937008 0.0715945 -0.0126693 0.0704685 -0.0162283 0.0689094 -0.0196929 0.0675984 -0.0228898 0.0661969 -0.0259921 0.0643504 -0.0291693 0.0627559 -0.0320827 0.0610748 -0.0350787 0.0589409 -0.0379724 0.0570669 -0.0406063 0.0550984 -0.0431339 0.052685 -0.0457559 0.0505236 -0.0482795 0.0482795 -0.0505236 0.0457559 -0.052685 0.0431339 -0.0550984 0.0406063 -0.0570669 0.0379724 -0.0589409 0.0350787 -0.0610748 0.0320827 -0.0627559 0.0291693 -0.0643504 0.0259921 -0.0661969 0.0228898 -0.0675984 0.0196929 -0.0689094 0.0162283 -0.0704685 0.0126693 -0.0715945 0.00937008 -0.0727913 0.00561417 -0.0739016 0.00177953 -0.0750827 0.0892913 0 -0.00212598 0.0792717 -0.0059685 0.0784291 -0.00971654 0.0773268 -0.0137165 0.0761299 -0.0172756 0.0746575 -0.0207402 0.0734449 -0.0242835 0.0717795 -0.0277323 0.0700315 -0.0309173 0.0685394 -0.0341772 0.0665906 -0.0371654 0.064563 -0.0400669 0.0627756 -0.0430472 0.0605551 -0.0459291 0.0582402 -0.0485433 0.0561732 -0.0510669 0.0536654 -0.0536654 0.0510669 -0.0561732 0.0485433 -0.0582402 0.0459291 -0.0605551 0.0430472 -0.0627756 0.0400669 -0.064563 0.0371654 -0.0665906 0.0341772 -0.0685394 0.0309173 -0.0700315 0.0277323 -0.0717795 0.0242835 -0.0734449 0.0207402 -0.0746575 0.0172756 -0.0761299 0.0137165 -0.0773268 0.00971654 -0.0784291 0.0059685 -0.0792717 0.00212598 0 0zm-1.54465 -1.54465l0.0892913 0 0 0 0.00177953 0.0750827 0.00561417 0.0739016 0.00937008 0.0727913 0.0126693 0.0715945 0.0162283 0.0704685 0.0196929 0.0689094 0.0228898 0.0675984 0.0259921 0.0661969 0.0291693 0.0643504 0.0320827 0.0627559 0.0350787 0.0610748 0.0379724 0.0589409 0.0406063 0.0570669 0.0431339 0.0550984 0.0457559 0.052685 0.0482795 0.0505236 0.0505236 0.0482795 0.052685 0.0457559 0.0550984 0.0431339 0.0570669 0.0406063 0.0589409 0.0379724 0.0610748 0.0350787 0.0627559 0.0320827 0.0643504 0.0291693 0.0661969 0.0259921 0.0675984 0.0228898 0.0689094 0.0196929 0.0704685 0.0162283 0.0715945 0.0126693 0.0727913 0.00937008 0.0739016 0.00561417 0.0750827 0.00177953 0 0.0892913 -0.0792717 -0.00212598 -0.0784291 -0.0059685 -0.0773268 -0.00971654 -0.0761299 -0.0137165 -0.0746575 -0.0172756 -0.0734449 -0.0207402 -0.0717795 -0.0242835 -0.0700315 -0.0277323 -0.0685394 -0.0309173 -0.0665906 -0.0341772 -0.064563 -0.0371654 -0.0627756 -0.0400669 -0.0605551 -0.0430472 -0.0582402 -0.0459291 -0.0561732 -0.0485433 -0.0536654 -0.0510669 -0.0510669 -0.0536654 -0.0485433 -0.0561732 -0.0459291 -0.0582402 -0.0430472 -0.0605551 -0.0400669 -0.0627756 -0.0371654 -0.064563 -0.0341772 -0.0665906 -0.0309173 -0.0685394 -0.0277323 -0.0700315 -0.0242835 -0.0717795 -0.0207402 -0.0734449 -0.0172756 -0.0746575 -0.0137165 -0.0761299 -0.00971654 -0.0773268 -0.0059685 -0.0784291 -0.00212598 -0.0792717 0 0zm1.54465 -1.54465l0 0.0892913 0 0 -0.0750827 0.00177953 -0.0739016 0.00561417 -0.0727913 0.00937008 -0.0715945 0.0126693 -0.0704685 0.0162283 -0.0689094 0.0196929 -0.0675984 0.0228898 -0.0661969 0.0259921 -0.0643504 0.0291693 -0.0627559 0.0320827 -0.0610748 0.0350787 -0.0589409 0.0379724 -0.0570669 0.0406063 -0.0550984 0.0431339 -0.052685 0.0457559 -0.0505236 0.0482795 -0.0482795 0.0505236 -0.0457559 0.052685 -0.0431339 0.0550984 -0.0406063 0.0570669 -0.0379724 0.0589409 -0.0350787 0.0610748 -0.0320827 0.0627559 -0.0291693 0.0643504 -0.0259921 0.0661969 -0.0228898 0.0675984 -0.0196929 0.0689094 -0.0162283 0.0704685 -0.0126693 0.0715945 -0.00937008 0.0727913 -0.00561417 0.0739016 -0.00177953 0.0750827 -0.0892913 0 0.00212598 -0.0792717 0.0059685 -0.0784291 0.00971654 -0.0773268 0.0137165 -0.0761299 0.0172756 -0.0746575 0.0207402 -0.0734449 0.0242835 -0.0717795 0.0277323 -0.0700315 0.0309173 -0.0685394 0.0341772 -0.0665906 0.0371654 -0.064563 0.0400669 -0.0627756 0.0430472 -0.0605551 0.0459291 -0.0582402 0.0485433 -0.0561732 0.0510669 -0.0536654 0.0536654 -0.0510669 0.0561732 -0.0485433 0.0582402 -0.0459291 0.0605551 -0.0430472 0.0627756 -0.0400669 0.064563 -0.0371654 0.0665906 -0.0341772 0.0685394 -0.0309173 0.0700315 -0.0277323 0.0717795 -0.0242835 0.0734449 -0.0207402 0.0746575 -0.0172756 0.0761299 -0.0137165 0.0773268 -0.00971654 0.0784291 -0.0059685 0.0792717 -0.00212598 0 0z"/>
   </g>
   <polygon class="fil2 str0" points="1.06765,2.48649 1.06765,1.97219 0.597795,1.58487 2.655,1.16581 1.81053,2.48014 1.43591,2.23251 "/>
   <polygon class="fil3" points="1.15911,2.29886 1.1718,1.9468 2.29141,1.40762 1.32404,2.01658 "/>
  </g>
 </g>
</svg>
