<?xml version="1.0" encoding="UTF-8"?>
<!DOCTYPE svg PUBLIC "-//W3C//DTD SVG 1.1//EN" "http://www.w3.org/Graphics/SVG/1.1/DTD/svg11.dtd">
<!-- Creator: CorelDRAW -->
<svg xmlns="http://www.w3.org/2000/svg" xml:space="preserve" width="8.5in" height="8.5in" style="shape-rendering:geometricPrecision; text-rendering:geometricPrecision; image-rendering:optimizeQuality; fill-rule:evenodd; clip-rule:evenodd"
viewBox="0 0 8.5 8.5"
 xmlns:xlink="http://www.w3.org/1999/xlink"
 version="1.0">
 <defs>
  <style type="text/css">
   <![CDATA[
    .str0 {stroke:#1F1A17;stroke-width:0.27778}
    .fil3 {fill:none}
    .fil2 {fill:#1F1A17}
    .fil0 {fill:white}
    .fil1 {fill:#DEDEDD;fill-rule:nonzero}
   ]]>
  </style>
 </defs>
 <g id="Layer_x0020_1">
  <metadata id="CorelCorpID_0Corel-Layer"/>
  <g>
   <path class="fil0" d="M4.25 0.500004c2.07072,0 3.75,1.67928 3.75,3.75 0,2.07072 -1.67928,3.75 -3.75,3.75 -2.07072,0 -3.75,-1.67928 -3.75,-3.75 0,-2.07072 1.67928,-3.75 3.75,-3.75z"/>
   <path id="1" class="fil1" d="M8.11161 4.25l-0.223228 0 0 0 -0.00444488 -0.187713 -0.0140472 -0.184744 -0.0234173 -0.181984 -0.0316732 -0.178976 -0.0405748 -0.176181 -0.0492323 -0.172272 -0.0572205 -0.169 -0.0649764 -0.165488 -0.0729252 -0.160874 -0.0802126 -0.156894 -0.087689 -0.152677 -0.094937 -0.147354 -0.101508 -0.142669 -0.10785 -0.137744 -0.114386 -0.131717 -0.120685 -0.126315 -0.126319 -0.120689 -0.131717 -0.114386 -0.137744 -0.107846 -0.142669 -0.101512 -0.147354 -0.0949331 -0.152677 -0.0876929 -0.156894 -0.0802087 -0.160874 -0.0729252 -0.165492 -0.0649764 -0.168996 -0.0572205 -0.172276 -0.0492323 -0.176177 -0.0405748 -0.17898 -0.0316732 -0.181984 -0.0234173 -0.184744 -0.0140472 -0.187713 -0.00444488 0 -0.223228 0.198177 0.0053189 0.196083 0.0149213 0.193315 0.0242835 0.190319 0.0342953 0.186642 0.043189 0.183606 0.0518465 0.179461 0.0607087 0.175083 0.0693386 0.171339 0.0772874 0.166484 0.085437 0.161402 0.0929213 0.156945 0.100169 0.151386 0.107614 0.145594 0.114823 0.140433 0.121362 0.134169 0.127665 0.127661 0.134165 0.121362 0.140433 0.114827 0.145594 0.10761 0.151386 0.100173 0.156945 0.0929173 0.161402 0.0854409 0.166484 0.0772874 0.171339 0.0693386 0.175079 0.0607087 0.179465 0.0518465 0.183602 0.043189 0.186646 0.0342953 0.190315 0.0242835 0.193315 0.0149213 0.196083 0.0053189 0.198177 0 0zm-3.86162 3.86162l0 -0.223228 0 0 0.187713 -0.00444488 0.184744 -0.0140472 0.181984 -0.0234173 0.17898 -0.0316732 0.176177 -0.0405748 0.172276 -0.0492323 0.168996 -0.0572205 0.165492 -0.0649764 0.160874 -0.0729252 0.156894 -0.0802126 0.152677 -0.087689 0.147354 -0.094937 0.142669 -0.101508 0.137744 -0.10785 0.131717 -0.114386 0.126319 -0.120685 0.120685 -0.126319 0.114386 -0.131717 0.10785 -0.137744 0.101508 -0.142669 0.094937 -0.147354 0.087689 -0.152677 0.0802126 -0.156894 0.0729252 -0.160874 0.0649764 -0.165492 0.0572205 -0.168996 0.0492323 -0.172276 0.0405748 -0.176177 0.0316732 -0.17898 0.0234173 -0.181984 0.0140472 -0.184744 0.00444488 -0.187713 0.223228 0 -0.0053189 0.198177 -0.0149213 0.196083 -0.0242835 0.193315 -0.0342953 0.190319 -0.043189 0.186642 -0.0518465 0.183606 -0.0607087 0.179461 -0.0693386 0.175083 -0.0772874 0.171339 -0.0854409 0.166484 -0.0929173 0.161402 -0.100173 0.156945 -0.10761 0.151386 -0.114827 0.145594 -0.121362 0.140433 -0.127661 0.134169 -0.134169 0.127661 -0.140433 0.121362 -0.145594 0.114827 -0.151386 0.10761 -0.156945 0.100173 -0.161402 0.0929173 -0.166484 0.0854409 -0.171339 0.0772874 -0.175083 0.0693386 -0.179461 0.0607087 -0.183606 0.0518465 -0.186642 0.043189 -0.190319 0.0342953 -0.193315 0.0242835 -0.196083 0.0149213 -0.198177 0.0053189 0 0zm-3.86161 -3.86162l0.223228 0 0 0 0.00444488 0.187713 0.0140472 0.184744 0.0234173 0.181984 0.0316732 0.17898 0.0405748 0.176177 0.0492323 0.172276 0.0572205 0.168996 0.0649764 0.165492 0.0729252 0.160874 0.0802126 0.156894 0.087689 0.152677 0.094937 0.147354 0.101508 0.142669 0.10785 0.137744 0.114382 0.131717 0.120689 0.126319 0.126319 0.120685 0.131717 0.114386 0.13774 0.10785 0.142669 0.101508 0.147358 0.094937 0.152673 0.087689 0.156898 0.0802126 0.160874 0.0729252 0.165488 0.0649764 0.169 0.0572205 0.172272 0.0492323 0.176181 0.0405748 0.178976 0.0316732 0.181984 0.0234173 0.184744 0.0140472 0.187713 0.00444488 0 0.223228 -0.198177 -0.0053189 -0.196083 -0.0149213 -0.193315 -0.0242835 -0.190315 -0.0342953 -0.186646 -0.043189 -0.183602 -0.0518465 -0.179465 -0.0607087 -0.175079 -0.0693386 -0.171339 -0.0772874 -0.166488 -0.0854409 -0.161398 -0.0929173 -0.156949 -0.100173 -0.151386 -0.10761 -0.145591 -0.114827 -0.140433 -0.121362 -0.134169 -0.127661 -0.127665 -0.134169 -0.121358 -0.140433 -0.114827 -0.145594 -0.10761 -0.151386 -0.100173 -0.156945 -0.0929173 -0.161402 -0.0854409 -0.166484 -0.0772874 -0.171339 -0.0693386 -0.175083 -0.0607087 -0.179461 -0.0518465 -0.183606 -0.043189 -0.186642 -0.0342953 -0.190319 -0.0242835 -0.193315 -0.0149213 -0.196083 -0.0053189 -0.198177 0 0zm3.86161 -3.86161l0 0.223228 0 0 -0.187713 0.00444488 -0.184744 0.0140472 -0.181984 0.0234173 -0.178976 0.0316732 -0.176181 0.0405748 -0.172272 0.0492323 -0.169 0.0572205 -0.165488 0.0649764 -0.160874 0.0729252 -0.156898 0.0802087 -0.152673 0.0876929 -0.147358 0.0949331 -0.142669 0.101512 -0.13774 0.107846 -0.131717 0.114386 -0.126319 0.120689 -0.120689 0.126315 -0.114382 0.131717 -0.10785 0.137744 -0.101508 0.142669 -0.094937 0.147354 -0.087689 0.152677 -0.0802126 0.156894 -0.0729252 0.160874 -0.0649764 0.165488 -0.0572205 0.169 -0.0492323 0.172272 -0.0405748 0.176181 -0.0316732 0.178976 -0.0234173 0.181984 -0.0140472 0.184744 -0.00444488 0.187713 -0.223228 0 0.0053189 -0.198177 0.0149213 -0.196083 0.0242835 -0.193315 0.0342953 -0.190315 0.043189 -0.186646 0.0518465 -0.183602 0.0607087 -0.179465 0.0693386 -0.175079 0.0772874 -0.171339 0.0854409 -0.166484 0.0929173 -0.161402 0.100173 -0.156945 0.10761 -0.151386 0.114827 -0.145594 0.121358 -0.140433 0.127665 -0.134165 0.134169 -0.127665 0.140433 -0.121362 0.145591 -0.114823 0.151386 -0.107614 0.156949 -0.100169 0.161398 -0.0929213 0.166488 -0.085437 0.171339 -0.0772874 0.175079 -0.0693386 0.179465 -0.0607087 0.183602 -0.0518465 0.186646 -0.043189 0.190315 -0.0342953 0.193315 -0.0242835 0.196083 -0.0149213 0.198177 -0.0053189 0 0z"/>
  </g>
  <g>
   <g id="_119169744">
    <polygon id="_119173080" class="fil2" points="3.8709,2.83587 3.85993,2.83635 3.85158,2.83736 3.84583,2.83891 3.84008,2.84045 3.83434,2.84199 3.8312,2.84407 3.82545,2.84561 3.8197,2.84716 3.81656,2.84923 3.81081,2.85078 3.80507,2.85232 3.80193,2.8544 3.79618,2.85594 3.79304,2.85802 3.7873,2.85956 3.78416,2.86164 3.77841,2.86318 3.77527,2.86526 3.76952,2.8668 3.76638,2.86888 3.76324,2.87095 3.7575,2.8725 3.75435,2.87457 3.74861,2.87612 3.74547,2.8782 3.74233,2.88027 3.73658,2.88181 3.73344,2.88389 3.7303,2.88597 3.72717,2.88804 3.72142,2.88959 3.71828,2.89166 3.71514,2.89374 3.712,2.89581 3.70886,2.89789 3.70311,2.89944 3.69997,2.90151 3.69683,2.90359 3.69369,2.90567 3.69056,2.90774 3.68741,2.90981 3.68167,2.91136 3.67853,2.91344 3.67539,2.91551 3.67225,2.91759 3.66911,2.91967 3.66597,2.92174 3.66283,2.92381 3.65969,2.92589 3.65655,2.92797 3.65341,2.93004 3.65027,2.93212 3.64713,2.9342 3.64399,2.93627 3.64085,2.93835 3.63771,2.94043 3.63457,2.9425 3.63143,2.94457 3.6283,2.94665 3.62515,2.94873 3.62202,2.9508 3.61888,2.95288 3.6152,2.95756 3.61207,2.95964 3.60893,2.96172 3.60579,2.96379 3.60265,2.96587 3.59951,2.96794 3.59583,2.97263 3.5927,2.9747 3.58956,2.97678 3.58642,2.97885 3.58275,2.98354 3.57961,2.98561 3.57647,2.98769 3.5728,2.99237 3.56966,2.99445 3.56652,2.99653 3.56285,3.00121 3.5597,3.00329 3.55604,3.00797 3.55289,3.01005 3.54976,3.01212 3.54608,3.01681 3.54241,3.02149 3.53928,3.02357 3.5356,3.02825 3.53246,3.03033 3.52879,3.03501 3.52512,3.03969 3.52198,3.04177 3.51831,3.04645 3.51464,3.05114 3.51097,3.05582 3.50783,3.0579 3.50416,3.06258 3.50048,3.06726 3.49681,3.07194 3.49314,3.07663 3.48947,3.08131 3.4858,3.086 3.4816,3.09329 3.47793,3.09797 3.47426,3.10266 3.47058,3.10734 3.46638,3.11463 3.46271,3.11931 3.4585,3.12661 3.4543,3.1339 3.45063,3.13858 3.44643,3.14587 3.44222,3.15317 3.43749,3.16307 3.43329,3.17036 3.42908,3.17765 3.42435,3.18755 3.41961,3.19744 3.41488,3.20735 3.40961,3.21985 3.40381,3.23497 3.39802,3.25008 3.39222,3.2652 3.38429,3.29074 3.37265,3.33454 3.36414,3.37627 3.35824,3.41852 3.35553,3.44513 3.35441,3.46392 3.35436,3.47749 3.35431,3.49106 3.35426,3.50463 3.35527,3.51298 3.35575,3.52395 3.35676,3.5323 3.35778,3.54066 3.35879,3.54901 3.3598,3.55737 3.36081,3.56572 3.36183,3.57408 3.36284,3.58243 3.36385,3.59079 3.3654,3.59654 3.36641,3.60489 3.36742,3.61324 3.36843,3.6216 3.36944,3.62995 3.37099,3.6357 3.372,3.64406 3.37355,3.6498 3.37456,3.65816 3.37557,3.66652 3.37712,3.67226 3.37813,3.68062 3.37967,3.68636 3.38069,3.69472 3.38223,3.70046 3.38324,3.70882 3.38479,3.71457 3.3858,3.72292 3.38734,3.72867 3.38835,3.73702 3.3899,3.74277 3.39144,3.74852 3.39299,3.75427 3.394,3.76262 3.39554,3.76837 3.39709,3.77412 3.3981,3.78247 3.39965,3.78822 3.40119,3.79396 3.40274,3.79971 3.40428,3.80546 3.40529,3.81381 3.40683,3.81956 3.40838,3.82531 3.40993,3.83106 3.41147,3.8368 3.41301,3.84255 3.41456,3.8483 3.4161,3.85405 3.41765,3.8598 3.41919,3.86554 3.42073,3.87129 3.42228,3.87704 3.42382,3.88278 3.42483,3.89114 3.42638,3.89689 3.42846,3.90002 3.43,3.90577 3.43154,3.91152 3.43309,3.91727 3.43463,3.92301 3.43618,3.92876 3.43772,3.93451 3.43926,3.94026 3.44081,3.946 3.44235,3.95175 3.4439,3.9575 3.44597,3.96064 3.44752,3.96639 3.44906,3.97213 3.45061,3.97788 3.45215,3.98363 3.45422,3.98676 3.45577,3.99251 3.45731,3.99826 3.45886,4.00401 3.4604,4.00976 3.46248,4.01289 3.46402,4.01864 3.46557,4.02439 3.46711,4.03013 3.46919,4.03328 3.47073,4.03902 3.47228,4.04477 3.47435,4.04791 3.4759,4.05366 3.47744,4.05941 3.47952,4.06254 3.48106,4.06829 3.48261,4.07404 3.48468,4.07718 3.48622,4.08293 3.48777,4.08867 3.48985,4.09181 3.49139,4.09756 3.49293,4.10331 3.49501,4.10644 3.49656,4.11219 3.49863,4.11533 3.50017,4.12108 3.50172,4.12683 3.5038,4.12996 3.50534,4.13571 3.50741,4.13885 3.50896,4.1446 3.51104,4.14774 3.51258,4.15349 3.51412,4.15923 3.5162,4.16237 3.51774,4.16812 3.51982,4.17126 3.52136,4.17701 3.52344,4.18015 3.52498,4.18589 3.52706,4.18904 3.5286,4.19478 3.53068,4.19792 3.53222,4.20367 3.5343,4.20681 3.53585,4.21256 3.53792,4.21569 3.54,4.21883 3.54154,4.22458 3.54362,4.22772 3.54516,4.23347 3.54724,4.23661 3.54878,4.24235 3.55086,4.2455 3.5524,4.25124 3.55448,4.25438 3.55656,4.25752 3.5581,4.26327 3.56017,4.26641 3.56172,4.27215 3.5638,4.2753 3.56587,4.27843 3.56741,4.28418 3.56949,4.28732 3.57104,4.29307 3.57311,4.29621 3.57519,4.29935 3.57673,4.30509 3.57881,4.30823 3.58088,4.31137 3.58243,4.31712 3.5845,4.32026 3.58658,4.3234 3.58812,4.32915 3.5902,4.33229 3.59228,4.33543 3.59382,4.34117 3.59589,4.34431 3.59797,4.34745 3.59952,4.3532 3.60159,4.35634 3.60367,4.35948 3.60574,4.36262 3.60729,4.36837 3.60936,4.3715 3.61144,4.37465 3.61298,4.38039 3.61506,4.38353 3.61714,4.38667 3.61868,4.39242 3.62076,4.39556 3.62283,4.3987 3.62491,4.40183 3.62645,4.40758 3.62853,4.41072 3.6306,4.41386 3.63268,4.417 3.63422,4.42275 3.6363,4.42589 3.63838,4.42903 3.64045,4.43217 3.64253,4.43531 3.64407,4.44106 3.64615,4.44419 3.64822,4.44733 3.6503,4.45047 3.65185,4.45622 3.65392,4.45936 3.656,4.4625 3.65807,4.46564 3.66015,4.46878 3.66169,4.47452 3.66377,4.47767 3.66585,4.4808 3.66792,4.48394 3.67,4.48708 3.67207,4.49022 3.67362,4.49597 3.67569,4.49911 3.67777,4.50225 3.67985,4.50539 3.68192,4.50853 3.684,4.51167 3.68554,4.51741 3.68762,4.52056 3.68969,4.52369 3.69177,4.52683 3.69385,4.52997 3.69592,4.53311 3.69746,4.53886 3.69954,4.542 3.70162,4.54514 3.70369,4.54828 3.70577,4.55142 3.70785,4.55456 3.70992,4.5577 3.712,4.56083 3.71354,4.56658 3.71562,4.56972 3.71769,4.57286 3.71977,4.576 3.72185,4.57914 3.72392,4.58228 3.726,4.58542 3.72807,4.58856 3.73015,4.5917 3.73222,4.59484 3.73377,4.60059 3.73585,4.60372 3.73792,4.60687 3.74,4.61 3.74207,4.61315 3.74415,4.61628 3.74622,4.61943 3.7483,4.62256 3.75038,4.6257 3.75245,4.62884 3.75453,4.63198 3.75661,4.63512 3.75868,4.63826 3.76076,4.6414 3.76283,4.64454 3.76438,4.65029 3.76645,4.65343 3.76853,4.65657 3.77061,4.6597 3.77268,4.66285 3.77476,4.66598 3.77683,4.66913 3.77891,4.67226 3.78098,4.6754 3.78306,4.67854 3.78514,4.68168 3.78721,4.68482 3.78929,4.68796 3.79137,4.6911 3.79344,4.69424 3.79552,4.69738 3.79759,4.70052 3.79967,4.70366 3.80174,4.7068 3.80382,4.70994 3.8059,4.71308 3.80797,4.71622 3.81005,4.71935 3.81213,4.7225 3.8142,4.72563 3.81628,4.72878 3.81835,4.73191 3.82043,4.73506 3.8225,4.73819 3.82458,4.74133 3.82666,4.74447 3.82873,4.74761 3.83081,4.75075 3.83289,4.75389 3.83496,4.75703 3.83704,4.76017 3.83911,4.76331 3.84119,4.76645 3.84326,4.76959 3.84534,4.77273 3.84742,4.77587 3.84949,4.77901 3.85157,4.78215 3.85365,4.78529 3.85572,4.78843 3.86041,4.7921 3.86248,4.79524 3.86456,4.79837 3.86663,4.80152 3.86871,4.80465 3.87078,4.8078 3.87286,4.81093 3.87494,4.81407 3.87701,4.81721 3.87909,4.82035 3.88117,4.82349 3.88324,4.82663 3.88532,4.82977 3.88739,4.83291 3.89207,4.83658 3.89415,4.83972 3.89623,4.84286 3.8983,4.846 3.90038,4.84914 3.90246,4.85228 3.90453,4.85542 3.90661,4.85856 3.90869,4.8617 3.91076,4.86484 3.91283,4.86798 3.91752,4.87165 3.9196,4.87479 3.92167,4.87793 3.92375,4.88107 3.92582,4.8842 3.9279,4.88735 3.92998,4.89048 3.93205,4.89363 3.93674,4.8973 3.93881,4.90044 3.94089,4.90357 3.94296,4.90671 3.94504,4.90985 3.94711,4.91299 3.94919,4.91613 3.95387,4.9198 3.95595,4.92294 3.95803,4.92608 3.9601,4.92922 3.96218,4.93236 3.96426,4.9355 3.96633,4.93864 3.97102,4.94231 3.97309,4.94545 3.97517,4.94859 3.97724,4.95173 3.97932,4.95487 3.98139,4.95801 3.98608,4.96168 3.98815,4.96482 3.99023,4.96796 3.99231,4.9711 3.99438,4.97424 3.99907,4.97791 4.00114,4.98105 4.00322,4.98419 4.0053,4.98733 4.00737,4.99047 4.01206,4.99414 4.01413,4.99728 4.0162,5.00042 4.01828,5.00356 4.02036,5.0067 4.02504,5.01037 4.02712,5.01351 4.02919,5.01665 4.03127,5.01979 4.03595,5.02346 4.03803,5.0266 4.04011,5.02974 4.04218,5.03288 4.04687,5.03655 4.04894,5.03969 4.05102,5.04283 4.05309,5.04597 4.05778,5.04964 4.05985,5.05278 4.06193,5.05592 4.064,5.05906 4.06869,5.06273 4.07076,5.06587 4.07284,5.06901 4.07492,5.07215 4.0796,5.07582 4.08168,5.07896 4.08375,5.0821 4.08583,5.08524 4.09051,5.08891 4.09259,5.09205 4.09467,5.09519 4.09935,5.09886 4.10143,5.102 4.1035,5.10514 4.10819,5.10881 4.11026,5.11195 4.11233,5.11509 4.11702,5.11876 4.11909,5.1219 4.12117,5.12504 4.12325,5.12818 4.12793,5.13185 4.13001,5.13499 4.13469,5.13866 4.13677,5.1418 4.13884,5.14494 4.14353,5.14861 4.1456,5.15175 4.14768,5.15489 4.15236,5.15856 4.15444,5.1617 4.15652,5.16484 4.1612,5.16851 4.16328,5.17165 4.16535,5.17479 4.17004,5.17846 4.17211,5.1816 4.17419,5.18474 4.17887,5.18841 4.18094,5.19155 4.18563,5.19522 4.1877,5.19836 4.18978,5.2015 4.19446,5.20517 4.19654,5.20831 4.20122,5.21198 4.2033,5.21512 4.20798,5.2188 4.21006,5.22193 4.21214,5.22507 4.21682,5.22874 4.2189,5.23188 4.22358,5.23556 4.22566,5.23869 4.22773,5.24183 4.23242,5.2455 4.23449,5.24865 4.23918,5.25231 4.24125,5.25546 4.24594,5.25913 4.24801,5.26227 4.2527,5.26594 4.25477,5.26908 4.25946,5.27275 4.26153,5.27589 4.26361,5.27903 4.26829,5.2827 4.27037,5.28584 4.27505,5.28951 4.27713,5.29265 4.28181,5.29632 4.28389,5.29946 4.28857,5.30313 4.29065,5.30627 4.29533,5.30994 4.30001,5.31361 4.30209,5.31675 4.30677,5.32043 4.30885,5.32356 4.31353,5.32724 4.31561,5.33037 4.32029,5.33405 4.32237,5.33719 4.32705,5.34085 4.32913,5.344 4.33381,5.34767 4.33589,5.35081 4.34057,5.35448 4.34526,5.35815 4.34733,5.36129 4.35202,5.36496 4.35409,5.3681 4.35878,5.37177 4.36085,5.37491 4.36554,5.37858 4.37022,5.38225 4.3723,5.38539 4.37698,5.38906 4.38166,5.39274 4.38374,5.39587 4.38842,5.39955 4.3905,5.40269 4.39518,5.40635 4.39987,5.41003 4.40194,5.41317 4.40663,5.41684 4.41131,5.42051 4.41339,5.42365 4.41807,5.42732 4.42275,5.43099 4.42483,5.43413 4.42951,5.4378 4.4342,5.44147 4.43627,5.44461 4.44096,5.44828 4.44564,5.45196 4.45032,5.45563 4.4524,5.45877 4.45708,5.46244 4.46177,5.46611 4.46645,5.46978 4.46853,5.47292 4.47321,5.47659 4.47789,5.48026 4.48258,5.48393 4.48465,5.48707 4.48934,5.49074 4.49402,5.49442 4.4987,5.49809 4.50339,5.50176 4.50546,5.5049 4.51015,5.50857 4.51483,5.51224 4.51952,5.51591 4.5242,5.51958 4.52888,5.52326 4.53096,5.52639 4.53564,5.53006 4.54033,5.53374 4.54501,5.53741 4.54969,5.54108 4.55438,5.54475 4.55906,5.54842 4.56374,5.55209 4.56843,5.55576 4.57311,5.55943 4.5778,5.56311 4.58248,5.56678 4.58977,5.57098 4.59446,5.57465 4.60175,5.57885 4.60904,5.58306 4.61372,5.58673 4.62101,5.59093 4.6283,5.59513 4.63559,5.59934 4.64289,5.60354 4.65018,5.60774 4.65747,5.61195 4.66476,5.61615 4.67466,5.62089 4.68195,5.62509 4.68924,5.62929 4.69914,5.63403 4.70904,5.63876 4.71894,5.6435 4.72884,5.64823 4.74135,5.6535 4.75385,5.65876 4.76376,5.6635 4.77887,5.6693 4.79398,5.67509 4.8117,5.68143 4.83465,5.68882 4.8628,5.69728 4.9645,5.71802 4.99372,5.72126 5.01511,5.7229 5.03129,5.72348 5.04747,5.72407 5.06104,5.72412 5.07461,5.72417 5.08557,5.72369 5.09654,5.72321 5.10489,5.7222 5.11585,5.72172 5.12421,5.7207 5.13256,5.71969 5.14092,5.71868 5.14927,5.71767 5.15763,5.71665 5.16598,5.71564 5.17173,5.71409 5.18008,5.71308 5.18583,5.71154 5.19158,5.71 5.19993,5.70898 5.20568,5.70744 5.21143,5.70589 5.21718,5.70435 5.22292,5.70281 5.22867,5.70126 5.23442,5.69972 5.24017,5.69817 5.24591,5.69663 5.25166,5.69509 5.25741,5.69354 5.26315,5.692 5.26629,5.68992 5.27204,5.68838 5.27779,5.68683 5.28093,5.68476 5.28667,5.68321 5.29242,5.68167 5.29556,5.67959 5.30131,5.67805 5.30445,5.67597 5.3102,5.67443 5.31333,5.67235 5.31908,5.67081 5.32222,5.66873 5.32797,5.66719 5.33111,5.66511 5.33425,5.66304 5.34,5.66149 5.34313,5.65941 5.34628,5.65734 5.35202,5.6558 5.35516,5.65372 5.3583,5.65164 5.36405,5.6501 5.36719,5.64802 5.37033,5.64594 5.37346,5.64387 5.37921,5.64233 5.38235,5.64025 5.38549,5.63817 5.38863,5.6361 5.39177,5.63402 5.39752,5.63248 5.40066,5.6304 5.4038,5.62833 5.40694,5.62625 5.41007,5.62417 5.41322,5.6221 5.41635,5.62002 5.4195,5.61794 5.42263,5.61587 5.42578,5.6138 5.42891,5.61172 5.43206,5.60964 5.43519,5.60757 5.43833,5.60549 5.44147,5.60341 5.44461,5.60134 5.44775,5.59926 5.45089,5.59719 5.45403,5.59511 5.45717,5.59304 5.46031,5.59096 5.46345,5.58888 5.46659,5.58681 5.46973,5.58473 5.47287,5.58265 5.47601,5.58058 5.47915,5.5785 5.48282,5.57382 5.48596,5.57174 5.48909,5.56967 5.49224,5.56759 5.49537,5.56552 5.49852,5.56344 5.50219,5.55876 5.50533,5.55668 5.50846,5.5546 5.51161,5.55253 5.51528,5.54784 5.51842,5.54577 5.52156,5.54369 5.52522,5.53901 5.52837,5.53693 5.5315,5.53485 5.53518,5.53017 5.53831,5.52809 5.54146,5.52602 5.54513,5.52133 5.54827,5.51926 5.55194,5.51457 5.55508,5.5125 5.55875,5.50781 5.56189,5.50574 5.56556,5.50106 5.56923,5.49637 5.57237,5.4943 5.57604,5.48961 5.57971,5.48493 5.58338,5.48024 5.58706,5.47556 5.59072,5.47088 5.59493,5.46359 5.59913,5.4563 5.60387,5.4464 5.60913,5.43389 5.62083,5.37652 5.62088,5.36295 5.6204,5.35198 5.61939,5.34363 5.61838,5.33528 5.61737,5.32692 5.61582,5.32117 5.61428,5.31543 5.61273,5.30968 5.61119,5.30393 5.60965,5.29819 5.6081,5.29244 5.60656,5.28669 5.60448,5.28355 5.60294,5.2778 5.60086,5.27466 5.59931,5.26892 5.59724,5.26578 5.59517,5.26264 5.59362,5.25689 5.59154,5.25375 5.58947,5.25061 5.58739,5.24747 5.58271,5.2438 5.58063,5.24066 5.57595,5.23699 5.57387,5.23385 5.56919,5.23018 5.56711,5.22704 5.56243,5.22337 5.56035,5.22023 5.55567,5.21656 5.55359,5.21342 5.54891,5.20974 5.54683,5.20661 5.54215,5.20293 5.54007,5.1998 5.53539,5.19613 5.53331,5.19298 5.52863,5.18931 5.52656,5.18617 5.52187,5.1825 5.5198,5.17936 5.51511,5.17569 5.51304,5.17255 5.50835,5.16888 5.50628,5.16574 5.50159,5.16207 5.49691,5.1584 5.49483,5.15526 5.49015,5.15159 5.48807,5.14845 5.48339,5.14478 5.48131,5.14164 5.47663,5.13797 5.47455,5.13483 5.46987,5.13116 5.46779,5.12802 5.46311,5.12435 5.46103,5.1212 5.45635,5.11754 5.45427,5.11439 5.44959,5.11072 5.44751,5.10758 5.44283,5.10391 5.44075,5.10077 5.43607,5.0971 5.43399,5.09396 5.42931,5.09029 5.42723,5.08715 5.42255,5.08348 5.42047,5.08034 5.41579,5.07667 5.41371,5.07353 5.40903,5.06986 5.40695,5.06672 5.40227,5.06305 5.40019,5.05991 5.39551,5.05624 5.39343,5.0531 5.38875,5.04943 5.38667,5.04629 5.38199,5.04261 5.37992,5.03948 5.37523,5.0358 5.37316,5.03267 5.36847,5.02899 5.3664,5.02585 5.36171,5.02219 5.35964,5.01904 5.35495,5.01537 5.35288,5.01223 5.34819,5.00856 5.34612,5.00542 5.34143,5.00175 5.33936,4.99861 5.33467,4.99494 5.3326,4.9918 5.32791,4.98813 5.32584,4.98499 5.32115,4.98132 5.31908,4.97818 5.31439,4.97451 5.31232,4.97137 5.30763,4.9677 5.30295,4.96403 5.30087,4.96089 5.29619,4.95722 5.29411,4.95407 5.28943,4.95041 5.28735,4.94726 5.28267,4.94359 5.28059,4.94045 5.27591,4.93678 5.27383,4.93364 5.26915,4.92997 5.26707,4.92683 5.26239,4.92316 5.26031,4.92002 5.25563,4.91635 5.25356,4.91321 5.24887,4.90954 5.2468,4.9064 5.24211,4.90273 5.24004,4.89959 5.23535,4.89592 5.23328,4.89278 5.22859,4.88911 5.22652,4.88597 5.22183,4.8823 5.21976,4.87916 5.21507,4.87548 5.213,4.87235 5.20831,4.86867 5.20624,4.86554 5.20156,4.86186 5.19948,4.85872 5.1948,4.85506 5.19272,4.85191 5.18804,4.84824 5.18596,4.8451 5.18128,4.84143 5.1792,4.83829 5.17452,4.83462 5.17244,4.83148 5.16776,4.82781 5.16568,4.82467 5.161,4.821 5.15892,4.81786 5.15424,4.81419 5.15216,4.81105 5.15008,4.80791 5.1454,4.80424 5.14333,4.8011 5.14125,4.79796 5.13657,4.79429 5.13449,4.79115 5.12981,4.78748 5.12512,4.78381 5.12305,4.78067 5.11836,4.777 5.11368,4.77332 5.109,4.76965 5.10431,4.76598 5.09702,4.76178 5.08973,4.75757 5.08244,4.75337 5.07254,4.74864 5.05481,4.74231 5.02091,4.73539 5.00213,4.73428 4.99117,4.73476 4.98281,4.73577 4.97446,4.73679 4.96871,4.73833 4.96296,4.73987 4.95721,4.74142 4.95146,4.74296 4.94572,4.74451 4.94258,4.74658 4.93683,4.74813 4.93369,4.7502 4.93055,4.75228 4.92741,4.75435 4.92428,4.75643 4.92113,4.75851 4.918,4.76058 4.91485,4.76266 4.91172,4.76474 4.90857,4.76681 4.90544,4.76889 4.9023,4.77096 4.89916,4.77304 4.89602,4.77511 4.89288,4.77719 4.88974,4.77927 4.8866,4.78134 4.88346,4.78342 4.88032,4.7855 4.87718,4.78757 4.87404,4.78965 4.8709,4.79172 4.86776,4.7938 4.86462,4.79587 4.86148,4.79795 4.85781,4.80263 4.85467,4.80471 4.85153,4.80679 4.84839,4.80886 4.84526,4.81094 4.84211,4.81302 4.83898,4.81509 4.83583,4.81717 4.8327,4.81924 4.82956,4.82132 4.82642,4.82339 4.82328,4.82547 4.82014,4.82755 4.817,4.82962 4.81386,4.8317 4.81072,4.83378 4.80758,4.83585 4.80444,4.83793 4.8013,4.84 4.79816,4.84208 4.79502,4.84415 4.79188,4.84623 4.78874,4.84831 4.7856,4.85038 4.78246,4.85246 4.77932,4.85454 4.77619,4.85661 4.77252,4.8613 4.76937,4.86337 4.76624,4.86544 4.76309,4.86752 4.75996,4.8696 4.75681,4.87167 4.75368,4.87375 4.75054,4.87583 4.7474,4.8779 4.74426,4.87998 4.74112,4.88206 4.73798,4.88413 4.73484,4.8862 4.7317,4.88828 4.72856,4.89036 4.72542,4.89243 4.71967,4.89398 4.71654,4.89606 4.71339,4.89813 4.70765,4.89967 4.70451,4.90175 4.69876,4.9033 4.69562,4.90537 4.68987,4.90691 4.68413,4.90846 4.67838,4.91 4.67263,4.91155 4.66689,4.91309 4.66114,4.91463 4.65278,4.91565 4.64704,4.91719 4.63607,4.91767 4.62772,4.91869 4.61154,4.9181 4.5646,4.90853 4.55209,4.90326 4.54219,4.89853 4.5349,4.89433 4.53022,4.89065 4.52554,4.88698 4.52085,4.88331 4.51356,4.87911 4.50887,4.87544 4.50419,4.87177 4.49951,4.86809 4.49482,4.86443 4.48753,4.86022 4.48285,4.85655 4.47817,4.85288 4.47348,4.84921 4.4688,4.84554 4.46411,4.84187 4.45943,4.83819 4.45475,4.83452 4.45006,4.83085 4.44538,4.82718 4.4407,4.82351 4.43601,4.81984 4.43394,4.8167 4.42925,4.81303 4.42457,4.80935 4.41989,4.80569 4.4152,4.80201 4.41052,4.79834 4.40844,4.7952 4.40376,4.79153 4.39907,4.78786 4.39439,4.78419 4.39231,4.78105 4.38763,4.77738 4.38294,4.7737 4.38087,4.77057 4.37619,4.7669 4.3715,4.76322 4.36943,4.76009 4.36474,4.75641 4.36006,4.75274 4.35798,4.7496 4.3533,4.74593 4.35122,4.74279 4.34654,4.73912 4.34446,4.73598 4.33978,4.73231 4.3377,4.72917 4.33302,4.7255 4.33094,4.72236 4.32626,4.71869 4.32419,4.71555 4.3195,4.71188 4.31743,4.70874 4.31274,4.70507 4.31067,4.70193 4.30598,4.69826 4.30391,4.69512 4.30183,4.69198 4.29715,4.68831 4.29507,4.68517 4.29039,4.6815 4.28831,4.67835 4.28624,4.67522 4.28155,4.67154 4.27948,4.66841 4.2774,4.66527 4.27272,4.66159 4.27064,4.65846 4.26856,4.65531 4.26388,4.65165 4.2618,4.6485 4.25973,4.64537 4.25765,4.64222 4.25297,4.63856 4.25089,4.63541 4.24881,4.63228 4.24674,4.62913 4.24467,4.626 4.23998,4.62233 4.23791,4.61919 4.23583,4.61605 4.23375,4.61291 4.22907,4.60924 4.22699,4.60609 4.22492,4.60296 4.22284,4.59981 4.22076,4.59668 4.21869,4.59354 4.21661,4.5904 4.21193,4.58673 4.20985,4.58359 4.20778,4.58045 4.2057,4.57731 4.20363,4.57417 4.20155,4.57103 4.19947,4.56789 4.1974,4.56475 4.19271,4.56108 4.19064,4.55794 4.18856,4.5548 4.18648,4.55166 4.18441,4.54852 4.18233,4.54538 4.18026,4.54224 4.17818,4.5391 4.17611,4.53596 4.17403,4.53282 4.17195,4.52969 4.16988,4.52654 4.1678,4.52341 4.16572,4.52026 4.16365,4.51713 4.16157,4.51399 4.1595,4.51085 4.15742,4.50771 4.15535,4.50457 4.15327,4.50143 4.15119,4.49829 4.14912,4.49515 4.14704,4.49201 4.14496,4.48887 4.14289,4.48573 4.14081,4.48259 4.13874,4.47945 4.13666,4.47631 4.13459,4.47317 4.13304,4.46743 4.13096,4.46429 4.12889,4.46115 4.12681,4.45801 4.12474,4.45487 4.12266,4.45173 4.12059,4.44859 4.11851,4.44545 4.11643,4.44231 4.11489,4.43656 4.11281,4.43342 4.11074,4.43028 4.10866,4.42714 4.10658,4.424 4.10451,4.42087 4.10296,4.41512 4.10089,4.41198 4.09881,4.40884 4.09674,4.4057 4.09466,4.40256 4.09312,4.39681 4.09104,4.39367 4.08896,4.39053 4.08689,4.38739 4.08534,4.38165 4.08327,4.37851 4.08119,4.37537 4.07965,4.36962 4.07757,4.36648 4.0755,4.36334 4.07342,4.3602 4.07187,4.35445 4.0698,4.35131 4.06772,4.34817 4.06618,4.34243 4.0641,4.33929 4.06256,4.33354 4.06048,4.3304 4.05841,4.32726 4.05686,4.32152 4.05479,4.31837 4.05324,4.31263 4.05117,4.30949 4.04909,4.30635 4.04755,4.3006 4.04547,4.29746 4.04393,4.29172 4.04185,4.28857 4.04031,4.28283 4.03823,4.27969 4.03669,4.27394 4.03461,4.2708 4.03307,4.26506 4.03099,4.26191 4.02944,4.25617 4.0279,4.25042 4.02583,4.24728 4.02428,4.24154 4.02274,4.23579 4.02066,4.23265 4.01912,4.2269 4.01757,4.22115 4.0155,4.21801 4.01395,4.21226 4.01241,4.20652 4.01033,4.20338 4.00879,4.19763 4.00724,4.19189 4.0057,4.18614 4.00415,4.18039 4.00261,4.17464 4.00054,4.1715 3.99899,4.16576 3.99744,4.16001 3.9959,4.15426 3.99436,4.14852 3.99281,4.14277 3.99127,4.13702 3.98972,4.13127 3.98871,4.12292 3.98717,4.11717 3.98563,4.11142 3.98408,4.10568 3.98254,4.09993 3.98152,4.09157 3.97998,4.08583 3.97897,4.07747 3.97742,4.07172 3.97641,4.06337 3.9754,4.05501 3.97492,4.04405 3.97497,4.03048 3.97608,4.01169 3.983,3.9778 3.98986,3.95746 3.99512,3.94496 3.99986,3.93506 4.00406,3.92776 4.00826,3.92047 4.01247,3.91318 4.01667,3.90589 4.02034,3.90121 4.02401,3.89652 4.02822,3.88923 4.03189,3.88455 4.03556,3.87987 4.0387,3.87779 4.04237,3.87311 4.04604,3.86842 4.04971,3.86374 4.05285,3.86166 4.05652,3.85698 4.06019,3.8523 4.06333,3.85022 4.067,3.84554 4.07015,3.84346 4.07381,3.83878 4.07696,3.8367 4.08009,3.83462 4.08377,3.82994 4.08691,3.82786 4.09057,3.82318 4.09372,3.8211 4.09685,3.81903 4.1,3.81695 4.10367,3.81227 4.10681,3.81019 4.10994,3.80811 4.11309,3.80604 4.11622,3.80396 4.11936,3.80189 4.12304,3.7972 4.12617,3.79513 4.12931,3.79305 4.13245,3.79098 4.13559,3.7889 4.13873,3.78682 4.14187,3.78475 4.14501,3.78267 4.14815,3.78059 4.15129,3.77852 4.15443,3.77644 4.15757,3.77437 4.16071,3.77229 4.16385,3.77022 4.16699,3.76814 4.17013,3.76606 4.17327,3.76399 4.17641,3.76191 4.17955,3.75983 4.18269,3.75776 4.18583,3.75569 4.19157,3.75414 4.19471,3.75206 4.19785,3.74999 4.20099,3.74791 4.20413,3.74583 4.20727,3.74376 4.21041,3.74169 4.21616,3.74014 4.2193,3.73806 4.22244,3.73599 4.22557,3.73391 4.23132,3.73237 4.23446,3.73029 4.2376,3.72822 4.24074,3.72614 4.24649,3.72459 4.24963,3.72252 4.25277,3.72044 4.25852,3.7189 4.26165,3.71682 4.2648,3.71475 4.26793,3.71267 4.27107,3.71059 4.27421,3.70852 4.27735,3.70644 4.28102,3.70176 4.28416,3.69969 4.28783,3.695 4.2915,3.69031 4.29518,3.68563 4.29885,3.68095 4.30252,3.67626 4.30725,3.66637 4.31305,3.65125 4.31837,3.62517 4.31948,3.60639 4.319,3.59543 4.31799,3.58707 4.31698,3.57871 4.31543,3.57297 4.31389,3.56722 4.31235,3.56147 4.3108,3.55572 4.30926,3.54998 4.30718,3.54684 4.30564,3.54109 4.30356,3.53795 4.30202,3.5322 4.29994,3.52906 4.2984,3.52332 4.29632,3.52018 4.29478,3.51443 4.2927,3.51129 4.29116,3.50554 4.28908,3.50241 4.28754,3.49666 4.28546,3.49352 4.28392,3.48777 4.28237,3.48202 4.2803,3.47888 4.27875,3.47314 4.27668,3.47 4.27513,3.46425 4.27306,3.46111 4.27151,3.45536 4.26944,3.45222 4.26789,3.44648 4.26581,3.44334 4.26427,3.43759 4.26219,3.43445 4.26065,3.4287 4.25857,3.42556 4.25703,3.41981 4.25495,3.41668 4.25341,3.41093 4.25133,3.40779 4.24979,3.40204 4.24771,3.3989 4.24617,3.39316 4.24409,3.39002 4.24255,3.38427 4.24047,3.38113 4.23893,3.37538 4.23685,3.37224 4.23531,3.3665 4.23323,3.36335 4.23169,3.35761 4.22961,3.35447 4.22807,3.34872 4.22599,3.34558 4.22445,3.33983 4.22237,3.3367 4.22083,3.33095 4.21875,3.32781 4.21721,3.32206 4.21513,3.31892 4.21359,3.31317 4.21151,3.31004 4.20997,3.30429 4.20789,3.30115 4.20635,3.2954 4.2048,3.28965 4.20273,3.28652 4.20118,3.28077 4.19911,3.27763 4.19756,3.27188 4.19549,3.26874 4.19394,3.26299 4.19187,3.25985 4.19032,3.25411 4.18825,3.25097 4.1867,3.24522 4.18463,3.24208 4.18308,3.23633 4.181,3.23319 4.17946,3.22744 4.17739,3.22431 4.17584,3.21856 4.17376,3.21542 4.17222,3.20967 4.17015,3.20653 4.1686,3.20079 4.16652,3.19765 4.16498,3.1919 4.16291,3.18876 4.16136,3.18301 4.15928,3.17987 4.15774,3.17413 4.15567,3.17099 4.15412,3.16524 4.15204,3.1621 4.1505,3.15635 4.14843,3.15321 4.14688,3.14746 4.1448,3.14433 4.14326,3.13858 4.14119,3.13544 4.13964,3.12969 4.13756,3.12655 4.13602,3.12081 4.13394,3.11767 4.1324,3.11192 4.13032,3.10878 4.12878,3.10303 4.12723,3.09728 4.12516,3.09415 4.12361,3.0884 4.12154,3.08526 4.11999,3.07951 4.11792,3.07637 4.11637,3.07063 4.1143,3.06748 4.11275,3.06174 4.11068,3.0586 4.10913,3.05285 4.10706,3.04971 4.10551,3.04396 4.10344,3.04082 4.10189,3.03508 4.09981,3.03194 4.09827,3.02619 4.0962,3.02305 4.09465,3.0173 4.09257,3.01417 4.09103,3.00842 4.08896,3.00528 4.08741,2.99953 4.08533,2.99639 4.08379,2.99064 4.08172,2.9875 4.08017,2.98176 4.07809,2.97862 4.07655,2.97287 4.07448,2.96973 4.07293,2.96398 4.07085,2.96084 4.06931,2.95509 4.06724,2.95196 4.06569,2.94621 4.06361,2.94307 4.06207,2.93732 4.06,2.93418 4.05792,2.93104 4.05584,2.92791 4.05377,2.92476 4.05169,2.92163 4.04701,2.91795 4.04493,2.91481 4.04285,2.91167 4.03817,2.908 4.03609,2.90486 4.03141,2.90119 4.02933,2.89805 4.02465,2.89438 4.01997,2.89071 4.01528,2.88704 4.0106,2.88337 4.00592,2.8797 4.00123,2.87602 3.99394,2.87182 3.98926,2.86815 3.98196,2.86395 3.97207,2.85921 3.96217,2.85448 3.94444,2.84815 3.88968,2.83698 "/>
   </g>
   <path class="fil3 str0" d="M2.92401 1.77269l2.75868 0c0.226606,0 0.412008,0.185413 0.412008,0.412008l0 4.13061c0,0.226594 -0.185413,0.412008 -0.412008,0.412008l-2.75868 0c-0.226594,0 -0.412008,-0.185402 -0.412008,-0.412008l0 -4.13061c0,-0.226606 0.185402,-0.412008 0.412008,-0.412008z"/>
   <path class="fil2" d="M2.13947 2.91777l0.678335 0c0.0737992,0 0.134177,0.060378 0.134177,0.134177l0 0c0,0.0737992 -0.0604291,0.134177 -0.134177,0.134177l-0.678335 0c-0.073748,0 -0.134177,-0.060378 -0.134177,-0.134177l0 0c0,-0.0737992 0.060378,-0.134177 0.134177,-0.134177z"/>
   <path class="fil2" d="M2.13947 4.01777l0.678335 0c0.0737992,0 0.134177,0.060378 0.134177,0.134177l0 0c0,0.0737992 -0.0604291,0.134177 -0.134177,0.134177l-0.678335 0c-0.073748,0 -0.134177,-0.060378 -0.134177,-0.134177l0 0c0,-0.0737992 0.060378,-0.134177 0.134177,-0.134177z"/>
   <path class="fil2" d="M2.13947 5.11777l0.678335 0c0.0737992,0 0.134177,0.060378 0.134177,0.134177l0 0c0,0.0737992 -0.0604291,0.134177 -0.134177,0.134177l-0.678335 0c-0.073748,0 -0.134177,-0.060378 -0.134177,-0.134177l0 0c0,-0.0737992 0.060378,-0.134177 0.134177,-0.134177z"/>
  </g>
 </g>
</svg>
