<?xml version="1.0" encoding="UTF-8"?>
<!DOCTYPE svg PUBLIC "-//W3C//DTD SVG 1.1//EN" "http://www.w3.org/Graphics/SVG/1.1/DTD/svg11.dtd">
<!-- Creator: CorelDRAW -->
<svg xmlns="http://www.w3.org/2000/svg" xml:space="preserve" width="2in" height="2in" style="shape-rendering:geometricPrecision; text-rendering:geometricPrecision; image-rendering:optimizeQuality; fill-rule:evenodd; clip-rule:evenodd"
viewBox="0 0 2 2"
 xmlns:xlink="http://www.w3.org/1999/xlink">
 <defs>
  <style type="text/css">
   <![CDATA[
    .str1 {stroke:#1F1A17;stroke-width:0.0416654}
    .str0 {stroke:#1F1A17;stroke-width:0.0694449}
    .fil1 {fill:#1F1A17}
    .fil2 {fill:#838281}
    .fil3 {fill:#C0A062}
    .fil0 {fill:white}
   ]]>
  </style>
 </defs>
 <g id="Layer_x0020_1">
  <metadata id="CorelCorpID_0Corel-Layer"/>
  <path class="fil0" d="M0.999996 0.130016c0.480402,0 0.869988,0.389587 0.869988,0.869984 0,0.480398 -0.389587,0.869984 -0.869988,0.869984 -0.480394,0 -0.86998,-0.389587 -0.86998,-0.869984 0,-0.480398 0.389587,-0.869984 0.86998,-0.869984z"/>
  <path class="fil1" d="M0.847933 0.429713l0.30413 0c0.0678031,0 0.12328,0.0554764 0.12328,0.12328l0 0.107008 -0.0713386 0 0 -0.110516c0,-0.0290157 -0.0237402,-0.052752 -0.0527559,-0.052752l-0.3025 0c-0.0290157,0 -0.0527559,0.0237362 -0.0527559,0.052752l0 0.110516 -0.0713386 0 0 -0.107008c0,-0.0678031 0.0554764,-0.12328 0.12328,-0.12328z"/>
  <path class="fil2 str0" d="M0.55874 0.949343l0.88252 0c0.0302008,0 0.0549055,0.0247283 0.0549055,0.0549055l0 0.406213c0,0.0301772 -0.0247283,0.0549055 -0.0549055,0.0549055l-0.88252 0c-0.0301772,0 -0.0549055,-0.0247047 -0.0549055,-0.0549055l0 -0.406213c0,-0.0302008 0.0247047,-0.0549055 0.0549055,-0.0549055z"/>
  <path class="fil1 str0" d="M0.50874 0.649343l0.98252 0c0.0302008,0 0.0549055,0.0247126 0.0549055,0.0549055l0 0.256213c0,0.0301929 -0.0247126,0.0549055 -0.0549055,0.0549055l-0.98252 0c-0.0301929,0 -0.0549055,-0.0247047 -0.0549055,-0.0549055l0 -0.256213c0,-0.0302008 0.0247047,-0.0549055 0.0549055,-0.0549055z"/>
  <path class="fil3 str1" d="M0.912906 1.00404l0.174189 0c0.0113268,0 0.0205945,0.00926772 0.0205945,0.0205945l0 0.0961181c0,0.0113268 -0.00926772,0.0205945 -0.0205945,0.0205945l-0.174189 0c-0.0113268,0 -0.0205945,-0.00926772 -0.0205945,-0.0205945l0 -0.0961181c0,-0.0113268 0.00926772,-0.0205945 0.0205945,-0.0205945z"/>
 </g>
</svg>
