<?xml version="1.0" encoding="UTF-8"?>
<!DOCTYPE svg PUBLIC "-//W3C//DTD SVG 1.1//EN" "http://www.w3.org/Graphics/SVG/1.1/DTD/svg11.dtd">
<!-- Creator: CorelDRAW -->
<svg xmlns="http://www.w3.org/2000/svg" xml:space="preserve" width="2in" height="2in" style="shape-rendering:geometricPrecision; text-rendering:geometricPrecision; image-rendering:optimizeQuality; fill-rule:evenodd; clip-rule:evenodd"
viewBox="0 0 2 2"
 xmlns:xlink="http://www.w3.org/1999/xlink">
 <defs>
  <style type="text/css">
   <![CDATA[
    .fil0 {fill:#D68586}
   ]]>
  </style>
 </defs>
 <g id="Layer_x0020_1">
  <metadata id="CorelCorpID_0Corel-Layer"/>
  <g id="_131439616">
   <polygon id="_131444248" class="fil0" points="0.493189,0.982008 0.488047,1.06941 0.482906,1.16195 0.482906,1.22879 0.488047,1.24422 0.493189,1.2545 0.498331,1.26478 0.505937,1.27667 0.513756,1.28535 0.518898,1.29049 0.524035,1.29563 0.539461,1.30591 0.544602,1.31105 0.554886,1.31619 0.570311,1.32648 0.585732,1.33676 0.596016,1.3419 0.606299,1.34704 0.620654,1.35272 0.632008,1.35732 0.647429,1.36246 0.657713,1.36761 0.67828,1.37275 0.693701,1.37789 0.714268,1.38303 0.729693,1.38817 0.750256,1.39331 0.781102,1.39845 0.811953,1.40359 0.853083,1.40874 0.899354,1.41388 1.09987,1.41388 1.1349,1.41088 1.15128,1.40874 1.18727,1.40359 1.21812,1.39845 1.24382,1.39331 1.26953,1.38817 1.28496,1.38303 1.30552,1.37789 1.32094,1.37275 1.33637,1.36761 1.3518,1.36246 1.36722,1.35732 1.3775,1.35218 1.38778,1.34704 1.39807,1.3419 1.40835,1.33676 1.41863,1.33162 1.42891,1.32648 1.43673,1.3208 1.45462,1.31105 1.47004,1.30045 1.48033,1.29049 1.48547,1.28535 1.49222,1.2772 1.50089,1.26478 1.50603,1.25364 1.51117,1.24422 1.51631,1.22879 1.51631,1.16195 1.51117,1.06941 1.50603,0.982008 1.50089,0.946016 1.49575,0.946016 1.47519,0.951157 1.45976,0.956299 1.44434,0.961441 1.42891,0.966583 1.40835,0.971724 1.39293,0.976866 1.3775,0.982008 1.36207,0.98715 1.34665,0.992287 1.33123,0.997429 1.31066,1.00257 1.29524,1.00771 1.27981,1.01285 1.26439,1.018 1.24896,1.02314 1.23354,1.02828 1.21298,1.03342 1.19755,1.03856 1.18213,1.0437 1.1667,1.04884 1.15128,1.05398 1.13586,1.05913 1.11529,1.06427 1.09987,1.06941 1.08444,1.07455 1.06902,1.07969 1.05359,1.08483 1.03817,1.08997 1.00218,1.09511 0.997039,1.09511 0.978677,1.0941 0.961051,1.08997 0.945626,1.08483 0.930205,1.07969 0.91478,1.07455 0.899354,1.06941 0.883933,1.06427 0.863366,1.05913 0.847941,1.05398 0.83252,1.04884 0.817094,1.0437 0.801669,1.03856 0.786244,1.03342 0.765681,1.02828 0.750256,1.02314 0.734831,1.018 0.719409,1.01285 0.703984,1.00771 0.688559,1.00257 0.667996,0.997429 0.652571,0.992287 0.63715,0.98715 0.621724,0.982008 0.606299,0.976866 0.590874,0.971724 0.570311,0.966583 0.554886,0.961441 0.539461,0.956299 0.524035,0.951157 0.503472,0.946016 0.498331,0.946016 "/>
   <path id="_131445184" class="fil0" d="M0.961051 0.38561l-0.0154252 0.00514173c-0.276185,0.0920709 -0.556748,0.17015 -0.832894,0.262209l-0.0208346 0.0062126 -0.0100157 0.00407087 -0.00514173 0.0051378 -0.00514173 0.0102835 0.000133858 0.0245039 0.00433858 0.00808661 0.0109528 0.00854331 0.0154252 0.00514173 0.0154252 0.0051378c0.0502008,0.0139094 0.156024,0.0485827 0.210791,0.0668386l0.0207756 0.00365354 -0.0104921 0.0220551 -0.00514173 0.00514173 -0.00514173 0.0102795 -0.00514173 0.0102835 -0.00514173 0.0102835 -0.00514173 0.0154252 -0.0051378 0.0154213 -0.00514173 0.0154252 -0.00514173 0.0154252 -0.00514173 0.020563 -0.00514173 0.0205669 -0.00514173 0.0308465 -0.00514173 0.0514134 0 0.0205669 -0.020563 0.0102835 -0.00514173 0.00514173 -0.00514173 0.0051378 -0.00514173 0.00514173 -0.00514173 0.0102835 -0.00514173 0.0102835 -0.00514173 0.0154252 0 0.0462717 0.00514173 0.020563 0.00514173 0.0154252 0.0102835 0 0 0.0102835 0.00514173 0.0102835 0.0102835 0.00514173 0.0051378 0.00514173 0 0.020563 -0.0051378 0.0411299 -0.00514173 0.0359921 -0.00514173 0.0359882 -0.00514173 0.0411299 -0.00514173 0.0359882 -0.00514173 0.0411339 -0.00514173 0.0359882 -0.00514173 0.0411299 0 0.0359882 0.00514173 0.00514173 0.0102835 0 0 0.0102835 0.179949 0 0 -0.0102835 0.0102795 0 0.00514173 -0.00514173 0 -0.0359882 -0.00514173 -0.0411299 -0.0051378 -0.0359882 -0.00514173 -0.0411339 -0.00514173 -0.0359882 -0.00514173 -0.0359882 -0.00514173 -0.0411299 -0.00514173 -0.0359921 -0.00514173 -0.0411299 0 -0.020563 0.0102835 -0.00514173 0.00514173 -0.00514173 0.00514173 -0.0102835 0 -0.0102835 0.0102835 0 0.0051378 -0.0154252 0.00514173 -0.020563 0 -0.0462717 -0.00514173 -0.0154252 -0.0051378 -0.0102835 -0.00514173 -0.0102835 -0.00514173 -0.00514173 -0.00514173 -0.0051378 -0.00514173 -0.00514173 -0.00514173 -0.00514173 -0.00514173 -0.00514173 -0.00374803 -0.0248425 0.00374803 -0.0368543 0.00514173 -0.0308465 0.00514173 -0.0205669 0.00514173 -0.0154252 0.00894094 -0.0260984 0.0137638 -0.0263858 0.0122126 -0.0210984 0.0113543 -0.0138189 0.00514173 -0.00514173 0.0154213 0 0.0154252 0.00514173c0.080315,0.0267677 0.147323,0.0456772 0.22622,0.0719803l0.020563 0.0051378 0.0154252 0.00514173 0.0154252 0.00514173 0.0154213 0.00514173 0.0154252 0.00514173 0.0205669 0.00514173 0.0154252 0.00514173 0.0154213 0.00514173 0.0154252 0.00514173 0.0154252 0.00514173 0.0154213 0.00514173 0.0205669 0.00514173 0.0154252 0.00514173 0.0154213 0.0051378 0.0154252 0.00514173 0.0220787 0.00435039 0.0293346 0.000791339 0.0154213 -0.00514173 0.0154252 -0.00514173 0.0154252 -0.0051378c0.131228,-0.0393701 0.265394,-0.0798976 0.395882,-0.123394 0.134713,-0.0449094 0.271539,-0.0836614 0.406169,-0.128535l0.020563 -0.00514173 0.0154252 -0.0051378 0.0102835 -0.00514173 0.012311 -0.0102835 0.00388976 -0.0151929 -0.000779528 -0.0156575 -0.00514173 -0.0102835 -0.00514173 -0.0051378 -0.0102795 -0.00514173 -0.0154252 -0.00514173 -0.0205669 -0.00514173 -0.0154213 -0.00514173 -0.0154252 -0.00514173 -0.0154252 -0.00514173 -0.0154213 -0.00514173 -0.0205669 -0.00514173 -0.0154252 -0.0051378 -0.0154252 -0.00514173 -0.0154213 -0.00514173 -0.0154252 -0.00514173 -0.0154252 -0.00514173 -0.020563 -0.00514173 -0.0154252 -0.00514173 -0.0154252 -0.00514173 -0.0154213 -0.00514173 -0.0154252 -0.0051378 -0.020563 -0.00514173 -0.0154252 -0.00514173 -0.0154252 -0.00514173 -0.0154252 -0.00514173 -0.0154213 -0.00514173 -0.0154252 -0.00514173 -0.0205669 -0.00514173 -0.0154252 -0.00514173 -0.0154213 -0.0051378 -0.0154252 -0.00514173 -0.0154252 -0.00514173 -0.020563 -0.00514173 -0.0154252 -0.00514173 -0.0154213 -0.00514173 -0.0154252 -0.00514173 -0.0154252 -0.00514173 -0.0154213 -0.00514173 -0.0205669 -0.00514173 -0.0154252 -0.00514173 -0.0154252 -0.00514173 -0.0154213 -0.0051378 -0.0154252 -0.00514173 -0.0205669 -0.00514173 -0.0154213 -0.00514173 -0.0154252 -0.00514173 -0.0154252 -0.00514173 -0.0154213 -0.00514173 -0.0154252 -0.00514173 -0.0205669 -0.00514173 -0.0154213 -0.00514173 -0.0154252 -0.0051378 -0.0154252 -0.00514173 -0.0154213 -0.00514173 -0.0205669 -0.00514173 -0.0154252 -0.00514173 -0.0154252 -0.00514173 -0.0154213 -0.00514173 -0.0462717 0 -0.0154252 0.00514173z"/>
  </g>
 </g>
</svg>
