<?xml version="1.0" encoding="UTF-8"?>
<!DOCTYPE svg PUBLIC "-//W3C//DTD SVG 1.1//EN" "http://www.w3.org/Graphics/SVG/1.1/DTD/svg11.dtd">
<!-- Creator: CorelDRAW -->
<svg xmlns="http://www.w3.org/2000/svg" xml:space="preserve" width="5.3in" height="2in" style="shape-rendering:geometricPrecision; text-rendering:geometricPrecision; image-rendering:optimizeQuality; fill-rule:evenodd; clip-rule:evenodd"
viewBox="0 0 5.3 2"
 xmlns:xlink="http://www.w3.org/1999/xlink">
 <defs>
  <style type="text/css">
   <![CDATA[
    .str0 {stroke:#C2C1C1;stroke-width:0.003}
    .fil0 {fill:#AAA9A9}
    .fil1 {fill:#AAA9A9;fill-rule:nonzero}
   ]]>
  </style>
 </defs>
 <g id="Layer_x0020_1">
  <metadata id="CorelCorpID_0Corel-Layer"/>
  <g id="_106393112">
   <polygon id="_106393208" class="fil0 str0" points="1.24512,0.345075 1.24005,0.346343 1.23498,0.34761 1.23244,0.348878 1.22864,0.350146 1.22611,0.351413 1.22357,0.352681 1.22103,0.353949 1.21976,0.355217 1.2185,0.356484 1.21596,0.357752 1.21469,0.35902 1.21343,0.360291 1.21216,0.361559 1.21089,0.362827 1.20962,0.364094 1.20835,0.365362 1.20709,0.36663 1.20582,0.369165 1.20455,0.370433 1.20328,0.372969 1.20202,0.375504 1.20074,0.378039 1.19948,0.380575 1.19821,0.384382 1.19694,0.388185 1.19567,0.394524 1.19441,0.40213 1.19314,0.417346 1.19187,0.426224 1.1906,0.44778 1.18933,0.462992 1.18807,0.473138 1.1868,0.482012 1.18553,0.489622 1.18426,0.495961 1.183,0.502299 1.18173,0.50737 1.18046,0.513713 1.17919,0.517516 1.17792,0.522587 1.17665,0.527657 1.17539,0.531461 1.17412,0.535268 1.17285,0.539071 1.17158,0.542874 1.17031,0.546677 1.16905,0.55048 1.16778,0.554287 1.16651,0.558091 1.16524,0.560626 1.16398,0.564429 1.16271,0.566965 1.16144,0.570768 1.16017,0.573303 1.15891,0.57711 1.15763,0.579646 1.15637,0.582181 1.1551,0.585984 1.15383,0.58852 1.15256,0.591055 1.1513,0.593591 1.15003,0.596126 1.14876,0.598665 1.14749,0.601201 1.14622,0.603736 1.14496,0.606272 1.14369,0.608807 1.14242,0.611343 1.14115,0.613878 1.13989,0.616413 1.13862,0.618953 1.13735,0.621488 1.13608,0.622756 1.13481,0.625291 1.13354,0.627827 1.13228,0.630362 1.13101,0.63163 1.12974,0.634165 1.12847,0.636701 1.1272,0.637969 1.12594,0.640508 1.12467,0.643043 1.1234,0.644311 1.12213,0.646846 1.12087,0.649382 1.1196,0.65065 1.11833,0.653185 1.11706,0.654453 1.11579,0.656988 1.11452,0.659524 1.11326,0.660791 1.11199,0.663331 1.11072,0.664598 1.10945,0.667134 1.10819,0.668402 1.10692,0.669669 1.10565,0.672205 1.10438,0.673472 1.10311,0.676008 1.10185,0.677276 1.10058,0.679811 1.09931,0.681079 1.09804,0.68235 1.09678,0.684886 1.09551,0.686154 1.09424,0.688689 1.09297,0.689957 1.0917,0.691224 1.09043,0.69376 1.08917,0.695028 1.0879,0.696295 1.08663,0.698831 1.08536,0.700098 1.08409,0.701366 1.08283,0.703906 1.08156,0.705173 1.08029,0.706441 1.07902,0.707709 1.07776,0.710244 1.07649,0.711512 1.07522,0.71278 1.07395,0.714047 1.07268,0.716583 1.07141,0.71785 1.07015,0.719118 1.06888,0.720386 1.06761,0.722921 1.06634,0.724189 1.06507,0.725461 1.06381,0.726728 1.06254,0.727996 1.06127,0.730531 1.06,0.731799 1.05874,0.733067 1.05747,0.734335 1.0562,0.735602 1.05493,0.73687 1.05367,0.739406 1.05239,0.740673 1.05113,0.741941 1.04986,0.743209 1.04859,0.744476 1.04732,0.745744 1.04606,0.747016 1.04479,0.748283 1.04352,0.749551 1.04225,0.752087 1.04098,0.753354 1.03972,0.754622 1.03845,0.75589 1.03718,0.757157 1.03591,0.758425 1.03465,0.759693 1.03338,0.760961 1.03211,0.762228 1.03084,0.763496 1.02957,0.764764 1.0283,0.766031 1.02704,0.767303 1.02577,0.768571 1.0245,0.769839 1.02323,0.771106 1.02196,0.772374 1.0207,0.773642 1.01943,0.774909 1.01816,0.776177 1.01689,0.777445 1.01563,0.778713 1.01436,0.77998 1.01309,0.781248 1.01182,0.782516 1.01055,0.783783 1.00928,0.785051 1.00802,0.786319 1.00675,0.787587 1.00548,0.788858 1.00421,0.790126 1.00294,0.791394 1.00168,0.792661 1.00041,0.793929 0.999142,0.795197 0.997874,0.796465 0.996606,0.797732 0.995339,0.799 0.994071,0.800268 0.992803,0.801535 0.991535,0.802803 0.989,0.804071 0.987728,0.805339 0.986461,0.806606 0.985193,0.807874 0.983925,0.809142 0.982657,0.810413 0.98139,0.811681 0.980122,0.812949 0.978854,0.814217 0.976319,0.815484 0.975051,0.816752 0.973783,0.81802 0.972516,0.819287 0.971248,0.820555 0.96998,0.821823 0.967445,0.823091 0.966173,0.824358 0.964906,0.825626 0.963638,0.826894 0.96237,0.828161 0.959835,0.829429 0.958567,0.830697 0.957299,0.831969 0.956031,0.833236 0.953496,0.834504 0.952228,0.835772 0.950961,0.837039 0.949693,0.838307 0.947157,0.839575 0.947157,1.51159 0.948425,1.51666 0.949693,1.52046 0.950961,1.52427 0.952228,1.5268 0.953496,1.52934 0.954764,1.53187 0.956031,1.53441 0.957299,1.53568 0.958567,1.53821 0.959835,1.53948 0.961102,1.54075 0.96237,1.54202 0.963638,1.54456 0.964906,1.54582 0.966173,1.54709 0.967445,1.54836 0.968713,1.54963 0.96998,1.55089 0.971248,1.55216 0.973783,1.55343 0.975051,1.5547 0.976319,1.55596 0.977587,1.55723 0.980122,1.5585 0.98139,1.55977 0.983925,1.56104 0.985193,1.5623 0.987728,1.56357 0.989,1.56484 0.991535,1.56611 0.994071,1.56738 0.996606,1.56865 0.999142,1.56991 1.00168,1.57118 1.00421,1.57245 1.00802,1.57372 1.01055,1.57498 1.01436,1.57625 1.01689,1.57752 1.0207,1.57879 1.0245,1.58006 1.02957,1.58132 1.03465,1.58259 1.03972,1.58386 1.04606,1.58513 1.05367,1.5864 1.57479,1.5864 1.57859,1.58513 1.58113,1.58386 1.58367,1.58259 1.58493,1.58132 1.58747,1.58006 1.58874,1.57879 1.59001,1.57752 1.59128,1.57625 1.59254,1.57498 1.59381,1.57372 1.59508,1.57245 1.59635,1.57118 1.59761,1.56991 1.59888,1.56865 1.60015,1.56738 1.60142,1.56611 1.60269,1.56484 1.60395,1.56357 1.60522,1.56104 1.60649,1.55977 1.60776,1.5585 1.60903,1.55596 1.6103,1.5547 1.61156,1.55216 1.61283,1.55089 1.6141,1.54836 1.61537,1.54709 1.61663,1.54456 1.6179,1.54202 1.61917,1.54075 1.62044,1.53821 1.6217,1.53568 1.62297,1.53314 1.62424,1.53061 1.62551,1.52807 1.62678,1.52554 1.62804,1.523 1.62931,1.52046 1.63058,1.51793 1.63185,1.51539 1.63312,1.51285 1.63439,1.51032 1.63565,1.50652 1.63692,1.50398 1.63819,1.50144 1.63946,1.49764 1.64072,1.4951 1.64199,1.4913 1.64326,1.48876 1.64453,1.48496 1.6458,1.48116 1.64706,1.47862 1.64833,1.47482 1.6496,1.47101 1.65087,1.46721 1.65214,1.46341 1.65341,1.45833 1.65467,1.45453 1.65594,1.45072 1.65721,1.44565 1.65848,1.44185 1.65974,1.43678 1.66101,1.43298 1.66228,1.4279 1.66355,1.4241 1.66481,1.41903 1.66608,1.41522 1.66735,1.41015 1.66862,1.40635 1.66989,1.40128 1.67115,1.39747 1.67243,1.3924 1.67369,1.38859 1.67496,1.38352 1.67623,1.37972 1.6775,1.37465 1.67876,1.37085 1.68003,1.36577 1.6813,1.3607 1.68257,1.3569 1.68383,1.35183 1.6851,1.34802 1.68637,1.34295 1.68764,1.33788 1.68891,1.33407 1.69017,1.329 1.69144,1.32393 1.69271,1.32013 1.69398,1.31506 1.69525,1.30998 1.69652,1.30491 1.69778,1.30111 1.69905,1.29604 1.70032,1.29096 1.70159,1.28589 1.70285,1.28082 1.70412,1.27702 1.70539,1.27194 1.70666,1.26687 1.70793,1.2618 1.70919,1.25673 1.71046,1.25166 1.71173,1.24659 1.713,1.24152 1.71427,1.23644 1.71554,1.23137 1.7168,1.2263 1.71807,1.22123 1.71934,1.21742 1.72061,1.21235 1.72187,1.20728 1.72314,1.20221 1.72441,1.19587 1.72568,1.1908 1.72694,1.18572 1.72821,1.18065 1.72948,1.17558 1.73075,1.16924 1.73202,1.16417 1.73328,1.1591 1.73455,1.15403 1.73582,1.14769 1.73709,1.14261 1.73836,1.13628 1.73963,1.1312 1.74089,1.12486 1.74216,1.11979 1.74343,1.11345 1.7447,1.10838 1.74596,1.10204 1.74723,1.0957 1.7485,1.09063 1.74977,1.08429 1.75104,1.07795 1.7523,1.07161 1.75357,1.06527 1.75484,1.05893 1.75611,1.05259 1.75737,1.04625 1.75865,1.03864 1.75991,1.0323 1.76118,1.02469 1.76245,1.01835 1.76372,1.01075 1.76498,1.00314 1.76625,0.994264 1.76752,0.986657 1.76879,0.97778 1.77006,0.968906 1.77132,0.95876 1.77259,0.948618 1.77386,0.934673 1.77386,0.908039 1.77259,0.899169 1.77132,0.894094 1.77006,0.889024 1.76879,0.88522 1.76752,0.882685 1.76625,0.88015 1.76498,0.877614 1.76372,0.875075 1.76245,0.872539 1.76118,0.871272 1.75991,0.868736 1.75865,0.867469 1.75737,0.866201 1.75611,0.864933 1.75484,0.863665 1.75357,0.862398 1.7523,0.86113 1.75104,0.859862 1.74977,0.858594 1.7485,0.857327 1.74723,0.856059 1.7447,0.854791 1.74343,0.853524 1.74089,0.852252 1.73963,0.850984 1.73709,0.849717 1.73455,0.848449 1.73075,0.847181 1.72821,0.845913 1.72441,0.844646 1.71934,0.843378 1.71427,0.84211 1.70666,0.840843 1.3616,0.840819 1.36304,0.835772 1.36431,0.830697 1.36558,0.825626 1.36685,0.820555 1.36811,0.816752 1.36938,0.810413 1.37065,0.805339 1.37192,0.800268 1.37319,0.795197 1.37446,0.790126 1.37572,0.785051 1.37699,0.778713 1.37826,0.773642 1.37953,0.767303 1.3808,0.760961 1.38206,0.75589 1.38333,0.749551 1.3846,0.743209 1.38587,0.735602 1.38713,0.729264 1.3884,0.721654 1.38967,0.715315 1.39094,0.706441 1.3922,0.698831 1.39347,0.689957 1.39474,0.681079 1.39601,0.670937 1.39728,0.660791 1.39855,0.648114 1.39981,0.634165 1.40108,0.61261 1.40108,0.553016 1.39981,0.535268 1.39855,0.522587 1.39728,0.513713 1.39601,0.504835 1.39474,0.498496 1.39347,0.492157 1.3922,0.485815 1.39094,0.480744 1.38967,0.475673 1.3884,0.470602 1.38713,0.465528 1.38587,0.461724 1.3846,0.457921 1.38333,0.454118 1.38206,0.450315 1.3808,0.44778 1.37953,0.443972 1.37826,0.441437 1.37699,0.437634 1.37572,0.435098 1.37446,0.432563 1.37319,0.430028 1.37192,0.427492 1.37065,0.424957 1.36938,0.422417 1.36811,0.419882 1.36685,0.417346 1.36558,0.414811 1.36431,0.412276 1.36304,0.411008 1.36178,0.408472 1.36051,0.407205 1.35924,0.404669 1.35797,0.403402 1.3567,0.400862 1.35544,0.399594 1.35417,0.397059 1.3529,0.395791 1.35163,0.394524 1.35036,0.393256 1.34909,0.39072 1.34783,0.389453 1.34656,0.388185 1.34529,0.386917 1.34402,0.38565 1.34276,0.384382 1.34149,0.383114 1.34022,0.380575 1.33895,0.379307 1.33769,0.378039 1.33642,0.376772 1.33515,0.375504 1.33261,0.374236 1.33135,0.372969 1.33007,0.371701 1.32881,0.370433 1.32754,0.369165 1.32627,0.367898 1.32374,0.36663 1.32247,0.365362 1.3212,0.364094 1.31867,0.362827 1.3174,0.361559 1.31486,0.360291 1.31359,0.35902 1.31106,0.357752 1.30979,0.356484 1.30725,0.355217 1.30472,0.353949 1.30218,0.352681 1.29965,0.351413 1.29711,0.350146 1.29331,0.348878 1.29077,0.34761 1.28696,0.346343 1.28316,0.345075 1.27809,0.343807 1.25273,0.343807 "/>
   <polygon id="_106393136" class="fil0 str0" points="0.599736,0.84211 0.595933,0.843378 0.593398,0.844646 0.590862,0.845913 0.589594,0.847181 0.587059,0.848449 0.585791,0.849717 0.584524,0.850984 0.583256,0.852252 0.581988,0.853524 0.580717,0.854791 0.579449,0.857327 0.578181,0.858594 0.576913,0.86113 0.575646,0.863665 0.574378,0.866201 0.57311,0.870004 0.571843,0.876343 0.571843,0.892835 0.57311,0.913114 0.574378,0.933402 0.575646,0.953689 0.576913,0.975244 0.578181,0.995531 0.579449,1.01582 0.580717,1.03611 0.581988,1.05766 0.583256,1.07795 0.584524,1.09824 0.585791,1.11852 0.587059,1.13881 0.588327,1.16037 0.589594,1.18065 0.590862,1.20094 0.59213,1.22123 0.593398,1.24278 0.594665,1.26307 0.595933,1.28335 0.597201,1.30364 0.598469,1.32393 0.599736,1.34548 0.601004,1.36577 0.602276,1.38606 0.603543,1.40635 0.604811,1.4279 0.606079,1.44819 0.607346,1.46848 0.608614,1.48876 0.609882,1.50905 0.61115,1.53061 0.612417,1.55089 0.613685,1.5585 0.614953,1.5623 0.61622,1.56484 0.617488,1.56738 0.618756,1.56991 0.620024,1.57118 0.621291,1.57245 0.622559,1.57372 0.623831,1.57498 0.625098,1.57625 0.626366,1.57752 0.627634,1.57879 0.630169,1.58006 0.631437,1.58132 0.633972,1.58259 0.637776,1.58386 0.640311,1.58513 0.645386,1.5864 0.839382,1.5864 0.843185,1.58513 0.846988,1.58386 0.848256,1.58259 0.850791,1.58132 0.852059,1.58006 0.854594,1.57879 0.855862,1.57625 0.85713,1.57498 0.858398,1.57372 0.859669,1.57118 0.860937,1.56865 0.862205,1.56484 0.862205,0.88015 0.860937,0.873807 0.859669,0.871272 0.858398,0.867469 0.85713,0.864933 0.855862,0.863665 0.854594,0.86113 0.853327,0.859862 0.852059,0.857327 0.850791,0.856059 0.849524,0.854791 0.848256,0.853524 0.84572,0.852252 0.844453,0.850984 0.843185,0.849717 0.84065,0.848449 0.838114,0.847181 0.835575,0.845913 0.833039,0.844646 0.829236,0.843378 0.824165,0.84211 0.816555,0.840843 0.607346,0.840843 "/>
  </g>
  <path class="fil1 str0" d="M2.20445 0.726795l0.133894 0.467945 0.00241732 0 0.134295 -0.467945 0.103106 0 0 0.573472 -0.0790433 0 0 -0.220193 0.00698819 -0.220598 -0.00228346 -0.000401575 -0.137925 0.441193 -0.0526929 0 -0.137524 -0.440791 -0.00228346 0.000405512 0.0073937 0.220193 0 0.220193 -0.0791772 0 0 -0.573472 0.102835 0zm0.577287 0.426543l0.00591732 0.0279606 0.00241732 0 0.0818661 -0.307169 0.0871102 0 -0.14935 0.492276c-0.00994488,0.0294409 -0.0233898,0.0544449 -0.0404606,0.0750118 -0.0170748,0.0205669 -0.0416732,0.0309173 -0.0736693,0.0309173 -0.00658661,0 -0.0135748,-0.000669291 -0.0211024,-0.00214961 -0.0075315,-0.00148031 -0.0149252,-0.00309055 -0.0221811,-0.00497244l0.00860236 -0.0591496c0.00295669,0.00053937 0.00685433,0.0010748 0.0118307,0.00161417 0.00497244,0.000535433 0.00887008,0.000807087 0.0118268,0.000807087 0.0154606,0 0.0276929,-0.00659055 0.0368346,-0.0198976 0.00900787,-0.0131732 0.0159961,-0.0289016 0.0211063,-0.0470512l0.0141142 -0.0432835 -0.131606 -0.424122 0.0867087 0 0.0700354 0.279209zm0.497114 0.0863031l0.223689 0 0 0.060626 -0.303673 0 0 -0.573472 0.0799843 0 0 0.512846zm0.354004 0.060626l-0.0799843 0 0 -0.426138 0.0799843 0 0 0.426138zm0 -0.537984l-0.0799843 0 0 -0.0763543 0.0799843 0 0 0.0763543zm0.194972 0.342661l-0.033878 0 0 0.195323 -0.0795787 0 0 -0.614339 0.0795787 0 0 0.357984 0.0326693 0 0.0940984 -0.169783 0.0932953 0 -0.123677 0.192232 0.141421 0.233906 -0.0928898 0 -0.111039 -0.195323zm0.387339 0.203657c-0.0506811,0 -0.0911417,-0.0176102 -0.121657,-0.0528307 -0.0303819,-0.0350866 -0.0457047,-0.080252 -0.0457047,-0.135098l0 -0.0622441c0,-0.0556535 0.0149213,-0.101626 0.0447638,-0.137921 0.0297087,-0.0361614 0.0676181,-0.054311 0.113591,-0.054311 0.0482598,0 0.0854961,0.0165354 0.111441,0.0494724 0.0259449,0.0329331 0.0389843,0.0772953 0.0389843,0.132949l0 0.0551142 -0.229197 0 0 0.0169409c0,0.0368307 0.00806299,0.0672126 0.0241969,0.0912756 0.0161299,0.024063 0.0391181,0.0360276 0.0686929,0.0360276 0.0221772,0 0.041,-0.00349606 0.0567283,-0.0104882 0.0158622,-0.00685433 0.0307835,-0.0170709 0.0448976,-0.0305157l0.0252717 0.0496063c-0.0134409,0.0153228 -0.0314567,0.0276929 -0.0540394,0.0375039 -0.0225827,0.0096811 -0.0485276,0.0145197 -0.0779685,0.0145197zm-0.00900787 -0.380969c-0.023122,0 -0.0416732,0.0112913 -0.0555157,0.0337402 -0.0139843,0.0224488 -0.0216457,0.050815 -0.0232559,0.0852283l0.15002 0 0 -0.0161339c0,-0.0302441 -0.00604724,-0.0548465 -0.0181457,-0.0740669 -0.0119646,-0.0192244 -0.0297087,-0.0287677 -0.0531024,-0.0287677zm0.404012 0.265898c0,-0.0165354 -0.00537795,-0.0305157 -0.0162677,-0.0419409 -0.0108858,-0.0114252 -0.0314528,-0.0239291 -0.0617008,-0.0376417 -0.0438228,-0.0170709 -0.0763543,-0.0352205 -0.0974606,-0.0545787 -0.0211063,-0.0192205 -0.0317244,-0.0442244 -0.0317244,-0.0750079 0,-0.0328031 0.0130394,-0.0607638 0.0388504,-0.083752 0.0258071,-0.0229843 0.0598189,-0.0344134 0.10176,-0.0344134 0.0438268,0 0.0787756,0.0123701 0.104854,0.0372362 0.0259449,0.0248701 0.0384488,0.0557913 0.037374,0.0927559l-0.000807087 0.00242126 -0.0767598 0c0,-0.0202992 -0.00577953,-0.0376417 -0.0172087,-0.0521575 -0.0114252,-0.0146535 -0.0271535,-0.0219134 -0.0474528,-0.0219134 -0.0198937,0 -0.0354882,0.00564567 -0.0466457,0.016937 -0.0111575,0.0112953 -0.0166693,0.0246024 -0.0166693,0.0397913 0,0.0162677 0.00470472,0.0291732 0.0143858,0.0385827 0.00954331,0.00940945 0.0302441,0.0217756 0.0619685,0.0369685 0.0446299,0.0159961 0.0778346,0.0342795 0.0994803,0.0545787 0.0216417,0.0204331 0.0323937,0.0465118 0.0323937,0.0782362 0,0.0352205 -0.0133071,0.0638543 -0.0400591,0.0858976 -0.0268858,0.0220472 -0.0619685,0.0330709 -0.105661,0.0330709 -0.0469134,0 -0.0840157,-0.0133071 -0.111035,-0.0399252 -0.0270197,-0.026752 -0.0399252,-0.057937 -0.0385827,-0.0936969l0.000807087 -0.00228346 0.0744724 0c0.00107874,0.0275551 0.0086063,0.0474528 0.0228543,0.059685 0.0141142,0.0122323 0.0317244,0.0182835 0.0526969,0.0182835 0.0208346,0 0.0369685,-0.00537795 0.0486614,-0.016 0.0116969,-0.0106181 0.0174764,-0.0243307 0.0174764,-0.0411339z"/>
  <g>
   <path class="fil1" d="M4.91694 0.167807l0 0 -4.53388 0 0 -0.0618661 4.53388 0 0 0.0618661zm0.263992 0.202126l-0.0618661 0 0 0 -0.000185039 -0.010374 -0.000783465 -0.0102205 -0.00136614 -0.0101811 -0.00169685 -0.00987402 -0.00225197 -0.00967717 -0.00279134 -0.00958661 -0.00319291 -0.00936614 -0.00358661 -0.00912205 -0.00407874 -0.00898425 -0.00443701 -0.00872047 -0.00490551 -0.0084252 -0.00535433 -0.00825197 -0.00554331 -0.00793307 -0.00609055 -0.00760236 -0.00637402 -0.00738189 -0.00675984 -0.00701969 -0.00701969 -0.00675984 -0.00738189 -0.00637795 -0.00760236 -0.00608661 -0.00793307 -0.00566929 -0.00824803 -0.00523228 -0.00842913 -0.00490551 -0.00872047 -0.00444094 -0.00898425 -0.0040748 -0.00912205 -0.00358661 -0.00936614 -0.00319685 -0.00958661 -0.00279134 -0.0096811 -0.00225197 -0.00987402 -0.00169685 -0.0101811 -0.00136614 -0.0102244 -0.000783465 -0.010374 -0.000185039 0 -0.0618661 0.0135157 0.00042126 0.0133661 0.00102756 0.0130787 0.00161024 0.0130157 0.00242126 0.0128228 0.00297638 0.0124921 0.00351575 0.0122638 0.00416535 0.0120197 0.00479134 0.0116457 0.0052874 0.011374 0.00588976 0.0110906 0.00635433 0.0106654 0.0069252 0.0103504 0.0073622 0.0100197 0.00777953 0.00955512 0.00830709 0.00919291 0.00869685 0.00869685 0.00919291 0.00830315 0.00955512 0.00778346 0.0100197 0.00748031 0.0103504 0.00680315 0.0106693 0.00635433 0.0110866 0.00588583 0.011374 0.00529134 0.0116457 0.00479134 0.0120197 0.00416142 0.0122638 0.00351575 0.0124921 0.00297638 0.0128189 0.00242126 0.0130157 0.00161024 0.0130787 0.00102756 0.0133622 0.00042126 0.0135157 0 0zm-0.0618661 1.26013l0 0 0 -1.26013 0.0618661 0 0 1.26013 -0.0618661 0zm-0.202126 0.263992l0 -0.0618661 0 0 0.010374 -0.000185039 0.0102205 -0.000783465 0.0101811 -0.00136614 0.00987402 -0.00169685 0.00967717 -0.00225197 0.00958661 -0.00279134 0.00936614 -0.00319685 0.00912205 -0.00358661 0.00898425 -0.0040748 0.00872047 -0.00444094 0.0084252 -0.00490551 0.00825197 -0.00523228 0.00793307 -0.00566929 0.00760236 -0.00608661 0.00738189 -0.00637795 0.00701969 -0.00675984 0.00675984 -0.00701969 0.00637795 -0.00738189 0.00608661 -0.00760236 0.00566929 -0.00793307 0.00523228 -0.00825197 0.00490551 -0.0084252 0.00444094 -0.00872047 0.0040748 -0.00898425 0.00358661 -0.00912205 0.00319685 -0.00936614 0.00279134 -0.00958661 0.00225197 -0.00967717 0.00169685 -0.00987402 0.00136614 -0.0101811 0.000783465 -0.0102205 0.000185039 -0.010374 0.0618661 0 -0.00042126 0.0135157 -0.00102756 0.0133622 -0.00161024 0.0130787 -0.00242126 0.0130157 -0.00297638 0.0128189 -0.00351575 0.0124921 -0.00416535 0.0122638 -0.00479134 0.0120197 -0.0052874 0.0116457 -0.00588976 0.011374 -0.00635433 0.0110866 -0.0069252 0.0106693 -0.0073622 0.0103504 -0.00777953 0.0100197 -0.00830709 0.00955512 -0.00869685 0.00919291 -0.00919291 0.00869685 -0.00955512 0.00830709 -0.0100197 0.00777953 -0.0103504 0.0073622 -0.0106693 0.0069252 -0.0110866 0.00635433 -0.011374 0.00588976 -0.0116457 0.0052874 -0.0120197 0.00479134 -0.0122638 0.00416535 -0.0124921 0.00351575 -0.0128189 0.00297638 -0.0130157 0.00242126 -0.0130787 0.00161024 -0.0133622 0.00102756 -0.0135157 0.00042126 0 0zm-4.53388 -0.0618661l0 0 4.53388 0 0 0.0618661 -4.53388 0 0 -0.0618661zm-0.263992 -0.202126l0.0618661 0 0 0 0.000185039 0.010374 0.000783465 0.0102244 0.00136614 0.0101811 0.00169685 0.00987795 0.00225197 0.00967717 0.00279134 0.00958661 0.00319685 0.00936614 0.00358661 0.00912205 0.0040748 0.00898819 0.00444094 0.00871654 0.00490551 0.00842913 0.00523228 0.00824803 0.00566929 0.00793701 0.00608661 0.00760236 0.00637795 0.00737795 0.00675984 0.0071378 0.00701969 0.00664567 0.00738189 0.00637402 0.00760236 0.00608661 0.00793307 0.00566929 0.00825197 0.00523228 0.0084252 0.00490157 0.00872047 0.00444094 0.00898425 0.0040748 0.00912205 0.00358661 0.00936614 0.00319291 0.00958661 0.00279134 0.00967717 0.00225197 0.00987402 0.00169685 0.0101811 0.00136614 0.0102205 0.000783465 0.010374 0.000185039 0 0.0618661 -0.0135157 -0.00042126 -0.0133622 -0.00102756 -0.0130787 -0.00161024 -0.0130157 -0.00242126 -0.0128189 -0.00297638 -0.0124921 -0.00351575 -0.0122638 -0.00416142 -0.0120197 -0.00479134 -0.0116457 -0.0052874 -0.011374 -0.00588976 -0.0110866 -0.00635039 -0.0106693 -0.0069252 -0.0103504 -0.0073622 -0.0100197 -0.00777953 -0.00955512 -0.00830315 -0.00919291 -0.0088189 -0.00869685 -0.0090748 -0.00830709 -0.00955118 -0.00777953 -0.0100197 -0.0073622 -0.0103543 -0.0069252 -0.0106654 -0.00635433 -0.0110906 -0.00588976 -0.0113701 -0.0052874 -0.0116496 -0.00479134 -0.0120197 -0.00416535 -0.0122638 -0.00351575 -0.0124921 -0.00297638 -0.0128189 -0.00242126 -0.0130197 -0.00161024 -0.0130787 -0.00102756 -0.0133661 -0.00042126 -0.0135157 0 0zm0.0618661 -1.26013l0 0 0 1.26013 -0.0618661 0 0 -1.26013 0.0618661 0zm0.202126 -0.263992l0 0.0618661 0 0 -0.010374 0.000185039 -0.0102244 0.000783465 -0.0101811 0.00136614 -0.00987402 0.00169685 -0.0096811 0.00225197 -0.00958661 0.00279134 -0.00936614 0.00319291 -0.00912205 0.00358661 -0.00898425 0.00407874 -0.00872047 0.00443701 -0.00842913 0.00490551 -0.00824803 0.00523228 -0.00793307 0.00566535 -0.00760236 0.00609055 -0.00738189 0.00637402 -0.00701969 0.00675984 -0.00675984 0.00701969 -0.00637402 0.00738189 -0.00609055 0.00760236 -0.00566535 0.00793307 -0.00523228 0.00824803 -0.00490551 0.00842913 -0.00443701 0.00872047 -0.00407874 0.00898425 -0.00358661 0.00912205 -0.00319291 0.00936614 -0.00279134 0.00958661 -0.00225197 0.0096811 -0.00169685 0.00987402 -0.00136614 0.0101811 -0.000783465 0.0102244 -0.000185039 0.010374 -0.0618661 0 0.00042126 -0.0135157 0.00102756 -0.0133661 0.00161024 -0.0130787 0.00242126 -0.0130157 0.00297638 -0.0128228 0.00351575 -0.0124921 0.00416142 -0.0122638 0.00479134 -0.0120197 0.00529134 -0.0116457 0.00588583 -0.011374 0.00635433 -0.0110906 0.0069252 -0.0106654 0.00735827 -0.0103504 0.00778346 -0.0100197 0.00830315 -0.00955512 0.00869685 -0.00919291 0.00919291 -0.00869685 0.00955512 -0.00830315 0.0100197 -0.00778346 0.0103504 -0.00735827 0.0106654 -0.0069252 0.0110906 -0.00635433 0.011374 -0.00588583 0.0116457 -0.00529134 0.0120197 -0.00479134 0.0122638 -0.00416142 0.0124921 -0.00351575 0.0128228 -0.00297638 0.0130157 -0.00242126 0.0130787 -0.00161024 0.0133661 -0.00102756 0.0135157 -0.00042126 0 0z"/>
  </g>
 </g>
</svg>
