<?xml version="1.0" encoding="UTF-8"?>
<!DOCTYPE svg PUBLIC "-//W3C//DTD SVG 1.1//EN" "http://www.w3.org/Graphics/SVG/1.1/DTD/svg11.dtd">
<!-- Creator: CorelDRAW -->
<svg xmlns="http://www.w3.org/2000/svg" xml:space="preserve" width="210mm" height="210mm" style="shape-rendering:geometricPrecision; text-rendering:geometricPrecision; image-rendering:optimizeQuality; fill-rule:evenodd; clip-rule:evenodd"
viewBox="0 0 210 210"
 xmlns:xlink="http://www.w3.org/1999/xlink">
 <defs>
  <style type="text/css">
   <![CDATA[
    .fil1 {fill:#F3F4F4}
    .fil0 {fill:#AFB4BB}
   ]]>
  </style>
 </defs>
 <g id="Layer_x0020_1">
  <metadata id="CorelCorpID_0Corel-Layer"/>
  <path class="fil0" d="M146.576 33.217l0 2.9169c0,5.1039 2.8115,9.056 7.6841,9.1678 -1.295,-1.1598 -3.2354,-2.5293 -3.2354,-5.0006l0 -2.0836c0,-4.7806 3.079,-15.4184 7.2797,-15.4184l0.4044 0c3.5789,0 6.4708,11.1286 6.4708,15.8351l0 1.2502c0,2.8558 -1.3559,4.0962 -2.831,5.4173 4.2277,-0.3625 7.6842,-4.1157 7.6842,-8.751l0 -6.2507c0,-5.9791 -5.9522,-22.9194 -10.5151,-22.9194l-1.2133 0c-7.4415,0 -11.7284,16.9741 -11.7284,25.8364z"/>
  <path class="fil0" d="M39.8078 34.0505c0,6.2098 1.8637,11.1177 7.6841,11.2512 -1.1785,-1.0554 -2.831,-1.9496 -2.831,-4.1672l0 -6.2506c0,-3.173 3.3562,-12.0848 6.8753,-12.0848l0.4044 0c3.3285,0 6.4708,10.0134 6.4708,14.1683l0 2.917c0,2.9693 -1.3078,4.0532 -2.831,5.4173 4.9385,-0.1133 7.6842,-5.1659 7.6842,-10.4178 0,-6.3961 -1.2494,-11.5888 -2.7666,-16.3183 -0.9669,-3.0141 -4.7242,-11.185 -7.7485,-11.185l-2.0222 0c-6.8111,0 -10.9195,18.0943 -10.9195,26.6699z"/>
  <path class="fil0" d="M93.1921 29.4666l0 7.5008c0,4.4717 3.3044,8.2338 7.6841,8.3343 -1.8934,-1.6957 -2.831,-2.1228 -2.831,-5.834l0 -1.2502c0,-5.5777 2.2496,-15.4184 6.8753,-15.4184l0.4044 0c4.0667,0 6.4708,11.4079 6.4708,16.6686l0 0.4167c0,2.8558 -1.3558,4.0962 -2.831,5.4173 5.2182,-0.4474 7.6842,-5.0147 7.6842,-10.8345l0 -1.2502c0,-7.5098 -5.2019,-25.8364 -10.5151,-25.8364l-0.4045 0c-5.4232,0 -7.2212,4.5005 -8.9001,8.3315 -0.8859,2.0218 -3.6371,11.1903 -3.6371,13.7545z"/>
  <path class="fil0" d="M146.576 54.8862l0 45.0052c0,1.4154 3.4794,5.0005 4.8531,5.0005l12.5372 0c3.5199,0 6.0665,-3.4676 6.0665,-7.5008l0 -41.2548c0,-2.7033 -3.1798,-6.2507 -5.662,-6.2507l-12.9417 0c-1.3737,0 -4.8531,3.5851 -4.8531,5.0006z"/>
  <path class="fil0" d="M39.8078 57.3865l0 42.5049c0,2.1238 3.6209,5.0005 6.4708,5.0005l10.9196 0c3.2796,0 6.0664,-3.4654 6.0664,-7.0841l0 -40.0046c0,-5.0542 -2.3202,-7.9176 -7.2797,-7.9176l-10.1107 0c-3.5703,0 -6.0664,3.38 -6.0664,7.5009z"/>
  <path class="fil0" d="M93.1921 56.553l0 41.6715c0,3.0113 2.5292,6.6674 5.2575,6.6674l12.5373 0c2.6094,0 5.662,-3.5656 5.662,-6.2506l0 -42.505c0,-3.2118 -3.2933,-6.2507 -6.4709,-6.2507l-12.9416 0c-0.7629,1.9475 -4.0443,1.6988 -4.0443,6.6674z"/>
  <path class="fil1" d="M5.4315 143.646l1.6105 0.4738 -0.9578 1.0427 1.378 -0.2435 -0.0663 1.2273 0.4622 0 0 1.2501c3.7243,-2.5697 11.8798,-5.0006 18.1992,-5.0006l3.2354 0c15.2307,0 26.2405,14.1684 46.5091,14.1684l7.2796 0c6.9954,0 16.1909,-4.6132 21.0306,-7.0837 4.1794,-2.1335 14.5129,-7.9181 20.2209,-7.9181l6.0664 0c7.4298,0 19.1053,5.6161 25.0171,7.9767 8.5162,3.4004 14.6134,6.6084 26.7496,6.6084l1.242 0.1956 12.4505 -2.0251 7.7421 -2.7544 0.4798 -1.2203 -2.5058 0.3669 0.0038 -1.2302 -1.6177 0 0.4045 -1.6668c-5.7951,1.3911 -10.3852,3.3337 -17.7948,3.3337l-3.6398 0c-8.8109,0 -17.6146,-4.3967 -24.4968,-6.846 -6.0827,-2.1647 -15.9719,-7.7391 -23.6301,-7.7391l-7.2796 0c-5.0368,0 -17.028,6.6457 -21.0362,8.7449 -6.5948,3.4541 -13.4974,6.2569 -23.4507,6.2569l-6.4708 0c-5.7507,0 -18.0807,-4.7702 -22.3854,-6.9379 -6.7855,-3.4168 -12.5597,-7.2305 -22.5059,-7.2305l-4.8532 0c-3.23,0 -6.8293,1.7099 -9.3843,2.4155 -3.3389,0.9219 -5.883,3.2512 -8.0061,3.8353z"/>
  <path class="fil0" d="M5.4315 143.646c2.1231,-0.5841 4.6672,-2.9134 8.0061,-3.8353 2.555,-0.7056 6.1543,-2.4155 9.3843,-2.4155l4.8532 0c9.9462,0 15.7204,3.8137 22.5059,7.2305 4.3047,2.1677 16.6347,6.9379 22.3854,6.9379l6.4708 0c9.9533,0 16.8559,-2.8028 23.4507,-6.2569 4.0082,-2.0992 15.9994,-8.7449 21.0362,-8.7449l7.2796 0c7.6582,0 17.5474,5.5744 23.6301,7.7391 6.8822,2.4493 15.6859,6.846 24.4968,6.846l3.6398 0c7.4096,0 11.9997,-1.9426 17.7948,-3.3337l3.2151 -1.3127 0.0203 -23.2735c0,-6.7905 -6.5991,-14.5851 -12.5372,-14.5851l-173.095 0c-5.446,0 -11.0847,6.6377 -12.1109,11.6905 -1.1323,5.5747 -0.4263,16.6773 -0.4263,23.3136z"/>
  <path class="fil1" d="M10.6891 175.733l2.0185 0.4317 0.0037 3.7355c2.5269,-0.6066 5.8438,-1.9289 8.9777,-2.4175 3.6166,-0.5638 6.6938,-1.333 10.4347,-1.333l5.679 -0.1325 8.0715 0.966 1.2133 0 0 0.8334c3.534,0 14.6066,3.532 18.1506,4.634 5.6547,1.7583 11.6555,3.7003 19.0567,3.7003l1.6176 0c12.7477,0 22.6943,-9.5844 37.2073,-9.5844l1.2132 0c11.9249,0 23.0962,11.668 35.994,11.668l6.8753 0c7.866,0 30.2529,-6.6244 34.7806,-9.5845l-5.6937 0.5874 -0.3018 -1.4399 0.7379 -1.6478c-2.0445,0.1754 -2.8297,1.2502 -3.6398,1.2502l-1.6176 0 0 0.8334 -1.6178 0c-0.363,0 -9.1606,2.9342 -10.6065,3.2395 -3.2528,0.687 -8.5307,1.7611 -12.0413,1.7611l-5.2576 0c-15.2508,0 -25.2636,-11.668 -38.0161,-11.668l-2.4266 0c-12.4556,0 -22.7935,9.5844 -36.3983,9.5844l-1.6178 0c-4.8946,0 -20.1638,-3.6124 -23.5878,-5.282 -4.2177,-2.0568 -18.1222,-4.7191 -24.5389,-4.7191l-4.0442 0c-4.6993,0 -18.2457,2.8797 -20.6258,4.5838z"/>
  <path class="fil0" d="M7.8581 147.397c-1.012,0.5519 -2.4266,0.7343 -2.4266,2.0836l0 28.3366 5.2576 -2.0836c2.3801,-1.7041 15.9265,-4.5838 20.6258,-4.5838l4.0442 0c6.4167,0 20.3212,2.6623 24.5389,4.7191 3.424,1.6696 18.6932,5.282 23.5878,5.282l1.6178 0c13.6048,0 23.9427,-9.5844 36.3983,-9.5844l2.4266 0c12.7525,0 22.7653,11.668 38.0161,11.668l5.2576 0c3.5106,0 8.7885,-1.0741 12.0413,-1.7611 1.4459,-0.3053 10.2435,-3.2395 10.6065,-3.2395l1.6178 0 0 -0.8334 1.6176 0c0.8101,0 1.5953,-1.0748 3.6398,-1.2502l6.8464 -2.9904 0.029 -21.5957 -7.7421 2.7544 -12.4505 2.0251 -1.242 -0.1956c-12.1362,0 -18.2334,-3.208 -26.7496,-6.6084 -5.9118,-2.3606 -17.5873,-7.9767 -25.0171,-7.9767l-6.0664 0c-5.708,0 -16.0415,5.7846 -20.2209,7.9181 -4.8397,2.4705 -14.0352,7.0837 -21.0306,7.0837l-7.2796 0c-20.2686,0 -31.2784,-14.1684 -46.5091,-14.1684l-3.2354 0c-6.3194,0 -14.4749,2.4309 -18.1992,5.0006z"/>
  <path class="fil0" d="M12.7113 179.901l-7.2441 3.0042 -0.0357 10.3307c0,6.5447 6.5987,14.585 12.1328,14.585l173.904 0c5.5486,0 12.1328,-8.1572 12.1328,-14.585l0 -15.0018 -1.6178 0.4167c-4.5277,2.9601 -26.9146,9.5845 -34.7806,9.5845l-6.8753 0c-12.8978,0 -24.0691,-11.668 -35.994,-11.668l-1.2132 0c-14.513,0 -24.4596,9.5844 -37.2073,9.5844l-1.6176 0c-7.4012,0 -13.402,-1.942 -19.0567,-3.7003 -3.544,-1.102 -14.6166,-4.634 -18.1506,-4.634l0 -0.8334 -1.2133 0 -8.0715 -0.966 -5.679 0.1325c-3.7409,0 -6.8181,0.7692 -10.4347,1.333 -3.1339,0.4886 -6.4508,1.8109 -8.9777,2.4175z"/>
 </g>
</svg>
