<?xml version="1.0" encoding="UTF-8"?>
<!DOCTYPE svg PUBLIC "-//W3C//DTD SVG 1.1//EN" "http://www.w3.org/Graphics/SVG/1.1/DTD/svg11.dtd">
<!-- Creator: CorelDRAW -->
<svg xmlns="http://www.w3.org/2000/svg" xml:space="preserve" width="3.5in" height="3.5in" style="shape-rendering:geometricPrecision; text-rendering:geometricPrecision; image-rendering:optimizeQuality; fill-rule:evenodd; clip-rule:evenodd"
viewBox="0 0 3.5 3.5"
 xmlns:xlink="http://www.w3.org/1999/xlink">
 <defs>
  <style type="text/css">
   <![CDATA[
    .str0 {stroke:#DEDEDD;stroke-width:0.0892913}
    .str2 {stroke:#1F1A17;stroke-width:0.0938504;stroke-linecap:round;stroke-linejoin:round}
    .str1 {stroke:#1F1A17;stroke-width:0.112622;stroke-linecap:round;stroke-linejoin:round}
    .fil1 {fill:none}
    .fil2 {fill:#1F1A17}
    .fil0 {fill:white}
   ]]>
  </style>
 </defs>
 <g id="Layer_x0020_1">
  <metadata id="CorelCorpID_0Corel-Layer"/>
  <path class="fil0 str0" d="M1.75 0.25c0.828287,0 1.5,0.671713 1.5,1.5 0,0.828287 -0.671713,1.5 -1.5,1.5 -0.828287,0 -1.5,-0.671713 -1.5,-1.5 0,-0.828287 0.671713,-1.5 1.5,-1.5z"/>
  <path class="fil1 str1" d="M1.07154 2.02134l0.0883071 -0.504618c0,0 -0.273335,-0.142972 -0.164,-0.433126 0.109331,-0.290154 0.391075,-0.197642 0.391075,-0.197642"/>
  <path class="fil1 str1" d="M1.34067 1.0079c0,0 0.0504606,-0.306972 0.382665,-0.319587 0.332205,-0.0126181 0.395283,0.315382 0.395283,0.315382"/>
  <path class="fil1 str1" d="M2.09338 0.911185c0,0 0.344819,-0.0630787 0.391075,0.214461 0.0462559,0.277539 -0.147177,0.38687 -0.147177,0.38687l0.0841024 0.525642"/>
  <path class="fil1 str1" d="M1.122 2.42503c0,0 -0.109346,-0.0357402 -0.145079,-0.115638 -0.0357362,-0.0798976 -0.052563,-0.161898 -0.0399488,-0.199744 0.0126181,-0.0378465 0.0756929,-0.0967205 0.159795,-0.0630787 0,0 0.311181,-0.105126 0.647591,-0.0967165 0.336409,0.00840945 0.685433,0.0883071 0.685433,0.0883071 0,0 0.0694134,-0.0231142 0.121933,0.0399646 0.0525157,0.0630748 -0.0409882,0.26598 -0.0924961,0.296445 -0.0515079,0.0304646 -0.0851535,0.029437 -0.0851535,0.029437 0,0 -0.162949,0.407894 -0.596079,0.407894 -0.433126,0 -0.655996,-0.38687 -0.655996,-0.38687z"/>
  <path class="fil2" d="M1.4819 2.15426c0.0510315,0 0.0924252,0.0413937 0.0924252,0.0924291 0,0.0510315 -0.0413937,0.0924213 -0.0924252,0.0924213 -0.0510354,0 -0.0924213,-0.0413898 -0.0924213,-0.0924213 0,-0.0510354 0.0413858,-0.0924291 0.0924213,-0.0924291z"/>
  <path class="fil2" d="M2.00892 2.15027c0.0510354,0 0.0924252,0.0413898 0.0924252,0.0924213 0,0.0510354 -0.0413898,0.0924213 -0.0924252,0.0924213 -0.0510354,0 -0.0924213,-0.0413858 -0.0924213,-0.0924213 0,-0.0510315 0.0413858,-0.0924213 0.0924213,-0.0924213z"/>
  <path class="fil2" d="M1.35587 2.51345c0,0 0.140736,-0.0441102 0.182744,-0.0798189 0.0420118,-0.0357087 0.107126,-0.0315079 0.107126,-0.0315079 0,0 0.0399134,0.0672165 0.100827,0.0672165 0.0609173,0 0.0924252,-0.0735197 0.0924252,-0.0735197 0,0 0.0651142,0.00210236 0.136531,0.0462126 0.0714173,0.0441102 0.168043,0.0651181 0.168043,0.0651181 0,0 -0.0924252,0.107126 -0.174343,0.11763 -0.0819213,0.0105 -0.203752,-0.00420472 -0.220555,-0.0336102 0,0 -0.102929,0.048311 -0.157539,0.0462126 -0.0546142,-0.00210236 -0.168043,-0.0273071 -0.23526,-0.123933z"/>
  <line class="fil1 str2" x1="1.97984" y1="1.44103" x2="2.05974" y2= "1.81108" />
  <line class="fil1 str1" x1="1.71492" y1="1.42421" x2="1.71913" y2= "1.78165" />
  <line class="fil1 str1" x1="1.4542" y1="1.46206" x2="1.40374" y2= "1.79846" />
 </g>
</svg>
