<?xml version="1.0" encoding="UTF-8"?>
<!DOCTYPE svg PUBLIC "-//W3C//DTD SVG 1.1//EN" "http://www.w3.org/Graphics/SVG/1.1/DTD/svg11.dtd">
<!-- Creator: CorelDRAW -->
<svg xmlns="http://www.w3.org/2000/svg" xml:space="preserve" width="8.5in" height="8.5in" style="shape-rendering:geometricPrecision; text-rendering:geometricPrecision; image-rendering:optimizeQuality; fill-rule:evenodd; clip-rule:evenodd"
viewBox="0 0 8.5 8.5"
 xmlns:xlink="http://www.w3.org/1999/xlink">
 <defs>
  <style type="text/css">
   <![CDATA[
    .fil0 {fill:black}
   ]]>
  </style>
 </defs>
 <g id="Layer_x0020_1">
  <metadata id="CorelCorpID_0Corel-Layer"/>
  <g id="_101372480">
   <polygon id="_100683424" class="fil0" points="3.77678,2.92644 4.67018,2.92644 4.67018,1.8345 3.77678,1.8345 "/>
   <polygon id="_89064160" class="fil0" points="1.72526,2.26467 1.65909,2.29775 1.59291,2.33083 1.55983,2.36393 1.52673,2.39702 1.49365,2.4301 1.46056,2.4632 1.42746,2.49628 1.39438,2.52937 1.36129,2.59555 1.3282,2.66172 1.29511,2.86026 1.29511,5.80517 1.3282,5.97061 1.36129,6.06988 1.39438,6.10297 1.42746,6.16915 1.46056,6.20224 1.49365,6.23533 1.52673,6.26841 1.55983,6.30151 1.626,6.33459 1.69218,6.36768 1.79144,6.40078 6.82096,6.40078 6.92022,6.36768 6.98641,6.33459 7.05257,6.30151 7.08567,6.26841 7.11876,6.23533 7.15184,6.20224 7.18494,6.16915 7.21802,6.10297 7.25111,6.06988 7.2842,5.97061 7.31729,5.77209 7.31729,2.86026 7.2842,2.66172 7.25111,2.59555 7.21802,2.52937 7.18494,2.49628 7.15184,2.4632 7.11876,2.4301 7.08567,2.39702 7.05257,2.36393 7.01949,2.33083 6.95331,2.29775 6.88714,2.26467 6.72169,2.23157 4.76945,2.23157 4.76945,2.66172 6.75478,2.69482 6.78787,2.7279 6.82096,2.76099 6.85404,2.82717 6.85404,5.83826 6.82096,5.90444 6.75478,5.93752 6.65551,5.97061 1.95689,5.97061 1.82453,5.93752 1.79144,5.90444 1.75836,5.83826 1.75836,2.82717 1.79144,2.76099 1.82453,2.7279 1.85763,2.69482 3.7106,2.66172 3.7106,2.23157 1.89071,2.23157 "/>
   <polygon id="_89064376" class="fil0" points="4.24002,3.65439 4.20693,3.68748 4.20693,3.78675 4.24002,3.85293 4.3062,3.88602 6.49007,3.88602 6.52316,3.85293 6.55624,3.81984 6.55624,3.65439 6.52316,3.6213 4.27311,3.6213 "/>
   <polygon id="_100683568" class="fil0" points="4.20693,4.18382 4.20693,4.28309 4.24002,4.31617 4.27311,4.34926 6.52316,4.34926 6.55624,4.31617 6.55624,4.15072 6.52316,4.11764 4.24002,4.11764 "/>
   <polygon id="_101373584" class="fil0" points="4.24002,4.61397 4.20693,4.68015 4.20693,4.74632 4.24002,4.8125 4.27311,4.84559 6.49007,4.84559 6.55624,4.8125 6.55624,4.64706 6.52316,4.61397 6.49007,4.58089 4.27311,4.58089 "/>
   <path id="_101372360" class="fil0" d="M2.8172 5.07722l0.0330827 -0.0661811 0.0330984 -0.0661811 0.0330827 -0.0992677 0.0330866 -0.0661693 0.0330945 -0.0992677 0 -0.0661811 0.132354 0 0 0.0661811 0.0330866 0.0992677 0.0330945 0.0661693 0.0330866 0.0992677 0.0330827 0.0661811 0.0330984 0.0992677 0 0.0330827 -0.0330984 0.0330984 -0.0330827 0.0330827 -0.0330866 0.0330866 -0.0330945 0.0330945 -0.0330866 0.0330866 -0.0330866 0.0330866 -0.0661811 0 -0.0330866 -0.0330866 -0.0330945 -0.0330866 -0.0330866 -0.0330945 -0.0330827 -0.0330866 -0.0330984 -0.0330827 -0.0330827 -0.0330984 0 -0.0661693zm0.264713 -0.562516l-0.0661811 0 0.0661811 0zm-0.264713 -1.29047l-0.0661811 0.0330866 -0.0330866 0.0330945 -0.0661732 0.0330866 -0.0330945 0.0330866 -0.0330866 0.0330945 -0.0330866 0.0661693 -0.0330945 0.0330984 -0.0330827 0.0661693 -0.0330866 0.132362 0 0.231618 0.0330866 0.0992677 0.0330827 0.0992677 0.0330945 0.0661811 0.0330866 0.0330866 0.0330866 0.0661811 0.0330945 0.0330866 0.0330866 0.0330827 0 0.0330945 -0.0661811 0.0330866 -0.0992677 0.0330866 -0.0330827 0.0330945 -0.0661811 0.0330866 -0.0330866 0.0330866 -0.0661811 0.0330945 -0.0330866 0.0330866 -0.0330866 0.0330866 -0.0330945 0.0330945 -0.0330866 0.0330866 -0.0330866 0.0330827 -0.0330945 0.0661811 -0.0330866 0.0330866 -0.0330827 0.0661811 -0.0330984 0.0661811 -0.0330827 0.0992677 0 0.165437 0.0330827 0.0330945 0.0330984 0.0330866 0.0661693 0.0330866 0.0992677 0.0330945 0.132362 0.0330866 0.231618 0.0330866 0.926488 0 0.231618 -0.0330866 0.132362 -0.0330866 0.0992677 -0.0330945 0.0661732 -0.0330866 0.0330945 -0.0330866 0.0330827 -0.0661811 0 -0.13235 -0.0330827 -0.0992677 -0.0330945 -0.0661811 -0.0330866 -0.0661811 -0.0330866 -0.0330866 -0.0330945 -0.0661811 -0.0330866 -0.0330827 -0.0330866 -0.0330866 -0.0330945 -0.0330945 -0.0330866 -0.0330866 -0.0330866 -0.0330866 -0.0661811 -0.0330945 -0.0330827 -0.0330866 -0.0661811 -0.0330866 -0.0330866 -0.0330945 -0.0992677 -0.0330866 -0.0661811 -0.0330866 0 -0.0330945 0.0330866 -0.0330827 0.0330945 -0.0330866 0.0330866 -0.0661811 0.0330866 -0.0330866 0.0330945 -0.0661811 0.0330866 -0.0992677 0.0330827 -0.13235 0 -0.198535 -0.0330827 -0.132362 -0.0330866 -0.0661693 -0.0330945 -0.0330984 -0.0330866 -0.0661693 -0.0330866 -0.0330945 -0.0330945 -0.0330866 -0.0661732 -0.0330866 -0.0330945 -0.0330945 -0.0661693 -0.0330866 -0.132362 -0.0330866 -0.198535 0 -0.13235 0.0330866z"/>
  </g>
 </g>
</svg>
