<?xml version="1.0" encoding="UTF-8"?>
<!DOCTYPE svg PUBLIC "-//W3C//DTD SVG 1.1//EN" "http://www.w3.org/Graphics/SVG/1.1/DTD/svg11.dtd">
<!-- Creator: CorelDRAW -->
<svg xmlns="http://www.w3.org/2000/svg" xml:space="preserve" width="8.5in" height="8.5in" style="shape-rendering:geometricPrecision; text-rendering:geometricPrecision; image-rendering:optimizeQuality; fill-rule:evenodd; clip-rule:evenodd"
viewBox="0 0 8.5 8.5"
 xmlns:xlink="http://www.w3.org/1999/xlink">
 <defs>
  <style type="text/css">
   <![CDATA[
    .fil2 {fill:black}
    .fil1 {fill:#030303}
    .fil0 {fill:#FCFCFC}
   ]]>
  </style>
 </defs>
 <g id="Layer_x0020_1">
  <metadata id="CorelCorpID_0Corel-Layer"/>
  <g id="_104811600">
   <path id="_103729456" class="fil0" d="M3.0175 0.935c-0.0102402,0.0282874 -0.0975433,0.0712874 -0.129016,0.0919882 -0.0332165,0.0218465 -0.0884488,0.0821457 -0.116043,0.113449 -0.0312638,0.0354646 -0.0704764,0.0872402 -0.0945709,0.126433 -0.015689,0.0255236 -0.0637402,0.135402 -0.0923898,0.143677l-0.0112126 0.281976 0.0182323 0.0244764 0 0.034c0.0534252,0.0797795 0.0808583,0.174831 0.146654,0.252846 0.0159055,0.0188622 0.0338976,0.028563 0.0485,0.045 0.0157992,0.0177795 0.0250315,0.039374 0.0433346,0.0586654 0.036315,0.0382874 0.0641614,0.0631299 0.103587,0.100417 0.0635709,0.0601181 0.150075,0.126543 0.218634,0.180862 0.0440157,0.034874 0.075937,0.0326969 0.122461,0.0730433 0.064189,0.0556575 0.0499449,0.0321654 0.0979961,0.10526l0.00933465 0.101906 0 1.0285 1.8785 0c0.0195866,0 0.0255,-0.00591339 0.0255,-0.0255l-0.00129528 -0.922531 -0.202705 0.0640315c-0.12585,0 -0.233453,0.036815 -0.343177,0.0563268 -0.090378,0.0160709 -0.279228,0.0201732 -0.379323,0.0201732l-0.2635 0c-0.0916339,0 -0.166291,-0.00277165 -0.255169,-0.00833071 -0.050622,-0.00316535 -0.141449,-0.0837244 -0.137787,-0.136378l0.0104567 -0.110291c0.0374567,-0.0250827 0.0656535,-0.0781772 0.119177,-0.0848228 0.049622,-0.00616142 0.14889,-0.000177165 0.203823,-0.000177165 0.138811,0 0.277713,-0.000496063 0.416512,1.1811e-005 0.141433,0.000515748 0.257543,-0.0368622 0.365488,-0.0425118 0.0642559,-0.00336614 0.126654,-0.0190709 0.179283,-0.0247165 0.0743031,-0.00796457 0.10974,-0.0347835 0.177717,-0.0347835 0.0510748,-0.0342008 0.0785394,-0.0365866 0.137059,-0.0584409 0.0267087,-0.00997638 0.0530945,-0.0176181 0.0773976,-0.0246024 0.041063,-0.0118031 0.0295236,-0.0189488 0.0660118,-0.0359882 0.0468622,-0.0218858 0.0878701,-0.0433661 0.131051,-0.0729488 0.0595197,-0.0407756 0.0661142,-0.059248 0.109169,-0.0948346 0.0967283,-0.0799409 0.242205,-0.392035 0.229106,-0.580327l-0.0102953 -0.152858c-0.029,-0.0117047 -0.034,-0.0623268 -0.034,-0.102 -0.0188031,-0.00680315 -0.0610945,-0.0887441 -0.082748,-0.112752 -0.0352205,-0.039063 -0.0655591,-0.0633346 -0.107969,-0.0960315 -0.0532559,-0.0410551 -0.205626,-0.114217 -0.293783,-0.114217l-0.000110236 -0.0153701 -0.17839 -0.0101299 -0.153 0c-0.00597638,0 -0.183268,0.0611614 -0.196638,0.0668622 -0.0817126,0.0348307 -0.107685,0.0300039 -0.177126,0.086374 -0.0376142,0.0305315 -0.107465,0.066626 -0.157811,0.105689 -0.0252992,0.0196339 -0.124839,0.10522 -0.140161,0.123339 -0.0778622,0.0921063 -0.172583,0.174843 -0.24974,0.27726 -0.0597323,0.0792913 -0.148717,0.266976 -0.268524,0.266976l-0.0425 0c-0.0629567,0 -0.1275,-0.0859449 -0.1275,-0.1615 0,-0.0982283 0.120307,-0.243764 0.169067,-0.306929 0.0333661,-0.0432205 0.0753071,-0.0845866 0.108043,-0.129965 0.0417835,-0.0579173 0.0789921,-0.0804882 0.11389,-0.132606 -0.0624134,-0.117949 -0.450461,-0.306 -0.6375,-0.306l-0.1955 0c-0.0807913,0 -0.178181,0.068 -0.2465,0.068z"/>
   <path id="_70735496" class="fil1" d="M3.0175 0.935c0.0683189,0 0.165709,-0.068 0.2465,-0.068l0.1955 0c0.187039,0 0.575087,0.188051 0.6375,0.306 -0.0348976,0.0521181 -0.0721063,0.074689 -0.11389,0.132606 -0.0327362,0.045378 -0.0746772,0.0867441 -0.108043,0.129965 -0.0487598,0.0631654 -0.169067,0.208701 -0.169067,0.306929 0,0.0755551 0.0645433,0.1615 0.1275,0.1615l0.0425 0c0.119807,0 0.208791,-0.187685 0.268524,-0.266976 0.0771575,-0.102417 0.171878,-0.185154 0.24974,-0.27726 0.0153228,-0.0181181 0.114862,-0.103705 0.140161,-0.123339 0.0503465,-0.039063 0.120197,-0.0751575 0.157811,-0.105689 0.0694409,-0.0563701 0.0954134,-0.0515433 0.177126,-0.086374 0.0133701,-0.00570079 0.190661,-0.0668622 0.196638,-0.0668622l0.153 0 0.17839 0.0101299 0.000110236 0.0153701c0.0881575,0 0.240528,0.0731614 0.293783,0.114217 0.0424094,0.0326969 0.072748,0.0569685 0.107969,0.0960315 0.0216535,0.0240079 0.0639449,0.105949 0.082748,0.112752 0,0.0396732 0.005,0.0902953 0.034,0.102l0.0102953 0.152858c0.0130984,0.188291 -0.132378,0.500386 -0.229106,0.580327 -0.0430551,0.0355866 -0.0496496,0.0540591 -0.109169,0.0948346 -0.0431811,0.0295827 -0.084189,0.051063 -0.131051,0.0729488 -0.0364882,0.0170394 -0.0249488,0.024185 -0.0660118,0.0359882 -0.0243031,0.00698425 -0.050689,0.014626 -0.0773976,0.0246024 -0.0585197,0.0218543 -0.0859843,0.0242402 -0.137059,0.0584409 -0.0679764,0 -0.103413,0.0268189 -0.177717,0.0347835 -0.0526299,0.00564567 -0.115028,0.0213504 -0.179283,0.0247165 -0.107945,0.00564961 -0.224055,0.0430276 -0.365488,0.0425118 -0.138799,-0.000507874 -0.277701,-1.1811e-005 -0.416512,-1.1811e-005 -0.0549331,0 -0.154201,-0.00598425 -0.203823,0.000177165 -0.0535236,0.00664567 -0.0817205,0.0597402 -0.119177,0.0848228l-0.0104567 0.110291c-0.00366142,0.0526535 0.0871654,0.133213 0.137787,0.136378 0.088878,0.00555906 0.163535,0.00833071 0.255169,0.00833071l0.2635 0c0.100094,0 0.288945,-0.00410236 0.379323,-0.0201732 0.109724,-0.0195118 0.217327,-0.0563268 0.343177,-0.0563268l0.202705 -0.0640315 0.00129528 0.922531c0,0.0195866 -0.00591339,0.0255 -0.0255,0.0255l-1.8785 0 0 -1.0285 -0.00933465 -0.101906c-0.0480512,-0.0730945 -0.0338071,-0.0496024 -0.0979961,-0.10526 -0.0465236,-0.0403465 -0.0784449,-0.0381693 -0.122461,-0.0730433 -0.0685591,-0.0543189 -0.155063,-0.120744 -0.218634,-0.180862 -0.0394252,-0.0372874 -0.0672717,-0.0621299 -0.103587,-0.100417 -0.0183031,-0.0192913 -0.0275354,-0.0408858 -0.0433346,-0.0586654 -0.0146024,-0.016437 -0.0325945,-0.0261378 -0.0485,-0.045 -0.0657953,-0.0780157 -0.0932283,-0.173067 -0.146654,-0.252846l0 -0.034 -0.0182323 -0.0244764 0.0112126 -0.281976c0.0286496,-0.00827559 0.0767008,-0.118154 0.0923898,-0.143677 0.0240945,-0.0391929 0.0633071,-0.0909685 0.0945709,-0.126433 0.0275945,-0.0313031 0.0828268,-0.0916024 0.116043,-0.113449 0.0314724,-0.0207008 0.118776,-0.0637008 0.129016,-0.0919882zm0.0255 1.7765c0,0.238 0,0.476 0,0.714 0,0.119 0.000102362,0.238004 0,0.357 -0.000192913,0.221063 0.0411299,0.151406 0.108764,0.255094l0.0102362 0.229406 0.017 0c0,0.074122 0.0451102,0.279291 0.085,0.306 0,0.0585669 0.109374,0.27378 0.139047,0.319953 0.0528898,0.0822953 0.146295,0.173059 0.212291,0.246713 0.00777165,0.00867717 0.117634,0.0912047 0.131236,0.0982598 0.0266654,0.0138346 0.0344409,0.0297441 0.0654567,0.0450472 0.030378,0.0149882 0.0544528,0.0229449 0.0808386,0.0381575 0.0735315,0.0423976 0.254043,0.0933701 0.36563,0.0933701l0.068 0c0.168602,0 0.38478,-0.0690354 0.49789,-0.13111 0.00253937,-0.00138976 0.17487,-0.129953 0.179874,-0.134626 0.0508976,-0.0475472 0.100752,-0.11252 0.148984,-0.165516 0.0834685,-0.0917205 0.177839,-0.27502 0.219957,-0.409043 0.0552874,-0.175945 0.0922953,-0.297161 0.0922953,-0.536705 0.0980866,-0.0656811 0.153051,-0.0593543 0.153,-0.2295 -4.33071e-005,-0.130335 0,-0.260665 0,-0.391 0,-0.260665 0,-0.521335 0,-0.782 0.0252559,-0.0377165 0.0807205,-0.0525276 0.119516,-0.0759843 0.0411299,-0.0248701 0.0729016,-0.0616063 0.117083,-0.0869173 0.0384331,-0.0220236 0.179654,-0.171209 0.197185,-0.210815 0.0383583,-0.0866772 0.0966811,-0.165626 0.135728,-0.272276 0.011685,-0.0319173 0.0764882,-0.30178 0.0764882,-0.331508l-0.000606299 -0.219417 -0.0248937 -0.0100827c0,-0.14048 -0.0741378,-0.29765 -0.136173,-0.373827 -0.0461181,-0.056626 -0.188925,-0.236327 -0.27024,-0.238783l-0.0100866 -0.0248898c-0.0309291,-0.000688976 -0.0804094,-0.0350197 -0.120319,-0.0496772 -0.0571378,-0.0209882 -0.0587402,-0.0217244 -0.130016,-0.0399882 -0.0471929,-0.0120945 -0.0731811,-0.0432953 -0.123413,-0.0465866 -0.0618386,-0.00404724 -0.104362,-0.00824803 -0.170252,-0.00824803l-0.1615 0c-0.19111,0 -0.28889,0.0393031 -0.416638,0.101862 -0.0671024,0.0328583 -0.117043,0.038378 -0.174535,0.0889646 -0.0144016,0.0126693 -0.153673,0.0981732 -0.165327,0.0981732l-0.0255 0c-0.0155315,-0.0581732 -0.192539,-0.167441 -0.246154,-0.204346 -0.0935354,-0.0643858 -0.236795,-0.0918858 -0.314846,-0.144154 -0.0494961,0 -0.222409,-0.0595 -0.272,-0.0595l-0.2635 0c-0.00222047,0 -0.178488,0.0443465 -0.1975,0.049 -0.027937,0.00683465 -0.14613,0.0573701 -0.175008,0.0714921 -0.0649646,0.0317835 -0.0935354,0.0584685 -0.150193,0.0963071 -0.0695039,0.0464173 -0.0852953,0.0687402 -0.142004,0.112996 -0.0219488,0.0171299 -0.0981811,0.105504 -0.113228,0.133276 -0.0183268,0.0338228 -0.0332795,0.0437835 -0.0573307,0.0701654 -0.0244055,0.0267638 -0.0266772,0.0525591 -0.0471575,0.0803425 -0.0565433,0.0766929 -0.106614,0.26085 -0.120071,0.381433 -0.0355157,0.318319 0.148402,0.553882 0.266362,0.727118 0.00738189,0.0108425 0.109433,0.117311 0.120618,0.125882 0.0442992,0.0339449 0.0859291,0.0875039 0.129618,0.125382 0.0925197,0.0802047 0.188295,0.142736 0.290394,0.211106z"/>
   <path id="_11598184" class="fil2" d="M1.8275 7.973l4.845 0 0 -0.6715c0,-0.166984 -0.0151575,-0.281567 -0.0418898,-0.41711 -0.0105276,-0.0533819 -0.0212677,-0.143437 -0.0377165,-0.191783 -0.0106535,-0.0313228 -0.0563937,-0.146343 -0.0563937,-0.164606l0 -0.0255c-0.0411457,-0.0166063 -0.113268,-0.276122 -0.1615,-0.289 -0.00198425,-0.0890315 -0.321236,-0.412555 -0.393161,-0.473839 -0.0365748,-0.0311614 -0.0941575,-0.058315 -0.135378,-0.085626 -0.0406378,-0.0269252 -0.0713504,-0.0590512 -0.124461,-0.0880354 -0.0403976,-0.0220512 -0.0993701,-0.0526102 -0.142831,-0.0696693 -0.0163898,-0.00642913 -0.0625,-0.0268268 -0.0752717,-0.0352244 -0.0374646,-0.0246299 -0.0391929,-0.0136732 -0.0723976,-0.0296063l-0.103083 0.0930945 -0.00741732 -0.00809449c-0.0151535,0.0650472 -0.192469,0.149453 -0.245799,0.196201 -0.0146102,0.0128031 -0.113469,0.0580394 -0.144736,0.0762638 -0.033563,0.019563 -0.140051,0.0343031 -0.153465,0.0675354l-0.219583 0.0415906 -0.00141732 0.00940945 -0.356815 0.0203819 -0.017185 -0.00338189c-0.0563504,0 -0.310319,-0.0535866 -0.323,-0.085 -0.106177,0 -0.317594,-0.128106 -0.383047,-0.177949 -0.0264764,-0.0201654 -0.0554567,-0.0325827 -0.0879882,-0.0565157 -0.0328701,-0.0241811 -0.0409134,-0.0379685 -0.0748071,-0.0611929 -0.0291378,-0.0199646 -0.11974,-0.129343 -0.142657,-0.129343l-0.0425 0 0.00272047 0.0101969 -0.137539 0.0367283c-0.00861811,0.0161181 -0.173551,0.0873661 -0.210484,0.100772 -0.00174409,0.000633858 -0.173303,0.107461 -0.188472,0.117528 -0.0547362,0.0363307 -0.122067,0.0894291 -0.174035,0.131965 -0.0547598,0.0448228 -0.0996496,0.109248 -0.15585,0.15015 -0.0548346,0.0399016 -0.219291,0.294752 -0.251185,0.369315 -0.0568071,0.132803 -0.151654,0.270799 -0.151654,0.460346 -0.0337126,0.0503425 -0.034,0.171697 -0.034,0.255l0 0.9265z"/>
  </g>
 </g>
</svg>
