<?xml version="1.0" encoding="UTF-8"?>
<!DOCTYPE svg PUBLIC "-//W3C//DTD SVG 1.1//EN" "http://www.w3.org/Graphics/SVG/1.1/DTD/svg11.dtd">
<!-- Creator: CorelDRAW -->
<svg xmlns="http://www.w3.org/2000/svg" xml:space="preserve" width="8.5in" height="8.5in" style="shape-rendering:geometricPrecision; text-rendering:geometricPrecision; image-rendering:optimizeQuality; fill-rule:evenodd; clip-rule:evenodd"
viewBox="0 0 8.5 8.5"
 xmlns:xlink="http://www.w3.org/1999/xlink">
 <defs>
  <style type="text/css">
   <![CDATA[
    .fil0 {fill:black}
    .fil1 {fill:#030000}
   ]]>
  </style>
 </defs>
 <g id="Layer_x0020_1">
  <metadata id="CorelCorpID_0Corel-Layer"/>
  <polygon id="_11597872" class="fil0" points="6.65001,1.49254 6.65001,1.47552 6.63299,1.4585 6.61597,1.44148 6.59895,1.44148 "/>
  <polygon id="_92323064" class="fil0" points="1.83297,1.49254 1.81594,1.50956 1.79893,1.52658 1.79893,1.5436 1.82956,1.5402 1.86701,1.50956 1.86701,1.47552 1.84999,1.47552 "/>
  <path id="_92322944" class="fil1" d="M2.05424 1.35637l-0.0510512 0.0170197 -0.0340472 0.0170236 -0.0340394 0.0170197 -0.0170236 0.0170276 -0.0340472 0.0170197 -0.0170197 0.0170197 0 0.0170236 0 0.0340394 -0.0374528 0.0306339 -0.0306299 0.00340157 -0.0170236 0.0170354 -0.0170197 0.0170197 -0.0170197 0.0340354 -0.0170197 0.0170197 -0.0170276 0.0340433 -0.0170236 0.0340394 -0.0170197 0.0340551 -0.0170197 0.0340354c-0.238917,0.477929 -0.357169,0.720772 -0.595744,1.19788l-0.0170197 0.0340433 -0.0170276 0.051063 -0.0170197 0.0510669 -0.0170197 0.0680827 -0.0170197 0.0680906 -0.0170236 0.10213 0 0.255319 0.0170236 0.0680827 0.0170197 0.051063 0.0170197 0.0510669 0.0170197 0.0340433 0.0170276 0.0340472 0.0170197 0.0170197 0.0170197 0.0340315 0.0170197 0.0170197 0.0170236 0.0340551 0.0170236 0.0170157 0.0170197 0.0170197 0.0170197 0.0170197 0.0170236 0.0170276 0.0170197 0.0170197 0.0170236 0.0170197 0.0170197 0.0170236 0.0170197 0.0170197 0.0340433 0.0170276 0.0170197 0.0170197 0.0340472 0.0170157 0.0170197 0.0170276 0.0340433 0.0170197 0.0340472 0.0170197 0.0340354 0.0170236 0.0510669 0.0170197 0.0510709 0.0170197 0.0850984 0.0170157 0.272343 0 0.0851102 -0.0170157 0.0510512 -0.0170197 0.0510748 -0.0170197 0.0340354 -0.0170236 0.0340472 -0.0170197 0.0340433 -0.0170197 0.0340394 -0.0170276 0.0170276 -0.0170157 0.0340354 -0.0170197 0.0170276 -0.0170276 0.0170197 -0.0170197 0.0170276 -0.0170236 0.0340354 -0.0170197 0.0170157 -0.0170197 0.0170197 -0.0340472 0.0170276 -0.0170197 0.0170276 -0.0170157 0.0170197 -0.0170276 0.0170157 -0.0170276 0.0170197 -0.0340354 0.0170276 -0.0340354 0.0170197 -0.0170276 0.0170157 -0.0340394 0.0170197 -0.0510709 0.0170276 -0.0510551 0.000850394 -0.0536181 0.0331929 0.0195709 0.0170197 0.0680827 0.0170197 0.0340472 0.0170276 0.0340433 0.0170197 0.0340394 0.0170236 0.0340472 0.0170197 0.0340315 0.0170197 0.0170197 0.0170197 0.0340551 0.0170276 0.0170157 0.0170157 0.0170197 0.0170157 0.0170197 0.0170315 0.0170276 0.0170197 0.0170197 0.0170236 0.0170197 0.0170197 0.0170236 0.0170157 0.0170197 0.0340394 0.0170276 0.0170276 0.0170197 0.0340433 0.0170157 0.0170197 0.0170276 0.0340472 0.0170197 0.0340354 0.0170197 0.0340472 0.0170236 0.051063 0.0170197 0.0510709 0.0170197 0.0851024 0.0170157 0.306386 0 0.0850984 -0.0170157 0.0510748 -0.0170197 0.0510551 -0.0170197 0.0340433 -0.0170236 0.0340394 -0.0170197 0.0340512 -0.0170197 0.0340394 -0.0170276 0.0170197 -0.0170157 0.0340433 -0.0170197 0.0170276 -0.0170276 0.0170197 -0.0170197 0.0170197 -0.0170236 0.0170197 -0.0170197 0.0170236 -0.0170197 0.0170197 -0.0170276 0.0170276 -0.0170197 0.0170197 -0.0170197 0.0170197 -0.0170157 0.0170236 -0.0340551 0.0170197 -0.0170197 0.0170157 -0.0170157 0.0170197 -0.0340354 0.0170197 -0.0340472 0.0170236 -0.0340433 0.0170315 -0.0510669 0.0170157 -0.0340354 0.0170197 0.0340354 0.0170197 0.0510669 0.0170236 0.0340433 0.0170197 0.0340472 0.0170197 0.0340354 0.0170276 0.0170157 0.0170157 0.0340472 0.0170276 0.0170276 0.0170197 0.0170157 0.0170197 0.0170197 0.0170236 0.0170197 0.0170197 0.0170276 0.0170276 0.0170197 0.0170197 0.0170197 0.0170197 0.0170236 0.0170197 0.0170197 0.0170157 0.0170276 0.0340433 0.0170197 0.0170315 0.0170157 0.0340315 0.0170276 0.0340472 0.0170197 0.0340394 0.0170197 0.0340433 0.0170236 0.0510669 0.0170197 0.051063 0.0170197 0.0851102 0.0170157 0.306382 0 0.0851024 -0.0170157 0.0510709 -0.0170197 0.0510669 -0.0170197 0.0340354 -0.0170236 0.0340472 -0.0170197 0.0340472 -0.0170197 0.0170157 -0.0170276 0.0340354 -0.0170157 0.0170276 -0.0170197 0.0340394 -0.0170276 0.0170236 -0.0170197 0.0170197 -0.0170236 0.0170276 -0.0170197 0.0170197 -0.0170197 0.0170197 -0.0170276 0.0170236 -0.0170197 0.0170197 -0.0170197 0.0170276 -0.0340433 0.0170197 -0.0170276 0.0170157 -0.0170197 0.0170197 -0.0340315 0.0170157 -0.0340472 0.0170315 -0.0340394 0.0170236 -0.0340433 0.0170197 -0.0340472 0.0170197 -0.0680827 0.0340472 -0.0170276 0 0.0510748 0.0170157 0.0510551 0.0170197 0.0510709 0.0170157 0.0340394 0.0170276 0.0170276 0.0170315 0.0340354 0.0170157 0.0340354 0.0170157 0.0170276 0.0170197 0.0170276 0.0170197 0.0170157 0.0170276 0.0340394 0.0170197 0.0170276 0.0170236 0.0170197 0.0340394 0.0170197 0.0170276 0.0170236 0.0170197 0.0170197 0.0170236 0.0170276 0.0340394 0.0170197 0.0170276 0.0170157 0.0340354 0.0170276 0.0340354 0.0170197 0.0340551 0.0170197 0.0340354 0.0170236 0.0510669 0.0170197 0.051063 0.0170197 0.0851102 0.0170157 0.272339 0 0.0680827 -0.0170157 0.0680906 -0.0170197 0.051063 -0.0170197 0.0340394 -0.0170236 0.0340433 -0.0170197 0.0340472 -0.0170197 0.0170197 -0.0170276 0.0340354 -0.0170157 0.0170236 -0.0170197 0.0340512 -0.0170276 0.0170157 -0.0170197 0.0170197 -0.0170236 0.0170236 -0.0170197 0.0170197 -0.0170197 0.0170197 -0.0170276 0.0170197 -0.0170197 0.0170236 -0.0170197 0.0170197 -0.0170157 0.0170276 -0.0340551 0.0170197 -0.0170197 0.0170197 -0.0340315 0.0170197 -0.0170197 0.0170236 -0.0340472 0.0170276 -0.0340433 0.0170197 -0.0510669 0.0170197 -0.051063 0.0170157 -0.0680827 0 -0.255319 -0.0170157 -0.10213 -0.0170197 -0.0680906 -0.0170197 -0.0680827 -0.0170276 -0.0510669 -0.0170236 -0.051063 -0.0170197 -0.0340433 -0.0170197 -0.0340354 -0.0170197 -0.0340472c-0.173067,-0.519071 -0.385059,-0.776697 -0.629795,-1.26597l-0.0170157 -0.0170197 -0.0170197 -0.0340354 -0.0170315 -0.0170197 -0.0170157 -0.0340551 -0.0170276 -0.0170157 -0.0170157 -0.0170197 -0.0170197 0 -0.051063 -0.051063 -0.0170197 -0.0170197 -0.0170276 -0.0170276 -0.0340394 -0.0170197 -0.0340433 -0.0170236 -0.051063 -0.0170197 -0.119157 -0.0170197 -4.1532 0 -0.119157 0.0170197z"/>
  <path id="_92323232" class="fil1" d="M1.49254 6.68405l0.0170197 0.0680945 0.0170157 0.0510591 0.0170197 0.0340394 0.0170354 0.0340472 0.0170197 0.0170236 0.0170197 0.0340394 0.0170157 0.0170197 0.0170157 0.0170236 0.0170276 0.0170197 0.0170197 0.0170276 0.0170197 0.0170197 0.0170197 0.0170197 0.0170236 0.0170236 0.0340472 0.0170197 0.0170197 0.0170197 0.0340433 0.0170276 0.0340472 0.0170197 0.0510551 0.0170236 0.0510709 0.0170197 0.136165 0.0170197 4.37449 0 0.153193 -0.0170197 0.051063 -0.0170197 0.051063 -0.0170236 0.0340472 -0.0170197 0.0340354 -0.0170276 0.0170276 -0.0170197 0.0340354 -0.0170197 0.0170197 -0.0170236 0.0170276 -0.0170197 0.0170197 -0.0170197 0.0170236 -0.0170276 0.0170197 -0.0170197 0.0170197 -0.0170236 0.0170197 -0.0170197 0.0170236 -0.0340394 0.0170197 -0.0340512 0.0170276 -0.0170197 0.0170197 -0.0510551 0.0170197 -0.0340433 0.0170236 -0.0851102 0 -2.24256 -0.527665 0 -0.0170197 2.07235 -0.0170276 0.0340472 -0.0170197 0.0170157 -0.0340354 -0.0170157c-0.258469,-0.258516 -0.370437,-0.242681 -0.629795,-0.502142l-3.14895 0c-0.279421,0.269929 -0.286646,0.266193 -0.612768,0.533504l-0.0170197 -2.13776 -0.527657 0 0 2.25958z"/>
 </g>
</svg>
