<?xml version="1.0" encoding="UTF-8"?>
<!DOCTYPE svg PUBLIC "-//W3C//DTD SVG 1.1//EN" "http://www.w3.org/Graphics/SVG/1.1/DTD/svg11.dtd">
<!-- Creator: CorelDRAW -->
<svg xmlns="http://www.w3.org/2000/svg" xml:space="preserve" width="2.793in" height="1.218in" style="shape-rendering:geometricPrecision; text-rendering:geometricPrecision; image-rendering:optimizeQuality; fill-rule:evenodd; clip-rule:evenodd"
viewBox="0 0 2.793 1.218"
 xmlns:xlink="http://www.w3.org/1999/xlink">
 <defs>
  <style type="text/css">
   <![CDATA[
    .fil3 {fill:#DA251D}
    .fil0 {fill:#E3556A}
    .fil2 {fill:white}
    .fil1 {fill:white;fill-rule:nonzero}
   ]]>
  </style>
 </defs>
 <g id="Layer_x0020_1">
  <metadata id="CorelCorpID_0Corel-Layer"/>
  <path class="fil0" d="M0.247205 -0.000149606l2.29859 0c0.136094,0 0.247449,0.0923346 0.247449,0.228134l0 0.742709c0,0.135811 -0.111638,0.247453 -0.247449,0.247453l-2.29859 0c-0.135799,0 -0.247449,-0.111354 -0.247449,-0.247453l0 -0.723394c0,-0.136094 0.111354,-0.247449 0.247449,-0.247449z"/>
  <path class="fil1" d="M1.27824 0.451705l0 0.211098c0,0.0339449 -0.0110236,0.0599291 -0.0330669,0.0778858 -0.0220433,0.0179567 -0.0508031,0.026937 -0.0862795,0.026937 -0.0342362,0 -0.0619724,-0.00905512 -0.0832874,-0.0270827 -0.021315,-0.0180315 -0.0319724,-0.0439449 -0.0319724,-0.0777402l0 -0.211098 0.0421181 0 0 0.211098c0,0.0235787 0.00671654,0.0413898 0.0200748,0.0535787 0.0134291,0.012189 0.0310945,0.0183228 0.0530669,0.0183228 0.0230669,0 0.041752,-0.00613386 0.0559134,-0.0183228 0.0141614,-0.012189 0.0212402,-0.03 0.0212402,-0.0535787l0 -0.211098 0.0421929 0zm0.0986181 0.08l0.00299213 0.0344528c0.00766142,-0.0122638 0.0172992,-0.0218228 0.0289764,-0.0286142 0.0116063,-0.0067874 0.0248189,-0.0101457 0.0396378,-0.0101457 0.0249646,0 0.0442362,0.00729921 0.0579567,0.0218976 0.0136496,0.0146732 0.0205118,0.0372283 0.0205118,0.0677402l0 0.146063 -0.0421181 0 0 -0.145185c0,-0.0204409 -0.00401575,-0.0348937 -0.0120433,-0.0434331 -0.00810236,-0.00853937 -0.0203661,-0.0128465 -0.036937,-0.0128465 -0.0121142,0 -0.0228465,0.00291732 -0.032189,0.00875984 -0.00934252,0.00583858 -0.0167874,0.0138661 -0.0223346,0.0239409l0 0.168764 -0.0421181 0 0 -0.231394 0.0376654 0zm0.256795 0.231394l-0.0421181 0 0 -0.333587 0.0421181 0 0 0.333587zm0.0549646 -0.117815c0,-0.0342323 0.00926772,-0.0624094 0.027811,-0.0845984 0.0185394,-0.0221929 0.0437205,-0.0332874 0.0754764,-0.0332874 0.0321142,0 0.0574449,0.0110236 0.0760591,0.0331417 0.0186142,0.0221142 0.0278858,0.0503661 0.0278858,0.0847441l0 0.00467323c0,0.0345276 -0.00927165,0.0627756 -0.027811,0.084748 -0.0185433,0.0219685 -0.0437244,0.0329213 -0.0756969,0.0329213 -0.0318976,0 -0.0572283,-0.0110236 -0.0757677,-0.0330669 -0.0186142,-0.0220472 -0.0279567,-0.0502205 -0.0279567,-0.0846024l0 -0.00467323zm0.0421181 0.00467323c0,0.0245276 0.0051811,0.0448189 0.0155472,0.0608031 0.0102913,0.0159882 0.0256929,0.0239449 0.0460591,0.0239449 0.0200748,0 0.0353307,-0.00795669 0.0457677,-0.0239449 0.010437,-0.0159843 0.015622,-0.0362756 0.015622,-0.0608031l0 -0.00467323c0,-0.0242323 -0.00525591,-0.0444528 -0.0156969,-0.0605827 -0.0105118,-0.0161339 -0.0258386,-0.0241614 -0.0461299,-0.0241614 -0.0200748,0 -0.0353307,0.00802756 -0.045622,0.0241614 -0.0103661,0.0161299 -0.0155472,0.0363504 -0.0155472,0.0605827l0 0.00467323zm0.310736 0.084748c0.0139449,0 0.0262795,-0.00430709 0.0368622,-0.0129213 0.0106575,-0.00861417 0.0159882,-0.0191969 0.0159882,-0.031752l0.037811 0 0.000437008 0.00124016c0.000732283,0.02 -0.00817323,0.0376654 -0.0266417,0.0531417 -0.0184685,0.0154724 -0.0399291,0.0232126 -0.0644567,0.0232126 -0.0336496,0 -0.0593425,-0.0109528 -0.0772283,-0.0329213 -0.0178071,-0.0219724 -0.0267126,-0.049563 -0.0267126,-0.0827756l0 -0.00905118c0,-0.0329213 0.00897638,-0.0603701 0.0268622,-0.0824134 0.0178819,-0.0220433 0.0435748,-0.0330669 0.0770787,-0.0330669 0.0270827,0 0.0492008,0.00795669 0.0664252,0.0239449 0.0171575,0.0159843 0.0254764,0.0355472 0.0248937,0.0588307l-0.000437008 0.00124016 -0.0380315 0c0,-0.0140866 -0.00503543,-0.0261299 -0.0149646,-0.0359843 -0.01,-0.00992913 -0.0226299,-0.0148898 -0.0378858,-0.0148898 -0.0221142,0 -0.0378819,0.00795669 -0.0473701,0.0238661 -0.00949213,0.0159134 -0.0142362,0.0354055 -0.0142362,0.0585433l0 0.00898031c0,0.0236496 0.00474409,0.0433583 0.0141614,0.059126 0.00941732,0.0157638 0.025185,0.0236496 0.0474449,0.0236496zm0.20811 -0.0783228l-0.027374 0 0 0.106717 -0.0421181 0 0 -0.333587 0.0421181 0 0 0.193291 0.026937 0 0.0632835 -0.0910984 0.0505157 0 -0.0791299 0.105185 0.0904409 0.126209 -0.0496339 0 -0.0750394 -0.106717z"/>
  <circle class="fil2" cx="0.578266" cy="0.609003" r="0.310513"/>
  <g id="_183633656">
   <path id="_183633560" class="fil3" d="M0.434563 0.54778l0.000791339 -0.00491339 -0.000437008 -9.44882e-005 0.000783465 -0.000897638 -0.00080315 -0.000133858 0.000937008 -0.00151969c-0.0010315,-0.00184252 -0.00057874,-0.00108268 -0.000448819,-0.00270079l1.9685e-005 -0.00233858 0.00158268 -0.0135236 0.000661417 5.11811e-005 0.00015748 -0.00198425c2.75591e-005,-0.000322835 0.00174409,-0.00676772 0.00199213,-0.00744488 0.000807087,-0.00223622 0.0017126,-0.00484646 0.0025315,-0.00716535 0.00155512,-0.00440157 0.00331102,-0.00816535 0.00573622,-0.0124606 0.00225984,-0.00399606 0.00474016,-0.00770866 0.00739764,-0.0112323 0.00132283,-0.00175984 0.00269685,-0.00367323 0.00422835,-0.00517717 0.000712598,-0.00069685 0.00399213,-0.0042126 0.00448425,-0.00487402 0.0037126,-0.00498819 0.0150118,-0.0122835 0.0203819,-0.0162717 0.00504724,-0.00374803 0.0159685,-0.0128031 0.0246378,-0.0113661l0.0049252 0.000807087 -5.11811e-005 0.000661417c0.00427165,0.00034252 0.00897244,0.00620866 0.0100118,0.00595669l0.00403937 0.00558661 0.00164961 0.000374016c-0.00322047,-0.00575591 -0.0123268,-0.015311 -0.0213701,-0.0160354 -0.0104646,-0.000838583 -0.0197165,0.00799606 -0.026248,0.0126457 -0.00759055,0.00540551 -0.015937,0.0109646 -0.0218661,0.0181457 -0.0116142,0.0140709 -0.0232362,0.0323268 -0.0252598,0.057622l-0.000653543 0.0062874 0.000188976 0.0119961z"/>
   <path id="_183633632" class="fil0" d="M0.434563 0.54778c-0.00105906,0.0132362 0.0048937,0.0315866 0.00766142,0.0422126 0.0028622,0.0109921 0.0097874,0.0264331 0.0147874,0.0361457 0.00599606,0.0116575 0.0120512,0.0217874 0.0189213,0.032622 0.00590945,0.00931496 0.0144764,0.0218386 0.0215551,0.0300709 0.00402756,0.00468504 0.00758268,0.00962992 0.0116693,0.0144291 0.00411811,0.00483071 0.0082874,0.00905906 0.0123819,0.0138189 0.00392913,0.00456693 0.0089252,0.00879134 0.0132795,0.0130591 0.0046811,0.00459449 0.00942913,0.00795669 0.0141929,0.0122795 0.00801181,0.00727953 0.022122,0.015752 0.0325394,0.0210236 0.010626,0.00537795 0.0266024,0.0114567 0.0419606,0.012685l0.00662205 0.000531496c0.0211535,0.00169291 0.0414094,-0.00517717 0.0548031,-0.0128031 0.00658268,-0.00374803 0.014437,-0.00981102 0.0202756,-0.0145827 0.00548425,-0.00447638 0.0152047,-0.0100197 0.0159724,-0.0196339l0.000185039 -0.00231496c0.000625984,-0.00781102 -0.00555906,-0.0188307 -0.00920472,-0.0233189 -0.00256693,-0.00316142 -0.00496063,-0.00614567 -0.00776772,-0.00911417 -0.00267323,-0.00283071 -0.00582677,-0.0054685 -0.00833858,-0.0083189 -0.00774803,-0.00877953 -0.0252874,-0.0259331 -0.0408819,-0.0271811l-0.000330709 -2.75591e-005c-0.0138622,-0.00111024 -0.0222677,0.00684646 -0.0302677,0.0129921 -0.00455512,0.0035 -0.00782283,0.00629921 -0.0121339,0.0100157 -0.00325591,0.00280709 -0.00964961,0.00614173 -0.0155315,0.00567323l-0.000661417 -5.51181e-005c-0.0142913,-0.00114173 -0.0247835,-0.0112087 -0.0324567,-0.018315 -0.00640945,-0.00593307 -0.0182008,-0.0189961 -0.0227441,-0.0262795 -0.00273228,-0.00438189 -0.00700394,-0.00971654 -0.0101496,-0.0141811 -0.00332677,-0.00472441 -0.00647244,-0.00979528 -0.00931102,-0.0148976 -0.00500787,-0.00899213 -0.0122756,-0.0223031 -0.0111654,-0.0361417 0.00126772,-0.0158622 0.0145,-0.0190787 0.0234882,-0.0260197 0.00927559,-0.00715748 0.0197756,-0.0121417 0.0220866,-0.0273031 0.00198819,-0.0130354 -0.00441339,-0.0282795 -0.00895669,-0.0370984 -0.00258268,-0.00502362 -0.0144646,-0.0284134 -0.0172717,-0.0306339l-0.00164961 -0.000374016 -0.00403937 -0.00558661c-0.00103937,0.000251969 -0.00574016,-0.00561417 -0.0100118,-0.00595669l5.11811e-005 -0.000661417 -0.0049252 -0.000807087c-0.00866929,-0.00143701 -0.0195906,0.00761811 -0.0246378,0.0113661 -0.00537008,0.00398819 -0.0166693,0.0112835 -0.0203819,0.0162717 -0.000492126,0.000661417 -0.00377165,0.00417717 -0.00448425,0.00487402 -0.0015315,0.00150394 -0.00290551,0.00341732 -0.00422835,0.00517717 -0.00265748,0.00352362 -0.0051378,0.00723622 -0.00739764,0.0112323 -0.0024252,0.00429528 -0.0041811,0.00805906 -0.00573622,0.0124606 -0.000818898,0.0023189 -0.00172441,0.00492913 -0.0025315,0.00716535 -0.000248031,0.000677165 -0.00196457,0.00712205 -0.00199213,0.00744488l-0.00015748 0.00198425 -0.000661417 -5.11811e-005 -0.00158268 0.0135236 -1.9685e-005 0.00233858c-0.000129921,0.00161811 -0.000582677,0.000858268 0.000448819,0.00270079l-0.000937008 0.00151969 0.00080315 0.000133858 -0.000783465 0.000897638 0.000437008 9.44882e-005 -0.000791339 0.00491339z"/>
  </g>
  <path class="fil0" d="M0.727138 0.492984c0.00509843,0.00344488 0.0107441,0.0241929 0.0107441,0.0340787l0 0.00204724c0,0.0186181 -0.00912205,0.0356181 -0.0185236,0.0449291 -0.0090748,0.00899213 -0.0260118,0.019752 -0.0437008,0.019752l-0.00696063 0c-0.00836614,0 -0.0286654,-0.00637795 -0.031622,-0.0107441l0.090063 -0.090063zm-0.120256 0.0320315c0,-0.0170236 0.0104528,-0.0344016 0.0191378,-0.0430866 0.00869685,-0.00869291 0.0260394,-0.0191378 0.0430866,-0.0191378l0.00696063 0c0.00836614,0 0.0286654,0.00637795 0.0315236,0.0106417l-0.0899646 0.0901693c-0.00510236,-0.00345276 -0.0107441,-0.0241969 -0.0107441,-0.0340827l0 -0.00450394zm-0.0262008 0.00204724l0 0.00409449c0,0.0264803 0.014126,0.0491299 0.0275315,0.0625315 0.0140118,0.0140157 0.0362323,0.0263031 0.0641693,0.0263031 0.0495157,0 0.0917008,-0.0408465 0.0917008,-0.0896535l0 -0.00409449c0,-0.0488071 -0.042185,-0.0896535 -0.0917008,-0.0896535 -0.0499567,0 -0.0917008,0.0409291 -0.0917008,0.0904724z"/>
 </g>
</svg>
