<?xml version="1.0" encoding="UTF-8"?>
<!DOCTYPE svg PUBLIC "-//W3C//DTD SVG 1.1//EN" "http://www.w3.org/Graphics/SVG/1.1/DTD/svg11.dtd">
<!-- Creator: CorelDRAW -->
<svg xmlns="http://www.w3.org/2000/svg" xml:space="preserve" width="1.5in" height="1.5in" style="shape-rendering:geometricPrecision; text-rendering:geometricPrecision; image-rendering:optimizeQuality; fill-rule:evenodd; clip-rule:evenodd"
viewBox="0 0 1.5 1.5"
 xmlns:xlink="http://www.w3.org/1999/xlink">
 <defs>
  <style type="text/css">
   <![CDATA[
    .str0 {stroke:#1F1A17;stroke-width:0.003}
    .str1 {stroke:#AAA9A9;stroke-width:0.0287244}
    .fil4 {fill:none}
    .fil3 {fill:#4D4948}
    .fil1 {fill:#C0A062}
    .fil0 {fill:#FFFCC8}
    .fil2 {fill:#4D4948;fill-rule:nonzero}
   ]]>
  </style>
 </defs>
 <g id="Layer_x0020_1">
  <metadata id="CorelCorpID_0Corel-Layer"/>
  <g id="_100274152">
   <rect id="_213584320" class="fil0 str0" x="0.363831" y="0.692646" width="0.760819" height="0.432283"/>
   <g>
    <path id="_103835120" class="fil1" d="M0.504016 0.675831c0,0 -0.0264764,0.102409 -0.134764,0.0879646 -0.108315,-0.0145079 -0.129992,-0.108433 -0.0878819,-0.196413 0.0421063,-0.0879606 0.10472,-0.190378 0.10472,-0.190378 0,0 0.0204685,-0.036185 0.0722205,-0.036185 0.0517126,0 0.564386,0 0.564386,0 0,0 0.0660669,-0.00691339 0.0915197,0.0337835 0.0253386,0.0407283 0.101051,0.197583 0.110665,0.22048 0.00961417,0.0228858 0.0385236,0.112051 -0.033689,0.151791 -0.0721654,0.0397756 -0.178091,0.0121378 -0.196169,-0.0662283 -0.0128819,0.0276732 -0.0444488,0.0820669 -0.113098,0.0843858 -0.0734567,0.00238976 -0.105921,-0.0133386 -0.128799,-0.0819921 -0.00663386,0.018315 -0.0409016,0.0819921 -0.109516,0.0844016 -0.0685984,0.00238189 -0.127531,-0.0205669 -0.139594,-0.0916102l0 0z"/>
    <path id="_1038351201" class="fil2" d="M0.365437 0.793031l0.00762992 -0.0584724 0 0 0.00817717 0.000787402 0.00748031 0.000374016 0.00725197 -0.000232283 0.00646063 -0.000562992 0.00613386 -0.00108661 0.00558661 -0.00133858 0.0052874 -0.00155512 0.00499213 -0.00195669 0.0047126 -0.00220472 0.0043189 -0.00240945 0.00405906 -0.00258268 0.0039252 -0.00282283 0.0036811 -0.00302756 0.00344882 -0.00318898 0.00311024 -0.00319291 0.00301575 -0.00339764 0.00281102 -0.00343701 0.00262205 -0.00355118 0.00232677 -0.00351575 0.00215354 -0.00343701 0.00199213 -0.00332283 0.00172441 -0.00327559 0.00158268 -0.00307874 0.00133858 -0.00295669 0.00110236 -0.00267323 0.000992126 -0.00235827 0.000779528 -0.00211417 0.000566929 -0.0017126 0.000492126 -0.00127559 0.000188976 -0.000913386 0.000129921 -0.000385827 -3.93701e-005 0.000283465 0.0570866 0.0147874 -0.00019685 0.000874016 -0.000358268 0.00131496 -0.000653543 0.00183465 -0.000720472 0.00243307 -0.0010315 0.00287008 -0.00123622 0.00326378 -0.00145669 0.00374409 -0.00179528 0.00406693 -0.0020315 0.00434252 -0.00227559 0.00469291 -0.00265354 0.00489764 -0.00291339 0.00516535 -0.00331102 0.0052874 -0.0037126 0.00536614 -0.00400787 0.00540157 -0.00443307 0.00551575 -0.00485827 0.00547638 -0.0054252 0.00550787 -0.00575591 0.00526772 -0.00622441 0.0051063 -0.00669685 0.00490157 -0.00729528 0.00466142 -0.00779134 0.00425984 -0.00817717 0.00382677 -0.00869291 0.00334252 -0.00920866 0.00294094 -0.00975197 0.00225984 -0.010063 0.00155118 -0.0106181 0.00102756 -0.0107165 0.000232283 -0.0114094 -0.000374016 -0.0116496 -0.00125197 0 0zm0.00762992 -0.0584724l-0.00762992 0.0584724 -0.0015 -0.00023622 -0.0014685 -0.00030315 -0.00144094 -0.000377953 -0.00140551 -0.000444882 -0.00137008 -0.000511811 -0.00133858 -0.000574803 -0.00129528 -0.000637795 -0.00125984 -0.00069685 -0.00122047 -0.000751969 -0.00117717 -0.000811024 -0.00112992 -0.000866142 -0.00108661 -0.000913386 -0.00103937 -0.000964567 -0.000992126 -0.00101181 -0.000940945 -0.00105906 -0.000889764 -0.00109843 -0.000834646 -0.00114173 -0.000779528 -0.0011811 -0.000724409 -0.00121654 -0.000665354 -0.00125591 -0.000606299 -0.00128346 -0.000543307 -0.00131496 -0.000484252 -0.00134646 -0.000417323 -0.00137008 -0.000346457 -0.00139764 -0.000283465 -0.00141732 -0.000212598 -0.00144094 -0.000141732 -0.00145669 -7.08661e-005 -0.00147244 3.93701e-006 -0.00148819 8.26772e-005 -0.0015 0.00015748 -0.00150787 0.00023622 -0.0015 0.00030315 -0.0014685 0.000377953 -0.00144094 0.000444882 -0.00140551 0.000511811 -0.00137008 0.000574803 -0.00133858 0.000637795 -0.00129528 0.00069685 -0.00125984 0.000751969 -0.00122047 0.000811024 -0.00117717 0.000866142 -0.00112992 0.000913386 -0.00108661 0.000964567 -0.00103937 0.00101181 -0.000992126 0.00105906 -0.000940945 0.00109843 -0.000889764 0.00114173 -0.000834646 0.0011811 -0.000779528 0.00121654 -0.000724409 0.00125591 -0.000665354 0.00128346 -0.000606299 0.00131496 -0.000543307 0.00134646 -0.000484252 0.00137008 -0.000417323 0.00139764 -0.000346457 0.00141732 -0.000283465 0.00144094 -0.000212598 0.00145669 -0.000141732 0.00147244 -7.08661e-005 0.00148819 3.93701e-006 0.0015 8.26772e-005 0.00150787 0.00015748zm-0.118276 -0.17989l0.0531575 0.0254252 0 0 -0.0031811 0.00722047 -0.00303543 0.00724016 -0.00253937 0.00713386 -0.00226772 0.00700394 -0.00187795 0.00708661 -0.00148031 0.00693701 -0.00120079 0.00675197 -0.000909449 0.00668504 -0.000503937 0.00647638 -9.44882e-005 0.00637008 9.44882e-005 0.00624803 0.000507874 0.00588189 0.000818898 0.00572835 0.00113386 0.00556299 0.00133858 0.00525984 0.00176772 0.00505906 0.00197638 0.00484646 0.00231496 0.00461417 0.00264173 0.00437008 0.00286614 0.00422047 0.00320079 0.00394488 0.00355512 0.00376378 0.00401969 0.00368898 0.00425591 0.00336614 0.00473622 0.00325197 0.00520472 0.00301575 0.00557874 0.00275591 0.0061811 0.00260236 0.00666929 0.00231496 0.00727953 0.00201181 0.00778346 0.00169291 0.00828346 0.00135827 -0.00762992 0.0584724 -0.0115197 -0.00182283 -0.0110118 -0.00238583 -0.0105157 -0.00293307 -0.0101417 -0.00347244 -0.00964567 -0.00398819 -0.00927165 -0.0046063 -0.00867717 -0.00509449 -0.00820079 -0.00556693 -0.00772047 -0.0061378 -0.00702756 -0.00646063 -0.00655512 -0.007 -0.00598031 -0.00740945 -0.00540945 -0.00769291 -0.00472047 -0.00806299 -0.00415748 -0.00831496 -0.00359843 -0.00853937 -0.0029252 -0.00875984 -0.00248819 -0.00896063 -0.00182677 -0.00902756 -0.00128346 -0.00919291 -0.000744094 -0.00934646 -0.000322835 -0.00925591 0.000322835 -0.00937795 0.000740157 -0.00947638 0.0011378 -0.00945669 0.00166535 -0.0095315 0.00217323 -0.00947244 0.00257087 -0.00940157 0.00296063 -0.00954724 0.00346063 -0.00944094 0.00372835 -0.0093189 0.00433858 -0.00930709 0 0zm0.0531575 0.0254252l-0.0531575 -0.0254252 0.000688976 -0.00135039 0.000748031 -0.00129921 0.00080315 -0.00125197 0.000862205 -0.00119685 0.000909449 -0.00114173 0.000964567 -0.00109055 0.00100787 -0.00103543 0.00105118 -0.000980315 0.00109843 -0.00092126 0.00113386 -0.000866142 0.00117323 -0.000807087 0.00120472 -0.000748031 0.00124016 -0.000685039 0.00127165 -0.000629921 0.00129528 -0.000562992 0.00132283 -0.000503937 0.00134252 -0.000437008 0.0013622 -0.000374016 0.00138189 -0.000307087 0.00139764 -0.000244094 0.00140945 -0.000177165 0.00141732 -0.000106299 0.00142913 -3.93701e-005 0.00143307 3.14961e-005 0.00143307 0.000102362 0.00143307 0.000169291 0.00143307 0.000248031 0.00142913 0.000318898 0.00142126 0.000389764 0.00140945 0.000468504 0.00139764 0.000543307 0.00138583 0.00061811 0.00135039 0.000688976 0.00129921 0.000748031 0.00125197 0.00080315 0.00119685 0.000862205 0.00114173 0.000909449 0.00109055 0.000964567 0.00103543 0.00100787 0.000980315 0.00105118 0.00092126 0.00109843 0.000866142 0.00113386 0.000807087 0.00117323 0.000748031 0.00120472 0.000685039 0.00124016 0.000629921 0.00127165 0.000562992 0.00129528 0.000503937 0.00132283 0.000437008 0.00134252 0.000374016 0.0013622 0.000307087 0.00138189 0.000244094 0.00139764 0.000177165 0.00140945 0.000106299 0.00141732 3.93701e-005 0.00142913 -3.14961e-005 0.00143307 -0.000102362 0.00143307 -0.000169291 0.00143307 -0.000248031 0.00143307 -0.000318898 0.00142913 -0.000389764 0.00142126 -0.000468504 0.00140945 -0.000543307 0.00139764 -0.00061811 0.00138583zm0.0524882 -0.21765l0.0513071 0.0291181 -0.00046063 0.000811024 -0.000181102 0.000177165 -0.000531496 0.000877953 -0.000870079 0.00142913 -0.0010748 0.0019685 -0.00149606 0.00237008 -0.0017874 0.00297638 -0.00206299 0.00344882 -0.00220866 0.00378346 -0.00256693 0.00432677 -0.00279921 0.00473228 -0.00301181 0.00500394 -0.00309449 0.00548425 -0.00339764 0.00571654 -0.00356299 0.00614961 -0.00372047 0.00633465 -0.00374409 0.00661417 -0.00398031 0.00698819 -0.00409055 0.00711024 -0.00406693 0.00743701 -0.00425984 0.00751969 -0.00420472 0.00768504 -0.00437008 0.00784252 -0.0042874 0.00796457 -0.00441732 0.00819291 -0.00430709 0.00816535 -0.00440551 0.00822835 -0.00425984 0.00815354 -0.00433071 0.00829921 -0.00416142 0.00829134 -0.00408661 0.00816142 -0.00399213 0.00823228 -0.00400394 0.00805512 -0.0531575 -0.0254252 0.00400394 -0.00851181 0.00422835 -0.0084685 0.00431496 -0.00861811 0.00438976 -0.00852756 0.00433071 -0.00852756 0.00449606 -0.00861811 0.00440551 -0.00845669 0.00453543 -0.0083937 0.00441732 -0.00819291 0.00451575 -0.00820079 0.00437008 -0.00807087 0.00444094 -0.00792126 0.00425984 -0.00774803 0.00429528 -0.00743701 0.00409055 -0.00733858 0.00398031 -0.00698819 0.00397244 -0.00685039 0.00372047 -0.00656299 0.00356299 -0.00614961 0.00339764 -0.00594488 0.00333071 -0.00548425 0.00301181 -0.00524016 0.00279921 -0.00473228 0.00256693 -0.00432677 0.00243701 -0.00401181 0.00206299 -0.00344882 0.0017874 -0.00297638 0.00149606 -0.00259843 0.00130315 -0.0019685 0.000870079 -0.00142913 0.000531496 -0.000877953 0.000181102 -0.000413386 -0.00046063 0.000811024zm0.0508465 0.0299291l-0.0503858 -0.0307402 0.000822835 -0.00127559 0.000877953 -0.00122047 0.000929134 -0.00116535 0.000980315 -0.00110236 0.00102362 -0.00104724 0.00107087 -0.000988189 0.00111024 -0.000929134 0.00114567 -0.000870079 0.00118898 -0.000807087 0.00121654 -0.000748031 0.00125197 -0.000685039 0.00127953 -0.000622047 0.00130315 -0.000559055 0.00132677 -0.000496063 0.00135039 -0.000429134 0.00137008 -0.000366142 0.00138189 -0.00030315 0.00139764 -0.000232283 0.00140945 -0.000165354 0.00141732 -0.000102362 0.00142126 -3.14961e-005 0.0014252 3.93701e-005 0.0014252 0.000106299 0.00142126 0.000173228 0.00142126 0.000248031 0.00141339 0.000318898 0.00140157 0.000389764 0.00138976 0.00046063 0.00137795 0.000535433 0.00135827 0.000610236 0.00133858 0.000681102 0.00131496 0.000759843 0.00127559 0.000822835 0.00122047 0.000877953 0.00116535 0.000929134 0.00110236 0.000980315 0.00104724 0.00102362 0.000988189 0.00107087 0.000929134 0.00111024 0.000870079 0.00114567 0.000807087 0.00118898 0.000748031 0.00121654 0.000685039 0.00125197 0.000622047 0.00127953 0.000559055 0.00130315 0.000496063 0.00132677 0.000429134 0.00135039 0.000366142 0.00137008 0.00030315 0.00138189 0.000232283 0.00139764 0.000165354 0.00140945 0.000102362 0.00141732 3.14961e-005 0.00142126 -3.93701e-005 0.0014252 -0.000106299 0.0014252 -0.000173228 0.00142126 -0.000248031 0.00142126 -0.000318898 0.00141339 -0.000389764 0.00140157 -0.00046063 0.00138976 -0.000535433 0.00137795 -0.000610236 0.00135827 -0.000681102 0.00133858 -0.000759843 0.00131496zm0.0470276 -0.0811378l0 0.0591654 0 0 -0.00348819 -1.1811e-005 -0.00330709 0.00030315 -0.00312992 0.000255906 -0.00283465 0.000429134 -0.00277559 0.000586614 -0.00260236 0.00073622 -0.00243307 0.000633858 -0.00237795 0.000870079 -0.0022126 0.000862205 -0.00203937 0.000838583 -0.002 0.0010315 -0.00183465 0.000984252 -0.0017874 0.00103543 -0.00163386 0.0010748 -0.00147638 0.0011063 -0.00144094 0.001 -0.0012874 0.00111811 -0.00125591 0.00110236 -0.00122441 0.00096063 -0.000956693 0.00103543 -0.000933071 0.000984252 -0.000905512 0.000917323 -0.000653543 0.000838583 -0.000625984 0.000744094 -0.000610236 0.000755906 -0.000362205 0.000519685 -0.00034252 0.000385827 -0.000212598 0.000358268 -8.26772e-005 0.00019685 -7.48031e-005 2.75591e-005 4.72441e-005 7.08661e-005 0.000287402 -0.000590551 -0.0513071 -0.0291181 0.000405512 -0.000795276 0.000417323 -0.000535433 0.000531496 -0.000948819 0.000783465 -0.00112598 0.000905512 -0.00127953 0.00103543 -0.00154331 0.00128346 -0.00167717 0.00130315 -0.00167717 0.00155512 -0.00190157 0.00180315 -0.00199606 0.00183465 -0.00206693 0.00208268 -0.00214173 0.00235039 -0.00219291 0.00237402 -0.00234646 0.00264173 -0.00225984 0.00290945 -0.00227559 0.00305512 -0.00238583 0.00332677 -0.00225591 0.00348425 -0.00223228 0.0036378 -0.00219291 0.00391339 -0.00214173 0.00407874 -0.00195276 0.00435433 -0.00199606 0.00451969 -0.00178346 0.00469291 -0.00156299 0.0049685 -0.00156299 0.00514567 -0.00119291 0.0053189 -0.00105118 0.0056063 -0.000893701 0.00567323 -0.000720472 0.00585039 -0.00030315 0.0060315 -0.000216535 0 0zm0 0.0591654l0 -0.0591654 0.00152362 3.93701e-005 0.0015 0.000114173 0.00148031 0.000188976 0.00145669 0.000259843 0.00143307 0.000330709 0.00140157 0.000397638 0.00137402 0.000464567 0.00134252 0.000531496 0.00131102 0.000590551 0.00127559 0.000653543 0.00124016 0.000712598 0.00120079 0.000771654 0.00115748 0.000822835 0.00111811 0.000877953 0.0010748 0.000929134 0.00102756 0.000980315 0.000980315 0.00102756 0.000929134 0.0010748 0.000877953 0.00111811 0.000822835 0.00115748 0.000771654 0.00120079 0.000712598 0.00124016 0.000653543 0.00127559 0.000590551 0.00131102 0.000531496 0.00134252 0.000464567 0.00137402 0.000397638 0.00140157 0.000330709 0.00143307 0.000259843 0.00145669 0.000188976 0.00148031 0.000114173 0.0015 3.93701e-005 0.00152362 -3.93701e-005 0.00152362 -0.000114173 0.0015 -0.000188976 0.00148031 -0.000259843 0.00145669 -0.000330709 0.00143307 -0.000397638 0.00140157 -0.000464567 0.00137402 -0.000531496 0.00134252 -0.000590551 0.00131102 -0.000653543 0.00127559 -0.000712598 0.00124016 -0.000771654 0.00120079 -0.000822835 0.00115748 -0.000877953 0.00111811 -0.000929134 0.0010748 -0.000980315 0.00102756 -0.00102756 0.000980315 -0.0010748 0.000929134 -0.00111811 0.000877953 -0.00115748 0.000822835 -0.00120079 0.000771654 -0.00124016 0.000712598 -0.00127559 0.000653543 -0.00131102 0.000590551 -0.00134252 0.000531496 -0.00137402 0.000464567 -0.00140157 0.000397638 -0.00143307 0.000330709 -0.00145669 0.000259843 -0.00148031 0.000188976 -0.0015 0.000114173 -0.00152362 3.93701e-005zm0.561382 -0.0589331l0.00600787 0.0587008 -0.00300394 0.00011811 -0.00147244 0.000114173 -0.00429921 0 -0.00694488 0 -0.00941339 -0.000114173 -0.0117047 0 -0.0138189 0.000114173 -0.015752 0 -0.0175079 -0.000114173 -0.0190866 0.000114173 -0.0204843 0 -0.0217047 0 -0.022752 0 -0.0236142 0 -0.0242992 0 -0.0248071 -0.000114173 -0.0251378 0.000114173 -0.0252913 0 -0.0252638 -0.000114173 -0.0250551 0.000114173 -0.0246772 0 -0.0241102 0 -0.023374 0 -0.0224567 0 -0.0213583 0 -0.0200827 -0.000114173 -0.0186299 0.000114173 -0.017 0 -0.015189 0 -0.0132008 0 -0.0110354 0 -0.00869291 0 -0.00616929 0 0 -0.0591654 0.00616929 0 0.00869291 0 0.0110354 0 0.0132008 0 0.015189 0 0.017 0 0.0186299 0.000114173 0.0200827 -0.000114173 0.0213583 0 0.0224567 0 0.023374 0 0.0241102 0 0.0246772 0 0.0250551 0.000114173 0.0252638 -0.000114173 0.0252913 0 0.0251378 0.000114173 0.0248071 -0.000114173 0.0242992 0 0.0236142 0 0.022752 0 0.0217047 0 0.0204843 0 0.0190866 0.000114173 0.0175079 -0.000114173 0.015752 0 0.0138189 0.000114173 0.0117047 0 0.00941339 -0.000114173 0.00694488 0 0.00429921 0 0.00147244 0.000114173 -0.00300394 0.00011811zm0.00300394 0.0588189l0 -0.058937 0.00151575 3.93701e-005 0.00149606 0.000114173 0.00147638 0.000185039 0.00144882 0.000259843 0.0014252 0.000330709 0.00139764 0.000397638 0.00137008 0.00046063 0.00133858 0.000527559 0.00130709 0.000590551 0.00126772 0.000653543 0.00123622 0.000708661 0.00119685 0.000767717 0.00115354 0.000818898 0.00111417 0.000874016 0.00106693 0.000929134 0.00102362 0.000976378 0.000976378 0.00102362 0.000929134 0.00106693 0.000874016 0.00111417 0.000818898 0.00115354 0.000767717 0.00119685 0.000708661 0.00123622 0.000653543 0.00126772 0.000590551 0.00130709 0.000527559 0.00133858 0.00046063 0.00137008 0.000397638 0.00139764 0.000330709 0.0014252 0.000259843 0.00144882 0.000185039 0.00147638 0.000114173 0.00149606 3.93701e-005 0.00151575 -3.93701e-005 0.00151575 -0.000114173 0.00149606 -0.000185039 0.00147638 -0.000259843 0.00144882 -0.000330709 0.0014252 -0.000397638 0.00139764 -0.00046063 0.00137008 -0.000527559 0.00133858 -0.000590551 0.00130709 -0.000653543 0.00126772 -0.000708661 0.00123622 -0.000767717 0.00119685 -0.000818898 0.00115354 -0.000874016 0.00111417 -0.000929134 0.00106693 -0.000976378 0.00102362 -0.00102362 0.000976378 -0.00106693 0.000929134 -0.00111417 0.000874016 -0.00115354 0.000818898 -0.00119685 0.000767717 -0.00123622 0.000708661 -0.00126772 0.000653543 -0.00130709 0.000590551 -0.00133858 0.000527559 -0.00137008 0.00046063 -0.00139764 0.000397638 -0.0014252 0.000330709 -0.00144882 0.000259843 -0.00147638 0.000185039 -0.00149606 0.000114173 -0.00151575 3.93701e-005zm0.116594 -0.0112835l-0.0501496 0.0311969 0 0 -0.00122835 -0.00182677 -0.00133465 -0.00167717 -0.00142126 -0.0015315 -0.00159449 -0.00151575 -0.00175591 -0.00138976 -0.00189764 -0.00138976 -0.00213386 -0.00129134 -0.00223228 -0.00119291 -0.00231496 -0.00122835 -0.00249213 -0.00103937 -0.00265354 -0.000972441 -0.00267323 -0.00092126 -0.00279528 -0.000759843 -0.0028937 -0.000732283 -0.0028622 -0.000700787 -0.00291339 -0.000464567 -0.00284646 -0.000452756 -0.00286614 -0.000350394 -0.00263386 -0.000362205 -0.00273228 -0.000153543 -0.00258661 -0.00019685 -0.00240945 -0.000125984 -0.00221654 -6.69291e-005 -0.00223622 -1.5748e-005 -0.0018937 2.3622e-005 -0.00175591 5.11811e-005 -0.00136614 7.08661e-005 -0.00119685 8.26772e-005 -0.000889764 7.87402e-005 -0.000559055 7.08661e-005 -0.000326772 -7.08661e-005 0.000271654 1.9685e-005 -0.00600787 -0.0587008 0.000649606 -1.9685e-005 0.000791339 -0.000165354 0.00125197 -7.08661e-005 0.00158268 -7.87402e-005 0.00188976 -8.26772e-005 0.00229528 -7.08661e-005 0.00244882 -5.11811e-005 0.00281496 -2.3622e-005 0.00292913 1.5748e-005 0.00337402 6.69291e-005 0.00356693 0.000125984 0.00373622 0.00019685 0.00388976 0.000389764 0.00425591 0.000362205 0.00425197 0.00057874 0.00446063 0.000688976 0.00453543 0.00092126 0.00470472 0.000937008 0.00474409 0.00118898 0.00487402 0.00145276 0.00498819 0.00161417 0.00496063 0.00190157 0.00503543 0.00219685 0.00508661 0.00237795 0.00501181 0.00281496 0.00490551 0.00314173 0.00489764 0.0034685 0.00476378 0.00393307 0.00460236 0.0042874 0.00442126 0.00476772 0.0041063 0.00514173 0.00377165 0.00552756 0 0zm-0.0501496 0.0311969l0.0501496 -0.0311969 0.000771654 0.00131102 0.000692913 0.00133465 0.000622047 0.00135039 0.000547244 0.00137402 0.000476378 0.00138583 0.000401575 0.00140157 0.000330709 0.00140945 0.000259843 0.00141732 0.000185039 0.0014252 0.000122047 0.0014252 4.72441e-005 0.0014252 -1.9685e-005 0.00142126 -8.66142e-005 0.00142126 -0.000153543 0.00140945 -0.000224409 0.00139764 -0.000287402 0.00138976 -0.000354331 0.00137008 -0.00042126 0.00135433 -0.000484252 0.00133465 -0.000547244 0.00131102 -0.000610236 0.00128346 -0.000677165 0.00125984 -0.00073622 0.00122441 -0.000795276 0.00119291 -0.000862205 0.00115748 -0.000917323 0.00111811 -0.000980315 0.00107874 -0.00103937 0.00103543 -0.00109843 0.000988189 -0.00115354 0.000940945 -0.0012126 0.000889764 -0.00127165 0.000834646 -0.00131102 0.000771654 -0.00133465 0.000692913 -0.00135039 0.000622047 -0.00137402 0.000547244 -0.00138583 0.000476378 -0.00140157 0.000401575 -0.00140945 0.000330709 -0.00141732 0.000259843 -0.0014252 0.000185039 -0.0014252 0.000122047 -0.0014252 4.72441e-005 -0.00142126 -1.9685e-005 -0.00142126 -8.66142e-005 -0.00140945 -0.000153543 -0.00139764 -0.000224409 -0.00138976 -0.000287402 -0.00137008 -0.000354331 -0.00135433 -0.00042126 -0.00133465 -0.000484252 -0.00131102 -0.000547244 -0.00128346 -0.000610236 -0.00125984 -0.000677165 -0.00122441 -0.00073622 -0.00119291 -0.000795276 -0.00115748 -0.000862205 -0.00111811 -0.000917323 -0.00107874 -0.000980315 -0.00103543 -0.00103937 -0.000988189 -0.00109843 -0.000940945 -0.00115354 -0.000889764 -0.0012126 -0.000834646 -0.00127165zm0.163012 0.193441l-0.0545433 0.0228819 0 0 -0.000858268 -0.00218504 -0.00134252 -0.0029252 -0.00168504 -0.00385039 -0.00212598 -0.00449213 -0.00231102 -0.00509843 -0.00270866 -0.00565354 -0.0029685 -0.00627953 -0.00320472 -0.00662598 -0.00330709 -0.00716142 -0.00361811 -0.00742126 -0.00379134 -0.0078622 -0.00394488 -0.00814567 -0.0040748 -0.00826378 -0.00406693 -0.00856693 -0.00427559 -0.0087126 -0.00434252 -0.00869291 -0.00438583 -0.0088622 -0.00441339 -0.00875197 -0.00430315 -0.00883071 -0.00439764 -0.00862992 -0.00435827 -0.00861417 -0.00418504 -0.0083189 -0.0042126 -0.00809843 -0.00411417 -0.00783071 -0.00387008 -0.00751575 -0.00384252 -0.00715748 -0.00356299 -0.00675197 -0.00337402 -0.0061811 -0.00315748 -0.00568504 -0.0028189 -0.00514173 -0.00267323 -0.00444094 -0.00217323 -0.0035748 0.0501496 -0.0311969 0.00286614 0.00472441 0.00290945 0.00513386 0.00327559 0.0056063 0.0033937 0.00614961 0.00360236 0.00664567 0.00379134 0.00698031 0.00384252 0.00738583 0.0041063 0.00775197 0.00411417 0.00805906 0.0042126 0.00832677 0.00441339 0.00855512 0.00435827 0.00861417 0.00439764 0.00885827 0.0045315 0.00883071 0.00441339 0.00898031 0.00438583 0.0088622 0.00434252 0.00892913 0.00427559 0.0087126 0.00430315 0.00856693 0.0040748 0.00849213 0.00394488 0.00814567 0.00379134 0.0078622 0.00361811 0.00764961 0.00353543 0.00716142 0.00320472 0.0068622 0.0029685 0.00627953 0.00270866 0.00588189 0.00253937 0.00532677 0.00212598 0.00472835 0.00192126 0.00407874 0.00157087 0.00361811 0.00132283 0.00287795 0 0zm-0.0545433 0.0228819l0.0545433 -0.0228819 0.000551181 0.00141732 0.000476378 0.00142913 0.000401575 0.00143701 0.000322835 0.00144488 0.000248031 0.00144488 0.000173228 0.00144882 0.000102362 0.00144882 3.14961e-005 0.00144488 -3.93701e-005 0.00143701 -0.000106299 0.0014252 -0.000181102 0.00142126 -0.000244094 0.00140157 -0.000311024 0.00138976 -0.000377953 0.00137008 -0.000440945 0.00135039 -0.000507874 0.00132283 -0.000566929 0.00130315 -0.000629921 0.00127165 -0.000688976 0.00124016 -0.000751969 0.00120866 -0.000807087 0.00117717 -0.000866142 0.00113386 -0.000925197 0.00109449 -0.000976378 0.00105512 -0.00103543 0.00100787 -0.00108661 0.00096063 -0.00114173 0.000909449 -0.00118898 0.000858268 -0.00124409 0.00080315 -0.00129134 0.000744094 -0.00133858 0.000688976 -0.00138976 0.000622047 -0.00141732 0.000551181 -0.00142913 0.000476378 -0.00143701 0.000401575 -0.00144488 0.000322835 -0.00144488 0.000248031 -0.00144882 0.000173228 -0.00144882 0.000102362 -0.00144488 3.14961e-005 -0.00143701 -3.93701e-005 -0.0014252 -0.000106299 -0.00142126 -0.000181102 -0.00140157 -0.000244094 -0.00138976 -0.000311024 -0.00137008 -0.000377953 -0.00135039 -0.000440945 -0.00132283 -0.000507874 -0.00130315 -0.000566929 -0.00127165 -0.000629921 -0.00124016 -0.000688976 -0.00120866 -0.000751969 -0.00117717 -0.000807087 -0.00113386 -0.000866142 -0.00109449 -0.000925197 -0.00105512 -0.000976378 -0.00100787 -0.00103543 -0.00096063 -0.00108661 -0.000909449 -0.00114173 -0.000858268 -0.00118898 -0.00080315 -0.00124409 -0.000744094 -0.00129134 -0.000688976 -0.00133858 -0.000622047 -0.00138976zm0.00779528 0.166236l-0.0284252 -0.0517717 0 0 0.00474409 -0.00282677 0.00405906 -0.00286614 0.00362598 -0.00287795 0.0032126 -0.0031063 0.00282283 -0.00307874 0.00246063 -0.00326378 0.00211417 -0.00331102 0.00201969 -0.00345276 0.0016063 -0.00357087 0.00144488 -0.00366929 0.00118898 -0.00386614 0.00107087 -0.00403543 0.000740157 -0.00407087 0.000547244 -0.00420472 0.00038189 -0.00431102 0.00023622 -0.00439764 -7.87402e-006 -0.00446063 -0.000220472 -0.00451181 -0.000299213 -0.00441732 -0.000476378 -0.00430315 -0.000625984 -0.00439764 -0.000755906 -0.00424803 -0.000866142 -0.00406693 -0.000830709 -0.00398819 -0.00101575 -0.00376772 -0.000937008 -0.00364173 -0.0010748 -0.00338583 -0.000952756 -0.00309843 -0.00104724 -0.00279528 -0.00088189 -0.00259055 -0.000814961 -0.00212598 -0.000838583 -0.00175591 0.0545433 -0.0228819 0.00106693 0.00291339 0.00127953 0.00328346 0.00134646 0.00351181 0.00127559 0.00395276 0.00141732 0.00425591 0.00130315 0.00453543 0.00140157 0.00479921 0.00124409 0.00515354 0.00129528 0.00537402 0.00109449 0.00568898 0.000984252 0.0058622 0.000862205 0.00601969 0.000704724 0.00638189 0.000535433 0.00649606 0.000220472 0.00659055 7.87402e-006 0.00677559 -0.00023622 0.00694094 -0.00061811 0.00708268 -0.00101181 0.00720472 -0.00143307 0.00730709 -0.00176378 0.00727165 -0.00233858 0.00733071 -0.00283071 0.00737008 -0.00345669 0.00727165 -0.00387008 0.00714567 -0.00465748 0.00701181 -0.00523228 0.00672835 -0.00583071 0.00655118 -0.00644882 0.0061063 -0.00709055 0.00588583 -0.00775984 0.00540945 -0.00820866 0.00490551 0 0zm-0.0284252 -0.0517717l0.0284252 0.0517717 -0.00135039 0.00069685 -0.00137008 0.000622047 -0.00138583 0.000547244 -0.00139764 0.000472441 -0.00141339 0.000397638 -0.00141732 0.000326772 -0.00142913 0.000251969 -0.00142913 0.000181102 -0.00143307 0.000110236 -0.00142913 4.33071e-005 -0.0014252 -2.75591e-005 -0.00142126 -9.84252e-005 -0.00140945 -0.000165354 -0.00140157 -0.000232283 -0.00138583 -0.000295276 -0.00137008 -0.000362205 -0.00135039 -0.000429134 -0.00133071 -0.000492126 -0.00130315 -0.000559055 -0.00127953 -0.00061811 -0.00124803 -0.000681102 -0.00122047 -0.000740157 -0.00118504 -0.00080315 -0.00114567 -0.000862205 -0.00111024 -0.00092126 -0.00106693 -0.000976378 -0.00102362 -0.00103937 -0.000976378 -0.00109055 -0.000929134 -0.00114961 -0.000874016 -0.00120472 -0.000822835 -0.00125984 -0.00076378 -0.00131496 -0.00069685 -0.00135039 -0.000622047 -0.00137008 -0.000547244 -0.00138583 -0.000472441 -0.00139764 -0.000397638 -0.00141339 -0.000326772 -0.00141732 -0.000251969 -0.00142913 -0.000181102 -0.00142913 -0.000110236 -0.00143307 -4.33071e-005 -0.00142913 2.75591e-005 -0.0014252 9.84252e-005 -0.00142126 0.000165354 -0.00140945 0.000232283 -0.00140157 0.000295276 -0.00138583 0.000366142 -0.00137008 0.000425197 -0.00135039 0.000492126 -0.00133071 0.000559055 -0.00130315 0.00061811 -0.00127953 0.000681102 -0.00124803 0.000740157 -0.00122047 0.00080315 -0.00118504 0.000862205 -0.00114567 0.00092126 -0.00111024 0.000976378 -0.00106693 0.00103937 -0.00102362 0.00109055 -0.000976378 0.00114961 -0.000929134 0.00120472 -0.000874016 0.00125984 -0.000822835 0.00131496 -0.00076378zm-0.15515 -0.0278622l-0.0536142 -0.0249606 0.0555787 0.0058937 0.00137402 0.005 0.00162992 0.0048189 0.00210236 0.00451575 0.00232283 0.00443701 0.00262598 0.00412992 0.00291732 0.00393307 0.0031811 0.00385039 0.00354331 0.00352756 0.00387795 0.00343701 0.0040748 0.00323228 0.00448819 0.00312992 0.00463386 0.00280315 0.00488976 0.00258268 0.00522441 0.0023622 0.00531496 0.0021378 0.00561417 0.00190945 0.00564961 0.0016811 0.00590945 0.00133071 0.00590157 0.000976378 0.00611024 0.000858268 0.0061811 0.000492126 0.00622835 0.000248031 0.00636614 -0.000114173 0.0061378 -0.000480315 0.00623622 -0.000622047 0.00607874 -0.000992126 0.00612992 -0.00125591 0.00592913 -0.0016378 0.00581496 -0.00190551 0.00580315 -0.00216929 0.0055315 -0.00244882 0.0053622 -0.00283858 0.0284252 0.0517717 -0.0083622 0.00422441 -0.00853937 0.00383465 -0.0085748 0.00332677 -0.00882283 0.00282677 -0.00892913 0.00233071 -0.00890157 0.00194882 -0.00908661 0.00145669 -0.00900787 0.00108661 -0.00914567 0.000480315 -0.00890945 0.000114173 -0.009 -0.000248031 -0.00895276 -0.000728346 -0.00888189 -0.00108661 -0.00890945 -0.00166929 -0.0086811 -0.00202362 -0.00865748 -0.00237402 -0.00838583 -0.00283858 -0.00831496 -0.0032874 -0.00800394 -0.00375591 -0.00788976 -0.00419685 -0.00764173 -0.00465354 -0.00725984 -0.00498031 -0.00708268 -0.00553937 -0.00664961 -0.00598031 -0.00631496 -0.00653543 -0.00595276 -0.00685039 -0.00546063 -0.00739764 -0.00494094 -0.00783071 -0.00440157 -0.0081378 -0.00371654 -0.00867323 -0.00325197 -0.00897638 -0.00252362 -0.0093937 0.0555787 0.0058937zm0.00196457 -0.0190669l-0.0575433 0.0131732 -0.000299213 -0.00148819 -0.000224409 -0.00148819 -0.000145669 -0.00148031 -7.08661e-005 -0.00147638 0 -0.00146457 7.48031e-005 -0.00145276 0.000149606 -0.00144094 0.000216535 -0.0014252 0.000283465 -0.00140551 0.000350394 -0.00138976 0.000417323 -0.0013622 0.000480315 -0.00133858 0.000543307 -0.00131102 0.000606299 -0.00128346 0.000665354 -0.00125197 0.000724409 -0.00121654 0.000779528 -0.0011811 0.000838583 -0.00114173 0.000889764 -0.0011063 0.000944882 -0.00105906 0.000996063 -0.00101575 0.00104724 -0.000968504 0.00109449 -0.000917323 0.00114173 -0.000870079 0.00118898 -0.000814961 0.00123228 -0.000755906 0.00127559 -0.000700787 0.0013189 -0.000641732 0.00135827 -0.000574803 0.00139764 -0.000511811 0.00143701 -0.000444882 0.00147244 -0.000377953 0.00148819 -0.000299213 0.00148819 -0.000224409 0.00148031 -0.000145669 0.00147638 -7.08661e-005 0.00146457 0 0.00145276 7.48031e-005 0.00144094 0.000149606 0.0014252 0.000216535 0.00140551 0.000283465 0.00138976 0.000350394 0.0013622 0.000417323 0.00133858 0.000480315 0.00131102 0.000543307 0.00128346 0.000606299 0.00125197 0.000665354 0.00121654 0.000724409 0.0011811 0.000779528 0.00114173 0.000838583 0.0011063 0.000889764 0.00105906 0.000944882 0.00101575 0.000996063 0.000968504 0.00104724 0.000917323 0.00109449 0.000870079 0.00114173 0.000814961 0.00118898 0.000755906 0.00123228 0.000700787 0.00127559 0.000641732 0.0013189 0.000574803 0.00135827 0.000511811 0.00139764 0.000444882 0.00143701 0.000377953 0.00147244zm-0.140945 0.120441l-0.00185039 -0.058937 0 0 0.00482677 -0.000366142 0.00472441 -0.000429134 0.00440551 -0.000700787 0.00430709 -0.000964567 0.00399213 -0.000984252 0.00390551 -0.00132677 0.00370866 -0.0013189 0.00362992 -0.00151969 0.00343701 -0.00171654 0.00336614 -0.00188583 0.00318898 -0.00192913 0.00311811 -0.00196063 0.00305906 -0.0022126 0.00288583 -0.00232677 0.0027126 -0.00243307 0.00266535 -0.00240551 0.00261811 -0.00259449 0.00245669 -0.00264961 0.00241339 -0.00270079 0.00225984 -0.00273228 0.00223228 -0.00274409 0.0020748 -0.00286614 0.00194094 -0.00285433 0.00191339 -0.00282283 0.00177953 -0.00278346 0.00164173 -0.00272835 0.00151575 -0.00277559 0.0015 -0.00268898 0.00138189 -0.00259449 0.00126378 -0.00259055 0.00125591 -0.00235433 0.00103543 -0.00243701 0.0536142 0.0249606 -0.00149213 0.00290157 -0.00149213 0.00327559 -0.00172047 0.00328346 -0.00184646 0.00351575 -0.00196457 0.00361811 -0.00220866 0.00369685 -0.00233465 0.00388583 -0.00247244 0.00394094 -0.0026063 0.00398031 -0.0028622 0.00400394 -0.00300394 0.00402362 -0.00315354 0.00412992 -0.00341732 0.00411811 -0.00357087 0.00408661 -0.00384252 0.00404331 -0.00400394 0.00398031 -0.00427953 0.00401969 -0.00456299 0.0038189 -0.00473622 0.0037126 -0.00490945 0.00359843 -0.00519685 0.00358268 -0.00549606 0.00331496 -0.0056811 0.00304331 -0.00598031 0.00286614 -0.00617323 0.00267717 -0.00648031 0.00247638 -0.00667717 0.00201969 -0.007 0.00190551 -0.00707874 0.00142913 -0.00740551 0.00116535 -0.00750394 0.000893701 -0.00782677 0.000366142 0 0zm-0.00185039 -0.058937l0.00185039 0.058937 -0.00151575 7.87402e-006 -0.0015 -6.69291e-005 -0.00148031 -0.000141732 -0.00146063 -0.000212598 -0.00143701 -0.000283465 -0.00140945 -0.000354331 -0.00138583 -0.00042126 -0.00135433 -0.000484252 -0.00132283 -0.000551181 -0.00129134 -0.000610236 -0.00125591 -0.000669291 -0.00122047 -0.000728346 -0.0011811 -0.000787402 -0.00114173 -0.000838583 -0.00109843 -0.000893701 -0.00105118 -0.000944882 -0.00101181 -0.000992126 -0.000956693 -0.00103937 -0.000909449 -0.00108661 -0.000858268 -0.00112992 -0.000807087 -0.00116929 -0.000748031 -0.0012126 -0.000688976 -0.00125197 -0.000633858 -0.00128346 -0.000566929 -0.00132283 -0.000507874 -0.00135433 -0.000440945 -0.00138583 -0.000374016 -0.00141732 -0.00030315 -0.00144094 -0.000232283 -0.0014685 -0.000161417 -0.00149213 -8.66142e-005 -0.00151575 -7.87402e-006 -0.00151575 6.69291e-005 -0.0015 0.000141732 -0.00148031 0.000212598 -0.00146063 0.000283465 -0.00143701 0.000354331 -0.00140945 0.00042126 -0.00138583 0.000484252 -0.00135433 0.000551181 -0.00132283 0.000610236 -0.00129134 0.000669291 -0.00125591 0.000732283 -0.00122047 0.000783465 -0.0011811 0.000838583 -0.00114173 0.000893701 -0.00109843 0.000944882 -0.00105512 0.000992126 -0.00100787 0.00103937 -0.000956693 0.00108661 -0.000909449 0.00112992 -0.000858268 0.00116929 -0.000807087 0.0012126 -0.000748031 0.00125197 -0.000688976 0.00128346 -0.000633858 0.00132283 -0.000566929 0.00135433 -0.000507874 0.00138583 -0.000440945 0.00141732 -0.000374016 0.00144094 -0.00030315 0.0014685 -0.000232283 0.00149213 -0.000161417 0.00151575 -8.66142e-005zm-0.100142 -0.0424685l-0.0554646 -0.0201102 0.0556969 0.000811024 0.00194094 0.00559055 0.00200787 0.00528346 0.00195669 0.00487008 0.00202756 0.00446457 0.00199606 0.00418504 0.00207874 0.00390157 0.00194094 0.00351575 0.00202756 0.00313386 0.00202362 0.00287795 0.00201575 0.00262205 0.00212598 0.00237795 0.00201575 0.00213386 0.00202756 0.00190157 0.00215354 0.0017874 0.00217717 0.00157087 0.00220472 0.00147244 0.0024685 0.00126378 0.00250787 0.00129528 0.00266535 0.00120866 0.00294882 0.00102362 0.00323228 0.00107087 0.00340945 0.000897638 0.0037126 0.000724409 0.0038937 0.000795276 0.00432283 0.000633858 0.00451969 0.000488189 0.00484646 0.000338583 0.00505906 0.000318898 0.0055 0.000185039 0.00572835 6.29921e-005 0.00607087 -5.90551e-005 0.00630315 -0.000169291 0.00185039 0.058937 -0.00723228 0.000169291 -0.00699213 5.90551e-005 -0.00688583 -6.29921e-005 -0.00665748 -0.000185039 -0.00667323 -0.000318898 -0.00646063 -0.000574803 -0.00637008 -0.000716535 -0.00617323 -0.000870079 -0.00620866 -0.00102362 -0.00601969 -0.00141732 -0.00595276 -0.00159055 -0.00577559 -0.00176378 -0.00572047 -0.0021811 -0.00567323 -0.00236614 -0.00550787 -0.0026811 -0.00524016 -0.0031063 -0.0052126 -0.00332283 -0.00494882 -0.00364961 -0.00469685 -0.00387402 -0.00457087 -0.00420866 -0.00432283 -0.00444882 -0.00397638 -0.00468504 -0.00386614 -0.00493701 -0.0036378 -0.00518504 -0.00342126 -0.00544882 -0.00332677 -0.00559449 -0.003 -0.00575197 -0.00291732 -0.00602756 -0.00272835 -0.00631496 -0.00264961 -0.00649213 -0.00246457 -0.00666929 -0.00240551 -0.00697638 0.0556969 0.000811024zm0.000232283 -0.0192992l-0.0559291 0.0184882 -0.000440945 -0.00144882 -0.000358268 -0.00145669 -0.000287402 -0.00146063 -0.000208661 -0.00145669 -0.000133858 -0.00145669 -6.29921e-005 -0.00145276 1.1811e-005 -0.00144094 8.26772e-005 -0.00143701 0.000149606 -0.0014252 0.000220472 -0.00140945 0.000283465 -0.0013937 0.000354331 -0.00137402 0.000417323 -0.00135433 0.000480315 -0.00133071 0.000543307 -0.00130709 0.000606299 -0.00127559 0.000665354 -0.00124803 0.000724409 -0.00121654 0.000779528 -0.00117717 0.000838583 -0.00114173 0.000893701 -0.00110236 0.000948819 -0.00106299 0.00100394 -0.00101575 0.00105118 -0.000968504 0.0011063 -0.00092126 0.00115354 -0.000870079 0.00120079 -0.000814961 0.00124803 -0.000759843 0.00129921 -0.000700787 0.00133858 -0.000637795 0.00138583 -0.00057874 0.0014252 -0.000511811 0.00144882 -0.000440945 0.00145669 -0.000358268 0.00146063 -0.000287402 0.00145669 -0.000208661 0.00145669 -0.000133858 0.00145276 -6.29921e-005 0.00144094 1.1811e-005 0.00143701 8.26772e-005 0.0014252 0.000149606 0.00140945 0.000220472 0.0013937 0.000283465 0.00137402 0.000354331 0.00135433 0.000417323 0.00133071 0.000480315 0.00130709 0.000543307 0.00127559 0.000606299 0.00124803 0.000665354 0.00121654 0.000724409 0.00117717 0.000779528 0.00114173 0.000838583 0.00110236 0.000893701 0.00106299 0.000948819 0.00101575 0.00100394 0.000968504 0.00105118 0.00092126 0.0011063 0.000870079 0.00115354 0.000814961 0.00120079 0.000759843 0.00124803 0.000700787 0.00129921 0.000637795 0.00133858 0.00057874 0.00138583 0.000511811 0.0014252zm-0.136555 0.123114l-0.00185039 -0.058937 0 0 0.00459843 -0.000283465 0.00451575 -0.000629921 0.00420079 -0.000712598 0.00423228 -0.00101575 0.00392126 -0.00117717 0.00384252 -0.00133071 0.00376378 -0.00156693 0.00368898 -0.00179134 0.00349606 -0.00187795 0.00341732 -0.00205906 0.00323228 -0.00222835 0.00316142 -0.00224803 0.00308661 -0.00249606 0.00301969 -0.00248425 0.00283465 -0.00268504 0.00276772 -0.00275197 0.00258661 -0.00279528 0.00251969 -0.00282283 0.00234252 -0.00283465 0.00227953 -0.0028189 0.00198819 -0.00290157 0.00204331 -0.00274016 0.00175197 -0.00277953 0.00169685 -0.00269685 0.00152362 -0.0024685 0.00135433 -0.00245276 0.00118504 -0.00230315 0.00101575 -0.00213386 0.000968504 -0.00183465 0.000677165 -0.00162598 0.000637795 -0.00140157 0.000358268 -0.00103937 0.0554646 0.0201102 -0.00105118 0.00265354 -0.00109449 0.0027874 -0.00137795 0.00301181 -0.0014252 0.00322047 -0.00170866 0.00329134 -0.00187795 0.00346063 -0.00204724 0.00361024 -0.00221654 0.00385433 -0.00238976 0.00384646 -0.0026811 0.00393701 -0.00273622 0.00412598 -0.00314567 0.00405906 -0.00320079 0.00420472 -0.0035 0.00422047 -0.00367717 0.00420866 -0.00397244 0.00418898 -0.00415354 0.0041378 -0.00444882 0.00407087 -0.00464173 0.00409843 -0.00493701 0.00388189 -0.00524016 0.00387008 -0.00553937 0.00361417 -0.00573228 0.00344488 -0.00603937 0.00326378 -0.00622441 0.00294882 -0.00654331 0.00272441 -0.00684252 0.00248031 -0.00715748 0.0021063 -0.00724016 0.00170866 -0.00766535 0.00140551 -0.00775197 0.000858268 -0.00806299 0.000519685 0 0zm-0.00185039 -0.058937l0.00185039 0.058937 -0.00151575 7.87402e-006 -0.0015 -6.69291e-005 -0.00148031 -0.000141732 -0.00146063 -0.000212598 -0.00143701 -0.000283465 -0.00140945 -0.000354331 -0.00138583 -0.00042126 -0.00135433 -0.000484252 -0.00132283 -0.000551181 -0.00129134 -0.000610236 -0.00125591 -0.000669291 -0.00122047 -0.000728346 -0.0011811 -0.000787402 -0.00114173 -0.000838583 -0.00109843 -0.000893701 -0.00105512 -0.000944882 -0.00100787 -0.000992126 -0.000956693 -0.00103937 -0.000909449 -0.00108661 -0.000858268 -0.00112992 -0.000807087 -0.00116929 -0.000748031 -0.0012126 -0.000688976 -0.00125197 -0.000633858 -0.00128346 -0.000566929 -0.00132283 -0.000507874 -0.00135433 -0.000440945 -0.00138583 -0.000374016 -0.00141732 -0.00030315 -0.00144094 -0.000232283 -0.0014685 -0.000161417 -0.00149213 -8.66142e-005 -0.00151575 -7.87402e-006 -0.00151575 6.69291e-005 -0.0015 0.000141732 -0.00148031 0.000212598 -0.00146063 0.000283465 -0.00143701 0.000354331 -0.00140945 0.00042126 -0.00138583 0.000484252 -0.00135433 0.000551181 -0.00132283 0.000610236 -0.00129134 0.000669291 -0.00125591 0.000728346 -0.00122047 0.000787402 -0.0011811 0.000838583 -0.00114173 0.000893701 -0.00109843 0.000944882 -0.00105512 0.000992126 -0.00100787 0.00103937 -0.000956693 0.00108661 -0.000909449 0.00112992 -0.000858268 0.00116929 -0.000807087 0.0012126 -0.000748031 0.00125197 -0.000688976 0.00128346 -0.000633858 0.00132283 -0.000566929 0.00135433 -0.000507874 0.00138583 -0.000440945 0.00141732 -0.000374016 0.00144094 -0.00030315 0.0014685 -0.000232283 0.00149213 -0.000161417 0.00151575 -8.66142e-005zm-0.110126 -0.054748l-0.0570866 -0.0147874 0.0576614 0.00253937 0.00103937 0.00513386 0.00107087 0.00474016 0.00144882 0.0044685 0.00147638 0.00419685 0.00159843 0.00393307 0.00184646 0.00366929 0.00196457 0.00341732 0.0020748 0.00327559 0.00217717 0.00302756 0.00227559 0.0027874 0.00248425 0.00265748 0.0026811 0.00254331 0.00276378 0.00242126 0.00294488 0.00219685 0.00312598 0.00220472 0.0031811 0.00198031 0.00346457 0.00188583 0.00373622 0.00179134 0.00377559 0.00158268 0.00403543 0.00149213 0.00417323 0.00141339 0.00430709 0.00122047 0.00454331 0.00114567 0.00466535 0.000956693 0.00488976 0.000893701 0.00499213 0.000598425 0.00509055 0.000653543 0.00530315 0.000370079 0.00537795 0.000322835 0.0055748 0.000161417 0.00575984 3.93701e-006 0.00570866 -0.000149606 0.00185039 0.058937 -0.00709449 0.000149606 -0.00691732 -3.93701e-006 -0.00696063 -0.000161417 -0.007 -0.000322835 -0.00691732 -0.000606299 -0.00694094 -0.000653543 -0.00684252 -0.00106299 -0.00674016 -0.00112205 -0.00674409 -0.00142126 -0.00662205 -0.00160236 -0.00661417 -0.00191339 -0.00648819 -0.0021063 -0.00634252 -0.00242126 -0.0063189 -0.00274016 -0.00605118 -0.00294094 -0.00600787 -0.00327165 -0.00595276 -0.00360236 -0.00566929 -0.0038189 -0.00548819 -0.00427559 -0.00529921 -0.00450787 -0.00499606 -0.00485039 -0.00479134 -0.00520079 -0.00459055 -0.00555906 -0.00425591 -0.00579921 -0.0039252 -0.00605512 -0.00357874 -0.00641732 -0.00323228 -0.00667717 -0.00299213 -0.00693307 -0.00262598 -0.00720472 -0.00214173 -0.0074685 -0.002 -0.00774803 -0.00149606 -0.00790551 0.0576614 0.00253937zm0.000574803 -0.012248l-0.0582362 0.00970866 -0.000212598 -0.00150394 -0.000133858 -0.00149606 -5.51181e-005 -0.00148819 1.5748e-005 -0.00147638 9.05512e-005 -0.00146457 0.000161417 -0.00144882 0.000232283 -0.00142913 0.00030315 -0.00140945 0.000366142 -0.00138583 0.000437008 -0.0013622 0.000496063 -0.00133858 0.000559055 -0.00130709 0.000622047 -0.00127559 0.000681102 -0.00124409 0.000740157 -0.00120866 0.000795276 -0.00117323 0.000850394 -0.00113386 0.000905512 -0.00109055 0.000952756 -0.00104724 0.00100787 -0.00100394 0.00105512 -0.000952756 0.00110236 -0.000905512 0.00114961 -0.000850394 0.00118898 -0.000799213 0.00123622 -0.000744094 0.00127559 -0.000681102 0.0013189 -0.000622047 0.00135433 -0.000559055 0.00138976 -0.000496063 0.0014252 -0.000429134 0.00146063 -0.000358268 0.00149213 -0.000287402 0.00150394 -0.000212598 0.00149606 -0.000133858 0.00148819 -5.51181e-005 0.00147638 1.5748e-005 0.00146457 9.05512e-005 0.00144882 0.000161417 0.00142913 0.000232283 0.00140945 0.00030315 0.00138583 0.000366142 0.0013622 0.000437008 0.00133858 0.000496063 0.00130709 0.000559055 0.00127559 0.000622047 0.00124409 0.000681102 0.00120866 0.000740157 0.00117323 0.000795276 0.00113386 0.000850394 0.00109055 0.000905512 0.00104724 0.000952756 0.00100394 0.00100787 0.000952756 0.00105512 0.000905512 0.00110236 0.000850394 0.00114961 0.000799213 0.00118898 0.000744094 0.00123622 0.000681102 0.00127559 0.000622047 0.0013189 0.000559055 0.00135433 0.000496063 0.00138976 0.000429134 0.0014252 0.000358268 0.00146063 0.000287402 0.00149213zm-0.0576614 -0.00253937l0.0285433 0.0073937 0 0 0 0 0 0 -0.0285433 -0.0073937zm0.0576614 0.00253937l-0.0582362 0.00970866 -0.000212598 -0.00150394 -0.000133858 -0.00149606 -5.51181e-005 -0.00148819 1.5748e-005 -0.00147638 9.05512e-005 -0.00146457 0.000161417 -0.00144882 0.000232283 -0.00142913 0.00030315 -0.00140945 0.000366142 -0.00138583 0.000437008 -0.0013622 0.000496063 -0.00133858 0.000559055 -0.00130709 0.000622047 -0.00127559 0.000681102 -0.00124409 0.000740157 -0.00120866 0.000795276 -0.00117323 0.000850394 -0.00113386 0.000905512 -0.00109055 0.000952756 -0.00104724 0.00100787 -0.00100394 0.00105512 -0.000952756 0.00110236 -0.000905512 0.00114961 -0.000850394 0.00118898 -0.000799213 0.00123622 -0.000744094 0.00127559 -0.000681102 0.0013189 -0.000622047 0.00135433 -0.000559055 0.00138976 -0.000496063 0.0014252 -0.000429134 0.00146063 -0.000358268 0.00149213 -0.000287402 0.00150394 -0.000212598 0.00149606 -0.000133858 0.00148819 -5.51181e-005 0.00147638 1.5748e-005 0.00146457 9.05512e-005 0.00144882 0.000161417 0.00142913 0.000232283 0.00140945 0.00030315 0.00138583 0.000366142 0.0013622 0.000437008 0.00133858 0.000496063 0.00130709 0.000559055 0.00127559 0.000622047 0.00124409 0.000681102 0.00120866 0.000740157 0.00117323 0.000795276 0.00113386 0.000850394 0.00109055 0.000905512 0.00104724 0.000952756 0.00100394 0.00100787 0.000952756 0.00105512 0.000905512 0.00110236 0.000850394 0.00114961 0.000799213 0.00118898 0.000744094 0.00123622 0.000681102 0.00127559 0.000622047 0.0013189 0.000559055 0.00135433 0.000496063 0.00138976 0.000429134 0.0014252 0.000358268 0.00146063 0.000287402 0.00149213z"/>
   </g>
   <path id="_103838192" class="fil3" d="M0.343846 0.760803l0.062811 0c-0.000161417,0.00114567 -0.00023622,0.00231102 -0.00023622,0.00349606l0 0.308705c0,0.0138543 0.0113228,0.0251772 0.0251772,0.0251772l0.642843 0c0.0138543,0 0.0251772,-0.0113228 0.0251772,-0.0251772l0 -0.308705c0,-0.00118504 -0.000102362,-0.00235039 -0.00026378,-0.00349606l0.0568189 0 0 0.325051c0,0.0405787 -0.0331969,0.0737756 -0.0737756,0.0737756l-0.664776 0c-0.0405748,0 -0.0737756,-0.0331969 -0.0737756,-0.0737756l0 -0.325051 0 0z"/>
  </g>
  <rect class="fil4 str1" x="0.0274095" y="0.0274095" width="1.44518" height="1.44518" rx="0.216634" ry="0.216634"/>
 </g>
</svg>
