<?xml version="1.0" encoding="UTF-8"?>
<!DOCTYPE svg PUBLIC "-//W3C//DTD SVG 1.1//EN" "http://www.w3.org/Graphics/SVG/1.1/DTD/svg11.dtd">
<!-- Creator: CorelDRAW -->
<svg xmlns="http://www.w3.org/2000/svg" xml:space="preserve" width="2in" height="2in" style="shape-rendering:geometricPrecision; text-rendering:geometricPrecision; image-rendering:optimizeQuality; fill-rule:evenodd; clip-rule:evenodd"
viewBox="0 0 2 2"
 xmlns:xlink="http://www.w3.org/1999/xlink">
 <defs>
  <style type="text/css">
   <![CDATA[
    .fil3 {fill:#1F1A17}
    .fil0 {fill:white}
    .fil1 {fill:#9E6CA1}
    .fil2 {fill:#1F1A17;fill-rule:nonzero}
   ]]>
  </style>
 </defs>
 <g id="Layer_x0020_1">
  <metadata id="CorelCorpID_0Corel-Layer"/>
  <path class="fil0" d="M1 0.130016c0.480398,0 0.869984,0.389587 0.869984,0.869984 0,0.480398 -0.389587,0.869984 -0.869984,0.869984 -0.480398,0 -0.869984,-0.389587 -0.869984,-0.869984 0,-0.480398 0.389587,-0.869984 0.869984,-0.869984z"/>
  <g>
   <path class="fil1" d="M0.692374 0.452528l0.640004 0c0.0525709,0 0.0955827,0.0430157 0.0955827,0.0955827l0 0.858287c0,0.0525669 -0.0430157,0.0955827 -0.0955827,0.0955827l-0.640004 0c-0.0525669,0 -0.0955827,-0.0430118 -0.0955827,-0.0955827l0 -0.858287c0,-0.0525709 0.0430118,-0.0955827 0.0955827,-0.0955827z"/>
   <path id="1" class="fil2" d="M1.33238 0.487252l0 0 -0.640004 0 0 -0.0694488 0.640004 0 0 0.0694488zm0.130307 0.0608583l-0.0694488 0 0 0 1.1811e-005 -0.00313386 -0.00023622 -0.0032126 -0.000472441 -0.00300394 -0.000440945 -0.00293307 -0.000661417 -0.00285039 -0.000885827 -0.00290157 -0.000964567 -0.00280315 -0.00104331 -0.00270866 -0.00124409 -0.00274016 -0.00129921 -0.00262598 -0.00149606 -0.00251181 -0.0016811 -0.00251969 -0.00158268 -0.00239764 -0.00189764 -0.00225591 -0.00192126 -0.00225197 -0.00195276 -0.00210236 -0.00224016 -0.00208661 -0.00225197 -0.0019252 -0.00225591 -0.0018937 -0.0023937 -0.00172441 -0.00252362 -0.00154331 -0.00250787 -0.00149213 -0.00262992 -0.00130315 -0.00273622 -0.00124409 -0.0027126 -0.00103937 -0.00280315 -0.000968504 -0.00290157 -0.000885827 -0.00285039 -0.000661417 -0.00292913 -0.000440945 -0.00300787 -0.000472441 -0.0032126 -0.00023622 -0.00313386 1.1811e-005 0 -0.0694488 0.00666142 0.00026378 0.00646457 0.000503937 0.00653543 0.000748031 0.00645669 0.00125197 0.00637795 0.00148031 0.00615354 0.00169685 0.00606299 0.00205512 0.00596457 0.0023937 0.00572047 0.00259843 0.00561417 0.00293307 0.00549213 0.00312205 0.00524016 0.00344094 0.00510236 0.00362205 0.00497244 0.00379134 0.00469291 0.00409843 0.00440551 0.00425197 0.0043937 0.00454331 0.00409449 0.00469291 0.00379528 0.00497244 0.00375591 0.0051063 0.00330315 0.00523622 0.00312598 0.00549606 0.00292913 0.00561024 0.00259843 0.00572441 0.00239764 0.00596063 0.00205118 0.00606299 0.00169685 0.00615354 0.00148031 0.00637795 0.00125197 0.00646063 0.000748031 0.0065315 0.000503937 0.00646457 0.00026378 0.00666142 0 0zm-0.0694488 0.858287l0 0 0 -0.858287 0.0694488 0 0 0.858287 -0.0694488 0zm-0.0608583 0.130307l0 -0.0694488 0 0 0.00313386 1.1811e-005 0.0032126 -0.00023622 0.00300394 -0.000472441 0.00293307 -0.000440945 0.00285039 -0.000661417 0.00290157 -0.000885827 0.00280315 -0.000968504 0.00270866 -0.00103937 0.00274016 -0.00124409 0.00262598 -0.00130315 0.00251181 -0.00149213 0.00251969 -0.00154331 0.00239764 -0.00172441 0.00225591 -0.0018937 0.00225197 -0.0019252 0.00210236 -0.00208661 0.00208661 -0.00210236 0.0019252 -0.00225197 0.0018937 -0.00225591 0.00172441 -0.00239764 0.00154331 -0.00251969 0.00149213 -0.00251181 0.00130315 -0.00262598 0.00124409 -0.00274016 0.00103937 -0.00270866 0.000968504 -0.00280315 0.000885827 -0.00290157 0.000661417 -0.00285039 0.000440945 -0.00293307 0.000472441 -0.00300394 0.00023622 -0.0032126 -1.1811e-005 -0.00313386 0.0694488 0 -0.00026378 0.00666142 -0.000503937 0.00646457 -0.000748031 0.0065315 -0.00125197 0.00646063 -0.00148031 0.00637795 -0.00169685 0.00615354 -0.00205512 0.00606299 -0.0023937 0.00596063 -0.00259843 0.00572441 -0.00293307 0.00561024 -0.00312205 0.00549606 -0.00344094 0.00523622 -0.00362205 0.0051063 -0.00379134 0.00497244 -0.00409843 0.00469291 -0.00425197 0.00454331 -0.00454331 0.00425197 -0.00469291 0.00409843 -0.00497244 0.00379134 -0.0051063 0.00362205 -0.00523622 0.00344094 -0.00549606 0.00312205 -0.00561024 0.00293307 -0.00572441 0.00259843 -0.00596063 0.0023937 -0.00606299 0.00205512 -0.00615354 0.00169685 -0.00637795 0.00148031 -0.00646063 0.00125197 -0.0065315 0.000748031 -0.00646457 0.000503937 -0.00666142 0.00026378 0 0zm-0.640004 -0.0694488l0 0 0.640004 0 0 0.0694488 -0.640004 0 0 -0.0694488zm-0.130307 -0.0608583l0.0694488 0 0 0 -1.1811e-005 0.00313386 0.00023622 0.0032126 0.000472441 0.00300787 0.000440945 0.00292913 0.000661417 0.00285039 0.000885827 0.00290157 0.000968504 0.00280315 0.00103937 0.0027126 0.00124409 0.00273622 0.00130315 0.00262992 0.00149213 0.00250787 0.00154331 0.00252362 0.00172441 0.0023937 0.0018937 0.00225591 0.0019252 0.00225197 0.00208661 0.00224016 0.00210236 0.00195276 0.00225197 0.00192126 0.00225591 0.00189764 0.00239764 0.00158268 0.00251969 0.0016811 0.00251181 0.00149606 0.00262598 0.00129921 0.00274016 0.00124409 0.00270866 0.00104331 0.00280315 0.000964567 0.00290157 0.000885827 0.00285039 0.000661417 0.00293307 0.000440945 0.00300394 0.000472441 0.0032126 0.00023622 0.00313386 -1.1811e-005 0 0.0694488 -0.00666142 -0.00026378 -0.00646457 -0.000503937 -0.0065315 -0.000748031 -0.00646063 -0.00125197 -0.00637795 -0.00148031 -0.00615354 -0.00169685 -0.00606299 -0.00205118 -0.00596063 -0.00239764 -0.00572441 -0.00259843 -0.00561024 -0.00292913 -0.00549606 -0.00312598 -0.00523622 -0.00330315 -0.0051063 -0.00375591 -0.00497244 -0.00379528 -0.00469291 -0.00409449 -0.00454331 -0.0043937 -0.00425197 -0.00440551 -0.00409843 -0.00469291 -0.00379134 -0.00497244 -0.00362205 -0.00510236 -0.00344094 -0.00524016 -0.00312205 -0.00549213 -0.00293307 -0.00561417 -0.00259843 -0.00572047 -0.0023937 -0.00596457 -0.00205512 -0.00606299 -0.00169685 -0.00615354 -0.00148031 -0.00637795 -0.00125197 -0.00645669 -0.000748031 -0.00653543 -0.000503937 -0.00646457 -0.00026378 -0.00666142 0 0zm0.0694488 -0.858287l0 0 0 0.858287 -0.0694488 0 0 -0.858287 0.0694488 0zm0.0608583 -0.130307l0 0.0694488 0 0 -0.00313386 -1.1811e-005 -0.0032126 0.00023622 -0.00300787 0.000472441 -0.00292913 0.000440945 -0.00285039 0.000661417 -0.00290157 0.000885827 -0.00280315 0.000964567 -0.0027126 0.00104331 -0.00273622 0.00124409 -0.00262992 0.00129921 -0.00250787 0.00149606 -0.00252362 0.0016811 -0.0023937 0.00158268 -0.00225591 0.00189764 -0.00225197 0.00192126 -0.00210236 0.00209055 -0.00209055 0.00210236 -0.00192126 0.00225197 -0.00189764 0.00225591 -0.00158268 0.0023937 -0.0016811 0.00252362 -0.00149606 0.00250787 -0.00129921 0.00262992 -0.00124409 0.00273622 -0.00104331 0.0027126 -0.000964567 0.00280315 -0.000885827 0.00290157 -0.000661417 0.00285039 -0.000440945 0.00292913 -0.000472441 0.00300787 -0.00023622 0.0032126 1.1811e-005 0.00313386 -0.0694488 0 0.00026378 -0.00666142 0.000503937 -0.00646457 0.000748031 -0.00653543 0.00125197 -0.00645669 0.00148031 -0.00637795 0.00169685 -0.00615354 0.00205118 -0.00606299 0.00239764 -0.00596457 0.00259843 -0.00572047 0.00292913 -0.00561417 0.00312598 -0.00549213 0.00330315 -0.00524016 0.00375591 -0.00510236 0.00379528 -0.00497244 0.00409449 -0.00469291 0.00425591 -0.00454331 0.00454331 -0.00425591 0.00469291 -0.00409449 0.00497244 -0.00379528 0.00510236 -0.00375591 0.00524016 -0.00330315 0.00549213 -0.00312598 0.00561417 -0.00292913 0.00572047 -0.00259843 0.00596457 -0.00239764 0.00606299 -0.00205118 0.00615354 -0.00169685 0.00637795 -0.00148031 0.00645669 -0.00125197 0.00653543 -0.000748031 0.00646457 -0.000503937 0.00666142 -0.00026378 0 0z"/>
  </g>
  <polygon class="fil0" points="0.912047,0.642209 0.909504,0.642319 0.907567,0.642555 0.906232,0.642913 0.904902,0.643272 0.903567,0.64363 0.902839,0.64411 0.901504,0.644469 0.900173,0.644827 0.899445,0.645311 0.89811,0.645669 0.896776,0.646028 0.896047,0.646508 0.894717,0.646866 0.893988,0.647346 0.892654,0.647705 0.891925,0.648189 0.890591,0.648547 0.889862,0.649028 0.888531,0.649386 0.887803,0.649866 0.887075,0.65035 0.88574,0.650709 0.885012,0.651189 0.883677,0.651547 0.882949,0.652028 0.88222,0.652512 0.88089,0.65287 0.880161,0.65335 0.879433,0.653831 0.878705,0.654315 0.87737,0.654673 0.876642,0.655154 0.875913,0.655634 0.875185,0.656118 0.874457,0.656598 0.873122,0.656957 0.872394,0.657437 0.871665,0.657921 0.870937,0.658402 0.870209,0.658882 0.86948,0.659366 0.86815,0.659724 0.867421,0.660205 0.866693,0.660685 0.865965,0.661169 0.865236,0.66165 0.864508,0.66213 0.86378,0.662614 0.863051,0.663094 0.862323,0.663575 0.861594,0.664059 0.860866,0.664539 0.860138,0.66502 0.859409,0.665504 0.858681,0.665984 0.857953,0.666465 0.857224,0.666949 0.856496,0.667429 0.855768,0.667909 0.855039,0.668394 0.854311,0.668874 0.853583,0.669354 0.852728,0.670441 0.852,0.670921 0.851272,0.671406 0.850543,0.671886 0.849815,0.672366 0.849087,0.67285 0.848236,0.673937 0.847508,0.674417 0.84678,0.674898 0.846051,0.675382 0.845201,0.676469 0.844472,0.676949 0.843744,0.677429 0.84289,0.678516 0.842161,0.679 0.841433,0.67948 0.840583,0.680567 0.839854,0.681047 0.839004,0.682134 0.838276,0.682618 0.837547,0.683098 0.836693,0.684185 0.835843,0.685272 0.835114,0.685752 0.834264,0.686839 0.833535,0.687323 0.832681,0.688409 0.831831,0.689496 0.831102,0.689976 0.830252,0.691063 0.829398,0.69215 0.828547,0.693236 0.827819,0.693717 0.826969,0.694803 0.826114,0.69589 0.825264,0.696976 0.824413,0.698063 0.823559,0.69915 0.822709,0.700236 0.821732,0.701929 0.820882,0.703016 0.820031,0.704102 0.819177,0.705189 0.818205,0.706882 0.81735,0.707969 0.816378,0.709657 0.815402,0.71135 0.814551,0.712437 0.813575,0.71413 0.812598,0.715819 0.8115,0.718118 0.810528,0.719807 0.809551,0.7215 0.808453,0.723795 0.807354,0.726094 0.806256,0.72839 0.805031,0.731291 0.803689,0.734799 0.802343,0.738303 0.800996,0.741811 0.799157,0.747736 0.796457,0.757898 0.794484,0.767579 0.793114,0.777382 0.792484,0.783555 0.792228,0.787913 0.792217,0.791063 0.792205,0.794209 0.792193,0.797358 0.792425,0.799295 0.792539,0.801839 0.792772,0.80378 0.793008,0.805717 0.793244,0.807654 0.793476,0.809594 0.793713,0.811531 0.793949,0.813469 0.794181,0.815409 0.794417,0.817346 0.794776,0.818681 0.795012,0.820618 0.795244,0.822555 0.79548,0.824496 0.795717,0.826433 0.796075,0.827768 0.796307,0.829705 0.796665,0.831039 0.796902,0.832976 0.797138,0.834913 0.797496,0.836248 0.797728,0.838185 0.798087,0.83952 0.798323,0.841457 0.798681,0.842791 0.798917,0.844728 0.799276,0.846063 0.799508,0.848 0.799866,0.849335 0.800102,0.851272 0.800461,0.852606 0.800819,0.853941 0.801177,0.855276 0.801409,0.857213 0.801768,0.858543 0.802126,0.859878 0.802362,0.861819 0.80272,0.86315 0.803079,0.864484 0.803437,0.865819 0.803795,0.86715 0.804031,0.869091 0.80439,0.870421 0.804748,0.871756 0.805106,0.873091 0.805465,0.874421 0.805823,0.875756 0.806181,0.877091 0.806539,0.878421 0.806898,0.879756 0.807256,0.881091 0.807614,0.882421 0.807972,0.883756 0.808331,0.885091 0.808563,0.887028 0.808921,0.888362 0.809406,0.889091 0.809764,0.890421 0.810122,0.891756 0.81048,0.893091 0.810839,0.894421 0.811197,0.895756 0.811555,0.897091 0.811913,0.898421 0.812272,0.899756 0.81263,0.901091 0.812988,0.902421 0.813469,0.90315 0.813827,0.904484 0.814185,0.905819 0.814543,0.90715 0.814902,0.908484 0.815382,0.909213 0.81574,0.910547 0.816098,0.911878 0.816457,0.913213 0.816815,0.914547 0.817299,0.915276 0.817657,0.916606 0.818016,0.917941 0.818374,0.919276 0.818854,0.920004 0.819213,0.921335 0.819571,0.922669 0.820051,0.923398 0.820409,0.924732 0.820768,0.926063 0.821252,0.926791 0.82161,0.928126 0.821969,0.929461 0.822449,0.930189 0.822807,0.93152 0.823165,0.932854 0.823646,0.933583 0.824004,0.934917 0.824362,0.936248 0.824846,0.936976 0.825205,0.938311 0.825685,0.939039 0.826043,0.940374 0.826402,0.941705 0.826882,0.942433 0.82724,0.943768 0.827724,0.944496 0.828083,0.945831 0.828563,0.946559 0.828921,0.94789 0.82928,0.949224 0.82976,0.949953 0.830118,0.951287 0.830602,0.952016 0.830961,0.953346 0.831441,0.954075 0.831799,0.955409 0.83228,0.956138 0.832638,0.957472 0.833122,0.958201 0.83348,0.959531 0.833961,0.96026 0.834319,0.961594 0.834799,0.962323 0.835283,0.963051 0.835642,0.964386 0.836122,0.965114 0.83648,0.966445 0.836961,0.967173 0.837319,0.968508 0.837803,0.969236 0.838161,0.970571 0.838642,0.971299 0.839122,0.972028 0.83948,0.973358 0.839965,0.974087 0.840323,0.975421 0.840803,0.97615 0.841283,0.976878 0.841642,0.978213 0.842126,0.978941 0.842484,0.980272 0.842965,0.981 0.843445,0.981728 0.843803,0.983063 0.844287,0.983791 0.844768,0.98452 0.845126,0.985854 0.845606,0.986583 0.846087,0.987311 0.846445,0.988642 0.846929,0.98937 0.847409,0.990098 0.847768,0.991433 0.848248,0.992161 0.848732,0.99289 0.849091,0.994224 0.849571,0.994953 0.850051,0.995681 0.850535,0.996409 0.850894,0.99774 0.851374,0.998469 0.851854,0.999197 0.852213,1.00053 0.852697,1.00126 0.853177,1.00199 0.853535,1.00332 0.854016,1.00405 0.8545,1.00478 0.85498,1.00551 0.855339,1.00684 0.855819,1.00757 0.856303,1.0083 0.856783,1.00902 0.857142,1.01036 0.857622,1.01109 0.858106,1.01181 0.858587,1.01254 0.859067,1.01327 0.859425,1.01461 0.859909,1.01533 0.86039,1.01606 0.86087,1.01679 0.861228,1.01812 0.861713,1.01885 0.862193,1.01958 0.862673,1.02031 0.863157,1.02104 0.863516,1.02237 0.863996,1.0231 0.864476,1.02383 0.864961,1.02456 0.865441,1.02528 0.865921,1.02601 0.86628,1.02735 0.866764,1.02807 0.867244,1.0288 0.867724,1.02953 0.868209,1.03026 0.868689,1.03099 0.869047,1.03232 0.869528,1.03305 0.870012,1.03378 0.870492,1.0345 0.870972,1.03523 0.871457,1.03596 0.871815,1.0373 0.872295,1.03802 0.872776,1.03875 0.87326,1.03948 0.87374,1.04021 0.87422,1.04094 0.874705,1.04167 0.875185,1.04239 0.875543,1.04373 0.876024,1.04446 0.876508,1.04519 0.876988,1.04591 0.877469,1.04664 0.877953,1.04737 0.878433,1.0481 0.878913,1.04883 0.879398,1.04956 0.879878,1.05028 0.880236,1.05162 0.880717,1.05235 0.881201,1.05307 0.881681,1.0538 0.882161,1.05453 0.882646,1.05526 0.883126,1.05599 0.883606,1.05672 0.884091,1.05744 0.884571,1.05817 0.885051,1.0589 0.885535,1.05963 0.886016,1.06036 0.886496,1.06109 0.88698,1.06181 0.887339,1.06315 0.887819,1.06387 0.888299,1.0646 0.888783,1.06533 0.889264,1.06606 0.889744,1.06679 0.890228,1.06752 0.890709,1.06824 0.891189,1.06897 0.891673,1.0697 0.892154,1.07043 0.892634,1.07116 0.893118,1.07189 0.893598,1.07261 0.894079,1.07334 0.894563,1.07407 0.895043,1.0748 0.895524,1.07553 0.896008,1.07626 0.896488,1.07698 0.896969,1.07771 0.897453,1.07844 0.897933,1.07917 0.898413,1.0799 0.898898,1.08063 0.899378,1.08135 0.899858,1.08208 0.900343,1.08281 0.900823,1.08354 0.901303,1.08427 0.901787,1.085 0.902268,1.08572 0.902748,1.08645 0.903232,1.08718 0.903713,1.08791 0.904193,1.08864 0.904677,1.08937 0.905157,1.09009 0.905638,1.09082 0.906122,1.09155 0.906602,1.09228 0.907083,1.09301 0.907567,1.09374 0.908047,1.09446 0.908528,1.09519 0.909614,1.09605 0.910098,1.09678 0.910579,1.0975 0.911059,1.09823 0.911543,1.09896 0.912024,1.09969 0.912504,1.10042 0.912988,1.10115 0.913469,1.10187 0.913949,1.1026 0.914433,1.10333 0.914913,1.10406 0.915394,1.10479 0.915878,1.10552 0.916965,1.10637 0.917445,1.10709 0.917925,1.10782 0.918409,1.10855 0.91889,1.10928 0.91937,1.11001 0.919854,1.11074 0.920335,1.11146 0.920815,1.11219 0.921299,1.11292 0.92178,1.11365 0.922866,1.1145 0.923346,1.11523 0.923831,1.11596 0.924311,1.11669 0.924791,1.11741 0.925276,1.11814 0.925756,1.11887 0.926236,1.1196 0.927323,1.12045 0.927807,1.12118 0.928287,1.12191 0.928768,1.12264 0.929252,1.12337 0.929732,1.12409 0.930213,1.12482 0.931299,1.12567 0.931783,1.1264 0.932264,1.12713 0.932744,1.12786 0.933228,1.12859 0.933709,1.12931 0.934189,1.13004 0.935276,1.13089 0.93576,1.13162 0.93624,1.13235 0.93672,1.13308 0.937201,1.13381 0.937685,1.13454 0.938772,1.13539 0.939252,1.13612 0.939732,1.13685 0.940217,1.13757 0.940697,1.1383 0.941783,1.13915 0.942264,1.13988 0.942748,1.14061 0.943228,1.14134 0.943709,1.14207 0.944795,1.14292 0.94528,1.14365 0.94576,1.14437 0.94624,1.1451 0.946724,1.14583 0.947811,1.14669 0.948291,1.14741 0.948772,1.14814 0.949256,1.14887 0.950343,1.14972 0.950823,1.15045 0.951303,1.15118 0.951787,1.15191 0.952874,1.15276 0.953354,1.15348 0.953835,1.15421 0.954319,1.15494 0.955406,1.1558 0.955886,1.15652 0.956366,1.15725 0.95685,1.15798 0.957937,1.15883 0.958417,1.15956 0.958898,1.16029 0.959382,1.16102 0.960469,1.16187 0.960949,1.1626 0.961429,1.16332 0.961913,1.16406 0.963,1.16491 0.96348,1.16563 0.963961,1.16636 0.965047,1.16721 0.965531,1.16794 0.966012,1.16867 0.967098,1.16952 0.967579,1.17025 0.968063,1.17098 0.96915,1.17183 0.96963,1.17256 0.97011,1.17329 0.970594,1.17402 0.971681,1.17487 0.972161,1.17559 0.973248,1.17645 0.973728,1.17718 0.974213,1.17791 0.975299,1.17876 0.97578,1.17948 0.97626,1.18021 0.977346,1.18106 0.977831,1.18179 0.978311,1.18252 0.979398,1.18337 0.979878,1.1841 0.980362,1.18483 0.981449,1.18568 0.981929,1.18641 0.982409,1.18714 0.983496,1.18799 0.98398,1.18872 0.985067,1.18957 0.985547,1.1903 0.986028,1.19103 0.987114,1.19188 0.987598,1.19261 0.988685,1.19346 0.989165,1.19419 0.990252,1.19504 0.990732,1.19577 0.991217,1.1965 0.992303,1.19735 0.992783,1.19807 0.99387,1.19893 0.99435,1.19965 0.994835,1.20038 0.995921,1.20124 0.996402,1.20196 0.997488,1.20281 0.997969,1.20354 0.999055,1.20439 0.999539,1.20512 1.00063,1.20598 1.00111,1.2067 1.00219,1.20756 1.00267,1.20828 1.00316,1.20901 1.00424,1.20986 1.00472,1.21059 1.00581,1.21144 1.00629,1.21217 1.00738,1.21302 1.00786,1.21375 1.00895,1.2146 1.00943,1.21533 1.01052,1.21619 1.0116,1.21704 1.01208,1.21776 1.01317,1.21861 1.01365,1.21934 1.01474,1.2202 1.01522,1.22093 1.01631,1.22178 1.01679,1.2225 1.01787,1.22335 1.01836,1.22408 1.01944,1.22494 1.01993,1.22567 1.02101,1.22652 1.0221,1.22737 1.02258,1.22809 1.02367,1.22895 1.02415,1.22968 1.02524,1.23053 1.02572,1.23126 1.0268,1.23211 1.02789,1.23296 1.02837,1.23369 1.02946,1.23454 1.03054,1.23539 1.03103,1.23612 1.03211,1.23697 1.03259,1.2377 1.03368,1.23855 1.03477,1.2394 1.03525,1.24013 1.03633,1.24098 1.03742,1.24183 1.03791,1.24256 1.03899,1.24341 1.04008,1.24427 1.04056,1.245 1.04165,1.24585 1.04273,1.2467 1.04321,1.24743 1.0443,1.24828 1.04539,1.24913 1.04647,1.24998 1.04696,1.25071 1.04804,1.25156 1.04913,1.25241 1.05022,1.25326 1.0507,1.25399 1.05178,1.25485 1.05287,1.2557 1.05396,1.25655 1.05444,1.25728 1.05552,1.25813 1.05661,1.25898 1.0577,1.25983 1.05878,1.26069 1.05927,1.26141 1.06035,1.26226 1.06144,1.26312 1.06253,1.26397 1.06361,1.26482 1.0647,1.26567 1.06518,1.2664 1.06627,1.26725 1.06735,1.2681 1.06844,1.26896 1.06953,1.26981 1.07061,1.27066 1.0717,1.27151 1.07279,1.27236 1.07387,1.27321 1.07496,1.27407 1.07605,1.27492 1.07713,1.27577 1.07883,1.27674 1.07991,1.27759 1.0816,1.27857 1.0833,1.27955 1.08438,1.2804 1.08607,1.28137 1.08776,1.28235 1.08946,1.28332 1.09115,1.2843 1.09284,1.28527 1.09453,1.28625 1.09622,1.28722 1.09852,1.28832 1.10021,1.2893 1.1019,1.29027 1.1042,1.29137 1.1065,1.29247 1.10879,1.29357 1.11109,1.29467 1.11399,1.29589 1.11689,1.29711 1.11919,1.29821 1.1227,1.29955 1.1262,1.3009 1.13031,1.30237 1.13563,1.30408 1.14217,1.30604 1.16576,1.31085 1.17254,1.31161 1.1775,1.31199 1.18126,1.31213 1.18501,1.31226 1.18816,1.31227 1.19131,1.31228 1.19385,1.31217 1.19639,1.31206 1.19833,1.31183 1.20087,1.31171 1.20281,1.31148 1.20475,1.31124 1.20669,1.31101 1.20863,1.31078 1.21057,1.31054 1.2125,1.3103 1.21384,1.30994 1.21578,1.30971 1.21711,1.30935 1.21844,1.309 1.22038,1.30876 1.22171,1.3084 1.22305,1.30804 1.22438,1.30769 1.22571,1.30733 1.22705,1.30697 1.22838,1.30661 1.22971,1.30625 1.23105,1.30589 1.23238,1.30554 1.23371,1.30518 1.23505,1.30482 1.23578,1.30434 1.23711,1.30398 1.23844,1.30362 1.23917,1.30314 1.2405,1.30278 1.24184,1.30242 1.24257,1.30194 1.2439,1.30158 1.24463,1.3011 1.24596,1.30074 1.24669,1.30026 1.24802,1.2999 1.24875,1.29942 1.25008,1.29906 1.25081,1.29858 1.25154,1.2981 1.25287,1.29774 1.2536,1.29726 1.25433,1.29678 1.25567,1.29642 1.25639,1.29594 1.25712,1.29546 1.25845,1.2951 1.25918,1.29462 1.25991,1.29413 1.26064,1.29365 1.26197,1.2933 1.2627,1.29281 1.26343,1.29233 1.26416,1.29185 1.26489,1.29137 1.26622,1.29101 1.26695,1.29053 1.26768,1.29005 1.26841,1.28957 1.26913,1.28908 1.26986,1.2886 1.27059,1.28812 1.27132,1.28764 1.27205,1.28716 1.27278,1.28668 1.2735,1.28619 1.27423,1.28571 1.27496,1.28523 1.27569,1.28475 1.27642,1.28427 1.27715,1.28379 1.27787,1.2833 1.2786,1.28282 1.27933,1.28234 1.28006,1.28186 1.28079,1.28138 1.28152,1.2809 1.28224,1.28041 1.28297,1.27993 1.2837,1.27945 1.28443,1.27897 1.28516,1.27849 1.28601,1.2774 1.28674,1.27692 1.28746,1.27644 1.28819,1.27596 1.28892,1.27548 1.28965,1.27499 1.2905,1.27391 1.29123,1.27343 1.29196,1.27294 1.29269,1.27246 1.29354,1.27137 1.29427,1.27089 1.295,1.27041 1.29585,1.26933 1.29657,1.26884 1.2973,1.26836 1.29815,1.26728 1.29888,1.2668 1.29961,1.26631 1.30046,1.26522 1.30119,1.26474 1.30204,1.26366 1.30277,1.26318 1.30362,1.26209 1.30435,1.26161 1.3052,1.26052 1.30606,1.25943 1.30678,1.25895 1.30763,1.25787 1.30849,1.25678 1.30934,1.25569 1.31019,1.25461 1.31104,1.25352 1.31202,1.25183 1.31299,1.25014 1.31409,1.24784 1.31531,1.24494 1.31803,1.23163 1.31804,1.22848 1.31793,1.22594 1.31769,1.224 1.31746,1.22206 1.31722,1.22012 1.31687,1.21879 1.31651,1.21746 1.31615,1.21612 1.31579,1.21479 1.31543,1.21346 1.31507,1.21212 1.31472,1.21079 1.31423,1.21006 1.31387,1.20873 1.31339,1.208 1.31304,1.20667 1.31256,1.20594 1.31207,1.20521 1.31171,1.20387 1.31123,1.20315 1.31075,1.20242 1.31027,1.20169 1.30918,1.20084 1.3087,1.20011 1.30761,1.19926 1.30713,1.19853 1.30605,1.19768 1.30556,1.19695 1.30448,1.1961 1.304,1.19537 1.30291,1.19452 1.30243,1.19379 1.30134,1.19294 1.30086,1.19221 1.29977,1.19136 1.29929,1.19063 1.2982,1.18978 1.29772,1.18905 1.29664,1.1882 1.29615,1.18747 1.29507,1.18662 1.29459,1.18589 1.2935,1.18504 1.29302,1.18431 1.29193,1.18346 1.29145,1.18273 1.29036,1.18188 1.28928,1.18103 1.2888,1.1803 1.28771,1.17944 1.28723,1.17872 1.28614,1.17787 1.28566,1.17714 1.28457,1.17629 1.28409,1.17556 1.283,1.1747 1.28252,1.17398 1.28144,1.17313 1.28095,1.1724 1.27987,1.17155 1.27939,1.17082 1.2783,1.16996 1.27782,1.16924 1.27673,1.16839 1.27625,1.16766 1.27516,1.16681 1.27468,1.16608 1.27359,1.16522 1.27311,1.1645 1.27203,1.16365 1.27154,1.16292 1.27046,1.16207 1.26998,1.16134 1.26889,1.16048 1.26841,1.15976 1.26732,1.15891 1.26684,1.15818 1.26575,1.15733 1.26527,1.1566 1.26419,1.15574 1.2637,1.15502 1.26262,1.15417 1.26213,1.15344 1.26105,1.15259 1.26057,1.15186 1.25948,1.151 1.259,1.15028 1.25791,1.14943 1.25743,1.1487 1.25634,1.14785 1.25586,1.14712 1.25478,1.14626 1.2543,1.14554 1.25321,1.14469 1.25272,1.14396 1.25164,1.14311 1.25116,1.14238 1.25007,1.14152 1.24959,1.1408 1.2485,1.13994 1.24802,1.13922 1.24693,1.13837 1.24645,1.13764 1.24537,1.13678 1.24428,1.13593 1.2438,1.1352 1.24271,1.13435 1.24223,1.13363 1.24114,1.13277 1.24066,1.13204 1.23957,1.13119 1.23909,1.13046 1.23801,1.12961 1.23752,1.12889 1.23644,1.12803 1.23596,1.1273 1.23487,1.12645 1.23439,1.12572 1.2333,1.12487 1.23282,1.12415 1.23173,1.12329 1.23125,1.12256 1.23017,1.12171 1.22969,1.12098 1.2286,1.12013 1.22811,1.11941 1.22703,1.11855 1.22655,1.11782 1.22546,1.11697 1.22498,1.11624 1.22389,1.11539 1.22341,1.11466 1.22232,1.11381 1.22184,1.11308 1.22076,1.11223 1.22028,1.1115 1.21919,1.11065 1.2187,1.10992 1.21762,1.10907 1.21714,1.10834 1.21605,1.10749 1.21557,1.10676 1.21448,1.10591 1.214,1.10518 1.21291,1.10433 1.21243,1.1036 1.21135,1.10275 1.21087,1.10202 1.20978,1.10117 1.2093,1.10044 1.20881,1.09971 1.20773,1.09886 1.20725,1.09813 1.20676,1.09741 1.20568,1.09656 1.2052,1.09583 1.20411,1.09497 1.20302,1.09412 1.20254,1.09339 1.20146,1.09254 1.20037,1.09169 1.19928,1.09084 1.1982,1.08999 1.1965,1.08901 1.19481,1.08804 1.19312,1.08706 1.19082,1.08596 1.18671,1.0845 1.17885,1.08289 1.17449,1.08263 1.17194,1.08274 1.17001,1.08298 1.16807,1.08321 1.16674,1.08357 1.1654,1.08393 1.16407,1.08429 1.16274,1.08465 1.1614,1.085 1.16067,1.08549 1.15934,1.08585 1.15861,1.08633 1.15789,1.08681 1.15716,1.08729 1.15643,1.08777 1.1557,1.08825 1.15497,1.08874 1.15424,1.08922 1.15352,1.0897 1.15279,1.09018 1.15206,1.09066 1.15133,1.09114 1.1506,1.09163 1.14987,1.09211 1.14915,1.09259 1.14842,1.09307 1.14769,1.09355 1.14696,1.09403 1.14623,1.09452 1.1455,1.095 1.14478,1.09548 1.14405,1.09596 1.14332,1.09644 1.14259,1.09692 1.14186,1.09741 1.14101,1.09849 1.14028,1.09897 1.13955,1.09945 1.13882,1.09994 1.13809,1.10042 1.13737,1.1009 1.13664,1.10138 1.13591,1.10186 1.13518,1.10234 1.13445,1.10283 1.13372,1.10331 1.133,1.10379 1.13227,1.10427 1.13154,1.10475 1.13081,1.10523 1.13008,1.10572 1.12935,1.1062 1.12863,1.10668 1.1279,1.10716 1.12717,1.10764 1.12644,1.10812 1.12571,1.10861 1.12498,1.10909 1.12426,1.10957 1.12353,1.11005 1.1228,1.11053 1.12207,1.11101 1.12122,1.1121 1.12049,1.11258 1.11976,1.11306 1.11904,1.11354 1.11831,1.11403 1.11758,1.11451 1.11685,1.11499 1.11612,1.11547 1.11539,1.11595 1.11467,1.11643 1.11394,1.11692 1.11321,1.1174 1.11248,1.11788 1.11175,1.11836 1.11102,1.11884 1.1103,1.11932 1.10896,1.11968 1.10823,1.12017 1.1075,1.12065 1.10617,1.121 1.10544,1.12148 1.10411,1.12184 1.10338,1.12233 1.10205,1.12269 1.10072,1.12304 1.09938,1.1234 1.09805,1.12376 1.09672,1.12411 1.09538,1.12447 1.09344,1.12471 1.09211,1.12507 1.08957,1.12518 1.08763,1.12541 1.08387,1.12528 1.07298,1.12306 1.07008,1.12183 1.06779,1.12074 1.06609,1.11976 1.06501,1.11891 1.06392,1.11806 1.06283,1.11721 1.06115,1.11623 1.06006,1.11538 1.05897,1.11453 1.05789,1.11368 1.0568,1.11283 1.05511,1.11185 1.05402,1.111 1.05293,1.11015 1.05185,1.1093 1.05076,1.10844 1.04967,1.10759 1.04859,1.10674 1.0475,1.10589 1.04641,1.10504 1.04533,1.10419 1.04424,1.10333 1.04315,1.10248 1.04267,1.10175 1.04159,1.1009 1.0405,1.10005 1.03941,1.0992 1.03833,1.09835 1.03724,1.0975 1.03676,1.09677 1.03567,1.09591 1.03458,1.09506 1.0335,1.09421 1.03302,1.09348 1.03193,1.09263 1.03084,1.09178 1.03036,1.09105 1.02928,1.0902 1.02819,1.08935 1.0277,1.08862 1.02662,1.08777 1.02553,1.08692 1.02505,1.08619 1.02396,1.08533 1.02348,1.08461 1.0224,1.08376 1.02191,1.08303 1.02083,1.08218 1.02035,1.08145 1.01926,1.08059 1.01878,1.07987 1.01769,1.07902 1.01721,1.07829 1.01612,1.07744 1.01564,1.07671 1.01456,1.07585 1.01407,1.07513 1.01299,1.07428 1.0125,1.07355 1.01202,1.07282 1.01094,1.07197 1.01046,1.07124 1.00937,1.07039 1.00889,1.06966 1.00841,1.06893 1.00732,1.06808 1.00684,1.06735 1.00635,1.06662 1.00527,1.06577 1.00479,1.06504 1.00431,1.06431 1.00322,1.06346 1.00274,1.06273 1.00226,1.062 1.00178,1.06128 1.00069,1.06043 1.0002,1.0597 0.999724,1.05897 0.999244,1.05824 0.99876,1.05751 0.997673,1.05666 0.997193,1.05593 0.996713,1.0552 0.996228,1.05448 0.995142,1.05362 0.994661,1.05289 0.994181,1.05217 0.993697,1.05144 0.993217,1.05071 0.992736,1.04998 0.992252,1.04925 0.991165,1.0484 0.990685,1.04767 0.990205,1.04694 0.98972,1.04622 0.98924,1.04549 0.98876,1.04476 0.988276,1.04403 0.987795,1.0433 0.986709,1.04245 0.986228,1.04172 0.985744,1.04099 0.985264,1.04026 0.984783,1.03954 0.984299,1.03881 0.983819,1.03808 0.983339,1.03735 0.982854,1.03662 0.982374,1.03589 0.981894,1.03517 0.981409,1.03444 0.980929,1.03371 0.980449,1.03298 0.979965,1.03225 0.979484,1.03152 0.979004,1.0308 0.97852,1.03007 0.978039,1.02934 0.977559,1.02861 0.977075,1.02788 0.976594,1.02715 0.976114,1.02643 0.97563,1.0257 0.97515,1.02497 0.974669,1.02424 0.974185,1.02351 0.973705,1.02278 0.973224,1.02206 0.972866,1.02072 0.972382,1.02 0.971902,1.01927 0.971421,1.01854 0.970937,1.01781 0.970457,1.01708 0.969976,1.01635 0.969492,1.01563 0.969012,1.0149 0.968654,1.01356 0.968173,1.01283 0.967693,1.01211 0.967209,1.01138 0.966728,1.01065 0.966248,1.00992 0.96589,1.00859 0.965406,1.00786 0.964925,1.00713 0.964445,1.0064 0.963961,1.00567 0.963602,1.00434 0.963122,1.00361 0.962642,1.00289 0.962157,1.00216 0.961799,1.00082 0.961319,1.00009 0.960839,0.999366 0.96048,0.998031 0.959996,0.997303 0.959516,0.996575 0.959035,0.995846 0.958677,0.994516 0.958193,0.993787 0.957713,0.993059 0.957354,0.991724 0.956874,0.990996 0.956516,0.989661 0.956031,0.988933 0.955551,0.988205 0.955193,0.986874 0.954713,0.986146 0.954354,0.984811 0.95387,0.984083 0.95339,0.983354 0.953031,0.98202 0.952551,0.981291 0.952193,0.979961 0.951709,0.979232 0.95135,0.977898 0.95087,0.977169 0.950512,0.975835 0.950031,0.975106 0.949673,0.973776 0.949189,0.973047 0.948831,0.971713 0.948472,0.970378 0.947992,0.96965 0.947634,0.968319 0.947276,0.966984 0.946795,0.966256 0.946437,0.964921 0.946079,0.963591 0.945594,0.962862 0.945236,0.961528 0.944878,0.960193 0.944398,0.959465 0.944039,0.958134 0.943681,0.956799 0.943323,0.955465 0.942965,0.954134 0.942606,0.952799 0.942126,0.952071 0.941768,0.950736 0.941409,0.949406 0.941051,0.948071 0.940693,0.946736 0.940335,0.945406 0.939976,0.944071 0.939618,0.942736 0.939382,0.940799 0.939024,0.939465 0.938665,0.938134 0.938307,0.936799 0.937949,0.935465 0.937713,0.933528 0.937354,0.932193 0.937122,0.930256 0.936764,0.928921 0.936528,0.926984 0.936291,0.925047 0.936181,0.922504 0.936193,0.919354 0.936453,0.914996 0.938055,0.90713 0.939646,0.902413 0.94087,0.899512 0.941969,0.897217 0.942941,0.895524 0.943917,0.893835 0.944894,0.892142 0.945866,0.890449 0.94672,0.889362 0.947571,0.888276 0.948547,0.886587 0.949398,0.8855 0.950252,0.884413 0.95098,0.883929 0.951831,0.882843 0.952681,0.881756 0.953535,0.880669 0.954264,0.880189 0.955114,0.879102 0.955965,0.878016 0.956693,0.877535 0.957547,0.876449 0.958276,0.875965 0.959126,0.874878 0.959854,0.874398 0.960583,0.873917 0.961433,0.872831 0.962161,0.872346 0.963016,0.87126 0.963744,0.87078 0.964472,0.870299 0.965201,0.869815 0.966051,0.868728 0.96678,0.868248 0.967508,0.867768 0.968236,0.867283 0.968965,0.866803 0.969693,0.866323 0.970543,0.865236 0.971272,0.864752 0.972,0.864272 0.972728,0.863791 0.973457,0.863307 0.974185,0.862827 0.974913,0.862346 0.975642,0.861862 0.97637,0.861382 0.977098,0.860902 0.977827,0.860417 0.978555,0.859937 0.979283,0.859457 0.980012,0.858972 0.98074,0.858492 0.981469,0.858012 0.982197,0.857528 0.982925,0.857047 0.983654,0.856567 0.984382,0.856083 0.98511,0.855602 0.986445,0.855244 0.987173,0.854764 0.987902,0.85428 0.98863,0.853799 0.989358,0.853319 0.990087,0.852835 0.990815,0.852354 0.99215,0.851996 0.992878,0.851516 0.993606,0.851031 0.994335,0.850551 0.995665,0.850193 0.996394,0.849713 0.997122,0.849228 0.99785,0.848748 0.999185,0.84839 0.999913,0.847909 1.00064,0.847425 1.00198,0.847067 1.0027,0.846587 1.00343,0.846106 1.00416,0.845622 1.00489,0.845142 1.00562,0.844661 1.00635,0.844177 1.0072,0.843091 1.00793,0.84261 1.00878,0.841524 1.00963,0.840437 1.01048,0.83935 1.01133,0.838264 1.01219,0.837177 1.01328,0.834882 1.01463,0.831374 1.01586,0.825323 1.01612,0.820965 1.01601,0.818421 1.01577,0.816484 1.01554,0.814547 1.01518,0.813213 1.01482,0.811878 1.01446,0.810547 1.01411,0.809213 1.01375,0.807878 1.01326,0.80715 1.01291,0.805819 1.01243,0.805091 1.01207,0.803756 1.01159,0.803028 1.01123,0.801693 1.01074,0.800965 1.01039,0.799634 1.00991,0.798906 1.00955,0.797571 1.00907,0.796843 1.00871,0.795508 1.00822,0.79478 1.00787,0.793449 1.00751,0.792114 1.00703,0.791386 1.00667,0.790051 1.00619,0.789323 1.00583,0.787992 1.00535,0.787264 1.00499,0.785929 1.00451,0.785201 1.00415,0.783866 1.00367,0.783138 1.00331,0.781807 1.00283,0.781079 1.00247,0.779744 1.00199,0.779016 1.00163,0.777681 1.00115,0.776953 1.00079,0.775622 1.00031,0.774894 0.999949,0.773559 0.999469,0.772831 0.99911,0.771496 0.99863,0.770768 0.998272,0.769437 0.997791,0.768709 0.997433,0.767374 0.996949,0.766646 0.996591,0.765311 0.99611,0.764583 0.995752,0.763252 0.995272,0.762524 0.994913,0.761189 0.994429,0.760461 0.994071,0.759126 0.993591,0.758398 0.993232,0.757067 0.992752,0.756339 0.992394,0.755004 0.991909,0.754276 0.991551,0.752941 0.991071,0.752213 0.990713,0.750882 0.990232,0.750154 0.989874,0.748819 0.989516,0.747484 0.989031,0.746756 0.988673,0.745425 0.988193,0.744697 0.987835,0.743362 0.987354,0.742634 0.986996,0.741299 0.986512,0.740571 0.986154,0.73924 0.985673,0.738512 0.985315,0.737177 0.984835,0.736449 0.984476,0.735114 0.983992,0.734386 0.983634,0.733055 0.983154,0.732327 0.982795,0.730992 0.982315,0.730264 0.981957,0.728929 0.981472,0.728201 0.981114,0.72687 0.980634,0.726142 0.980276,0.724807 0.979795,0.724079 0.979437,0.722744 0.978953,0.722016 0.978594,0.720685 0.978114,0.719957 0.977756,0.718622 0.977276,0.717894 0.976917,0.716559 0.976433,0.715831 0.976075,0.7145 0.975594,0.713772 0.975236,0.712437 0.974756,0.711709 0.974398,0.710374 0.973913,0.709646 0.973555,0.708315 0.973075,0.707587 0.972717,0.706252 0.972236,0.705524 0.971878,0.704189 0.97152,0.702858 0.971035,0.702126 0.970677,0.700795 0.970197,0.700067 0.969839,0.698732 0.969358,0.698004 0.969,0.696669 0.968516,0.695941 0.968157,0.69461 0.967677,0.693882 0.967319,0.692547 0.966839,0.691819 0.96648,0.690484 0.965996,0.689756 0.965638,0.688425 0.965157,0.687697 0.964799,0.686362 0.964319,0.685634 0.963961,0.684299 0.963476,0.683571 0.963118,0.68224 0.962638,0.681512 0.96228,0.680177 0.961799,0.679449 0.961441,0.678114 0.960957,0.677386 0.960598,0.676055 0.960118,0.675327 0.95976,0.673992 0.95928,0.673264 0.958921,0.671929 0.958437,0.671201 0.958079,0.66987 0.957598,0.669142 0.95724,0.667807 0.95676,0.667079 0.956402,0.665744 0.955917,0.665016 0.955437,0.664287 0.954957,0.663559 0.954472,0.662831 0.953992,0.662102 0.952906,0.661252 0.952425,0.660524 0.951941,0.659795 0.950854,0.658945 0.950374,0.658217 0.949287,0.657362 0.948807,0.656634 0.94772,0.655783 0.946634,0.654933 0.945547,0.654079 0.944461,0.653228 0.943374,0.652378 0.942287,0.651524 0.940594,0.650551 0.939508,0.649697 0.937815,0.648724 0.93552,0.647626 0.933224,0.646528 0.92911,0.645059 0.916406,0.642469 "/>
  <path class="fil3" d="M0.510366 0.690925l0.15737 0c0.017122,0 0.0311299,0.0140079 0.0311299,0.0311299l0 0c0,0.017122 -0.0140197,0.0311299 -0.0311299,0.0311299l-0.15737 0c-0.0171102,0 -0.0311299,-0.0140079 -0.0311299,-0.0311299l0 0c0,-0.017122 0.0140079,-0.0311299 0.0311299,-0.0311299z"/>
  <path class="fil3" d="M0.510366 0.946122l0.15737 0c0.017122,0 0.0311299,0.0140079 0.0311299,0.0311299l0 0c0,0.0171181 -0.0140197,0.031126 -0.0311299,0.031126l-0.15737 0c-0.0171102,0 -0.0311299,-0.0140079 -0.0311299,-0.031126l0 0c0,-0.017122 0.0140079,-0.0311299 0.0311299,-0.0311299z"/>
  <path class="fil3" d="M0.510366 1.20132l0.15737 0c0.017122,0 0.0311299,0.0140079 0.0311299,0.031126l0 0c0,0.017122 -0.0140197,0.0311299 -0.0311299,0.0311299l-0.15737 0c-0.0171102,0 -0.0311299,-0.0140079 -0.0311299,-0.0311299l0 0c0,-0.0171181 0.0140079,-0.031126 0.0311299,-0.031126z"/>
 </g>
</svg>
