<?xml version="1.0" encoding="UTF-8"?>
<!DOCTYPE svg PUBLIC "-//W3C//DTD SVG 1.1//EN" "http://www.w3.org/Graphics/SVG/1.1/DTD/svg11.dtd">
<!-- Creator: CorelDRAW -->
<svg xmlns="http://www.w3.org/2000/svg" xml:space="preserve" width="5in" height="5in" style="shape-rendering:geometricPrecision; text-rendering:geometricPrecision; image-rendering:optimizeQuality; fill-rule:evenodd; clip-rule:evenodd"
viewBox="0 0 5 5"
 xmlns:xlink="http://www.w3.org/1999/xlink">
 <defs>
  <style type="text/css">
   <![CDATA[
    .str0 {stroke:#DEDEDD;stroke-width:0.22222}
    .fil1 {fill:#DEDEDD}
    .fil0 {fill:white}
    .fil2 {fill:white;fill-rule:nonzero}
   ]]>
  </style>
 </defs>
 <g id="Layer_x0020_1">
  <metadata id="CorelCorpID_0Corel-Layer"/>
  <path class="fil0 str0" d="M2.5 0.192551c1.27415,0 2.30745,1.0333 2.30745,2.30745 0,1.27415 -1.0333,2.30745 -2.30745,2.30745 -1.27415,0 -2.30745,-1.0333 -2.30745,-2.30745 0,-1.27415 1.0333,-2.30745 2.30745,-2.30745z"/>
  <path class="fil1" d="M2.5 0.784661c0.947197,0 1.71534,0.768142 1.71534,1.71534 0,0.947197 -0.768142,1.71534 -1.71534,1.71534 -0.947197,0 -1.71534,-0.768142 -1.71534,-1.71534 0,-0.947197 0.768142,-1.71534 1.71534,-1.71534z"/>
  <path class="fil2" d="M2.34218 2.62877l-0.0460039 -0.624043c-0.0083189,-0.121429 -0.0127205,-0.208606 -0.0127205,-0.261535 0,-0.0725039 0.0205512,-0.128547 0.0621496,-0.169024 0.0415945,-0.0404764 0.0964055,-0.0604921 0.164425,-0.0604921 0.0822126,0 0.137024,0.0257992 0.164917,0.0773937 0.0278937,0.0515984 0.0415945,0.126323 0.0415945,0.223732 0,0.057374 -0.0034252,0.115201 -0.0102756,0.174358l-0.0616614 0.64228c-0.00635827,0.0765039 -0.0205512,0.135217 -0.0425748,0.176138 -0.0220197,0.0404764 -0.0587244,0.060937 -0.109126,0.060937 -0.051874,0 -0.0875984,-0.0195748 -0.107661,-0.0591575 -0.020063,-0.0395866 -0.0342559,-0.0996339 -0.043063,-0.180587zm0.159043 0.857559c-0.0582362,0 -0.10913,-0.0173465 -0.152685,-0.0515984 -0.0435512,-0.034248 -0.0650827,-0.0822835 -0.0650827,-0.143665 0,-0.0542638 0.0205512,-0.100079 0.0621496,-0.137886 0.0415945,-0.0378071 0.0924882,-0.0564882 0.153169,-0.0564882 0.0601929,0 0.111575,0.0186811 0.154154,0.0564882 0.0425748,0.0378071 0.0636142,0.083622 0.0636142,0.137886 0,0.0604921 -0.0215315,0.108531 -0.0645945,0.143224 -0.043063,0.0346929 -0.0929803,0.0520394 -0.150724,0.0520394z"/>
 </g>
</svg>
