<?xml version="1.0" encoding="UTF-8"?>
<!DOCTYPE svg PUBLIC "-//W3C//DTD SVG 1.1//EN" "http://www.w3.org/Graphics/SVG/1.1/DTD/svg11.dtd">
<!-- Creator: CorelDRAW -->
<svg xmlns="http://www.w3.org/2000/svg" xml:space="preserve" width="8.5in" height="8.5in" style="shape-rendering:geometricPrecision; text-rendering:geometricPrecision; image-rendering:optimizeQuality; fill-rule:evenodd; clip-rule:evenodd"
viewBox="0 0 8.5 8.5"
 xmlns:xlink="http://www.w3.org/1999/xlink">
 <defs>
  <style type="text/css">
   <![CDATA[
    .fil0 {fill:black}
   ]]>
  </style>
 </defs>
 <g id="Layer_x0020_1">
  <metadata id="CorelCorpID_0Corel-Layer"/>
  <g id="_105161768">
   <polygon id="_104434696" class="fil0" points="3.1352,1.36995 3.08748,1.37591 3.06959,1.38187 3.0338,1.38783 3.02186,1.3938 3.00397,1.39976 2.98011,1.40572 2.96818,1.41168 2.94431,1.41764 2.93239,1.42361 2.91449,1.42956 2.90256,1.43553 2.89063,1.44149 2.87273,1.44745 2.86677,1.45341 2.84291,1.45937 2.83694,1.46533 2.82501,1.4713 2.81308,1.47726 2.80711,1.48322 2.78922,1.48918 2.78325,1.49514 2.77132,1.50111 2.75939,1.50707 2.75343,1.51303 2.7415,1.51899 2.73553,1.52495 2.7236,1.53092 2.71763,1.53687 2.7057,1.54283 2.69974,1.5488 2.69378,1.55476 2.68781,1.56072 2.67588,1.56668 2.66991,1.57265 2.66395,1.57861 2.65798,1.58457 2.64605,1.59054 2.64009,1.59649 2.63412,1.60245 2.62816,1.60841 2.61622,1.61438 2.61026,1.6263 2.59833,1.63226 2.59237,1.63822 2.5864,1.64419 2.58043,1.65015 2.57447,1.66207 2.5685,1.66803 2.55657,1.67399 2.55657,1.68592 2.54464,1.68592 2.53868,1.69784 2.53271,1.7038 2.52674,1.70976 2.52078,1.71572 2.51481,1.72169 2.50885,1.73361 2.50289,1.73957 2.49692,1.7515 2.49095,1.75746 2.48499,1.76342 2.47902,1.77534 2.47306,1.7813 2.46709,1.79323 2.46113,1.79919 2.45516,1.81111 2.4492,1.81707 2.44323,1.829 2.43727,1.84092 2.4313,1.84689 2.42533,1.8588 2.41937,1.87073 2.41341,1.87669 2.40744,1.88861 2.40148,1.90054 2.39551,1.91246 2.38954,1.92438 2.38358,1.94227 2.37761,1.94823 2.37165,1.96016 2.36569,1.984 2.35972,1.98996 2.35375,2.01381 2.34779,2.02573 2.34182,2.04958 2.33586,2.06747 2.32989,2.08535 2.32393,2.11516 2.32393,2.12112 2.32393,2.12708 2.31796,2.14496 2.312,2.1867 2.30603,2.22246 2.30007,2.27016 2.30007,2.40728 2.30603,2.45497 2.312,2.48478 2.31796,2.53248 2.32393,2.55632 2.32989,2.59209 2.33586,2.60998 2.34182,2.62786 2.34779,2.65171 2.35375,2.66363 2.35972,2.68152 2.36569,2.69344 2.37165,2.71132 2.37761,2.72325 2.38358,2.73517 2.38954,2.75306 2.39551,2.75902 2.40148,2.76498 2.41341,2.76498 2.42533,2.75902 2.43727,2.75306 2.44323,2.7471 2.46113,2.74113 2.46709,2.73517 2.48499,2.72921 2.49095,2.72325 2.50289,2.71728 2.52078,2.71132 2.53271,2.70536 2.55061,2.69941 2.56254,2.69344 2.57447,2.68748 2.5864,2.68152 2.59237,2.67555 2.61026,2.66959 2.61622,2.66363 2.63412,2.65767 2.64009,2.65171 2.64009,2.63979 2.63412,2.6219 2.62816,2.60998 2.62219,2.59209 2.61622,2.58017 2.61026,2.56824 2.6043,2.53843 2.59833,2.52055 2.59237,2.48478 2.5864,2.46093 2.58043,2.43113 2.58043,2.25228 2.5864,2.22246 2.59237,2.19266 2.59833,2.16285 2.6043,2.13304 2.61026,2.1092 2.61622,2.09727 2.62219,2.08535 2.62816,2.06747 2.63412,2.05554 2.64009,2.03765 2.64605,2.03169 2.65202,2.01381 2.65798,2.00785 2.66395,1.99593 2.66991,1.984 2.67588,1.97804 2.67588,1.96016 2.68781,1.96016 2.69378,1.94823 2.69974,1.93631 2.7057,1.93035 2.71167,1.91842 2.71763,1.91246 2.7236,1.9065 2.72957,1.90054 2.73553,1.88861 2.7415,1.88265 2.74746,1.87669 2.75343,1.87073 2.75939,1.86477 2.76536,1.85284 2.77729,1.84689 2.77729,1.83496 2.78922,1.83496 2.79519,1.82304 2.80115,1.81707 2.81308,1.81111 2.81904,1.80515 2.82501,1.79919 2.83098,1.79323 2.84291,1.78727 2.84887,1.7813 2.8608,1.77534 2.86677,1.76938 2.87273,1.76342 2.88466,1.75746 2.89063,1.7515 2.90256,1.74553 2.90852,1.73957 2.92045,1.73361 2.93239,1.72765 2.94431,1.72169 2.95028,1.71572 2.96221,1.70976 2.97414,1.7038 2.98607,1.69784 3.00397,1.69188 3.0159,1.68592 3.0338,1.67996 3.04572,1.67399 3.05765,1.66803 3.08748,1.66207 3.09941,1.65611 3.14117,1.65015 3.16503,1.64419 3.23661,1.63822 3.31416,1.63822 3.38574,1.64419 3.41557,1.65015 3.45136,1.65611 3.46329,1.66207 3.49312,1.66803 3.50505,1.67399 3.51698,1.67996 3.53488,1.68592 3.54681,1.69188 3.5647,1.69784 3.57663,1.7038 3.59453,1.70976 3.60049,1.71572 3.60646,1.72169 3.61839,1.72765 3.63032,1.73361 3.64225,1.73957 3.64822,1.74553 3.66015,1.7515 3.66611,1.75746 3.67804,1.76342 3.68401,1.76938 3.69594,1.77534 3.70787,1.77534 3.70787,1.78727 3.7198,1.79323 3.72576,1.79919 3.73173,1.80515 3.74366,1.81111 3.74963,1.81707 3.75559,1.82304 3.76156,1.83496 3.77349,1.84092 3.77945,1.84689 3.78542,1.85284 3.79138,1.86477 3.80331,1.86477 3.80331,1.87669 3.80928,1.88265 3.81524,1.88861 3.82121,1.89457 3.82717,1.9065 3.83314,1.91246 3.8391,1.91842 3.84507,1.93035 3.85104,1.93631 3.857,1.94227 3.86296,1.95419 3.86893,1.96016 3.8749,1.97207 3.88086,1.984 3.88683,1.99593 3.89279,2.00189 3.89876,2.01381 3.90472,2.02573 3.91069,2.03765 3.91665,2.05554 3.92262,2.06747 3.92858,2.07939 3.93455,2.10323 3.94051,2.11516 3.94648,2.139 3.95244,2.15093 3.95841,2.1867 3.96437,2.20458 3.97034,2.22843 3.9763,2.32382 3.98227,2.3417 3.98824,2.34766 4.24474,2.34766 4.25071,2.3417 4.25071,2.24631 4.24474,2.20458 4.23878,2.18074 4.23281,2.13304 4.22685,2.11516 4.22088,2.08535 4.21492,2.06747 4.20895,2.04361 4.20298,2.02573 4.19702,2.01978 4.19106,1.99593 4.18509,1.984 4.17913,1.96016 4.17316,1.94823 4.16719,1.93631 4.16123,1.91842 4.15526,1.9065 4.1493,1.89457 4.14333,1.88861 4.13737,1.87669 4.1314,1.86477 4.12544,1.8588 4.11947,1.84092 4.11351,1.83496 4.10754,1.82304 4.10157,1.81707 4.09561,1.80515 4.08965,1.79323 4.08368,1.78727 4.07771,1.7813 4.07175,1.77534 4.06578,1.76342 4.05982,1.75746 4.05385,1.7515 4.04789,1.74553 4.04192,1.73361 4.03596,1.72765 4.02999,1.71572 4.02403,1.70976 4.01806,1.7038 4.0121,1.69784 4.00613,1.68592 4.00017,1.67996 3.9942,1.67399 3.98824,1.66803 3.98227,1.66207 3.9763,1.65611 3.97034,1.65015 3.96437,1.64419 3.95841,1.63822 3.95244,1.63226 3.94051,1.6263 3.93455,1.61438 3.92262,1.60841 3.91665,1.60245 3.91069,1.59649 3.90472,1.59054 3.89876,1.58457 3.88683,1.57861 3.88086,1.57265 3.8749,1.56668 3.86893,1.56072 3.857,1.55476 3.85104,1.5488 3.84507,1.54283 3.8391,1.53687 3.82717,1.53092 3.82121,1.52495 3.80928,1.51899 3.79735,1.51303 3.79138,1.50707 3.77945,1.50111 3.77349,1.49514 3.76156,1.48918 3.74963,1.48322 3.73769,1.47726 3.72576,1.4713 3.71383,1.46533 3.70787,1.45937 3.68997,1.45341 3.67804,1.44745 3.66015,1.44149 3.65418,1.43553 3.64225,1.42956 3.61839,1.42361 3.61243,1.41764 3.5826,1.41168 3.57067,1.40572 3.54681,1.39976 3.53488,1.3938 3.51698,1.38783 3.48119,1.38187 3.46329,1.37591 3.41557,1.36995 3.37978,1.36399 3.171,1.36399 "/>
   <polygon id="_8429872" class="fil0" points="5.53324,4.02289 5.50938,4.02885 5.49745,4.03481 5.47955,4.04078 5.46762,4.04674 5.46166,4.0527 5.44972,4.05866 5.44376,4.06463 5.43183,4.07058 5.42587,4.07655 5.4199,4.08251 5.41393,4.08847 5.40797,4.09443 5.402,4.10039 5.39604,4.11231 5.39007,4.11828 5.38411,4.12424 5.37814,4.1302 5.37218,4.14809 5.36621,4.16001 5.36025,4.17193 5.35428,4.18982 5.34831,4.2077 5.34831,4.32694 5.35428,4.34482 5.36025,4.36867 5.36621,4.38059 5.37218,4.39252 5.37814,4.40444 5.38411,4.4104 5.39007,4.42232 5.39604,4.42828 5.402,4.43425 5.40797,4.44617 5.4199,4.44617 5.4199,4.45809 5.43183,4.46406 5.4378,4.47002 5.44972,4.47002 5.44972,4.48194 5.46166,4.4879 5.47359,4.49387 5.47955,4.49982 5.49745,4.50579 5.50938,4.51175 5.52728,4.51771 5.55113,4.52367 5.64061,4.52367 5.66448,4.51771 5.68834,4.51175 5.6943,4.50579 5.7122,4.49982 5.71816,4.49387 5.73606,4.4879 5.74202,4.48194 5.74799,4.47598 5.75395,4.47002 5.75992,4.46406 5.76589,4.45809 5.77185,4.45213 5.77781,4.44617 5.78974,4.4402 5.79571,4.42828 5.80168,4.42232 5.80764,4.41636 5.81361,4.40444 5.81957,4.39848 5.82554,4.38059 5.8315,4.36867 5.83747,4.35674 5.84343,4.3329 5.8494,4.31501 5.8494,4.21963 5.84343,4.20174 5.83747,4.1779 5.8315,4.16597 5.82554,4.15405 5.81957,4.14212 5.81361,4.13616 5.80764,4.12424 5.80168,4.11828 5.79571,4.11231 5.78974,4.10039 5.77781,4.10039 5.77781,4.08847 5.77185,4.08251 5.76589,4.07655 5.75992,4.07058 5.74799,4.06463 5.74202,4.05866 5.73606,4.0527 5.72413,4.04674 5.7122,4.04078 5.6943,4.03481 5.68237,4.02885 5.65851,4.02289 5.63465,4.01693 5.5571,4.01693 "/>
   <path id="_69440024" class="fil0" d="M5.46166 2.34766l-0.0059685 0.0238504 -0.00596457 0.0178819 -0.00596457 0.0178858 -0.00596457 0.0238504 -0.00596457 0.0119173 -0.00596457 0.029811 -0.0059685 0.0178819 -0.00596457 0.0238465 -0.00596457 0.0178898 -0.00596457 0.0238425 -0.00596457 0.0298071 -0.0059685 0.0178858 -0.00596457 0.0357756 -0.00596457 0.0238425 -0.00596457 0.0476929 -0.00596457 0.029811 -0.00596457 0.0536535 -0.0059685 0.0953858 0 0.149043 0.0059685 0.0238425 0.00596457 0.0119252 0.00596457 0.00596063 0.00596457 0.0119252 0.00596457 0.00596063 0.00596457 0.0119252 0.0119331 0.00596457 0.00596457 0.00595669 0.0119291 0.0059685 0.0059685 0.00595669 0.0119291 0.00596063 0.0238622 0.00596063 0.00596457 0.00596457 0.0238583 0.00596063 0.0119331 0.00596457 0.0119291 0.00595669 0.0178976 0.0059685 0.0119291 0.00595669 0.0178976 0.00596063 0.00596457 0.00596063 0.0178937 0.00596457 0.00596457 0.00596063 0.0119331 0.00596063 0.0119291 0.00596457 0.0119291 0.00596457 0.0178976 0.00595669 0.00596457 0.00596063 0.0119331 0.00596457 0.0119291 0.00596063 0.00596457 0.00596063 0.0119291 0.00596063 0.0059685 0.00596457 0.0178937 0.00596063 0.0059685 0.00596457 0.0119291 0.00596457 0.00596457 0.00595669 0.00596457 0.00596063 0.0119331 0.00596063 0.00596457 0.00596063 0.0119291 0.00596457 0.00596457 0.00596063 0.00596457 0.00596457 0.0119331 0.00595669 0.00596457 0.00596457 0.00596457 0.00596063 0.00596457 0.00596063 0.0119331 0.00596457 0.00596457 0.00596063 0.00596457 0.00596063 0.00596457 0.00596457 0.00596457 0.00595669 0.0119331 0.0059685 0.00596457 0.00595669 0.00596457 0.00596063 0.00596457 0.00596457 0.00596457 0.00596063 0.0059685 0.00596063 0.00596457 0.00596063 0.0119291 0 0 0.0119291 0.00596457 0.00595669 0.0059685 0.0059685 0.00596457 0.00595669 0.00596457 0.00596063 0.00596457 0.00596063 0.00596457 0.00596457 0.00596457 0.0119252 0.0059685 0.00595669 0.00596457 0.0059685 0.00596457 0.00595669 0.00596457 0.00596063 0.00596457 0.00596063 0.00596457 0.0119252 0.0059685 0.00596063 0.00596457 0.00596457 0.00596457 0.0119213 0.00596457 0.00596063 0.00596457 0.00596457 0.00596457 0.0119213 0.0059685 0.00596063 0.00596457 0.0119252 0.00596457 0.0119213 0.00596457 0.00596457 0.00596457 0.0119213 0.0059685 0.00596063 0.00596457 0.0119252 0.00596457 0.00596457 0.00596457 0.0119252 0.00596457 0.0119173 0.00596457 0.00596457 0.0059685 0.0119213 0.00596457 0.0119213 0.00596457 0.0119252 0.00596457 0.0119252 0.00596457 0.0119213 0.00596457 0.0119252 0.0059685 0.0119213 0.00596457 0.0178858 0.00596457 0.00596063 0.00596457 0.0178858 0.00596457 0.0178858 0.0059685 0.0119213 0.00596457 0.0238504 0.00596457 0.0119252 0.00596457 0.0238425 0.00596457 0.0119252 0.00596457 0.0238465 0.0059685 0.0238465 0.00596457 0.0119252 0.00596457 0.0357677 0.00596457 0.0178858 0.00596457 0.0417283 0.00596457 0.0238543 0.0059685 0.0238386 0.00596457 0.0178898 0.00596457 0.0119213 0.00596457 0.0119213 0.00596457 0.00596457 0.00596457 0.0119213 0.0059685 0.00596457 0.00596457 0.00596063 0.00596457 0.00596457 0.00596457 0.00595669 0.00596457 0.00596457 0.0059685 0.00596063 0.00596457 0.00596063 0.00596457 0.00596063 0.00596457 0.00596457 0.0119291 0.00596063 0.0059685 0.00596457 0.00596457 0.00595669 0.0178937 0.0059685 0.00596457 0.00595669 0.0178976 0.00596063 0.0119291 0.00596063 0.0119331 0.00596457 0.0238583 0.00596063 0.0178976 0.00596457 0.0477244 0.00595669 0.268433 0.0059685 0.0178976 0.00595669 0.00596457 0.00596063 0.00596457 0.00596457 0.00596457 0.00596063 0.0059685 0.00596063 0.00596457 0.0178898 0 0.667701 -0.00596457 0.0178898 -0.0059685 0.00595669 0 0.0119252 -0.0119291 0 0 0.0119213 -0.0178937 0 -0.0119331 0.00596457 -0.29826 0.00596063 -0.0178976 0.00596457 -0.0178976 0.00595669 -0.0238583 0.0059685 -0.0119331 0.00595669 -0.0178937 0.00596063 -0.0059685 0.00596457 -0.0178937 0.00596063 -0.0119291 0.00596063 -0.0059685 0.00596457 -0.0119291 0.00596063 -0.00596457 0.00596457 -0.00596457 0.00595669 -0.0119331 0.0059685 0 0.0119173 -0.0119291 0 -0.00596457 0.0119213 -0.00596457 0.00596457 -0.0059685 0.00596457 -0.00596457 0.00595669 -0.00596457 0.0119252 -0.00596457 0.00596063 -0.00596457 0.00596063 -0.00596457 0.0119252 -0.0059685 0.00596063 -0.00596457 0.0119213 -0.00596457 0.0119252 -0.00596457 0.0119252 -0.00596457 0.0119213 -0.00596457 0.0119252 -0.0059685 0.0119213 -0.00596457 0.0119252 -0.00596457 0.00596063 -0.00596457 0.0178858 -0.00596457 0.00596457 -0.00596457 0.0178819 -0.0059685 0.0119213 -0.00596457 0.0119252 -0.00596457 0.0119213 -0.00596457 0.0059685 -0.00596457 0.0119173 -0.0059685 0.00596457 -0.00596457 0.0119213 -0.00596457 0.0119252 -0.00596457 0.00596457 -0.00596457 0.0119173 -0.00596457 0.00596457 -0.0059685 0.0119213 -0.00596457 0.00596063 -0.00596457 0.0119252 -0.00596457 0.00596457 -0.00596457 0.00596457 -0.00596457 0.0119173 -0.0059685 0.00596063 -0.00596457 0.0119252 -0.00596457 0.00596063 -0.00596457 0.00596457 -0.00596457 0.0119213 -0.0059685 0.00596063 0 0.0119252 -0.0119291 0 -0.00596457 0.0119213 -0.00596457 0.00596457 -0.00596457 0.00596063 -0.0059685 0.00596457 -0.00596457 0.0119213 -0.00596457 0.00596063 -0.00596457 0.00596063 -0.00596457 0.00596063 -0.00596457 0.00596063 -0.0059685 0.00596457 -0.00596457 0.00596457 -0.00596457 0.00595669 -0.00596457 0.0059685 -0.00596457 0.00595669 -0.00596457 0.00596063 0 0.0119252 -0.0119331 0 0 0.0119252 -0.0119291 0 0 0.0119252 -0.0119331 0 -0.00596457 0.00595669 -0.00596457 0.00596063 -0.00596457 0.00596457 -0.00596457 0.00596063 -0.00596457 0.00596063 -0.0059685 0.00596063 -0.0119291 0.00596457 -0.00596457 0.00596457 -0.00596457 0.00595669 -0.0119331 0.00596063 -0.00596457 0.00596457 0 0.0119213 -0.0119291 0 -0.00596457 0.00596063 -0.0119331 0.00596457 -0.00596457 0.00596063 -0.0119291 0.00596457 -0.00596457 0.00595669 -0.0059685 0.00596457 -0.0119291 0.00596063 -0.00596457 0.00596063 -0.0119291 0.00596457 -0.0059685 0.00596063 -0.00596457 0.00596063 -0.0119291 0.00596457 -0.0059685 0.00595669 -0.0119291 0.0059685 -0.00596457 0.00595669 -0.0178976 0.00596063 -0.00596457 0.00596457 -0.00596457 0.00596063 -0.0178976 0.00596063 0 0.0119252 -0.0178937 0 -0.0119291 0.00596457 -0.0059685 0.00595669 -0.0119291 0.0059685 -0.00596457 0.00595669 -0.0119291 0.00596063 -0.0059685 0.00596063 -0.00596457 0.00596063 -0.00596457 0.00596457 -0.00596457 0.00596457 -0.00596457 0.00595669 -0.00596457 0.0059685 -0.0059685 0.00595669 -0.00596457 0.00596063 -0.00596457 0.00596063 -0.00596457 0.0119252 -0.00596457 0.0119252 -0.0059685 0.00596457 -0.00596457 0.0119173 -0.00596457 0.00596457 -0.00596457 0.0119213 -0.00596457 0.0119252 -0.00596457 0.0119252 -0.0059685 0.0238425 -0.00596457 0.0238504 0 0.0834606 0.00596457 0.0178858 0.0059685 0.0238465 0.00596457 0.0119213 0.00596457 0.0238465 0.00596457 0.0119252 0.00596457 0.0119213 0.00596457 0.0178858 0.0059685 0.0178858 0.00596457 0.0238465 0.00596457 0.0119252 0.00596457 0.0238465 0.00596457 0.0119213 0.0059685 0.0119252 0.00596457 0.0238504 0.00596457 0.0119173 0 0.0417323 -0.00596457 0.0119252 -0.00596457 0.0178819 -0.0059685 0.00596457 -0.00596457 0.00596457 -0.0119291 0.00595669 -0.00596457 0.0059685 -0.0178976 0.00595669 -0.0119291 0.00596063 -0.0178976 0.00596063 -0.0178937 0.00596063 -0.0178976 0.00596457 -0.0178937 0.00596063 -0.0119331 0.00596457 -0.0178937 0.00596457 -0.0119331 0.00595669 -0.0178937 0.00596063 -0.0178976 0.00596063 -0.0178937 0.00596457 -0.0119291 0.00596063 -0.0119331 0.00596063 -0.0178937 0.00596457 -0.0119331 0.00595669 -0.0238583 0.00596457 -0.0119331 0.00596063 -0.00596457 0.00596457 -0.0238622 0.00596063 -0.0119291 0.00596063 -0.0178976 0.00596063 -0.0119291 0.00596457 -0.0238622 0.00596063 -0.00596457 0.00596457 -0.0238583 0.00595669 -0.0238622 0.00596457 -0.0357913 0 -0.0238622 -0.00596457 -0.0119291 -0.00595669 -0.00596457 -0.00596457 -0.0059685 -0.00596063 -0.00596457 -0.0119252 -0.00596457 -0.0119213 -0.00596457 -0.0178898 -0.0059685 -0.0178819 -0.00596063 -0.0119252 -0.0059685 -0.017878 -0.00596457 -0.00596457 -0.00596457 -0.0178898 -0.00596457 -0.0178819 -0.0059685 -0.00595669 -0.00596457 -0.0238543 -0.00596457 -0.0119213 -0.00596457 -0.0178858 -0.00596457 -0.0119252 -0.00596457 -0.0178819 -0.0059685 -0.0178858 -0.00596457 -0.0119252 -0.00596457 -0.0238465 -0.00596457 -0.0119213 -0.00596457 -0.0178819 -0.0059685 -0.0119252 -0.00596457 -0.00596457 -0.00596457 -0.0178819 -0.00596457 -0.00596457 -0.00596457 -0.0119173 -0.00596457 -0.0119291 -0.0059685 -0.00596063 -0.00596457 -0.00596063 -0.00596457 -0.00596457 -0.00596457 -0.00596063 -0.00596457 -0.00596063 -0.00596457 -0.00595669 -0.0059685 -0.0059685 -0.0119291 -0.00595669 -0.0119291 0 0 -0.0119291 -0.0178976 -0.00596063 -0.0119291 -0.00596063 -0.0119331 -0.00596063 -0.0298228 -0.00595669 -0.0238622 -0.0059685 -0.0894803 0 -0.0477205 0.0059685 -0.0775472 0.00595669 -0.0417598 0.00596063 -0.0357913 0.00596063 -0.107374 0.00596063 -0.0835118 0.00596457 -0.286335 0 -0.0596535 -0.00596457 -0.0775472 -0.00596063 -0.0298268 -0.00596063 -0.0298268 -0.00596063 -0.0417559 -0.00595669 -0.0178937 -0.0059685 -0.0417598 -0.00595669 -0.0238583 -0.00596457 -0.0178976 -0.00596063 -0.0357913 -0.00596457 -0.0238622 -0.00596063 -0.0596496 -0.00596063 -0.0357913 0 -0.0477244 0.00596063 -0.0119291 0.00596063 -0.0238622 0.00596457 -0.00596457 0.00596063 -0.0119291 0.00596457 -0.0119331 0.00595669 -0.00596457 0.0059685 -0.0119331 0.00595669 0 0.0119213 -0.0119291 0 -0.00596457 0.00596063 -0.00596457 0.00596457 -0.00596457 0.00596457 0 0.0119252 -0.0119331 0 -0.00596457 0.017878 -0.00596457 0.00596457 -0.00596457 0.00596063 -0.0059685 0.0119252 -0.00596457 0.0119213 -0.00596457 0.0178858 -0.00596457 0.00596063 -0.00596457 0.0238504 -0.00596457 0.0119213 -0.0059685 0.0119213 -0.00596457 0.0178858 -0.00596457 0.0119213 -0.00596457 0.0178858 -0.00596457 0.0178858 -0.00596457 0.0178898 -0.0059685 0.0119173 -0.00596457 0.0178858 -0.00596457 0.0119252 -0.00596457 0.0238465 -0.00596457 0.0178819 -0.00596457 0.0119252 -0.0059685 0.0119291 -0.00596457 0.017878 -0.00596457 0.0119252 -0.00596457 0.0178819 -0.00596457 0.0119252 -0.0059685 0.0178858 -0.00596457 0.00596063 -0.00596457 0.00596457 -0.00596457 0.00596063 -0.00596457 0.00596457 -0.00596457 0.00595669 -0.0238622 0.00596457 -0.0417559 0 -0.0238622 -0.00596457 -0.0119291 -0.00595669 -0.0178976 -0.00596457 -0.0178937 -0.00596063 -0.0119331 -0.00596457 -0.0238583 -0.00596063 -0.0059685 -0.00596063 -0.0238583 -0.00596063 -0.0119331 -0.00596457 -0.0119291 -0.00596063 -0.0178976 -0.00596457 -0.0119291 -0.00595669 -0.0178937 -0.00596457 -0.0119331 -0.00596063 -0.0178937 -0.00596063 -0.0178976 -0.00596457 -0.0119291 -0.00596063 -0.0238622 -0.00596063 -0.00596457 -0.00595669 -0.0238622 -0.00596457 -0.0119291 -0.00596457 -0.0119291 -0.00596063 -0.0178976 -0.00596457 -0.0178976 -0.00596063 -0.0238622 -0.00596063 -0.0119291 -0.00596063 -0.0119291 -0.00595669 -0.0119331 -0.0059685 -0.00596063 -0.00595669 -0.0059685 -0.00596457 -0.00596457 -0.00596457 -0.00596457 -0.0119213 -0.00596457 -0.00596063 0 -0.0655748 0.00596457 -0.0119252 0.00596457 -0.0119252 0.00596457 -0.0178858 0.0059685 -0.0119252 0.00596063 -0.0178819 0.0059685 -0.0119252 0.00596457 -0.0238465 0.00596457 -0.0119213 0.00596457 -0.0119252 0.0059685 -0.0178858 0.00596063 -0.0119173 0.0059685 -0.0238543 0.00596457 -0.00596063 0.00596457 -0.0238465 0.00596457 -0.0119213 0.0059685 -0.0178858 0.00596457 -0.0178858 0.00596457 -0.0238465 0.00596457 -0.0238465 0.00596457 -0.0119252 0.0059685 -0.0178819 0.00596457 -0.0417283 0 -0.0775079 -0.00596457 -0.0417323 -0.0059685 -0.0178819 -0.00596457 -0.0119252 -0.00596457 -0.0178819 -0.00596457 -0.0119252 -0.00596457 -0.0119252 -0.0059685 -0.00596063 -0.00596457 -0.0119252 -0.00596457 -0.00595669 -0.00596457 -0.00596457 -0.0059685 -0.0119213 -0.00596063 -0.00596457 -0.0059685 -0.00596063 -0.00596457 -0.00596063 -0.00596457 -0.00596457 -0.00596457 -0.00595669 -0.0059685 -0.00596457 -0.00596063 -0.00596063 -0.0119331 -0.00596457 -0.00596457 -0.00596063 -0.0119331 -0.00596063 -0.00596457 -0.00596063 -0.00596457 -0.00596457 -0.0119291 -0.00596063 -0.00596457 -0.00595669 -0.0059685 -0.00596457 -0.00596457 -0.00596457 -0.0119291 0 0 -0.0119213 -0.00596457 -0.00596063 -0.0119331 0 0 -0.0119252 -0.0119291 -0.00595669 -0.00596457 -0.0059685 -0.00596457 -0.00595669 -0.0059685 -0.00596457 -0.00596457 -0.00596063 -0.00596457 -0.00596457 -0.00596457 -0.00596063 -0.00596457 -0.00596063 -0.00596457 -0.00595669 -0.0059685 -0.0059685 -0.0119291 -0.00595669 -0.00596457 -0.00596457 -0.00596457 -0.00596457 -0.0059685 -0.00596063 -0.00596457 -0.00596063 -0.00596457 -0.00596063 -0.00596457 -0.00596063 -0.00596457 -0.00596457 -0.00596457 -0.0119213 -0.0059685 -0.00596063 -0.00596457 -0.00596457 -0.00596457 -0.00596063 -0.00596457 -0.00596063 -0.00596457 -0.00596457 -0.00596457 -0.00596063 -0.0059685 -0.00596063 -0.00596457 -0.00596457 -0.00596457 -0.00595669 -0.00596457 -0.0119252 -0.0119291 0 0 -0.0119252 -0.0059685 -0.00596063 -0.00596457 -0.00596063 -0.00596457 -0.00595669 -0.00596457 -0.00596457 -0.00596457 -0.00596457 -0.0059685 -0.0119252 -0.00596457 -0.00596063 -0.00596457 -0.0119213 -0.00596457 -0.00596457 -0.00596457 -0.00596063 -0.00596457 -0.00595669 -0.0059685 -0.0119291 -0.00596457 -0.00596063 -0.00596457 -0.0119213 -0.00596457 -0.00596457 -0.00596457 -0.00596063 -0.00596457 -0.0119252 -0.0059685 -0.00595669 -0.00596457 -0.00596457 -0.00596457 -0.0119252 -0.00596457 -0.0119213 -0.00596457 -0.00595669 -0.0059685 -0.0059685 -0.00596457 -0.0119213 -0.00596457 -0.0119252 -0.00596457 -0.0119213 -0.00596457 -0.00596063 -0.00596457 -0.0119213 -0.0059685 -0.0119252 -0.00596457 -0.00596457 -0.00596457 -0.0119213 -0.00596457 -0.0119252 -0.00596457 -0.0119252 -0.00596457 -0.0119213 -0.0059685 -0.00596063 -0.00596457 -0.0178858 -0.00596457 -0.00596063 -0.00596457 -0.0178819 -0.00596457 -0.0119291 -0.00596457 -0.0119213 -0.0059685 -0.0119173 -0.00596457 -0.0119252 -0.00596457 -0.0178898 -0.00596457 -0.00596063 -0.00596457 -0.0238425 -0.0059685 -0.0119252 -0.00596457 -0.0238504 -0.00596457 -0.0178858 -0.00596457 -0.0178819 -0.00596457 -0.0238465 -0.00596457 -0.0178819 -0.0059685 -0.0357756 -0.00596457 -0.0178819 -0.00596457 -0.0357717 -0.00596457 -0.0357717 -0.00596457 -0.0357677 0 -0.339815 0.00596457 -0.0476969 0.00596457 -0.0476929 0.00596457 -0.0476929 0.00596457 -0.0298071 0.0059685 -0.0417323 0.00596457 -0.0238425 0.00596457 -0.0417362 0.00596457 -0.0178819 0.00596457 -0.029811 0.00596457 -0.0298071 0.0059685 -0.0178858 0.00596457 -0.0238425 0.00596457 -0.0178898 0.00596457 -0.0178858 0.00596457 -0.0119173 0.0059685 -0.0178898 0.00596457 -0.0178858 0.00596457 -0.0119173 0.00596457 -0.0238504 0.00596457 -0.0119252 0.00596457 -0.0119213 0.0059685 -0.0119213 0.00596457 -0.0119252 0.00596457 -0.0178858 0.00596457 -0.0119252 0.00596457 -0.0119173 0.00596457 -0.0119291 0.0059685 -0.0119213 0.00596457 -0.0178858 0.00596457 -0.00595669 0.00596457 -0.0119291 0.00596457 -0.0119213 0.00596457 -0.0178858 0.0059685 -0.00595669 0.00596457 -0.0059685 0.00596457 -0.0178858 0.00596457 -0.00596063 0.00596457 -0.0119213 0.0059685 -0.00596457 0.00596457 -0.0119173 0.00596457 -0.0119252 0.00596457 -0.00596457 0.00596457 -0.0119213 0.00596457 -0.00596457 0.0059685 -0.0119173 0.00596457 -0.0059685 0.00596457 -0.00595669 0.00596457 -0.00596457 0.00596457 -0.0119252 0.00596457 -0.0119213 0.0059685 -0.00596063 0 -0.0119213 0.0119291 0 0.00596457 -0.00596457 0.00596457 -0.0119252 0.0059685 -0.00596063 0.00596457 -0.00596063 0.00596457 -0.0119252 0.00596457 -0.00596063 0.00596457 -0.00595669 0.00596457 -0.00596457 0.0059685 -0.00596457 0.00596457 -0.00596063 0 -0.0119252 0.0119291 0 0.00596457 -0.00596063 0.00596457 -0.00596063 0.0059685 -0.00595669 0 -0.0119252 0.0119291 0 0.00596457 -0.0119252 0.0119291 -0.00596457 0 -0.0119213 0.0119331 0 0 -0.0119252 0.0119291 0 0.00596457 -0.00595669 0 -0.0119291 0.0119331 0 0.00596457 -0.00596063 0.00596457 -0.00596063 0.00596457 -0.00596063 0.00596457 -0.00596457 0.0119331 -0.00596063 0.00596457 -0.00595669 0.0119291 -0.0059685 0.00596457 -0.00595669 0.0059685 -0.00596457 0.00596457 -0.00596063 0.00596457 -0.00596063 0.0119291 -0.00596457 0.0059685 -0.00596063 0.0119291 -0.00596063 0.00596457 -0.00596457 0.00596457 -0.00595669 0.00596457 -0.00596457 0.0059685 -0.00596063 0.0119291 -0.00596457 0.0119331 -0.00596063 0.00596063 -0.00596063 0.0059685 -0.00596063 0.0119291 -0.00595669 0.00596457 -0.00596457 0.0119291 -0.00596457 0.0059685 -0.00596063 0.00596457 -0.00596457 0.0119291 -0.00596063 0.0119331 -0.00596063 0.00596457 -0.00596063 0.0119291 -0.00596457 0.0059685 -0.00596063 0.0119291 -0.00595669 0.0119291 -0.00596457 0.0119331 -0.00596457 0.00596457 -0.00596063 0.00596457 -0.00596063 0.0119291 -0.00596457 0.00596457 -0.00596063 0.0178976 -0.00596063 0.00596457 -0.00595669 0.0119291 -0.0059685 0.0119331 -0.00595669 0.00596457 -0.00596457 0.0119291 -0.00596063 0.0059685 -0.00596457 0.0178937 -0.00596063 0.0119291 -0.00596063 0.0059685 -0.00595669 0.0178937 -0.0059685 0.00596457 -0.00595669 0.0178976 -0.00596457 0.0119291 -0.00596063 0.0119331 -0.00596457 0.0119291 -0.00596063 0.0119291 -0.00596063 0.0119331 -0.00596457 0.0119291 -0.00596063 0.0178937 -0.00595669 0.0059685 -0.0059685 0.0119291 -0.00595669 0.0178937 -0.00596457 0.0119331 -0.00596063 0.0178937 -0.00596063 0.0119331 -0.00596457 0.0178937 -0.00596063 0.0119331 -0.00596063 0.0119291 -0.00596457 0.0178937 -0.00595669 0.0119331 -0.00596457 0.0238622 -0.00596063 0.0119291 -0.00596457 0.0238622 -0.00596063 0.0178937 -0.00596063 0.0178976 -0.00596063 0.0238583 -0.00595669 0.0119331 -0.0059685 0.0298268 -0.00595669 0.0178937 -0.00596457 0.0119291 -0.00596457 0.0298307 -0.00596063 0.0178937 -0.00596063 0.0298268 -0.00596063 0.0178937 -0.00596457 0.0357953 -0.00596063 0.0178937 -0.00595669 0.0238622 -0.00596457 0.0357913 -0.00596063 0.0238583 -0.00596457 0.053689 -0.00596063 0.0238622 -0.00596457 0.053685 -0.00596063 0.0417598 -0.00596063 0.0357913 -0.00595669 0.101409 -0.0059685 0.143165 -0.00595669 0.131236 0 0.143165 0.00595669 0.101409 0.0059685 0.0357913 0.00595669 0.0357913 0.00596063 0.0596535 0.00596063 0.0298268 0.00596457 0.0477205 0.00596063 0.0238622 0.00596457 0.0417559 0.00596063 0.0238622 0.00596457 0.0178937 0.00595669 0.0417598 0.00596063 0.0119291 0.00596457 0.0417559 0.00596063 0.0119331 0.00596063 0.0715827 0 0.0119291 -0.00596063 0.0178937 -0.00596063 0.0059685 -0.00596457 0.0119291 -0.00596063 0.00596457 -0.00595669 0.00596457 -0.00596457 0.0059685 -0.00596063 0.00596457 -0.00596457 0.00596457 -0.00596063 0.00596457 -0.0119252 0.00596457 -0.00596063 0.00596457 -0.0178819 0.0059685 -0.00596457 0.00596457 -0.0119252 0.00596457 -0.0178819 0.00596457 -0.00596457 0.0059685 -0.0119213 0.00596063 -0.0119252 0.0059685 -0.0178819 0.00596457 -0.00596457 0.00596457 -0.0119173 0.00596457 -0.0119291 0.0059685 -0.00596063 0.00596457 -0.0178858 0.00596457 -0.00596063 0.00596457 -0.00595669 0.00596457 -0.0119291 0.00596457 -0.00596063 0.0059685 -0.0119252 0.00596457 -0.00596063 0.00596457 -0.00596063 0.00596457 -0.0119252 0.00596457 -0.00595669 0.0059685 -0.00596457 0.00596457 -0.00596457 0.00596457 -0.0119213 0.00596457 -0.00596063 0 -0.0119252 0.0119291 0 0.0059685 -0.00595669 0.00596457 -0.0119252 0.00596457 -0.00596457 0.00596457 -0.00596063 0.00596457 -0.00596457 0.00596457 -0.00596063 0.0059685 -0.00596063 0.00596457 -0.00595669 0.00596457 -0.0059685 0.00596457 -0.00595669 0.00596457 -0.00596457 0.00596457 -0.00596063 0.0059685 -0.00596457 0.00596457 -0.00596063 0.00596457 -0.00596063 0.0119291 -0.00596063 0 -0.0119213 0.0119331 0 0.00596457 -0.00596457 0.00596457 -0.00596063 0.00596457 -0.00596457 0.0119331 -0.00596063 0.00596457 -0.00596063 0.00596457 -0.00596063 0.0119291 -0.00596457 0.00596457 -0.00596063 0.0119331 -0.00595669 0.00596457 -0.00596457 0.0119291 -0.00596457 0.0119331 -0.00596063 0 -0.0119252 0.0178937 0 0.00596457 -0.00596063 0.0119331 -0.00596063 0.00596457 -0.00595669 0.00596457 -0.0059685 0.0178976 -0.00595669 0.00596457 -0.00596457 0.0119291 -0.00596457 0.0119291 -0.00596063 0.0119331 -0.00596063 0.0119291 -0.00596063 0.0119331 -0.00595669 0.0119291 -0.0059685 0.0119291 -0.00595669 0.0178976 -0.00596457 0 0.0178898 -0.00596457 0.0119173zm0.190886 -0.411354l-0.0298268 0.00596063 -0.0119291 0.00596457 -0.0238622 0.00595669 -0.0178937 0.0059685 -0.0119331 0.00595669 -0.0238583 0.00596063 -0.0178976 0.00596457 -0.0178937 0.00596063 -0.0119331 0.00596063 -0.0178937 0.00596457 -0.0178976 0.00596063 -0.00596457 0.00596457 -0.0238622 0.00595669 -0.00596457 0.0059685 -0.0178937 0.00595669 -0.0119331 0.00596063 -0.0119291 0.00596063 -0.0178976 0.00596063 -0.0119291 0.00596457 -0.0119291 0.00596457 -0.0119331 0.00595669 -0.0119291 0.0059685 -0.0119291 0.00595669 -0.00596457 0.00596063 -0.0119331 0.00596063 -0.00596457 0.00596457 -0.0178976 0.00596063 -0.00596457 0.00596063 -0.00596457 0.00596457 -0.0178937 0.00596457 0 0.0119173 -0.0178976 0 -0.00596457 0.00596457 -0.0119291 0.00596063 -0.0059685 0.00596063 -0.00596457 0.00596063 -0.0119291 0.00596457 -0.00596457 0.00596063 -0.0119331 0.00596457 -0.00596457 0.00595669 -0.0119291 0.00596457 -0.00596457 0.00596063 -0.0059685 0.00596063 -0.0119291 0.00596063 -0.00596457 0.00596457 -0.0119291 0.00596063 -0.0059685 0.00596457 0 0.0119213 -0.0119291 0 -0.00596457 0.00596063 -0.0119291 0.00596063 0 0.0119252 -0.0119331 0 -0.00596457 0.00596063 -0.00596457 0.00596457 -0.00596457 0.00595669 -0.0059685 0.0059685 -0.00596457 0.00595669 -0.00596457 0.00596063 -0.00596457 0.00596457 -0.0119291 0.00596063 -0.0059685 0.00596063 -0.00596457 0.00596063 -0.00596457 0.00596457 0 0.0119213 -0.0119331 0 -0.00596063 0.0119252 -0.0059685 0.00596063 -0.00596457 0.00596063 -0.00596457 0.00596063 -0.00596457 0.00596457 -0.0059685 0.00596457 -0.00596457 0.00595669 -0.00596457 0.0059685 0 0.0119173 -0.0119291 0 -0.00596457 0.0119252 -0.0059685 0.00596063 0 0.0119252 -0.0119291 0 -0.00596457 0.00596457 -0.00596457 0.0119173 -0.0059685 0.00596457 -0.00596457 0.0119213 -0.00596457 0.00596063 -0.00596457 0.00596457 -0.00596457 0.0119252 -0.00596457 0.00595669 -0.0059685 0.00596457 -0.00596457 0.0119213 -0.00596457 0.0119252 -0.00596457 0.00596063 -0.00596457 0.00596457 -0.00596457 0.0119252 -0.0059685 0.00595669 -0.00596457 0.0119213 -0.00596457 0.00596457 -0.00596457 0.0119252 -0.00596457 0.00595669 -0.00596457 0.0119252 -0.0059685 0.0119252 -0.00596457 0.00596063 -0.00596457 0.0119213 -0.00596457 0.0119291 -0.00596457 0.0119252 -0.0119331 0 -0.0417559 -0.0059685 -0.0238622 -0.00595669 -0.0417559 -0.00596457 -0.0178937 -0.00596457 -0.0238622 -0.00596063 -0.0477205 -0.00596063 -0.0238622 -0.00596063 -0.053689 -0.00596457 -0.0298268 -0.00596063 -0.0357913 -0.00595669 -0.0656181 -0.0059685 -0.0417559 -0.00595669 -0.107374 -0.00596457 -0.286335 0 -0.125268 0.00596457 -0.0477244 0.00595669 -0.0715827 0.0059685 -0.0357913 0.00595669 -0.0298268 0.00596063 -0.053685 0.00596457 -0.0238622 0.00596063 -0.0477205 0.00596063 -0.0238622 0.00596063 -0.0178976 0.00596457 -0.0417559 0.00596457 -0.0119291 0.00595669 -0.0417559 0.0059685 -0.0178976 0.00595669 -0.0298268 0.00596063 -0.0178976 0.00596063 -0.0119291 0.00596063 -0.0357913 0.00596457 -0.0119291 0.00596063 -0.0238622 0.00596457 -0.0178976 0.00596457 -0.0238583 0.00595669 -0.0238622 0.00596063 -0.0119291 0.00596063 -0.0238622 0.00596457 -0.0119291 0.00596063 -0.0238622 0.00596063 -0.0119291 0.00596457 -0.0119331 0.00596457 -0.0178937 0.00596063 -0.0119331 0.00595669 -0.0238583 0.00596457 -0.0059685 0.00596063 -0.0238583 0.00596063 -0.00596457 0.00596063 -0.0119331 0.00596457 -0.0178937 0.00596063 -0.0119331 0.00596457 -0.0178937 0.00595669 -0.0119331 0.00596457 -0.0178937 0.00596063 -0.00596457 0.00596063 -0.0119331 0.00596063 -0.0178937 0.00596457 -0.0119291 0.00596063 -0.0178976 0.00596457 -0.0119291 0.00595669 -0.0059685 0.0059685 -0.0178937 0.00595669 -0.00596457 0.00596063 -0.0178976 0.00596063 -0.00596457 0.00596457 -0.0178937 0.00596063 -0.0059685 0.00596457 -0.00596457 0.00596063 -0.0178937 0.00596457 -0.00596457 0.00595669 -0.0119331 0.00596063 -0.0119291 0.00596457 -0.0119331 0.00596063 -0.0119291 0.00596063 0 0.0119252 -0.0178937 0 -0.0059685 0.00596457 -0.0178937 0.00595669 -0.0059685 0.0059685 -0.0119291 0.00595669 -0.0119291 0.00596063 -0.00596457 0.00596063 -0.0119331 0.00596063 -0.00596457 0.00596457 -0.0119291 0.00596063 -0.00596457 0.00596457 -0.0059685 0.00595669 -0.0119291 0.00596457 -0.0119291 0.00596063 -0.0119331 0.00596063 -0.00596457 0.00596457 -0.00596457 0.00596063 -0.0119291 0.00596063 -0.0059685 0.00596457 -0.0119291 0.00595669 -0.00596457 0.0059685 -0.00596457 0.00595669 -0.00596457 0.00596063 -0.0119331 0.00596457 -0.0119291 0.00596063 -0.00596457 0.00596063 -0.0059685 0.00596457 -0.0119291 0.00596063 -0.00596457 0.00596457 -0.0119291 0.00595669 -0.0059685 0.0059685 -0.00596457 0.00595669 -0.00596457 0.00596063 -0.0119291 0.00596063 -0.00596457 0.00596457 -0.0059685 0.00596063 -0.00596457 0.00596457 -0.00596457 0.00595669 -0.0119291 0.0059685 -0.00596457 0.00595669 -0.0059685 0.00596063 -0.00596457 0.00596063 -0.00596457 0.00596457 -0.0119291 0.00596063 -0.0059685 0.00596063 -0.00596457 0.00596457 -0.00596457 0.00596457 -0.00596457 0.00595669 -0.00596457 0.00596063 -0.00596457 0.00596457 -0.0119331 0.00596063 -0.00596457 0.00596063 -0.00596457 0.00596063 -0.00596457 0.00596457 -0.00596457 0.00596063 -0.0059685 0.0119291 -0.0119291 0.00595669 0 0.0119213 -0.0119291 0 -0.0059685 0.0119252 -0.00596457 0.00596063 -0.00596457 0.00596457 -0.00596457 0.00595669 -0.00596457 0.00596457 -0.00596457 0.00596063 -0.0059685 0.00596063 -0.00596457 0.0119252 -0.00596457 0.00596063 -0.00596457 0.00596457 -0.00596457 0.00595669 -0.00596457 0.0059685 -0.0059685 0.00595669 -0.00596457 0.00596063 -0.00596457 0.0119252 -0.00596457 0.00596063 -0.00596457 0.00596063 -0.00596457 0.0119291 -0.0059685 0.00595669 -0.00596457 0.0059685 -0.00596457 0.00595669 -0.00596457 0.0119213 -0.00596457 0.00596457 -0.0059685 0.0119252 -0.00596457 0.00595669 -0.00596457 0.0119252 -0.00596457 0.00596063 -0.00596457 0.00596063 -0.00596457 0.0119252 -0.0059685 0.0119252 -0.00596457 0.00596457 -0.00596457 0.0119173 -0.00596457 0.00596457 0 0.0178819 -0.0119291 0 -0.0059685 0.0119252 -0.00596457 0.0119213 -0.00596457 0.00596457 -0.00596457 0.0119213 -0.00596457 0.0119252 -0.0059685 0.0119252 -0.00596457 0.0119252 -0.00596457 0.00595669 -0.00596457 0.0119252 -0.00596457 0.0119213 -0.00596457 0.0119213 -0.0059685 0.0119252 -0.00596457 0.0119252 -0.00596457 0.0178819 -0.00596457 0.00596457 -0.0059685 0.0238465 -0.00596063 0.00596063 -0.0059685 0.0178858 -0.00596457 0.0119252 -0.00596457 0.00596457 -0.00596457 0.0238425 -0.0059685 0.0119213 -0.00596063 0.0178898 -0.0059685 0.00595669 -0.0178937 -0.00595669 -0.0119331 -0.00596063 -0.0178937 -0.00596457 -0.00596457 -0.00596457 -0.0178976 -0.00596063 -0.0119291 -0.00596063 -0.0059685 -0.00596457 -0.0119291 -0.00596063 -0.0119291 -0.00596063 -0.0119331 -0.00595669 -0.00596457 -0.00596457 -0.0119291 -0.00596457 -0.00596457 -0.00596063 -0.00596457 -0.00596063 -0.0119331 -0.00596457 -0.00596457 -0.00596063 -0.0119291 -0.00596063 -0.0059685 -0.00595669 -0.00596457 -0.0059685 -0.00596457 -0.00595669 -0.00596457 -0.00596457 -0.00596457 -0.00596457 -0.00596457 -0.00596063 -0.0059685 -0.00596063 -0.00596457 -0.00596063 -0.00596457 -0.00596457 -0.00596457 -0.00596063 -0.00596457 -0.0119252 -0.00596457 -0.00595669 -0.0059685 -0.00596457 -0.00596457 -0.0119213 -0.00596457 -0.00596457 -0.00596457 -0.0119173 -0.00596457 -0.0119252 -0.00596457 -0.0119252 -0.0059685 -0.0119252 -0.00596457 -0.0119213 -0.00596457 -0.0238465 -0.00596457 -0.0119252 -0.00596457 -0.0417323 0 -0.119232 0.00596457 -0.0417323 0.00596457 -0.0178858 0.00596457 -0.0238425 0.00596457 -0.00596457 0.0059685 -0.0119252 0.00596457 -0.0119213 0.00596457 -0.0119173 0 -0.0178898 0.0119291 0 0.00596457 -0.0119252 0.0059685 -0.00596063 0.00596457 -0.00596063 0.00596457 -0.00596457 0.00596457 -0.00596063 0.00596457 -0.0119213 0.00596457 -0.00596457 0.0119331 -0.00596063 0.00596457 -0.00596063 0.0119291 -0.00596457 0 -0.0119213 0.0178976 0 0.0119291 -0.00595669 0.00596457 -0.0059685 0.0178976 -0.00595669 0.00596457 -0.00596457 0.0119291 -0.00596063 0.0059685 -0.00596457 0.00596457 -0.00596063 0.00596457 -0.00596063 0.00596457 -0.00595669 0.00596457 -0.0059685 0.00596457 -0.00595669 0.0059685 -0.0119252 0.00596457 -0.0119252 0.00596457 -0.0178858 0 -0.0715394 -0.00596457 -0.0178858 -0.00596457 -0.0119213 -0.0059685 -0.00595669 -0.00596457 -0.0119252 -0.00596457 -0.00596457 -0.0119291 0 0 -0.0119252 -0.0119331 -0.00596063 -0.00596457 -0.00596063 -0.00596457 -0.00596457 -0.0178937 -0.00596063 -0.0119331 -0.00595669 -0.0835118 0 -0.0119331 0.00595669 -0.0178937 0.00596063 -0.00596457 0.00596457 -0.0119331 0.00596063 -0.0119291 0.00596063 -0.00596457 0.00596063 -0.0119331 0.00596457 -0.0119291 0.00596457 -0.0119291 0.00595669 -0.00596457 0.0059685 -0.0119331 0.00595669 -0.0119291 0.00596063 0 0.0119213 -0.0119291 0 -0.0059685 0.00596457 -0.00596457 0.00596063 -0.00596457 0.00596457 -0.00596457 0.00595669 -0.00596457 0.00596457 -0.0059685 0.00596063 -0.00596457 0.00596063 -0.00596457 0.00596457 0 0.0119213 -0.0119291 0 -0.00596457 0.0119213 -0.0059685 0.0059685 -0.00596457 0.00595669 -0.00596457 0.00596063 -0.00596457 0.0119252 -0.00596457 0.00596063 -0.00596457 0.00596457 -0.0059685 0.00596063 -0.00596457 0.0119213 -0.00596457 0.0059685 -0.00596457 0.017878 -0.00596457 0.00596457 -0.00596457 0.0119252 -0.0059685 0.0119252 -0.00596457 0.0119173 -0.00596457 0.0119252 -0.00596457 0.0119213 -0.00596457 0.0238465 -0.0059685 0.00596457 -0.00596457 0.0238465 -0.00596457 0.0178898 -0.00596457 0.017878 -0.00596457 0.0298071 -0.00596457 0.0238504 0 0.220579 0.00596457 0.0238465 0.00596457 0.029811 0.00596457 0.0178819 0.00596457 0.0178858 0.00596457 0.0238504 0.0059685 0.0119252 0.00596457 0.0178819 0.00596457 0.0119213 0.00596457 0.0119252 0.00596457 0.0119213 0.0059685 0.0059685 0.00596457 0.017878 0.00596457 0.00596457 0.00596457 0.0119213 0.00596457 0.0119291 0.00596457 0.0119173 0.0059685 0.00596063 0.00596457 0.00596457 0.00596457 0.0119213 0.00596457 0.00596457 0.00596457 0.0119252 0.00596457 0.00595669 0.0059685 0.00596457 0.00596457 0.00596063 0.00596457 0.0119213 0.00596457 0.00596457 0.00596457 0.00596063 0.00596457 0.00596457 0.0059685 0.00595669 0.00596457 0.00596457 0.00596457 0.00596063 0.00596457 0.00596063 0.00596457 0.00596063 0.0059685 0.00596457 0.00596457 0.00596063 0.00596457 0.00596457 0.00596457 0.00595669 0.00596457 0.0059685 0.00596457 0.00595669 0.0059685 0.00596063 0.0119291 0.00596457 0.00596457 0.00596063 0.00596457 0.00596063 0.00596457 0.00596457 0.0119331 0.00596063 0.00596457 0.00596457 0.0119291 0.00595669 0.0059685 0.00596063 0.00596457 0.00596457 0.0119291 0.00596063 0.00596457 0.00596063 0.0178976 0.00596063 0.00596457 0.00596457 0.0119291 0.00596457 0.0119331 0.00595669 0.00596457 0.0059685 0.0178937 0.00595669 0.0119331 0.00596063 0.0119291 0.00596063 0.0119291 0.00596063 0.0119331 0.00596457 0.0119291 0.00596063 0.0119291 0.00596457 0.0238622 0.00595669 0.00596457 0.00596457 0.0178976 0.00596063 -0.00596457 0.0178858 -0.0059685 0.0178858 -0.00596457 0.0417323 -0.00596457 0.0238504 -0.00596457 0.0536496 -0.00596457 0.0298071 -0.00596457 0.0417323 -0.0059685 0.0775 -0.00596457 0.0655827 0 0.268272 0.00596457 0.0596181 0.0059685 0.0536535 0.00596457 0.0357717 0.00596457 0.0298071 0.00596457 0.0357717 0.00596457 0.0178858 0.00596457 0.0298071 0.0059685 0.0178858 0.00596457 0.0178819 0.00596457 0.0357717 0.00596457 0.0119252 0.00596457 0.0238465 0.0059685 0.0119213 0.00596457 0.0178898 0.00596457 0.0178819 0.00596457 0.0119213 0.00596457 0.0178858 0.00596457 0.0119213 0.0059685 0.0178858 0.00596457 0.0119252 0.00596457 0.0119252 0.00596457 0.0119252 0.0059685 0.00595669 0.00596063 0.0178858 0.0059685 0.0119252 0.00596457 0.0178819 0.00596457 0.0059685 0.00596457 0.0119173 0.0059685 0.0119252 0.00596063 0.00596063 0.0059685 0.0178898 0.00596457 0.00595669 0.00596457 0.0119252 0.00596457 0.0119213 0.0059685 0.0119252 0.00596457 0.0119213 0.00596457 0.00596063 0.00596457 0.0119252 0.00596457 0.0119213 0.00596457 0.00596457 0.0059685 0.00596063 0.00596457 0.0119291 0.00596457 0.0119173 0.00596457 0.00596063 0.00596457 0.0119252 0.0059685 0.00596063 0.0119291 0 0 0.0119213 0.00596457 0.0119252 0.00596457 0.00596063 0.00596457 0.0119252 0.0059685 0.00596063 0.00596457 0.00596457 0.00596457 0.00596063 0.00596457 0.0119213 0.00596457 0.00596457 0.00596457 0.0119213 0.0059685 0.00596063 0.00596457 0.00596063 0.00596457 0.0119291 0.00596457 0.00595669 0.00596457 0.0059685 0.0059685 0.00595669 0.00596457 0.00596063 0.00596457 0.00596063 0.00596457 0.0119252 0.00596457 0.00596457 0.00596457 0.00595669 0.0059685 0.0059685 0.00596457 0.00595669 0.00596457 0.0119252 0.00596457 0.00596063 0.0119291 0 0 0.0119213 0.0119331 0 0 0.0119291 0.00596457 0.00595669 0.00596457 0.00596063 0.00596457 0.00596457 0.00596457 0.00596063 0.0059685 0.00596063 0.00596457 0.00596063 0.00596457 0.0119252 0.0119291 0.00596457 0.0059685 0.00595669 0.00596457 0.00596457 0.00596457 0.0119213 0.0119291 0.00596457 0.00596457 0.00596063 0.0059685 0.00596063 0.00596457 0.00596457 0.00596457 0.00595669 0.00596457 0.0059685 0.00596457 0.00595669 0.00596457 0.00596063 0.0059685 0.00596457 0.0119291 0 0 0.0119213 0.00596457 0.00596457 0.00596457 0.00596063 0.0059685 0.00596457 0.0119291 0.00595669 0.00596457 0.0059685 0.00596457 0.00595669 0.00596457 0.00596063 0.0119331 0.00596063 0.00596457 0.00596063 0.00596457 0.00596457 0.0119291 0 0 0.0119213 0.0119331 0.0059685 0.00596457 0.00595669 0.00596457 0.00596063 0.00596457 0.00596063 0.0119331 0.00596457 0.0119291 0.00596063 0.00596457 0.0119252 0.00596457 0.00596457 0 0.0178819 -0.00596457 0.0119213 -0.00596457 0.0238504 -0.00596457 0.0178819 -0.00596457 0.0178858 -0.0059685 0.0238465 -0.00596457 0.0119213 -0.00596457 0.0178858 -0.00596457 0.0119213 -0.00596457 0.0119252 -0.00596457 0.0178858 -0.0059685 0.0119252 -0.00596457 0.0238504 -0.00596457 0.00595669 -0.00596457 0.0238465 -0.00596457 0.0119213 -0.00596457 0.0119252 -0.0059685 0.0178858 -0.00596457 0.0119213 -0.00596457 0.0178858 -0.00596457 0.0119252 -0.00596457 0.0298071 -0.00596457 0.0119213 -0.0059685 0.029811 0 0.107307 0.0059685 0.0238543 0.00596457 0.017878 0.00596457 0.0238504 0.00596457 0.0119213 0.00596457 0.0178858 0.00596457 0.0119213 0.0059685 0.0119213 0.00596457 0.0119252 0.00596457 0.00596457 0.00596457 0.0119213 0.00596457 0.00596063 0.00596457 0.0119252 0.0059685 0.00596457 0.00596457 0.00595669 0.00596457 0.00596457 0.00596457 0.00596063 0.00596457 0.00596063 0.00596457 0.00596063 0.0059685 0.00596457 0.00596457 0.00596063 0.0119291 0.00596457 0.00596457 0.00595669 0.0059685 0.0059685 0.00596457 0.00595669 0.00596457 0.00596063 0.0119291 0.00596063 0.00596457 0.00596457 0.0119331 0.00596063 0.0119291 0.00596457 0.0119291 0.00595669 0.0178976 0 0 0.0119252 0.0178976 0.00596063 0.0119291 0.00596457 0.0178937 0.00596063 0.0178976 0.00596063 0.0119331 0.00596063 0.0238583 0.00596457 0.0119331 0.00596457 0.0298228 0.00595669 0.0119331 0.0059685 0.00596457 0.00595669 0.0238622 0.00596063 0.0119291 0.00596063 0.0178976 0.00596063 0.0119291 0.00596457 0.0178937 0.00596063 0.0178976 0.00596457 0.0119291 0.00595669 0.0238622 0.00596457 0.0119291 0.00596063 0.0178976 0.00596063 0.0119291 0.00596457 0.0119331 0.00596063 0.0238583 0.00596063 0.0119331 0.00596457 0.0178937 0.00595669 0.0119331 0.0059685 0.0238583 0.00595669 0.0178976 0.00596063 0.0238583 0.00596457 0.125272 0 0.0298268 -0.00596457 0.0119291 -0.00596063 0.0238622 -0.00595669 0.0119291 -0.0059685 0.0178976 -0.00595669 0.0119291 -0.00596457 0.0119331 -0.00596063 0.00596457 -0.00596063 0.0119291 -0.00596457 0.00596457 -0.00596063 0.00596457 -0.00596063 0.0119331 -0.00596457 0.00596457 -0.00595669 0.00596457 -0.00596457 0.00596457 -0.00596063 0.0059685 -0.00596457 0.00596457 -0.00596063 0.00596457 -0.00596063 0.00596457 -0.00596063 0.00596457 -0.00595669 0.00596457 -0.0059685 0.0059685 -0.00595669 0.00596457 -0.00596457 0.00596457 -0.00596457 0.00596457 -0.0119213 0.0059685 -0.00596063 0.00596063 -0.0119252 0.0059685 -0.0119252 0.00596457 -0.00595669 0.00596457 -0.0178898 0.00596457 -0.00596063 0.0059685 -0.0238425 0.00596457 -0.0119252 0.00596457 -0.0119252 0.00596457 -0.0238425 0.00596457 -0.0119252 0.00596457 -0.0178858 0.0059685 -0.0119252 0.00596457 -0.0238465 0.00596457 -0.0119213 0.00596457 -0.0178858 0.00596457 -0.0178858 0.0059685 -0.0178858 0.00596457 -0.0238465 0.00596457 -0.00595669 0.00596457 -0.0178898 0.00596457 -0.0178858 0.00596457 -0.0119173 0.0059685 -0.0178898 0.0119291 0 0.0357913 0.00596457 0.0238622 0.00595669 0.0178937 0.0059685 0.0417559 0.00595669 0.0178976 0.00596063 0.0417559 0.00596457 0.0238622 0.00596063 0.0596535 0.00596063 0.0298228 0.00596063 0.0417598 0.00596457 0.101409 0.00596457 0.137201 0.00595669 0.00596457 0 0.178957 -0.00595669 0.131236 -0.00596457 0.053689 -0.00596457 0.0417559 -0.00596063 0.0835157 -0.00596063 0.0357913 -0.00596063 0.0656142 -0.00596457 0 0.0178858 0.0059685 0.0119252 0.00596457 0.0178898 0.00596457 0.017878 0.00596457 0.0178858 0.00596457 0.0119291 0.0059685 0.0119173 0.00596457 0.0178858 0.00596457 0.0178819 0.00596457 0.0178898 0.00596457 0.0119213 0.00596457 0.0178858 0.0059685 0.0119213 0.00596457 0.0119252 0.00596457 0.0119213 0.00596457 0.0119252 0.00596457 0.0178898 0.00596457 0.017878 0.0059685 0.00596457 0.00596457 0.0178819 0.00596457 0.0059685 0.00596457 0.0119173 0.00596457 0.00596457 0.0059685 0.0119213 0.00596457 0.00596063 0.00596457 0.00596457 0.00596457 0.0119213 0.00596457 0.0059685 0.00596457 0.00595669 0.0059685 0.00596063 0.00596457 0.00596063 0.00596457 0.00596063 0.00596457 0.00596457 0.00596457 0.00596063 0.0119331 0 0 0.0119213 0.0119291 0.00596457 0.00596457 0.00596063 0.0119291 0.00596063 0.0059685 0.00596457 0.0119291 0.00596063 0.0119291 0.00596063 0.0119331 0.00596457 0.0119291 0.00595669 0.0119291 0.0059685 0.0238622 0.00595669 0.0178976 0.00596063 0.0238622 0.00596457 0.119303 0 0.0298268 -0.00596457 0.0178937 -0.00596063 0.0178976 -0.00595669 0.0119291 -0.0059685 0.0238622 -0.00595669 0.0119291 -0.00596457 0.0178976 -0.00596063 0.0178937 -0.00596063 0.0119331 -0.00596457 0.0178937 -0.00596063 0.0119331 -0.00596063 0.0178937 -0.00596457 0.0119331 -0.00595669 0.0238583 -0.00596457 0.0119331 -0.00596063 0.0119291 -0.00596457 0.0238622 -0.00596063 0.0119291 -0.00596063 0.0178976 -0.00596063 0.0119291 -0.00595669 0.0119291 -0.0059685 0.0238622 -0.00595669 0.0178937 -0.00596457 0.0178976 -0.00596457 0.0178976 -0.00596063 0.0178937 -0.00596063 0.0119291 -0.00596063 0.0119331 -0.00596457 0.0178937 -0.00596063 0.00596457 -0.00595669 0.0178976 -0.0059685 0.0119291 -0.00595669 0.00596457 -0.00596457 0.0119331 -0.00596063 0.0119291 -0.00596457 0.0119331 -0.00596063 0 -0.0119173 0.0119291 0 0.00596457 -0.0059685 0.0059685 -0.00595669 0.0119291 -0.00596457 0.00596457 -0.00596063 0.00596457 -0.00596457 0.00596457 -0.00596063 0.0059685 -0.00596063 0.00596063 -0.00596063 0.0059685 -0.00596457 0.00596457 -0.0119213 0.00596457 -0.00596063 0.00596457 -0.0119252 0.0059685 -0.00596063 0.00596457 -0.0119252 0.00596457 -0.0119252 0.00596457 -0.00595669 0.00596457 -0.0178858 0.00596457 -0.00596457 0.0059685 -0.0238425 0.00596457 -0.0119252 0.00596457 -0.0178858 0.00596457 -0.0357717 0 -0.107307 -0.00596457 -0.0417323 -0.00596457 -0.0119252 -0.00596457 -0.0119213 -0.0059685 -0.0238425 -0.00596457 -0.0119291 -0.00596457 -0.0178858 -0.00596457 -0.017878 -0.00596457 -0.0178898 -0.00596457 -0.0178858 -0.0059685 -0.0119173 -0.00596457 -0.0238504 -0.00596457 -0.0119252 -0.00596457 -0.0178858 -0.0059685 -0.0119252 0 -0.0178819 0.0178976 -0.00596063 0.00596457 -0.00596457 0.0119331 -0.00596063 0.0119291 -0.00596063 0.0119291 -0.00596457 0.0059685 -0.00595669 0.0119291 -0.00596457 0.0119291 -0.00596063 0 -0.0119252 0.0178976 0 0.00596457 -0.00596063 0.0119291 -0.00596063 0.0059685 -0.00596457 0.00596457 -0.00595669 0.0119291 -0.00596063 0.0119291 -0.00596457 0.0059685 -0.00596457 0.0119291 -0.00596063 0.00596457 -0.00596063 0.0119331 -0.00596063 0.00596457 -0.00596457 0.0119291 -0.00596063 0 -0.0119213 0.0119291 0 0.0059685 -0.00596457 0.00596457 -0.00596063 0.00596457 -0.00596063 0.0119291 -0.00596457 0.00596457 -0.00596063 0.0059685 -0.00596063 0.00596457 -0.00595669 0.0119291 -0.0059685 0 -0.0119213 0.0119291 0 0.0059685 -0.00596457 0.00596457 -0.00596063 0.00596457 -0.00596063 0.00596457 -0.00596063 0.0119331 -0.00595669 0.00596457 -0.0059685 0.00596457 -0.00595669 0.00596457 -0.00596457 0.00596457 -0.00596063 0.00596457 -0.00596457 0.0059685 -0.00596063 0.00596457 -0.00596063 0.00596457 -0.00596457 0.00596457 -0.00596063 0.00596457 -0.00595669 0.00596457 -0.0059685 0.0059685 -0.00595669 0 -0.0119252 0.0119291 0 0 -0.0119252 0.0119291 0 0.0059685 -0.0119213 0.0119291 -0.00596457 0.00596457 -0.0119213 0.00596457 -0.00596063 0.00596457 -0.00596457 0.0059685 -0.00596063 0.00596457 -0.00596063 0.00596457 -0.00596063 0.00596457 -0.00596457 0.00596457 -0.00596063 0.00596457 -0.0119213 0.0059685 -0.00596457 0.00596457 -0.00596063 0.00596457 -0.0119213 0.00596457 -0.00596457 0.00596457 -0.00596063 0.00596457 -0.0119252 0.0059685 -0.00595669 0.00596457 -0.00596457 0.00596457 -0.00596063 0.00596457 -0.0119252 0.00596457 -0.00596063 0.0059685 -0.0119252 0.00596457 -0.00595669 0.00596457 -0.00596457 0.00596457 -0.0119252 0.00596457 -0.0119213 0.00596457 -0.00596063 0.0059685 -0.00596457 0.00596457 -0.0119213 0.00596457 -0.0119252 0.00596457 -0.00596063 0.00596457 -0.0119252 0.00596457 -0.00596063 0.0059685 -0.0119252 0.00596457 -0.0119213 0.00596457 -0.00596063 0.00596457 -0.0119252 0.00596457 -0.0119213 0.0059685 -0.0119213 0.00596457 -0.00596457 0.00596457 -0.0119252 0.00596457 -0.0119213 0.00596457 -0.0178858 0.00596457 -0.00595669 0.0059685 -0.0178898 0.00596457 -0.00596063 0.00596457 -0.0178858 0.00596457 -0.00595669 0.0059685 -0.0178898 0.00596063 -0.00596063 0.0059685 -0.0119252 0.00596457 -0.00596063 0.00596457 -0.00595669 0 -0.0119252 0.0178937 0 0.274406 -0.00596457 0.0477205 -0.00596063 0.0178976 -0.00596457 0.0238583 -0.00596063 0.0119331 -0.00596063 0.00596457 -0.00596063 0.0178937 -0.00596457 0.0059685 -0.00595669 0.0119291 -0.00596457 0.0119291 -0.00596063 0.0059685 -0.00596457 0.0119291 -0.00596063 0.00596457 -0.00596063 0.0119291 -0.00596457 0.0059685 -0.00596063 0.00596457 -0.00596063 0.00596457 -0.00596457 0.00596457 -0.00595669 0.00596457 -0.00596457 0.00596457 -0.00596063 0.0059685 -0.00596063 0.00596457 -0.0119252 0.00596457 -0.00596063 0 -0.0119252 0.0119291 0 0.00596457 -0.0119213 0.0059685 -0.0119252 0.00596457 -0.00596063 0.00596457 -0.0119173 0.00596457 -0.0119252 0.00596457 -0.0178898 0.0059685 -0.0119213 0.00596457 -0.0298071 0.00596457 -0.0238504 0 -0.751169 -0.00596457 -0.0238465 -0.00596457 -0.0238465 -0.0059685 -0.0119252 -0.00596457 -0.0238465 -0.00596457 -0.00596063 -0.00596457 -0.0119213 -0.00596457 -0.0119213 -0.0059685 -0.00596457 -0.00596457 -0.0119252 -0.00596457 -0.00596063 -0.00596457 -0.0119252 -0.00596457 -0.00596063 -0.00596457 -0.00596063 -0.0059685 -0.00596457 -0.00596457 -0.00595669 -0.00596457 -0.00596457 -0.00596457 -0.00596063 -0.00596457 -0.00596457 -0.00596457 -0.00596063 -0.0059685 -0.00596063 -0.00596457 -0.00596063 -0.00596457 -0.00595669 -0.00596457 -0.0059685 -0.0119291 -0.00595669 -0.0059685 -0.00596457 -0.0119291 -0.00596457 -0.0119291 -0.00596063 -0.0119331 -0.00596063 -0.0178937 -0.00596063 -0.0119331 -0.00596457 -0.0178937 -0.00596063 -0.0178976 -0.00595669 -0.0178937 -0.00596457 -0.310197 -0.00596063 -0.00596063 -0.0178858 -0.0059685 -0.0178819 -0.00596457 -0.0357756 -0.00596457 -0.0178858 -0.00596457 -0.0178819 -0.0059685 -0.029811 -0.00596063 -0.0119173 -0.0059685 -0.029815 -0.00596457 -0.0119213 -0.00596457 -0.0238465 -0.00596457 -0.0119252 -0.0059685 -0.00596063 -0.00596457 -0.0357717 -0.00596457 -0.0119213 -0.00596457 -0.0119252 -0.00596457 -0.0178858 -0.00596457 -0.0119213 -0.0059685 -0.0119213 -0.00596457 -0.0119252 -0.00596457 -0.0119252 -0.00596457 -0.0119213 -0.00596457 -0.0178858 -0.0059685 -0.00596063 -0.00596457 -0.0119252 -0.00596457 -0.0119213 -0.00596457 -0.0119252 -0.00596457 -0.0119213 -0.00596457 -0.00596063 -0.0059685 -0.0119252 -0.00596457 -0.0119213 -0.00596457 -0.00596457 -0.00596457 -0.0119213 -0.00596457 -0.0119252 -0.00596457 -0.00596063 -0.0059685 -0.0119252 -0.00596457 -0.00595669 -0.00596457 -0.0119252 -0.00596457 -0.00596457 -0.00596457 -0.0119213 -0.0059685 -0.0119252 -0.00596457 -0.00595669 -0.00596457 -0.0119291 -0.00596457 -0.00596063 -0.00596457 -0.00596063 -0.00596457 -0.00596063 -0.0059685 -0.0119252 -0.00596457 -0.00595669 -0.00596457 -0.0119252 -0.0119291 0 0 -0.0119252 -0.00596457 -0.00596063 -0.0059685 -0.00596457 -0.00596457 -0.0119213 -0.00596457 -0.00596457 -0.00596457 -0.00595669 -0.00596457 -0.00596457 -0.00596457 -0.00596063 -0.0059685 -0.0119252 -0.0119291 0 0 -0.0119213 -0.0119291 -0.00595669 -0.0059685 -0.0119291 -0.00596457 -0.00596063 -0.00596457 -0.00596457 -0.00596457 -0.00596063 -0.00596457 -0.00596063 -0.00596457 -0.00596063 -0.0059685 -0.00596457 -0.00596457 -0.00596063 -0.0119291 0 0 -0.0119213 -0.0119291 0 0 -0.0119252 -0.0119331 -0.00596063 -0.00596457 -0.0119252 -0.0119291 -0.00596063 -0.0059685 -0.00595669 -0.0119291 0 0 -0.0119252 -0.0119291 -0.00596457 -0.00596457 -0.00596063 -0.0059685 -0.00596457 -0.00596457 -0.00596063 -0.00596457 -0.00596063 -0.00596457 -0.00595669 -0.0119291 -0.0059685 -0.0059685 -0.00595669 -0.0119291 -0.00596457 -0.00596457 -0.00596063 -0.0119291 -0.00596457 -0.0059685 -0.00596063 -0.0119291 -0.00596063 -0.00596457 -0.00596457 -0.00596457 -0.00596063 -0.0119331 -0.00595669 -0.00596457 -0.0059685 -0.0119291 -0.00595669 -0.00596457 -0.00596457 -0.0119331 -0.00596063 -0.00596457 -0.00596063 -0.0119291 -0.00596457 -0.0119331 0 0 -0.0119213 -0.0178937 -0.00596457 -0.00596457 -0.00595669 -0.0119331 -0.00596457 -0.0119291 -0.00596063 -0.00596457 -0.00596457 -0.0178976 -0.00596063 -0.00596457 -0.00596063 -0.0178937 -0.00596063 -0.0119331 -0.00595669 -0.00596457 -0.0059685 -0.0178937 -0.00595669 -0.0119331 -0.00596457 -0.0119291 -0.00596457 -0.0119331 -0.00596063 -0.0119291 -0.00596063 0 -0.125197 0.00596457 -0.0536496 0.00596457 -0.029811 0.00596457 -0.0476969 0.0059685 -0.0238386 0.00596457 -0.0357756 0.00596457 -0.0238425 0.00596457 -0.029815 0.0059685 -0.017878 0.00596063 -0.0178898 0.0059685 -0.0298071 0.00596457 -0.0178858 0.00596457 -0.0238465 0.00596457 -0.0178858 0.0059685 -0.0178858 0.00596063 -0.0238465 0.0059685 -0.0119173 0.00596457 -0.0238543 0.00596457 -0.0119213 0.00596457 -0.0238425 0.0059685 -0.0119291 0.00596457 -0.0178819 0.00596457 -0.0238504 0.00596457 -0.0178819 0.00596457 -0.0238465 0.00596457 -0.0119213 0.0059685 -0.0238504 0.00596457 -0.00596063 0.00596457 -0.0119252 0.00596457 -0.0238465 0.00596457 -0.0119213 0.0059685 -0.0238425 0.00596457 -0.0119291 0.00596457 -0.0238465 0 -0.0357717 -0.00596457 -0.0178819 -0.00596457 -0.0119252 -0.0059685 -0.0178819 -0.00596457 -0.0119252 -0.00596457 -0.00596063 -0.00596457 -0.00596457 -0.00596457 -0.00596063 -0.0059685 -0.00595669 -0.00596457 -0.0059685 -0.00596457 -0.00595669 -0.0119291 -0.00596457 -0.0119331 -0.00596063 -0.0119291 -0.00596063 -0.0775472 0 -0.0119331 0.00596063z"/>
  </g>
 </g>
</svg>
