<?xml version="1.0" encoding="UTF-8"?>
<!DOCTYPE svg PUBLIC "-//W3C//DTD SVG 1.1//EN" "http://www.w3.org/Graphics/SVG/1.1/DTD/svg11.dtd">
<!-- Creator: CorelDRAW -->
<svg xmlns="http://www.w3.org/2000/svg" xml:space="preserve" width="8.5in" height="8.5in" style="shape-rendering:geometricPrecision; text-rendering:geometricPrecision; image-rendering:optimizeQuality; fill-rule:evenodd; clip-rule:evenodd"
viewBox="0 0 8.5 8.5"
 xmlns:xlink="http://www.w3.org/1999/xlink">
 <defs>
  <style type="text/css">
   <![CDATA[
    .fil4 {fill:black}
    .fil0 {fill:#010101}
    .fil2 {fill:#757575}
    .fil3 {fill:#FBFBFB}
    .fil1 {fill:#FEFEFE}
   ]]>
  </style>
 </defs>
 <g id="Layer_x0020_1">
  <metadata id="CorelCorpID_0Corel-Layer"/>
  <g id="_103723864">
   <path id="_103730032" class="fil0" d="M7.02011 3.40651l0.339409 0c0.123902,0 0.273181,-0.166701 0.273181,-0.29802l0 -0.0165551c0,-0.183941 -0.139862,-0.33113 -0.322854,-0.33113l-0.289736 0 0 0.645705z"/>
   <polygon id="_103723432" class="fil1" points="6.44891,5.40157 6.44891,1.35349 3.45217,1.35349 3.45217,5.40157 "/>
   <polygon id="_103729144" class="fil2" points="6.44891,5.40157 3.45217,5.40157 3.45217,1.35349 6.44891,1.35349 3.44389,1.34522 3.44389,5.4099 "/>
   <path id="_103722928" class="fil0" d="M7.35124 4.35023c0.147445,0 0.281461,-0.161307 0.281461,-0.322854 0,-0.18822 -0.155752,-0.322854 -0.347685,-0.322854l-0.264906 0 0 1.9454 0.32285 0c0.119528,0 0.281465,-0.153665 0.281465,-0.273181l0 -0.0827835c0,-0.229555 -0.248988,-0.264992 -0.273185,-0.298016 0.153823,0 0.281461,-0.162421 0.281461,-0.331134 0,-0.0802165 -0.0468504,-0.166378 -0.0888386,-0.209177 -0.0237008,-0.0241575 -0.0551142,-0.0490827 -0.0848583,-0.0641535 -0.0291299,-0.0147598 -0.090063,-0.0300118 -0.107764,-0.0412441z"/>
   <path id="_103723528" class="fil3" d="M4.79326 5.76582l0 0.0413937c0,0.0555591 0.0750079,0.140728 0.132449,0.140728l0.0413937 0c0.0662677,0 0.149008,-0.0652205 0.149008,-0.115898l0 -0.0579449c0,-0.0735709 -0.0666378,-0.149008 -0.132453,-0.149008l-0.0413898 0c-0.0710315,0 -0.149008,0.0768583 -0.149008,0.140728z"/>
   <path id="_103723624" class="fil4" d="M4.79326 5.76582c0,-0.0638701 0.0779764,-0.140728 0.149008,-0.140728l0.0413898 0c0.065815,0 0.132453,0.075437 0.132453,0.149008l0 0.0579449c0,0.0506772 -0.0827402,0.115898 -0.149008,0.115898l-0.0413937 0c-0.0574409,0 -0.132449,-0.0851693 -0.132449,-0.140728l0 -0.0413937zm1.65565 -4.41233l0 4.04808 -3.00502 0.00832283 0 -4.06468 3.00502 0.00827559zm-0.0496693 4.80969c0.249362,0 0.430472,-0.195252 0.430472,-0.447028l0 -4.66895c0,-0.239673 -0.195012,-0.430472 -0.438748,-0.430472l-2.88085 0c-0.236091,0 -0.438748,0.181209 -0.438748,0.413913l0 4.71863c0,0.227083 0.198563,0.413913 0.430469,0.413913l2.8974 0z"/>
   <path id="_103723696" class="fil0" d="M2.07797 5.54231c0,0.310559 0.0777874,0.781992 0.179213,0.988028 0.0589803,0.119811 0.139055,0.264768 0.224406,0.355075 0.0447638,0.0473583 0.275205,0.254299 0.275205,0.304276l0 0.0248346c0,0.0493425 -0.0334134,0.0662283 -0.0827835,0.0662283l-0.0496693 0c-0.0462087,0 -0.278512,-0.257528 -0.316118,-0.304756 -0.053811,-0.0675748 -0.210575,-0.297906 -0.230252,-0.382343l-0.0165551 0 -1.0348 1.27484c0.516031,1.5748e-005 1.03204,1.5748e-005 1.54806,1.5748e-005 0.259386,0 0.518772,0 0.778157,0 0.310772,0 0.467587,0.0241339 0.699465,-0.0704173 0.341787,-0.139366 0.75828,-0.318654 0.991382,-0.556657 0.142335,-0.145331 0.240055,-0.234102 0.368205,-0.401677 0.068374,-0.0894055 0.257898,-0.375409 0.283705,-0.486173l-2.30964 0c-0.159126,0 -0.292945,-0.0890669 -0.37472,-0.17165 -0.0959646,-0.0969134 -0.130256,-0.224677 -0.130256,-0.41611 0,-0.361484 0,-0.722969 0,-1.08446 0,-0.361484 0,-0.722969 0,-1.08445 0,-0.202043 0.0205197,-0.355197 -0.0522677,-0.494102 -0.0511772,-0.0976732 -0.190409,-0.201276 -0.336811,-0.201276l-0.0496693 0c-0.0746181,0 -0.212941,0.0798465 -0.250031,0.122492 -0.0453346,0.052122 -0.114217,0.166638 -0.114217,0.258311l0 2.25997z"/>
  </g>
 </g>
</svg>
