<?xml version="1.0" encoding="UTF-8"?>
<!DOCTYPE svg PUBLIC "-//W3C//DTD SVG 1.1//EN" "http://www.w3.org/Graphics/SVG/1.1/DTD/svg11.dtd">
<!-- Creator: CorelDRAW -->
<svg xmlns="http://www.w3.org/2000/svg" xml:space="preserve" width="3.5in" height="3.5in" style="shape-rendering:geometricPrecision; text-rendering:geometricPrecision; image-rendering:optimizeQuality; fill-rule:evenodd; clip-rule:evenodd"
viewBox="0 0 3.5 3.5"
 xmlns:xlink="http://www.w3.org/1999/xlink">
 <defs>
  <style type="text/css">
   <![CDATA[
    .str0 {stroke:#DEDEDD;stroke-width:0.0892913}
    .str1 {stroke:#1F1A17;stroke-width:0.140118}
    .fil0 {fill:white}
    .fil2 {fill:black}
    .fil3 {fill:#DA251D;fill-rule:nonzero}
    .fil1 {fill:#DEDEDD;fill-rule:nonzero}
   ]]>
  </style>
 </defs>
 <g id="Layer_x0020_1">
  <metadata id="CorelCorpID_0Corel-Layer"/>
  <g>
   <path class="fil0" d="M1.75 0.25c0.828287,0 1.5,0.671713 1.5,1.5 0,0.828287 -0.671713,1.5 -1.5,1.5 -0.828287,0 -1.5,-0.671713 -1.5,-1.5 0,-0.828287 0.671713,-1.5 1.5,-1.5z"/>
   <path id="1" class="fil1" d="M3.29465 1.75l-0.0892913 0 0 0 -0.00177953 -0.0750827 -0.00561417 -0.0739016 -0.00937008 -0.0727913 -0.0126693 -0.0715945 -0.0162283 -0.0704685 -0.0196929 -0.0689094 -0.0228898 -0.0675984 -0.0259921 -0.0661969 -0.0291693 -0.0643504 -0.0320827 -0.0627559 -0.0350787 -0.0610748 -0.0379724 -0.0589409 -0.0406063 -0.0570669 -0.0431339 -0.0550984 -0.0457559 -0.052685 -0.0482795 -0.0505236 -0.0505236 -0.0482795 -0.052685 -0.0457559 -0.0550984 -0.0431339 -0.0570669 -0.0406063 -0.0589409 -0.0379724 -0.0610748 -0.0350787 -0.0627559 -0.0320827 -0.0643504 -0.0291693 -0.0661969 -0.0259921 -0.0675984 -0.0228898 -0.0689094 -0.0196929 -0.0704685 -0.0162283 -0.0715945 -0.0126693 -0.0727913 -0.00937008 -0.0739016 -0.00561417 -0.0750827 -0.00177953 0 -0.0892913 0.0792717 0.00212598 0.0784291 0.0059685 0.0773268 0.00971654 0.0761299 0.0137165 0.0746575 0.0172756 0.0734449 0.0207402 0.0717795 0.0242835 0.0700315 0.0277323 0.0685394 0.0309173 0.0665906 0.0341772 0.064563 0.0371654 0.0627756 0.0400669 0.0605551 0.0430472 0.0582402 0.0459291 0.0561732 0.0485433 0.0536654 0.0510669 0.0510669 0.0536654 0.0485433 0.0561732 0.0459291 0.0582402 0.0430472 0.0605551 0.0400669 0.0627756 0.0371654 0.064563 0.0341772 0.0665906 0.0309173 0.0685394 0.0277323 0.0700315 0.0242835 0.0717795 0.0207402 0.0734449 0.0172756 0.0746575 0.0137165 0.0761299 0.00971654 0.0773268 0.0059685 0.0784291 0.00212598 0.0792717 0 0zm-1.54465 1.54465l0 -0.0892913 0 0 0.0750827 -0.00177953 0.0739016 -0.00561417 0.0727913 -0.00937008 0.0715945 -0.0126693 0.0704685 -0.0162283 0.0689094 -0.0196929 0.0675984 -0.0228898 0.0661969 -0.0259921 0.0643504 -0.0291693 0.0627559 -0.0320827 0.0610748 -0.0350787 0.0589409 -0.0379724 0.0570669 -0.0406063 0.0550984 -0.0431339 0.052685 -0.0457559 0.0505236 -0.0482795 0.0482795 -0.0505236 0.0457559 -0.052685 0.0431339 -0.0550984 0.0406063 -0.0570669 0.0379724 -0.0589409 0.0350787 -0.0610748 0.0320827 -0.0627559 0.0291693 -0.0643504 0.0259921 -0.0661969 0.0228898 -0.0675984 0.0196929 -0.0689094 0.0162283 -0.0704685 0.0126693 -0.0715945 0.00937008 -0.0727913 0.00561417 -0.0739016 0.00177953 -0.0750827 0.0892913 0 -0.00212598 0.0792717 -0.0059685 0.0784291 -0.00971654 0.0773268 -0.0137165 0.0761299 -0.0172756 0.0746575 -0.0207402 0.0734449 -0.0242835 0.0717795 -0.0277323 0.0700315 -0.0309173 0.0685394 -0.0341772 0.0665906 -0.0371654 0.064563 -0.0400669 0.0627756 -0.0430472 0.0605551 -0.0459291 0.0582402 -0.0485433 0.0561732 -0.0510669 0.0536654 -0.0536654 0.0510669 -0.0561732 0.0485433 -0.0582402 0.0459291 -0.0605551 0.0430472 -0.0627756 0.0400669 -0.064563 0.0371654 -0.0665906 0.0341772 -0.0685394 0.0309173 -0.0700315 0.0277323 -0.0717795 0.0242835 -0.0734449 0.0207402 -0.0746575 0.0172756 -0.0761299 0.0137165 -0.0773268 0.00971654 -0.0784291 0.0059685 -0.0792717 0.00212598 0 0zm-1.54465 -1.54465l0.0892913 0 0 0 0.00177953 0.0750827 0.00561417 0.0739016 0.00937008 0.0727913 0.0126693 0.0715945 0.0162283 0.0704685 0.0196929 0.0689094 0.0228898 0.0675984 0.0259921 0.0661969 0.0291693 0.0643504 0.0320827 0.0627559 0.0350787 0.0610748 0.0379724 0.0589409 0.0406063 0.0570669 0.0431339 0.0550984 0.0457559 0.052685 0.0482795 0.0505236 0.0505236 0.0482795 0.052685 0.0457559 0.0550984 0.0431339 0.0570669 0.0406063 0.0589409 0.0379724 0.0610748 0.0350787 0.0627559 0.0320827 0.0643504 0.0291693 0.0661969 0.0259921 0.0675984 0.0228898 0.0689094 0.0196929 0.0704685 0.0162283 0.0715945 0.0126693 0.0727913 0.00937008 0.0739016 0.00561417 0.0750827 0.00177953 0 0.0892913 -0.0792717 -0.00212598 -0.0784291 -0.0059685 -0.0773268 -0.00971654 -0.0761299 -0.0137165 -0.0746575 -0.0172756 -0.0734449 -0.0207402 -0.0717795 -0.0242835 -0.0700315 -0.0277323 -0.0685394 -0.0309173 -0.0665906 -0.0341772 -0.064563 -0.0371654 -0.0627756 -0.0400669 -0.0605551 -0.0430472 -0.0582402 -0.0459291 -0.0561732 -0.0485433 -0.0536654 -0.0510669 -0.0510669 -0.0536654 -0.0485433 -0.0561732 -0.0459291 -0.0582402 -0.0430472 -0.0605551 -0.0400669 -0.0627756 -0.0371654 -0.064563 -0.0341772 -0.0665906 -0.0309173 -0.0685394 -0.0277323 -0.0700315 -0.0242835 -0.0717795 -0.0207402 -0.0734449 -0.0172756 -0.0746575 -0.0137165 -0.0761299 -0.00971654 -0.0773268 -0.0059685 -0.0784291 -0.00212598 -0.0792717 0 0zm1.54465 -1.54465l0 0.0892913 0 0 -0.0750827 0.00177953 -0.0739016 0.00561417 -0.0727913 0.00937008 -0.0715945 0.0126693 -0.0704685 0.0162283 -0.0689094 0.0196929 -0.0675984 0.0228898 -0.0661969 0.0259921 -0.0643504 0.0291693 -0.0627559 0.0320827 -0.0610748 0.0350787 -0.0589409 0.0379724 -0.0570669 0.0406063 -0.0550984 0.0431339 -0.052685 0.0457559 -0.0505236 0.0482795 -0.0482795 0.0505236 -0.0457559 0.052685 -0.0431339 0.0550984 -0.0406063 0.0570669 -0.0379724 0.0589409 -0.0350787 0.0610748 -0.0320827 0.0627559 -0.0291693 0.0643504 -0.0259921 0.0661969 -0.0228898 0.0675984 -0.0196929 0.0689094 -0.0162283 0.0704685 -0.0126693 0.0715945 -0.00937008 0.0727913 -0.00561417 0.0739016 -0.00177953 0.0750827 -0.0892913 0 0.00212598 -0.0792717 0.0059685 -0.0784291 0.00971654 -0.0773268 0.0137165 -0.0761299 0.0172756 -0.0746575 0.0207402 -0.0734449 0.0242835 -0.0717795 0.0277323 -0.0700315 0.0309173 -0.0685394 0.0341772 -0.0665906 0.0371654 -0.064563 0.0400669 -0.0627756 0.0430472 -0.0605551 0.0459291 -0.0582402 0.0485433 -0.0561732 0.0510669 -0.0536654 0.0536654 -0.0510669 0.0561732 -0.0485433 0.0582402 -0.0459291 0.0605551 -0.0430472 0.0627756 -0.0400669 0.064563 -0.0371654 0.0665906 -0.0341772 0.0685394 -0.0309173 0.0700315 -0.0277323 0.0717795 -0.0242835 0.0734449 -0.0207402 0.0746575 -0.0172756 0.0761299 -0.0137165 0.0773268 -0.00971654 0.0784291 -0.0059685 0.0792717 -0.00212598 0 0z"/>
  </g>
  <g>
   <path class="fil0 str0" d="M1.75 0.25c0.828287,0 1.5,0.671713 1.5,1.5 0,0.828287 -0.671713,1.5 -1.5,1.5 -0.828287,0 -1.5,-0.671713 -1.5,-1.5 0,-0.828287 0.671713,-1.5 1.5,-1.5z"/>
   <g id="_109257432">
    <path id="_44577600" class="fil2" d="M1.93876 0.795815l-0.188764 0.0998504 -0.189409 -0.100193c-0.0363937,-0.019252 -0.0779764,0.0149016 -0.0661654,0.0543465l0.102705 0.342917c0.0504488,-0.0157598 0.101508,-0.0236929 0.15287,-0.0236929 0.0506496,0 0.101008,0.00772835 0.15078,0.0230591l0.104087 -0.34174c0.0120276,-0.0394843 -0.0296142,-0.0738504 -0.0661024,-0.0545472z"/>
    <path id="_44577720" class="fil0 str1" d="M2.48696 2.2131c0,-0.407016 -0.329949,-0.98326 -0.736965,-0.98326 -0.407016,0 -0.736965,0.576244 -0.736965,0.98326 0,0.407008 0.329949,0.496937 0.736965,0.496937 0.407016,7.87402e-006 0.736965,-0.0899213 0.736965,-0.496937z"/>
    <path id="_109257672" class="fil3" d="M1.54163 1.64776l0.485236 0 0 0.0010315c-0.0285827,0.0440827 -0.0447677,0.0675 -0.0483858,0.0705984l-0.129657 0c0.0177323,0.0208386 0.0299606,0.0463228 0.0363307,0.0761102l0.138098 0c0.00172047,0.00034252 0.00258268,0.0010315 0.00258268,0.00206693 -0.0309961,0.0464921 -0.0466654,0.069563 -0.0473543,0.069563l-0.0898819 0c-0.0018937,0.023937 -0.0134331,0.0526929 -0.0342677,0.0862677 -0.0275512,0.0340945 -0.0538937,0.0561378 -0.0792087,0.066122 -0.0470079,0.0225591 -0.092122,0.033752 -0.135169,0.033752l0 0.0010315c0,0.00344488 0.0105039,0.0173898 0.031685,0.0418425l0.239689 0.28911 0 0.0136024c0,0.00137795 -0.000862205,0.00206693 -0.00258268,0.00206693l-0.105382 0c-0.189583,-0.220921 -0.284461,-0.331984 -0.284461,-0.33302l0 -0.0669803 0.00103543 -0.00258268c0.0167008,0.00240945 0.0365039,0.00361417 0.0588898,0.00361417 0.106413,0 0.172362,-0.0346102 0.198362,-0.103484 0.00396063,-0.0101614 0.00602756,-0.0204921 0.00602756,-0.0313425l-0.288594 0c-0.00137402,0 -0.00206299,-0.000688976 -0.00206299,-0.0018937 0.0320276,-0.0464921 0.0483819,-0.0697362 0.0490709,-0.0697362l0.229016 0 0 -0.000862205c-0.0132559,-0.026689 -0.0385709,-0.0473504 -0.0762795,-0.0621614 -0.0268622,-0.00877953 -0.0511417,-0.0130866 -0.0726654,-0.0130866l-0.12811 0 0 -0.00257874c0.0309961,-0.0459764 0.0470079,-0.0690512 0.0480394,-0.0690512z"/>
   </g>
  </g>
 </g>
</svg>
