<?xml version="1.0" encoding="UTF-8"?>
<!DOCTYPE svg PUBLIC "-//W3C//DTD SVG 1.1//EN" "http://www.w3.org/Graphics/SVG/1.1/DTD/svg11.dtd">
<!-- Creator: CorelDRAW -->
<svg xmlns="http://www.w3.org/2000/svg" xml:space="preserve" width="2in" height="2in" style="shape-rendering:geometricPrecision; text-rendering:geometricPrecision; image-rendering:optimizeQuality; fill-rule:evenodd; clip-rule:evenodd"
viewBox="0 0 2 2"
 xmlns:xlink="http://www.w3.org/1999/xlink">
 <defs>
  <style type="text/css">
   <![CDATA[
    .str0 {stroke:#1F1A17;stroke-width:0.003}
    .str2 {stroke:#1F1A17;stroke-width:0.0539134;stroke-linecap:round;stroke-linejoin:round}
    .str3 {stroke:#1F1A17;stroke-width:0.0646969}
    .str1 {stroke:#1F1A17;stroke-width:0.0646969;stroke-linecap:round;stroke-linejoin:round}
    .fil2 {fill:none}
    .fil3 {fill:#1F1A17}
    .fil0 {fill:white}
    .fil1 {fill:#F4E5B6}
   ]]>
  </style>
 </defs>
 <g id="Layer_x0020_1">
  <metadata id="CorelCorpID_0Corel-Layer"/>
  <path class="fil0" d="M0.999996 0.13002c0.480398,0 0.869984,0.389587 0.869984,0.869984 0,0.480398 -0.389587,0.869984 -0.869984,0.869984 -0.480398,0 -0.869984,-0.389587 -0.869984,-0.869984 0,-0.480398 0.389587,-0.869984 0.869984,-0.869984z"/>
  <path class="fil1 str0" d="M0.635925 1.17456c0,0 0.174173,-0.0741181 0.370579,-0.063 0.196406,0.0111181 0.400224,0.0518819 0.400224,0.0518819 0,0 0.0704094,-0.0148228 0.0741181,0.0296457 0.00370472,0.0444685 -0.0111181,0.137114 -0.0407638,0.151937 -0.0296457,0.0148228 -0.0704094,0.0333543 -0.0704094,0.0333543 0,0 -0.0852362,0.122291 -0.118587,0.151937 -0.0333504,0.0296457 -0.144528,0.0926417 -0.244583,0.0815276 -0.100055,-0.0111181 -0.277933,-0.0963504 -0.337228,-0.200114 0,0 -0.0741142,-0.0296457 -0.088937,-0.0667047 -0.0148228,-0.0370591 -0.0370591,-0.100055 -0.0333543,-0.133409 0.00370866,-0.0333504 0.0555866,-0.0778189 0.0889409,-0.0370551z"/>
  <g id="_97098512">
   <path id="_97095200" class="fil2 str1" d="M0.621323 1.15317l0.0507283 -0.28989c0,0 -0.157024,-0.0821378 -0.0942126,-0.248823 0.0628071,-0.166689 0.224665,-0.113539 0.224665,-0.113539"/>
   <path id="_97096832" class="fil2 str1" d="M0.775929 0.570976c0,0 0.0289882,-0.17635 0.219835,-0.183598 0.190843,-0.00724409 0.227083,0.181181 0.227083,0.181181"/>
   <path id="_97096016" class="fil2 str1" d="M1.20835 0.515413c0,0 0.198091,-0.0362362 0.224665,0.123205 0.0265748,0.159441 -0.0845512,0.222248 -0.0845512,0.222248l0.048315 0.301972"/>
   <path id="_97097240" class="fil2 str1" d="M0.650311 1.38509c0,0 -0.0628189,-0.0205315 -0.0833465,-0.0664331 -0.0205276,-0.0458976 -0.0301969,-0.0930079 -0.0229488,-0.114748 0.00724803,-0.0217441 0.0434843,-0.055563 0.0917992,-0.0362362 0,0 0.178768,-0.0603937 0.372028,-0.055563 0.19326,0.00483071 0.393768,0.0507323 0.393768,0.0507323 0,0 0.039878,-0.0132795 0.0700472,0.0229567 0.0301693,0.0362362 -0.0235472,0.152799 -0.0531378,0.170303 -0.0295906,0.0175 -0.0489173,0.0169094 -0.0489173,0.0169094 0,0 -0.0936102,0.234327 -0.342433,0.234327 -0.248823,0 -0.376858,-0.222248 -0.376858,-0.222248z"/>
   <path id="_97096160" class="fil3" d="M0.857063 1.22954c0.0293189,0 0.0530984,0.0237795 0.0530984,0.0530945 0,0.0293189 -0.0237795,0.0530945 -0.0530984,0.0530945 -0.029315,0 -0.0530945,-0.0237756 -0.0530945,-0.0530945 0,-0.029315 0.0237795,-0.0530945 0.0530945,-0.0530945z"/>
   <path id="_97095800" class="fil3" d="M1.15983 1.22724c0.0293189,0 0.0530945,0.0237756 0.0530945,0.0530945 0,0.0293189 -0.0237756,0.0530945 -0.0530945,0.0530945 -0.0293189,0 -0.0530945,-0.0237756 -0.0530945,-0.0530945 0,-0.0293189 0.0237756,-0.0530945 0.0530945,-0.0530945z"/>
   <path id="_97094600" class="fil3" d="M0.784661 1.43588c0,0 0.0808504,-0.0253386 0.104984,-0.0458543 0.0241339,-0.0205118 0.0615433,-0.0180984 0.0615433,-0.0180984 0,0 0.0229252,0.0386142 0.0579213,0.0386142 0.0349921,0 0.0530945,-0.0422362 0.0530945,-0.0422362 0,0 0.0374094,0.00120866 0.078437,0.0265472 0.0410276,0.0253425 0.0965354,0.0374094 0.0965354,0.0374094 0,0 -0.0530945,0.0615394 -0.100157,0.0675748 -0.0470591,0.00603543 -0.117051,-0.00241339 -0.126705,-0.0193071 0,0 -0.059126,0.0277559 -0.0905,0.0265472 -0.031378,-0.00120472 -0.0965394,-0.015689 -0.135154,-0.0711969z"/>
   <line id="_97097792" class="fil2 str2" x1="1.14313" y1="0.819799" x2="1.18902" y2= "1.03239" />
   <line id="_97097912" class="fil2 str3" x1="0.990933" y1="0.810138" x2="0.993346" y2= "1.01548" />
   <line id="_97097048" class="fil2 str3" x1="0.841154" y1="0.831878" x2="0.812165" y2= "1.02514" />
  </g>
 </g>
</svg>
