<?xml version="1.0" encoding="UTF-8"?>
<!DOCTYPE svg PUBLIC "-//W3C//DTD SVG 1.1//EN" "http://www.w3.org/Graphics/SVG/1.1/DTD/svg11.dtd">
<!-- Creator: CorelDRAW -->
<svg xmlns="http://www.w3.org/2000/svg" xml:space="preserve" width="8.5in" height="8.5in" style="shape-rendering:geometricPrecision; text-rendering:geometricPrecision; image-rendering:optimizeQuality; fill-rule:evenodd; clip-rule:evenodd"
viewBox="0 0 8.5 8.5"
 xmlns:xlink="http://www.w3.org/1999/xlink">
 <defs>
  <style type="text/css">
   <![CDATA[
    .str0 {stroke:#DEDEDD;stroke-width:0.223228}
    .str1 {stroke:#1F1A17;stroke-width:0.26785;stroke-linejoin:round}
    .fil1 {fill:none}
    .fil2 {fill:#1F1A17}
    .fil0 {fill:white}
   ]]>
  </style>
 </defs>
 <g id="Layer_x0020_1">
  <metadata id="CorelCorpID_0Corel-Layer"/>
  <g id="_110574072">
   <path id="_110572536" class="fil0 str0" d="M4.25 0.500004c2.07072,0 3.75,1.67928 3.75,3.75 0,2.07072 -1.67928,3.75 -3.75,3.75 -2.07072,0 -3.75,-1.67928 -3.75,-3.75 0,-2.07072 1.67928,-3.75 3.75,-3.75z"/>
   <path id="_110572416" class="fil1 str1" d="M3.13639 3.77292c0,0 -0.119839,0.463669 -0.610209,0.398201 -0.49037,-0.0654646 -0.588441,-0.490917 -0.397736,-0.889114 0.190705,-0.398201 0.474,-0.86187 0.474,-0.86187 0,0 0.0926339,-0.163665 0.326913,-0.163665 0.23428,0 2.55523,0 2.55523,0 0,0 0.298988,-0.0315945 0.414059,0.15274 0.115075,0.184339 0.457677,0.894602 0.501252,0.998244 0.0435748,0.103642 0.174382,0.50724 -0.152531,0.687276 -0.326913,0.180031 -0.806354,0.0545827 -0.888102,-0.3 -0.0585512,0.125449 -0.201083,0.371665 -0.512138,0.381831 -0.332268,0.0108425 -0.479441,-0.0599803 -0.582957,-0.370906 -0.0299488,0.0831811 -0.18522,0.370949 -0.495768,0.381831 -0.310547,0.0108858 -0.577559,-0.0927559 -0.632016,-0.414567z"/>
   <path id="_110572944" class="fil2" d="M2.41124 4.1577l0.28435 0c-0.000720472,0.00518898 -0.00105512,0.0104606 -0.00105512,0.0158189l0 1.39758c0,0.0627244 0.051252,0.113976 0.113976,0.113976l2.91028 0c0.0627283,0 0.113976,-0.051252 0.113976,-0.113976l0 -1.39758c0,-0.00535827 -0.00046063,-0.0106299 -0.0011811,-0.0158189l0.257228 0 0 1.47157c0,0.183701 -0.150295,0.333996 -0.334,0.333996l-3.00957 0c-0.183701,0 -0.333996,-0.150295 -0.333996,-0.333996l0 -1.47157z"/>
  </g>
 </g>
</svg>
