<?xml version="1.0" encoding="UTF-8"?>
<!DOCTYPE svg PUBLIC "-//W3C//DTD SVG 1.1//EN" "http://www.w3.org/Graphics/SVG/1.1/DTD/svg11.dtd">
<!-- Creator: CorelDRAW -->
<svg xmlns="http://www.w3.org/2000/svg" xml:space="preserve" width="3.5in" height="3.5in" style="shape-rendering:geometricPrecision; text-rendering:geometricPrecision; image-rendering:optimizeQuality; fill-rule:evenodd; clip-rule:evenodd"
viewBox="0 0 3.5 3.5"
 xmlns:xlink="http://www.w3.org/1999/xlink"
 version="1.1">
 <defs>
  <style type="text/css">
   <![CDATA[
    .str1 {stroke:black;stroke-width:0.0700709}
    .str0 {stroke:#DEDEDD;stroke-width:0.0892913}
    .fil0 {fill:white}
    .fil1 {fill:black}
   ]]>
  </style>
 </defs>
 <g id="Layer_x0020_1">
  <metadata id="CorelCorpID_0Corel-Layer"/>
  <path class="fil0 str0" d="M1.75 0.25c0.828287,0 1.5,0.671713 1.5,1.5 0,0.828287 -0.671713,1.5 -1.5,1.5 -0.828287,0 -1.5,-0.671713 -1.5,-1.5 0,-0.828287 0.671713,-1.5 1.5,-1.5z"/>
  <g id="_125096168">
   <path id="_125100248" class="fil1 str1" d="M2.53232 2.17685c-0.152642,-0.132004 -0.293902,-0.318248 -0.293902,-0.783244 0,-0.269295 -0.219087,-0.488374 -0.48839,-0.488374 -0.269335,0 -0.488453,0.219079 -0.488453,0.488374 0,0.465417 -0.141209,0.651476 -0.293984,0.78337 -0.0423543,0.0368898 -0.0666535,0.0900197 -0.0666535,0.145768 0,0.030685 0.024874,0.0555591 0.0555591,0.0555591l0.52724 0c0.0257205,0.123433 0.135327,0.216465 0.266264,0.216465 0.130937,0 0.240551,-0.0930236 0.26626,-0.216465l0.527244 0c0.030685,0 0.0555591,-0.024874 0.0555591,-0.0555591 0,-0.0562008 -0.0243583,-0.109409 -0.0667441,-0.145894zm-0.782319 0.306803c-0.069189,0 -0.128311,-0.0439173 -0.150976,-0.10535l0.301953 0c-0.0226693,0.0614331 -0.0817874,0.10535 -0.150976,0.10535zm-0.716067 -0.216465c0.00202362,-0.00219291 0.0041811,-0.00428346 0.00645276,-0.00625984 0.232921,-0.201091 0.332295,-0.46048 0.332295,-0.867323 0,-0.208024 0.16928,-0.37726 0.377343,-0.37726 0.208028,0 0.377272,0.169236 0.377272,0.37726 0,0.406472 0.0993898,0.665854 0.332429,0.867374 0.00227559,0.00196457 0.00442913,0.00402756 0.00646063,0.00620866l-1.43225 0z"/>
   <g>
   </g>
   <g>
   </g>
   <g>
   </g>
   <g>
   </g>
   <g>
   </g>
   <g>
   </g>
   <g>
   </g>
   <g>
   </g>
   <g>
   </g>
   <g>
   </g>
   <g>
   </g>
   <g>
   </g>
   <g>
   </g>
   <g>
   </g>
   <g>
   </g>
  </g>
 </g>
</svg>
