<?xml version="1.0" encoding="UTF-8"?>
<!DOCTYPE svg PUBLIC "-//W3C//DTD SVG 1.1//EN" "http://www.w3.org/Graphics/SVG/1.1/DTD/svg11.dtd">
<!-- Creator: CorelDRAW -->
<svg xmlns="http://www.w3.org/2000/svg" xml:space="preserve" width="3.5in" height="3.5in" style="shape-rendering:geometricPrecision; text-rendering:geometricPrecision; image-rendering:optimizeQuality; fill-rule:evenodd; clip-rule:evenodd"
viewBox="0 0 3.5 3.5"
 xmlns:xlink="http://www.w3.org/1999/xlink">
 <defs>
  <style type="text/css">
   <![CDATA[
    .str0 {stroke:#DEDEDD;stroke-width:0.0892913}
    .fil1 {fill:#1F1A17}
    .fil0 {fill:white}
   ]]>
  </style>
 </defs>
 <g id="Layer_x0020_1">
  <metadata id="CorelCorpID_0Corel-Layer"/>
  <g id="_109567344">
   <path id="_110371728" class="fil0 str0" d="M1.75 0.25c0.828287,0 1.5,0.671713 1.5,1.5 0,0.828287 -0.671713,1.5 -1.5,1.5 -0.828287,0 -1.5,-0.671713 -1.5,-1.5 0,-0.828287 0.671713,-1.5 1.5,-1.5z"/>
   <g>
    <polygon id="_109567152" class="fil1" points="2.50059,1.14824 2.49843,1.15039 2.49627,1.1547 2.49411,1.15686 2.49196,1.16118 2.4898,1.16333 2.48765,1.16765 2.48549,1.1698 2.48333,1.17412 2.48117,1.17628 2.47902,1.18059 2.47686,1.18274 2.4747,1.18706 2.47255,1.18922 2.47039,1.19353 2.46823,1.19569 2.46607,1.2 2.46392,1.20216 2.46176,1.20647 2.45961,1.20863 2.45745,1.21294 2.45529,1.2151 2.45313,1.21941 2.45098,1.22157 2.44882,1.22588 2.44667,1.22804 2.44451,1.23235 2.44451,1.23451 2.44667,1.23667 2.45098,1.23882 2.45313,1.24098 2.45745,1.24314 2.46176,1.2453 2.46607,1.24745 2.46823,1.24961 2.47255,1.25176 2.4747,1.25392 2.47902,1.25608 2.48117,1.25824 2.48549,1.26039 2.48765,1.26255 2.49196,1.2647 2.49411,1.26686 2.49843,1.26902 2.50059,1.27118 2.50274,1.27333 2.50706,1.27549 2.50921,1.27765 2.51137,1.2798 2.51569,1.28196 2.51784,1.28412 2.52,1.28628 2.52431,1.28843 2.52647,1.29059 2.52863,1.29274 2.53078,1.2949 2.53294,1.29706 2.53725,1.29922 2.53941,1.30137 2.54157,1.30353 2.54372,1.30569 2.54588,1.30784 2.54804,1.31 2.55019,1.31216 2.55235,1.31431 2.55451,1.31647 2.55667,1.31863 2.55882,1.32078 2.56098,1.32294 2.56313,1.3251 2.56529,1.32726 2.56745,1.32941 2.56961,1.33157 2.57176,1.33372 2.57392,1.33588 2.57607,1.33804 2.57823,1.3402 2.58039,1.34235 2.58255,1.34451 2.5847,1.34667 2.58686,1.35098 2.58902,1.35314 2.59117,1.3553 2.59333,1.35745 2.59549,1.35961 2.59765,1.36392 2.5998,1.36608 2.60196,1.36824 2.60411,1.37039 2.60627,1.3747 2.60843,1.37686 2.61059,1.37902 2.61274,1.38333 2.6149,1.38549 2.61706,1.3898 2.61921,1.39196 2.62137,1.39412 2.62353,1.39843 2.62569,1.40059 2.62784,1.4049 2.63,1.40922 2.63215,1.41137 2.63431,1.41569 2.63647,1.41784 2.63863,1.42216 2.64078,1.42647 2.64294,1.43078 2.64509,1.43294 2.64725,1.43726 2.64941,1.44157 2.65157,1.44588 2.65372,1.4502 2.65588,1.45451 2.65804,1.45882 2.66019,1.4653 2.66235,1.46961 2.66451,1.47392 2.66667,1.48039 2.66882,1.4847 2.67098,1.49118 2.67313,1.49765 2.67529,1.50196 2.67745,1.50843 2.67961,1.51706 2.68176,1.52353 2.68392,1.53216 2.68607,1.53863 2.68823,1.54941 2.69039,1.55804 2.69255,1.57098 2.6947,1.58392 2.69686,1.60118 2.69686,1.68745 2.6947,1.7047 2.69255,1.71765 2.69039,1.73059 2.68823,1.73921 2.68607,1.75 2.68392,1.75647 2.68176,1.7651 2.67961,1.77157 2.67745,1.7802 2.67529,1.78667 2.67313,1.79098 2.67098,1.79745 2.66882,1.80392 2.66667,1.80823 2.66451,1.8147 2.66235,1.81902 2.66019,1.82333 2.65804,1.8298 2.65588,1.83412 2.65372,1.83843 2.65157,1.84274 2.64941,1.84706 2.64725,1.85137 2.64509,1.85569 2.64294,1.85784 2.64078,1.86216 2.63863,1.86647 2.63647,1.87078 2.63431,1.87294 2.63215,1.87725 2.63,1.87941 2.62784,1.88372 2.62569,1.88804 2.62353,1.8902 2.62137,1.89451 2.61921,1.89667 2.61706,1.89882 2.6149,1.90314 2.61274,1.90529 2.61059,1.90961 2.60843,1.91176 2.60627,1.91392 2.60411,1.91823 2.60196,1.92039 2.5998,1.92255 2.59765,1.9247 2.59549,1.92902 2.59333,1.93117 2.59117,1.93333 2.58902,1.93549 2.58686,1.93765 2.5847,1.94196 2.58255,1.94412 2.58039,1.94627 2.57823,1.94843 2.57607,1.95059 2.57392,1.95274 2.57176,1.9549 2.56961,1.95706 2.56745,1.95921 2.56529,1.96137 2.56313,1.96353 2.56098,1.96569 2.55882,1.96784 2.55667,1.97 2.55451,1.97215 2.55235,1.97431 2.55019,1.97647 2.54804,1.97863 2.54588,1.98078 2.54372,1.98294 2.54157,1.9851 2.53941,1.98725 2.53509,1.98941 2.53294,1.99157 2.53078,1.99372 2.52863,1.99588 2.52647,1.99804 2.52431,2.00019 2.52,2.00235 2.51784,2.00451 2.51569,2.00667 2.51137,2.00882 2.50921,2.01098 2.50706,2.01314 2.50274,2.01529 2.50059,2.01745 2.49843,2.01961 2.49411,2.02176 2.49196,2.02392 2.48765,2.02608 2.48549,2.02823 2.48117,2.03039 2.47902,2.03255 2.4747,2.0347 2.47255,2.03686 2.46823,2.03902 2.46607,2.04117 2.46176,2.04333 2.45745,2.04549 2.45313,2.04765 2.45098,2.0498 2.44667,2.05196 2.44451,2.05412 2.44451,2.05627 2.44667,2.06059 2.44882,2.06274 2.45098,2.06706 2.45313,2.06921 2.45529,2.07353 2.45745,2.07569 2.45961,2.08 2.46176,2.08215 2.46392,2.08647 2.46607,2.08863 2.46823,2.09294 2.47039,2.0951 2.47255,2.09941 2.4747,2.10157 2.47686,2.10588 2.47902,2.10804 2.48117,2.11235 2.48333,2.11451 2.48549,2.11882 2.48765,2.12098 2.4898,2.12529 2.49196,2.12745 2.49411,2.13176 2.49627,2.13392 2.49843,2.13823 2.50059,2.14039 2.50274,2.1447 2.50706,2.1447 2.50921,2.14255 2.51353,2.14039 2.51784,2.13823 2.52,2.13608 2.52431,2.13392 2.52863,2.13176 2.53078,2.12961 2.53509,2.12745 2.53725,2.12529 2.54157,2.12314 2.54372,2.12098 2.54804,2.11882 2.55019,2.11667 2.55451,2.11451 2.55667,2.11235 2.56098,2.11019 2.56313,2.10804 2.56529,2.10588 2.56961,2.10372 2.57176,2.10157 2.57392,2.09941 2.57823,2.09725 2.58039,2.0951 2.58255,2.09294 2.58686,2.09078 2.58902,2.08863 2.59117,2.08647 2.59333,2.08431 2.59549,2.08215 2.5998,2.08 2.60196,2.07784 2.60411,2.07569 2.60627,2.07353 2.60843,2.07137 2.61059,2.06921 2.6149,2.06706 2.61706,2.0649 2.61921,2.06274 2.62137,2.06059 2.62353,2.05843 2.62569,2.05627 2.62784,2.05412 2.63,2.05196 2.63215,2.0498 2.63431,2.04765 2.63647,2.04549 2.63863,2.04333 2.64078,2.04117 2.64294,2.03902 2.64509,2.03686 2.64725,2.0347 2.64941,2.03255 2.65157,2.03039 2.65372,2.02823 2.65588,2.02608 2.65804,2.02392 2.66019,2.02176 2.66235,2.01961 2.66451,2.01745 2.66667,2.01314 2.66882,2.01098 2.67098,2.00882 2.67313,2.00667 2.67529,2.00451 2.67745,2.00235 2.67961,1.99804 2.68176,1.99588 2.68392,1.99372 2.68607,1.99157 2.68823,1.98725 2.69039,1.9851 2.69255,1.98294 2.6947,1.98078 2.69686,1.97647 2.69902,1.97431 2.70117,1.97 2.70333,1.96784 2.70549,1.96569 2.70765,1.96137 2.7098,1.95921 2.71196,1.9549 2.71411,1.95274 2.71627,1.94843 2.71843,1.94627 2.72059,1.94196 2.72274,1.9398 2.7249,1.93549 2.72706,1.93333 2.72921,1.92902 2.73137,1.9247 2.73353,1.92039 2.73569,1.91823 2.73784,1.91392 2.74,1.90961 2.74215,1.90529 2.74431,1.90314 2.74647,1.89882 2.74863,1.89451 2.75078,1.8902 2.75294,1.88588 2.75509,1.88157 2.75725,1.8751 2.75941,1.87078 2.76157,1.86647 2.76372,1.86216 2.76588,1.85569 2.76804,1.85137 2.77019,1.84706 2.77235,1.84059 2.77451,1.83412 2.77667,1.8298 2.77882,1.82333 2.78098,1.81686 2.78313,1.81039 2.78529,1.80392 2.78745,1.79529 2.78961,1.78882 2.79176,1.7802 2.79392,1.77157 2.79607,1.76294 2.79823,1.75216 2.80039,1.74137 2.80255,1.72843 2.8047,1.71333 2.80686,1.69178 2.80686,1.59685 2.8047,1.57529 2.80255,1.5602 2.80039,1.54726 2.79823,1.53647 2.79607,1.52569 2.79392,1.51706 2.79176,1.50843 2.78961,1.4998 2.78745,1.49333 2.78529,1.4847 2.78313,1.47824 2.78098,1.47176 2.77882,1.4653 2.77667,1.45882 2.77451,1.45451 2.77235,1.44804 2.77019,1.44157 2.76804,1.43726 2.76588,1.43294 2.76372,1.42647 2.76157,1.42216 2.75941,1.41784 2.75725,1.41353 2.75509,1.40706 2.75294,1.40274 2.75078,1.39843 2.74863,1.39412 2.74647,1.3898 2.74431,1.38765 2.74215,1.38333 2.74,1.37902 2.73784,1.3747 2.73569,1.37039 2.73353,1.36824 2.73137,1.36392 2.72921,1.35961 2.72706,1.35745 2.7249,1.35314 2.72274,1.34882 2.72059,1.34667 2.71843,1.34235 2.71627,1.3402 2.71411,1.33588 2.71196,1.33372 2.7098,1.32941 2.70765,1.32726 2.70549,1.32294 2.70333,1.32078 2.70117,1.31863 2.69902,1.31431 2.69686,1.31216 2.6947,1.31 2.69255,1.30569 2.69039,1.30353 2.68823,1.30137 2.68607,1.29706 2.68392,1.2949 2.68176,1.29274 2.67961,1.29059 2.67745,1.28628 2.67529,1.28412 2.67313,1.28196 2.67098,1.2798 2.66882,1.27765 2.66667,1.27549 2.66451,1.27333 2.66235,1.26902 2.66019,1.26686 2.65804,1.2647 2.65588,1.26255 2.65372,1.26039 2.65157,1.25824 2.64941,1.25608 2.64725,1.25392 2.64509,1.25176 2.64294,1.24961 2.64078,1.24745 2.63863,1.2453 2.63647,1.24314 2.63431,1.24098 2.63215,1.23882 2.63,1.23667 2.62784,1.23451 2.62569,1.23235 2.62353,1.2302 2.62137,1.22804 2.61921,1.22588 2.61706,1.22372 2.6149,1.22157 2.61059,1.21941 2.60843,1.21726 2.60627,1.2151 2.60411,1.21294 2.60196,1.21078 2.5998,1.20863 2.59549,1.20647 2.59333,1.20431 2.59117,1.20216 2.58902,1.2 2.58686,1.19784 2.58255,1.19569 2.58039,1.19353 2.57823,1.19137 2.57392,1.18922 2.57176,1.18706 2.56961,1.1849 2.56529,1.18274 2.56313,1.18059 2.56098,1.17843 2.55667,1.17628 2.55451,1.17412 2.55019,1.17196 2.54804,1.1698 2.54372,1.16765 2.54157,1.16549 2.53725,1.16333 2.53509,1.16118 2.53078,1.15902 2.52863,1.15686 2.52431,1.1547 2.52,1.15255 2.51784,1.15039 2.51353,1.14824 2.50921,1.14608 2.50706,1.14392 2.50274,1.14392 "/>
    <path id="_109566888" class="fil1" d="M1.49333 2.01745l0.00215748 0.00431496 0.00215748 0.00431496 0.00215748 0.0064685 0.00215748 0.00431496 0.00215748 0.00431102 0.00215354 0.00647244 0.00215748 0.00431496 0.00215748 0.00431102 0.00215748 0.00647244 0.00215748 0.00431496 0.00215748 0.00431102 0.00215748 0.00647244 0.00215354 0.00431102 0.00215748 0.00431496 0.00215748 0.00647244 0.00215748 0.00431102 0.00215748 0.00431496 0.00215748 0.00647244 0.00215354 0.00431102 0.00215748 0.00431496 0.00215748 0.00647244 0.00215748 0.00431102 0.00215748 0.00431496 0.00215748 0.0064685 0.00215354 0.00431496 0.00215748 0.00431496 0.00215748 0.0064685 0.00215748 0.00431496 0.00215748 0.00431496 0.00215748 0.0064685 0.00215354 0.00431496 0.00215748 0.00431496 0.00215748 0.0064685 0.00215748 0.00431496 0.00215748 0.00431102 0.00215748 0.00647244 0.00215748 0.00431496 0.00215354 0.00431102 0.00215748 0.00647244 0.00215748 0.00431496 0.00215748 0.00431102 0.00215748 0.00647244 0.00215748 0.00431102 0.00215354 0.00431496 0.00215748 0.00647244 0.00215748 0.00431102 0.00215748 0.00431496 0.00215748 0.00647244 0.00215748 0.00431102 0.00215354 0.00431496 0.00215748 0.0064685 0.00215748 0.00431496 0.00215748 0.00431496 0.00215748 0.0064685 0.00215748 0.00431496 0.00215748 0.00431496 0.00215354 0.0064685 0.00215748 0.00431496 0.00215748 0.00431496 0.00215748 0.0064685 0.00215748 0.00431496 0.00215748 0.00431496 0.00215354 0.0064685 0.00215748 0.00431496 0.00215748 0.00431102 0.00215748 0.00647244 0.00215748 0.00431496 0.00215748 0.00431102 0.00215748 0.00647244 0.00215354 0.00431496 0.00215748 0.00431102 0.00215748 0.00647244 0.00215748 0.00431102 0.00215748 0.00431496 0.00215748 0.00647244 0.00215354 0.00431102 0.00215748 0.00431496 0.00215748 0.00647244 0.00215748 0.00431102 0.00215748 0.00431496 0.00215748 0.0064685 0.00215354 0.00431496 0.00215748 0.00431496 0 0.00215748 -0.00431102 0.00215748 -0.00431496 0.00215354 -0.00431496 0.00215748 -0.00431102 0.00215748 -0.00431496 0.00215748 -0.00431496 0.00215748 -0.00431102 0.00215748 -0.00431496 0.00215354 -0.00431496 0.00215748 -0.00431496 0.00215748 -0.00431102 0.00215748 -0.00431496 0.00215748 -0.00431496 0.00215748 -0.00431102 0.00215354 -0.00431496 0.00215748 -0.00431496 0.00215748 -0.00431102 0.00215748 -0.00431496 0.00215748 -0.00431496 0.00215748 -0.00431102 0.00215354 -0.00431496 0.00215748 -0.00431496 0.00215748 -0.00431102 0.00215748 -0.00431496 0.00215748 -0.00431496 0.00215748 -0.00431496 0.00215748 -0.00431102 0.00215354 -0.00431496 0.00215748 -0.00431496 0.00215748 -0.00431102 0.00215748 -0.00431496 0.00215748 -0.00431496 0.00215748 -0.00431102 0.00215354 -0.00431496 0.00215748 -0.00431496 0.00215748 -0.00431102 0.00215748 -0.00431496 0.00215748 -0.00431496 0.00215748 -0.00431102 0.00215354 -0.00431496 0.00215748 -0.00431496 0.00215748 -0.00431496 0.00215748 -0.00431102 0.00215748 -0.00431496 0.00215748 -0.00431496 0.00215748 -0.00431102 0.00215354 -0.00431496 0.00215748 -0.00431496 0 -0.00215354 -0.00431102 -0.00215748 -0.00431496 -0.00215748 -0.00647244 -0.00215748 -0.00431102 -0.00215748 -0.00431496 -0.00215748 -0.00647244 -0.00215354 -0.00431102 -0.00215748 -0.00431496 -0.00215748 -0.0064685 -0.00215748 -0.00431496 -0.00215748 -0.00431496 -0.00215748 -0.0064685 -0.00215748 -0.00431496 -0.00215354 -0.00431496 -0.00215748 -0.0064685 -0.00215748 -0.00431496 -0.00215748 -0.00431496 -0.00215748 -0.0064685 -0.00215748 -0.00431496 -0.00215354 -0.00431102 -0.00215748 -0.00647244 -0.00215748 -0.00431496 -0.00215748 -0.00431102 -0.00215748 -0.00647244 -0.00215748 -0.00431496 -0.00215354 -0.00431102 -0.00215748 -0.00647244 -0.00215748 -0.00431496 -0.00215748 -0.00431102 -0.00215748 -0.00647244 -0.00215748 -0.00431102 -0.00215748 -0.00431496 -0.00215354 -0.00647244 -0.00215748 -0.00431102 -0.00215748 -0.00431496 -0.00215748 -0.00647244 -0.00215748 -0.00431102 -0.00215748 -0.00431496 -0.00215354 -0.0064685 -0.00215748 -0.00431496 -0.00215748 -0.00431496 -0.00215748 -0.0064685 -0.00215748 -0.00431496 -0.00215748 -0.00431496 -0.00215748 -0.0064685 -0.00215354 -0.00431496 -0.00215748 -0.00431496 -0.00215748 -0.0064685 -0.00215748 -0.00431496 -0.00215748 -0.00431496 -0.00215748 -0.0064685 -0.00215354 -0.00431496 -0.00215748 -0.00431102 -0.00215748 -0.00647244 -0.00215748 -0.00431496 -0.00215748 -0.00431102 -0.00215748 -0.00647244 -0.00215354 -0.00431102 -0.00215748 -0.00431496 -0.00215748 -0.00647244 -0.00215748 -0.00431102 -0.00215748 -0.00431496 -0.00215748 -0.00647244 -0.00215354 -0.00431102 -0.00215748 -0.00431496 -0.00215748 -0.0064685 -0.00215748 -0.00431496 -0.00215748 -0.00431496 -0.00215748 -0.0064685 -0.00215748 -0.00431496 -0.00215354 -0.00431496 -0.00215748 -0.0064685 -0.00215748 -0.00431496 -0.00215748 -0.00431496 -0.00215748 -0.0064685 -0.00215748 -0.00431496 -0.00215354 -0.00431496 -0.00215748 -0.0064685 -0.00215748 -0.00431496 -0.00215748 -0.00431102 -0.00215748 -0.00647244 -0.00215748 -0.00431496 -0.00215748 -0.00431102 -0.00215354 -0.00647244 -0.00215748 -0.00431496 -0.00215748 -0.00431102 -0.00215748 -0.00647244 -0.00215748 -0.00431102 -0.00215748 -0.00431496 -0.00215354 -0.00647244 -0.00215748 -0.00431102 -0.00215748 -0.00431496 -0.00215748 -0.00647244 -0.00215748 -0.00431102 -0.00215748 -0.00431496 -0.00215354 -0.0064685 -0.00215748 -0.00431496 -0.00215748 -0.00431496 -0.00215748 -0.0064685 -0.00215748 -0.00431496 -0.00215748 -0.00431496 -0.00215748 -0.0064685 -0.00215354 -0.00431496 -0.00215748 -0.00434646 0.25235 0.00218898zm0.769996 -1.16686l0.0302047 0 0.0107795 0.00215354 0.00862992 0.00215748 0.0064685 0.00215748 0.00431496 0.00215748 0.00431102 0.00215748 0.00431496 0.00215354 0.00215748 0.00215748 0.00431496 0.00215748 0.00215354 0.00215748 0.00431496 0.00215748 0.00215748 0.00215748 0.00215748 0.00215748 0.00215748 0.00215354 0.00215748 0.00215748 0.00215354 0.00215748 0.00215748 0.00215748 0.00215748 0.00215748 0.00215748 0.00215748 0.00215748 0.00431102 0.00215748 0.00215748 0.00215354 0.00215748 0.00215748 0.00431496 0.00215748 0.00431102 0.00215748 0.00431496 0.00215748 0.00431496 0.00215748 0.0064685 0.00215354 0.00647244 0.00215748 0.00862598 0.00215748 0.373138 0.00431496 0.00215748 0.00431496 0.00215748 0.00431102 0.00215354 0.00215748 0.00215748 0.00431496 0.00215748 0.00431102 0.00215748 0.00431496 0.00215748 0.00215748 0.00215748 0.00431496 0.00215354 0.00431102 0.00215748 0.00215748 0.00215748 0.00431496 0.00215748 0.00215748 0.00215748 0.00431102 0.00215748 0.00215748 0.00215748 0.00215748 0.00215354 0.00431496 0.00215748 0.00215748 0.00215748 0.00431102 0.00215748 0.00215748 0.00215748 0.00215748 0.00215748 0.00215748 0.00215354 0.00215748 0.00215748 0.00431102 0.00215748 0.00215748 0.00215748 0.00215748 0.00215748 0.00215748 0.00215748 0.00215748 0.00215354 0.00215748 0.00215748 0.00215354 0.00215748 0.00215748 0.00215748 0.00215748 0.00215748 0.00215748 0.00215748 0.00431496 0.00215354 0.00215354 0.00431496 0.00215748 0.00215748 0.00215748 0.00215748 0.00215748 0.00215748 0.00215748 0.00215748 0.00215748 0.00215354 0.00215748 0.00215748 0.00215354 0.00215748 0.00215748 0.00215748 0.00215748 0.00215748 0.00215748 0.00431102 0.00215748 0.00215748 0.00215748 0.00215748 0.00215354 0.00215748 0.00215748 0.00431496 0.00215748 0.00215748 0.00215748 0.00215354 0.00215748 0.00431496 0.00215748 0.00215748 0.00215748 0.00431496 0.00215354 0.00215354 0.00215748 0.00431496 0.00215748 0.00215748 0.00215748 0.00431496 0.00215748 0.00215354 0.00215748 0.00431496 0.00215354 0.00431496 0.00215748 0.00215748 0.00215748 0.00431102 0.00215748 0.00431496 0.00215748 0.00431496 0.00215748 0.00431102 0.00215354 0.00431496 0.00215748 0.00431496 0.00215748 0.00431102 0.00215748 0.00647244 0.00215748 0.00431496 0.00215748 0.00431102 0.00215354 0.00647244 0.00215748 0.0064685 0.00215748 0.00647244 0.00215748 0.0064685 0.00215748 0.00647244 0.00215748 0.00647244 0.00215748 0.00862598 0.00215354 0.0107835 0.00215748 0.0107835 0.00215748 0.0107874 0.00215748 0.0194094 0 0.0754921 -0.00215748 0.017252 -0.00215748 0.0107874 -0.00215748 0.0107835 -0.00215354 0.0107835 -0.00215748 0.00862598 -0.00215748 0.00647244 -0.00215748 0.0064685 -0.00215748 0.00647244 -0.00215748 0.00647244 -0.00215748 0.0064685 -0.00215354 0.00647244 -0.00215748 0.00431102 -0.00215748 0.00431496 -0.00215748 0.0064685 -0.00215748 0.00431496 -0.00215748 0.00431496 -0.00215354 0.00431102 -0.00215748 0.00431496 -0.00215748 0.00431496 -0.00215748 0.00431496 -0.00215748 0.00431102 -0.00215748 0.00215748 -0.00215354 0.00431496 -0.00215748 0.00431102 -0.00215748 0.00215748 -0.00215748 0.00431496 -0.00215748 0.00215748 -0.00215748 0.00431102 -0.00215354 0.00215748 -0.00215748 0.00431496 -0.00215748 0.00215748 -0.00215748 0.00431496 -0.00215748 0.00215354 -0.00215748 0.00215748 -0.00215748 0.00431496 -0.00215354 0.00215748 -0.00215748 0.00215748 -0.00215748 0.00215354 -0.00215748 0.00431496 -0.00215748 0.00215748 -0.00215748 0.00215748 -0.00215354 0.00215748 -0.00215748 0.00215748 -0.00215748 0.00215354 -0.00215748 0.00215748 -0.00215748 0.00215748 -0.00215748 0.00215748 -0.00215748 0.00431496 -0.00215354 0.00215354 -0.00215748 0.00215748 -0.00215748 0.00215748 -0.00431496 0.00215748 -0.00215748 0.00215748 -0.00215354 0.00215748 -0.00215748 0.00215354 -0.00215748 0.00215748 -0.00215748 0.00215748 -0.00215748 0.00215748 -0.00215748 0.00215748 -0.00215748 0.00215748 -0.00431102 0.00215354 -0.00215748 0.00215748 -0.00215748 0.00215748 -0.00215748 0.00215748 -0.00431102 0.00215748 -0.00215748 0.00215748 -0.00215748 0.00215748 -0.00431496 0.00215354 -0.00215748 0.00215748 -0.00431102 0.00215748 -0.00215748 0.00215748 -0.00431496 0.00215748 -0.00215748 0.00215748 -0.00431102 0.00215354 -0.00215748 0.00215748 -0.00431496 0.00215748 -0.00431496 0.00215748 -0.00431102 0.00215748 -0.00215748 0.00215748 -0.00431496 0.00215354 -0.00431102 0.00215748 -0.00431496 0.00215748 -0.00431496 0.00215748 -0.00215748 0.375295 -0.00215748 0.00862598 -0.00215354 0.00647244 -0.00215748 0.00431102 -0.00215748 0.00431496 -0.00215748 0.00431496 -0.00215748 0.00431102 -0.00215748 0.00431496 -0.00215354 0.00215748 -0.00215748 0.00431102 -0.00215748 0.00215748 -0.00215748 0.00215748 -0.00215748 0.00215748 -0.00215748 0.00215748 -0.00215354 0.00215748 -0.00215748 0.00215748 -0.00215748 0.00215354 -0.00215748 0.00215748 -0.00215748 0.00215748 -0.00431496 0.00215748 -0.00215354 0.00215748 -0.00431496 0.00215748 -0.00215748 0.00215354 -0.00431496 0.00215748 -0.00431102 0.00215748 -0.00431496 0.00215748 -0.0064685 0.00215748 -0.00862992 0.00215748 -0.0107835 0.00215748 -0.0301969 0 -0.0107835 -0.00215748 -0.00862598 -0.00215748 -0.00431496 -0.00215748 -0.00647244 -0.00215748 -0.00431102 -0.00215748 -0.00431496 -0.00215748 -0.00215748 -0.00215354 -0.00431496 -0.00215748 -0.00215354 -0.00215748 -0.00431496 -0.00215748 -0.00215748 -0.00215748 -0.00215748 -0.00215748 -0.00431102 -0.00215354 -0.00215748 -0.00215748 -0.00215748 -0.00215748 -0.00215748 -0.00215748 -0.00431496 -0.00215748 -0.00215354 -0.00215748 -0.00215748 -0.00215748 -0.00215748 -0.00215354 -0.00431496 -0.00215748 -0.00215748 -0.00215748 -0.00215748 -0.00215748 -0.00215354 -0.00215748 -0.00431496 -0.00215748 -0.00215748 -0.00215354 -0.00215748 -0.00215748 -0.00215748 -0.00215748 -0.00431102 -0.00215748 -0.00215748 -0.00215748 -0.00215748 -0.00215748 -0.00215748 -0.00215354 -0.00431496 -0.00215748 -0.00215354 -0.00215748 -0.00215748 -0.00215748 -0.00215748 -0.00215748 -0.00431496 -0.00215748 -0.00215748 -0.00215748 -0.00215354 -0.00215354 -0.00215748 -0.00215748 -0.00431496 -0.00215748 -0.00215748 -0.00215748 -0.00215748 -0.00215748 -0.00215354 -0.00215748 -0.00431496 -0.00215354 -0.00215748 -0.00215748 -0.00215748 -0.00215748 -0.00215748 -0.00215748 -0.00431102 -0.00215748 -0.00215748 -0.00215748 -0.00215748 -0.00215354 -0.00215748 -0.00215748 -0.00431496 -0.00215748 -0.00215354 -0.00215748 -0.00215748 -0.00215748 -0.00215748 -0.00215748 -0.00431496 -0.00215748 -0.00215748 -0.00215354 -0.00215354 -0.00215748 -0.00215748 -0.00215748 -0.00431496 -0.00215748 -0.00215748 -0.00215748 -0.00215748 -0.00215748 -0.00215354 -0.00215354 -0.00431496 -0.00215748 -0.00215748 -0.00215748 -0.00215748 -0.00215748 -0.00215748 -0.00215748 -0.00431102 -0.00215748 -0.00215748 -0.00215748 -0.00215748 -0.00215354 -0.00215748 -0.00215748 -0.00431496 -0.00215748 -0.00215748 -0.00215748 -0.00215354 -0.00215748 -0.00215748 -0.00215748 -0.00431496 -0.00215354 -0.00215748 -0.00215748 -0.00215748 -0.00215748 -0.00215354 -0.00215748 -0.00431496 -0.00215748 -0.00215748 -0.00215748 -0.00215748 -0.00215354 -0.00215748 -0.00215748 -0.00431102 -0.00215748 -0.00215748 -0.00215748 -0.00215748 -0.00215748 -0.00215748 -0.00215748 -0.00431102 -0.00215354 -0.00215748 -0.00215748 -0.00215748 -0.00215748 -0.00215748 -0.00215748 -0.00431496 -0.00215748 -0.00215748 -0.00215748 -0.00215354 -0.00215748 -0.00215748 -0.00215354 -0.00431496 -0.00215748 -0.00215748 -0.00215748 -0.00215748 -0.00215748 -0.00215354 -0.00215748 -0.00431496 -0.00215748 -0.00215748 -0.00215354 -0.00215748 -0.00215748 -0.00215748 -0.00215748 -0.00431102 -0.00215748 -0.00215748 -0.00215748 -0.00215748 -0.00215748 -0.00215748 -0.00215354 -0.00431496 -0.00215748 -0.00215354 -0.00215748 -0.00215748 -0.00215748 -0.00215748 -0.00215748 -0.00431496 -0.00215748 -0.00215748 -0.00215748 -0.00215354 -0.00215354 -0.00215748 -0.00215748 -0.00431496 -0.00215748 -0.00215748 -0.00215748 -0.00215748 -0.00215748 -0.00215748 -0.00215748 -0.00431102 -0.00215354 -0.00215748 -0.00215748 -0.00215748 -0.00215748 -0.00215748 -0.00215748 -0.00215748 -0.00215748 -0.00431102 -0.00215748 -0.00215748 -0.00215748 -0.00215748 -0.00215354 -0.00215748 -0.00215748 -0.00431102 -0.00215748 -0.00215748 -0.00215748 -0.00215748 -0.00215748 -0.00215748 -0.00215748 -0.00431496 -0.00215354 -0.00215354 -0.00215748 -0.00215748 -0.00215748 -0.00215748 -0.00215748 -0.00431496 -0.00215748 -0.00215748 -0.00215748 -0.00215748 -0.00215354 -0.00215354 -0.00215748 -0.00431496 -0.00215748 -0.00215748 -0.00215748 -0.00215748 -0.00215748 -0.00215748 -0.00215748 -0.00431102 -0.00215354 -0.00215748 -0.00215748 -0.00215748 -0.00215748 -0.00215748 -0.00215748 -0.00431496 -0.00215748 -0.00215354 -0.00215748 -0.00215748 -0.00215748 -0.00215748 -0.00215354 -0.00431496 -0.00215748 -0.00215748 -0.00215748 -0.00215354 -0.00215748 -0.00215748 -0.00215748 -0.00431496 -0.00215748 -0.00215748 -0.00215354 -0.00215748 -0.00215748 -0.00215354 -0.00215748 -0.00431496 -0.00215748 -0.00215748 -0.00215748 -0.00215748 -0.00215748 -0.00215748 -0.00215748 -0.00431102 -0.00215354 -0.00215748 -0.00215748 -0.00215748 -0.00215748 -0.00215748 -0.00215748 -0.00431496 -0.00215748 -0.00215354 -0.00215748 -0.00215748 -0.00215354 -0.00215748 -0.00215748 -0.00431496 -0.00215748 -0.00215748 -0.00215748 -0.00215354 -0.00215748 -0.00215748 -0.00215748 -0.00431496 -0.00215354 -0.00215748 -0.00215748 -0.00215748 -0.00215748 -0.00215354 -0.00215748 -0.00431496 -0.00215748 -0.00215748 -0.00215748 -0.00215748 -0.00215748 -0.00215748 -0.00215354 -0.00431102 -0.00215748 -0.00215748 -0.00215748 -0.00215748 -0.00215748 -0.00215748 -0.00215748 -0.00431496 -0.00215748 -0.00215748 -0.00215354 -0.00215354 -0.00215748 -0.00215748 -0.00215748 -0.00431496 -0.00215748 -0.00215748 -0.00215748 -0.0992126 0 0.00215354 0.00647244 0.00215748 0.00431102 0.00215748 0.00431496 0.00215748 0.00647244 0.00215748 0.00431102 0.00215748 0.00431496 0.00215354 0.00647244 0.00215748 0.00431102 0.00215748 0.00431496 0.00215748 0.0064685 0.00215748 0.00431496 0.00215748 0.00431496 0.00215748 0.0064685 0.00215354 0.00431496 0.00215748 0.00431496 0.00215748 0.0064685 0.00215748 0.00431496 0.00215748 0.00431496 0.00215748 0.0064685 0.00215354 0.00431496 0.00215748 0.00431496 0.00215748 0.0064685 0.00215748 0.00431496 0.00215748 0.00431102 0.00215748 0.00647244 0.00215354 0.00431496 0.00215748 0.00431102 0.00215748 0.00647244 0.00215748 0.00431102 0.00215748 0.00431496 0.00215748 0.00647244 0.00215748 0.00431102 0.00215354 0.00431496 0.00215748 0.00647244 0.00215748 0.00431102 0.00215748 0.00431496 0.00215748 0.00647244 0.00215748 0.00431102 0.00215354 0.00431496 0.00215748 0.0064685 0.00215748 0.00431496 0.00215748 0.00431496 0.00215748 0.0064685 0.00215748 0.00431496 0.00215354 0.00431496 0.00215748 0.0064685 0.00215748 0.00431496 0.00215748 0.00431496 0.00215748 0.0064685 0.00215748 0.00431496 0.00215354 0.00431102 0.00215748 0.00647244 0.00215748 0.00431496 0.00215748 0.00431102 0.00215748 0.00647244 0.00215748 0.00431496 0.00215748 0.00431102 0.00215354 0.00647244 0.00215748 0.00431102 0.00215748 0.00431496 0.00215748 0.00647244 0.00215748 0.00431102 0.00215748 0.00431496 0.00215748 0.00647244 0.00215354 0.00431102 0.00215748 0.00431496 0.00215748 0.0064685 0.00215748 0.00431496 0.00215748 0.00431496 0.00215748 0.0064685 0.00215354 0.00431496 0.00215748 0.00647244 0.00215748 0.00431102 0.00215748 0.00431496 0.00215748 0.0064685 0.00215748 0.00431496 0.00215354 0.00862992 0.00215748 0.00862598 0 0.0366654 -0.00215748 0.0107835 -0.00215354 0.00647244 -0.00215748 0.00431496 -0.00215748 0.0064685 -0.00215748 0.00431496 -0.00215748 0.00431496 -0.00215748 0.00215354 -0.00215354 0.00431496 -0.00215748 0.00215748 -0.00215748 0.00215748 -0.00215748 0.00431102 -0.00215748 0.00215748 -0.00215748 0.00215748 -0.00215354 0.00215748 -0.00215748 0.00215748 -0.00215748 0.00215748 -0.00215748 0.00215354 -0.00431496 0.00215748 -0.00215748 0.00215748 -0.00215354 0.00215748 -0.00431496 0.00215748 -0.00431496 0.00215748 -0.00215748 0.00215748 -0.00431102 0.00215354 -0.00431496 0.00215748 -0.00431496 0.00215748 -0.00431102 0.00215748 -0.00431496 0.00215748 -0.00431496 0.00215748 -0.00431102 0.00215748 -0.00431496 0.00215354 -0.00431496 0.00215748 -0.00431102 0.00215748 -0.00431496 0.00215748 -0.00431496 0.00215748 -0.00431496 0.00215748 -0.00431102 0.00215354 -0.00431496 0.00215748 -0.00431496 0.00215748 -0.00431102 0.00215748 -0.00431496 0.00215748 -0.00431496 0.00215748 -0.00431102 0.00215354 -0.00431496 0.00215748 -0.00431496 0.00215748 -0.00431102 0.00215748 -0.00431496 0.00215748 -0.00431496 0.00215748 -0.00431102 0.00215354 -0.00431496 0.00215748 -0.00431496 0.00215748 -0.00431496 0.00215748 -0.00431102 0.00215748 -0.00431496 0.00215748 -0.00431496 0.00215748 -0.00431102 0.00215354 -0.00431496 0.00215748 -0.00431496 0.00215748 -0.00431102 0.00215748 -0.00431496 0.00215748 -0.00431496 0.00215748 -0.00431102 0.00215354 -0.00431496 0.00215748 -0.00431496 0.00215748 -0.00431102 0.00215748 -0.00431496 0.00215748 -0.00431496 0.00215748 -0.00431102 0.00215354 -0.00431496 0.00215748 -0.00431496 0.00215748 -0.00431102 0.00215748 -0.00431496 0.00215748 -0.00431496 0.00215748 -0.0064685 0.00215748 -0.00647244 0.00215354 -0.00647244 0.00215748 -0.0107835 0.00215748 -0.0301929 0 -0.0129449 -0.00215748 -0.0064685 -0.00215748 -0.00647244 -0.00215354 -0.00431102 -0.00215748 -0.00431496 -0.00215748 -0.00431496 -0.00215748 -0.00431102 -0.00215748 -0.00215748 -0.00215748 -0.00431496 -0.00215748 -0.00215748 -0.00215354 -0.00215748 -0.00215748 -0.00215354 -0.00215748 -0.00431496 -0.00215748 -0.00215748 -0.00431496 -0.00215748 -0.00215354 -0.00215748 -0.00215748 -0.00215354 -0.00215748 -0.00215748 -0.00215748 -0.00215748 -0.00215748 -0.00215748 -0.00431102 -0.00215748 -0.00215748 -0.00215748 -0.00431496 -0.00215748 -0.00431496 -0.00215354 -0.00431102 -0.00215748 -0.00431496 -0.00215748 -0.00647244 -0.00215748 -0.00431102 -0.00215748 -0.00431496 -0.00215748 -0.0064685 -0.00215354 -0.00431496 -0.00215748 -0.00431496 -0.00215748 -0.0064685 -0.00215748 -0.00431496 -0.00215748 -0.00431496 -0.00215748 -0.0064685 -0.00215354 -0.00431496 -0.00215748 -0.00431496 -0.00215748 -0.0064685 -0.00215748 -0.00431496 -0.00215748 -0.00431496 -0.00215748 -0.0064685 -0.00215354 -0.00431496 -0.00215748 -0.00431102 -0.00215748 -0.00647244 -0.00215748 -0.00431496 -0.00215748 -0.00431102 -0.00215748 -0.00647244 -0.00215748 -0.00431496 -0.00215354 -0.00431102 -0.00215748 -0.00647244 -0.00215748 -0.00431102 -0.00215748 -0.00431496 -0.00215748 -0.00647244 -0.00215748 -0.00431102 -0.00215354 -0.00431496 -0.00215748 -0.00647244 -0.00215748 -0.00431102 -0.00215748 -0.00431496 -0.00215748 -0.0064685 -0.00215748 -0.00431496 -0.00215748 -0.00431496 -0.00215354 -0.0064685 -0.00215748 -0.00431496 -0.00215748 -0.00431496 -0.00215748 -0.0064685 -0.00215748 -0.00431496 -0.00215748 -0.00431496 -0.00215354 -0.0064685 -0.00215748 -0.00431496 -0.00215748 -0.00431496 -0.00215748 -0.0064685 -0.00215748 -0.00431496 -0.00215748 -0.00431102 -0.00215354 -0.00647244 -0.00215748 -0.00431496 -0.00215748 -0.00431102 -0.00215748 -0.00647244 -0.00215748 -0.00431496 -0.00215748 -0.00431102 -0.00215748 -0.00647244 -0.00215354 -0.00431102 -0.00215748 -0.00431496 -0.00215748 -0.00647244 -0.00215748 -0.00431102 -0.00215748 -0.00431496 -0.00215748 -0.00647244 -0.00215354 -0.00431102 -0.00215748 -0.00431496 -0.00215748 -0.0064685 -0.00215748 -0.00431496 -0.00215748 -0.00431496 -0.00215748 -0.0064685 -0.00215354 -0.00431496 -0.00215748 -0.00431496 -0.00215748 -0.0064685 -0.00215748 -0.00431496 -0.00215748 -0.00431496 -0.00215748 -0.0064685 -0.00215354 -0.00431496 -0.00215748 -0.00431102 -0.00215748 -0.00647244 -0.00215748 -0.00431496 -0.00215748 -0.00431102 -0.00215748 -0.00647244 -0.00215748 -0.00431496 -0.00215354 -0.00431102 -0.00215748 -0.00647244 -0.00215748 -0.00431496 -0.00215748 -0.00431102 -0.00215748 -0.00647244 -0.00215748 -0.00431102 -0.00215354 -0.00431496 -0.00215748 -0.00647244 -0.00215748 -0.00431102 -0.00215748 -0.00431496 -0.00215748 -0.0064685 -0.00215748 -0.00431496 -0.00215748 -0.00431496 -0.00215354 -0.0064685 -0.00215748 -0.00431496 -0.00215748 -0.00431496 -0.00215748 -0.0064685 -0.00215748 -0.00431496 -0.00215748 -0.00431496 -0.00215354 -0.0064685 -0.00215748 -0.00431496 -0.00215748 -0.00431496 -0.00215748 -0.0064685 -0.00215748 -0.00431496 -0.00215748 -0.00431102 -0.00215354 -0.00647244 -0.00215748 -0.00431496 -0.00215748 -0.00431102 -0.00215748 -0.00647244 -0.00215748 -0.00431496 -0.00215748 -0.00431102 -0.00215748 -0.00647244 -0.0862717 -0.00215748 -0.0215709 -0.00215354 -0.0150984 -0.00215748 -0.0107835 -0.00215748 -0.0107835 -0.00215748 -0.00862598 -0.00215748 -0.00647244 -0.00215748 -0.00862598 -0.00215748 -0.00647244 -0.00215354 -0.0064685 -0.00215748 -0.00647244 -0.00215748 -0.00431496 -0.00215748 -0.0064685 -0.00215748 -0.00647244 -0.00215748 -0.00431102 -0.00215354 -0.00431496 -0.00215748 -0.00431496 -0.00215748 -0.00431102 -0.00215748 -0.00431496 -0.00215748 -0.00431496 -0.00215748 -0.00431102 -0.00215748 -0.00431496 -0.00215354 -0.00431496 -0.00215748 -0.00215748 -0.00215748 -0.00431102 -0.00215748 -0.00431496 -0.00215748 -0.00215748 -0.00215748 -0.00431102 -0.00215354 -0.00215748 -0.00215748 -0.00431496 -0.00215748 -0.00215748 -0.00215748 -0.00431496 -0.00215748 -0.00215354 -0.00215748 -0.00431496 -0.00215354 -0.00215748 -0.00215748 -0.00215748 -0.00215748 -0.00431102 -0.00215748 -0.00215748 -0.00215748 -0.00215748 -0.00215748 -0.00215748 -0.00215748 -0.00215748 -0.00215354 -0.00431496 -0.00215748 -0.00215354 -0.00215748 -0.00215748 -0.00215748 -0.00215748 -0.00215748 -0.00215748 -0.00215748 -0.00215748 -0.00215354 -0.00215748 -0.00215748 -0.00215354 -0.00215748 -0.00215748 -0.00215748 -0.00215748 -0.00215748 -0.00215748 -0.00215748 -0.00215748 -0.00215354 -0.00215748 -0.00215748 -0.00215354 -0.00215748 -0.00215748 -0.00215748 -0.00215748 -0.00215748 -0.00215748 -0.00215748 -0.00215748 -0.00215354 -0.00215748 -0.00215748 -0.00215354 -0.00215748 -0.00215748 -0.00431496 -0.00215748 -0.00215748 -0.00215748 -0.00215748 -0.00215748 -0.00215354 -0.00215748 -0.00431496 -0.00215748 -0.00215748 -0.00215354 -0.00215748 -0.00215748 -0.00431102 -0.00215748 -0.00215748 -0.00215748 -0.00215748 -0.00215748 -0.00431496 -0.00215748 -0.00215748 -0.00215354 -0.00431102 -0.00215748 -0.00215748 -0.00215748 -0.00431496 -0.00215748 -0.00431496 -0.00215748 -0.00215354 -0.00215748 -0.00431496 -0.00215748 -0.00431496 -0.00215354 -0.00215748 -0.00215748 -0.00431102 -0.00215748 -0.00431496 -0.00215748 -0.00431496 -0.00215748 -0.00431102 -0.00215748 -0.00431496 -0.00215354 -0.00647244 -0.00215748 -0.00431102 -0.00215748 -0.00431496 -0.00215748 -0.0064685 -0.00215748 -0.00431496 -0.00215748 -0.00647244 -0.00215354 -0.0064685 -0.00215748 -0.00647244 -0.00215748 -0.0064685 -0.00215748 -0.00862992 -0.00215748 -0.00862598 -0.00215748 -0.00862598 -0.00215748 -0.0107874 -0.00215354 -0.0107835 -0.00215748 -0.0172559 0 -0.0819606 0.00215748 -0.017252 0.00215354 -0.0107874 0.00215748 -0.0107835 0.00215748 -0.00862598 0.00215748 -0.00862598 0.00215748 -0.00862992 0.00215748 -0.0064685 0.00215748 -0.00647244 0.00215354 -0.0064685 0.00215748 -0.00647244 0.00215748 -0.00431496 0.00215748 -0.0064685 0.00215748 -0.00431496 0.00215748 -0.00431496 0.00215354 -0.0064685 0.00215748 -0.00431496 0.00215748 -0.00431102 0.00215748 -0.00431496 0.00215748 -0.00431496 0.00215748 -0.00431102 0.00215354 -0.00215748 0.00215748 -0.00431496 0.00215748 -0.00431496 0.00215748 -0.00215748 0.00215748 -0.00431102 0.00215748 -0.00431496 0.00215748 -0.00215748 0.00215354 -0.00431102 0.00215748 -0.00215748 0.00215748 -0.00431496 0.00215748 -0.00215748 0.00215748 -0.00215748 0.00215748 -0.00431102 0.00215354 -0.00215748 0.00215748 -0.00215748 0.00215748 -0.00431496 0.00215748 -0.00215748 0.00215748 -0.00215354 0.00215748 -0.00215748 0.00215748 -0.00431496 0.00215354 -0.00215748 0.00215748 -0.00215748 0.00215748 -0.00215354 0.00215748 -0.00215748 0.00215748 -0.00215748 0.00215748 -0.00215748 0.00215354 -0.00215748 0.00215748 -0.00215748 0.00215748 -0.00215748 0.00215748 -0.00215354 0.00215748 -0.00215748 0.00215748 -0.00215748 0.00215354 -0.00215748 0.00215748 -0.00215748 0.00215748 -0.00215748 0.00215748 -0.00215354 0.00215748 -0.00215748 0.00215748 -0.00215748 0.00215354 -0.00215748 0.00431496 -0.00215748 0.00215748 -0.00215748 0.00215748 -0.00215354 0.00215748 -0.00215748 0.00215748 -0.00215748 0.00431102 -0.00215748 0.00215748 -0.00215748 0.00215748 -0.00215748 0.00431496 -0.00215354 0.00215354 -0.00215748 0.00431496 -0.00215748 0.00215748 -0.00215748 0.00431496 -0.00215748 0.00215748 -0.00215748 0.00431102 -0.00215748 0.00215748 -0.00215354 0.00431496 -0.00215748 0.00431102 -0.00215748 0.00215748 -0.00215748 0.00431496 -0.00215748 0.00431496 -0.00215748 0.00431102 -0.00215354 0.00431496 -0.00215748 0.00431496 -0.00215748 0.00431102 -0.00215748 0.00431496 -0.00215748 0.00431496 -0.00215748 0.00431102 -0.00215748 0.00647244 -0.00215354 0.0064685 -0.00215748 0.00431496 -0.00215748 0.00647244 -0.00215748 0.0064685 -0.00215748 0.00647244 -0.00215748 0.00862598 -0.00215354 0.00647244 -0.00215748 0.00862598 -0.00215748 0.0107835 -0.00215748 0.0107835 -0.00215748 0.0150984 -0.00215748 0.0215709 -0.00215354 0.677252 -0.00215748 0.00215748 -0.00215748 0.00431496 -0.00215748 0.00215748 -0.00215748 0.00215354 -0.00215748 0.00215748 -0.00215748 0.00431496 -0.00215354 0.00215748 -0.00215748 0.00215748 -0.00215748 0.00215748 -0.00215748 0.00215354 -0.00215748 0.00431496 -0.00215748 0.00215748 -0.00215354 0.00215748 -0.00215748 0.00215748 -0.00215748 0.00431102 -0.00215748 0.00215748 -0.00215748 0.00215748 -0.00215748 0.00215748 -0.00215354 0.00431496 -0.00215748 0.00215354 -0.00215748 0.00215748 -0.00215748 0.00215748 -0.00215748 0.00431496 -0.00215748 0.00215748 -0.00215354 0.00215354 -0.00215748 0.00215748 -0.00215748 0.00431496 -0.00215748 0.00215748 -0.00215748 0.00215748 -0.00215748 0.00215354 -0.00215748 0.00431496 -0.00215354 0.00215748 -0.00215748 0.00215748 -0.00215748 0.00215748 -0.00215748 0.00431102 -0.00215748 0.00215748 -0.00215748 0.00215748 -0.00215748 0.00215748 -0.00215354 0.00431496 -0.00215748 0.00215354 -0.00215748 0.00215748 -0.00215748 0.00215748 -0.00215748 0.00431496 -0.00215748 0.00215748 -0.00215354 0.00215354 -0.00215748 0.00215748 -0.00215748 0.00431496 -0.00215748 0.00215748 -0.00215748 0.00215748 -0.00215748 0.00215748 -0.00215354 0.00431102 -0.00215748 0.00215748 -0.00215748 0.00215748 -0.00215748 0.00215748 -0.00215748 0.00431102 -0.00215748 0.00215748 -0.00215748 0.00215748 -0.00215354 0.00215748 -0.00215748 0.00431496 -0.00215748 0.00215748 -0.00215748 0.00215354 -0.00215748 0.00215748 -0.00215748 0.00431496 -0.00215354 0.00215748 -0.00215748 0.00215748 -0.00215748 0.00215354 -0.00215748 0.00431496 -0.00215748 0.00215748 -0.00215748 0.00215748 -0.00215354 0.00215748 -0.00215748 0.00431102 -0.00215748 0.00215748 -0.00215748 0.00215748 -0.00215748 0.00215748 -0.00215748 0.00431102 -0.00215354 0.00215748 -0.00215748 0.00215748 -0.00215748 0.00215748 -0.00215748 0.00431496 -0.00215748 0.00215748 -0.00215748 0.00215354 -0.00215748 0.00215748 -0.00215354 0.00431496 -0.00215748 0.00215748 -0.00215748 0.00215748 -0.00215748 0.00215354 -0.00215748 0.00431496 -0.00215748 0.00215748 -0.00215354 0.00215748 -0.00215748 0.00215748 -0.00215748 0.00431102 -0.00215748 0.00215748 -0.00215748 0.00215748 -0.00215748 0.00215748 -0.00215748 0.00431496 -0.00215354 0.00215354 -0.00215748 0.00215748 -0.00215748 0.00215748 -0.00215748 0.00431496 -0.00215748 0.00215748 -0.00215748 0.00215354 -0.00215354 0.00215748 -0.00215748 0.00431496 -0.00215748 0.00215748 -0.00215748 0.00215748 -0.00215748 0.00215748 -0.00215748 0.00431102 -0.00215354 0.00215748 -0.00215748 0.00215748 -0.00215748 0.00215748 -0.00215748 0.00431102 -0.00215748 0.00215748 -0.00215748 0.00215748 -0.00215748 0.00215748 -0.00215354 0.00431496 -0.00215748 0.00215354 -0.00215748 0.00215748 -0.00215748 0.00215748 -0.00215748 0.00431496 -0.00215748 0.00215748 -0.00215354 0.00215354 -0.00215748 0.00215748 -0.00215748 0.00431496 -0.00215748 0.00215748 -0.00215748 0.00215748 -0.00215748 0.00215748 -0.00215354 0.00431102 -0.00215748 0.00215748 -0.00215748 0.00215748 -0.00215748 0.00215748 -0.00215748 0.00431496 -0.00215748 0.00215354 -0.00215748 0.00215748 -0.00215354 0.00215748 -0.00215748 0.00431496 -0.00215748 0.00215748 -0.00215748 0.00215354 -0.00215748 0.00215748 -0.00215748 0.00431496 -0.00215354 0.00215748 -0.00215748 0.00215748 -0.00215748 0.00215354 -0.00215748 0.00431496 -0.00215748 0.00215748 -0.00215748 0.00215748 -0.00215748 0.00215748 -0.00215354 0.00431102 -0.00215748 0.00215748 -0.00215748 0.00215748 -0.00215748 0.00215748 -0.00215748 0.00431496 -0.00215748 0.00215354 -0.00215354 0.00215748 -0.00215748 0.00215748 -0.00215748 0.00431496 -0.00215748 0.00215748 -0.00215748 0.00215354 -0.00215748 0.00215748 -0.00215354 0.00431496 -0.00215748 0.00215748 -0.00215748 0.00215748 -0.00215748 0.00215354 -0.00215748 0.00431496 -0.00215748 0.00215748 -0.00215354 0.00215748 -0.00215748 0.00215748 -0.00215748 0.00431102 -0.00215748 0.00215748 -0.00215748 0.00215748 -0.00215748 0.00215748 -0.00215748 0.00431496 -0.00215354 0.00215354 -0.00215748 0.00215748 -0.00215748 0.00215748 -0.00215748 0.00431496 -0.00215748 0.00215748 -0.00215748 0.00215748 -0.00215354 0.00215354 -0.00215748 0.00431496 -0.00215748 0.00215748 -0.00215748 0.00215748 -0.00215748 0.00215748 -0.00215748 0.00431102 -0.00215354 0.00215748 -0.00215748 0.00215748 -0.00215748 0.00431496 -0.00215748 0.00215354 -0.00215748 0.00215748 -0.00215748 0.00431496 -0.00215748 0.00431496 -0.00215354 0.00431102 -0.00215748 0.00431496 -0.00215748 0.00647244 -0.00215748 0.00862598 -0.00215748 0.0107795 -0.00215354zm-0.511169 0.530587l0.00215354 -0.00215748 0.00431496 -0.00215748 0.00215748 -0.00215748 0.00215748 -0.00215748 0.00215748 -0.00215748 0.00431102 -0.00215354 0.00215748 -0.00215748 0.00215748 -0.00215748 0.00215748 -0.00215748 0.00431102 -0.00215748 0.00215748 -0.00215748 0.00215748 -0.00215354 0.00215748 -0.00215748 0.00431496 -0.00215748 0.00215354 -0.00215748 0.00215748 -0.00215748 0.00215748 -0.00215748 0.00431496 -0.00215354 0.00215748 -0.00215748 0.00215748 -0.00215748 0.00215354 -0.00215748 0.00431496 -0.00215748 0.00215748 -0.00215748 0.00215748 -0.00215748 0.00215748 -0.00215354 0.00431102 -0.00215748 0.00215748 -0.00215748 0.00215748 -0.00215748 0.00215748 -0.00215748 0.00431102 -0.00215748 0.00215748 -0.00215354 0.00215748 -0.00215748 0.00215748 -0.00215748 0.00431496 -0.00215748 0.00215748 -0.00215748 0.00215354 -0.00215748 0.00215748 -0.00215748 0.00431496 -0.00215354 0.00215748 -0.00215748 0.00215748 -0.00215748 0.00215354 -0.00215748 0.00431496 -0.00215748 0.00215748 -0.00215748 0.00215748 -0.00215354 0.00215748 -0.00215748 0.00431102 -0.00215748 0.00215748 -0.00215748 0.00215748 -0.00215748 0.00215748 -0.00215748 0.00431496 -0.00215354 0.00215354 -0.00215748 0.00215748 -0.00215748 0.00215748 -0.00215748 0.00431496 -0.00215748 0.00215748 -0.00215748 0.00215354 -0.00215748 0.00215748 -0.00215354 0.00431496 -0.00215748 0.00215748 -0.00215748 0.00215748 -0.00215748 0.00215354 -0.00215748 0.00431496 -0.00215748 0.00215748 -0.00215354 0.00215748 -0.00215748 0.00215748 -0.00215748 0.00431102 -0.00215748 0.00215748 -0.00215748 0.00215748 -0.00215748 0.00215748 -0.00215354 0.00431496 -0.00215748 0.00215354 -0.00215748 0.00215748 -0.00215748 0.00215748 -0.00215748 0.00431496 -0.00215748 0.00215748 -0.00215354 0.00215748 -0.00215748 0.00215354 -0.00215748 0.00431496 -0.00215748 0.00215748 -0.00215748 0.00215748 -0.00215748 0.00215748 -0.00215748 0.00431102 -0.00215354 0.00215748 -0.00215748 0.00215748 -0.00215748 0.00215748 -0.00215748 0.00431102 -0.00215748 0.00215748 -0.00215748 0.00215748 -0.00215748 0.00215748 -0.00215354 0.00431496 -0.00215748 0.00215748 -0.00215748 0.00215354 -0.00215748 0.00215748 -0.00215748 0.00431496 -0.00215748 0.00215748 -0.00215354 0.00215748 -0.00215748 0.00215354 -0.00215748 0.00431496 -0.00215748 0.00215748 -0.00215748 0.00215748 -0.00215748 0.00215748 -0.00215354 0.00431102 -0.00215748 0.00215748 -0.00215748 0.00215748 -0.00215748 0.00215748 -0.00215748 0.00431102 -0.00215748 0.00215748 -0.00215748 0.00215748 -0.00215354 0.00215748 -0.00215748 0.00431496 -0.00215748 0.00215748 -0.00215748 0.00215354 -0.00215748 0.00215748 -0.00215748 0.00431496 -0.00215354 0.00215748 -0.00215748 0.00215748 -0.00215748 0.00215748 -0.00215748 0.00431102 -0.00215748 0.00215748 -0.00215748 0.00215748 -0.00215354 0.00215748 -0.00215748 0.00431102 -0.00215748 0.00215748 -0.00215748 0.00215748 -0.00215748 0.00215748 -0.00215748 0.00431496 -0.00215354 0.00215354 -0.00215748 0.00215748 -0.00215748 0.00215748 -0.00215748 0.00431496 -0.00215748 0.00215748 -0.00215748 0.00215748 -0.00215748 0.00215354 -0.00215354 0.00431496 -0.00215748 0.00215748 -0.00215748 0.00215748 -0.00215748 0.00215748 -0.00215748 0.00431102 -0.00215748 0.00215748 -0.00215354 0.00215748 -0.00215748 0.00215748 -0.00215748 0.00431102 -0.00215748 0.00215748 -0.00215748 0.00215748 -0.00215748 0.00215748 -0.00215748 0.00431496 -0.00215354 0.00215354 -0.00215748 0.00215748 -0.00215748 0.00215748 -0.00215748 0.00431496 -0.00215748 0.00215748 -0.00215748 0.00215748 -0.00215354 0.00215354 -0.00215748 0.00431496 -0.00215748 0.00215748 -0.00215748 0.00215748 -0.00215748 0.00215748 -0.00215748 0.00431102 -0.00215354 0.00215748 -0.00215748 0.00215748 -0.00215748 0.00215748 -0.00215748 0.00431496 -0.00215748 0.00215354 -0.00215748 0.00215748 -0.00215748 0.00215748 -0.00215354 0.00431496 -0.00215748 0.00215748 -0.00215748 0.00215354 -0.00215748 0.00215748 -0.00215748 0.00431496 -0.00215748 0.00215748 -0.00215354 0.00215748 -0.00215748 0.00215354 -0.00215748 0.00431496 -0.00215748 0.00215748 -0.00215748 0.00215748 -0.00215748 0.00215748 -0.00215354 0.00431102 -0.00215748 0.00215748 -0.00215748 0.00215748 -0.00215748 0.00215748 -0.00215748 0.00431496 -0.00215748 0.00215354 -0.00215748 0.00215748 -0.00215354 0.00215748 -0.00215748 0.00431496 -0.00215748 0.00215748 -0.00215748 0.00215354 -0.00215748 0.00215748 -0.00215748 0.00431496 -0.00215354 0.00215748 -0.00215748 0.00215748 -0.00215748 0.00215354 -0.00215748 0.00431496 -0.00215748 0 1.36314 -0.00431496 -0.00215748 -0.00215354 -0.00215748 -0.00215748 -0.00215748 -0.00215748 -0.00215748 -0.00431496 -0.00215748 -0.00215748 -0.00215354 -0.00215354 -0.00215748 -0.00215748 -0.00215748 -0.00431496 -0.00215748 -0.00215748 -0.00215748 -0.00215748 -0.00215748 -0.00215354 -0.00215354 -0.00431496 -0.00215748 -0.00215748 -0.00215748 -0.00215748 -0.00215748 -0.00215748 -0.00215748 -0.00431102 -0.00215748 -0.00215748 -0.00215748 -0.00215748 -0.00215354 -0.00215748 -0.00215748 -0.00431496 -0.00215748 -0.00215354 -0.00215748 -0.00215748 -0.00215748 -0.00215748 -0.00215748 -0.00431496 -0.00215354 -0.00215748 -0.00215748 -0.00215354 -0.00215748 -0.00215748 -0.00215748 -0.00431496 -0.00215748 -0.00215748 -0.00215748 -0.00215748 -0.00215354 -0.00215354 -0.00215748 -0.00431496 -0.00215748 -0.00215748 -0.00215748 -0.00215748 -0.00215748 -0.00215748 -0.00215748 -0.00431102 -0.00215354 -0.00215748 -0.00215748 -0.00215748 -0.00215748 -0.00215748 -0.00215748 -0.00431496 -0.00215748 -0.00215354 -0.00215748 -0.00215748 -0.00215748 -0.00215748 -0.00215354 -0.00431496 -0.00215748 -0.00215748 -0.00215748 -0.00215748 -0.00215748 -0.00215354 -0.00215748 -0.00431496 -0.00215748 -0.00215748 -0.00215354 -0.00215748 -0.00215748 -0.00215748 -0.00215748 -0.00431102 -0.00215748 -0.00215748 -0.00215748 -0.00215748 -0.00215748 -0.00215748 -0.00215354 -0.00431102 -0.00215748 -0.00215748 -0.00215748 -0.00215748 -0.00215748 -0.00215748 -0.00215748 -0.00431496 -0.00215748 -0.00215354 -0.00215748 -0.00215748 -0.00215354 -0.00215748 -0.00215748 -0.00431496 -0.00215748 -0.00215748 -0.00215748 -0.00215748 -0.00215748 -0.00215354 -0.00215748 -0.00431496 -0.00215354 -0.00215748 -0.00215748 -0.00215748 -0.00215748 -0.00215748 -0.00215748 -0.00431102 -0.00215748 -0.00215748 -0.00215748 -0.00215748 -0.00215748 -0.00215748 -0.00215354 -0.00431102 -0.00215748 -0.00215748 -0.00215748 -0.00215748 -0.00215748 -0.00215748 -0.00215748 -0.00431496 -0.00215748 -0.00215748 -0.00215354 -0.00215354 -0.00215748 -0.00215748 -0.00215748 -0.00431496 -0.00215748 -0.00215748 -0.00215748 -0.00215748 -0.00215748 -0.00215748 -0.00215354 -0.00431102 -0.00215748 -0.00215748 -0.00215748 -0.00215748 -0.00215748 -0.00215748 -0.00215748 -0.00431102 -0.00215748 -0.00215748 -0.00215354 -0.00215748 -0.00215748 -0.00215748 -0.00215748 -0.00431496 -0.00215748 -0.00215354 -0.00215748 -0.00215748 -0.00215748 -0.00215748 -0.00215748 -0.00431496 -0.00215354 -0.00215748 -0.00215748 -0.00215354 -0.00215748 -0.00215748 -0.00215748 -0.00431496 -0.00215748 -0.00215748 -0.00215748 -0.00215748 -0.00215354 -0.00215748 -0.00215748 -0.00431102 -0.00215748 -0.00215748 -0.00215748 -0.00215748 -0.00215748 -0.00215748 -0.00215748 -0.00431102 -0.00215748 -0.00215748 -0.00215354 -0.00215748 -0.00215748 -0.00215748 -0.00215748 -0.00431496 -0.00215748 -0.00215354 -0.00215748 -0.00215748 -0.00215748 -0.00215748 -0.00215354 -0.00431496 -0.00215748 -0.00215748 -0.00215748 -0.00215748 -0.00215748 -0.00215354 -0.00215748 -0.00431496 -0.00215748 -0.00215748 -0.00215354 -0.00215748 -0.00215748 -0.00215748 -0.00215748 -0.00431102 -0.00215748 -0.00215748 -0.00215748 -0.00215748 -0.00215748 -0.00215748 -0.00215748 -0.00431496 -0.00215354 -0.00215354 -0.00215748 -0.00215748 -0.00215748 -0.00215748 -0.00215748 -0.00431496 -0.00215748 -0.00215748 -0.00215748 -0.00215354 -0.00215354 -0.00215748 -0.00215748 -0.00431496 -0.00215748 -0.00215748 -0.00215748 -0.00215748 -0.00215748 -0.00215354 -0.00215748 -0.00431496 -0.00215354 -0.00215748 -0.00215748 -0.00215748 -0.00215748 -0.00215748 -0.00215748 -0.00431102 -0.00215748 -0.00215748 -0.00215748 -0.00215748 -0.00215748 -0.00215748 -0.00215354 -0.00431496 -0.00215748 -0.00215354 -0.00215748 -0.00215748 -0.00215748 -0.00215748 -0.00215748 -0.00431496 -0.00215748 -0.00215748 -0.00215354 -0.00215354 -0.00215748 -0.00215748 -0.00215748 -0.00431496 -0.00215748 -0.00215748 -0.00215748 -0.00215748 -0.00215748 -0.00215748 -0.00215748 -0.00431102 -0.00215354 -0.00215748 -0.00215748 -0.00215748 -0.00215748 -0.00215748 -0.00215748 -0.00431102 -0.00215748 -0.00215748 -0.00215748 -0.00215748 -0.00215354 -0.00215748 -0.00215748 -0.00431496 -0.00215748 -0.00215354 -0.00215748 -0.00215748 -0.00215748 -0.00215748 -0.00215748 -0.00431496 -0.00215354 -0.00215748 -0.00215748 -0.00215748 -0.00215748 -0.00215354 -0.00215748 -0.00431496 -0.00215748 -0.00215748 -0.00215748 -0.00215748 -0.00215748 -0.00215748 -0.00215354 -0.00431102 -0.00215748 -0.00215748 -0.00215748 -0.00215748 -0.00215748 -0.00215748 -0.00215748 -0.00431102 -0.00215748 -0.00215748 -0.00215354 -0.00215748 -0.00215748 -0.00215748 -0.00215748 -0.00431496 -0.00215748 -0.00215354 -0.00215748 -0.530591 0 0 -0.526272 0.530591 0zm-0.94902 0.230783l0.00215748 -0.0150984 0.00215354 -0.0107835 0.00215748 -0.00862992 0.00215748 -0.0064685 0.00215748 -0.00862992 0.00215748 -0.00431102 0.00215748 -0.00647244 0.00215354 -0.0064685 0.00215748 -0.00431496 0.00215748 -0.00431496 0.00215748 -0.0064685 0.00215748 -0.00431496 0.00215748 -0.00215748 0.00215748 -0.00431102 0.00215354 -0.00431496 0.00215748 -0.00431496 0.00215748 -0.00431496 0.00215748 -0.00215354 0.00215748 -0.00431496 0.00215748 -0.00215748 0.00215354 -0.00431496 0.00215748 -0.00215354 0.00215748 -0.00215748 0.00215748 -0.00431496 0.00215748 -0.00215748 0.00215748 -0.00215748 0.00215748 -0.00431102 0.00215354 -0.00215748 0.00215748 -0.00215748 0.00215748 -0.00215748 0.00215748 -0.00215748 0.00215748 -0.00215354 0.00215748 -0.00215748 0.00215354 -0.00215748 0.00215748 -0.00215748 0.00215748 -0.00215748 0.00215748 -0.00215748 0.00215748 -0.00215748 0.00215748 -0.00215354 0.00215354 -0.00215748 0.00215748 -0.00215748 0.00215748 -0.00215748 0.00431496 -0.00215748 0.00215748 -0.00215748 0.00215748 -0.00215354 0.00215354 -0.00215748 0.00431496 -0.00215748 0.00215748 -0.00215748 0.00431496 -0.00215748 0.00215354 -0.00215748 0.00431496 -0.00215354 0.00215748 -0.00215748 0.00431496 -0.00215748 0.00431102 -0.00215748 0.00215748 -0.00215748 0.00431496 -0.00215748 0.00431102 -0.00215748 0.00431496 -0.00215354 0.00431496 -0.00215748 0.00431496 -0.00215748 0.0064685 -0.00215748 0.00431496 -0.00215748 0.0064685 -0.00215748 0.00431496 -0.00215354 0.00647244 -0.00215748 0.00862598 -0.00215748 0.00862598 -0.00215748 0.00862992 -0.00215748 0.0129409 -0.00215748 0.017252 -0.00215748 0.0754921 -0.00215354 0 0.526374 -0.0754921 -0.00225984 -0.017252 -0.00215354 -0.0129409 -0.00215748 -0.00862992 -0.00215748 -0.00862598 -0.00215748 -0.00647244 -0.00215748 -0.00862598 -0.00215748 -0.00431496 -0.00215354 -0.0064685 -0.00215748 -0.00647244 -0.00215748 -0.00431102 -0.00215748 -0.00431496 -0.00215748 -0.00431496 -0.00215748 -0.00431496 -0.00215748 -0.00431102 -0.00215354 -0.00431496 -0.00215748 -0.00215748 -0.00215748 -0.00431102 -0.00215748 -0.00431496 -0.00215748 -0.00215748 -0.00215748 -0.00431496 -0.00215354 -0.00215354 -0.00215748 -0.00431496 -0.00215748 -0.00215748 -0.00215748 -0.00431496 -0.00215748 -0.00215354 -0.00215748 -0.00215748 -0.00215748 -0.00215748 -0.00215354 -0.00431496 -0.00215748 -0.00215748 -0.00215748 -0.00215748 -0.00215748 -0.00215354 -0.00215748 -0.00215748 -0.00215748 -0.00215748 -0.00215354 -0.00215748 -0.00215748 -0.00215748 -0.00215748 -0.00215748 -0.00215748 -0.00215354 -0.00215748 -0.00215748 -0.00215748 -0.00215748 -0.00215354 -0.00215748 -0.00215748 -0.00215748 -0.00215748 -0.00215748 -0.00215748 -0.00215354 -0.00215748 -0.00215748 -0.00431496 -0.00215748 -0.00215354 -0.00215748 -0.00215748 -0.00215748 -0.00431496 -0.00215748 -0.00215748 -0.00215748 -0.00215748 -0.00215354 -0.00431102 -0.00215748 -0.00215748 -0.00215748 -0.00431496 -0.00215748 -0.00215748 -0.00215748 -0.00431102 -0.00215748 -0.00431496 -0.00215354 -0.00431496 -0.00215748 -0.00431102 -0.00215748 -0.00215748 -0.00215748 -0.00431496 -0.00215748 -0.0064685 -0.00215748 -0.00431496 -0.00215748 -0.00431496 -0.00215354 -0.0064685 -0.00215748 -0.00647244 -0.00215748 -0.00431496 -0.00215748 -0.00862598 -0.00215748 -0.0064685 -0.00215748 -0.00862992 -0.00215354 -0.0107835 -0.00215748 -0.0150984 0 -0.0647047zm1.68019 0.0776457l-0.00215748 0.0107835 -0.00215748 0.00862992 -0.00215354 0.00862598 -0.00215748 0.00647244 -0.00215748 0.0064685 -0.00215748 0.00647244 -0.00215748 0.00431102 -0.00215748 0.00647244 -0.00215748 0.00431496 -0.00215354 0.00431102 -0.00215748 0.00431496 -0.00215748 0.00431496 -0.00215748 0.00431102 -0.00215748 0.00215748 -0.00215748 0.00431496 -0.00215354 0.00431496 -0.00215748 0.00215354 -0.00215748 0.00431496 -0.00215748 0.00431496 -0.00215748 0.00215748 -0.00215748 0.00215354 -0.00215354 0.00431496 -0.00215748 0.00215748 -0.00215748 0.00215748 -0.00215748 0.00431102 -0.00215748 0.00215748 -0.00215748 0.00215748 -0.00215354 0.00215748 -0.00215748 0.00215748 -0.00215748 0.00215748 -0.00215748 0.00431102 -0.00215748 0.00215748 -0.00215748 0.00215748 -0.00215748 0.00215748 -0.00215354 0.00215748 -0.00215748 0.00215748 -0.00431496 0.00215354 -0.00215748 0.00215748 -0.00215748 0.00215748 -0.00215354 0.00215748 -0.00215748 0.00215748 -0.00215748 0.00215748 -0.00431496 0.00215354 0 -0.409803 0.00431496 0.00215748 0.00215748 0.00215748 0.00215748 0.00215748 0.00215354 0.00215748 0.00215748 0.00215748 0.00215748 0.00215354 0.00431496 0.00215748 0.00215748 0.00215748 0.00215354 0.00215748 0.00215748 0.00215748 0.00215748 0.00215748 0.00215748 0.00215748 0.00215748 0.00431102 0.00215748 0.00215748 0.00215748 0.00215748 0.00215354 0.00215748 0.00215748 0.00215748 0.00215748 0.00215354 0.00215748 0.00431496 0.00215748 0.00215748 0.00215748 0.00215748 0.00215354 0.00431102 0.00215748 0.00215748 0.00215748 0.00431496 0.00215748 0.00215748 0.00215748 0.00431102 0.00215748 0.00215748 0.00215354 0.00431496 0.00215748 0.00431496 0.00215748 0.00215748 0.00215748 0.00431102 0.00215748 0.00431496 0.00215748 0.00431496 0.00215354 0.00431102 0.00215748 0.00647244 0.00215748 0.00431496 0.00215748 0.00431102 0.00215748 0.00647244 0.00215748 0.0064685 0.00215748 0.00647244 0.00215354 0.00862598 0.00215748 0.00862992 0.00215748 0.0107835 0.00215748 0.0150984 0 0.0603898 -0.00215748 0.0150984z"/>
   </g>
  </g>
 </g>
</svg>
