<?xml version="1.0" encoding="UTF-8"?>
<!DOCTYPE svg PUBLIC "-//W3C//DTD SVG 1.1//EN" "http://www.w3.org/Graphics/SVG/1.1/DTD/svg11.dtd">
<!-- Creator: CorelDRAW -->
<svg xmlns="http://www.w3.org/2000/svg" xml:space="preserve" width="5.3in" height="2in" style="shape-rendering:geometricPrecision; text-rendering:geometricPrecision; image-rendering:optimizeQuality; fill-rule:evenodd; clip-rule:evenodd"
viewBox="0 0 5.3 2"
 xmlns:xlink="http://www.w3.org/1999/xlink">
 <defs>
  <style type="text/css">
   <![CDATA[
    .fil2 {fill:#0093DD}
    .fil3 {fill:white}
    .fil1 {fill:#0093DD;fill-rule:nonzero}
    .fil0 {fill:#C2C1C1;fill-rule:nonzero}
   ]]>
  </style>
 </defs>
 <g id="Layer_x0020_1">
  <metadata id="CorelCorpID_0Corel-Layer"/>
  <g>
   <path class="fil0" d="M4.91694 0.167807l0 0 -4.53388 0 0 -0.0618661 4.53388 0 0 0.0618661zm0.263992 0.202126l-0.0618661 0 0 0 -0.000185039 -0.010374 -0.000783465 -0.0102205 -0.00136614 -0.0101811 -0.00169685 -0.00987402 -0.00225197 -0.00967717 -0.00279134 -0.00958661 -0.00319291 -0.00936614 -0.00358661 -0.00912205 -0.00407874 -0.00898425 -0.00443701 -0.00872047 -0.00490551 -0.0084252 -0.00535433 -0.00825197 -0.00554331 -0.00793307 -0.00609055 -0.00760236 -0.00637402 -0.00738189 -0.00675984 -0.00701969 -0.00701969 -0.00675984 -0.00738189 -0.00637795 -0.00760236 -0.00608661 -0.00793307 -0.00566929 -0.00824803 -0.00523228 -0.00842913 -0.00490551 -0.00872047 -0.00444094 -0.00898425 -0.0040748 -0.00912205 -0.00358661 -0.00936614 -0.00319685 -0.00958661 -0.00279134 -0.0096811 -0.00225197 -0.00987402 -0.00169685 -0.0101811 -0.00136614 -0.0102244 -0.000783465 -0.010374 -0.000185039 0 -0.0618661 0.0135157 0.00042126 0.0133661 0.00102756 0.0130787 0.00161024 0.0130157 0.00242126 0.0128228 0.00297638 0.0124921 0.00351575 0.0122638 0.00416535 0.0120197 0.00479134 0.0116457 0.0052874 0.011374 0.00588976 0.0110906 0.00635433 0.0106654 0.0069252 0.0103504 0.0073622 0.0100197 0.00777953 0.00955512 0.00830709 0.00919291 0.00869685 0.00869685 0.00919291 0.00830315 0.00955512 0.00778346 0.0100197 0.00748031 0.0103504 0.00680315 0.0106693 0.00635433 0.0110866 0.00588583 0.011374 0.00529134 0.0116457 0.00479134 0.0120197 0.00416142 0.0122638 0.00351575 0.0124921 0.00297638 0.0128189 0.00242126 0.0130157 0.00161024 0.0130787 0.00102756 0.0133622 0.00042126 0.0135157 0 0zm-0.0618661 1.26013l0 0 0 -1.26013 0.0618661 0 0 1.26013 -0.0618661 0zm-0.202126 0.263992l0 -0.0618661 0 0 0.010374 -0.000185039 0.0102205 -0.000783465 0.0101811 -0.00136614 0.00987402 -0.00169685 0.00967717 -0.00225197 0.00958661 -0.00279134 0.00936614 -0.00319685 0.00912205 -0.00358661 0.00898425 -0.0040748 0.00872047 -0.00444094 0.0084252 -0.00490551 0.00825197 -0.00523228 0.00793307 -0.00566929 0.00760236 -0.00608661 0.00738189 -0.00637795 0.00701969 -0.00675984 0.00675984 -0.00701969 0.00637795 -0.00738189 0.00608661 -0.00760236 0.00566929 -0.00793307 0.00523228 -0.00825197 0.00490551 -0.0084252 0.00444094 -0.00872047 0.0040748 -0.00898425 0.00358661 -0.00912205 0.00319685 -0.00936614 0.00279134 -0.00958661 0.00225197 -0.00967717 0.00169685 -0.00987402 0.00136614 -0.0101811 0.000783465 -0.0102205 0.000185039 -0.010374 0.0618661 0 -0.00042126 0.0135157 -0.00102756 0.0133622 -0.00161024 0.0130787 -0.00242126 0.0130157 -0.00297638 0.0128189 -0.00351575 0.0124921 -0.00416535 0.0122638 -0.00479134 0.0120197 -0.0052874 0.0116457 -0.00588976 0.011374 -0.00635433 0.0110866 -0.0069252 0.0106693 -0.0073622 0.0103504 -0.00777953 0.0100197 -0.00830709 0.00955512 -0.00869685 0.00919291 -0.00919291 0.00869685 -0.00955512 0.00830709 -0.0100197 0.00777953 -0.0103504 0.0073622 -0.0106693 0.0069252 -0.0110866 0.00635433 -0.011374 0.00588976 -0.0116457 0.0052874 -0.0120197 0.00479134 -0.0122638 0.00416535 -0.0124921 0.00351575 -0.0128189 0.00297638 -0.0130157 0.00242126 -0.0130787 0.00161024 -0.0133622 0.00102756 -0.0135157 0.00042126 0 0zm-4.53388 -0.0618661l0 0 4.53388 0 0 0.0618661 -4.53388 0 0 -0.0618661zm-0.263992 -0.202126l0.0618661 0 0 0 0.000185039 0.010374 0.000783465 0.0102244 0.00136614 0.0101811 0.00169685 0.00987795 0.00225197 0.00967717 0.00279134 0.00958661 0.00319685 0.00936614 0.00358661 0.00912205 0.0040748 0.00898819 0.00444094 0.00871654 0.00490551 0.00842913 0.00523228 0.00824803 0.00566929 0.00793701 0.00608661 0.00760236 0.00637795 0.00737795 0.00675984 0.0071378 0.00701969 0.00664567 0.00738189 0.00637402 0.00760236 0.00608661 0.00793307 0.00566929 0.00825197 0.00523228 0.0084252 0.00490157 0.00872047 0.00444094 0.00898425 0.0040748 0.00912205 0.00358661 0.00936614 0.00319291 0.00958661 0.00279134 0.00967717 0.00225197 0.00987402 0.00169685 0.0101811 0.00136614 0.0102205 0.000783465 0.010374 0.000185039 0 0.0618661 -0.0135157 -0.00042126 -0.0133622 -0.00102756 -0.0130787 -0.00161024 -0.0130157 -0.00242126 -0.0128189 -0.00297638 -0.0124921 -0.00351575 -0.0122638 -0.00416142 -0.0120197 -0.00479134 -0.0116457 -0.0052874 -0.011374 -0.00588976 -0.0110866 -0.00635039 -0.0106693 -0.0069252 -0.0103504 -0.0073622 -0.0100197 -0.00777953 -0.00955512 -0.00830315 -0.00919291 -0.0088189 -0.00869685 -0.0090748 -0.00830709 -0.00955118 -0.00777953 -0.0100197 -0.0073622 -0.0103543 -0.0069252 -0.0106654 -0.00635433 -0.0110906 -0.00588976 -0.0113701 -0.0052874 -0.0116496 -0.00479134 -0.0120197 -0.00416535 -0.0122638 -0.00351575 -0.0124921 -0.00297638 -0.0128189 -0.00242126 -0.0130197 -0.00161024 -0.0130787 -0.00102756 -0.0133661 -0.00042126 -0.0135157 0 0zm0.0618661 -1.26013l0 0 0 1.26013 -0.0618661 0 0 -1.26013 0.0618661 0zm0.202126 -0.263992l0 0.0618661 0 0 -0.010374 0.000185039 -0.0102244 0.000783465 -0.0101811 0.00136614 -0.00987402 0.00169685 -0.0096811 0.00225197 -0.00958661 0.00279134 -0.00936614 0.00319291 -0.00912205 0.00358661 -0.00898425 0.00407874 -0.00872047 0.00443701 -0.00842913 0.00490551 -0.00824803 0.00523228 -0.00793307 0.00566535 -0.00760236 0.00609055 -0.00738189 0.00637402 -0.00701969 0.00675984 -0.00675984 0.00701969 -0.00637402 0.00738189 -0.00609055 0.00760236 -0.00566535 0.00793307 -0.00523228 0.00824803 -0.00490551 0.00842913 -0.00443701 0.00872047 -0.00407874 0.00898425 -0.00358661 0.00912205 -0.00319291 0.00936614 -0.00279134 0.00958661 -0.00225197 0.0096811 -0.00169685 0.00987402 -0.00136614 0.0101811 -0.000783465 0.0102244 -0.000185039 0.010374 -0.0618661 0 0.00042126 -0.0135157 0.00102756 -0.0133661 0.00161024 -0.0130787 0.00242126 -0.0130157 0.00297638 -0.0128228 0.00351575 -0.0124921 0.00416142 -0.0122638 0.00479134 -0.0120197 0.00529134 -0.0116457 0.00588583 -0.011374 0.00635433 -0.0110906 0.0069252 -0.0106654 0.00735827 -0.0103504 0.00778346 -0.0100197 0.00830315 -0.00955512 0.00869685 -0.00919291 0.00919291 -0.00869685 0.00955512 -0.00830315 0.0100197 -0.00778346 0.0103504 -0.00735827 0.0106654 -0.0069252 0.0110906 -0.00635433 0.011374 -0.00588583 0.0116457 -0.00529134 0.0120197 -0.00479134 0.0122638 -0.00416142 0.0124921 -0.00351575 0.0128228 -0.00297638 0.0130157 -0.00242126 0.0130787 -0.00161024 0.0133661 -0.00102756 0.0135157 -0.00042126 0 0z"/>
  </g>
  <path class="fil1" d="M2.22746 1.03208l0 0.226299 -0.0800512 0 0 -0.573961 0.188358 0c0.053685,0 0.0956614,0.0160118 0.126201,0.0478976 0.0305433,0.0318898 0.0457441,0.0738661 0.0457441,0.125933 0,0.0523386 -0.0152008,0.094315 -0.0457441,0.126201 -0.0305394,0.031752 -0.0725157,0.0476299 -0.126201,0.0476299l-0.108307 0zm0 -0.0614882l0.108307 0c0.0302717,0 0.0531457,-0.0106299 0.0686181,-0.031752 0.0154724,-0.021122 0.0232756,-0.0477638 0.0232756,-0.0797835 0,-0.0325591 -0.00766929,-0.0596024 -0.0230079,-0.0809961 -0.0154724,-0.0213898 -0.0383425,-0.0321535 -0.0688858,-0.0321535l-0.108307 0 0 0.224685zm0.340528 0.0477638c0,-0.0565079 0.0147992,-0.103059 0.0442638,-0.139657 0.0295984,-0.0364606 0.0700984,-0.0547559 0.121626,-0.0547559 0.0512598,0 0.0917598,0.0181614 0.121358,0.054622 0.0297323,0.0363268 0.0445315,0.0830157 0.0445315,0.139791l0 0.0543543c0,0.0570472 -0.0146654,0.103598 -0.0442638,0.139791 -0.0295984,0.036189 -0.0699606,0.0542205 -0.12122,0.0542205 -0.0517992,0 -0.0924331,-0.0180315 -0.122031,-0.0542205 -0.0294646,-0.0361929 -0.0442638,-0.0827441 -0.0442638,-0.139791l0 -0.0543543zm0.0799173 0.0543543c0,0.0388819 0.00712992,0.0709055 0.0213937,0.0959291 0.014126,0.0248898 0.0357874,0.0374016 0.0649843,0.0374016 0.0283858,0 0.0497795,-0.0125118 0.0640394,-0.0374016 0.0143976,-0.0250236 0.0215276,-0.0570472 0.0215276,-0.0959291l0 -0.0543543c0,-0.0384803 -0.00712992,-0.0700984 -0.0215276,-0.0952559 -0.0142598,-0.0251614 -0.0357874,-0.0376732 -0.0644449,-0.0376732 -0.0289252,0 -0.0504528,0.0125118 -0.0645787,0.0374016 -0.0142638,0.0250276 -0.0213937,0.0569134 -0.0213937,0.0955276l0 0.0543543zm0.526602 0.0788425c0,-0.0165472 -0.00538189,-0.0305394 -0.0162795,-0.0419764 -0.0108976,-0.011437 -0.0314843,-0.0239488 -0.0617559,-0.0376732 -0.0438622,-0.0170866 -0.0764213,-0.035248 -0.0975433,-0.054626 -0.021122,-0.0192362 -0.031752,-0.0442638 -0.031752,-0.0750748 0,-0.0328268 0.0130512,-0.060811 0.0388819,-0.0838189 0.0258307,-0.0230079 0.0598701,-0.0344409 0.10185,-0.0344409 0.0438583,0 0.0788386,0.012378 0.104941,0.0372677 0.0259685,0.0248898 0.0384803,0.0558346 0.0374055,0.0928346l-0.000807087 0.00242126 -0.0768268 0c0,-0.020315 -0.00578346,-0.0376732 -0.0172205,-0.0522047 -0.011437,-0.0146614 -0.0271772,-0.0219291 -0.0474921,-0.0219291 -0.0199134,0 -0.0355197,0.00564961 -0.046689,0.0169528 -0.0111654,0.0113031 -0.0166811,0.024622 -0.0166811,0.0398228 0,0.0162835 0.00470866,0.0291969 0.0143937,0.0386142 0.00955512,0.00942126 0.0302717,0.0217992 0.0620236,0.037 0.0446693,0.0160118 0.0779016,0.034311 0.099563,0.054626 0.0216614,0.0204488 0.0324252,0.0465512 0.0324252,0.0783031 0,0.035248 -0.0133189,0.0639094 -0.0400945,0.0859724 -0.0269094,0.0220669 -0.0620236,0.0330984 -0.105748,0.0330984 -0.0469567,0 -0.0840906,-0.0133189 -0.111134,-0.0399606 -0.0270433,-0.0267717 -0.0399606,-0.0579882 -0.0386142,-0.0937756l0.000807087 -0.0022874 0.0745354 0c0.00107874,0.0275827 0.00861417,0.0474921 0.022874,0.0597362 0.014126,0.0122441 0.031752,0.0182992 0.0527402,0.0182992 0.0208543,0 0.037,-0.00538189 0.0487047,-0.0160118 0.0117047,-0.0106299 0.0174921,-0.0243504 0.0174921,-0.0411693zm0.254689 -0.425693l0 0.10602 0.0665984 0 0 0.0571811 -0.0665984 0 0 0.253882c0,0.022063 0.00322835,0.0378071 0.00982283,0.0470906 0.00659055,0.00928346 0.0150669,0.0139921 0.025563,0.0139921 0.00632283,0 0.0122441,-0.000405512 0.017626,-0.0012126 0.00537795,-0.000807087 0.0117047,-0.00188189 0.0191024,-0.00349606l0.00820866 0.0551614c-0.00888189,0.00363386 -0.0189724,0.00659055 -0.0301378,0.00887795 -0.0111693,0.0022874 -0.0226024,0.00336614 -0.0344449,0.00336614 -0.0302717,0 -0.0536811,-0.00995669 -0.0703661,-0.0297362 -0.0166811,-0.0199094 -0.0250236,-0.0512598 -0.0250236,-0.0940433l0 -0.253882 -0.0555669 0 0 -0.0571811 0.0555669 0 0 -0.10602 0.0796496 0zm0.532114 -0.0414409l0.0796496 0 0 0.409685c0,0.0527402 -0.0143937,0.0947165 -0.0433228,0.125929 -0.0289252,0.0310827 -0.0659252,0.046689 -0.11113,0.046689 -0.0487047,0 -0.087185,-0.014126 -0.115709,-0.0423819 -0.0285236,-0.028252 -0.0422441,-0.0696929 -0.0411693,-0.124453l0.00107874 -0.0022874 0.0769567 0c0,0.0363268 0.00699606,0.0633701 0.0209882,0.0813976 0.014126,0.0180315 0.0333661,0.0270433 0.0578543,0.0270433 0.0215276,0 0.0394213,-0.0100906 0.0535472,-0.0304055 0.0142598,-0.0201811 0.0212559,-0.0473583 0.0212559,-0.0815315l0 -0.409685zm0.163205 0.333937c0,-0.0565079 0.0147992,-0.103059 0.0442638,-0.139657 0.0295984,-0.0364606 0.0700984,-0.0547559 0.121626,-0.0547559 0.0512598,0 0.0917598,0.0181614 0.121358,0.054622 0.0297323,0.0363268 0.0445315,0.0830157 0.0445315,0.139791l0 0.0543543c0,0.0570472 -0.0146654,0.103598 -0.0442638,0.139791 -0.0295984,0.036189 -0.0699606,0.0542205 -0.12122,0.0542205 -0.0517992,0 -0.0924331,-0.0180315 -0.122031,-0.0542205 -0.0294646,-0.0361929 -0.0442638,-0.0827441 -0.0442638,-0.139791l0 -0.0543543zm0.0799173 0.0543543c0,0.0388819 0.00712992,0.0709055 0.0213937,0.0959291 0.014126,0.0248898 0.0357874,0.0374016 0.0649843,0.0374016 0.0283858,0 0.0497795,-0.0125118 0.0640394,-0.0374016 0.0143976,-0.0250236 0.0215276,-0.0570472 0.0215276,-0.0959291l0 -0.0543543c0,-0.0384803 -0.00712992,-0.0700984 -0.0215276,-0.0952559 -0.0142598,-0.0251614 -0.0357874,-0.0376732 -0.0644449,-0.0376732 -0.0289252,0 -0.0504528,0.0125118 -0.0645787,0.0374016 -0.0142638,0.0250276 -0.0213937,0.0569134 -0.0213937,0.0955276l0 0.0543543zm0.643787 0.00793701c0,0.0565079 -0.0122441,0.101583 -0.0367283,0.13535 -0.0244882,0.0337717 -0.0587953,0.0507244 -0.103331,0.0507244 -0.0223346,0 -0.0418425,-0.00498031 -0.0585236,-0.0147992 -0.016685,-0.00982283 -0.0306772,-0.0243543 -0.0419803,-0.0435945l-0.00591732 0.0500512 -0.0692913 0 0 -0.614858 0.0800551 0 0 0.233295c0.0110315,-0.0170866 0.0243504,-0.0302717 0.0400906,-0.0392874 0.015878,-0.00901181 0.0340394,-0.0135866 0.0548937,-0.0135866 0.044937,0 0.0795157,0.0180276 0.104004,0.0542205 0.0244843,0.0361929 0.0367283,0.0843583 0.0367283,0.144496l0 0.0579882zm-0.0796496 -0.0579882c0,-0.0410354 -0.00659055,-0.0739961 -0.0195079,-0.0990197 -0.0130512,-0.0248937 -0.0336339,-0.0374055 -0.0617559,-0.0374055 -0.0178937,0 -0.0329606,0.00538189 -0.0454764,0.0160118 -0.0125118,0.0106299 -0.0223307,0.0248898 -0.0293268,0.0427835l0 0.205043c0.00699606,0.0173543 0.0169488,0.030811 0.0294646,0.0403622 0.0126457,0.00955512 0.0279843,0.0143976 0.0461457,0.0143976 0.028122,0 0.0485709,-0.0111693 0.0613504,-0.0335 0.0126496,-0.0223346 0.0191063,-0.0526063 0.0191063,-0.090685l0 -0.0579882z"/>
  <polygon class="fil2" points="0.749181,1.40631 0.749181,1.07052 0.442402,0.81763 1.7856,0.544016 1.23422,1.40217 0.98963,1.24049 "/>
  <polygon class="fil3" points="0.771724,1.32098 0.780008,1.09112 1.51102,0.739071 0.879409,1.13668 "/>
 </g>
</svg>
