<?xml version="1.0" encoding="UTF-8"?>
<!DOCTYPE svg PUBLIC "-//W3C//DTD SVG 1.1//EN" "http://www.w3.org/Graphics/SVG/1.1/DTD/svg11.dtd">
<!-- Creator: CorelDRAW -->
<svg xmlns="http://www.w3.org/2000/svg" xml:space="preserve" width="5in" height="5in" style="shape-rendering:geometricPrecision; text-rendering:geometricPrecision; image-rendering:optimizeQuality; fill-rule:evenodd; clip-rule:evenodd"
viewBox="0 0 5 5"
 xmlns:xlink="http://www.w3.org/1999/xlink">
 <defs>
  <style type="text/css">
   <![CDATA[
    .str0 {stroke:#DEDEDD;stroke-width:0.22222}
    .fil1 {fill:#DEDEDD}
    .fil0 {fill:white}
   ]]>
  </style>
 </defs>
 <g id="Layer_x0020_1">
  <metadata id="CorelCorpID_0Corel-Layer"/>
  <path class="fil0 str0" d="M2.5 0.192551c1.27415,0 2.30745,1.0333 2.30745,2.30745 0,1.27415 -1.0333,2.30745 -2.30745,2.30745 -1.27415,0 -2.30745,-1.0333 -2.30745,-2.30745 0,-1.27415 1.0333,-2.30745 2.30745,-2.30745z"/>
  <g id="_107761768">
   <polygon id="_107761864" class="fil1" points="2.67956,0.959539 2.66696,0.962689 2.65436,0.965839 2.64806,0.968988 2.63861,0.972138 2.63231,0.975287 2.62601,0.978441 2.6197,0.981591 2.61656,0.98474 2.61341,0.98789 2.60711,0.991039 2.60396,0.994189 2.60081,0.997343 2.59765,1.00049 2.5945,1.00364 2.59135,1.00679 2.5882,1.00994 2.58506,1.01309 2.58191,1.01939 2.57875,1.02254 2.5756,1.02884 2.57245,1.03514 2.5693,1.04144 2.56615,1.04774 2.563,1.05719 2.55985,1.06665 2.5567,1.0824 2.55355,1.1013 2.5504,1.1391 2.54725,1.16115 2.5441,1.2147 2.54095,1.25251 2.5378,1.27771 2.53465,1.29976 2.5315,1.31867 2.52835,1.33442 2.5252,1.35017 2.52205,1.36277 2.5189,1.37852 2.51575,1.38797 2.5126,1.40057 2.50945,1.41317 2.5063,1.42262 2.50315,1.43207 2.5,1.44152 2.49685,1.45097 2.4937,1.46043 2.49055,1.46987 2.4874,1.47933 2.48425,1.48878 2.48109,1.49508 2.47794,1.50453 2.4748,1.51083 2.47165,1.52028 2.4685,1.52658 2.46535,1.53603 2.46219,1.54233 2.45904,1.54863 2.45589,1.55808 2.45274,1.56438 2.44959,1.57068 2.44644,1.57698 2.4433,1.58328 2.44014,1.58958 2.43699,1.59588 2.43384,1.60219 2.43069,1.60848 2.42754,1.61479 2.42439,1.62109 2.42124,1.62739 2.41809,1.63369 2.41494,1.63999 2.41179,1.64629 2.40864,1.64944 2.40549,1.65574 2.40234,1.66204 2.39919,1.66834 2.39604,1.67149 2.39289,1.67779 2.38974,1.68409 2.38659,1.68724 2.38344,1.69354 2.38029,1.69984 2.37714,1.70299 2.37399,1.70929 2.37084,1.71559 2.36769,1.71874 2.36454,1.72504 2.36139,1.72819 2.35824,1.7345 2.35509,1.7408 2.35194,1.74394 2.34879,1.75024 2.34563,1.75339 2.34248,1.7597 2.33933,1.76285 2.33619,1.766 2.33304,1.7723 2.32989,1.77545 2.32673,1.78175 2.32358,1.7849 2.32043,1.7912 2.31728,1.79435 2.31413,1.7975 2.31098,1.8038 2.30783,1.80695 2.30468,1.81325 2.30153,1.8164 2.29838,1.81955 2.29523,1.82585 2.29208,1.829 2.28893,1.83215 2.28578,1.83845 2.28263,1.8416 2.27948,1.84475 2.27633,1.85106 2.27318,1.8542 2.27003,1.85735 2.26688,1.8605 2.26373,1.8668 2.26058,1.86995 2.25743,1.87311 2.25428,1.87626 2.25113,1.88256 2.24798,1.8857 2.24483,1.88885 2.24168,1.89201 2.23853,1.89831 2.23538,1.90146 2.23223,1.90461 2.22908,1.90776 2.22593,1.91091 2.22278,1.91721 2.21963,1.92036 2.21648,1.92351 2.21333,1.92666 2.21018,1.92981 2.20703,1.93296 2.20387,1.93926 2.20072,1.94241 2.19757,1.94556 2.19443,1.94871 2.19128,1.95186 2.18813,1.95501 2.18497,1.95816 2.18182,1.96131 2.17867,1.96446 2.17552,1.97076 2.17237,1.97391 2.16922,1.97706 2.16607,1.98021 2.16292,1.98336 2.15977,1.98651 2.15662,1.98967 2.15347,1.99281 2.15032,1.99596 2.14717,1.99911 2.14402,2.00226 2.14087,2.00541 2.13772,2.00857 2.13457,2.01172 2.13142,2.01487 2.12827,2.01802 2.12512,2.02117 2.12197,2.02431 2.11882,2.02746 2.11567,2.03062 2.11252,2.03377 2.10937,2.03692 2.10622,2.04007 2.10307,2.04322 2.09992,2.04637 2.09677,2.04952 2.09362,2.05267 2.09047,2.05582 2.08732,2.05897 2.08417,2.06212 2.08102,2.06527 2.07787,2.06842 2.07472,2.07157 2.07157,2.07472 2.06842,2.07787 2.06526,2.08102 2.06211,2.08417 2.05896,2.08732 2.05581,2.09047 2.05267,2.09362 2.04952,2.09677 2.04321,2.09992 2.04006,2.10307 2.03691,2.10622 2.03376,2.10937 2.03061,2.11252 2.02746,2.11567 2.02431,2.11882 2.02116,2.12197 2.01801,2.12512 2.01171,2.12828 2.00856,2.13143 2.00541,2.13457 2.00226,2.13772 1.99911,2.14087 1.99596,2.14402 1.98966,2.14718 1.98651,2.15033 1.98336,2.15348 1.98021,2.15663 1.97706,2.15978 1.97076,2.16293 1.96761,2.16608 1.96446,2.16923 1.96131,2.17238 1.95501,2.17553 1.95186,2.17868 1.9487,2.18183 1.94556,2.18498 1.93926,2.18813 1.93926,3.85775 1.94241,3.87035 1.94556,3.8798 1.9487,3.88925 1.95186,3.89556 1.95501,3.90185 1.95816,3.90815 1.96131,3.91446 1.96446,3.91761 1.96761,3.92391 1.97076,3.92706 1.97391,3.9302 1.97706,3.93335 1.98021,3.93966 1.98336,3.94281 1.98651,3.94596 1.98966,3.94911 1.99281,3.95226 1.99596,3.95541 1.99911,3.95856 2.00541,3.96171 2.00856,3.96486 2.01171,3.96801 2.01486,3.97116 2.02116,3.97431 2.02431,3.97746 2.03061,3.98061 2.03376,3.98376 2.04006,3.98691 2.04321,3.99006 2.04952,3.99321 2.05581,3.99636 2.06211,3.99951 2.06842,4.00266 2.07472,4.00581 2.08102,4.00896 2.09047,4.01211 2.09677,4.01526 2.10622,4.01841 2.11252,4.02156 2.12197,4.02471 2.13142,4.02786 2.14402,4.03102 2.15662,4.03417 2.16922,4.03731 2.18497,4.04046 2.20387,4.04361 3.49862,4.04361 3.50807,4.04046 3.51437,4.03731 3.52067,4.03417 3.52382,4.03102 3.53012,4.02786 3.53328,4.02471 3.53643,4.02156 3.53957,4.01841 3.54272,4.01526 3.54587,4.01211 3.54902,4.00896 3.55218,4.00581 3.55533,4.00266 3.55848,3.99951 3.56163,3.99636 3.56478,3.99321 3.56793,3.99006 3.57107,3.98691 3.57423,3.98061 3.57738,3.97746 3.58053,3.97431 3.58368,3.96801 3.58683,3.96486 3.58998,3.95856 3.59313,3.95541 3.59628,3.94911 3.59943,3.94596 3.60258,3.93966 3.60573,3.93335 3.60888,3.9302 3.61203,3.92391 3.61518,3.91761 3.61833,3.9113 3.62148,3.905 3.62463,3.8987 3.62778,3.89241 3.63093,3.8861 3.63408,3.8798 3.63723,3.8735 3.64038,3.8672 3.64353,3.8609 3.64669,3.8546 3.64983,3.84515 3.65298,3.83885 3.65613,3.83255 3.65928,3.8231 3.66243,3.8168 3.66558,3.80735 3.66874,3.80105 3.67189,3.79159 3.67504,3.78215 3.67819,3.77584 3.68133,3.76639 3.68448,3.75694 3.68764,3.74749 3.69079,3.73804 3.69394,3.72544 3.69709,3.71599 3.70024,3.70654 3.70339,3.69394 3.70654,3.68449 3.70969,3.67189 3.71284,3.66244 3.71599,3.64983 3.71914,3.64039 3.72229,3.62778 3.72544,3.61833 3.72859,3.60573 3.73174,3.59628 3.73489,3.58368 3.73804,3.57423 3.74119,3.56163 3.74434,3.55218 3.74749,3.53958 3.75064,3.53013 3.75379,3.51753 3.75694,3.50807 3.76009,3.49548 3.76324,3.48287 3.76639,3.47342 3.76954,3.46082 3.77269,3.45137 3.77584,3.43877 3.77899,3.42617 3.78214,3.41672 3.78529,3.40412 3.78844,3.39152 3.79159,3.38207 3.79474,3.36946 3.79789,3.35687 3.80104,3.34426 3.80419,3.33481 3.80735,3.32221 3.8105,3.30961 3.81365,3.29701 3.8168,3.28441 3.81994,3.27496 3.82309,3.26236 3.82625,3.24976 3.8294,3.23715 3.83255,3.22456 3.8357,3.21195 3.83885,3.19935 3.842,3.18675 3.84515,3.17415 3.8483,3.16155 3.85145,3.14895 3.8546,3.13635 3.85775,3.1269 3.8609,3.1143 3.86405,3.10169 3.8672,3.08909 3.87035,3.07334 3.8735,3.06074 3.87665,3.04814 3.8798,3.03554 3.88295,3.02294 3.8861,3.00719 3.88925,2.99459 3.8924,2.98199 3.89555,2.96939 3.8987,2.95363 3.90185,2.94103 3.905,2.92528 3.90815,2.91268 3.9113,2.89693 3.91445,2.88433 3.9176,2.86858 3.92075,2.85598 3.9239,2.84023 3.92705,2.82448 3.9302,2.81187 3.93335,2.79612 3.9365,2.78037 3.93965,2.76462 3.9428,2.74887 3.94595,2.73312 3.94911,2.71737 3.95226,2.70161 3.95541,2.68272 3.95856,2.66696 3.9617,2.64806 3.96485,2.63231 3.96801,2.61341 3.97116,2.59451 3.97431,2.57246 3.97746,2.55356 3.98061,2.5315 3.98376,2.50945 3.98691,2.48425 3.99006,2.45905 3.99321,2.42441 3.99321,2.35823 3.99006,2.33619 3.98691,2.32359 3.98376,2.31099 3.98061,2.30154 3.97746,2.29524 3.97431,2.28894 3.97116,2.28263 3.96801,2.27633 3.96485,2.27003 3.9617,2.26688 3.95856,2.26058 3.95541,2.25743 3.95226,2.25428 3.94911,2.25113 3.94595,2.24798 3.9428,2.24483 3.93965,2.24168 3.9365,2.23853 3.93335,2.23538 3.9302,2.23223 3.92705,2.22908 3.92075,2.22593 3.9176,2.22278 3.9113,2.21963 3.90815,2.21648 3.90185,2.21333 3.89555,2.21018 3.8861,2.20703 3.8798,2.20388 3.87035,2.20073 3.85775,2.19758 3.84515,2.19443 3.82625,2.19128 2.96895,2.19122 2.97253,2.17868 2.97568,2.16608 2.97883,2.15348 2.98198,2.14087 2.98513,2.13143 2.98828,2.11567 2.99143,2.10307 2.99458,2.09047 2.99774,2.07787 3.00089,2.06527 3.00404,2.05267 3.00719,2.03692 3.01033,2.02431 3.01348,2.00857 3.01663,1.99281 3.01979,1.98021 3.02294,1.96446 3.02609,1.94871 3.02924,1.92981 3.03239,1.91406 3.03554,1.89516 3.03869,1.87941 3.04184,1.85735 3.04499,1.83845 3.04814,1.8164 3.05129,1.79435 3.05444,1.76915 3.05759,1.74394 3.06074,1.71244 3.06389,1.67779 3.06704,1.62424 3.06704,1.47618 3.06389,1.43207 3.06074,1.40057 3.05759,1.37852 3.05444,1.35647 3.05129,1.34072 3.04814,1.32496 3.04499,1.30921 3.04184,1.29661 3.03869,1.28401 3.03554,1.27141 3.03239,1.25881 3.02924,1.24936 3.02609,1.23991 3.02294,1.23046 3.01979,1.22101 3.01663,1.2147 3.01348,1.20526 3.01033,1.19896 3.00719,1.1895 3.00404,1.1832 3.00089,1.17691 2.99774,1.1706 2.99458,1.1643 2.99143,1.158 2.98828,1.1517 2.98513,1.1454 2.98198,1.1391 2.97883,1.1328 2.97568,1.1265 2.97253,1.12335 2.96938,1.11705 2.96623,1.1139 2.96308,1.1076 2.95993,1.10445 2.95678,1.09815 2.95363,1.095 2.95048,1.0887 2.94733,1.08555 2.94418,1.0824 2.94103,1.07924 2.93788,1.07294 2.93473,1.0698 2.93158,1.06665 2.92843,1.0635 2.92528,1.06035 2.92213,1.05719 2.91898,1.05404 2.91583,1.04774 2.91268,1.04459 2.90953,1.04144 2.90638,1.03829 2.90323,1.03514 2.89693,1.03199 2.89378,1.02884 2.89063,1.02569 2.88748,1.02254 2.88433,1.01939 2.88117,1.01624 2.87487,1.01309 2.87172,1.00994 2.86857,1.00679 2.86228,1.00364 2.85912,1.00049 2.85282,0.997343 2.84967,0.994189 2.84337,0.991039 2.84022,0.98789 2.83392,0.98474 2.82762,0.981591 2.82132,0.978441 2.81502,0.975287 2.80872,0.972138 2.79927,0.968988 2.79297,0.965839 2.78352,0.962689 2.77407,0.959539 2.76147,0.956386 2.69846,0.956386 "/>
   <polygon id="_107761792" class="fil1" points="1.07609,2.19443 1.06664,2.19758 1.06034,2.20073 1.05404,2.20388 1.05089,2.20703 1.04459,2.21018 1.04144,2.21333 1.03829,2.21648 1.03514,2.21963 1.03199,2.22278 1.02884,2.22593 1.02569,2.23223 1.02254,2.23538 1.01939,2.24168 1.01624,2.24798 1.01309,2.25428 1.00994,2.26373 1.00679,2.27948 1.00679,2.32045 1.00994,2.37084 1.01309,2.42124 1.01624,2.47165 1.01939,2.5252 1.02254,2.57561 1.02569,2.62601 1.02884,2.67641 1.03199,2.72997 1.03514,2.78037 1.03829,2.83078 1.04144,2.88118 1.04459,2.93158 1.04774,2.98514 1.05089,3.03554 1.05404,3.08594 1.05719,3.13635 1.06034,3.1899 1.06349,3.24031 1.06664,3.29071 1.06979,3.34111 1.07294,3.39152 1.07609,3.44507 1.07924,3.49548 1.08239,3.54588 1.08554,3.59628 1.08869,3.64983 1.09184,3.70024 1.09499,3.75064 1.09814,3.80105 1.10129,3.85145 1.10444,3.905 1.10759,3.95541 1.11074,3.97431 1.11389,3.98376 1.11704,3.99006 1.1202,3.99636 1.12335,4.00266 1.1265,4.00581 1.12965,4.00896 1.1328,4.01211 1.13594,4.01526 1.1391,4.01841 1.14225,4.02156 1.1454,4.02471 1.1517,4.02786 1.15485,4.03102 1.16115,4.03417 1.1706,4.03731 1.1769,4.04046 1.1895,4.04361 1.67149,4.04361 1.68094,4.04046 1.69039,4.03731 1.69354,4.03417 1.69984,4.03102 1.70299,4.02786 1.70929,4.02471 1.71244,4.01841 1.71559,4.01526 1.71874,4.01211 1.72189,4.00581 1.72504,3.99951 1.72819,3.99006 1.72819,2.28894 1.72504,2.27319 1.72189,2.26688 1.71874,2.25743 1.71559,2.25113 1.71244,2.24798 1.70929,2.24168 1.70614,2.23853 1.70299,2.23223 1.69984,2.22908 1.69669,2.22593 1.69354,2.22278 1.68724,2.21963 1.68409,2.21648 1.68094,2.21333 1.67464,2.21018 1.66833,2.20703 1.66204,2.20388 1.65574,2.20073 1.64628,2.19758 1.63368,2.19443 1.61478,2.19128 1.09499,2.19128 "/>
  </g>
 </g>
</svg>
