<?xml version="1.0" encoding="UTF-8"?>
<!DOCTYPE svg PUBLIC "-//W3C//DTD SVG 1.1//EN" "http://www.w3.org/Graphics/SVG/1.1/DTD/svg11.dtd">
<!-- Creator: CorelDRAW -->
<svg xmlns="http://www.w3.org/2000/svg" xml:space="preserve" width="8.5in" height="8.5in" style="shape-rendering:geometricPrecision; text-rendering:geometricPrecision; image-rendering:optimizeQuality; fill-rule:evenodd; clip-rule:evenodd"
viewBox="0 0 8.5 8.5"
 xmlns:xlink="http://www.w3.org/1999/xlink"
 version="1.0">
 <defs>
  <style type="text/css">
   <![CDATA[
    .str0 {stroke:#1F1A17;stroke-width:0.302744}
    .fil0 {fill:white}
    .fil1 {fill:#DEDEDD;fill-rule:nonzero}
   ]]>
  </style>
 </defs>
 <g id="Layer_x0020_1">
  <metadata id="CorelCorpID_0Corel-Layer"/>
  <g>
   <path class="fil0" d="M4.25 0.500004c2.07072,0 3.75,1.67928 3.75,3.75 0,2.07072 -1.67928,3.75 -3.75,3.75 -2.07072,0 -3.75,-1.67928 -3.75,-3.75 0,-2.07072 1.67928,-3.75 3.75,-3.75z"/>
   <path id="1" class="fil1" d="M8.11161 4.25l-0.22322 0 0 0 -0.00444488 -0.187713 -0.0140512 -0.184748 -0.0234134 -0.18198 -0.0316772 -0.178976 -0.0405748 -0.176181 -0.0492283 -0.172272 -0.0572205 -0.169 -0.0649803 -0.165488 -0.0729252 -0.160874 -0.0802126 -0.156894 -0.087685 -0.152677 -0.0949409 -0.147354 -0.101508 -0.142669 -0.10785 -0.137744 -0.114386 -0.131717 -0.120685 -0.126315 -0.126319 -0.120689 -0.131717 -0.114386 -0.137744 -0.107846 -0.142669 -0.101512 -0.147354 -0.094937 -0.152677 -0.087689 -0.156894 -0.0802087 -0.160874 -0.0729252 -0.165492 -0.0649803 -0.168996 -0.0572205 -0.172276 -0.0492283 -0.176177 -0.0405748 -0.17898 -0.0316772 -0.18198 -0.0234134 -0.184748 -0.0140512 -0.187713 -0.00444488 0 -0.22322 0.198177 0.0053189 0.196079 0.0149173 0.193319 0.0242874 0.190319 0.0342913 0.186642 0.043189 0.183606 0.0518504 0.179461 0.0607087 0.175083 0.0693346 0.171339 0.0772874 0.166484 0.085437 0.161402 0.0929252 0.156945 0.100165 0.151386 0.107614 0.145594 0.114823 0.140433 0.121362 0.134169 0.127665 0.127661 0.134165 0.121362 0.140433 0.114827 0.145594 0.10761 0.151386 0.100169 0.156945 0.0929213 0.161402 0.0854409 0.166484 0.0772874 0.171339 0.0693346 0.175079 0.0607087 0.179465 0.0518504 0.183602 0.043189 0.186646 0.0342913 0.190315 0.0242874 0.193319 0.0149173 0.196079 0.0053189 0.198177 0 0zm-3.86161 3.86161l0 -0.22322 0 0 0.187713 -0.00444488 0.184748 -0.0140512 0.18198 -0.0234134 0.17898 -0.0316772 0.176177 -0.0405748 0.172276 -0.0492283 0.168996 -0.0572205 0.165492 -0.0649803 0.160874 -0.0729252 0.156894 -0.0802126 0.152677 -0.087685 0.147354 -0.0949409 0.142669 -0.101508 0.137744 -0.10785 0.131717 -0.114386 0.126319 -0.120685 0.120685 -0.126319 0.114386 -0.131717 0.10785 -0.137744 0.101508 -0.142669 0.0949409 -0.147354 0.087685 -0.152677 0.0802126 -0.156894 0.0729252 -0.160874 0.0649803 -0.165492 0.0572205 -0.168996 0.0492283 -0.172276 0.0405748 -0.176177 0.0316772 -0.17898 0.0234134 -0.18198 0.0140512 -0.184748 0.00444488 -0.187713 0.22322 0 -0.0053189 0.198177 -0.0149173 0.196079 -0.0242874 0.193319 -0.0342913 0.190319 -0.043189 0.186642 -0.0518504 0.183606 -0.0607087 0.179461 -0.0693346 0.175083 -0.0772874 0.171339 -0.0854409 0.166484 -0.0929213 0.161402 -0.100169 0.156945 -0.10761 0.151386 -0.114827 0.145594 -0.121362 0.140433 -0.127661 0.134169 -0.134169 0.127661 -0.140433 0.121362 -0.145594 0.114827 -0.151386 0.10761 -0.156945 0.100169 -0.161402 0.0929213 -0.166484 0.0854409 -0.171339 0.0772874 -0.175083 0.0693346 -0.179461 0.0607087 -0.183606 0.0518504 -0.186642 0.043189 -0.190319 0.0342913 -0.193319 0.0242874 -0.196079 0.0149173 -0.198177 0.0053189 0 0zm-3.86161 -3.86161l0.22322 0 0 0 0.00444488 0.187713 0.0140512 0.184748 0.0234134 0.18198 0.0316772 0.17898 0.0405748 0.176177 0.0492283 0.172276 0.0572205 0.168996 0.0649803 0.165492 0.0729252 0.160874 0.0802126 0.156894 0.087685 0.152677 0.0949409 0.147354 0.101508 0.142669 0.10785 0.137744 0.114382 0.131717 0.120689 0.126319 0.126319 0.120685 0.131717 0.114386 0.13774 0.10785 0.142669 0.101508 0.147358 0.0949409 0.152673 0.087685 0.156898 0.0802126 0.160874 0.0729252 0.165488 0.0649803 0.169 0.0572205 0.172272 0.0492283 0.176181 0.0405748 0.178976 0.0316772 0.18198 0.0234134 0.184748 0.0140512 0.187713 0.00444488 0 0.22322 -0.198177 -0.0053189 -0.196079 -0.0149173 -0.193319 -0.0242874 -0.190315 -0.0342913 -0.186646 -0.043189 -0.183602 -0.0518504 -0.179465 -0.0607087 -0.175079 -0.0693346 -0.171339 -0.0772874 -0.166488 -0.0854409 -0.161398 -0.0929213 -0.156949 -0.100169 -0.151386 -0.10761 -0.145591 -0.114827 -0.140433 -0.121362 -0.134169 -0.127661 -0.127665 -0.134169 -0.121358 -0.140433 -0.114827 -0.145594 -0.10761 -0.151386 -0.100169 -0.156945 -0.0929213 -0.161402 -0.0854409 -0.166484 -0.0772874 -0.171339 -0.0693346 -0.175083 -0.0607087 -0.179461 -0.0518504 -0.183606 -0.043189 -0.186642 -0.0342913 -0.190319 -0.0242874 -0.193319 -0.0149173 -0.196079 -0.0053189 -0.198177 0 0zm3.86161 -3.86161l0 0.22322 0 0 -0.187713 0.00444488 -0.184748 0.0140512 -0.18198 0.0234134 -0.178976 0.0316772 -0.176181 0.0405748 -0.172272 0.0492283 -0.169 0.0572205 -0.165488 0.0649803 -0.160874 0.0729252 -0.156898 0.0802087 -0.152673 0.087689 -0.147358 0.094937 -0.142669 0.101512 -0.13774 0.107846 -0.131717 0.114386 -0.126319 0.120689 -0.120689 0.126315 -0.114382 0.131717 -0.10785 0.137744 -0.101508 0.142669 -0.0949409 0.147354 -0.087685 0.152677 -0.0802126 0.156894 -0.0729252 0.160874 -0.0649803 0.165488 -0.0572205 0.169 -0.0492283 0.172272 -0.0405748 0.176181 -0.0316772 0.178976 -0.0234134 0.18198 -0.0140512 0.184748 -0.00444488 0.187713 -0.22322 0 0.0053189 -0.198177 0.0149173 -0.196079 0.0242874 -0.193319 0.0342913 -0.190315 0.043189 -0.186646 0.0518504 -0.183602 0.0607087 -0.179465 0.0693346 -0.175079 0.0772874 -0.171339 0.0854409 -0.166484 0.0929213 -0.161402 0.100169 -0.156945 0.10761 -0.151386 0.114827 -0.145594 0.121358 -0.140433 0.127665 -0.134165 0.134169 -0.127665 0.140433 -0.121362 0.145591 -0.114823 0.151386 -0.107614 0.156949 -0.100165 0.161398 -0.0929252 0.166488 -0.085437 0.171339 -0.0772874 0.175079 -0.0693346 0.179465 -0.0607087 0.183602 -0.0518504 0.186646 -0.043189 0.190315 -0.0342913 0.193319 -0.0242874 0.196079 -0.0149173 0.198177 -0.0053189 0 0z"/>
  </g>
  <g>
   <polygon class="fil0 str0" points="3.2933,1.97304 3.27626,1.97378 3.26327,1.97536 3.25434,1.97776 3.2454,1.98016 3.23647,1.98256 3.23159,1.98579 3.22265,1.98819 3.21372,1.99059 3.20884,1.99381 3.19991,1.99621 3.19097,1.99861 3.18609,2.00184 3.17715,2.00424 3.17228,2.00747 3.16334,2.00987 3.15846,2.0131 3.14953,2.0155 3.14465,2.01872 3.13571,2.02113 3.13083,2.02435 3.12595,2.02758 3.11702,2.02998 3.11213,2.03321 3.1032,2.03561 3.09832,2.03883 3.09344,2.04206 3.08451,2.04446 3.07963,2.04769 3.07474,2.05092 3.06987,2.05415 3.06093,2.05655 3.05605,2.05977 3.05117,2.063 3.04629,2.06623 3.04141,2.06945 3.03247,2.07185 3.02759,2.07508 3.02271,2.07831 3.01783,2.08154 3.01295,2.08476 3.00807,2.08799 2.99914,2.09039 2.99426,2.09362 2.98938,2.09685 2.9845,2.10007 2.97961,2.1033 2.97474,2.10653 2.96985,2.10976 2.96497,2.11298 2.96009,2.11621 2.95521,2.11944 2.95033,2.12267 2.94545,2.12589 2.94057,2.12912 2.93569,2.13235 2.93081,2.13557 2.92593,2.1388 2.92105,2.14203 2.91617,2.14525 2.91129,2.14848 2.90641,2.15171 2.90153,2.15494 2.89582,2.16222 2.89094,2.16544 2.88606,2.16867 2.88118,2.1719 2.8763,2.17513 2.87142,2.17835 2.86571,2.18563 2.86083,2.18886 2.85595,2.19209 2.85107,2.19531 2.84536,2.20259 2.84048,2.20582 2.8356,2.20905 2.82989,2.21633 2.82502,2.21956 2.82013,2.22279 2.81443,2.23007 2.80955,2.2333 2.80384,2.24057 2.79896,2.2438 2.79408,2.24703 2.78837,2.25431 2.78267,2.26159 2.77778,2.26482 2.77207,2.2721 2.7672,2.27533 2.76149,2.28261 2.75578,2.28989 2.7509,2.29311 2.74519,2.3004 2.73949,2.30768 2.73378,2.31496 2.7289,2.31819 2.72319,2.32547 2.71748,2.33275 2.71178,2.34003 2.70607,2.34731 2.70036,2.35459 2.69466,2.36187 2.68812,2.37321 2.68242,2.38049 2.67671,2.38777 2.671,2.39505 2.66447,2.40639 2.65876,2.41367 2.65223,2.425 2.64569,2.43633 2.63999,2.44362 2.63345,2.45495 2.62692,2.46629 2.61956,2.48167 2.61302,2.49301 2.60649,2.50435 2.59913,2.51973 2.59177,2.53512 2.58441,2.55051 2.57622,2.56995 2.56721,2.59345 2.5582,2.61694 2.54918,2.64044 2.53686,2.68015 2.51876,2.74824 2.50553,2.81311 2.49636,2.87879 2.49215,2.92016 2.49041,2.94936 2.49033,2.97046 2.49025,2.99155 2.49017,3.01265 2.49175,3.02563 2.4925,3.04268 2.49407,3.05567 2.49564,3.06865 2.49722,3.08164 2.49879,3.09463 2.50036,3.10762 2.50194,3.12061 2.50351,3.13359 2.50509,3.14658 2.50749,3.15552 2.50906,3.1685 2.51063,3.18149 2.51221,3.19448 2.51378,3.20747 2.51618,3.21641 2.51776,3.22939 2.52016,3.23833 2.52173,3.25131 2.5233,3.2643 2.5257,3.27324 2.52728,3.28622 2.52968,3.29516 2.53125,3.30815 2.53365,3.31708 2.53523,3.33007 2.53763,3.339 2.5392,3.35199 2.5416,3.36093 2.54318,3.37391 2.54558,3.38285 2.54798,3.39178 2.55038,3.40072 2.55195,3.4137 2.55435,3.42264 2.55675,3.43157 2.55833,3.44456 2.56073,3.4535 2.56313,3.46243 2.56553,3.47137 2.56793,3.4803 2.5695,3.49329 2.57191,3.50222 2.5743,3.51116 2.5767,3.52009 2.57911,3.52902 2.58151,3.53796 2.58391,3.54689 2.58631,3.55583 2.58871,3.56476 2.59111,3.5737 2.59351,3.58263 2.59591,3.59156 2.59831,3.6005 2.59989,3.61349 2.60228,3.62242 2.60551,3.6273 2.60791,3.63624 2.61031,3.64517 2.61271,3.65411 2.61511,3.66304 2.61752,3.67197 2.61992,3.68091 2.62231,3.68984 2.62472,3.69878 2.62712,3.70771 2.62952,3.71665 2.63274,3.72152 2.63515,3.73046 2.63755,3.73939 2.63994,3.74833 2.64235,3.75726 2.64557,3.76214 2.64798,3.77108 2.65037,3.78001 2.65278,3.78894 2.65518,3.79788 2.65841,3.80276 2.6608,3.81169 2.6632,3.82063 2.66561,3.82956 2.66883,3.83444 2.67123,3.84338 2.67363,3.85231 2.67686,3.85719 2.67926,3.86613 2.68166,3.87506 2.68489,3.87994 2.68729,3.88888 2.68969,3.89781 2.69292,3.90269 2.69532,3.91163 2.69772,3.92056 2.70094,3.92544 2.70335,3.93437 2.70575,3.94331 2.70897,3.94819 2.71137,3.95712 2.7146,3.962 2.717,3.97094 2.7194,3.97987 2.72263,3.98475 2.72503,3.99369 2.72826,3.99857 2.73066,4.0075 2.73389,4.01238 2.73629,4.02131 2.73869,4.03025 2.74191,4.03513 2.74431,4.04407 2.74754,4.04894 2.74994,4.05788 2.75317,4.06276 2.75557,4.0717 2.7588,4.07657 2.7612,4.08551 2.76443,4.09039 2.76683,4.09933 2.77005,4.1042 2.77245,4.11314 2.77568,4.11802 2.77891,4.1229 2.78131,4.13183 2.78454,4.13672 2.78694,4.14565 2.79016,4.15053 2.79256,4.15946 2.79579,4.16435 2.79819,4.17328 2.80142,4.17816 2.80465,4.18304 2.80705,4.19198 2.81027,4.19685 2.81267,4.20579 2.8159,4.21067 2.81913,4.21555 2.82153,4.22448 2.82476,4.22937 2.82716,4.2383 2.83038,4.24318 2.83361,4.24806 2.83601,4.257 2.83924,4.26187 2.84246,4.26676 2.84487,4.27569 2.84809,4.28057 2.85132,4.28545 2.85372,4.29439 2.85695,4.29926 2.86018,4.30415 2.86257,4.31308 2.8658,4.31796 2.86903,4.32284 2.87143,4.33178 2.87466,4.33666 2.87789,4.34154 2.88111,4.34642 2.88351,4.35535 2.88674,4.36023 2.88997,4.36511 2.89237,4.37405 2.89559,4.37893 2.89882,4.38381 2.90122,4.39274 2.90445,4.39762 2.90768,4.4025 2.91091,4.40738 2.91331,4.41632 2.91653,4.4212 2.91976,4.42608 2.92299,4.43096 2.92539,4.43989 2.92861,4.44477 2.93184,4.44965 2.93507,4.45454 2.9383,4.45941 2.9407,4.46835 2.94393,4.47323 2.94715,4.47811 2.95038,4.48299 2.95278,4.49193 2.95601,4.49681 2.95923,4.50169 2.96246,4.50657 2.96569,4.51144 2.96809,4.52038 2.97131,4.52526 2.97454,4.53014 2.97777,4.53502 2.981,4.5399 2.98422,4.54478 2.98663,4.55372 2.98985,4.5586 2.99308,4.56348 2.99631,4.56836 2.99954,4.57324 3.00276,4.57812 3.00516,4.58706 3.00839,4.59193 3.01161,4.59681 3.01484,4.6017 3.01807,4.60657 3.0213,4.61146 3.0237,4.62039 3.02693,4.62527 3.03015,4.63015 3.03338,4.63503 3.03661,4.63991 3.03983,4.64479 3.04306,4.64967 3.04629,4.65456 3.04869,4.66349 3.05192,4.66837 3.05514,4.67325 3.05837,4.67813 3.0616,4.68301 3.06482,4.68789 3.06805,4.69277 3.07128,4.69765 3.07451,4.70253 3.07773,4.70741 3.08013,4.71635 3.08336,4.72123 3.08659,4.72611 3.08981,4.73099 3.09304,4.73587 3.09627,4.74075 3.0995,4.74563 3.10272,4.75051 3.10595,4.75539 3.10918,4.76027 3.11241,4.76515 3.11563,4.77003 3.11886,4.77491 3.12209,4.77979 3.12531,4.78467 3.12772,4.79361 3.13094,4.79849 3.13417,4.80337 3.1374,4.80825 3.14062,4.81313 3.14385,4.81801 3.14708,4.82289 3.15031,4.82777 3.15353,4.83265 3.15676,4.83753 3.15999,4.84241 3.16321,4.84729 3.16644,4.85217 3.16967,4.85706 3.1729,4.86193 3.17612,4.86681 3.17935,4.8717 3.18258,4.87657 3.1858,4.88146 3.18903,4.88633 3.19226,4.89122 3.19549,4.8961 3.19871,4.90098 3.20194,4.90586 3.20517,4.91074 3.20839,4.91562 3.21162,4.9205 3.21485,4.92538 3.21807,4.93026 3.2213,4.93514 3.22453,4.94002 3.22776,4.9449 3.23098,4.94978 3.23421,4.95466 3.23744,4.95954 3.24067,4.96443 3.24389,4.9693 3.24712,4.97419 3.25035,4.97907 3.25357,4.98394 3.2568,4.98883 3.26003,4.99371 3.26326,4.99859 3.26648,5.00347 3.26971,5.00835 3.27699,5.01406 3.28022,5.01894 3.28345,5.02381 3.28667,5.0287 3.2899,5.03358 3.29313,5.03846 3.29635,5.04334 3.29958,5.04822 3.30281,5.0531 3.30604,5.05798 3.30926,5.06286 3.31249,5.06774 3.31572,5.07262 3.31894,5.0775 3.32623,5.08321 3.32945,5.08809 3.33268,5.09297 3.33591,5.09785 3.33913,5.10273 3.34236,5.10761 3.34559,5.11249 3.34882,5.11737 3.35204,5.12225 3.35527,5.12713 3.3585,5.13201 3.36578,5.13772 3.36901,5.1426 3.37224,5.14748 3.37546,5.15236 3.37869,5.15724 3.38192,5.16212 3.38514,5.167 3.38837,5.17188 3.39565,5.17759 3.39888,5.18247 3.40211,5.18735 3.40533,5.19223 3.40856,5.19711 3.41179,5.20199 3.41502,5.20687 3.4223,5.21258 3.42552,5.21746 3.42875,5.22234 3.43198,5.22722 3.4352,5.2321 3.43843,5.23698 3.44166,5.24186 3.44894,5.24757 3.45217,5.25245 3.45539,5.25733 3.45862,5.26221 3.46185,5.26709 3.46507,5.27197 3.47236,5.27768 3.47558,5.28256 3.47881,5.28744 3.48204,5.29232 3.48526,5.2972 3.49255,5.30291 3.49577,5.30779 3.499,5.31267 3.50223,5.31755 3.50546,5.32243 3.51274,5.32814 3.51596,5.33302 3.51919,5.3379 3.52242,5.34278 3.52565,5.34766 3.53293,5.35337 3.53615,5.35825 3.53938,5.36313 3.54261,5.36801 3.54989,5.37372 3.55311,5.37859 3.55634,5.38348 3.55957,5.38836 3.56685,5.39406 3.57008,5.39894 3.57331,5.40383 3.57653,5.4087 3.58381,5.41441 3.58704,5.41929 3.59027,5.42417 3.5935,5.42906 3.60078,5.43476 3.604,5.43964 3.60723,5.44452 3.61046,5.4494 3.61774,5.45511 3.62096,5.45999 3.62419,5.46487 3.62742,5.46975 3.6347,5.47546 3.63793,5.48034 3.64116,5.48522 3.64844,5.49093 3.65167,5.49581 3.65489,5.50069 3.66217,5.50639 3.6654,5.51128 3.66863,5.51615 3.67591,5.52186 3.67913,5.52674 3.68236,5.53162 3.68559,5.5365 3.69287,5.54221 3.6961,5.54709 3.70338,5.5528 3.70661,5.55768 3.70983,5.56256 3.71711,5.56827 3.72034,5.57315 3.72357,5.57803 3.73085,5.58374 3.73407,5.58861 3.7373,5.5935 3.74458,5.5992 3.74781,5.60408 3.75104,5.60896 3.75832,5.61467 3.76155,5.61955 3.76478,5.62443 3.77206,5.63014 3.77528,5.63502 3.78256,5.64072 3.78579,5.64561 3.78902,5.65049 3.7963,5.65619 3.79953,5.66107 3.80681,5.66678 3.81004,5.67166 3.81731,5.67737 3.82054,5.68225 3.82377,5.68713 3.83105,5.69284 3.83428,5.69772 3.84156,5.70343 3.84479,5.70831 3.84801,5.71319 3.8553,5.71889 3.85852,5.72377 3.8658,5.72948 3.86903,5.73436 3.87631,5.74007 3.87954,5.74495 3.88682,5.75065 3.89005,5.75554 3.89733,5.76124 3.90056,5.76612 3.90378,5.771 3.91106,5.77671 3.91429,5.78159 3.92157,5.7873 3.9248,5.79218 3.93208,5.79789 3.93531,5.80277 3.94259,5.80847 3.94581,5.81335 3.95309,5.81906 3.96038,5.82477 3.9636,5.82965 3.97089,5.83535 3.97411,5.84024 3.98139,5.84594 3.98462,5.85082 3.9919,5.85653 3.99513,5.86141 4.00241,5.86712 4.00564,5.872 4.01292,5.8777 4.01615,5.88259 4.02343,5.8883 4.03071,5.894 4.03393,5.89888 4.04122,5.90459 4.04444,5.90947 4.05172,5.91518 4.05495,5.92006 4.06223,5.92576 4.06951,5.93147 4.07274,5.93635 4.08002,5.94206 4.0873,5.94776 4.09053,5.95265 4.09781,5.95835 4.10104,5.96323 4.10832,5.96894 4.1156,5.97465 4.11883,5.97953 4.12611,5.98524 4.13339,5.99094 4.13661,5.99582 4.1439,6.00153 4.15118,6.00724 4.15441,6.01212 4.16169,6.01783 4.16897,6.02353 4.17219,6.02841 4.17948,6.03412 4.18676,6.03983 4.19404,6.04554 4.19726,6.05041 4.20455,6.05612 4.21183,6.06183 4.21911,6.06754 4.22233,6.07242 4.22961,6.07812 4.2369,6.08383 4.24418,6.08954 4.24741,6.09442 4.25469,6.10013 4.26197,6.10583 4.26925,6.11154 4.27653,6.11724 4.27976,6.12213 4.28704,6.12783 4.29432,6.13354 4.3016,6.13925 4.30888,6.14496 4.31616,6.15066 4.31939,6.15554 4.32667,6.16125 4.33395,6.16696 4.34123,6.17267 4.34851,6.17837 4.3558,6.18408 4.36307,6.18978 4.37035,6.19549 4.37764,6.2012 4.38492,6.20691 4.3922,6.21261 4.39948,6.21832 4.41081,6.22485 4.41809,6.23056 4.42943,6.23709 4.44076,6.24363 4.44805,6.24933 4.45938,6.25587 4.47072,6.26241 4.48205,6.26894 4.49339,6.27547 4.50472,6.282 4.51606,6.28854 4.52739,6.29507 4.54278,6.30243 4.55411,6.30896 4.56545,6.3155 4.58084,6.32286 4.59622,6.33022 4.61161,6.33758 4.627,6.34494 4.64644,6.35313 4.66589,6.36131 4.68128,6.36868 4.70477,6.37769 4.72827,6.3867 4.75582,6.39654 4.79148,6.40804 4.83524,6.42119 4.99334,6.45342 5.03876,6.45846 5.07202,6.46102 5.09717,6.46193 5.12232,6.46283 5.14341,6.46291 5.16451,6.46299 5.18155,6.46224 5.19859,6.4615 5.21158,6.45993 5.22862,6.45918 5.24161,6.4576 5.2546,6.45603 5.26759,6.45446 5.28057,6.45288 5.29356,6.45131 5.30655,6.44973 5.31548,6.44733 5.32848,6.44576 5.33741,6.44336 5.34634,6.44096 5.35933,6.43938 5.36826,6.43698 5.3772,6.43458 5.38613,6.43218 5.39507,6.42978 5.404,6.42738 5.41294,6.42498 5.42187,6.42258 5.43081,6.42018 5.43974,6.41778 5.44867,6.41538 5.45761,6.41298 5.46249,6.40975 5.47142,6.40735 5.48036,6.40495 5.48524,6.40172 5.49417,6.39932 5.50311,6.39692 5.50799,6.39369 5.51692,6.39129 5.5218,6.38807 5.53074,6.38567 5.53562,6.38244 5.54455,6.38004 5.54943,6.37681 5.55837,6.37441 5.56325,6.37118 5.56813,6.36796 5.57706,6.36556 5.58194,6.36233 5.58682,6.3591 5.59576,6.3567 5.60064,6.35347 5.60552,6.35024 5.61445,6.34785 5.61933,6.34462 5.62421,6.34139 5.62909,6.33817 5.63803,6.33576 5.64291,6.33254 5.64779,6.32931 5.65267,6.32608 5.65755,6.32285 5.66648,6.32045 5.67136,6.31723 5.67624,6.314 5.68113,6.31077 5.686,6.30754 5.69089,6.30432 5.69576,6.30109 5.70065,6.29786 5.70553,6.29464 5.71041,6.29141 5.71529,6.28818 5.72017,6.28496 5.72505,6.28173 5.72993,6.2785 5.73481,6.27527 5.73969,6.27205 5.74457,6.26882 5.74945,6.26559 5.75433,6.26237 5.75921,6.25914 5.76409,6.25591 5.76897,6.25268 5.77385,6.24946 5.77873,6.24623 5.78361,6.243 5.7885,6.23978 5.79337,6.23655 5.79908,6.22926 5.80396,6.22604 5.80884,6.22281 5.81372,6.21958 5.8186,6.21636 5.82348,6.21313 5.82919,6.20585 5.83407,6.20262 5.83895,6.19939 5.84383,6.19617 5.84954,6.18889 5.85442,6.18566 5.8593,6.18243 5.86501,6.17515 5.86989,6.17193 5.87477,6.1687 5.88048,6.16142 5.88536,6.15819 5.89024,6.15496 5.89594,6.14768 5.90082,6.14445 5.90653,6.13717 5.91141,6.13394 5.91712,6.12667 5.922,6.12344 5.92771,6.11615 5.93341,6.10887 5.9383,6.10565 5.944,6.09837 5.94971,6.09109 5.95542,6.0838 5.96112,6.07652 5.96683,6.06924 5.97336,6.05791 5.9799,6.04657 5.98726,6.03119 5.99544,6.01174 6.01363,5.92256 6.01371,5.90146 6.01296,5.88442 6.01139,5.87143 6.00981,5.85844 6.00824,5.84546 6.00584,5.83652 6.00344,5.82759 6.00104,5.81865 5.99864,5.80972 5.99624,5.80078 5.99384,5.79185 5.99144,5.78291 5.98821,5.77804 5.98581,5.7691 5.98258,5.76422 5.98018,5.75528 5.97696,5.75041 5.97373,5.74552 5.97133,5.73659 5.9681,5.73171 5.96487,5.72683 5.96165,5.72195 5.95437,5.71624 5.95114,5.71136 5.94386,5.70565 5.94063,5.70077 5.93335,5.69507 5.93012,5.69019 5.92284,5.68448 5.91961,5.6796 5.91233,5.67389 5.90911,5.66901 5.90182,5.6633 5.89859,5.65842 5.89131,5.65272 5.88809,5.64783 5.88081,5.64213 5.87758,5.63725 5.8703,5.63154 5.86707,5.62666 5.85979,5.62095 5.85656,5.61607 5.84928,5.61037 5.84606,5.60548 5.83878,5.59978 5.83555,5.5949 5.82827,5.58919 5.82098,5.58348 5.81776,5.5786 5.81048,5.5729 5.80725,5.56802 5.79997,5.56231 5.79674,5.55743 5.78946,5.55172 5.78623,5.54684 5.77895,5.54113 5.77572,5.53625 5.76844,5.53055 5.76522,5.52567 5.75794,5.51996 5.75471,5.51508 5.74743,5.50937 5.7442,5.50449 5.73692,5.49878 5.73369,5.4939 5.72641,5.4882 5.72319,5.48331 5.7159,5.47761 5.71268,5.47273 5.70539,5.46702 5.70217,5.46214 5.69489,5.45643 5.69166,5.45155 5.68438,5.44585 5.68115,5.44096 5.67387,5.43526 5.67064,5.43038 5.66336,5.42467 5.66013,5.41979 5.65285,5.41408 5.64963,5.4092 5.64235,5.4035 5.63912,5.39861 5.63184,5.39291 5.62861,5.38803 5.62133,5.38232 5.6181,5.37744 5.61082,5.37173 5.60759,5.36685 5.60031,5.36115 5.59709,5.35626 5.5898,5.35056 5.58658,5.34568 5.5793,5.33997 5.57607,5.33509 5.56879,5.32938 5.56556,5.3245 5.55828,5.3188 5.55505,5.31391 5.54777,5.3082 5.54454,5.30333 5.53726,5.29762 5.53404,5.29274 5.52676,5.28703 5.51947,5.28132 5.51625,5.27644 5.50896,5.27074 5.50574,5.26585 5.49846,5.26015 5.49523,5.25527 5.48795,5.24956 5.48472,5.24468 5.47744,5.23897 5.47421,5.23409 5.46693,5.22839 5.4637,5.22351 5.45643,5.2178 5.4532,5.21292 5.44592,5.20721 5.44269,5.20233 5.43541,5.19662 5.43218,5.19174 5.4249,5.18604 5.42167,5.18116 5.41439,5.17545 5.41117,5.17057 5.40388,5.16486 5.40066,5.15998 5.39337,5.15427 5.39015,5.14939 5.38287,5.14369 5.37964,5.13881 5.37236,5.1331 5.36913,5.12822 5.36185,5.12251 5.35862,5.11763 5.35134,5.11193 5.34811,5.10704 5.34083,5.10133 5.33761,5.09646 5.33033,5.09075 5.3271,5.08587 5.31982,5.08016 5.31659,5.07528 5.30931,5.06957 5.30608,5.06469 5.2988,5.05898 5.29557,5.05411 5.2883,5.0484 5.28507,5.04352 5.28184,5.03864 5.27456,5.03293 5.27133,5.02805 5.2681,5.02317 5.26082,5.01746 5.25759,5.01258 5.25031,5.00687 5.24303,5.00117 5.23981,4.99629 5.23252,4.99058 5.22524,4.98487 5.21796,4.97917 5.21068,4.97346 5.19935,4.96693 5.18801,4.96039 5.17668,4.95386 5.16129,4.9465 5.13374,4.93666 5.08104,4.92591 5.05183,4.92418 5.0348,4.92493 5.02181,4.9265 5.00882,4.92807 4.99988,4.93047 4.99095,4.93287 4.98202,4.93528 4.97308,4.93767 4.96415,4.94007 4.95926,4.9433 4.95033,4.9457 4.94545,4.94893 4.94057,4.95216 4.93569,4.95539 4.93081,4.95861 4.92593,4.96184 4.92105,4.96507 4.91617,4.96829 4.91129,4.97152 4.90641,4.97475 4.90153,4.97798 4.89665,4.9812 4.89176,4.98443 4.88689,4.98766 4.882,4.99088 4.87713,4.99411 4.87224,4.99734 4.86736,5.00057 4.86248,5.00379 4.8576,5.00702 4.85272,5.01025 4.84784,5.01347 4.84296,5.0167 4.83808,5.01993 4.8332,5.02315 4.82749,5.03044 4.82261,5.03367 4.81773,5.03689 4.81285,5.04012 4.80797,5.04335 4.80309,5.04657 4.79821,5.0498 4.79333,5.05303 4.78845,5.05625 4.78357,5.05948 4.77869,5.06271 4.77381,5.06594 4.76893,5.06916 4.76405,5.07239 4.75917,5.07562 4.75429,5.07884 4.74941,5.08207 4.74452,5.0853 4.73965,5.08853 4.73476,5.09175 4.72988,5.09498 4.725,5.09821 4.72012,5.10143 4.71524,5.10466 4.71036,5.10789 4.70548,5.11112 4.7006,5.11434 4.69489,5.12163 4.69001,5.12485 4.68513,5.12808 4.68025,5.13131 4.67537,5.13453 4.67049,5.13776 4.66561,5.14099 4.66073,5.14422 4.65585,5.14744 4.65097,5.15067 4.64609,5.1539 4.64121,5.15712 4.63633,5.16035 4.63145,5.16358 4.62657,5.16681 4.62169,5.17003 4.61275,5.17243 4.60787,5.17566 4.60299,5.17889 4.59406,5.18129 4.58918,5.18452 4.58024,5.18692 4.57536,5.19014 4.56643,5.19254 4.55749,5.19494 4.54856,5.19734 4.53963,5.19974 4.53069,5.20215 4.52176,5.20455 4.50877,5.20612 4.49983,5.20852 4.48279,5.20927 4.4698,5.21084 4.44465,5.20994 4.37169,5.19506 4.35224,5.18687 4.33685,5.17951 4.32552,5.17298 4.31824,5.16727 4.31096,5.16156 4.30368,5.15585 4.29234,5.14932 4.28506,5.14361 4.27778,5.13791 4.2705,5.1322 4.26322,5.12649 4.25188,5.11996 4.2446,5.11425 4.23732,5.10854 4.23004,5.10283 4.22276,5.09713 4.21548,5.09142 4.2082,5.08572 4.20091,5.08001 4.19363,5.0743 4.18635,5.06859 4.17907,5.06289 4.17179,5.05718 4.16856,5.0523 4.16128,5.04659 4.154,5.04089 4.14672,5.03518 4.13944,5.02947 4.13216,5.02376 4.12893,5.01888 4.12165,5.01318 4.11437,5.00747 4.10709,5.00176 4.10386,4.99688 4.09658,4.99117 4.0893,4.98547 4.08607,4.98059 4.07879,4.97488 4.07151,4.96917 4.06828,4.96429 4.061,4.95859 4.05372,4.95288 4.05049,4.948 4.04321,4.94229 4.03998,4.93741 4.0327,4.9317 4.02948,4.92682 4.0222,4.92111 4.01897,4.91624 4.01169,4.91053 4.00846,4.90565 4.00118,4.89994 3.99795,4.89506 3.99067,4.88935 3.98744,4.88447 3.98017,4.87876 3.97694,4.87389 3.96965,4.86818 3.96643,4.8633 3.9632,4.85842 3.95592,4.85271 3.95269,4.84783 3.94541,4.84212 3.94219,4.83724 3.93896,4.83236 3.93168,4.82665 3.92845,4.82177 3.92522,4.81689 3.91794,4.81119 3.91471,4.8063 3.91149,4.80143 3.9042,4.79572 3.90098,4.79084 3.89775,4.78596 3.89452,4.78107 3.88724,4.77537 3.88402,4.77049 3.88079,4.76561 3.87756,4.76073 3.87433,4.75585 3.86705,4.75014 3.86383,4.74526 3.8606,4.74038 3.85737,4.7355 3.85009,4.72979 3.84686,4.72491 3.84364,4.72003 3.84041,4.71515 3.83718,4.71027 3.83395,4.70539 3.83073,4.70051 3.82344,4.6948 3.82022,4.68992 3.81699,4.68504 3.81376,4.68016 3.81054,4.67528 3.80731,4.6704 3.80408,4.66552 3.80085,4.66064 3.79357,4.65493 3.79035,4.65005 3.78712,4.64517 3.78389,4.64029 3.78067,4.63541 3.77744,4.63053 3.77421,4.62565 3.77098,4.62077 3.76776,4.61589 3.76453,4.61101 3.7613,4.60613 3.75807,4.60124 3.75485,4.59637 3.75162,4.59148 3.74839,4.58661 3.74517,4.58172 3.74194,4.57684 3.73871,4.57196 3.73548,4.56708 3.73226,4.5622 3.72903,4.55732 3.7258,4.55244 3.72257,4.54756 3.71935,4.54268 3.71612,4.5378 3.71289,4.53292 3.70967,4.52804 3.70644,4.52316 3.70321,4.51828 3.70081,4.50934 3.69759,4.50446 3.69436,4.49958 3.69113,4.4947 3.68791,4.48982 3.68468,4.48494 3.68145,4.48006 3.67822,4.47518 3.675,4.4703 3.67259,4.46137 3.66937,4.45648 3.66614,4.45161 3.66291,4.44672 3.65969,4.44184 3.65646,4.43696 3.65406,4.42803 3.65083,4.42315 3.6476,4.41827 3.64438,4.41339 3.64115,4.40851 3.63875,4.39957 3.63552,4.39469 3.6323,4.38981 3.62907,4.38493 3.62667,4.376 3.62344,4.37112 3.62021,4.36624 3.61781,4.3573 3.61459,4.35242 3.61136,4.34754 3.60813,4.34266 3.60573,4.33373 3.6025,4.32885 3.59928,4.32396 3.59687,4.31503 3.59365,4.31015 3.59125,4.30122 3.58802,4.29633 3.58479,4.29146 3.58239,4.28252 3.57917,4.27764 3.57676,4.2687 3.57354,4.26383 3.57031,4.25894 3.56791,4.25001 3.56468,4.24513 3.56228,4.2362 3.55906,4.23131 3.55665,4.22238 3.55343,4.2175 3.55103,4.20857 3.5478,4.20369 3.5454,4.19475 3.54217,4.18987 3.53977,4.18094 3.53737,4.172 3.53414,4.16712 3.53174,4.15819 3.52934,4.14926 3.52611,4.14437 3.52371,4.13544 3.52131,4.1265 3.51809,4.12163 3.51569,4.11269 3.51328,4.10376 3.51006,4.09887 3.50766,4.08994 3.50526,4.08101 3.50286,4.07207 3.50046,4.06314 3.49806,4.0542 3.49483,4.04932 3.49243,4.04039 3.49003,4.03146 3.48763,4.02252 3.48522,4.01359 3.48283,4.00465 3.48043,3.99572 3.47802,3.98678 3.47645,3.9738 3.47405,3.96486 3.47165,3.95593 3.46925,3.94699 3.46685,3.93806 3.46528,3.92507 3.46287,3.91613 3.4613,3.90315 3.4589,3.89421 3.45733,3.88122 3.45575,3.86824 3.455,3.8512 3.45508,3.8301 3.45681,3.8009 3.46756,3.7482 3.47823,3.71659 3.48642,3.69715 3.49378,3.68176 3.50031,3.67043 3.50684,3.65909 3.51338,3.64776 3.51991,3.63642 3.52562,3.62914 3.53133,3.62186 3.53786,3.61052 3.54357,3.60324 3.54928,3.59596 3.55415,3.59274 3.55986,3.58545 3.56557,3.57817 3.57128,3.57089 3.57616,3.56767 3.58186,3.56039 3.58757,3.5531 3.59245,3.54987 3.59816,3.54259 3.60304,3.53937 3.60874,3.53209 3.61363,3.52886 3.61851,3.52563 3.62421,3.51835 3.62909,3.51513 3.6348,3.50784 3.63968,3.50461 3.64456,3.50139 3.64944,3.49816 3.65515,3.49088 3.66003,3.48765 3.66491,3.48443 3.66979,3.4812 3.67467,3.47797 3.67955,3.47474 3.68526,3.46746 3.69014,3.46424 3.69502,3.46101 3.6999,3.45778 3.70478,3.45456 3.70966,3.45133 3.71454,3.4481 3.71942,3.44487 3.7243,3.44165 3.72919,3.43842 3.73406,3.43519 3.73894,3.43196 3.74382,3.42874 3.7487,3.42551 3.75359,3.42228 3.75846,3.41906 3.76335,3.41583 3.76823,3.4126 3.77311,3.40937 3.77799,3.40615 3.78287,3.40292 3.7918,3.40052 3.79669,3.39729 3.80156,3.39406 3.80644,3.39084 3.81132,3.38761 3.8162,3.38438 3.82109,3.38116 3.83002,3.37876 3.8349,3.37553 3.83978,3.3723 3.84466,3.36907 3.85359,3.36667 3.85848,3.36344 3.86336,3.36022 3.86824,3.35699 3.87717,3.35459 3.88205,3.35136 3.88693,3.34814 3.89587,3.34574 3.90075,3.34251 3.90563,3.33928 3.91051,3.33606 3.91539,3.33283 3.92027,3.3296 3.92515,3.32637 3.93086,3.31909 3.93574,3.31587 3.94144,3.30858 3.94715,3.3013 3.95286,3.29402 3.95857,3.28674 3.96427,3.27946 3.97163,3.26407 3.98065,3.24057 3.98891,3.20004 3.99065,3.17083 3.9899,3.15379 3.98832,3.1408 3.98675,3.12781 3.98435,3.11888 3.98195,3.10994 3.97955,3.10101 3.97715,3.09208 3.97475,3.08314 3.97152,3.07826 3.96912,3.06933 3.96589,3.06445 3.96349,3.05552 3.96026,3.05063 3.95787,3.0417 3.95464,3.03682 3.95224,3.02789 3.94901,3.023 3.94661,3.01407 3.94338,3.00919 3.94098,3.00026 3.93775,2.99537 3.93535,2.98644 3.93295,2.9775 3.92972,2.97263 3.92733,2.96369 3.9241,2.95881 3.9217,2.94988 3.91847,2.945 3.91607,2.93606 3.91284,2.93118 3.91044,2.92225 3.90722,2.91737 3.90481,2.90843 3.90159,2.90355 3.89919,2.89462 3.89596,2.88974 3.89356,2.8808 3.89033,2.87592 3.88793,2.86699 3.8847,2.86211 3.8823,2.85317 3.87907,2.84829 3.87668,2.83936 3.87345,2.83448 3.87105,2.82554 3.86782,2.82066 3.86542,2.81173 3.86219,2.80685 3.85979,2.79791 3.85657,2.79303 3.85417,2.7841 3.85094,2.77922 3.84854,2.77028 3.84531,2.76541 3.84291,2.75647 3.83968,2.75159 3.83728,2.74265 3.83406,2.73778 3.83165,2.72884 3.82843,2.72396 3.82603,2.71502 3.8228,2.71015 3.8204,2.70121 3.81717,2.69633 3.81477,2.6874 3.81237,2.67846 3.80914,2.67358 3.80674,2.66465 3.80352,2.65977 3.80111,2.65083 3.79789,2.64595 3.79549,2.63702 3.79226,2.63214 3.78986,2.6232 3.78663,2.61832 3.78423,2.60939 3.781,2.60451 3.7786,2.59557 3.77538,2.59069 3.77298,2.58176 3.76975,2.57688 3.76735,2.56794 3.76412,2.56306 3.76172,2.55413 3.75849,2.54925 3.75609,2.54031 3.75287,2.53543 3.75046,2.5265 3.74724,2.52162 3.74484,2.51269 3.74161,2.5078 3.73921,2.49887 3.73598,2.49399 3.73358,2.48506 3.73035,2.48017 3.72795,2.47124 3.72472,2.46636 3.72233,2.45743 3.7191,2.45254 3.7167,2.44361 3.71347,2.43873 3.71107,2.4298 3.70784,2.42491 3.70544,2.41598 3.70222,2.4111 3.69981,2.40217 3.69659,2.39729 3.69419,2.38835 3.69179,2.37942 3.68856,2.37454 3.68616,2.3656 3.68293,2.36072 3.68053,2.35179 3.6773,2.34691 3.6749,2.33797 3.67168,2.33309 3.66928,2.32416 3.66605,2.31928 3.66365,2.31034 3.66042,2.30546 3.65802,2.29653 3.65479,2.29165 3.65239,2.28271 3.64917,2.27783 3.64676,2.2689 3.64354,2.26402 3.64114,2.25508 3.63791,2.2502 3.63551,2.24127 3.63228,2.23639 3.62988,2.22745 3.62665,2.22257 3.62425,2.21364 3.62103,2.20876 3.61863,2.19983 3.6154,2.19494 3.613,2.18601 3.60977,2.18113 3.60737,2.1722 3.60414,2.16731 3.60174,2.15838 3.59852,2.1535 3.59611,2.14457 3.59289,2.13969 3.59049,2.13075 3.58726,2.12587 3.58403,2.12099 3.58081,2.11611 3.57758,2.11123 3.57435,2.10635 3.56707,2.10064 3.56384,2.09576 3.56061,2.09088 3.55333,2.08517 3.55011,2.0803 3.54283,2.07459 3.5396,2.0697 3.53232,2.064 3.52504,2.05829 3.51776,2.05259 3.51048,2.04688 3.50319,2.04117 3.49591,2.03546 3.48458,2.02893 3.4773,2.02322 3.46596,2.01669 3.45057,2.00933 3.43519,2.00197 3.40763,1.99213 3.3225,1.97477 "/>
  </g>
 </g>
</svg>
