<?xml version="1.0" standalone="no"?>
<!DOCTYPE svg PUBLIC "-//W3C//DTD SVG 20010904//EN"
 "http://www.w3.org/TR/2001/REC-SVG-20010904/DTD/svg10.dtd">
<svg version="1.0" xmlns="http://www.w3.org/2000/svg"
 width="944.000000pt" height="944.000000pt" viewBox="0 0 944.000000 944.000000"
 preserveAspectRatio="xMidYMid meet">
<metadata>
Created by potrace 1.15, written by Peter Selinger 2001-2017
</metadata>
<g transform="translate(0.000000,944.000000) scale(0.100000,-0.100000)"
fill="#000000" stroke="none">
<path d="M4620 7680 c-14 -11 -29 -20 -34 -20 -4 0 -53 -29 -107 -65 -55 -36
-104 -65 -109 -65 -6 0 -10 -4 -10 -10 0 -5 -4 -10 -10 -10 -5 0 -95 -56 -200
-125 -105 -69 -193 -125 -195 -125 -3 0 -30 -17 -62 -39 -32 -21 -148 -97
-258 -168 -110 -72 -293 -192 -408 -267 -114 -75 -212 -136 -217 -136 -6 0
-10 -4 -10 -10 0 -5 -4 -10 -10 -10 -5 0 -55 -29 -109 -65 -55 -36 -103 -65
-106 -65 -3 0 -38 -22 -78 -48 -40 -27 -77 -51 -83 -53 -6 -2 -97 -60 -202
-129 -195 -127 -206 -134 -286 -183 -25 -15 -150 -96 -278 -180 -128 -84 -245
-159 -260 -166 -16 -8 -28 -18 -28 -23 0 -4 -5 -8 -10 -8 -16 0 -410 -261
-410 -271 0 -9 17 -43 33 -63 4 -6 46 -72 93 -146 48 -74 89 -137 93 -140 6
-5 13 -16 49 -72 20 -33 38 -35 72 -8 14 11 28 20 33 20 4 0 48 27 98 60 50
33 93 60 95 60 3 0 37 20 75 45 38 25 73 45 78 45 19 0 26 -549 26 -2063 l0
-1587 2840 0 2840 0 0 1588 c0 1540 7 2062 27 2062 5 0 28 -13 51 -28 23 -16
49 -32 57 -36 21 -10 44 -24 130 -80 41 -27 89 -57 106 -67 17 -9 41 -23 53
-31 20 -12 24 -10 56 27 19 22 34 45 35 52 0 6 4 13 9 15 5 2 47 64 95 138 47
74 89 140 93 146 16 20 33 54 33 63 0 10 -394 271 -410 271 -5 0 -10 4 -10 8
0 5 -12 15 -27 23 -16 7 -119 73 -231 146 -112 73 -207 133 -211 133 -4 0 -16
9 -26 20 -10 11 -22 20 -27 20 -5 0 -46 24 -91 54 -237 155 -375 243 -399 255
-16 8 -28 18 -28 23 0 4 -4 8 -10 8 -5 0 -81 47 -170 105 -88 58 -162 105
-165 105 -3 0 -15 9 -27 20 -12 11 -28 20 -35 20 -7 0 -13 5 -13 10 0 6 -4 10
-10 10 -5 0 -94 55 -197 123 -104 68 -195 126 -203 130 -8 4 -41 24 -73 45
-31 20 -120 78 -197 127 -77 50 -201 129 -276 178 -74 48 -137 87 -139 87 -3
0 -50 29 -105 65 -55 36 -105 65 -109 65 -5 0 -11 4 -13 8 -1 5 -34 29 -73 54
-210 136 -236 148 -330 148 -44 0 -67 -6 -85 -20z m194 -647 c41 -27 171 -110
288 -186 117 -76 222 -142 233 -147 11 -6 106 -66 210 -135 105 -69 205 -133
223 -141 17 -9 32 -20 32 -25 0 -5 4 -9 10 -9 5 0 82 -47 170 -105 88 -58 165
-105 170 -105 6 0 10 -4 10 -10 0 -5 4 -10 10 -10 5 0 82 -47 170 -105 88 -58
165 -105 170 -105 6 0 10 -4 10 -8 0 -5 12 -15 28 -23 15 -7 38 -21 52 -30
230 -151 382 -249 388 -250 4 0 27 -15 52 -33 l45 -33 3 -1776 2 -1777 -2365
0 -2365 0 0 1778 0 1777 80 53 c44 28 83 52 86 52 2 0 38 23 79 50 41 28 77
50 80 50 3 0 44 25 90 55 47 30 88 55 90 55 4 0 239 151 297 191 15 11 29 19
32 19 3 0 96 60 208 133 112 73 215 139 231 146 15 8 27 18 27 23 0 4 4 8 10
8 5 0 83 48 172 107 90 58 220 144 291 190 70 45 131 83 136 83 4 0 16 9 26
20 10 11 23 20 30 20 6 0 20 8 31 18 10 10 26 21 34 24 8 4 83 52 165 107 83
54 158 100 167 100 9 1 51 -20 92 -46z"/>
<path d="M5620 4900 c-8 -5 -27 -10 -42 -10 -15 0 -30 -4 -33 -10 -3 -5 -14
-10 -24 -10 -10 0 -45 -13 -79 -30 -34 -16 -67 -30 -72 -30 -6 0 -10 -4 -10
-9 0 -5 -15 -16 -32 -24 -100 -48 -260 -216 -314 -329 l-18 -38 -954 0 c-709
0 -965 -3 -994 -12 -41 -12 -130 -101 -210 -208 -93 -125 -93 -143 2 -265 99
-127 154 -188 184 -204 25 -14 28 -12 116 75 50 49 94 90 98 92 4 1 45 -38 91
-88 110 -120 114 -120 239 0 57 55 98 87 105 83 7 -4 23 -21 37 -38 134 -163
151 -167 261 -62 129 122 112 114 151 71 94 -107 137 -144 165 -144 28 0 45
14 169 133 l51 49 24 -25 c13 -13 50 -54 82 -90 l58 -67 162 -2 162 -3 35 -65
c36 -66 221 -270 245 -270 7 0 18 -7 25 -15 13 -15 24 -22 130 -75 129 -65
175 -73 370 -67 152 5 205 10 245 26 242 98 428 273 514 484 25 62 30 73 36
92 19 52 35 168 35 248 0 165 -51 324 -153 477 -37 56 -157 176 -217 216 -38
27 -71 44 -192 105 -10 5 -27 9 -37 9 -11 0 -23 5 -26 10 -3 6 -21 10 -40 10
-19 0 -37 5 -40 10 -8 13 -285 13 -305 0z m285 -584 c221 -102 221 -410 0
-512 -36 -17 -68 -24 -115 -24 -158 0 -280 122 -280 280 0 158 122 280 280
280 47 0 79 -7 115 -24z"/>
</g>
</svg>
