<?xml version="1.0" encoding="UTF-8"?>
<!DOCTYPE svg PUBLIC "-//W3C//DTD SVG 1.1//EN" "http://www.w3.org/Graphics/SVG/1.1/DTD/svg11.dtd">
<!-- Creator: CorelDRAW -->
<svg xmlns="http://www.w3.org/2000/svg" xml:space="preserve" width="3.5in" height="3.5in" style="shape-rendering:geometricPrecision; text-rendering:geometricPrecision; image-rendering:optimizeQuality; fill-rule:evenodd; clip-rule:evenodd"
viewBox="0 0 3.5 3.5"
 xmlns:xlink="http://www.w3.org/1999/xlink">
 <defs>
  <style type="text/css">
   <![CDATA[
    .fil0 {fill:white}
    .fil2 {fill:#C82930}
    .fil1 {fill:#DEDEDD;fill-rule:nonzero}
   ]]>
  </style>
 </defs>
 <g id="Layer_x0020_1">
  <metadata id="CorelCorpID_0Corel-Layer"/>
  <g id="_110372520">
   <g>
    <path id="_110372112" class="fil0" d="M1.75 0.25c0.828287,0 1.5,0.671713 1.5,1.5 0,0.828287 -0.671713,1.5 -1.5,1.5 -0.828287,0 -1.5,-0.671713 -1.5,-1.5 0,-0.828287 0.671713,-1.5 1.5,-1.5z"/>
    <path id="_1103721121" class="fil1" d="M3.29465 1.75l-0.0892913 0 0 0 -0.00177953 -0.0750827 -0.00561417 -0.0739016 -0.00937008 -0.0727913 -0.0126693 -0.0715945 -0.0162283 -0.0704685 -0.0196929 -0.0689094 -0.0228898 -0.0675984 -0.0259921 -0.0661969 -0.0291693 -0.0643504 -0.0320827 -0.0627559 -0.0350787 -0.0610748 -0.0379724 -0.0589409 -0.0406063 -0.0570669 -0.0431339 -0.0550984 -0.0457559 -0.052685 -0.0482795 -0.0505236 -0.0505236 -0.0482795 -0.052685 -0.0457559 -0.0550984 -0.0431339 -0.0570669 -0.0406063 -0.0589409 -0.0379724 -0.0610748 -0.0350787 -0.0627559 -0.0320827 -0.0643504 -0.0291693 -0.0661969 -0.0259921 -0.0675984 -0.0228898 -0.0689094 -0.0196929 -0.0704685 -0.0162283 -0.0715945 -0.0126693 -0.0727913 -0.00937008 -0.0739016 -0.00561417 -0.0750827 -0.00177953 0 -0.0892913 0.0792717 0.00212598 0.0784291 0.0059685 0.0773268 0.00971654 0.0761299 0.0137165 0.0746575 0.0172756 0.0734449 0.0207402 0.0717795 0.0242835 0.0700315 0.0277323 0.0685394 0.0309173 0.0665906 0.0341772 0.064563 0.0371654 0.0627756 0.0400669 0.0605551 0.0430472 0.0582402 0.0459291 0.0561732 0.0485433 0.0536654 0.0510669 0.0510669 0.0536654 0.0485433 0.0561732 0.0459291 0.0582402 0.0430472 0.0605551 0.0400669 0.0627756 0.0371654 0.064563 0.0341772 0.0665906 0.0309173 0.0685394 0.0277323 0.0700315 0.0242835 0.0717795 0.0207402 0.0734449 0.0172756 0.0746575 0.0137165 0.0761299 0.00971654 0.0773268 0.0059685 0.0784291 0.00212598 0.0792717 0 0zm-1.54465 1.54465l0 -0.0892913 0 0 0.0750827 -0.00177953 0.0739016 -0.00561417 0.0727913 -0.00937008 0.0715945 -0.0126693 0.0704685 -0.0162283 0.0689094 -0.0196929 0.0675984 -0.0228898 0.0661969 -0.0259921 0.0643504 -0.0291693 0.0627559 -0.0320827 0.0610748 -0.0350787 0.0589409 -0.0379724 0.0570669 -0.0406063 0.0550984 -0.0431339 0.052685 -0.0457559 0.0505236 -0.0482795 0.0482795 -0.0505236 0.0457559 -0.052685 0.0431339 -0.0550984 0.0406063 -0.0570669 0.0379724 -0.0589409 0.0350787 -0.0610748 0.0320827 -0.0627559 0.0291693 -0.0643504 0.0259921 -0.0661969 0.0228898 -0.0675984 0.0196929 -0.0689094 0.0162283 -0.0704685 0.0126693 -0.0715945 0.00937008 -0.0727913 0.00561417 -0.0739016 0.00177953 -0.0750827 0.0892913 0 -0.00212598 0.0792717 -0.0059685 0.0784291 -0.00971654 0.0773268 -0.0137165 0.0761299 -0.0172756 0.0746575 -0.0207402 0.0734449 -0.0242835 0.0717795 -0.0277323 0.0700315 -0.0309173 0.0685394 -0.0341772 0.0665906 -0.0371654 0.064563 -0.0400669 0.0627756 -0.0430472 0.0605551 -0.0459291 0.0582402 -0.0485433 0.0561732 -0.0510669 0.0536654 -0.0536654 0.0510669 -0.0561732 0.0485433 -0.0582402 0.0459291 -0.0605551 0.0430472 -0.0627756 0.0400669 -0.064563 0.0371654 -0.0665906 0.0341772 -0.0685394 0.0309173 -0.0700315 0.0277323 -0.0717795 0.0242835 -0.0734449 0.0207402 -0.0746575 0.0172756 -0.0761299 0.0137165 -0.0773268 0.00971654 -0.0784291 0.0059685 -0.0792717 0.00212598 0 0zm-1.54465 -1.54465l0.0892913 0 0 0 0.00177953 0.0750827 0.00561417 0.0739016 0.00937008 0.0727913 0.0126693 0.0715945 0.0162283 0.0704685 0.0196929 0.0689094 0.0228898 0.0675984 0.0259921 0.0661969 0.0291693 0.0643504 0.0320827 0.0627559 0.0350787 0.0610748 0.0379724 0.0589409 0.0406063 0.0570669 0.0431339 0.0550984 0.0457559 0.052685 0.0482795 0.0505236 0.0505236 0.0482795 0.052685 0.0457559 0.0550984 0.0431339 0.0570669 0.0406063 0.0589409 0.0379724 0.0610748 0.0350787 0.0627559 0.0320827 0.0643504 0.0291693 0.0661969 0.0259921 0.0675984 0.0228898 0.0689094 0.0196929 0.0704685 0.0162283 0.0715945 0.0126693 0.0727913 0.00937008 0.0739016 0.00561417 0.0750827 0.00177953 0 0.0892913 -0.0792717 -0.00212598 -0.0784291 -0.0059685 -0.0773268 -0.00971654 -0.0761299 -0.0137165 -0.0746575 -0.0172756 -0.0734449 -0.0207402 -0.0717795 -0.0242835 -0.0700315 -0.0277323 -0.0685394 -0.0309173 -0.0665906 -0.0341772 -0.064563 -0.0371654 -0.0627756 -0.0400669 -0.0605551 -0.0430472 -0.0582402 -0.0459291 -0.0561732 -0.0485433 -0.0536654 -0.0510669 -0.0510669 -0.0536654 -0.0485433 -0.0561732 -0.0459291 -0.0582402 -0.0430472 -0.0605551 -0.0400669 -0.0627756 -0.0371654 -0.064563 -0.0341772 -0.0665906 -0.0309173 -0.0685394 -0.0277323 -0.0700315 -0.0242835 -0.0717795 -0.0207402 -0.0734449 -0.0172756 -0.0746575 -0.0137165 -0.0761299 -0.00971654 -0.0773268 -0.0059685 -0.0784291 -0.00212598 -0.0792717 0 0zm1.54465 -1.54465l0 0.0892913 0 0 -0.0750827 0.00177953 -0.0739016 0.00561417 -0.0727913 0.00937008 -0.0715945 0.0126693 -0.0704685 0.0162283 -0.0689094 0.0196929 -0.0675984 0.0228898 -0.0661969 0.0259921 -0.0643504 0.0291693 -0.0627559 0.0320827 -0.0610748 0.0350787 -0.0589409 0.0379724 -0.0570669 0.0406063 -0.0550984 0.0431339 -0.052685 0.0457559 -0.0505236 0.0482795 -0.0482795 0.0505236 -0.0457559 0.052685 -0.0431339 0.0550984 -0.0406063 0.0570669 -0.0379724 0.0589409 -0.0350787 0.0610748 -0.0320827 0.0627559 -0.0291693 0.0643504 -0.0259921 0.0661969 -0.0228898 0.0675984 -0.0196929 0.0689094 -0.0162283 0.0704685 -0.0126693 0.0715945 -0.00937008 0.0727913 -0.00561417 0.0739016 -0.00177953 0.0750827 -0.0892913 0 0.00212598 -0.0792717 0.0059685 -0.0784291 0.00971654 -0.0773268 0.0137165 -0.0761299 0.0172756 -0.0746575 0.0207402 -0.0734449 0.0242835 -0.0717795 0.0277323 -0.0700315 0.0309173 -0.0685394 0.0341772 -0.0665906 0.0371654 -0.064563 0.0400669 -0.0627756 0.0430472 -0.0605551 0.0459291 -0.0582402 0.0485433 -0.0561732 0.0510669 -0.0536654 0.0536654 -0.0510669 0.0561732 -0.0485433 0.0582402 -0.0459291 0.0605551 -0.0430472 0.0627756 -0.0400669 0.064563 -0.0371654 0.0665906 -0.0341772 0.0685394 -0.0309173 0.0700315 -0.0277323 0.0717795 -0.0242835 0.0734449 -0.0207402 0.0746575 -0.0172756 0.0761299 -0.0137165 0.0773268 -0.00971654 0.0784291 -0.0059685 0.0792717 -0.00212598 0 0z"/>
   </g>
   <g id="_110371152">
    <path id="_110374560" class="fil2" d="M1.76913 0.968961l-0.038252 0c-0.00383465,0.00243307 -0.0373858,0.0115079 -0.0483701,0.0169843 -0.0156535,0.00780709 -0.0248898,0.0172874 -0.0365079,0.0288425 -0.0186575,0.0185591 -0.0378583,0.0545354 -0.0378583,0.091252l0 0.581795c0,0.0667559 0.065811,0.132299 0.133894,0.132299l0.019126 0c0.0709724,0 0.130705,-0.0685236 0.130705,-0.143457l0 -0.561071c0,-0.0435866 -0.0140866,-0.077311 -0.0362598,-0.0992283 -0.0118937,-0.0117559 -0.0215591,-0.0220669 -0.0370394,-0.0299094 -0.011126,-0.00563386 -0.045,-0.0146929 -0.049437,-0.0175079z"/>
    <path id="_110370744" class="fil2" d="M1.71174 2.53104l0.0765118 0c1.1811e-005,-7.87402e-006 0.0692913,-0.00815354 0.0753071,-0.00916929 0.0203976,-0.00345276 0.0532126,-0.00856693 0.0697402,-0.0147402 0.0202756,-0.00757087 0.043752,-0.0130512 0.0639606,-0.0205197 0.0211614,-0.00782283 0.0397835,-0.0153976 0.059315,-0.0251693 0.0787953,-0.0394094 0.137689,-0.0805787 0.196717,-0.139606 0.0455827,-0.0455827 0.114169,-0.133898 0.138854,-0.197469 0.0167717,-0.043189 0.0323504,-0.0738504 0.0448346,-0.124126 0.00983465,-0.0395984 0.0223268,-0.0967677 0.0223268,-0.145039l0 -0.0525984c0,-0.152472 -0.066563,-0.310165 -0.132728,-0.396465 -0.0867205,-0.113106 -0.158264,-0.171756 -0.292858,-0.236339l0 0.159398c0.0758189,0.0401181 0.145016,0.110787 0.191913,0.181071 0.0410866,0.0615787 0.091811,0.180201 0.091811,0.281173l0 0.0430394c0,0.168492 -0.0846299,0.306988 -0.169354,0.391717 -0.0852047,0.0852047 -0.226421,0.16298 -0.3965,0.16298 -0.170543,0 -0.312012,-0.075311 -0.397291,-0.160594 -0.0395157,-0.0395118 -0.0946732,-0.106654 -0.116921,-0.16202 -0.025878,-0.0643937 -0.0548307,-0.132591 -0.0548307,-0.22252l0 -0.0541929c0,-0.0506181 0.0177441,-0.116083 0.0308819,-0.15561 0.0147362,-0.0443346 0.0381339,-0.0897874 0.0615669,-0.124929 0.0462795,-0.0693976 0.115961,-0.140264 0.191276,-0.180114l0 -0.159398c-0.0304016,0.0160866 -0.0574213,0.0272165 -0.0870315,0.0452677 -0.0275787,0.016811 -0.0527717,0.0353425 -0.0774409,0.0548543 -0.0417402,0.0330118 -0.0979252,0.090811 -0.127535,0.135472 -0.0414685,0.0625512 -0.0611024,0.0978819 -0.0916417,0.172957 -0.0215827,0.053063 -0.041937,0.147268 -0.041937,0.221063l0 0.0573819c0,0.0914134 0.037374,0.205547 0.0674567,0.268866 0.0353504,0.0744134 0.0844921,0.142098 0.139362,0.196965 0.059063,0.059063 0.118157,0.0999055 0.196988,0.139335 0.0337717,0.0168937 0.083374,0.036185 0.123713,0.045252 0.0230079,0.00516929 0.0439173,0.0114843 0.0700787,0.0143976 0.00462992,0.000515748 0.0733425,0.00935827 0.0734567,0.00942913z"/>
   </g>
  </g>
 </g>
</svg>
