<?xml version="1.0" encoding="UTF-8"?>
<!DOCTYPE svg PUBLIC "-//W3C//DTD SVG 1.1//EN" "http://www.w3.org/Graphics/SVG/1.1/DTD/svg11.dtd">
<!-- Creator: CorelDRAW -->
<svg xmlns="http://www.w3.org/2000/svg" xml:space="preserve" width="210mm" height="184mm" style="shape-rendering:geometricPrecision; text-rendering:geometricPrecision; image-rendering:optimizeQuality; fill-rule:evenodd; clip-rule:evenodd"
viewBox="0 0 210 184"
 xmlns:xlink="http://www.w3.org/1999/xlink">
 <defs>
  <style type="text/css">
   <![CDATA[
    .fil0 {fill:#AFB4BB}
   ]]>
  </style>
 </defs>
 <g id="Layer_x0020_1">
  <metadata id="CorelCorpID_0Corel-Layer"/>
  <path class="fil0" d="M74.5395 26.8775c0,-5.8528 2.1271,-9.6242 5.4966,-12.1495 4.4305,-3.3206 6.8588,-3.1858 14.2502,-3.1858l29.8303 0c2.2847,0 7.4917,4.2598 8.6175,5.8776 2.4553,3.5281 2.9365,5.4755 2.9365,11.3484l0 5.2518 -61.1311 0 0 -7.1425zm-9.6633 -1.0503l0 8.1928 -31.0908 0c-6.4096,0 -12.2104,0.2101 -18.4863,0.2101 -4.7333,0 -4.2848,0.1057 -7.3469,1.8963 -2.0308,1.1876 -3.3094,2.8282 -4.4895,4.9638 -1.6417,2.9716 -1.1881,3.7816 -1.1881,8.055 0,3.1511 -0.0126,6.3048 0.0022,9.4555 0.0268,5.7013 -0.2123,12.3894 -0.2123,18.4842l0 35.9224c0,4.3279 0.157,8.8636 1.9313,11.5133 2.4701,3.6889 4.1349,3.6546 7.5222,5.8713l65.5424 0.2614 8.613 0c0,-5.7072 -0.292,-12.8974 2.058,-16.4283 2.8219,-4.2399 5.7033,-6.0494 12.647,-6.0494l9.8734 0c6.4365,0 9.8565,2.1255 12.3121,6.1743 1.2473,2.0566 1.7747,4.2802 1.763,7.4801 -0.0053,1.4688 -0.4977,8.8233 0.63,8.8233l16.8058 0c12.7378,0 25.336,-0.2101 37.813,-0.2101 3.7908,0 16.0469,0.5305 18.8722,-0.0343 1.392,-0.2783 4.8847,-2.6087 5.8646,-3.5887 0.8078,-0.8078 3.623,-4.8088 3.623,-6.0402l0 -76.8866c0,-1.953 -3.3665,-6.0588 -4.7083,-7.0557 -3.4077,-2.5318 -3.784,-2.6076 -9.3665,-2.6076 -8.0299,0 -15.5816,-0.2101 -23.7382,-0.2101l-24.7885 0 0 -5.2518c0,-8.7437 -1.9219,-14.4572 -6.3529,-18.8559 -4.1078,-4.078 -9.1077,-8.0334 -17.1753,-8.0334l-28.1497 0c-11.0015,0 -14.032,0.9464 -20.338,5.921 -4.3114,3.4011 -8.4419,10.3256 -8.4419,18.0273z"/>
  <path class="fil0" d="M92.1856 121.2l0 10.5036c0,4.8118 0.2193,8.9509 0.21,13.6548 -0.0097,4.8796 1.6538,7.5625 6.5123,7.5625l12.6043 0c5.9787,0 6.3023,-4.236 6.3023,-10.0835l0 -17.2259c0,-8.6697 -0.1957,-10.9238 -9.0332,-10.9238l-11.1338 0c-2.9907,0 -5.4619,3.3536 -5.4619,6.5123z"/>
  <polygon class="fil0" points="8.5767,167.626 8.5767,137.166 85.6734,137.166 8.364,136.956 "/>
  <path class="fil0" d="M85.6734 137.166l-77.0967 0 0 30.4605c0,7.2151 0.1351,9.9819 4.6621,12.9841 2.665,1.7674 3.8494,0.9309 7.7402,1.0828 2.6489,0.1033 5.6181,0.218 8.605,0.218 11.8766,0 23.2903,0.2101 35.2922,0.2101l76.0462 0c12.1383,0 24.0197,-0.2101 35.9224,-0.2101 5.9026,0 12.3031,0.1649 17.8629,-0.2033 1.562,-0.1034 4.3569,-2.7692 5.1648,-3.8683 1.6111,-2.1922 1.7608,-3.6555 1.7608,-7.2723l0 -33.6116 -76.6764 0c-1.1303,0 -0.6241,6.2036 -0.6251,7.5678 -0.0015,2.1484 -0.2368,5.7041 -0.9815,7.2113 -1.0915,2.2094 -1.7976,3.1218 -3.4857,4.7071 -0.6305,0.592 -4.5138,2.9916 -5.4113,2.9916l-12.8144 0c-7.8063,0 -10.0806,-0.9302 -13.5978,-5.5188 -2.6573,-3.4667 -2.3677,-10.8128 -2.3677,-16.7489z"/>
 </g>
</svg>
