<?xml version="1.0" encoding="UTF-8"?>
<!DOCTYPE svg PUBLIC "-//W3C//DTD SVG 1.1//EN" "http://www.w3.org/Graphics/SVG/1.1/DTD/svg11.dtd">
<!-- Creator: CorelDRAW -->
<svg xmlns="http://www.w3.org/2000/svg" xml:space="preserve" width="2in" height="2in" style="shape-rendering:geometricPrecision; text-rendering:geometricPrecision; image-rendering:optimizeQuality; fill-rule:evenodd; clip-rule:evenodd"
viewBox="0 0 2 2"
 xmlns:xlink="http://www.w3.org/1999/xlink">
 <defs>
  <style type="text/css">
   <![CDATA[
    .str0 {stroke:#1F1A17;stroke-width:0.0695394}
    .fil2 {fill:#E77844}
    .fil0 {fill:white}
    .fil1 {fill:black}
    .fil3 {fill:white;fill-rule:nonzero}
   ]]>
  </style>
 </defs>
 <g id="Layer_x0020_1">
  <metadata id="CorelCorpID_0Corel-Layer"/>
  <path class="fil0" d="M1 0.130016c0.480398,0 0.869984,0.389587 0.869984,0.869984 0,0.480398 -0.389587,0.869984 -0.869984,0.869984 -0.480398,0 -0.869984,-0.389587 -0.869984,-0.869984 0,-0.480398 0.389587,-0.869984 0.869984,-0.869984z"/>
  <path class="fil1" d="M1.10948 0.446583l-0.10948 0.0579134 -0.109854 -0.0581102c-0.0211102,-0.0111654 -0.0452283,0.00864173 -0.038374,0.0315197l0.0595669 0.203972c0.0292598,-0.0091378 0.058874,-0.0137402 0.0886614,-0.0137402 0.029378,0 0.0585866,0.00448425 0.0874528,0.013374l0.0603661 -0.203291c0.00698031,-0.0229016 -0.0171732,-0.0428307 -0.0383386,-0.0316378z"/>
  <path class="fil2 str0" d="M1.42743 1.26859c0,-0.236063 -0.191366,-0.57028 -0.427433,-0.57028 -0.236063,0 -0.427429,0.334217 -0.427429,0.57028 0,0.236063 0.191366,0.28822 0.427429,0.28822 0.236067,3.93701e-006 0.427433,-0.0521535 0.427433,-0.28822z"/>
  <path class="fil3" d="M0.87915 0.940701l0.281433 0 0 0.000598425c-0.0165787,0.0255669 -0.0259685,0.0391496 -0.028063,0.0409449l-0.0752047 0c0.0102874,0.0120866 0.017378,0.0268661 0.0210748,0.0441417l0.0800945 0c0.001,0.000200787 0.00149606,0.000602362 0.00149606,0.00120079 -0.0179764,0.0269646 -0.027063,0.0403465 -0.0274606,0.0403465l-0.0521339 0c-0.00109843,0.0138819 -0.0077874,0.0305591 -0.019874,0.0500354 -0.0159803,0.0197717 -0.0312598,0.0325551 -0.0459409,0.0383504 -0.0272638,0.0130827 -0.0534291,0.0195748 -0.0783937,0.0195748l0 0.000598425c0,0.00199606 0.00609055,0.0100866 0.018374,0.0242677l0.139016 0.167681 0 0.00788976c0,0.000799213 -0.000496063,0.00119685 -0.00149606,0.00119685l-0.0611181 0c-0.109957,-0.12813 -0.164984,-0.192547 -0.164984,-0.193146l0 -0.0388504 0.000598425 -0.00149606c0.00968504,0.00139764 0.0211732,0.00209449 0.0341535,0.00209449 0.0617205,0 0.0999685,-0.0200709 0.115051,-0.0600197 0.00229528,-0.0058937 0.00349606,-0.0118858 0.00349606,-0.0181772l-0.167382 0c-0.000799213,0 -0.00119685,-0.000397638 -0.00119685,-0.00109843 0.0185748,-0.0269646 0.0280591,-0.0404488 0.0284606,-0.0404488l0.132827 0 0 -0.000496063c-0.00768898,-0.0154803 -0.0223701,-0.0274646 -0.0442441,-0.0360551 -0.0155787,-0.00509449 -0.0296614,-0.00759055 -0.0421417,-0.00759055l-0.0743031 0 0 -0.00149606c0.0179764,-0.0266654 0.0272638,-0.0400472 0.0278622,-0.0400472z"/>
 </g>
</svg>
