<?xml version="1.0" encoding="UTF-8"?>
<!DOCTYPE svg PUBLIC "-//W3C//DTD SVG 1.1//EN" "http://www.w3.org/Graphics/SVG/1.1/DTD/svg11.dtd">
<!-- Creator: CorelDRAW -->
<svg xmlns="http://www.w3.org/2000/svg" xml:space="preserve" width="3.5in" height="3.5in" style="shape-rendering:geometricPrecision; text-rendering:geometricPrecision; image-rendering:optimizeQuality; fill-rule:evenodd; clip-rule:evenodd"
viewBox="0 0 3.5 3.5"
 xmlns:xlink="http://www.w3.org/1999/xlink">
 <defs>
  <style type="text/css">
   <![CDATA[
    .str0 {stroke:#DEDEDD;stroke-width:0.0892913}
    .str1 {stroke:#1F1A17;stroke-width:0.140118}
    .fil3 {fill:#84C225}
    .fil0 {fill:white}
    .fil2 {fill:black}
    .fil1 {fill:#DEDEDD;fill-rule:nonzero}
   ]]>
  </style>
 </defs>
 <g id="Layer_x0020_1">
  <metadata id="CorelCorpID_0Corel-Layer"/>
  <g>
   <path class="fil0" d="M1.75 0.25c0.828287,0 1.5,0.671713 1.5,1.5 0,0.828287 -0.671713,1.5 -1.5,1.5 -0.828287,0 -1.5,-0.671713 -1.5,-1.5 0,-0.828287 0.671713,-1.5 1.5,-1.5z"/>
   <path id="1" class="fil1" d="M3.29465 1.75l-0.0892913 0 0 0 -0.00177953 -0.0750827 -0.00561417 -0.0739016 -0.00937008 -0.0727913 -0.0126693 -0.0715945 -0.0162283 -0.0704685 -0.0196929 -0.0689094 -0.0228898 -0.0675984 -0.0259921 -0.0661969 -0.0291693 -0.0643504 -0.0320827 -0.0627559 -0.0350787 -0.0610748 -0.0379724 -0.0589409 -0.0406063 -0.0570669 -0.0431339 -0.0550984 -0.0457559 -0.052685 -0.0482795 -0.0505236 -0.0505236 -0.0482795 -0.052685 -0.0457559 -0.0550984 -0.0431339 -0.0570669 -0.0406063 -0.0589409 -0.0379724 -0.0610748 -0.0350787 -0.0627559 -0.0320827 -0.0643504 -0.0291693 -0.0661969 -0.0259921 -0.0675984 -0.0228898 -0.0689094 -0.0196929 -0.0704685 -0.0162283 -0.0715945 -0.0126693 -0.0727913 -0.00937008 -0.0739016 -0.00561417 -0.0750827 -0.00177953 0 -0.0892913 0.0792717 0.00212598 0.0784291 0.0059685 0.0773268 0.00971654 0.0761299 0.0137165 0.0746575 0.0172756 0.0734449 0.0207402 0.0717795 0.0242835 0.0700315 0.0277323 0.0685394 0.0309173 0.0665906 0.0341772 0.064563 0.0371654 0.0627756 0.0400669 0.0605551 0.0430472 0.0582402 0.0459291 0.0561732 0.0485433 0.0536654 0.0510669 0.0510669 0.0536654 0.0485433 0.0561732 0.0459291 0.0582402 0.0430472 0.0605551 0.0400669 0.0627756 0.0371654 0.064563 0.0341772 0.0665906 0.0309173 0.0685394 0.0277323 0.0700315 0.0242835 0.0717795 0.0207402 0.0734449 0.0172756 0.0746575 0.0137165 0.0761299 0.00971654 0.0773268 0.0059685 0.0784291 0.00212598 0.0792717 0 0zm-1.54465 1.54465l0 -0.0892913 0 0 0.0750827 -0.00177953 0.0739016 -0.00561417 0.0727913 -0.00937008 0.0715945 -0.0126693 0.0704685 -0.0162283 0.0689094 -0.0196929 0.0675984 -0.0228898 0.0661969 -0.0259921 0.0643504 -0.0291693 0.0627559 -0.0320827 0.0610748 -0.0350787 0.0589409 -0.0379724 0.0570669 -0.0406063 0.0550984 -0.0431339 0.052685 -0.0457559 0.0505236 -0.0482795 0.0482795 -0.0505236 0.0457559 -0.052685 0.0431339 -0.0550984 0.0406063 -0.0570669 0.0379724 -0.0589409 0.0350787 -0.0610748 0.0320827 -0.0627559 0.0291693 -0.0643504 0.0259921 -0.0661969 0.0228898 -0.0675984 0.0196929 -0.0689094 0.0162283 -0.0704685 0.0126693 -0.0715945 0.00937008 -0.0727913 0.00561417 -0.0739016 0.00177953 -0.0750827 0.0892913 0 -0.00212598 0.0792717 -0.0059685 0.0784291 -0.00971654 0.0773268 -0.0137165 0.0761299 -0.0172756 0.0746575 -0.0207402 0.0734449 -0.0242835 0.0717795 -0.0277323 0.0700315 -0.0309173 0.0685394 -0.0341772 0.0665906 -0.0371654 0.064563 -0.0400669 0.0627756 -0.0430472 0.0605551 -0.0459291 0.0582402 -0.0485433 0.0561732 -0.0510669 0.0536654 -0.0536654 0.0510669 -0.0561732 0.0485433 -0.0582402 0.0459291 -0.0605551 0.0430472 -0.0627756 0.0400669 -0.064563 0.0371654 -0.0665906 0.0341772 -0.0685394 0.0309173 -0.0700315 0.0277323 -0.0717795 0.0242835 -0.0734449 0.0207402 -0.0746575 0.0172756 -0.0761299 0.0137165 -0.0773268 0.00971654 -0.0784291 0.0059685 -0.0792717 0.00212598 0 0zm-1.54465 -1.54465l0.0892913 0 0 0 0.00177953 0.0750827 0.00561417 0.0739016 0.00937008 0.0727913 0.0126693 0.0715945 0.0162283 0.0704685 0.0196929 0.0689094 0.0228898 0.0675984 0.0259921 0.0661969 0.0291693 0.0643504 0.0320827 0.0627559 0.0350787 0.0610748 0.0379724 0.0589409 0.0406063 0.0570669 0.0431339 0.0550984 0.0457559 0.052685 0.0482795 0.0505236 0.0505236 0.0482795 0.052685 0.0457559 0.0550984 0.0431339 0.0570669 0.0406063 0.0589409 0.0379724 0.0610748 0.0350787 0.0627559 0.0320827 0.0643504 0.0291693 0.0661969 0.0259921 0.0675984 0.0228898 0.0689094 0.0196929 0.0704685 0.0162283 0.0715945 0.0126693 0.0727913 0.00937008 0.0739016 0.00561417 0.0750827 0.00177953 0 0.0892913 -0.0792717 -0.00212598 -0.0784291 -0.0059685 -0.0773268 -0.00971654 -0.0761299 -0.0137165 -0.0746575 -0.0172756 -0.0734449 -0.0207402 -0.0717795 -0.0242835 -0.0700315 -0.0277323 -0.0685394 -0.0309173 -0.0665906 -0.0341772 -0.064563 -0.0371654 -0.0627756 -0.0400669 -0.0605551 -0.0430472 -0.0582402 -0.0459291 -0.0561732 -0.0485433 -0.0536654 -0.0510669 -0.0510669 -0.0536654 -0.0485433 -0.0561732 -0.0459291 -0.0582402 -0.0430472 -0.0605551 -0.0400669 -0.0627756 -0.0371654 -0.064563 -0.0341772 -0.0665906 -0.0309173 -0.0685394 -0.0277323 -0.0700315 -0.0242835 -0.0717795 -0.0207402 -0.0734449 -0.0172756 -0.0746575 -0.0137165 -0.0761299 -0.00971654 -0.0773268 -0.0059685 -0.0784291 -0.00212598 -0.0792717 0 0zm1.54465 -1.54465l0 0.0892913 0 0 -0.0750827 0.00177953 -0.0739016 0.00561417 -0.0727913 0.00937008 -0.0715945 0.0126693 -0.0704685 0.0162283 -0.0689094 0.0196929 -0.0675984 0.0228898 -0.0661969 0.0259921 -0.0643504 0.0291693 -0.0627559 0.0320827 -0.0610748 0.0350787 -0.0589409 0.0379724 -0.0570669 0.0406063 -0.0550984 0.0431339 -0.052685 0.0457559 -0.0505236 0.0482795 -0.0482795 0.0505236 -0.0457559 0.052685 -0.0431339 0.0550984 -0.0406063 0.0570669 -0.0379724 0.0589409 -0.0350787 0.0610748 -0.0320827 0.0627559 -0.0291693 0.0643504 -0.0259921 0.0661969 -0.0228898 0.0675984 -0.0196929 0.0689094 -0.0162283 0.0704685 -0.0126693 0.0715945 -0.00937008 0.0727913 -0.00561417 0.0739016 -0.00177953 0.0750827 -0.0892913 0 0.00212598 -0.0792717 0.0059685 -0.0784291 0.00971654 -0.0773268 0.0137165 -0.0761299 0.0172756 -0.0746575 0.0207402 -0.0734449 0.0242835 -0.0717795 0.0277323 -0.0700315 0.0309173 -0.0685394 0.0341772 -0.0665906 0.0371654 -0.064563 0.0400669 -0.0627756 0.0430472 -0.0605551 0.0459291 -0.0582402 0.0485433 -0.0561732 0.0510669 -0.0536654 0.0536654 -0.0510669 0.0561732 -0.0485433 0.0582402 -0.0459291 0.0605551 -0.0430472 0.0627756 -0.0400669 0.064563 -0.0371654 0.0665906 -0.0341772 0.0685394 -0.0309173 0.0700315 -0.0277323 0.0717795 -0.0242835 0.0734449 -0.0207402 0.0746575 -0.0172756 0.0761299 -0.0137165 0.0773268 -0.00971654 0.0784291 -0.0059685 0.0792717 -0.00212598 0 0z"/>
  </g>
  <path class="fil0 str0" d="M1.75 0.25c0.828287,0 1.5,0.671713 1.5,1.5 0,0.828287 -0.671713,1.5 -1.5,1.5 -0.828287,0 -1.5,-0.671713 -1.5,-1.5 0,-0.828287 0.671713,-1.5 1.5,-1.5z"/>
  <path class="fil2" d="M1.93876 0.795815l-0.188764 0.0998504 -0.189409 -0.100193c-0.0363937,-0.019252 -0.0779764,0.0149016 -0.0661654,0.0543465l0.102705 0.342917c0.0504488,-0.0157598 0.101508,-0.0236929 0.15287,-0.0236929 0.0506496,0 0.101008,0.00772835 0.15078,0.0230591l0.104087 -0.34174c0.0120276,-0.0394843 -0.0296142,-0.0738504 -0.0661024,-0.0545472z"/>
  <path class="fil0 str1" d="M2.48696 2.2131c0,-0.407016 -0.329949,-0.98326 -0.736965,-0.98326 -0.407016,0 -0.736965,0.576244 -0.736965,0.98326 0,0.407008 0.329949,0.496937 0.736965,0.496937 0.407016,7.87402e-006 0.736965,-0.0899213 0.736965,-0.496937z"/>
  <polygon class="fil3" points="1.61343,1.48566 1.60993,1.48581 1.60727,1.48613 1.60543,1.48663 1.6036,1.48712 1.60177,1.48761 1.60076,1.48828 1.59893,1.48877 1.5971,1.48926 1.5961,1.48992 1.59426,1.49041 1.59243,1.49091 1.59143,1.49157 1.5896,1.49206 1.58859,1.49272 1.58676,1.49322 1.58576,1.49388 1.58393,1.49437 1.58293,1.49504 1.58109,1.49553 1.58009,1.49619 1.57909,1.49685 1.57726,1.49734 1.57626,1.498 1.57442,1.4985 1.57342,1.49916 1.57242,1.49982 1.57059,1.50031 1.56959,1.50098 1.56858,1.50164 1.56758,1.5023 1.56575,1.5028 1.56475,1.50346 1.56374,1.50412 1.56274,1.50478 1.56174,1.50544 1.55991,1.50594 1.55891,1.5066 1.55791,1.50726 1.55691,1.50792 1.55591,1.50858 1.5549,1.50924 1.55307,1.50974 1.55207,1.5104 1.55107,1.51106 1.55007,1.51172 1.54906,1.51239 1.54806,1.51305 1.54706,1.51371 1.54606,1.51437 1.54506,1.51504 1.54406,1.5157 1.54306,1.51636 1.54206,1.51702 1.54105,1.51769 1.54005,1.51835 1.53905,1.51901 1.53805,1.51967 1.53705,1.52033 1.53605,1.521 1.53504,1.52166 1.53404,1.52232 1.53304,1.52298 1.53187,1.52448 1.53087,1.52514 1.52987,1.5258 1.52887,1.52646 1.52787,1.52713 1.52686,1.52779 1.52569,1.52928 1.52469,1.52994 1.52369,1.53061 1.52269,1.53127 1.52152,1.53276 1.52052,1.53343 1.51952,1.53409 1.51834,1.53558 1.51734,1.53624 1.51634,1.53691 1.51517,1.5384 1.51417,1.53906 1.513,1.54056 1.512,1.54122 1.51099,1.54188 1.50982,1.54337 1.50865,1.54487 1.50765,1.54553 1.50648,1.54702 1.50548,1.54769 1.50431,1.54918 1.50313,1.55067 1.50213,1.55133 1.50096,1.55283 1.49979,1.55432 1.49862,1.55582 1.49762,1.55648 1.49645,1.55797 1.49528,1.55947 1.49411,1.56096 1.49294,1.56246 1.49176,1.56395 1.49059,1.56544 1.48925,1.56777 1.48808,1.56926 1.48691,1.57076 1.48574,1.57225 1.4844,1.57458 1.48323,1.57607 1.48189,1.5784 1.48055,1.58072 1.47937,1.58222 1.47804,1.58454 1.47669,1.58687 1.47519,1.59003 1.47384,1.59235 1.4725,1.59468 1.47099,1.59783 1.46948,1.60099 1.46797,1.60415 1.46629,1.60814 1.46444,1.61296 1.46259,1.61778 1.46074,1.6226 1.45822,1.63075 1.4545,1.64472 1.45179,1.65803 1.44991,1.67151 1.44904,1.68 1.44869,1.68599 1.44867,1.69032 1.44865,1.69465 1.44863,1.69898 1.44896,1.70164 1.44911,1.70514 1.44943,1.7078 1.44976,1.71047 1.45008,1.71313 1.45041,1.7158 1.45073,1.71846 1.45105,1.72113 1.45137,1.72379 1.4517,1.72646 1.45219,1.72829 1.45251,1.73096 1.45283,1.73362 1.45316,1.73629 1.45348,1.73895 1.45397,1.74078 1.4543,1.74345 1.45479,1.74528 1.45511,1.74795 1.45543,1.75061 1.45593,1.75244 1.45625,1.75511 1.45674,1.75694 1.45706,1.75961 1.45756,1.76144 1.45788,1.76411 1.45837,1.76594 1.4587,1.76861 1.45919,1.77044 1.45951,1.7731 1.46,1.77494 1.4605,1.77677 1.46099,1.7786 1.46131,1.78127 1.4618,1.7831 1.4623,1.78493 1.46262,1.7876 1.46311,1.78943 1.46361,1.79127 1.4641,1.7931 1.46459,1.79493 1.46491,1.7976 1.46541,1.79943 1.4659,1.80126 1.46639,1.8031 1.46688,1.80493 1.46738,1.80676 1.46787,1.8086 1.46836,1.81043 1.46885,1.81226 1.46935,1.81409 1.46984,1.81593 1.47033,1.81776 1.47082,1.81959 1.47115,1.82226 1.47164,1.82409 1.4723,1.82509 1.4728,1.82693 1.47329,1.82876 1.47378,1.83059 1.47427,1.83243 1.47476,1.83426 1.47526,1.83609 1.47575,1.83793 1.47624,1.83976 1.47674,1.84159 1.47723,1.84343 1.47789,1.84443 1.47838,1.84626 1.47887,1.84809 1.47937,1.84993 1.47986,1.85176 1.48052,1.85276 1.48102,1.8546 1.48151,1.85643 1.482,1.85826 1.48249,1.86009 1.48315,1.8611 1.48365,1.86293 1.48414,1.86476 1.48463,1.8666 1.4853,1.8676 1.48579,1.86943 1.48628,1.87126 1.48694,1.87227 1.48743,1.8741 1.48793,1.87593 1.48859,1.87693 1.48908,1.87877 1.48957,1.8806 1.49024,1.8816 1.49073,1.88344 1.49122,1.88527 1.49188,1.88627 1.49238,1.8881 1.49287,1.88994 1.49353,1.89094 1.49402,1.89277 1.49469,1.89377 1.49518,1.89561 1.49567,1.89744 1.49633,1.89844 1.49683,1.90028 1.49749,1.90128 1.49798,1.90311 1.49864,1.90411 1.49913,1.90594 1.49963,1.90778 1.50029,1.90878 1.50078,1.91061 1.50144,1.91161 1.50194,1.91344 1.5026,1.91445 1.50309,1.91628 1.50376,1.91728 1.50425,1.91911 1.50491,1.92012 1.5054,1.92195 1.50606,1.92295 1.50656,1.92478 1.50722,1.92579 1.50788,1.92679 1.50837,1.92862 1.50904,1.92962 1.50953,1.93146 1.51019,1.93246 1.51068,1.93429 1.51135,1.93529 1.51184,1.93713 1.5125,1.93813 1.51316,1.93913 1.51365,1.94096 1.51431,1.94196 1.51481,1.9438 1.51547,1.9448 1.51613,1.9458 1.51663,1.94763 1.51729,1.94863 1.51778,1.95046 1.51844,1.95147 1.51911,1.95247 1.5196,1.9543 1.52026,1.9553 1.52092,1.9563 1.52141,1.95814 1.52208,1.95914 1.52274,1.96014 1.52323,1.96197 1.52389,1.96298 1.52456,1.96398 1.52505,1.96581 1.52571,1.96681 1.52637,1.96781 1.52687,1.96965 1.52753,1.97065 1.52819,1.97165 1.52885,1.97265 1.52935,1.97448 1.53001,1.97548 1.53067,1.97648 1.53116,1.97832 1.53182,1.97932 1.53248,1.98032 1.53298,1.98215 1.53364,1.98316 1.5343,1.98416 1.53496,1.98516 1.53546,1.98699 1.53612,1.988 1.53678,1.989 1.53744,1.99 1.53794,1.99183 1.5386,1.99283 1.53926,1.99383 1.53993,1.99483 1.54059,1.99583 1.54108,1.99767 1.54174,1.99867 1.5424,1.99967 1.54306,2.00067 1.54356,2.00251 1.54422,2.00351 1.54488,2.00451 1.54554,2.00551 1.5462,2.00651 1.5467,2.00835 1.54736,2.00935 1.54802,2.01035 1.54869,2.01135 1.54935,2.01235 1.55001,2.01335 1.5505,2.01519 1.55117,2.01619 1.55183,2.01719 1.55249,2.01819 1.55315,2.01919 1.55381,2.02019 1.55431,2.02203 1.55497,2.02303 1.55563,2.02403 1.55629,2.02503 1.55695,2.02603 1.55762,2.02703 1.55811,2.02887 1.55877,2.02987 1.55943,2.03087 1.56009,2.03187 1.56076,2.03287 1.56142,2.03387 1.56208,2.03487 1.56274,2.03588 1.56324,2.03771 1.5639,2.03871 1.56456,2.03971 1.56522,2.04071 1.56589,2.04172 1.56655,2.04272 1.56721,2.04372 1.56787,2.04472 1.56854,2.04572 1.5692,2.04672 1.56969,2.04856 1.57035,2.04956 1.57101,2.05056 1.57168,2.05156 1.57234,2.05256 1.573,2.05356 1.57366,2.05456 1.57432,2.05557 1.57499,2.05657 1.57565,2.05757 1.57631,2.05857 1.57697,2.05957 1.57763,2.06057 1.5783,2.06157 1.57896,2.06257 1.57945,2.06441 1.58011,2.06541 1.58078,2.06641 1.58144,2.06741 1.5821,2.06841 1.58276,2.06942 1.58343,2.07042 1.58409,2.07142 1.58475,2.07242 1.58541,2.07342 1.58607,2.07442 1.58674,2.07543 1.5874,2.07643 1.58806,2.07743 1.58872,2.07843 1.58939,2.07943 1.59005,2.08043 1.59071,2.08143 1.59137,2.08243 1.59204,2.08344 1.5927,2.08444 1.59336,2.08544 1.59402,2.08644 1.59468,2.08744 1.59535,2.08844 1.59601,2.08944 1.59667,2.09044 1.59733,2.09145 1.59799,2.09245 1.59865,2.09345 1.59932,2.09445 1.59998,2.09545 1.60064,2.09645 1.6013,2.09746 1.60196,2.09846 1.60263,2.09946 1.60329,2.10046 1.60395,2.10146 1.60461,2.10246 1.60528,2.10346 1.60594,2.10446 1.6066,2.10547 1.60726,2.10647 1.60793,2.10747 1.60859,2.10847 1.61008,2.10964 1.61074,2.11064 1.61141,2.11165 1.61207,2.11265 1.61273,2.11365 1.61339,2.11465 1.61406,2.11565 1.61472,2.11665 1.61538,2.11765 1.61604,2.11865 1.6167,2.11966 1.61737,2.12066 1.61803,2.12166 1.61869,2.12266 1.62019,2.12383 1.62085,2.12483 1.62151,2.12583 1.62217,2.12683 1.62283,2.12784 1.6235,2.12884 1.62416,2.12984 1.62482,2.13084 1.62548,2.13184 1.62615,2.13284 1.62681,2.13385 1.6283,2.13502 1.62896,2.13602 1.62963,2.13702 1.63029,2.13802 1.63095,2.13902 1.63161,2.14002 1.63227,2.14102 1.63294,2.14203 1.63443,2.1432 1.63509,2.1442 1.63576,2.1452 1.63642,2.1462 1.63708,2.1472 1.63774,2.1482 1.6384,2.1492 1.6399,2.15038 1.64056,2.15138 1.64122,2.15238 1.64188,2.15338 1.64255,2.15438 1.64321,2.15539 1.64387,2.15639 1.64536,2.15756 1.64603,2.15856 1.64669,2.15956 1.64735,2.16056 1.64801,2.16156 1.64867,2.16256 1.65017,2.16374 1.65083,2.16474 1.65149,2.16574 1.65215,2.16674 1.65282,2.16774 1.65431,2.16891 1.65497,2.16991 1.65563,2.17091 1.6563,2.17192 1.65696,2.17292 1.65845,2.17409 1.65912,2.17509 1.65978,2.17609 1.66044,2.17709 1.6611,2.17809 1.6626,2.17926 1.66326,2.18027 1.66392,2.18127 1.66458,2.18227 1.66608,2.18344 1.66674,2.18444 1.6674,2.18544 1.66806,2.18644 1.66956,2.18761 1.67022,2.18862 1.67088,2.18962 1.67154,2.19062 1.67304,2.19179 1.6737,2.19279 1.67436,2.1938 1.67502,2.1948 1.67652,2.19596 1.67718,2.19697 1.67784,2.19797 1.6785,2.19897 1.68,2.20014 1.68066,2.20114 1.68132,2.20215 1.68198,2.20315 1.68348,2.20431 1.68414,2.20532 1.6848,2.20632 1.6863,2.20749 1.68696,2.20849 1.68762,2.20949 1.68912,2.21067 1.68978,2.21167 1.69044,2.21267 1.69194,2.21384 1.6926,2.21484 1.69326,2.21584 1.69392,2.21684 1.69542,2.21801 1.69608,2.21902 1.69757,2.22019 1.69823,2.22119 1.6989,2.22219 1.70039,2.22336 1.70105,2.22436 1.70171,2.22536 1.70321,2.22654 1.70387,2.22754 1.70453,2.22854 1.70603,2.22971 1.70669,2.23071 1.70735,2.23171 1.70885,2.23288 1.70951,2.23388 1.71017,2.23489 1.71167,2.23606 1.71233,2.23706 1.71382,2.23823 1.71448,2.23923 1.71515,2.24023 1.71664,2.2414 1.7173,2.2424 1.7188,2.24357 1.71946,2.24457 1.72095,2.24575 1.72161,2.24675 1.72228,2.24775 1.72377,2.24892 1.72443,2.24992 1.72593,2.25109 1.72659,2.25209 1.72725,2.25309 1.72874,2.25427 1.72941,2.25527 1.7309,2.25644 1.73156,2.25744 1.73306,2.25861 1.73372,2.25961 1.73521,2.26078 1.73587,2.26179 1.73737,2.26296 1.73803,2.26396 1.73869,2.26496 1.74019,2.26613 1.74085,2.26713 1.74234,2.2683 1.743,2.2693 1.7445,2.27048 1.74516,2.27148 1.74665,2.27265 1.74732,2.27365 1.74881,2.27482 1.7503,2.27599 1.75097,2.27699 1.75246,2.27817 1.75312,2.27917 1.75462,2.28033 1.75528,2.28134 1.75677,2.28251 1.75744,2.28351 1.75893,2.28468 1.75959,2.28568 1.76109,2.28685 1.76175,2.28785 1.76324,2.28903 1.76474,2.2902 1.7654,2.2912 1.76689,2.29237 1.76756,2.29337 1.76905,2.29454 1.76971,2.29554 1.7712,2.29671 1.7727,2.29789 1.77336,2.29889 1.77485,2.30006 1.77635,2.30123 1.77701,2.30223 1.7785,2.3034 1.77917,2.3044 1.78066,2.30557 1.78215,2.30674 1.78282,2.30775 1.78431,2.30892 1.7858,2.31009 1.78647,2.31109 1.78796,2.31226 1.78946,2.31343 1.79012,2.31443 1.79161,2.31561 1.79311,2.31678 1.79377,2.31778 1.79526,2.31895 1.79676,2.32012 1.79825,2.32129 1.79891,2.32229 1.80041,2.32346 1.8019,2.32463 1.80339,2.3258 1.80406,2.32681 1.80555,2.32798 1.80704,2.32915 1.80854,2.33032 1.8092,2.33132 1.81069,2.33249 1.81219,2.33366 1.81368,2.33483 1.81518,2.336 1.81584,2.33701 1.81733,2.33818 1.81883,2.33935 1.82032,2.34052 1.82181,2.34169 1.82331,2.34286 1.82397,2.34386 1.82546,2.34504 1.82696,2.3462 1.82845,2.34737 1.82994,2.34855 1.83144,2.34972 1.83293,2.35089 1.83443,2.35206 1.83592,2.35323 1.83742,2.3544 1.83891,2.35557 1.84041,2.35674 1.84273,2.35808 1.84422,2.35926 1.84655,2.36059 1.84887,2.36194 1.85037,2.36311 1.8527,2.36445 1.85502,2.36579 1.85735,2.36713 1.85967,2.36847 1.862,2.36981 1.86432,2.37115 1.86665,2.37249 1.86981,2.374 1.87213,2.37534 1.87446,2.37669 1.87762,2.37819 1.88078,2.3797 1.88393,2.38122 1.88709,2.38272 1.89108,2.38441 1.89507,2.38609 1.89822,2.38759 1.90305,2.38944 1.90787,2.3913 1.91352,2.39331 1.92084,2.39567 1.92982,2.39837 1.96226,2.40498 1.97158,2.40602 1.9784,2.40654 1.98356,2.40673 1.98872,2.40691 1.99305,2.40693 1.99738,2.40695 2.00088,2.4068 2.00437,2.40664 2.00704,2.40632 2.01054,2.40617 2.0132,2.40584 2.01587,2.40552 2.01853,2.4052 2.0212,2.40487 2.02386,2.40455 2.02652,2.40423 2.02836,2.40374 2.03102,2.40341 2.03286,2.40292 2.03469,2.40243 2.03735,2.4021 2.03919,2.40161 2.04102,2.40112 2.04285,2.40063 2.04469,2.40013 2.04652,2.39964 2.04835,2.39915 2.05019,2.39866 2.05202,2.39816 2.05385,2.39767 2.05569,2.39718 2.05752,2.39669 2.05852,2.39602 2.06035,2.39553 2.06219,2.39504 2.06319,2.39437 2.06502,2.39388 2.06685,2.39339 2.06786,2.39273 2.06969,2.39224 2.07069,2.39157 2.07252,2.39108 2.07353,2.39042 2.07536,2.38993 2.07636,2.38926 2.07819,2.38877 2.0792,2.38811 2.0802,2.38745 2.08203,2.38696 2.08303,2.38629 2.08403,2.38563 2.08587,2.38514 2.08687,2.38448 2.08787,2.38381 2.0897,2.38332 2.0907,2.38266 2.0917,2.382 2.09271,2.38133 2.09454,2.38084 2.09554,2.38018 2.09654,2.37952 2.09754,2.37885 2.09855,2.37819 2.10038,2.3777 2.10138,2.37704 2.10238,2.37638 2.10338,2.37571 2.10439,2.37505 2.10539,2.37439 2.10639,2.37373 2.10739,2.37307 2.10839,2.3724 2.10939,2.37174 2.11039,2.37108 2.11139,2.37042 2.1124,2.36976 2.1134,2.36909 2.1144,2.36843 2.1154,2.36777 2.1164,2.36711 2.1174,2.36644 2.11841,2.36578 2.11941,2.36512 2.12041,2.36446 2.12141,2.3638 2.12241,2.36313 2.12341,2.36247 2.12441,2.36181 2.12541,2.36115 2.12642,2.36048 2.12759,2.35899 2.12859,2.35833 2.12959,2.35767 2.13059,2.357 2.13159,2.35634 2.13259,2.35568 2.13376,2.35419 2.13477,2.35352 2.13577,2.35286 2.13677,2.3522 2.13794,2.3507 2.13894,2.35004 2.13994,2.34938 2.14111,2.34789 2.14211,2.34722 2.14312,2.34656 2.14429,2.34507 2.14529,2.34441 2.14629,2.34374 2.14746,2.34225 2.14846,2.34159 2.14963,2.34009 2.15063,2.33943 2.15181,2.33794 2.15281,2.33728 2.15398,2.33578 2.15515,2.33429 2.15615,2.33363 2.15732,2.33213 2.15849,2.33064 2.15967,2.32914 2.16083,2.32765 2.16201,2.32615 2.16335,2.32383 2.16469,2.3215 2.1662,2.31835 2.16788,2.31435 2.17161,2.29606 2.17163,2.29173 2.17147,2.28823 2.17115,2.28557 2.17083,2.2829 2.1705,2.28024 2.17001,2.2784 2.16952,2.27657 2.16903,2.27474 2.16854,2.2729 2.16804,2.27107 2.16755,2.26924 2.16706,2.2674 2.16639,2.2664 2.1659,2.26457 2.16524,2.26357 2.16475,2.26173 2.16408,2.26073 2.16342,2.25973 2.16293,2.2579 2.16227,2.2569 2.16161,2.25589 2.16094,2.25489 2.15945,2.25372 2.15879,2.25272 2.15729,2.25155 2.15663,2.25055 2.15514,2.24938 2.15448,2.24838 2.15298,2.2472 2.15232,2.2462 2.15082,2.24503 2.15016,2.24403 2.14867,2.24286 2.14801,2.24186 2.14651,2.24069 2.14585,2.23969 2.14435,2.23852 2.14369,2.23752 2.1422,2.23634 2.14154,2.23534 2.14004,2.23417 2.13938,2.23317 2.13789,2.232 2.13722,2.231 2.13573,2.22983 2.13507,2.22882 2.13357,2.22765 2.13208,2.22648 2.13142,2.22548 2.12993,2.22431 2.12926,2.22331 2.12777,2.22214 2.12711,2.22114 2.12561,2.21996 2.12495,2.21896 2.12346,2.21779 2.1228,2.21679 2.1213,2.21562 2.12064,2.21462 2.11915,2.21345 2.11848,2.21244 2.11699,2.21128 2.11633,2.21028 2.11483,2.2091 2.11417,2.2081 2.11268,2.20693 2.11201,2.20593 2.11052,2.20476 2.10986,2.20376 2.10836,2.20259 2.1077,2.20158 2.10621,2.20041 2.10554,2.19941 2.10405,2.19824 2.10339,2.19724 2.10189,2.19607 2.10123,2.19507 2.09974,2.19389 2.09907,2.19289 2.09758,2.19172 2.09692,2.19072 2.09543,2.18955 2.09476,2.18855 2.09327,2.18738 2.09261,2.18638 2.09111,2.1852 2.09045,2.1842 2.08896,2.18303 2.0883,2.18203 2.0868,2.18086 2.08614,2.17986 2.08465,2.17869 2.08398,2.17769 2.08249,2.17652 2.08183,2.17552 2.08033,2.17434 2.07967,2.17334 2.07818,2.17217 2.07752,2.17117 2.07602,2.17 2.07536,2.169 2.07387,2.16783 2.0732,2.16682 2.07171,2.16565 2.07021,2.16448 2.06955,2.16348 2.06806,2.16231 2.0674,2.16131 2.0659,2.16014 2.06524,2.15914 2.06374,2.15796 2.06308,2.15696 2.06159,2.15579 2.06093,2.15479 2.05943,2.15362 2.05877,2.15262 2.05728,2.15145 2.05661,2.15044 2.05512,2.14928 2.05446,2.14828 2.05296,2.1471 2.0523,2.1461 2.05081,2.14493 2.05015,2.14393 2.04865,2.14276 2.04799,2.14176 2.0465,2.14059 2.04583,2.13958 2.04434,2.13841 2.04368,2.13741 2.04219,2.13624 2.04152,2.13524 2.04003,2.13407 2.03937,2.13307 2.03787,2.1319 2.03721,2.13089 2.03572,2.12972 2.03506,2.12872 2.03356,2.12755 2.0329,2.12655 2.0314,2.12538 2.03074,2.12438 2.02925,2.1232 2.02859,2.1222 2.02709,2.12104 2.02643,2.12003 2.02493,2.11886 2.02427,2.11786 2.02278,2.11669 2.02212,2.11569 2.02145,2.11469 2.01996,2.11352 2.0193,2.11251 2.01864,2.11151 2.01714,2.11034 2.01648,2.10934 2.01498,2.10817 2.01349,2.107 2.01283,2.106 2.01133,2.10483 2.00984,2.10365 2.00835,2.10248 2.00685,2.10131 2.00453,2.09997 2.0022,2.09863 1.99988,2.09729 1.99672,2.09578 1.99107,2.09376 1.98025,2.09156 1.97426,2.0912 1.97076,2.09135 1.9681,2.09168 1.96543,2.092 1.9636,2.09249 1.96177,2.09298 1.95993,2.09348 1.9581,2.09397 1.95627,2.09446 1.95527,2.09513 1.95343,2.09562 1.95243,2.09628 1.95143,2.09694 1.95043,2.0976 1.94943,2.09826 1.94843,2.09893 1.94743,2.09959 1.94642,2.10025 1.94542,2.10091 1.94442,2.10157 1.94342,2.10224 1.94242,2.1029 1.94142,2.10356 1.94041,2.10422 1.93941,2.10489 1.93841,2.10555 1.93741,2.10621 1.93641,2.10687 1.93541,2.10754 1.93441,2.1082 1.93341,2.10886 1.9324,2.10952 1.9314,2.11019 1.9304,2.11085 1.9294,2.11151 1.92823,2.113 1.92722,2.11367 1.92622,2.11433 1.92522,2.11499 1.92422,2.11565 1.92322,2.11631 1.92222,2.11698 1.92122,2.11764 1.92022,2.1183 1.91922,2.11896 1.91821,2.11963 1.91721,2.12029 1.91621,2.12095 1.91521,2.12161 1.91421,2.12228 1.9132,2.12294 1.9122,2.1236 1.9112,2.12426 1.9102,2.12492 1.9092,2.12559 1.9082,2.12625 1.9072,2.12691 1.9062,2.12757 1.9052,2.12823 1.90419,2.1289 1.90319,2.12956 1.90219,2.13022 1.90102,2.13171 1.90002,2.13238 1.89902,2.13304 1.89802,2.1337 1.89702,2.13436 1.89601,2.13502 1.89501,2.13569 1.89401,2.13635 1.89301,2.13701 1.89201,2.13767 1.891,2.13833 1.89,2.139 1.889,2.13966 1.888,2.14032 1.887,2.14098 1.886,2.14165 1.88417,2.14214 1.88317,2.1428 1.88216,2.14346 1.88033,2.14396 1.87933,2.14462 1.8775,2.14511 1.87649,2.14577 1.87466,2.14627 1.87283,2.14676 1.87099,2.14725 1.86916,2.14774 1.86733,2.14824 1.86549,2.14873 1.86283,2.14905 1.861,2.14954 1.8575,2.1497 1.85483,2.15002 1.84967,2.14983 1.8347,2.14678 1.83071,2.1451 1.82756,2.14359 1.82523,2.14225 1.82373,2.14108 1.82224,2.13991 1.82075,2.13874 1.81842,2.1374 1.81693,2.13622 1.81543,2.13506 1.81394,2.13388 1.81244,2.13271 1.81012,2.13137 1.80863,2.1302 1.80713,2.12903 1.80564,2.12786 1.80414,2.12669 1.80265,2.12552 1.80115,2.12435 1.79966,2.12317 1.79817,2.122 1.79667,2.12083 1.79518,2.11966 1.79369,2.11849 1.79302,2.11749 1.79153,2.11632 1.79004,2.11515 1.78854,2.11398 1.78705,2.11281 1.78555,2.11163 1.78489,2.11063 1.7834,2.10946 1.7819,2.10829 1.78041,2.10712 1.77975,2.10612 1.77825,2.10495 1.77676,2.10378 1.77609,2.10278 1.7746,2.1016 1.77311,2.10043 1.77244,2.09943 1.77095,2.09826 1.76946,2.09709 1.7688,2.09609 1.7673,2.09492 1.76664,2.09391 1.76515,2.09274 1.76448,2.09174 1.76299,2.09057 1.76233,2.08957 1.76083,2.0884 1.76017,2.0874 1.75868,2.08623 1.75802,2.08522 1.75652,2.08406 1.75586,2.08305 1.75437,2.08188 1.7537,2.08088 1.75221,2.07971 1.75155,2.07871 1.75089,2.0777 1.74939,2.07654 1.74873,2.07554 1.74724,2.07436 1.74657,2.07336 1.74591,2.07236 1.74442,2.07119 1.74375,2.07019 1.74309,2.06919 1.7416,2.06802 1.74094,2.06702 1.74027,2.06601 1.73878,2.06484 1.73812,2.06384 1.73746,2.06284 1.73679,2.06184 1.7353,2.06067 1.73464,2.05967 1.73397,2.05867 1.73331,2.05766 1.73265,2.05666 1.73116,2.05549 1.73049,2.05449 1.72983,2.05349 1.72917,2.05248 1.72768,2.05131 1.72701,2.05031 1.72635,2.04931 1.72569,2.04831 1.72503,2.04731 1.72437,2.04631 1.7237,2.04531 1.72221,2.04413 1.72155,2.04313 1.72089,2.04213 1.72022,2.04113 1.71956,2.04013 1.7189,2.03913 1.71824,2.03813 1.71757,2.03713 1.71608,2.03595 1.71542,2.03495 1.71476,2.03395 1.71409,2.03295 1.71343,2.03195 1.71277,2.03094 1.71211,2.02994 1.71144,2.02894 1.71078,2.02794 1.71012,2.02694 1.70946,2.02594 1.7088,2.02494 1.70813,2.02394 1.70747,2.02294 1.70681,2.02193 1.70615,2.02093 1.70548,2.01993 1.70482,2.01893 1.70416,2.01793 1.7035,2.01693 1.70283,2.01593 1.70217,2.01493 1.70151,2.01392 1.70085,2.01292 1.70019,2.01192 1.69952,2.01092 1.69886,2.00992 1.6982,2.00892 1.69754,2.00791 1.69705,2.00608 1.69638,2.00508 1.69572,2.00408 1.69506,2.00307 1.6944,2.00207 1.69374,2.00107 1.69307,2.00007 1.69241,1.99907 1.69175,1.99807 1.69126,1.99624 1.69059,1.99524 1.68993,1.99423 1.68927,1.99323 1.68861,1.99223 1.68794,1.99123 1.68745,1.9894 1.68679,1.98839 1.68613,1.98739 1.68546,1.98639 1.6848,1.98539 1.68431,1.98356 1.68365,1.98256 1.68299,1.98156 1.68232,1.98055 1.68183,1.97872 1.68117,1.97772 1.68051,1.97672 1.68002,1.97488 1.67935,1.97388 1.67869,1.97288 1.67803,1.97188 1.67754,1.97005 1.67687,1.96904 1.67621,1.96804 1.67572,1.96621 1.67506,1.96521 1.67456,1.96337 1.6739,1.96237 1.67324,1.96137 1.67275,1.95954 1.67208,1.95854 1.67159,1.9567 1.67093,1.9557 1.67027,1.9547 1.66978,1.95287 1.66911,1.95187 1.66862,1.95004 1.66796,1.94903 1.66746,1.9472 1.6668,1.9462 1.66631,1.94437 1.66565,1.94336 1.66516,1.94153 1.66449,1.94053 1.664,1.9387 1.66351,1.93686 1.66285,1.93586 1.66235,1.93403 1.66186,1.93219 1.6612,1.93119 1.66071,1.92936 1.66021,1.92753 1.65955,1.92652 1.65906,1.92469 1.65857,1.92286 1.65791,1.92186 1.65741,1.92002 1.65692,1.91819 1.65643,1.91636 1.65593,1.91452 1.65544,1.91269 1.65478,1.91169 1.65429,1.90986 1.6538,1.90802 1.6533,1.90619 1.65281,1.90436 1.65231,1.90252 1.65182,1.90069 1.65133,1.89886 1.65101,1.89619 1.65052,1.89436 1.65002,1.89253 1.64953,1.89069 1.64904,1.88886 1.64872,1.88619 1.64822,1.88436 1.6479,1.8817 1.64741,1.87986 1.64708,1.8772 1.64676,1.87453 1.64661,1.87104 1.64663,1.86671 1.64698,1.86072 1.64919,1.8499 1.65137,1.84342 1.65306,1.83943 1.65456,1.83627 1.65591,1.83394 1.65724,1.83162 1.65859,1.82929 1.65993,1.82697 1.6611,1.82547 1.66227,1.82398 1.66361,1.82165 1.66478,1.82016 1.66595,1.81867 1.66695,1.818 1.66812,1.81651 1.6693,1.81502 1.67046,1.81352 1.67147,1.81286 1.67264,1.81137 1.67381,1.80987 1.67481,1.80921 1.67598,1.80772 1.67698,1.80705 1.67815,1.80556 1.67916,1.8049 1.68016,1.80423 1.68133,1.80274 1.68233,1.80208 1.6835,1.80058 1.6845,1.79992 1.6855,1.79926 1.6865,1.7986 1.68768,1.7971 1.68868,1.79644 1.68968,1.79578 1.69068,1.79512 1.69168,1.79445 1.69268,1.79379 1.69385,1.7923 1.69485,1.79164 1.69586,1.79097 1.69686,1.79031 1.69786,1.78965 1.69886,1.78899 1.69986,1.78833 1.70086,1.78766 1.70187,1.787 1.70287,1.78634 1.70387,1.78568 1.70487,1.78502 1.70587,1.78435 1.70687,1.78369 1.70787,1.78303 1.70887,1.78237 1.70988,1.7817 1.71088,1.78104 1.71188,1.78038 1.71288,1.77972 1.71388,1.77906 1.71572,1.77856 1.71672,1.7779 1.71772,1.77724 1.71872,1.77657 1.71972,1.77591 1.72072,1.77525 1.72172,1.77459 1.72356,1.7741 1.72456,1.77343 1.72556,1.77277 1.72656,1.77211 1.72839,1.77162 1.7294,1.77096 1.7304,1.77029 1.7314,1.76963 1.73323,1.76914 1.73423,1.76848 1.73524,1.76781 1.73707,1.76732 1.73807,1.76666 1.73907,1.766 1.74007,1.76533 1.74107,1.76467 1.74207,1.76401 1.74307,1.76335 1.74425,1.76185 1.74525,1.76119 1.74642,1.7597 1.74759,1.7582 1.74876,1.75671 1.74993,1.75522 1.75111,1.75372 1.75261,1.75056 1.75446,1.74574 1.75616,1.73743 1.75652,1.73143 1.75636,1.72794 1.75604,1.72527 1.75572,1.72261 1.75522,1.72077 1.75473,1.71894 1.75424,1.71711 1.75375,1.71527 1.75325,1.71344 1.75259,1.71244 1.7521,1.71061 1.75144,1.7096 1.75094,1.70777 1.75028,1.70677 1.74979,1.70494 1.74913,1.70393 1.74863,1.7021 1.74797,1.7011 1.74748,1.69927 1.74682,1.69826 1.74633,1.69643 1.74566,1.69543 1.74517,1.6936 1.74468,1.69176 1.74402,1.69076 1.74352,1.68893 1.74286,1.68793 1.74237,1.68609 1.7417,1.68509 1.74121,1.68326 1.74055,1.68226 1.74006,1.68043 1.7394,1.67943 1.73891,1.67759 1.73824,1.67659 1.73775,1.67476 1.73709,1.67376 1.73659,1.67192 1.73593,1.67092 1.73544,1.66909 1.73478,1.66809 1.73428,1.66625 1.73362,1.66525 1.73313,1.66342 1.73247,1.66242 1.73198,1.66058 1.73131,1.65958 1.73082,1.65775 1.73016,1.65675 1.72967,1.65491 1.729,1.65391 1.72851,1.65208 1.72785,1.65108 1.72736,1.64924 1.72669,1.64824 1.7262,1.64641 1.72554,1.64541 1.72505,1.64357 1.72439,1.64257 1.72389,1.64074 1.72323,1.63974 1.72274,1.63791 1.72207,1.63691 1.72158,1.63507 1.72092,1.63407 1.72043,1.63224 1.71994,1.63041 1.71927,1.6294 1.71878,1.62757 1.71812,1.62657 1.71763,1.62474 1.71696,1.62373 1.71647,1.6219 1.71581,1.6209 1.71531,1.61907 1.71465,1.61806 1.71416,1.61623 1.7135,1.61523 1.71301,1.6134 1.71235,1.61239 1.71185,1.61056 1.71119,1.60956 1.7107,1.60773 1.71004,1.60672 1.70954,1.60489 1.70888,1.60389 1.70839,1.60206 1.70772,1.60106 1.70723,1.59922 1.70657,1.59822 1.70608,1.59639 1.70542,1.59539 1.70493,1.59356 1.70426,1.59255 1.70377,1.59072 1.70311,1.58972 1.70261,1.58789 1.70195,1.58688 1.70146,1.58505 1.7008,1.58405 1.7003,1.58222 1.69964,1.58121 1.69915,1.57938 1.69849,1.57838 1.698,1.57655 1.69733,1.57554 1.69684,1.57371 1.69618,1.57271 1.69569,1.57088 1.69519,1.56904 1.69453,1.56804 1.69404,1.56621 1.69338,1.56521 1.69288,1.56337 1.69222,1.56237 1.69173,1.56054 1.69107,1.55954 1.69057,1.5577 1.68991,1.5567 1.68942,1.55487 1.68876,1.55387 1.68826,1.55204 1.6876,1.55104 1.68711,1.5492 1.68645,1.5482 1.68596,1.54637 1.68529,1.54537 1.6848,1.54353 1.68414,1.54253 1.68365,1.5407 1.68298,1.5397 1.68249,1.53786 1.68183,1.53686 1.68133,1.53503 1.68067,1.53403 1.68018,1.53219 1.67952,1.53119 1.67903,1.52936 1.67837,1.52836 1.67787,1.52652 1.67721,1.52552 1.67672,1.52369 1.67606,1.52269 1.67556,1.52085 1.6749,1.51985 1.67441,1.51802 1.67374,1.51702 1.67308,1.51602 1.67242,1.51502 1.67176,1.51402 1.6711,1.51301 1.6696,1.51184 1.66894,1.51084 1.66828,1.50984 1.66678,1.50867 1.66612,1.50767 1.66463,1.5065 1.66396,1.5055 1.66247,1.50432 1.66098,1.50315 1.65948,1.50198 1.65799,1.50081 1.6565,1.49964 1.655,1.49847 1.65268,1.49713 1.65118,1.49596 1.64886,1.49461 1.6457,1.49311 1.64254,1.49159 1.63689,1.48957 1.61942,1.48602 "/>
 </g>
</svg>
