<?xml version="1.0" encoding="UTF-8"?>
<!DOCTYPE svg PUBLIC "-//W3C//DTD SVG 1.1//EN" "http://www.w3.org/Graphics/SVG/1.1/DTD/svg11.dtd">
<!-- Creator: CorelDRAW -->
<svg xmlns="http://www.w3.org/2000/svg" xml:space="preserve" width="3.5in" height="3.5in" style="shape-rendering:geometricPrecision; text-rendering:geometricPrecision; image-rendering:optimizeQuality; fill-rule:evenodd; clip-rule:evenodd"
viewBox="0 0 3.5 3.5"
 xmlns:xlink="http://www.w3.org/1999/xlink">
 <defs>
  <style type="text/css">
   <![CDATA[
    .str0 {stroke:#DEDEDD;stroke-width:0.0892913}
    .fil1 {fill:#1F1A17}
    .fil0 {fill:white}
   ]]>
  </style>
 </defs>
 <g id="Layer_x0020_1">
  <metadata id="CorelCorpID_0Corel-Layer"/>
  <g id="_44596288">
   <path id="_44596264" class="fil0 str0" d="M1.75 0.25c0.828287,0 1.5,0.671713 1.5,1.5 0,0.828287 -0.671713,1.5 -1.5,1.5 -0.828287,0 -1.5,-0.671713 -1.5,-1.5 0,-0.828287 0.671713,-1.5 1.5,-1.5z"/>
   <path id="_44596072" class="fil1" d="M1.69337 0.909673c-0.169579,0.0071811 -0.284748,0.0640748 -0.335843,0.165988 -0.0187835,0.037563 -0.0284488,0.0707047 -0.0383898,0.132571l-0.00165748 0.0104961 -0.169307 0 -0.169579 0 -0.0243031 0.0071811c-0.0345236,0.00994094 -0.0566181,0.0229213 -0.0828583,0.0491614 -0.0240276,0.0243031 -0.0359055,0.0425315 -0.0475039,0.0740157l-0.00745669 0.0201654 -0.000830709 0.52752c-0.000551181,0.355732 0.000279528,0.531941 0.0022126,0.541055 0.0121496,0.0568937 0.0519213,0.107988 0.103571,0.132846 0.0469488,0.0226496 -0.0273425,0.0207126 0.828567,0.0207126 0.855909,0 0.781614,0.00193307 0.828567,-0.0207126 0.0516457,-0.0248583 0.0914173,-0.0759528 0.103571,-0.132846 0.00193307,-0.00911417 0.00275984,-0.185323 0.00220866,-0.541055l-0.000830709 -0.52752 -0.00745669 -0.0201654c-0.0115984,-0.0314843 -0.0234764,-0.0497126 -0.0475039,-0.0740157 -0.0262362,-0.0262402 -0.0483346,-0.0392205 -0.0828543,-0.0491614l-0.0243071 -0.0071811 -0.164055 0 -0.16378 0 -0.00165748 -0.0104961c-0.00994488,-0.0673898 -0.0234764,-0.111858 -0.042811,-0.140579 -0.0276181,-0.0414291 -0.0765039,-0.0839646 -0.122902,-0.106886 -0.0792677,-0.0394961 -0.192783,-0.0568976 -0.332811,-0.0510945l0 0zm0.143343 0.158807c0.0568976,0.00662992 0.105504,0.0190591 0.136437,0.0348031 0.0168504,0.00828346 0.0348031,0.0267874 0.0436417,0.044189 0.00745669,0.0146378 0.0190551,0.0549606 0.0190551,0.0662835 0,0.00469685 -0.015189,0.00497244 -0.281437,0.00497244l-0.281713 0 0.00165748 -0.0104961c0.00524803,-0.0372835 0.0176772,-0.0671142 0.0356299,-0.0850669 0.0135315,-0.0135315 0.0472283,-0.0303819 0.0811969,-0.040874 0.0649055,-0.0196102 0.153563,-0.0245827 0.245531,-0.013811l0 0zm0.683291 0.271496c0.0176772,0.00773228 0.0334213,0.0226457 0.0417047,0.0403228l0.0071811 0.0154685 0 0.184768 0 0.185047 -0.305189 0 -0.305189 0 0 -0.0179528c0,-0.0679409 -0.0458465,-0.125665 -0.109921,-0.139201 -0.0196102,-0.00414173 -0.169303,-0.00414173 -0.188913,0 -0.0516457,0.0107717 -0.0961142,0.0552402 -0.106886,0.106886 -0.00165748,0.00801181 -0.00303937,0.0226496 -0.00303937,0.032315l0 0.0179528 -0.309331 0 -0.309331 0 0 -0.185047 0 -0.184768 0.00690551 -0.0149173c0.00855906,-0.0179528 0.0209882,-0.0306535 0.0389409,-0.0394921l0.0135354 -0.00635433 0.758689 -0.000275591c0.743224,0 0.758689,0 0.770843,0.00524803l0 0zm-0.684394 0.388323l0.00690551 0.00662598 0 0.10937 0 0.109374 -0.00690551 0.00662598 -0.00662992 0.00690551 -0.0748465 0 -0.0748465 0 -0.00662992 -0.00690551 -0.00690551 -0.00662598 0 -0.109374 0 -0.10937 0.00690551 -0.00662598 0.00662992 -0.00690551 0.0748465 0 0.0748465 0 0.00662992 0.00690551zm-0.285854 0.201614c0,0.0157441 0.00137795,0.0353543 0.00303543,0.0433622 0.0107717,0.0516496 0.0552402,0.0961142 0.106886,0.106886 0.0196102,0.00414173 0.169303,0.00414173 0.188913,0 0.0516457,-0.0107717 0.0961142,-0.0552362 0.106886,-0.106886 0.00165748,-0.00800787 0.00303937,-0.0276181 0.00303937,-0.0433622l0 -0.029 0.305189 0 0.305185 0 0 0.256858 0 0.25713 -0.00800787 0.0160197c-0.00938976,0.0182283 -0.020437,0.0287244 -0.0403228,0.0378386l-0.013811 0.00662992 -0.756756 0 -0.75676 0 -0.013811 -0.00662992c-0.0198819,-0.00911417 -0.0309331,-0.0196102 -0.0403228,-0.0378386l-0.00800787 -0.0160197 0 -0.25713 0 -0.256858 0.309331 0 0.309331 0 0 0.029 3.93701e-006 0z"/>
  </g>
 </g>
</svg>
