<?xml version="1.0" encoding="UTF-8"?>
<!DOCTYPE svg PUBLIC "-//W3C//DTD SVG 1.1//EN" "http://www.w3.org/Graphics/SVG/1.1/DTD/svg11.dtd">
<!-- Creator: CorelDRAW -->
<svg xmlns="http://www.w3.org/2000/svg" xml:space="preserve" width="8.5in" height="8.5in" style="shape-rendering:geometricPrecision; text-rendering:geometricPrecision; image-rendering:optimizeQuality; fill-rule:evenodd; clip-rule:evenodd"
viewBox="0 0 8.5 8.5"
 xmlns:xlink="http://www.w3.org/1999/xlink">
 <defs>
  <style type="text/css">
   <![CDATA[
    .fil0 {fill:#1F1A17}
   ]]>
  </style>
 </defs>
 <g id="Layer_x0020_1">
  <metadata id="CorelCorpID_0Corel-Layer"/>
  <polygon class="fil0" points="2.30581,4.36929 2.28568,4.71148 2.26555,5.07381 2.26555,5.33548 2.28568,5.39588 2.30581,5.43613 2.32594,5.47639 2.35572,5.52294 2.38633,5.55691 2.40646,5.57704 2.42658,5.59717 2.48698,5.63743 2.50711,5.65756 2.54736,5.67768 2.60774,5.71794 2.66814,5.7582 2.70839,5.77833 2.74865,5.79846 2.80485,5.82069 2.8493,5.83872 2.90969,5.85884 2.94994,5.87897 3.03046,5.8991 3.09085,5.91923 3.17136,5.93936 3.23176,5.95949 3.31227,5.97962 3.43304,5.99975 3.55382,6.01988 3.71485,6.04 3.89601,6.06013 4.68106,6.06013 4.81821,6.0484 4.88234,6.04 5.02325,6.01988 5.14402,5.99975 5.24467,5.97962 5.34531,5.95949 5.4057,5.93936 5.48622,5.91923 5.54661,5.8991 5.60699,5.87897 5.66738,5.85884 5.72777,5.83872 5.76803,5.81859 5.80828,5.79846 5.84855,5.77833 5.8888,5.7582 5.92906,5.73807 5.96932,5.71794 5.99993,5.69571 6.06996,5.65756 6.13035,5.61604 6.17061,5.57704 6.19074,5.55691 6.21716,5.52504 6.25113,5.47639 6.27126,5.43279 6.29139,5.39588 6.31152,5.33548 6.31152,5.07381 6.29139,4.71148 6.27126,4.36929 6.25113,4.22838 6.231,4.22838 6.15048,4.24851 6.09009,4.26864 6.02971,4.28877 5.96932,4.3089 5.8888,4.32903 5.82842,4.34916 5.76803,4.36929 5.70764,4.38942 5.64725,4.40954 5.58687,4.42967 5.50635,4.4498 5.44596,4.46993 5.38557,4.49006 5.32519,4.51019 5.2648,4.53032 5.20441,4.55045 5.1239,4.57058 5.0635,4.5907 5.00312,4.61083 4.94273,4.63096 4.88234,4.65109 4.82196,4.67122 4.74144,4.69135 4.68106,4.71148 4.62067,4.73161 4.56028,4.75174 4.49989,4.77187 4.4395,4.792 4.2986,4.81213 4.27847,4.81213 4.20657,4.80815 4.13757,4.792 4.07718,4.77187 4.01679,4.75174 3.95641,4.73161 3.89601,4.71148 3.83563,4.69135 3.75511,4.67122 3.69472,4.65109 3.63433,4.63096 3.57395,4.61083 3.51356,4.5907 3.45317,4.57058 3.37266,4.55045 3.31227,4.53032 3.25188,4.51019 3.1915,4.49006 3.13111,4.46993 3.07072,4.4498 2.9902,4.42967 2.92981,4.40954 2.86943,4.38942 2.80904,4.36929 2.74865,4.34916 2.68827,4.32903 2.60774,4.3089 2.54736,4.28877 2.48698,4.26864 2.42658,4.24851 2.34607,4.22838 2.32594,4.22838 "/>
  <path class="fil0" d="M4.13757 2.03431l-0.0603898 0.020122c-1.08132,0.360472 -2.17976,0.666165 -3.26093,1.02659l-0.0815669 0.0243307 -0.0392087 0.0159291 -0.020126 0.020126 -0.0201299 0.0402598 0.000523622 0.0959291 0.0169882 0.0316654 0.042874 0.033437 0.0603898 0.0201299 0.0603858 0.0201299c0.196551,0.0544606 0.610862,0.190201 0.825295,0.261681l0.0813346 0.0143031 -0.0410787 0.0863425 -0.020126 0.0201299 -0.0201299 0.0402559 -0.0201299 0.0402598 -0.0201299 0.0402559 -0.0201299 0.0603898 -0.020126 0.0603858 -0.0201299 0.0603858 -0.0201299 0.0603937 -0.0201299 0.0805157 -0.020126 0.0805157 -0.0201299 0.120772 -0.0201299 0.201291 0 0.0805157 -0.0805157 0.0402598 -0.0201299 0.0201339 -0.0201299 0.020122 -0.020126 0.0201299 -0.0201299 0.0402638 -0.0201299 0.040252 -0.0201299 0.0603937 0 0.181161 0.0201299 0.0805157 0.0201299 0.0603858 0.0402559 0 0 0.0402598 0.0201299 0.0402559 0.0402598 0.0201299 0.020126 0.0201299 0 0.0805157 -0.020126 0.161035 -0.0201299 0.140906 -0.0201299 0.140902 -0.0201299 0.161031 -0.020126 0.140909 -0.0201299 0.161031 -0.0201299 0.140902 -0.0201299 0.161035 0 0.140902 0.0201299 0.0201339 0.0402598 0 0 0.040252 0.70452 0 0 -0.040252 0.0402559 0 0.0201299 -0.0201339 0 -0.140902 -0.0201299 -0.161035 -0.020126 -0.140902 -0.0201299 -0.161031 -0.0201299 -0.140909 -0.0201299 -0.140902 -0.020126 -0.161031 -0.0201299 -0.140906 -0.0201299 -0.161035 0 -0.0805157 0.0402598 -0.0201299 0.020126 -0.0201299 0.0201299 -0.0402559 0 -0.0402598 0.0402598 0 0.020126 -0.0603858 0.0201299 -0.0805157 0 -0.181161 -0.0201299 -0.0603937 -0.020126 -0.040252 -0.0201299 -0.0402638 -0.0201299 -0.0201299 -0.0201299 -0.020122 -0.020126 -0.0201339 -0.0201299 -0.0201299 -0.0201299 -0.0201299 -0.0146693 -0.0972559 0.0146693 -0.144291 0.0201299 -0.120776 0.0201299 -0.0805157 0.020126 -0.0603858 0.0350039 -0.102193 0.0538937 -0.103295 0.047815 -0.0826142 0.0444488 -0.0540945 0.0201299 -0.0201299 0.0603858 0 0.0603898 0.0201299c0.314441,0.104795 0.576783,0.178835 0.885685,0.281811l0.0805157 0.020122 0.0603858 0.0201299 0.0603898 0.0201339 0.0603858 0.0201299 0.0603858 0.020122 0.0805197 0.0201339 0.0603858 0.0201299 0.0603858 0.0201299 0.0603937 0.0201299 0.0603858 0.020126 0.0603819 0.0201299 0.0805197 0.0201299 0.0603898 0.0201299 0.0603858 0.020126 0.0603858 0.0201299 0.0864488 0.0170354 0.114843 0.00309449 0.0603858 -0.0201299 0.0603937 -0.0201299 0.0603819 -0.020126c0.51378,-0.154126 1.03906,-0.312803 1.54995,-0.483102 0.527417,-0.175823 1.06311,-0.327547 1.5902,-0.503224l0.0805197 -0.0201339 0.0603819 -0.0201299 0.0402638 -0.0201299 0.0481969 -0.0402559 0.0152283 -0.0594843 -0.00303937 -0.0612913 -0.0201299 -0.0402598 -0.0201339 -0.020126 -0.040252 -0.0201299 -0.0603937 -0.0201299 -0.0805157 -0.0201299 -0.0603858 -0.020126 -0.0603858 -0.0201299 -0.0603898 -0.0201299 -0.0603858 -0.0201299 -0.0805157 -0.0201299 -0.0603858 -0.020126 -0.0603898 -0.0201299 -0.0603858 -0.0201299 -0.0603858 -0.0201339 -0.0603937 -0.020122 -0.0805157 -0.0201299 -0.0603858 -0.0201299 -0.0603898 -0.0201339 -0.0603858 -0.0201299 -0.0603858 -0.020122 -0.0805157 -0.0201339 -0.0603898 -0.0201299 -0.0603858 -0.0201299 -0.0603858 -0.020122 -0.0603937 -0.0201339 -0.0603858 -0.0201299 -0.0805157 -0.0201299 -0.0603898 -0.0201299 -0.0603858 -0.020126 -0.0603858 -0.0201299 -0.0603898 -0.0201299 -0.0805157 -0.0201299 -0.0603858 -0.020126 -0.0603858 -0.0201299 -0.0603937 -0.0201299 -0.0603858 -0.0201299 -0.0603858 -0.0201299 -0.0805157 -0.020126 -0.0603898 -0.0201299 -0.0603858 -0.0201299 -0.0603858 -0.0201299 -0.0603898 -0.020126 -0.0805157 -0.0201299 -0.0603858 -0.0201299 -0.0603937 -0.0201299 -0.0603858 -0.0201339 -0.0603858 -0.020122 -0.0603898 -0.0201299 -0.0805157 -0.0201299 -0.0603858 -0.0201339 -0.0603858 -0.020122 -0.0603898 -0.0201299 -0.0603858 -0.0201339 -0.0805157 -0.0201299 -0.0603858 -0.0201299 -0.0603937 -0.020122 -0.0603858 -0.0201339 -0.181161 0 -0.0603858 0.0201339z"/>
 </g>
</svg>
