<?xml version="1.0" encoding="UTF-8"?>
<!DOCTYPE svg PUBLIC "-//W3C//DTD SVG 1.1//EN" "http://www.w3.org/Graphics/SVG/1.1/DTD/svg11.dtd">
<!-- Creator: CorelDRAW -->
<svg xmlns="http://www.w3.org/2000/svg" xml:space="preserve" width="5in" height="5in" style="shape-rendering:geometricPrecision; text-rendering:geometricPrecision; image-rendering:optimizeQuality; fill-rule:evenodd; clip-rule:evenodd"
viewBox="0 0 5 5"
 xmlns:xlink="http://www.w3.org/1999/xlink">
 <defs>
  <style type="text/css">
   <![CDATA[
    .str0 {stroke:#DEDEDD;stroke-width:0.22222}
    .fil1 {fill:#DEDEDD}
    .fil0 {fill:white}
   ]]>
  </style>
 </defs>
 <g id="Layer_x0020_1">
  <metadata id="CorelCorpID_0Corel-Layer"/>
  <path class="fil0 str0" d="M2.5 0.192551c1.27415,0 2.30745,1.0333 2.30745,2.30745 0,1.27415 -1.0333,2.30745 -2.30745,2.30745 -1.27415,0 -2.30745,-1.0333 -2.30745,-2.30745 0,-1.27415 1.0333,-2.30745 2.30745,-2.30745z"/>
  <g id="_107666744">
   <polygon id="_107666840" class="fil1" points="2.32044,4.24046 2.33304,4.23731 2.34564,4.23416 2.35194,4.23101 2.36139,4.22786 2.36769,4.22471 2.37399,4.22156 2.38029,4.21841 2.38344,4.21526 2.38659,4.21211 2.39289,4.20896 2.39604,4.20581 2.39919,4.20266 2.40234,4.19951 2.40549,4.19636 2.40864,4.19321 2.41179,4.19006 2.41494,4.18691 2.41809,4.18061 2.42124,4.17746 2.42439,4.17116 2.42754,4.16486 2.43069,4.15856 2.43384,4.15226 2.43699,4.14281 2.44015,4.13335 2.4433,4.1176 2.44644,4.0987 2.44959,4.0609 2.45274,4.03885 2.45589,3.9853 2.45905,3.94749 2.4622,3.92229 2.46535,3.90024 2.4685,3.88133 2.47165,3.86558 2.4748,3.84983 2.47795,3.83723 2.4811,3.82148 2.48425,3.81203 2.4874,3.79943 2.49055,3.78683 2.4937,3.77738 2.49685,3.76793 2.5,3.75848 2.50315,3.74903 2.5063,3.73957 2.50945,3.73013 2.5126,3.72067 2.51575,3.71122 2.5189,3.70492 2.52205,3.69547 2.5252,3.68917 2.52835,3.67972 2.5315,3.67342 2.53465,3.66397 2.5378,3.65767 2.54095,3.65137 2.5441,3.64192 2.54725,3.63562 2.5504,3.62932 2.55355,3.62302 2.5567,3.61672 2.55985,3.61042 2.563,3.60412 2.56615,3.59781 2.5693,3.59152 2.57245,3.58521 2.5756,3.57891 2.57876,3.57261 2.58191,3.56631 2.58506,3.56001 2.5882,3.55371 2.59135,3.55056 2.5945,3.54426 2.59765,3.53796 2.60081,3.53166 2.60396,3.52851 2.60711,3.52221 2.61026,3.51591 2.61341,3.51276 2.61656,3.50646 2.61971,3.50016 2.62286,3.49701 2.62601,3.49071 2.62916,3.48441 2.63231,3.48126 2.63546,3.47496 2.63861,3.47181 2.64176,3.4655 2.64491,3.4592 2.64806,3.45606 2.65121,3.44976 2.65436,3.44661 2.65751,3.4403 2.66066,3.43715 2.66381,3.434 2.66696,3.4277 2.67011,3.42455 2.67326,3.41825 2.67641,3.4151 2.67956,3.4088 2.68271,3.40565 2.68586,3.4025 2.68901,3.3962 2.69216,3.39305 2.69531,3.38675 2.69846,3.3836 2.70161,3.38045 2.70476,3.37415 2.70791,3.371 2.71106,3.36785 2.71421,3.36155 2.71737,3.3584 2.72052,3.35525 2.72367,3.34894 2.72681,3.3458 2.72996,3.34265 2.73311,3.3395 2.73627,3.3332 2.73942,3.33005 2.74257,3.32689 2.74572,3.32374 2.74887,3.31744 2.75202,3.3143 2.75517,3.31115 2.75832,3.30799 2.76147,3.30169 2.76462,3.29854 2.76777,3.29539 2.77092,3.29224 2.77407,3.28909 2.77722,3.28279 2.78037,3.27964 2.78352,3.27649 2.78667,3.27334 2.78982,3.27019 2.79297,3.26704 2.79612,3.26074 2.79927,3.25759 2.80242,3.25444 2.80557,3.25129 2.80872,3.24814 2.81187,3.24499 2.81502,3.24184 2.81817,3.23869 2.82132,3.23554 2.82447,3.22924 2.82762,3.22609 2.83078,3.22294 2.83393,3.21979 2.83707,3.21664 2.84022,3.21349 2.84337,3.21033 2.84652,3.20719 2.84967,3.20404 2.85283,3.20089 2.85598,3.19774 2.85913,3.19459 2.86228,3.19143 2.86543,3.18828 2.86857,3.18513 2.87173,3.18198 2.87488,3.17883 2.87803,3.17569 2.88118,3.17254 2.88433,3.16938 2.88748,3.16623 2.89063,3.16308 2.89378,3.15993 2.89693,3.15678 2.90008,3.15363 2.90323,3.15048 2.90638,3.14733 2.90953,3.14418 2.91268,3.14103 2.91583,3.13788 2.91898,3.13473 2.92213,3.13158 2.92528,3.12843 2.92843,3.12528 2.93158,3.12213 2.93473,3.11898 2.93788,3.11583 2.94103,3.11268 2.94418,3.10953 2.94733,3.10638 2.95048,3.10323 2.95678,3.10008 2.95993,3.09693 2.96308,3.09378 2.96623,3.09063 2.96938,3.08748 2.97253,3.08433 2.97569,3.08118 2.97883,3.07803 2.98198,3.07488 2.98828,3.07172 2.99144,3.06857 2.99459,3.06543 2.99774,3.06228 3.00089,3.05913 3.00404,3.05598 3.01034,3.05282 3.01349,3.04967 3.01664,3.04652 3.01979,3.04337 3.02294,3.04022 3.02924,3.03707 3.03239,3.03392 3.03554,3.03077 3.03869,3.02762 3.04499,3.02447 3.04814,3.02132 3.05129,3.01817 3.05444,3.01502 3.06074,3.01187 3.06074,1.34225 3.05759,1.32965 3.05444,1.3202 3.05129,1.31075 3.04814,1.30444 3.04499,1.29815 3.04184,1.29185 3.03869,1.28554 3.03554,1.28239 3.03239,1.27609 3.02924,1.27294 3.02609,1.2698 3.02294,1.26665 3.01979,1.26034 3.01664,1.25719 3.01349,1.25404 3.01034,1.25089 3.00719,1.24774 3.00404,1.24459 3.00089,1.24144 2.99459,1.23829 2.99144,1.23514 2.98828,1.23199 2.98513,1.22884 2.97883,1.22569 2.97569,1.22254 2.96938,1.21939 2.96623,1.21624 2.95993,1.21309 2.95678,1.20994 2.95048,1.20679 2.94418,1.20364 2.93788,1.20049 2.93158,1.19734 2.92528,1.19419 2.91898,1.19104 2.90953,1.18789 2.90323,1.18474 2.89378,1.18159 2.88748,1.17844 2.87803,1.17529 2.86857,1.17214 2.85598,1.16898 2.84337,1.16583 2.83078,1.16269 2.81502,1.15954 2.79612,1.15639 1.50137,1.15639 1.49193,1.15954 1.48562,1.16269 1.47932,1.16583 1.47617,1.16898 1.46987,1.17214 1.46672,1.17529 1.46357,1.17844 1.46042,1.18159 1.45727,1.18474 1.45412,1.18789 1.45097,1.19104 1.44782,1.19419 1.44467,1.19734 1.44152,1.20049 1.43837,1.20364 1.43522,1.20679 1.43207,1.20994 1.42892,1.21309 1.42577,1.21939 1.42262,1.22254 1.41947,1.22569 1.41632,1.23199 1.41317,1.23514 1.41002,1.24144 1.40687,1.24459 1.40372,1.25089 1.40057,1.25404 1.39742,1.26034 1.39427,1.26665 1.39112,1.2698 1.38796,1.27609 1.38481,1.28239 1.38167,1.2887 1.37852,1.295 1.37537,1.3013 1.37222,1.30759 1.36906,1.3139 1.36591,1.3202 1.36276,1.3265 1.35961,1.3328 1.35646,1.3391 1.35331,1.3454 1.35016,1.35485 1.34701,1.36115 1.34386,1.36745 1.34071,1.3769 1.33756,1.3832 1.33441,1.39265 1.33126,1.39895 1.32811,1.40841 1.32496,1.41785 1.32181,1.42416 1.31866,1.43361 1.31551,1.44306 1.31236,1.45251 1.30921,1.46196 1.30606,1.47456 1.30291,1.48401 1.29976,1.49346 1.29661,1.50606 1.29346,1.51551 1.29031,1.52811 1.28716,1.53756 1.28401,1.55017 1.28086,1.55961 1.27771,1.57222 1.27456,1.58167 1.27141,1.59427 1.26826,1.60372 1.26511,1.61632 1.26196,1.62577 1.25881,1.63837 1.25566,1.64782 1.25251,1.66042 1.24935,1.66987 1.2462,1.68247 1.24306,1.69193 1.23991,1.70452 1.23676,1.71713 1.23361,1.72658 1.23046,1.73918 1.2273,1.74863 1.22415,1.76123 1.221,1.77383 1.21785,1.78328 1.2147,1.79588 1.21156,1.80848 1.2084,1.81793 1.20525,1.83054 1.2021,1.84313 1.19895,1.85574 1.1958,1.86519 1.19265,1.87779 1.1895,1.89039 1.18635,1.90299 1.1832,1.91559 1.18005,1.92504 1.1769,1.93764 1.17375,1.95024 1.1706,1.96285 1.16745,1.97544 1.1643,1.98805 1.16115,2.00065 1.158,2.01325 1.15485,2.02585 1.1517,2.03845 1.14855,2.05105 1.1454,2.06365 1.14225,2.0731 1.1391,2.0857 1.13595,2.09831 1.1328,2.11091 1.12965,2.12666 1.1265,2.13926 1.12335,2.15186 1.1202,2.16446 1.11705,2.17706 1.1139,2.19281 1.11074,2.20541 1.10759,2.21801 1.10444,2.23061 1.1013,2.24637 1.09815,2.25897 1.095,2.27472 1.09184,2.28732 1.08869,2.30307 1.08554,2.31567 1.08239,2.33142 1.07924,2.34402 1.07609,2.35977 1.07294,2.37552 1.06979,2.38813 1.06664,2.40388 1.06349,2.41963 1.06034,2.43538 1.05719,2.45113 1.05404,2.46688 1.05089,2.48263 1.04774,2.49839 1.04459,2.51728 1.04144,2.53304 1.03829,2.55194 1.03514,2.56769 1.03199,2.58659 1.02884,2.60549 1.02569,2.62754 1.02254,2.64644 1.01939,2.6685 1.01624,2.69055 1.01309,2.71575 1.00994,2.74095 1.00679,2.77559 1.00679,2.84177 1.00994,2.86381 1.01309,2.87641 1.01624,2.88901 1.01939,2.89846 1.02254,2.90476 1.02569,2.91106 1.02884,2.91737 1.03199,2.92367 1.03514,2.92997 1.03829,2.93312 1.04144,2.93942 1.04459,2.94257 1.04774,2.94572 1.05089,2.94887 1.05404,2.95202 1.05719,2.95517 1.06034,2.95832 1.06349,2.96147 1.06664,2.96462 1.06979,2.96777 1.07294,2.97092 1.07924,2.97407 1.08239,2.97722 1.08869,2.98037 1.09184,2.98352 1.09815,2.98667 1.10444,2.98982 1.1139,2.99297 1.1202,2.99612 1.12965,2.99927 1.14225,3.00242 1.15485,3.00557 1.17375,3.00872 2.03104,3.00878 2.02746,3.02132 2.02431,3.03392 2.02116,3.04652 2.01801,3.05913 2.01486,3.06857 2.01171,3.08433 2.00856,3.09693 2.00541,3.10953 2.00226,3.12213 1.99911,3.13473 1.99596,3.14733 1.99281,3.16308 1.98966,3.17569 1.98651,3.19143 1.98336,3.20719 1.98021,3.21979 1.97706,3.23554 1.97391,3.25129 1.97076,3.27019 1.96761,3.28594 1.96446,3.30484 1.96131,3.32059 1.95816,3.34265 1.95501,3.36155 1.95186,3.3836 1.94871,3.40565 1.94556,3.43085 1.94241,3.45606 1.93926,3.48756 1.93611,3.52221 1.93296,3.57576 1.93296,3.72382 1.93611,3.76793 1.93926,3.79943 1.94241,3.82148 1.94556,3.84353 1.94871,3.85928 1.95186,3.87504 1.95501,3.89079 1.95816,3.90339 1.96131,3.91599 1.96446,3.92859 1.96761,3.94119 1.97076,3.95064 1.97391,3.96009 1.97706,3.96954 1.98021,3.97899 1.98336,3.9853 1.98651,3.99474 1.98966,4.00104 1.99281,4.0105 1.99596,4.0168 1.99911,4.02309 2.00226,4.0294 2.00541,4.0357 2.00856,4.042 2.01171,4.0483 2.01486,4.0546 2.01801,4.0609 2.02116,4.0672 2.02431,4.0735 2.02746,4.07665 2.03061,4.08295 2.03376,4.0861 2.03691,4.0924 2.04006,4.09555 2.04321,4.10185 2.04637,4.105 2.04952,4.1113 2.05267,4.11445 2.05581,4.1176 2.05896,4.12076 2.06211,4.12706 2.06527,4.1302 2.06842,4.13335 2.07157,4.1365 2.07472,4.13965 2.07787,4.14281 2.08102,4.14596 2.08417,4.15226 2.08732,4.15541 2.09047,4.15856 2.09362,4.16171 2.09677,4.16486 2.10307,4.16801 2.10622,4.17116 2.10937,4.17431 2.11252,4.17746 2.11567,4.18061 2.11882,4.18376 2.12512,4.18691 2.12827,4.19006 2.13142,4.19321 2.13772,4.19636 2.14087,4.19951 2.14717,4.20266 2.15032,4.20581 2.15662,4.20896 2.15977,4.21211 2.16607,4.21526 2.17237,4.21841 2.17867,4.22156 2.18498,4.22471 2.19128,4.22786 2.20072,4.23101 2.20703,4.23416 2.21648,4.23731 2.22593,4.24046 2.23853,4.24361 2.30154,4.24361 "/>
   <polygon id="_107666768" class="fil1" points="3.92391,3.00557 3.93335,3.00242 3.93966,2.99927 3.94596,2.99612 3.94911,2.99297 3.95541,2.98982 3.95856,2.98667 3.96171,2.98352 3.96486,2.98037 3.96801,2.97722 3.97116,2.97407 3.97431,2.96777 3.97746,2.96462 3.98061,2.95832 3.98376,2.95202 3.98691,2.94572 3.99006,2.93627 3.99321,2.92052 3.99321,2.87955 3.99006,2.82916 3.98691,2.77876 3.98376,2.72835 3.98061,2.6748 3.97746,2.62439 3.97431,2.57399 3.97116,2.52359 3.96801,2.47003 3.96486,2.41963 3.96171,2.36922 3.95856,2.31882 3.95541,2.26842 3.95226,2.21486 3.94911,2.16446 3.94596,2.11406 3.94281,2.06365 3.93966,2.0101 3.9365,1.95969 3.93335,1.90929 3.9302,1.85889 3.92706,1.80848 3.92391,1.75493 3.92076,1.70452 3.9176,1.65412 3.91445,1.60372 3.9113,1.55017 3.90815,1.49976 3.905,1.44936 3.90185,1.39895 3.8987,1.34855 3.89555,1.295 3.8924,1.24459 3.88925,1.22569 3.8861,1.21624 3.88295,1.20994 3.8798,1.20364 3.87665,1.19734 3.8735,1.19419 3.87035,1.19104 3.8672,1.18789 3.86405,1.18474 3.8609,1.18159 3.85775,1.17844 3.8546,1.17529 3.8483,1.17214 3.84515,1.16898 3.83885,1.16583 3.8294,1.16269 3.82309,1.15954 3.8105,1.15639 3.32851,1.15639 3.31906,1.15954 3.30961,1.16269 3.30646,1.16583 3.30016,1.16898 3.29701,1.17214 3.29071,1.17529 3.28756,1.18159 3.28441,1.18474 3.28126,1.18789 3.27811,1.19419 3.27496,1.20049 3.27181,1.20994 3.27181,2.91106 3.27496,2.92681 3.27811,2.93312 3.28126,2.94257 3.28441,2.94887 3.28756,2.95202 3.29071,2.95832 3.29386,2.96147 3.29701,2.96777 3.30016,2.97092 3.30331,2.97407 3.30646,2.97722 3.31276,2.98037 3.31591,2.98352 3.31906,2.98667 3.32536,2.98982 3.33166,2.99297 3.33796,2.99612 3.34426,2.99927 3.35371,3.00242 3.36631,3.00557 3.38522,3.00872 3.905,3.00872 "/>
  </g>
 </g>
</svg>
