<?xml version="1.0" encoding="UTF-8"?>
<!DOCTYPE svg PUBLIC "-//W3C//DTD SVG 1.1//EN" "http://www.w3.org/Graphics/SVG/1.1/DTD/svg11.dtd">
<!-- Creator: CorelDRAW -->
<svg xmlns="http://www.w3.org/2000/svg" xml:space="preserve" width="145mm" height="210mm" style="shape-rendering:geometricPrecision; text-rendering:geometricPrecision; image-rendering:optimizeQuality; fill-rule:evenodd; clip-rule:evenodd"
viewBox="0 0 145 210"
 xmlns:xlink="http://www.w3.org/1999/xlink">
 <defs>
  <style type="text/css">
   <![CDATA[
    .fil0 {fill:#AFB4BB}
   ]]>
  </style>
 </defs>
 <g id="Layer_x0020_1">
  <metadata id="CorelCorpID_0Corel-Layer"/>
  <g id="_119603472">
   <polygon id="_119605608" class="fil0" points="0.636,75.88 0.844,75.88 0.844,69.64 0.636,69.64 "/>
   <polygon id="_119603112" class="fil0" points="144.156,77.752 144.364,77.752 144.364,67.56 144.156,67.56 "/>
   <path id="_119603088" class="fil0" d="M104.012 83.576l-0.208 1.248 -0.208 0.416 -0.208 1.04 -0.208 0.624 -0.208 1.248 -0.208 0.416 -0.208 0.624 -0.208 0.416 -0.208 0.416 -0.208 0.832 -0.208 0.416 -0.208 0.416 -0.208 0.416 -0.208 0.416 -0.208 0.624 -0.208 0.416 -0.208 0.208 -0.208 0.416 -0.208 0.208 -0.208 0.624 -0.208 0.208 -0.208 0.416 -0.208 0.208 -0.208 0.208 -0.208 0.624 -0.208 0.208 -0.208 0.208 -0.208 0.208 -0.208 0.416 -0.208 0.208 -0.208 0.208 -0.208 0.416 -0.416 0.208 -0.208 0.624 -0.208 0.208 -0.416 0.208 -0.208 0.208 -0.208 0.416 -0.208 0.208 -0.416 0.208 -0.208 0.416 -0.208 0.208 -0.208 0.208 -0.416 0.208 -0.208 0.208 -0.208 0.416 -0.208 0.208 -0.624 0.208 -0.208 0.416 -0.208 0.208 -0.416 0.208 -0.208 0.208 -0.208 0.208 -0.416 0.208 -0.208 0.208 -0.208 0.208 -0.624 0.208 -0.208 0.208 -0.208 0.208 -0.208 0.208 -0.416 0.208 -0.416 0.208 -0.416 0.208 -0.416 0.208 -0.208 0.208 -0.416 0.208 -0.624 0.208 -0.416 0.208 -0.416 0.208 -0.208 0.208 -0.416 0.208 -0.832 0.208 -0.624 0.208 -0.208 0.208 -0.624 0.208 -0.416 0.208 -1.248 0.208 -0.624 0.208 -0.832 0.208 -0.624 0.208 -0.832 0.208 -2.496 0.208 -6.24 0 -2.704 -0.208 -0.624 -0.208 -0.832 -0.208 -0.624 -0.208 -0.832 -0.208 -1.04 -0.208 -0.416 -0.208 -0.624 -0.208 -0.416 -0.208 -0.416 -0.208 -0.832 -0.208 -0.624 -0.208 -0.208 -0.208 -0.416 -0.208 -0.416 -0.208 -0.624 -0.208 -0.416 -0.208 -0.208 -0.208 -0.416 -0.208 -0.208 -0.208 -0.624 -0.208 -0.208 -0.208 -0.416 0 0 -0.416 -0.416 -0.208 -0.624 0 0 -0.416 -0.416 -0.208 -0.208 -0.208 -0.208 -0.208 -0.416 -0.208 -0.208 -0.208 -0.416 -0.208 -0.208 -0.416 -0.416 -0.208 -0.208 -0.208 -0.416 0 0 -0.416 -0.208 -0.208 -0.416 -0.208 -0.208 -0.208 -0.208 -0.416 -0.208 -0.208 -0.416 -0.208 -0.208 -0.208 -0.208 -0.416 -0.208 -0.208 -0.208 -0.208 -0.208 -0.208 -0.208 -0.208 -0.208 -0.416 -0.416 0 0 -0.416 -0.208 -0.208 -0.208 -0.208 -0.208 -0.416 -0.208 -0.208 -0.208 -0.416 -0.208 -0.208 -0.208 -0.208 -0.208 -0.624 -0.208 -0.208 -0.208 -0.208 -0.208 -0.208 -0.208 -0.416 -0.208 -0.416 -0.208 -0.416 -0.208 -0.416 -0.208 -0.208 -0.208 -0.416 -0.208 -0.624 -0.208 -0.416 -0.208 -0.416 -0.208 -0.416 -0.208 -0.416 -0.208 -0.832 -0.208 -0.416 -0.208 -0.624 -0.208 -0.416 -0.208 -0.624 -0.208 -1.04 -0.208 -0.832 -0.208 -0.624 -0.208 -1.04 -0.208 -1.04 0 -9.36 0.208 -1.04 0.208 -0.832 0.208 -0.624 0.208 -0.832 0.208 -1.04 0.208 -0.832 0.208 -0.416 0.208 -0.624 0.208 -0.208 0.208 -0.832 0.208 -0.624 0.208 -0.416 0.208 -0.208 0.208 -0.416 0.208 -0.624 0.208 -0.416 0.208 -0.416 0.208 -0.208 0.208 -0.416 0.208 -0.416 0.208 -0.416 0.208 -0.208 0 -0.416 0.416 0 0.208 -0.832 0.416 -0.208 0.208 -0.416 0.208 -0.208 0.208 -0.416 0.208 -0.208 0.208 -0.208 0.208 -0.208 0.208 -0.416 0.208 -0.208 0.208 -0.208 0.208 -0.208 0 -0.416 0.416 0 0.208 -0.416 0.208 -0.208 0.208 -0.208 0.416 -0.208 0.208 -0.416 0.208 -0.208 0.208 -0.208 0.416 -0.208 0 -0.416 0.416 0 0.208 -0.208 0.208 -0.208 0.208 -0.208 0.416 -0.208 0.208 -0.208 0.208 -0.208 0.208 -0.208 0.416 -0.208 0.208 -0.208 0.416 -0.208 0 -0.416 0.416 0 0.624 -0.208 0 -0.416 0.416 0 0.208 -0.208 0.416 -0.208 0.624 -0.208 0.208 -0.208 0.208 -0.208 0.416 -0.208 0.416 -0.208 0.624 -0.208 0.416 -0.208 0.208 -0.208 0.624 -0.208 0.416 -0.208 0.832 -0.208 0.416 -0.208 0.624 -0.208 0.416 -0.208 0.624 -0.208 1.248 -0.208 0.624 -0.208 0.832 -0.208 1.04 -0.208 0.832 -0.208 8.944 0 1.04 0.208 0.832 0.208 0.832 0.208 0.624 0.208 1.248 0.208 0.624 0.208 0.624 0.208 0.416 0.208 0.416 0.208 0.832 0.208 0.624 0.208 0.416 0.208 0.208 0.208 0.416 0.208 0.624 0.208 0.416 0.208 0.416 0.208 0.208 0.208 0.416 0.208 0.416 0.208 0.416 0.208 0.416 0.208 0.208 0.208 0.208 0.208 0.624 0.208 0.208 0.208 0.208 0.208 0.208 0.208 0.208 0.208 0.416 0.208 0.208 0.208 0.416 0.208 0.208 0.208 0.208 0.208 0.208 0.208 0.416 0.208 0.208 0.208 0.208 0.416 0.416 0.208 0.208 0.208 0.208 0.208 0.208 0.416 0.416 0.208 0.208 0.208 0.208 0.208 0.208 0.416 0.416 0.208 0.208 0.208 0.208 0.208 0.208 0.416 0.208 0.208 0.208 0.208 0.208 0.208 0.208 0.416 0.208 0.208 0.208 0.416 0.208 0.208 0.208 0.208 0.208 0.208 0.208 0.624 0.208 0.208 0.208 0.208 0.208 0.416 0.208 0.208 0.208 0.624 0.208 0.208 0.208 0.416 0.208 0.208 0.208 0.416 0.208 0.624 0.208 0.416 0.208 0.416 0.208 0.416 0.208 0.416 0.208 0.832 0.208 0.416 0.208 0.416 0.208 0.624 0.208 0.416 0.208 1.248 0.208 0.624 0.208 0.832 0.208 0.624 0.208 1.248 0.208 2.288 0 5.2 -0.208 2.496zm-40.976 -82.368l-1.04 0.208 -1.456 0.208 -0.832 0.208 -1.872 0.208 -0.624 0.208 -0.832 0.208 -0.832 0.208 -0.624 0.208 -1.248 0.208 -0.832 0.208 -0.624 0.208 -0.416 0.208 -0.624 0.208 -1.04 0.208 -0.624 0.208 -0.416 0.208 -0.624 0.208 -0.416 0.208 -1.04 0.208 -0.208 0.208 -0.624 0.208 -0.416 0.208 -0.416 0.208 -0.832 0.208 -0.416 0.208 -0.208 0.208 -0.624 0.208 -0.416 0.208 -0.624 0.208 -0.416 0.208 -0.416 0.208 -0.416 0.208 -0.208 0.208 -0.832 0.208 -0.208 0.208 -0.416 0.208 -0.416 0.208 -0.208 0.208 -0.624 0.208 -0.416 0.208 -0.208 0.208 -0.208 0.208 -0.416 0.208 -0.624 0.208 -0.208 0.208 -0.416 0.208 -0.208 0.208 -0.208 0.208 -0.624 0.208 -0.208 0.208 -0.416 0.208 -0.208 0.208 -0.208 0.208 -0.624 0.208 -0.416 0.208 -0.208 0.416 -0.416 0.208 -0.416 0.208 -0.208 0.208 -0.416 0.208 -0.208 0.208 -0.208 0.208 -0.416 0.208 -0.416 0.208 -0.208 0.208 -0.208 0.416 -0.624 0.208 -0.208 0.208 -0.208 0.208 -0.208 0.208 -0.208 0.208 -0.416 0.208 -0.208 0.208 -0.208 0.208 -0.208 0.208 -0.416 0.208 -0.208 0.208 -0.208 0.208 -0.208 0.208 -0.416 0.208 0 0.416 -0.416 0 -0.208 0.208 -0.208 0.208 -0.208 0.208 0 0.416 -0.416 0 -0.416 0.208 -0.208 0.208 -0.208 0.416 -0.416 0.208 -0.208 0.208 -0.208 0.208 -0.208 0.416 -0.416 0.208 -0.208 0.208 -0.208 0.208 -0.208 0.416 -0.416 0.208 -0.208 0.208 -0.208 0.208 -0.208 0.416 -0.208 0.208 -0.208 0.208 -0.208 0.208 -0.208 0.208 0 0.416 -0.416 0 -0.208 0.208 -0.208 0.208 -0.208 0.416 -0.208 0.208 -0.208 0.208 -0.208 0.208 -0.208 0.416 -0.208 0.208 -0.208 0.208 -0.208 0.416 -0.208 0.208 -0.416 0.208 -0.208 0.624 -0.208 0.208 -0.208 0.208 -0.208 0.208 -0.208 0.208 0 0.624 -0.416 0 -0.208 0.416 -0.208 0.208 -0.208 0.208 -0.208 0.416 -0.208 0.416 -0.208 0.208 -0.208 0.208 -0.208 0.208 -0.208 0.624 -0.208 0.208 -0.208 0.208 -0.208 0.416 -0.208 0.208 -0.208 0.416 -0.208 0.416 0 0.416 -0.416 0 -0.208 0.416 -0.208 0.624 -0.208 0.208 -0.208 0.416 -0.208 0.208 -0.208 0.208 -0.208 0.832 -0.208 0.208 -0.208 0.208 -0.208 0.624 -0.208 0.208 -0.208 0.624 -0.208 0.416 -0.208 0.208 -0.208 0.416 -0.208 0.416 -0.208 0.832 -0.208 0.208 -0.208 0.416 -0.208 0.416 -0.208 0.416 -0.208 0.832 -0.208 0.208 -0.208 0.624 -0.208 0.416 -0.208 0.416 -0.208 0.832 -0.208 0.624 -0.208 0.416 -0.208 0.416 -0.208 0.416 -0.208 1.04 -0.208 0.624 -0.208 0.416 -0.208 0.624 -0.208 0.832 -0.208 1.04 -0.208 0.624 -0.208 0.624 -0.208 0.832 -0.208 0.624 -0.208 1.872 -0.208 0.624 -0.208 0.832 -0.208 1.248 -0.208 0.832 -0.208 2.912 -0.208 1.664 0 3.328 0 6.24 0 3.12 0.208 1.664 0.208 2.704 0.208 0.832 0.208 1.248 0.208 0.832 0.208 0.832 0.208 1.664 0.208 0.624 0.208 1.04 0.208 0.416 0.208 0.832 0.208 1.04 0.208 0.832 0.208 0.416 0.208 0.624 0.208 0.416 0.208 1.248 0.208 0.416 0.208 0.416 0.208 0.624 0.208 0.208 0.208 1.04 0.208 0.416 0.208 0.416 0.208 0.416 0.208 0.416 0.208 0.832 0.208 0.416 0.208 0.208 0.208 0.624 0.208 0.208 0.208 0.832 0.208 0.208 0.208 0.416 0.208 0.416 0.208 0.208 0.208 0.832 0.208 0.208 0.208 0.416 0.208 0.416 0.208 0.208 0.208 0.624 0.208 0.416 0.208 0.208 0.208 0.416 0.208 0.416 0.208 0.416 0.208 0.416 0.208 0.208 0.208 0.416 0.208 0.208 0.208 0.624 0.208 0.208 0.208 0.416 0.208 0.208 0.208 0.416 0.208 0.624 0.208 0.208 0.208 0.416 0.208 0.416 0.208 0.208 0.208 0.624 0.208 0.208 0.208 0.208 0.208 0.416 0.208 0.416 0.208 0.416 0.208 0.416 0.208 0.208 0.208 0.416 0.208 0.208 0.208 0.624 0.208 0.416 0.208 0.208 0.208 0.208 0.208 0.416 0.208 0.624 0.208 0.208 0.208 0.416 0.208 0.416 0.416 0 0 0.832 0.208 0.208 0.208 0.208 0.208 0.416 0.208 0.416 0.208 0.416 0.208 0.416 0.208 0.208 0.208 0.416 0.208 0.416 0.208 0.416 0.208 0.416 0.208 0.208 0.208 0.208 0.208 0.416 0.208 0.624 0.208 0.208 0.208 0.416 0.208 0.416 0.416 0 0 0.832 0.208 0.208 0.208 0.208 0.208 0.416 0.208 0.416 0.208 0.416 0.208 0.416 0.208 0.208 0.208 0.416 0.208 0.208 0.208 0.624 0.208 0.416 0.208 0.416 0.416 0 0 0.416 0.208 0.624 0.208 0.208 0.208 0.416 0.208 0.416 0.208 0.208 0.208 0.624 0.208 0.208 0.208 0.208 0.208 0.416 0.208 0.416 0.208 0.416 0.208 0.416 0.208 0.208 0.208 0.208 0.208 0.416 0.208 0.624 0.208 0.208 0.208 0.416 0.208 0.208 0.208 0.416 0.208 0.624 0.208 0.208 0.208 0.416 0.208 0.416 0.416 0 0 0.832 0.208 0.208 0.208 0.208 0.208 0.416 0.208 0.416 0.208 0.416 0.208 0.416 0.208 0.208 0.208 0.208 0.208 0.416 0.208 0.624 0.208 0.208 0.208 0.416 0.208 0.208 0.208 0.208 0.208 0.832 0.208 0.208 0.208 0.208 0.208 0.416 0.208 0.208 0.208 0.624 0.208 0.416 0.208 0.208 0.208 0.416 0.208 0.416 0.208 0.416 0.208 0.416 0.208 0.208 0.208 0.208 0.208 0.416 0.208 0.624 0.208 0.208 0.208 0.416 0.208 0.208 0.208 0.208 0.208 0.832 0.208 0.208 0.208 0.208 0.208 0.416 0.208 0.208 0.208 0.624 0.208 0.416 0.208 0.208 0.208 0.416 0.208 0.208 0.208 0.624 0.208 0.208 0.208 0.416 0.208 0.208 0.208 0.416 0.208 0.416 0.208 0.416 0.208 0.416 0.208 0.208 0.208 0.208 0.208 0.832 0.208 0.208 0.208 0.208 0.208 0.416 0.208 0.208 0.208 0.624 0.208 0.416 0.208 0.208 0.208 0.208 0.208 0.416 0.208 0.416 0.208 0.416 0.208 0.416 0.208 0.208 0.208 0.416 0.208 0.416 0.208 0.416 0.208 0.208 0.208 0.416 0.208 0.208 0.208 0.624 0.208 0.208 0.208 0.416 0.208 0.416 0.208 0.208 0.208 0.624 0.208 0.208 0.208 0.208 0.208 0.416 0.208 0.416 0.208 0.416 0.208 0.416 0.208 0.416 0.208 0.208 0.208 0.208 0.208 0.624 0.208 0.208 0.208 0.416 0.208 0.416 0.208 0.208 0.208 0.624 0.208 0.208 0.208 0.416 0.208 0.208 0.208 0.416 0.208 0.624 0.208 0.208 0.208 0.208 0.208 0.416 0.208 0.208 0.208 0.624 0.208 0.416 0.208 0.208 0.208 0.208 0.208 0.416 0.208 0.624 0.208 0.208 0.208 0.416 0.208 0.416 0.208 0.208 0.208 0.624 0.208 0.208 0.208 0.208 0.208 0.416 0.208 0.416 0.208 0.624 0.208 0.208 0.208 0.208 0.208 0.416 0.208 0.208 0.208 0.624 0.208 0.416 0.208 0.208 0.208 0.208 0.208 0.416 0.208 0.624 0.208 0.208 0.208 0.208 0.208 0.416 0.208 0.208 0.208 0.832 0.208 0.208 0.208 0.208 0.208 0.416 0.208 0.208 0.208 0.624 0.208 0.416 0.208 0.208 0.208 0.208 0.208 0.416 0.208 0.416 0.208 0.416 0.208 0.416 0.208 0.208 0.208 0.416 0.208 0.624 0.208 0.208 0.208 0.416 0.208 0.208 0.208 0.208 0.208 0.624 0.208 0.416 0.208 0.208 0.208 0.208 0.208 0.416 0.208 0.624 0.208 0.416 0.208 0.208 0.208 0.208 0.208 0.416 0.208 0.416 0.208 0.416 0.208 0.416 0.208 0.208 0.208 0.208 0.208 0.624 0.208 0.208 0.208 0.208 0.208 0.208 0.208 0.208 0.208 0.416 0.416 0.208 0.416 0.208 0.208 0.416 0.416 0.208 0.624 0.208 0.416 0.208 0.416 0.208 0.416 0.208 0.832 0 3.12 0 0.832 0 0.416 -0.208 0.624 -0.208 0.208 -0.208 0.624 -0.208 0.416 -0.208 0 -0.416 0.416 0 0.208 -0.208 0.416 -0.208 0.208 -0.416 0.208 -0.208 0.208 -0.208 0.416 -0.208 0.208 -0.624 0 -0.416 0.416 0 0.208 -0.416 0.208 -0.416 0.208 -0.624 0.208 -0.208 0.208 -0.416 0.208 -0.208 0.208 -0.208 0.208 -0.624 0.208 -0.416 0.208 -0.416 0.208 -0.208 0.208 -0.208 0 -0.832 0.416 0 0.208 -0.416 0.208 -0.416 0.208 -0.208 0.208 -0.624 0 -0.416 0.416 0 0.208 -0.416 0.208 -0.416 0.208 -0.416 0.208 -0.416 0 -0.416 0.416 0 0.208 -0.416 0.208 -0.624 0.208 -0.416 0.208 -0.208 0.208 -0.416 0.208 -0.208 0.208 -0.624 0.208 -0.208 0.208 -0.208 0.208 -0.416 0.208 -0.416 0.208 -0.624 0.208 -0.208 0.208 -0.208 0.208 -0.416 0.208 -0.416 0.208 -0.416 0.208 -0.416 0 -0.416 0.416 0 0.208 -0.416 0.208 -0.624 0.208 -0.208 0.208 -0.416 0 -0.416 0.416 0 0.208 -0.832 0.208 -0.208 0.208 -0.416 0.208 -0.208 0.208 -0.416 0.208 -0.416 0.208 -0.416 0.208 -0.208 0.208 -0.208 0.208 -0.416 0.208 -0.624 0.208 -0.208 0.208 -0.416 0.208 -0.208 0.208 -0.416 0.208 -0.624 0.208 -0.208 0.208 -0.416 0.208 -0.208 0.208 -0.208 0.208 -0.832 0.208 -0.208 0.208 -0.208 0.208 -0.416 0.208 -0.416 0.208 -0.416 0.208 -0.416 0.208 -0.208 0.208 -0.416 0.208 -0.208 0.208 -0.624 0.208 -0.208 0.208 -0.416 0.208 -0.208 0.208 -0.208 0.208 -0.832 0.208 -0.208 0.208 -0.208 0.208 -0.416 0.208 -0.208 0.208 -0.624 0.208 -0.416 0.208 -0.208 0.208 -0.416 0.208 -0.208 0.208 -0.624 0.208 -0.208 0.208 -0.416 0.208 -0.208 0.208 -0.416 0.208 -0.416 0.208 -0.416 0.208 -0.416 0.208 -0.208 0.208 -0.208 0.208 -0.832 0.208 -0.208 0.208 -0.208 0.208 -0.416 0.208 -0.208 0.208 -0.624 0.208 -0.416 0.208 -0.208 0.208 -0.208 0.208 -0.416 0.208 -0.416 0.208 -0.416 0.208 -0.416 0.208 -0.208 0.208 -0.416 0.208 -0.416 0.208 -0.416 0.208 -0.208 0.208 -0.416 0.208 -0.208 0.208 -0.624 0.208 -0.208 0.208 -0.416 0.208 -0.416 0.208 -0.208 0.208 -0.624 0 -0.416 0.416 0 0.208 -0.416 0.208 -0.416 0.208 -0.624 0.208 -0.208 0.208 -0.416 0.208 -0.208 0.208 -0.208 0.208 -0.624 0.208 -0.416 0.208 -0.416 0.208 -0.208 0.208 -0.208 0.208 -0.624 0.208 -0.208 0.208 -0.416 0.208 -0.208 0.208 -0.416 0.208 -0.624 0.208 -0.208 0.208 -0.208 0.208 -0.416 0.208 -0.416 0.208 -0.416 0.208 -0.416 0 -0.416 0.416 0 0.208 -0.416 0.208 -0.624 0.208 -0.416 0.208 -0.208 0.208 -0.416 0.208 -0.208 0.208 -0.624 0.208 -0.208 0.208 -0.416 0.208 -0.416 0.208 -0.208 0.208 -0.624 0.208 -0.208 0.208 -0.208 0.208 -0.416 0.208 -0.208 0.208 -0.624 0.208 -0.416 0.208 -0.208 0.208 -0.208 0.208 -0.416 0.208 -0.624 0.208 -0.208 0.208 -0.416 0 -0.416 0.416 0 0.208 -0.832 0.208 -0.208 0.208 -0.416 0.208 -0.208 0.208 -0.416 0.208 -0.416 0.208 -0.416 0.208 -0.208 0.208 -0.416 0.208 -0.416 0.208 -0.416 0.208 -0.416 0.208 -0.208 0.208 -0.208 0.208 -0.416 0.208 -0.624 0.208 -0.208 0.208 -0.416 0 -0.416 0.416 0 0.208 -0.832 0.208 -0.208 0.208 -0.208 0.208 -0.416 0.208 -0.416 0.208 -0.624 0.208 -0.208 0.208 -0.208 0.208 -0.416 0.208 -0.208 0.208 -0.624 0.208 -0.416 0.208 -0.208 0.208 -0.208 0.208 -0.416 0.208 -0.624 0.208 -0.208 0.208 -0.416 0.208 -0.208 0.208 -0.208 0.208 -0.832 0.208 -0.208 0.208 -0.208 0.208 -0.416 0.208 -0.416 0.208 -0.416 0.208 -0.416 0.208 -0.208 0.208 -0.416 0.208 -0.208 0.208 -0.624 0.208 -0.416 0.208 -0.208 0.208 -0.208 0.208 -0.416 0.208 -0.624 0.208 -0.208 0.208 -0.416 0 -0.416 0.416 0 0.208 -0.832 0.208 -0.208 0.208 -0.416 0.208 -0.208 0.208 -0.416 0.208 -0.624 0.208 -0.208 0.208 -0.208 0.208 -0.416 0.208 -0.416 0.208 -0.416 0.208 -0.416 0.208 -0.208 0.208 -0.416 0.208 -0.208 0.208 -0.624 0.208 -0.416 0.208 -0.208 0.208 -0.416 0.208 -0.208 0.208 -0.832 0.208 -0.208 0.208 -0.416 0.208 -0.208 0.208 -0.208 0.208 -0.832 0.208 -0.208 0.208 -0.416 0.208 -0.416 0.208 -0.208 0 -1.04 0.416 0 0.208 -0.624 0.208 -0.416 0.208 -0.208 0.208 -0.832 0.208 -0.416 0.208 -0.624 0.208 -0.208 0.208 -0.624 0.208 -0.624 0.208 -0.624 0.208 -0.416 0.208 -0.624 0.208 -0.416 0.208 -1.04 0.208 -0.416 0.208 -0.624 0.208 -0.624 0.208 -0.416 0.208 -1.456 0.208 -0.416 0.208 -0.832 0.208 -0.624 0.208 -0.832 0.208 -1.456 0.208 -1.04 0.208 -0.624 0.208 -1.04 0.208 -1.04 0.208 -2.912 0.208 -1.248 0 -1.872 0 -10.192 0 -1.872 -0.208 -1.248 -0.208 -2.912 -0.208 -1.248 -0.208 -1.04 -0.208 -0.624 -0.208 -1.04 -0.208 -1.456 -0.208 -0.832 -0.208 -0.416 -0.208 -0.832 -0.208 -0.624 -0.208 -1.248 -0.208 -0.416 -0.208 -0.832 -0.208 -0.416 -0.208 -0.624 -0.208 -1.04 -0.208 -0.416 -0.208 -0.624 -0.208 -0.208 -0.208 -0.624 -0.208 -0.832 -0.208 -0.416 -0.208 -0.416 -0.208 -0.624 -0.208 -0.208 -0.208 -0.832 -0.208 -0.416 -0.208 -0.416 -0.208 -0.208 -0.208 -0.416 -0.208 -0.832 -0.208 -0.208 -0.208 -0.624 -0.416 0 0 -0.624 -0.208 -0.416 -0.208 -0.624 -0.208 -0.208 -0.208 -0.208 -0.208 -0.416 -0.208 -0.624 -0.208 -0.208 -0.208 -0.416 -0.208 -0.416 -0.416 0 0 -0.832 -0.208 -0.208 -0.208 -0.208 -0.208 -0.416 -0.208 -0.208 -0.208 -0.624 -0.208 -0.208 -0.208 -0.416 -0.416 0 0 -0.416 -0.208 -0.624 -0.416 -0.208 -0.208 -0.416 -0.208 -0.208 -0.208 -0.416 -0.208 -0.416 -0.208 -0.208 -0.208 -0.208 -0.208 -0.208 -0.208 -0.416 -0.208 -0.416 -0.416 -0.208 -0.208 -0.416 -0.208 -0.416 -0.208 -0.208 -0.208 -0.208 -0.208 -0.208 -0.208 -0.208 -0.208 -0.416 -0.208 -0.208 -0.208 -0.208 -0.208 -0.208 -0.208 -0.208 -0.208 -0.416 -0.208 -0.208 -0.208 -0.208 -0.208 -0.208 -0.416 0 0 -0.624 -0.208 -0.208 -0.208 -0.208 -0.416 -0.208 -0.208 -0.416 -0.208 -0.208 -0.208 -0.208 -0.416 -0.208 -0.208 -0.416 -0.208 -0.208 -0.208 -0.208 -0.416 -0.208 -0.208 -0.416 -0.208 -0.208 -0.208 -0.208 -0.416 -0.208 -0.208 -0.416 -0.208 -0.208 -0.208 -0.208 -0.416 -0.208 -0.208 -0.208 -0.208 -0.208 -0.208 -0.208 -0.208 -0.208 -0.416 0 0 -0.416 -0.208 -0.208 -0.416 -0.208 -0.208 -0.208 -0.208 -0.208 -0.208 -0.208 -0.208 -0.208 -0.416 -0.208 -0.208 -0.208 -0.208 -0.208 -0.416 -0.208 -0.208 -0.208 -0.208 -0.208 -0.208 -0.208 -0.416 -0.208 -0.208 -0.208 -0.208 -0.208 -0.208 -0.208 -0.208 -0.208 -0.624 -0.208 -0.208 -0.208 -0.208 -0.208 -0.208 -0.208 -0.416 -0.208 -0.416 -0.208 -0.208 -0.208 -0.416 0 0 -0.416 -0.416 -0.208 -0.624 0 0 -0.416 -0.416 -0.208 -0.208 -0.208 -0.416 -0.208 -0.416 -0.208 -0.416 -0.208 -0.208 -0.208 -0.208 -0.208 -0.416 -0.208 -0.416 -0.208 -0.416 -0.208 -0.416 -0.208 -0.208 -0.208 -0.416 -0.208 -0.624 -0.208 -0.208 -0.208 -0.416 -0.208 -0.416 -0.208 -0.208 -0.208 -0.832 -0.208 -0.208 -0.208 -0.416 -0.208 -0.416 -0.208 -0.208 -0.208 -0.832 -0.208 -0.416 -0.208 -0.416 -0.208 -0.208 -0.208 -0.624 -0.208 -0.832 -0.208 -0.416 -0.208 -0.208 -0.208 -0.624 -0.208 -0.416 -0.208 -1.04 -0.208 -0.416 -0.208 -0.624 -0.208 -0.416 -0.208 -0.624 -0.208 -1.04 -0.208 -0.624 -0.208 -0.416 -0.208 -0.624 -0.208 -0.624 -0.208 -1.456 -0.208 -0.624 -0.208 -0.624 -0.208 -1.04 -0.208 -0.624 -0.208 -1.872 -0.208 -0.832 -0.208 -1.456 -0.208 -1.04 -0.208 -1.248 -0.208 -16.224 0 -1.456 0.208z"/>
   <polygon id="_119605368" class="fil0" points="74.06,209 74.06,208.792 70.94,208.792 70.94,209 "/>
  </g>
 </g>
</svg>
