<?xml version="1.0" encoding="UTF-8"?>
<!DOCTYPE svg PUBLIC "-//W3C//DTD SVG 1.1//EN" "http://www.w3.org/Graphics/SVG/1.1/DTD/svg11.dtd">
<!-- Creator: CorelDRAW -->
<svg xmlns="http://www.w3.org/2000/svg" xml:space="preserve" width="106.68mm" height="76.2mm" style="shape-rendering:geometricPrecision; text-rendering:geometricPrecision; image-rendering:optimizeQuality; fill-rule:evenodd; clip-rule:evenodd"
viewBox="0 0 106.68 76.2"
 xmlns:xlink="http://www.w3.org/1999/xlink">
 <defs>
  <style type="text/css">
   <![CDATA[
    .fil0 {fill:#E56920}
    .fil2 {fill:white}
    .fil3 {fill:#DEDEDD;fill-rule:nonzero}
    .fil1 {fill:white;fill-rule:nonzero}
   ]]>
  </style>
 </defs>
 <g id="Layer_x0020_1">
  <metadata id="CorelCorpID_0Corel-Layer"/>
  <path class="fil0" d="M53.3398 7.817c9.0036,0 16.305,7.3014 16.305,16.3048 0,9.0037 -7.3014,16.3048 -16.305,16.3048 -9.0032,0 -16.3047,-7.3011 -16.3047,-16.3048 0,-9.0034 7.3015,-16.3048 16.3047,-16.3048z"/>
  <path class="fil1" d="M44.9235 31.2266l0.7577 -0.7551 12.4237 0 0 1.5103 -12.4237 0 -0.7577 -0.7552zm0.7577 -0.7551l0 1.5103 -0.0386 -0.0009 -0.0384 -0.0031 -0.0376 -0.0046 -0.0372 -0.0068 -0.0366 -0.0084 -0.0362 -0.0101 -0.0347 -0.0119 -0.0346 -0.0136 -0.0332 -0.015 -0.0326 -0.0168 -0.0318 -0.0181 -0.0304 -0.0196 -0.0297 -0.0211 -0.0286 -0.0225 -0.0276 -0.0236 -0.026 -0.025 -0.0252 -0.0262 -0.0237 -0.0274 -0.0222 -0.0286 -0.0211 -0.0297 -0.0196 -0.0306 -0.0183 -0.0316 -0.0168 -0.0326 -0.0148 -0.0334 -0.0135 -0.0344 -0.0122 -0.0349 -0.0101 -0.036 -0.0084 -0.0365 -0.0066 -0.0373 -0.0049 -0.0376 -0.003 -0.0384 -0.0007 -0.0389 0.0007 -0.0388 0.003 -0.0384 0.0049 -0.0377 0.0066 -0.0372 0.0084 -0.0365 0.0101 -0.036 0.0122 -0.0349 0.0135 -0.0344 0.0148 -0.0335 0.0168 -0.0325 0.0183 -0.0316 0.0196 -0.0306 0.0211 -0.0298 0.0222 -0.0285 0.0237 -0.0274 0.0252 -0.0262 0.026 -0.025 0.0276 -0.0237 0.0286 -0.0224 0.0297 -0.0211 0.0304 -0.0197 0.0318 -0.018 0.0326 -0.0168 0.0332 -0.015 0.0346 -0.0136 0.0347 -0.0119 0.0362 -0.0101 0.0366 -0.0084 0.0372 -0.0068 0.0376 -0.0047 0.0384 -0.003 0.0386 -0.0009zm-0.0086 -4.9355l0.7669 0.7552 0 4.9354 -1.516 0 0 -4.9354 0.7491 -0.7552zm0.7669 0.7552l-1.516 0 0.0007 -0.0391 0.003 -0.0384 0.0049 -0.0379 0.0066 -0.0374 0.0084 -0.0366 0.0105 -0.036 0.0117 -0.0351 0.0139 -0.0344 0.0149 -0.0337 0.0166 -0.0328 0.0183 -0.0315 0.0199 -0.0309 0.0211 -0.0298 0.0227 -0.0285 0.0238 -0.0274 0.0248 -0.0264 0.0265 -0.0251 0.0274 -0.0238 0.0287 -0.0225 0.0298 -0.0213 0.0306 -0.0197 0.0318 -0.0182 0.0328 -0.0166 0.0337 -0.0152 0.0342 -0.0136 0.0353 -0.012 0.0358 -0.0102 0.0365 -0.0085 0.0377 -0.0068 0.0377 -0.0046 0.0384 -0.0031 0.039 -0.0009 0.0393 0.0009 0.0384 0.0031 0.0379 0.0046 0.0372 0.0068 0.0368 0.0085 0.0358 0.0102 0.0351 0.012 0.0344 0.0136 0.0337 0.0152 0.0328 0.0166 0.0318 0.0182 0.0309 0.0197 0.0297 0.0213 0.0285 0.0225 0.0272 0.0238 0.0267 0.0251 0.0248 0.0264 0.0238 0.0274 0.0225 0.0285 0.0213 0.0298 0.0197 0.0309 0.0182 0.0315 0.0169 0.0328 0.0152 0.0337 0.0133 0.0344 0.0122 0.0351 0.0103 0.036 0.0084 0.0366 0.0068 0.0374 0.0047 0.0379 0.0028 0.0384 0.0012 0.0391zm-6.0796 -5.645l1.5103 0.065 0 0 -0.0089 0.4772 0.0188 0.4385 0.039 0.4039 0.0635 0.3738 0.0795 0.3414 0.0946 0.3099 0.1107 0.2857 0.1245 0.2595 0.1366 0.2345 0.1442 0.2132 0.1528 0.1933 0.1626 0.1771 0.1678 0.1592 0.1741 0.1425 0.1779 0.1266 0.1809 0.1147 0.1846 0.1013 0.183 0.0913 0.1809 0.0772 0.1786 0.0667 0.1755 0.0541 0.1699 0.0486 0.1598 0.0384 0.1475 0.0295 0.1371 0.0213 0.1245 0.0168 0.1072 0.0143 0.091 0.0059 0.0695 0.0053 0.0503 0.0024 0.0251 0.0007 -0.0007 0 0.0175 1.5104 -0.0285 0 -0.0553 -0.0008 -0.0793 -0.0023 -0.1053 -0.0054 -0.1268 -0.0119 -0.1484 -0.0143 -0.1659 -0.0229 -0.1842 -0.033 -0.201 -0.0412 -0.2134 -0.0506 -0.2233 -0.0603 -0.234 -0.078 -0.2441 -0.0901 -0.2516 -0.1067 -0.2544 -0.1212 -0.2557 -0.1425 -0.2577 -0.1624 -0.2551 -0.1856 -0.2508 -0.2076 -0.2448 -0.2302 -0.234 -0.2544 -0.224 -0.2818 -0.2092 -0.3082 -0.19 -0.3351 -0.1718 -0.3602 -0.1521 -0.3863 -0.1301 -0.4166 -0.1035 -0.442 -0.0751 -0.4683 -0.051 -0.4989 -0.0187 -0.5275 0.0089 -0.5539zm8.2302 -3.5745l1.4036 0.5565 -1.2939 0.1926 -0.0835 -0.0936 -0.1175 -0.1036 -0.1432 -0.1037 -0.1734 -0.1058 -0.1975 -0.1011 -0.2202 -0.0927 -0.2378 -0.0856 -0.2591 -0.0756 -0.2698 -0.0641 -0.2836 -0.0487 -0.293 -0.0386 -0.297 -0.0211 -0.3054 -0.0063 -0.3047 0.0126 -0.3028 0.0298 -0.2986 0.0447 -0.2953 0.0664 -0.2867 0.0836 -0.2796 0.1008 -0.2664 0.1227 -0.2548 0.1422 -0.2387 0.1599 -0.2251 0.1844 -0.2102 0.2036 -0.1961 0.23 -0.1771 0.2542 -0.1585 0.2792 -0.1383 0.3145 -0.1184 0.3442 -0.0943 0.3815 -0.0641 0.4191 -0.0389 0.4575 -1.5103 -0.065 0.0449 -0.5704 0.088 -0.5375 0.1235 -0.5055 0.1606 -0.4748 0.197 -0.4386 0.2296 -0.4097 0.2602 -0.3726 0.2846 -0.3367 0.3112 -0.3043 0.3317 -0.2672 0.3507 -0.2366 0.3618 -0.2017 0.3731 -0.1699 0.38 -0.1425 0.3878 -0.1131 0.3896 -0.0842 0.3934 -0.0625 0.3918 -0.0358 0.3877 -0.0126 0.3822 0.0063 0.3796 0.0271 0.3704 0.0447 0.3606 0.0665 0.3525 0.0819 0.336 0.099 0.3267 0.1156 0.3094 0.1338 0.2921 0.1484 0.274 0.1652 0.2558 0.1865 0.23 0.2043 0.2081 0.2298 -1.2944 0.1926zm0.1097 0.7491l1.1847 -0.9417 0.0231 0.0312 0.022 0.0318 0.0197 0.0325 0.0178 0.0335 0.0163 0.0339 0.0143 0.0344 0.0127 0.0349 0.0105 0.0353 0.0091 0.0356 0.0073 0.036 0.0056 0.0361 0.0033 0.0362 0.0023 0.0366 0.0002 0.0362 -0.0016 0.0363 -0.0035 0.0363 -0.0049 0.0358 -0.0068 0.0358 -0.0084 0.0353 -0.0101 0.0351 -0.0115 0.0344 -0.0138 0.034 -0.015 0.0334 -0.0166 0.0328 -0.0185 0.032 -0.0201 0.0312 -0.022 0.0304 -0.0231 0.0292 -0.0251 0.0284 -0.0269 0.0273 -0.0281 0.0263 -0.0299 0.025 -0.0312 0.0234 -0.0316 0.0218 -0.0325 0.0196 -0.0334 0.018 -0.034 0.0162 -0.0344 0.0143 -0.0351 0.0126 -0.0353 0.0108 -0.0354 0.0089 -0.0362 0.0072 -0.0358 0.0056 -0.0365 0.0035 -0.0363 0.0021 -0.0363 0.0003 -0.0365 -0.0017 -0.036 -0.0032 -0.0361 -0.005 -0.0358 -0.0067 -0.0353 -0.0085 -0.0351 -0.01 -0.0344 -0.0117 -0.034 -0.0136 -0.0334 -0.0152 -0.0328 -0.0166 -0.0318 -0.0185 -0.0311 -0.0201 -0.0307 -0.0218 -0.0292 -0.0234 -0.0284 -0.025 -0.0273 -0.0267 -0.026 -0.0281 -0.0251 -0.03zm5.2692 -0.8972l1.0716 1.0662 -1.1221 -0.0564 -0.1987 -0.2277 -0.1935 -0.1968 -0.1875 -0.1673 -0.1849 -0.1395 -0.1811 -0.1189 -0.1704 -0.0934 -0.1694 -0.073 -0.164 -0.0561 -0.1582 -0.0412 -0.1578 -0.0276 -0.1514 -0.0122 -0.1558 -0.0014 -0.1484 0.0107 -0.1491 0.022 -0.1434 0.0286 -0.1463 0.0395 -0.139 0.0497 -0.135 0.0547 -0.1334 0.0588 -0.125 0.0671 -0.1224 0.0684 -0.113 0.0741 -0.1065 0.0723 -0.0959 0.0724 -0.0883 0.0709 -0.0769 0.0678 -0.063 0.0609 -0.0529 0.0547 -0.0379 0.0419 -0.0185 0.0216 0.0042 -0.0061 0.0386 -0.0801 -1.4036 -0.5565 0.0798 -0.1572 0.0728 -0.1063 0.0777 -0.0983 0.0849 -0.0952 0.0948 -0.0964 0.1102 -0.102 0.1187 -0.1035 0.1294 -0.1065 0.1439 -0.1078 0.1535 -0.1079 0.1664 -0.1037 0.1755 -0.1039 0.1905 -0.0971 0.1985 -0.0943 0.212 -0.0843 0.2218 -0.073 0.2291 -0.0634 0.2441 -0.0524 0.2495 -0.0337 0.2607 -0.0169 0.263 0.0014 0.2757 0.0244 0.2761 0.0454 0.283 0.0706 0.2822 0.0979 0.2815 0.1259 0.2837 0.1528 0.2754 0.1778 0.2738 0.2106 0.2705 0.2385 0.2647 0.268 0.2577 0.2988 -1.1222 -0.0564zm-0.0505 1.0098l1.1727 -0.9534 0.0238 0.0309 0.0216 0.0316 0.0201 0.0323 0.0185 0.033 0.0166 0.0337 0.0145 0.0341 0.0129 0.0349 0.0112 0.0351 0.0094 0.0356 0.0077 0.0358 0.0056 0.036 0.0042 0.0361 0.0023 0.0362 0.001 0.0363 -0.0012 0.0363 -0.003 0.0363 -0.0047 0.0358 -0.0061 0.0358 -0.0082 0.0353 -0.0098 0.0351 -0.0112 0.0346 -0.0132 0.0342 -0.0145 0.0335 -0.0166 0.0327 -0.018 0.0323 -0.0199 0.0314 -0.0213 0.0304 -0.0232 0.0297 -0.0243 0.0286 -0.0264 0.0276 -0.0281 0.0264 -0.0295 0.0253 -0.0307 0.0239 -0.0318 0.0218 -0.0323 0.0201 -0.033 0.0185 -0.0337 0.0163 -0.0341 0.0148 -0.0347 0.0129 -0.0351 0.0112 -0.0356 0.0094 -0.036 0.0077 -0.0358 0.0056 -0.0363 0.0042 -0.036 0.0023 -0.0365 0.0008 -0.0361 -0.0012 -0.0362 -0.0031 -0.0358 -0.0044 -0.0361 -0.0063 -0.0353 -0.008 -0.0349 -0.0098 -0.0348 -0.0112 -0.034 -0.0132 -0.0337 -0.0147 -0.0327 -0.0164 -0.0323 -0.018 -0.0314 -0.0199 -0.0302 -0.0213 -0.0297 -0.0231 -0.0288 -0.0246 -0.0274 -0.0262 -0.0266 -0.0281 -0.0253 -0.0295zm3.5 -2.5372l0.0063 1.5103 0 0 -0.113 0.0047 -0.1142 0.0089 -0.1142 0.0154 -0.1152 0.0185 -0.1093 0.0244 -0.1121 0.0264 -0.1092 0.0337 -0.1096 0.0353 -0.1055 0.0391 -0.1053 0.0424 -0.1013 0.0452 -0.0974 0.0472 -0.0964 0.0494 -0.0955 0.0505 -0.0908 0.0515 -0.0859 0.052 -0.0812 0.0519 -0.0796 0.0543 -0.0744 0.0506 -0.072 0.0491 -0.0632 0.0499 -0.0609 0.0447 -0.055 0.0447 -0.0491 0.0386 -0.0457 0.0377 -0.0367 0.0362 -0.0332 0.0255 -0.0232 0.0234 -0.0196 0.0178 -0.012 0.0115 -0.0084 0.0079 0.0049 -0.0051 -1.0716 -1.0662 0.0127 -0.0126 0.014 -0.0136 0.0241 -0.0236 0.0311 -0.0295 0.0412 -0.0351 0.045 -0.0433 0.0542 -0.0424 0.0579 -0.0494 0.0664 -0.0564 0.0728 -0.0564 0.0786 -0.0624 0.0875 -0.0621 0.0897 -0.0669 0.098 -0.0679 0.103 -0.0664 0.1112 -0.0697 0.1156 -0.0698 0.1203 -0.0693 0.1249 -0.0683 0.132 -0.0672 0.1388 -0.065 0.143 -0.063 0.1467 -0.0596 0.153 -0.0569 0.1564 -0.0531 0.1626 -0.0459 0.1657 -0.0442 0.1746 -0.0361 0.1743 -0.0302 0.1795 -0.0215 0.1849 -0.015 0.1898 -0.0046zm5.82 5.8418l-1.5106 0 0 0 -0.0105 -0.381 -0.0269 -0.3552 -0.0424 -0.33 -0.0589 -0.3077 -0.0695 -0.2841 -0.0812 -0.2605 -0.0932 -0.2436 -0.1034 -0.2247 -0.1126 -0.2057 -0.121 -0.1881 -0.1287 -0.1737 -0.1348 -0.1598 -0.1411 -0.1472 -0.1481 -0.1346 -0.1519 -0.1231 -0.161 -0.1116 -0.1655 -0.1016 -0.1689 -0.0943 -0.1725 -0.0823 -0.1767 -0.0768 -0.1776 -0.0629 -0.1811 -0.0586 -0.1798 -0.0521 -0.1808 -0.0401 -0.1784 -0.0376 -0.1769 -0.0274 -0.1727 -0.0229 -0.1697 -0.0197 -0.1659 -0.0108 -0.1554 -0.0089 -0.15 -0.0044 -0.146 -0.0005 -0.0063 -1.5103 0.1703 0.0004 0.1854 0.0045 0.1966 0.0089 0.2015 0.0168 0.2113 0.0197 0.22 0.029 0.2241 0.0391 0.2317 0.0437 0.234 0.0578 0.2392 0.0639 0.2403 0.0763 0.243 0.0925 0.2422 0.1006 0.2426 0.1179 0.2404 0.1299 0.2366 0.1488 0.2319 0.165 0.2291 0.1821 0.2193 0.1996 0.212 0.2184 0.1998 0.237 0.1882 0.2565 0.1743 0.2771 0.1599 0.2946 0.1448 0.3131 0.1283 0.3326 0.1116 0.3554 0.0927 0.3726 0.0714 0.3911 0.0538 0.4128 0.0327 0.432 0.011 0.4521zm-4.3892 5.0237l-1.5104 0 0.7966 -0.7552 -0.0051 0.0005 0.022 0.0011 0.0449 0.0003 0.0653 -0.0014 0.0791 -0.004 0.0994 -0.008 0.11 -0.0096 0.1238 -0.0156 0.1344 -0.023 0.1455 -0.0276 0.1519 -0.0339 0.1605 -0.0442 0.1634 -0.0555 0.1654 -0.0616 0.1688 -0.0751 0.167 -0.0835 0.1678 -0.0992 0.1627 -0.1096 0.1619 -0.1212 0.1578 -0.1369 0.1507 -0.1535 0.1429 -0.1715 0.1391 -0.1903 0.1308 -0.2071 0.1205 -0.2343 0.1121 -0.2562 0.0987 -0.2822 0.0838 -0.3094 0.0707 -0.3403 0.0524 -0.3697 0.0328 -0.4058 0.0114 -0.4402 1.5106 0 -0.0114 0.5169 -0.0391 0.4891 -0.0639 0.4643 -0.0887 0.4353 -0.1135 0.41 -0.1345 0.3829 -0.1533 0.3568 -0.1739 0.3288 -0.1903 0.3078 -0.204 0.2792 -0.2195 0.2543 -0.2282 0.2308 -0.2345 0.208 -0.2394 0.1863 -0.2453 0.1629 -0.2443 0.1404 -0.2445 0.1252 -0.2397 0.1046 -0.2363 0.091 -0.2291 0.0733 -0.2193 0.062 -0.2111 0.0517 -0.1991 0.0398 -0.1872 0.0286 -0.1716 0.0217 -0.1572 0.0157 -0.1353 0.008 -0.1203 0.0039 -0.095 0.0014 -0.0744 -0.0002 -0.0515 -0.0012 -0.0302 -0.0004 0.7964 -0.7552zm-0.7138 -0.7552l-0.0826 1.5104 -0.0391 -0.0031 -0.0381 -0.0051 -0.0372 -0.0068 -0.037 -0.0087 -0.0363 -0.0105 -0.0353 -0.0119 -0.0342 -0.0138 -0.0337 -0.0155 -0.0325 -0.0171 -0.0316 -0.0185 -0.0307 -0.0199 -0.0297 -0.0212 -0.0283 -0.0227 -0.0271 -0.0239 -0.026 -0.0253 -0.0251 -0.0264 -0.0236 -0.0277 -0.022 -0.0287 -0.0208 -0.0298 -0.0197 -0.0306 -0.018 -0.0318 -0.0164 -0.0326 -0.015 -0.0334 -0.0131 -0.0344 -0.0117 -0.0351 -0.0098 -0.0356 -0.0082 -0.0365 -0.0068 -0.037 -0.0044 -0.0377 -0.0028 -0.0379 -0.001 -0.0386 0.0012 -0.0388 0.0031 -0.0389 0.0051 -0.0381 0.007 -0.0375 0.0087 -0.0369 0.0103 -0.0361 0.0121 -0.0353 0.0139 -0.0344 0.0152 -0.0335 0.0173 -0.0325 0.0185 -0.0318 0.0199 -0.0305 0.0213 -0.0297 0.0227 -0.0283 0.0238 -0.0274 0.0251 -0.026 0.0264 -0.025 0.0279 -0.0234 0.0285 -0.0222 0.0297 -0.0209 0.0309 -0.0194 0.0316 -0.018 0.0325 -0.0166 0.0337 -0.0148 0.0342 -0.0133 0.0353 -0.0117 0.0354 -0.0098 0.0367 -0.0082 0.037 -0.0066 0.0377 -0.0047 0.0377 -0.0025 0.0388 -0.001 0.0386 0.0012zm-0.0306 6.4753l0 -1.5103 -0.755 0.7551 -0.0002 -0.1479 -0.0007 -0.1493 -0.0003 -0.1507 -0.0002 -0.1519 -0.0002 -0.153 -0.0007 -0.154 -0.0003 -0.1549 -0.0002 -0.1556 -0.0002 -0.1566 -0.0007 -0.1572 -0.0003 -0.1575 -0.0002 -0.1582 -0.0002 -0.1587 -0.0003 -0.1589 -0.0007 -0.1589 -0.0002 -0.1591 0 -0.1592 -0.0005 -0.1589 -0.0004 -0.1589 -0.0005 -0.1586 0 -0.1582 -0.0002 -0.1575 -0.0007 -0.1573 -0.0003 -0.1565 -0.0002 -0.1557 -0.0002 -0.1549 -0.0008 -0.154 -0.0002 -0.153 -0.0002 -0.1519 -0.0003 -0.1507 -0.0007 -0.1493 -0.0002 -0.1479 1.5104 0 0.0004 0.1479 0.0005 0.1493 0 0.1507 0.0005 0.1519 0.0004 0.153 0.0005 0.154 0 0.1549 0.0005 0.1557 0.0004 0.1565 0.0005 0.1573 0 0.1575 0.0003 0.1582 0.0007 0.1586 0.0002 0.1589 0.0002 0.1589 0.0003 0.1592 0.0002 0.1591 0.0007 0.1589 0.0002 0.1589 0.0003 0.1587 0.0002 0.1582 0.0005 0.1575 0.0004 0.1572 0 0.1566 0.0005 0.1556 0.0005 0.1549 0.0004 0.154 0 0.153 0.0005 0.1519 0.0005 0.1507 0.0004 0.1493 0 0.1479 -0.7551 0.7552zm-0.755 -0.7552l1.5101 0 -0.0009 0.0389 -0.003 0.0384 -0.0045 0.0376 -0.007 0.0373 -0.0084 0.0365 -0.0101 0.036 -0.0117 0.0349 -0.0138 0.0344 -0.015 0.0334 -0.0166 0.0326 -0.018 0.0316 -0.0197 0.0306 -0.0213 0.0297 -0.0224 0.0286 -0.0237 0.0274 -0.0248 0.0262 -0.0264 0.025 -0.0272 0.0236 -0.0285 0.0225 -0.0297 0.0211 -0.0309 0.0196 -0.0314 0.0181 -0.0325 0.0168 -0.0337 0.015 -0.0342 0.0136 -0.0351 0.0119 -0.0358 0.0101 -0.0365 0.0084 -0.0372 0.0068 -0.0379 0.0046 -0.0382 0.0031 -0.039 0.0009 -0.0387 -0.0009 -0.0383 -0.0031 -0.0379 -0.0046 -0.037 -0.0068 -0.0368 -0.0084 -0.0358 -0.0101 -0.0351 -0.0119 -0.0341 -0.0136 -0.0337 -0.015 -0.0326 -0.0168 -0.0313 -0.0181 -0.0309 -0.0196 -0.0297 -0.0211 -0.0284 -0.0225 -0.0273 -0.0236 -0.0265 -0.025 -0.025 -0.0262 -0.0234 -0.0274 -0.0225 -0.0286 -0.021 -0.0297 -0.0199 -0.0306 -0.0181 -0.0316 -0.0168 -0.0326 -0.0147 -0.0334 -0.0139 -0.0344 -0.0117 -0.0349 -0.01 -0.036 -0.0084 -0.0365 -0.0068 -0.0373 -0.0047 -0.0376 -0.0031 -0.0384 -0.0009 -0.0389z"/>
  <path class="fil1" d="M60.2092 21.1535l-1.4863 0.2841 -0.0063 -0.0384 -0.0047 -0.0384 -0.0021 -0.0381 -0.0007 -0.0377 0.0014 -0.0377 0.0035 -0.0372 0.0049 -0.0367 0.0068 -0.0363 0.0087 -0.0358 0.0105 -0.0351 0.0119 -0.0346 0.0136 -0.0337 0.015 -0.0332 0.0166 -0.0323 0.0185 -0.0314 0.0196 -0.0307 0.0211 -0.0294 0.0225 -0.0286 0.0236 -0.0274 0.0253 -0.0262 0.0267 -0.0253 0.0273 -0.0236 0.0291 -0.0227 0.0301 -0.0211 0.0312 -0.0198 0.0323 -0.0183 0.0334 -0.0166 0.0344 -0.0152 0.0354 -0.0136 0.0362 -0.0119 0.0373 -0.0101 0.0381 -0.0082 0.0384 -0.0063 0.0381 -0.0045 0.0384 -0.0023 0.0377 -0.0005 0.0374 0.0014 0.0372 0.0033 0.0368 0.0052 0.0362 0.0068 0.0358 0.0086 0.0352 0.0103 0.0348 0.0119 0.0335 0.0136 0.0335 0.0152 0.0322 0.0166 0.0314 0.0183 0.0307 0.0197 0.0292 0.021 0.0288 0.0225 0.0274 0.0239 0.026 0.0252 0.0252 0.0265 0.0237 0.0276 0.0227 0.029 0.0213 0.0302 0.0196 0.0311 0.0185 0.0323 0.0166 0.0332 0.015 0.0344 0.0138 0.0354 0.0117 0.0363 0.0103 0.0372 0.008 0.0381zm-1.234 3.3519l-0.758 -1.3087 0 0 0.0627 -0.04 0.0508 -0.037 0.0512 -0.043 0.0429 -0.0475 0.0416 -0.0494 0.0396 -0.0503 0.0353 -0.0599 0.0346 -0.0595 0.0281 -0.0648 0.0283 -0.0667 0.0253 -0.0707 0.0227 -0.0744 0.0183 -0.0774 0.0161 -0.0773 0.0122 -0.0788 0.011 -0.0808 0.0072 -0.0753 0.0071 -0.0817 0.0044 -0.0753 0.0016 -0.0721 -0.0004 -0.0766 -0.0024 -0.0657 -0.0037 -0.0634 -0.0049 -0.0574 -0.0026 -0.054 -0.0059 -0.0468 -0.0058 -0.0396 -0.0026 -0.0313 -0.0054 -0.0255 -0.0011 -0.0167 0.0004 -0.0037 -0.0009 0.0035 1.4863 -0.2841 0.0011 0.0143 0.0056 0.0271 0.0071 0.0344 0.0051 0.0433 0.0087 0.0553 0.0061 0.0629 0.0056 0.0707 0.0086 0.0779 0.0052 0.0868 0.0035 0.0929 0.0023 0.1014 0.0003 0.1004 -0.0014 0.1132 -0.0045 0.117 -0.007 0.1173 -0.0136 0.1287 -0.0171 0.128 -0.0234 0.1322 -0.028 0.1362 -0.0359 0.1369 -0.0407 0.1395 -0.0493 0.1418 -0.0576 0.1435 -0.0698 0.142 -0.076 0.1423 -0.0885 0.1367 -0.099 0.1392 -0.1121 0.1322 -0.1263 0.1248 -0.1339 0.1198 -0.1514 0.1142 -0.1577 0.099zm-2.2578 0.0252l-1.516 0 0.7699 -0.7551 -0.0023 0 0.0065 -0.0026 0.0141 0.0026 0.0241 -0.0003 0.0252 -0.0007 0.0354 -0.0011 0.0386 -0.0019 0.0451 -0.0028 0.0508 -0.0038 0.0567 -0.0047 0.0615 -0.003 0.0672 -0.0075 0.0714 -0.0089 0.0734 -0.0075 0.0775 -0.0121 0.084 -0.0117 0.0847 -0.0162 0.0882 -0.0157 0.0883 -0.0177 0.094 -0.0206 0.0932 -0.023 0.095 -0.0229 0.0976 -0.0288 0.0987 -0.0288 0.0969 -0.0348 0.0978 -0.0326 0.1016 -0.0388 0.0962 -0.0424 0.099 -0.0433 0.0957 -0.047 0.0983 -0.048 0.0915 -0.0522 0.758 1.3087 -0.139 0.076 -0.1334 0.0719 -0.1374 0.0648 -0.1346 0.0611 -0.1378 0.054 -0.1308 0.0506 -0.1334 0.0503 -0.1327 0.0409 -0.1285 0.0405 -0.1266 0.0349 -0.1249 0.0346 -0.1231 0.0291 -0.1175 0.0262 -0.118 0.0238 -0.1116 0.0218 -0.1086 0.0161 -0.102 0.0174 -0.1009 0.0121 -0.0968 0.0136 -0.0897 0.0089 -0.0847 0.0075 -0.0796 0.0091 -0.0741 0.0047 -0.0688 0.0037 -0.0628 0.0028 -0.0564 0.0019 -0.047 0.0012 -0.0433 0.0007 -0.0299 0.0002 -0.0258 0.0031 -0.018 -0.0031 -0.0101 0 0.77 -0.7552zm-1.516 0l0 -0.7699 0.7699 0.0148 -0.7699 0.7551zm0 3.1806l0 -3.1806 1.516 0 0 3.1806 -1.516 0zm0 0l1.516 0 -0.0012 0.0391 -0.0031 0.0384 -0.0044 0.0379 -0.0068 0.0374 -0.0086 0.0365 -0.0101 0.0361 -0.0122 0.0351 -0.0133 0.0344 -0.0152 0.0337 -0.0169 0.0327 -0.0182 0.0316 -0.0197 0.0309 -0.0213 0.0297 -0.0222 0.0286 -0.0239 0.0274 -0.025 0.0264 -0.0267 0.025 -0.0272 0.0239 -0.0285 0.0225 -0.0297 0.0213 -0.0309 0.0196 -0.0316 0.0183 -0.033 0.0166 -0.0335 0.0152 -0.0346 0.0136 -0.0349 0.0119 -0.0362 0.0103 -0.0366 0.0084 -0.0372 0.0068 -0.0381 0.0047 -0.0382 0.0031 -0.0393 0.0009 -0.0388 -0.0009 -0.0384 -0.0031 -0.0379 -0.0047 -0.0377 -0.0068 -0.0363 -0.0084 -0.0362 -0.0103 -0.0351 -0.0119 -0.0342 -0.0136 -0.0339 -0.0152 -0.0328 -0.0166 -0.0314 -0.0183 -0.0308 -0.0196 -0.0298 -0.0213 -0.0285 -0.0225 -0.0276 -0.0239 -0.0262 -0.025 -0.0251 -0.0264 -0.0241 -0.0274 -0.0224 -0.0286 -0.0213 -0.0297 -0.0197 -0.0309 -0.0183 -0.0316 -0.0163 -0.0327 -0.0152 -0.0337 -0.0139 -0.0344 -0.0117 -0.0351 -0.0103 -0.0361 -0.0084 -0.0365 -0.0068 -0.0374 -0.0046 -0.0379 -0.0033 -0.0384 -0.0007 -0.0391z"/>
  <path class="fil2" d="M39.1385 9.9203c7.1762,-7.1764 18.8117,-7.1764 25.9879,0 7.1762,7.1762 7.1762,18.8117 0,25.9879 -7.1762,7.1764 -18.8117,7.1764 -25.9879,0 -7.1767,-7.1762 -7.1767,-18.8117 0,-25.9879zm2.7018 2.7018c5.6841,-5.6843 14.9,-5.6843 20.5843,0 5.6841,5.6841 5.6841,14.9 0,20.5843 -5.6843,5.6844 -14.9002,5.6844 -20.5843,0 -5.6844,-5.6843 -5.6844,-14.9002 0,-20.5843z"/>
  <path class="fil2" d="M65.7 36.4822l0.0002 0c0.8406,-0.8403 2.215,-0.8403 3.0553,0l3.5382 3.538c0.8404,0.8403 0.8406,2.2149 0,3.0553l0 0.0002c-0.8404,0.8402 -2.2152,0.8402 -3.0556,0l-3.5381 -3.5381c-0.8402,-0.8401 -0.8402,-2.215 0,-3.0554z"/>
  <path class="fil1" d="M24.1868 60.668l-1.938 0 0 -4.0283 -3.9533 0 0 4.0283 -1.9448 0 0 -9.6924 1.9448 0 0 4.1669 3.9533 0 0 -4.1669 1.938 0 0 9.6924zm1.3564 -3.667c0,-1.0747 0.2999,-1.9539 0.8997,-2.6401 0.5976,-0.6861 1.4291,-1.0292 2.4901,-1.0292 1.0633,0 1.8972,0.3408 2.5015,1.0247 0.6044,0.6839 0.9065,1.5654 0.9065,2.6446l0 0.1386c0,1.0837 -0.3021,1.9653 -0.9019,2.6469 -0.6021,0.6816 -1.4337,1.0224 -2.4947,1.0224 -1.0633,0 -1.8971,-0.3408 -2.4992,-1.0224 -0.5998,-0.6816 -0.902,-1.5632 -0.902,-2.6469l0 -0.1386zm1.938 0.1386c0,0.6589 0.1159,1.186 0.3454,1.5836 0.2317,0.3976 0.6043,0.5952 1.1178,0.5952 0.5021,0 0.8702,-0.1999 1.1019,-0.5998 0.234,-0.3998 0.3499,-0.9247 0.3499,-1.579l0 -0.1386c0,-0.6407 -0.1181,-1.161 -0.3522,-1.5654 -0.2362,-0.4044 -0.6066,-0.6066 -1.111,-0.6066 -0.5021,0 -0.8701,0.2022 -1.1019,0.6089 -0.234,0.4066 -0.3499,0.9269 -0.3499,1.5631l0 0.1386zm8.3678 -5.4369l0 1.7631 1.211 0 0 1.3654 -1.211 0 0 3.667c0,0.2795 0.0568,0.4794 0.1727,0.5998 0.1159,0.1205 0.2704,0.1795 0.4658,0.1795 0.1022,0 0.1885,-0.0045 0.2635,-0.0159 0.0727,-0.0113 0.1591,-0.0318 0.2568,-0.0568l0.1658 1.4041c-0.1954,0.0659 -0.3862,0.1159 -0.5725,0.15 -0.1863,0.0341 -0.3885,0.05 -0.6067,0.05 -0.6702,0 -1.1859,-0.1841 -1.5472,-0.5521 -0.3612,-0.3681 -0.543,-0.952 -0.543,-1.7517l0 -3.6739 -1.0519 0 0 -1.3654 1.0519 0 0 -1.7631 1.9448 0zm5.6368 9.1062c-1.0383,0 -1.8676,-0.334 -2.4878,-0.9997 -0.6225,-0.6657 -0.9315,-1.5109 -0.9315,-2.5356l0 -0.2658c0,-1.0701 0.2931,-1.9516 0.8815,-2.6446 0.5885,-0.693 1.3768,-1.036 2.3652,-1.0315 0.9724,0 1.7267,0.2931 2.2629,0.8793 0.5384,0.5862 0.8065,1.3768 0.8065,2.3765l0 1.0587 -4.3009 0 -0.0136 0.0409c0.0364,0.4749 0.1954,0.8657 0.4771,1.1724 0.2818,0.3067 0.6634,0.4589 1.1474,0.4589 0.4317,0 0.7884,-0.0431 1.0724,-0.1295 0.284,-0.0863 0.5952,-0.2226 0.9315,-0.4089l0.5271 1.1973c-0.2931,0.2386 -0.6771,0.4385 -1.1519,0.5953 -0.4749,0.1567 -1.0042,0.2363 -1.5859,0.2363zm-0.1726 -5.9799c-0.359,0 -0.643,0.1386 -0.852,0.4135 -0.2091,0.2749 -0.3363,0.6384 -0.3863,1.086l0.0205 0.0341 2.3833 0 0 -0.1727c0,-0.4135 -0.0977,-0.7452 -0.2885,-0.9906 -0.1932,-0.2477 -0.4863,-0.3703 -0.877,-0.3703zm6.2457 5.839l-1.9448 0 0 -10.383 1.9448 0 0 10.383zm5.8186 -9.6924l1.9357 0 0 6.7842c0,0.9361 -0.3044,1.679 -0.9156,2.2266 -0.6089,0.5476 -1.3814,0.8225 -2.3129,0.8225 -1.011,0 -1.813,-0.2454 -2.4015,-0.7384 -0.5907,-0.4931 -0.8747,-1.2178 -0.852,-2.1766l0.0114 -0.0409 1.8903 0c0,0.5112 0.1227,0.8838 0.368,1.1155 0.2432,0.2341 0.5726,0.3499 0.9838,0.3499 0.359,0 0.6657,-0.1386 0.9156,-0.4157 0.25,-0.2772 0.3772,-0.6589 0.3772,-1.1429l0 -6.7842zm3.2603 6.0254c0,-1.0747 0.2999,-1.9539 0.8997,-2.6401 0.5976,-0.6861 1.4291,-1.0292 2.4901,-1.0292 1.0633,0 1.8972,0.3408 2.5015,1.0247 0.6044,0.6839 0.9065,1.5654 0.9065,2.6446l0 0.1386c0,1.0837 -0.3021,1.9653 -0.9019,2.6469 -0.6021,0.6816 -1.4337,1.0224 -2.4947,1.0224 -1.0633,0 -1.8971,-0.3408 -2.4992,-1.0224 -0.5998,-0.6816 -0.902,-1.5632 -0.902,-2.6469l0 -0.1386zm1.938 0.1386c0,0.6589 0.1159,1.186 0.3454,1.5836 0.2317,0.3976 0.6043,0.5952 1.1178,0.5952 0.5021,0 0.8702,-0.1999 1.1019,-0.5998 0.234,-0.3998 0.3499,-0.9247 0.3499,-1.579l0 -0.1386c0,-0.6407 -0.1181,-1.161 -0.3522,-1.5654 -0.2362,-0.4044 -0.6066,-0.6066 -1.111,-0.6066 -0.5021,0 -0.8701,0.2022 -1.1019,0.6089 -0.234,0.4066 -0.3499,0.9269 -0.3499,1.5631l0 0.1386zm12.5551 0.1272c0,1.0747 -0.2408,1.9335 -0.7202,2.5765 -0.4794,0.6429 -1.1723,0.9656 -2.0766,0.9656 -0.418,0 -0.7816,-0.0886 -1.0951,-0.2636 -0.3135,-0.1749 -0.5771,-0.4317 -0.7952,-0.7702l-0.1454 0.8929 -1.6654 0 0 -10.383 1.938 0 0 3.9442c0.2068,-0.2863 0.4567,-0.509 0.7475,-0.6635 0.2908,-0.1567 0.6248,-0.234 1.002,-0.234 0.9156,0 1.6108,0.3454 2.0902,1.036 0.4794,0.6907 0.7202,1.6086 0.7202,2.7583l0 0.1408zm-1.938 -0.1408c0,-0.6998 -0.1022,-1.2565 -0.309,-1.6677 -0.2067,-0.4112 -0.5589,-0.6157 -1.0565,-0.6157 -0.2999,0 -0.5566,0.0636 -0.7656,0.1908 -0.2068,0.125 -0.3726,0.3068 -0.4908,0.5408l0 3.0513c0.1182,0.2181 0.284,0.3839 0.4953,0.4998 0.2113,0.1159 0.4681,0.1727 0.7748,0.1727 0.5021,0 0.852,-0.1772 1.0519,-0.5294 0.2,-0.3522 0.2999,-0.8543 0.2999,-1.5018l0 -0.1408zm9.6333 0.1408c0,1.0747 -0.2408,1.9335 -0.7202,2.5765 -0.4794,0.6429 -1.1723,0.9656 -2.0766,0.9656 -0.418,0 -0.7816,-0.0886 -1.0951,-0.2636 -0.3135,-0.1749 -0.5771,-0.4317 -0.7952,-0.7702l-0.1454 0.8929 -1.6654 0 0 -10.383 1.938 0 0 3.9442c0.2068,-0.2863 0.4567,-0.509 0.7475,-0.6635 0.2908,-0.1567 0.6248,-0.234 1.002,-0.234 0.9156,0 1.6108,0.3454 2.0902,1.036 0.4794,0.6907 0.7202,1.6086 0.7202,2.7583l0 0.1408zm-1.938 -0.1408c0,-0.6998 -0.1022,-1.2565 -0.309,-1.6677 -0.2067,-0.4112 -0.5589,-0.6157 -1.0565,-0.6157 -0.2999,0 -0.5566,0.0636 -0.7656,0.1908 -0.2068,0.125 -0.3726,0.3068 -0.4908,0.5408l0 3.0513c0.1182,0.2181 0.284,0.3839 0.4953,0.4998 0.2113,0.1159 0.4681,0.1727 0.7748,0.1727 0.5021,0 0.852,-0.1772 1.0519,-0.5294 0.2,-0.3522 0.2999,-0.8543 0.2999,-1.5018l0 -0.1408zm6.323 3.6829c-1.0383,0 -1.8676,-0.334 -2.4878,-0.9997 -0.6225,-0.6657 -0.9315,-1.5109 -0.9315,-2.5356l0 -0.2658c0,-1.0701 0.2931,-1.9516 0.8815,-2.6446 0.5885,-0.693 1.3768,-1.036 2.3652,-1.0315 0.9724,0 1.7267,0.2931 2.2629,0.8793 0.5384,0.5862 0.8065,1.3768 0.8065,2.3765l0 1.0587 -4.3009 0 -0.0136 0.0409c0.0364,0.4749 0.1954,0.8657 0.4771,1.1724 0.2818,0.3067 0.6634,0.4589 1.1474,0.4589 0.4317,0 0.7884,-0.0431 1.0724,-0.1295 0.284,-0.0863 0.5952,-0.2226 0.9315,-0.4089l0.5271 1.1973c-0.2931,0.2386 -0.6771,0.4385 -1.1519,0.5953 -0.4749,0.1567 -1.0042,0.2363 -1.5859,0.2363zm-0.1726 -5.9799c-0.359,0 -0.643,0.1386 -0.852,0.4135 -0.2091,0.2749 -0.3363,0.6384 -0.3863,1.086l0.0205 0.0341 2.3833 0 0 -0.1727c0,-0.4135 -0.0977,-0.7452 -0.2885,-0.9906 -0.1932,-0.2477 -0.4863,-0.3703 -0.877,-0.3703zm7.9883 0.3067l-0.7111 -0.0205c-0.2885,0 -0.5271,0.0591 -0.7134,0.1795 -0.1863,0.1204 -0.3272,0.2886 -0.4249,0.5067l0 4.8666 -1.938 0 0 -7.2022 1.804 0 0.0863 1.0655c0.1681,-0.3771 0.3885,-0.6725 0.6566,-0.8838 0.2681,-0.2113 0.5771,-0.3158 0.927,-0.3158 0.0977,0 0.1886,0.0068 0.2704,0.0227 0.0818,0.0159 0.1658,0.0341 0.2499,0.0568l-0.2068 1.7245z"/>
  <path class="fil3" d="M31.8684 69.731c-0.0298,0.0473 -0.0812,0.0874 -0.1542,0.1216 -0.0732,0.0349 -0.1344,0.0519 -0.1836,0.0519 -0.1315,0 -0.2507,-0.0671 -0.3572,-0.2006 -0.1074,-0.1323 -0.2638,-0.4713 -0.4713,-1.0151 -0.2078,-0.5435 -0.3231,-0.8634 -0.3441,-0.9587l-0.7263 1.3068c-0.4011,0.7233 -0.669,1.0845 -0.8024,1.0845 -0.0953,0 -0.1775,-0.0232 -0.2468,-0.0682 -0.0684,-0.0462 -0.1334,-0.1375 -0.1955,-0.272 -0.0613,-0.1354 -0.1456,-0.4373 -0.2508,-0.9038 -0.1063,-0.4673 -0.2017,-0.9399 -0.287,-1.4163 -0.0851,-0.4774 -0.1413,-0.7713 -0.1685,-0.8838 -0.018,-0.0742 -0.0341,-0.1343 -0.05,-0.1793 -0.0512,-0.1566 -0.0763,-0.2698 -0.0763,-0.3401 0,-0.0862 0.038,-0.1706 0.1143,-0.2519 0.0762,-0.0811 0.1656,-0.1212 0.2677,-0.1212 0.1857,0 0.3161,0.1483 0.3903,0.4443 0.0753,0.2969 0.1174,0.5074 0.1264,0.6308l0.0773 0.4965c0.023,0.1668 0.0531,0.3463 0.0902,0.5377 0.0393,0.1996 0.0712,0.3702 0.0943,0.5117 0.0783,0.4725 0.1294,0.7321 0.1524,0.7812 0.367,-0.5836 0.609,-0.9819 0.7262,-1.1945 0.1176,-0.2128 0.292,-0.5659 0.5239,-1.0593 0.0269,-0.0489 0.0708,-0.0933 0.1332,-0.1334 0.061,-0.0401 0.1244,-0.0602 0.1895,-0.0602 0.0843,0 0.1546,0.0432 0.2117,0.1295 0.0563,0.0864 0.1535,0.307 0.2908,0.664 0.0061,0.0211 0.0152,0.0481 0.0291,0.0792l0.2378 0.6289c0.2116,0.5618 0.3289,0.8496 0.3501,0.8636 0.5607,-1.0602 0.8967,-2.1455 1.0081,-3.2557 0,-0.0764 0.0342,-0.1366 0.1011,-0.1807 0.0673,-0.0441 0.1455,-0.0661 0.2339,-0.0661 0.1214,0 0.2077,0.0379 0.2587,0.1132 0.0504,0.0752 0.0764,0.1596 0.0764,0.2538 0,0.1935 -0.0531,0.5005 -0.1586,0.9188 -0.1063,0.4182 -0.2629,0.8696 -0.4704,1.3561l-0.0853 0.2027c-0.022,0.0563 -0.1795,0.3881 -0.4734,0.993 -0.0904,0.1867 -0.1505,0.317 -0.1817,0.3911zm4.3486 -0.8967c0,0.2036 -0.1717,0.4475 -0.5146,0.7303 -0.3421,0.2829 -0.7292,0.4253 -1.1607,0.4253 -0.3311,0 -0.5916,-0.1043 -0.7813,-0.3129 -0.1906,-0.2087 -0.2848,-0.4997 -0.2848,-0.8717 0,-0.5485 0.1935,-1.0633 0.5817,-1.5427 0.3884,-0.4806 0.8025,-0.7202 1.2429,-0.7202 0.2195,0 0.3961,0.0691 0.5285,0.2087 0.1334,0.1393 0.2006,0.3047 0.2006,0.4965 0,0.341 -0.1634,0.6659 -0.4915,0.974 -0.327,0.3088 -0.7463,0.5215 -1.2578,0.6397 -0.0583,0.0132 -0.0873,0.0483 -0.0873,0.1055 0,0.0942 0.0411,0.1836 0.1243,0.2686 0.0833,0.0855 0.1945,0.1285 0.334,0.1285 0.3933,0 0.7845,-0.2037 1.1729,-0.6088 0.0739,-0.0782 0.1462,-0.1174 0.2167,-0.1174 0.1182,0 0.1764,0.0653 0.1764,0.1966zm-1.9722 -0.5195c0.3099,-0.0633 0.5829,-0.1956 0.8186,-0.3972 0.2368,-0.2016 0.3539,-0.3852 0.3539,-0.5497 0,-0.0642 -0.018,-0.1183 -0.0541,-0.1624 -0.0361,-0.0443 -0.0822,-0.0663 -0.1395,-0.0663 -0.1702,0 -0.3588,0.1253 -0.5676,0.3762 -0.2077,0.2507 -0.3442,0.5164 -0.4113,0.7994zm5.6423 1.3572c-0.024,0.2014 -0.1365,0.3028 -0.3381,0.3028 -0.2567,0 -0.3854,-0.1854 -0.3854,-0.5556 0,-0.5988 0.0323,-1.1115 0.0966,-1.5368 0.051,-0.3311 0.0771,-0.6559 0.0771,-0.9761 0,-0.0762 0.024,-0.1401 0.0734,-0.1925 0.0492,-0.0512 0.1172,-0.0773 0.2055,-0.0773 0.2938,0 0.4405,0.1787 0.4405,0.5348 0,0.1152 -0.0513,0.4103 -0.1556,0.8847 -0.0622,0.2818 -0.0943,0.4865 -0.0943,0.614 0.5606,-1.2299 1.0663,-1.8458 1.5167,-1.8458 0.1826,0 0.3291,0.0734 0.4393,0.2177 0.1103,0.1454 0.1685,0.4665 0.1716,0.9641 0.002,0.4541 0.026,0.6818 0.0712,0.6818 0.0351,0 0.1576,-0.2205 0.3671,-0.661 0.2328,-0.4884 0.4322,-0.8104 0.5977,-0.967 0.1656,-0.1572 0.3402,-0.2356 0.5216,-0.2356 0.2178,0 0.3751,0.0943 0.4735,0.2808 0.0985,0.1876 0.1665,0.5036 0.2058,0.9481 0.029,0.3521 0.069,0.6188 0.1193,0.7994 0.049,0.1794 0.1353,0.3 0.2567,0.3579 0.0983,0.0474 0.1464,0.1175 0.1464,0.2119 0,0.0841 -0.0551,0.1694 -0.1675,0.2547 -0.1112,0.0852 -0.2246,0.1273 -0.3401,0.1273 -0.2005,0 -0.3559,-0.0983 -0.4694,-0.2948 -0.1122,-0.1977 -0.1884,-0.5928 -0.2277,-1.1866 -0.021,-0.286 -0.044,-0.4755 -0.0692,-0.5677 -0.0241,-0.0934 -0.0611,-0.1405 -0.1092,-0.1405 -0.0433,0 -0.1063,0.0701 -0.1887,0.2107 -0.0823,0.1392 -0.2246,0.4182 -0.4263,0.8354 -0.1776,0.3761 -0.3309,0.6391 -0.4594,0.7874 -0.1283,0.1495 -0.2657,0.2238 -0.4132,0.2238 -0.1135,0 -0.2278,-0.0491 -0.342,-0.1464 -0.1144,-0.0985 -0.1766,-0.4534 -0.1867,-1.0674 -0.0098,-0.5466 -0.0451,-0.8195 -0.1063,-0.8195 -0.0824,0 -0.2797,0.2429 -0.5928,0.7282 -0.314,0.4867 -0.5497,0.9208 -0.7081,1.3051zm7.2551 -0.8107c-0.5156,0.6792 -1.0131,1.0192 -1.4926,1.0192 -0.1766,0 -0.329,-0.0692 -0.4552,-0.2085 -0.1276,-0.1395 -0.1917,-0.3161 -0.1917,-0.5317 0,-0.5196 0.2318,-1.0722 0.6931,-1.6591 0.4625,-0.5867 0.9289,-0.8796 1.3993,-0.8796 0.2388,0 0.3961,0.1204 0.4704,0.361 0.2246,0 0.338,0.0864 0.338,0.259 0,0.0821 -0.022,0.2306 -0.0653,0.4462 -0.0781,0.4034 -0.1172,0.7263 -0.1172,0.9669 0,0.2508 0.0171,0.4273 0.0512,0.5287 0.0343,0.1022 0.0592,0.1684 0.0751,0.2005 0.016,0.0313 0.0632,0.0644 0.1414,0.0994 0.0783,0.0371 0.1175,0.0894 0.1175,0.1555 0,0.1003 -0.05,0.1834 -0.1514,0.2497 -0.1014,0.0673 -0.2067,0.1003 -0.3161,0.1003 -0.3682,0 -0.5336,-0.3689 -0.4965,-1.1075zm-0.1766 -1.6309c-0.1975,0 -0.4543,0.2188 -0.7714,0.6562 -0.3157,0.4383 -0.4744,0.8094 -0.4744,1.1155 0,0.1602 0.0332,0.2405 0.1004,0.2405 0.2308,0 0.5156,-0.2047 0.8537,-0.615 0.338,-0.4111 0.5063,-0.7694 0.5063,-1.0771 0,-0.0983 -0.0219,-0.1756 -0.066,-0.2338 -0.0443,-0.058 -0.0934,-0.0863 -0.1486,-0.0863zm3.7616 1.6331c-0.5075,0.7191 -1.0172,1.0793 -1.5308,1.0793 -0.2076,0 -0.375,-0.0823 -0.5024,-0.2457 -0.1274,-0.1636 -0.1906,-0.3722 -0.1906,-0.6249 0,-0.5107 0.2087,-1.0191 0.6269,-1.5249 0.4183,-0.5054 0.8416,-0.7581 1.2708,-0.7581 0.2468,0 0.4225,0.0651 0.5267,0.1937 0.1464,-0.6422 0.2336,-1.0444 0.2607,-1.2049 0.0592,-0.2978 0.1086,-0.4955 0.1475,-0.5928 0.0391,-0.0982 0.0982,-0.1745 0.1796,-0.2288 0.0803,-0.0529 0.1494,-0.0801 0.2086,-0.0801 0.0994,0 0.1757,0.041 0.2288,0.1233 0.0532,0.0825 0.0792,0.1856 0.0792,0.3109 0,0.0553 -0.0431,0.2128 -0.1294,0.4734 -0.1405,0.4235 -0.2717,0.935 -0.3923,1.5339 -0.1203,0.5998 -0.1803,1.0773 -0.1803,1.4315 0,0.3388 0.0741,0.5085 0.2236,0.5085 0.076,0 0.1573,-0.0203 0.2435,-0.0612 0.0865,-0.0402 0.1465,-0.0593 0.1817,-0.0593 0.0963,0 0.1446,0.0562 0.1446,0.1675 0,0.1355 -0.0974,0.2697 -0.293,0.4042 -0.1945,0.1345 -0.3792,0.2007 -0.5536,0.2007 -0.1877,0 -0.3332,-0.1001 -0.4344,-0.3021 -0.1025,-0.2014 -0.1404,-0.4503 -0.1154,-0.7441zm-0.3261 -1.5067c-0.2567,0 -0.5244,0.1958 -0.8033,0.5869 -0.279,0.3921 -0.4194,0.7514 -0.4194,1.0763 0,0.1895 0.0713,0.2848 0.2116,0.2848 0.2399,0 0.5247,-0.2126 0.8557,-0.638 0.3311,-0.4253 0.4965,-0.7614 0.4965,-1.0081 0,-0.0742 -0.0312,-0.1433 -0.0943,-0.2065 -0.062,-0.0643 -0.1445,-0.0954 -0.2468,-0.0954zm4.8459 1.4775c0,0.2036 -0.1715,0.4475 -0.5146,0.7303 -0.342,0.2829 -0.7291,0.4253 -1.1605,0.4253 -0.3312,0 -0.592,-0.1043 -0.7815,-0.3129 -0.1904,-0.2087 -0.2849,-0.4997 -0.2849,-0.8717 0,-0.5485 0.1937,-1.0633 0.5818,-1.5427 0.3882,-0.4806 0.8026,-0.7202 1.243,-0.7202 0.2196,0 0.3961,0.0691 0.5284,0.2087 0.1336,0.1393 0.2006,0.3047 0.2006,0.4965 0,0.341 -0.1634,0.6659 -0.4914,0.974 -0.3271,0.3088 -0.7462,0.5215 -1.2579,0.6397 -0.0581,0.0132 -0.0872,0.0483 -0.0872,0.1055 0,0.0942 0.041,0.1836 0.1244,0.2686 0.0833,0.0855 0.1945,0.1285 0.3341,0.1285 0.393,0 0.7842,-0.2037 1.1725,-0.6088 0.0742,-0.0782 0.1464,-0.1174 0.2165,-0.1174 0.1184,0 0.1767,0.0653 0.1767,0.1966zm-1.972 -0.5195c0.3098,-0.0633 0.5826,-0.1956 0.8185,-0.3972 0.2368,-0.2016 0.354,-0.3852 0.354,-0.5497 0,-0.0642 -0.0179,-0.1183 -0.0542,-0.1624 -0.0361,-0.0443 -0.0824,-0.0663 -0.1395,-0.0663 -0.1703,0 -0.3589,0.1253 -0.5676,0.3762 -0.2075,0.2507 -0.3441,0.5164 -0.4112,0.7994zm6.4937 -2.8366c0,0.1394 -0.0622,0.2616 -0.1875,0.366 -0.1255,0.1054 -0.2346,0.1576 -0.3271,0.1576 -0.1172,0 -0.2216,-0.0492 -0.3129,-0.1476 -0.0904,-0.0974 -0.1365,-0.1954 -0.1365,-0.2928 0,-0.1415 0.0454,-0.2559 0.1356,-0.3431 0.0901,-0.0872 0.2195,-0.1304 0.3882,-0.1304 0.1313,0 0.2366,0.0382 0.3189,0.1162 0.0811,0.0776 0.1213,0.1686 0.1213,0.2741zm-1.4192 2.4163l0 0.0029c0.0631,-0.357 0.0942,-0.5607 0.0942,-0.6118 0,-0.1444 0.032,-0.2658 0.0952,-0.3641 0.0642,-0.0983 0.1526,-0.1473 0.2658,-0.1473 0.1335,0 0.2379,0.0321 0.3121,0.0941 0.0742,0.0631 0.1112,0.1335 0.1112,0.2117 0,0.0781 -0.036,0.2397 -0.1081,0.4854l-0.018 0.0644c-0.1075,0.378 -0.1726,0.6869 -0.1938,0.9258 -0.0221,0.2387 -0.0331,0.4323 -0.0331,0.5785 0,0.1194 0.0211,0.2791 0.0622,0.4796 0.006,0.0353 0.0092,0.0642 0.0092,0.0872 0,0.0454 -0.0432,0.1064 -0.1286,0.1827 -0.0853,0.0762 -0.1765,0.1144 -0.2748,0.1144 -0.2579,0 -0.3872,-0.1958 -0.3872,-0.5879 0,-0.3329 0.0473,-0.7382 0.1405,-1.2157 0.02,-0.1063 0.0371,-0.2067 0.0532,-0.2999zm2.7182 -0.4354c-0.0169,0 -0.0722,0.2189 -0.1653,0.655 -0.0932,0.4375 -0.1396,0.7022 -0.1396,0.7934 0,0.1617 0.0169,0.2729 0.0512,0.3372 0.0341,0.0631 0.0904,0.0952 0.1686,0.0952 0.1102,0 0.2156,-0.019 0.316,-0.0572 0.101,-0.038 0.2336,-0.1244 0.398,-0.2567 0.1025,-0.0843 0.1888,-0.1263 0.2588,-0.1263 0.0572,0 0.1023,0.0159 0.1365,0.048 0.0349,0.0323 0.052,0.0702 0.052,0.1133 0,0.1727 -0.1392,0.3673 -0.4172,0.5858 -0.2788,0.2187 -0.5726,0.328 -0.8816,0.328 -0.2589,0 -0.4564,-0.0761 -0.5928,-0.2295 -0.1354,-0.1526 -0.2036,-0.3721 -0.2036,-0.6583 0,-0.2646 0.0983,-0.7923 0.2969,-1.5838 -0.1254,0.0142 -0.2128,0.0211 -0.2619,0.0211l-0.0622 0c-0.0893,0 -0.1816,-0.03 -0.2748,-0.0882 -0.0924,-0.0592 -0.1393,-0.1534 -0.1393,-0.2829 0,-0.1645 0.0933,-0.2469 0.2796,-0.2469l0.6291 -0.023c0.0823,-0.2366 0.1695,-0.5474 0.2608,-0.9317 0.0551,-0.2389 0.1794,-0.3582 0.3731,-0.3582 0.1083,0 0.1927,0.0323 0.2528,0.0984 0.0611,0.065 0.0913,0.1385 0.0913,0.2186 0,0.0312 -0.0834,0.3341 -0.2498,0.9078 0.6229,-0.0542 0.9651,-0.0822 1.0261,-0.0822 0.1034,0 0.1716,0.0161 0.2058,0.046 0.033,0.0302 0.0502,0.0885 0.0502,0.1746 0,0.1745 -0.1484,0.2849 -0.4444,0.332l-1.0143 0.1705zm6.6474 1.3752c0,0.2036 -0.1717,0.4475 -0.5147,0.7303 -0.342,0.2829 -0.729,0.4253 -1.1605,0.4253 -0.3311,0 -0.5916,-0.1043 -0.7815,-0.3129 -0.1905,-0.2087 -0.2847,-0.4997 -0.2847,-0.8717 0,-0.5485 0.1936,-1.0633 0.5815,-1.5427 0.3884,-0.4806 0.8027,-0.7202 1.2432,-0.7202 0.2195,0 0.3961,0.0691 0.5284,0.2087 0.1335,0.1393 0.2006,0.3047 0.2006,0.4965 0,0.341 -0.1634,0.6659 -0.4914,0.974 -0.3271,0.3088 -0.7464,0.5215 -1.2578,0.6397 -0.0582,0.0132 -0.0874,0.0483 -0.0874,0.1055 0,0.0942 0.0411,0.1836 0.1244,0.2686 0.083,0.0855 0.1945,0.1285 0.3339,0.1285 0.3933,0 0.7845,-0.2037 1.1729,-0.6088 0.0742,-0.0782 0.1464,-0.1174 0.2164,-0.1174 0.1184,0 0.1767,0.0653 0.1767,0.1966zm-1.972 -0.5195c0.3097,-0.0633 0.5825,-0.1956 0.8185,-0.3972 0.2368,-0.2016 0.3539,-0.3852 0.3539,-0.5497 0,-0.0642 -0.0179,-0.1183 -0.0542,-0.1624 -0.0361,-0.0443 -0.0823,-0.0663 -0.1393,-0.0663 -0.1704,0 -0.3591,0.1253 -0.5678,0.3762 -0.2076,0.2507 -0.3441,0.5164 -0.4111,0.7994zm4.4726 0.5465c-0.5158,0.6792 -1.0133,1.0192 -1.4926,1.0192 -0.1765,0 -0.3289,-0.0692 -0.4554,-0.2085 -0.1275,-0.1395 -0.1916,-0.3161 -0.1916,-0.5317 0,-0.5196 0.2317,-1.0722 0.6929,-1.6591 0.4626,-0.5867 0.9291,-0.8796 1.3995,-0.8796 0.2387,0 0.3962,0.1204 0.4705,0.361 0.2246,0 0.3379,0.0864 0.3379,0.259 0,0.0821 -0.022,0.2306 -0.0651,0.4462 -0.0783,0.4034 -0.1173,0.7263 -0.1173,0.9669 0,0.2508 0.017,0.4273 0.0511,0.5287 0.0341,0.1022 0.0591,0.1684 0.0752,0.2005 0.016,0.0313 0.0631,0.0644 0.1414,0.0994 0.0783,0.0371 0.1173,0.0894 0.1173,0.1555 0,0.1003 -0.0499,0.1834 -0.1514,0.2497 -0.1014,0.0673 -0.2065,0.1003 -0.316,0.1003 -0.368,0 -0.5337,-0.3689 -0.4964,-1.1075zm-0.1765 -1.6309c-0.1977,0 -0.4545,0.2188 -0.7714,0.6562 -0.3161,0.4383 -0.4744,0.8094 -0.4744,1.1155 0,0.1602 0.0329,0.2405 0.1003,0.2405 0.2304,0 0.5154,-0.2047 0.8536,-0.615 0.338,-0.4111 0.5064,-0.7694 0.5064,-1.0771 0,-0.0983 -0.022,-0.1756 -0.0661,-0.2338 -0.0441,-0.058 -0.0933,-0.0863 -0.1484,-0.0863zm3.0683 1.8689c-0.0079,-0.1064 -0.1766,-0.2358 -0.5056,-0.3883 -0.4033,-0.1936 -0.6611,-0.361 -0.7724,-0.5006 -0.1122,-0.1405 -0.1674,-0.2928 -0.1674,-0.4571 0,-0.3474 0.1935,-0.6503 0.5828,-0.91 0.3891,-0.2588 0.7521,-0.3894 1.0892,-0.3894 0.3312,0 0.4965,0.1447 0.4965,0.4325 0,0.0762 -0.038,0.1444 -0.1133,0.2057 -0.0752,0.0602 -0.1395,0.0912 -0.1927,0.0912 -0.022,0 -0.0601,-0.014 -0.1143,-0.0411 -0.055,-0.0282 -0.0972,-0.041 -0.1263,-0.041 -0.1745,0 -0.367,0.058 -0.5759,0.1753 -0.2096,0.1185 -0.315,0.255 -0.315,0.4123 0,0.0763 0.0372,0.1505 0.1115,0.2218 0.0753,0.0711 0.2267,0.1606 0.4554,0.2688 0.3391,0.1605 0.5626,0.3059 0.6701,0.4342 0.1083,0.1295 0.1625,0.273 0.1625,0.4294 0,0.286 -0.1937,0.5246 -0.5808,0.7162 -0.3872,0.1907 -0.8215,0.2859 -1.303,0.2859 -0.3552,0 -0.5324,-0.1284 -0.5324,-0.3852 0,-0.0933 0.0368,-0.1735 0.1121,-0.2407 0.0743,-0.0662 0.1575,-0.0993 0.2499,-0.0993 0.0371,0 0.0942,0.0129 0.1734,0.041 0.0781,0.0292 0.1505,0.0441 0.2166,0.0441 0.1846,0 0.3772,-0.0299 0.5797,-0.0881 0.2017,-0.0591 0.3342,-0.1314 0.3994,-0.2176zm3.9931 -0.9852c-0.0309,0.4765 -0.0861,0.938 -0.1654,1.3863 -0.0794,0.4474 -0.1965,0.8535 -0.35,1.2177 -0.1536,0.3641 -0.319,0.6127 -0.4964,0.7453 -0.1777,0.1323 -0.3884,0.1985 -0.6331,0.1985 -0.2628,0 -0.5145,-0.0501 -0.7554,-0.1505l0.003 0c-0.2074,-0.0862 -0.3891,-0.2014 -0.5424,-0.3469 -0.1537,-0.1444 -0.2308,-0.2668 -0.2308,-0.3671 0,-0.0925 0.023,-0.1656 0.0692,-0.2205 0.0462,-0.0543 0.1062,-0.0824 0.1804,-0.0824 0.0653,0 0.1183,0.0281 0.1616,0.0824 0.2507,0.3239 0.6157,0.4853 1.0933,0.4853 0.1936,0 0.3812,-0.2027 0.5617,-0.609 0.1795,-0.4051 0.2939,-0.8917 0.3401,-1.4603 -0.6049,0.4785 -1.0712,0.7172 -1.3983,0.7172 -0.2117,0 -0.3793,-0.0842 -0.5025,-0.253 -0.1234,-0.1683 -0.1856,-0.3709 -0.1856,-0.6077 0,-0.2367 0.0562,-0.5818 0.1666,-1.0331 0.1102,-0.4514 0.2046,-0.7311 0.2816,-0.8405 0.0773,-0.1084 0.2037,-0.1627 0.3783,-0.1627 0.0933,0 0.1666,0.0403 0.2167,0.1215 0.0512,0.0813 0.0773,0.1716 0.0773,0.2689 0,0.0298 -0.0714,0.1956 -0.2118,0.4964 -0.1725,0.3692 -0.2586,0.6861 -0.2586,0.953 0,0.1363 0.0189,0.2406 0.0569,0.3129 0.0381,0.0711 0.0784,0.1064 0.1195,0.1064 0.0933,0 0.2077,-0.0282 0.3421,-0.0843 0.1343,-0.0574 0.2918,-0.1556 0.4734,-0.2959 0.1807,-0.1404 0.2979,-0.2468 0.3511,-0.3189 0.0523,-0.0724 0.0943,-0.1658 0.1264,-0.281 0.031,-0.1145 0.0553,-0.366 0.0732,-0.7563 0.0099,-0.2275 0.0212,-0.3701 0.034,-0.4295 0.0122,-0.0579 0.0471,-0.1122 0.1044,-0.1612 0.0562,-0.0492 0.1325,-0.0733 0.2287,-0.0733 0.1294,0 0.2206,0.0271 0.2749,0.0822 0.0542,0.0552 0.0812,0.1846 0.0812,0.3882l-0.0653 0.9719zm1.4406 0.324c-0.1967,0 -0.3483,-0.0401 -0.4566,-0.1203 -0.031,-0.3822 -0.0028,-0.7754 0.0824,-1.1786 0.0963,-0.4372 0.1445,-0.7643 0.1445,-0.9821 0,-0.0211 0.01,-0.1033 0.031,-0.2447 0.02,-0.1424 0.0821,-0.2507 0.1865,-0.3249 0.1033,-0.0744 0.1915,-0.1114 0.2649,-0.1114 0.0783,0 0.1524,0.0281 0.2248,0.0862 0.0712,0.0583 0.107,0.1213 0.107,0.1897 0,0.055 -0.04,0.2577 -0.1192,0.6098 -0.0792,0.3511 -0.1583,0.6751 -0.2367,0.9711 -0.0822,0.3078 -0.1253,0.5537 -0.1294,0.737 -0.004,0.1395 -0.0373,0.2619 -0.0992,0.3682zm-0.4175 1.3513c-0.2156,0 -0.324,-0.1194 -0.324,-0.3583 0,-0.0903 0.0443,-0.1936 0.1324,-0.3119 0.0885,-0.1171 0.1837,-0.1754 0.285,-0.1754 0.0673,0 0.1505,0.0322 0.2498,0.0962 0.1004,0.0653 0.1505,0.1193 0.1505,0.1646l-0.0301 0.1824c-0.0172,0.1294 -0.0813,0.2287 -0.1906,0.2979 -0.1094,0.0703 -0.2006,0.1045 -0.273,0.1045z"/>
 </g>
</svg>
