<?xml version="1.0" encoding="UTF-8"?>
<!DOCTYPE svg PUBLIC "-//W3C//DTD SVG 1.1//EN" "http://www.w3.org/Graphics/SVG/1.1/DTD/svg11.dtd">
<!-- Creator: CorelDRAW -->
<svg xmlns="http://www.w3.org/2000/svg" xml:space="preserve" width="4.2in" height="3in" style="shape-rendering:geometricPrecision; text-rendering:geometricPrecision; image-rendering:optimizeQuality; fill-rule:evenodd; clip-rule:evenodd"
viewBox="0 0 4.2 3"
 xmlns:xlink="http://www.w3.org/1999/xlink">
 <defs>
  <style type="text/css">
   <![CDATA[
    .fil0 {fill:#E56920}
    .fil2 {fill:white}
    .fil3 {fill:#DEDEDD;fill-rule:nonzero}
    .fil1 {fill:white;fill-rule:nonzero}
   ]]>
  </style>
 </defs>
 <g id="Layer_x0020_1">
  <metadata id="CorelCorpID_0Corel-Layer"/>
  <path class="fil0" d="M2.09999 0.307756c0.354472,0 0.641929,0.287457 0.641929,0.641921 0,0.354476 -0.287457,0.641921 -0.641929,0.641921 -0.354457,0 -0.641917,-0.287445 -0.641917,-0.641921 0,-0.354465 0.287461,-0.641921 0.641917,-0.641921z"/>
  <path class="fil1" d="M1.76864 1.22939l0.0298307 -0.0297283 0.489122 0 0 0.0594606 -0.489122 0 -0.0298307 -0.0297323zm0.0298307 -0.0297283l0 0.0594606 -0.00151969 -3.54331e-005 -0.00151181 -0.000122047 -0.00148031 -0.000181102 -0.00146457 -0.000267717 -0.00144094 -0.000330709 -0.0014252 -0.000397638 -0.00136614 -0.000468504 -0.0013622 -0.000535433 -0.00130709 -0.000590551 -0.00128346 -0.000661417 -0.00125197 -0.000712598 -0.00119685 -0.000771654 -0.00116929 -0.000830709 -0.00112598 -0.000885827 -0.00108661 -0.000929134 -0.00102362 -0.000984252 -0.000992126 -0.0010315 -0.000933071 -0.00107874 -0.000874016 -0.00112598 -0.000830709 -0.00116929 -0.000771654 -0.00120472 -0.000720472 -0.00124409 -0.000661417 -0.00128346 -0.000582677 -0.00131496 -0.000531496 -0.00135433 -0.000480315 -0.00137402 -0.000397638 -0.00141732 -0.000330709 -0.00143701 -0.000259843 -0.0014685 -0.000192913 -0.00148031 -0.00011811 -0.00151181 -2.75591e-005 -0.0015315 2.75591e-005 -0.00152756 0.00011811 -0.00151181 0.000192913 -0.00148425 0.000259843 -0.00146457 0.000330709 -0.00143701 0.000397638 -0.00141732 0.000480315 -0.00137402 0.000531496 -0.00135433 0.000582677 -0.0013189 0.000661417 -0.00127953 0.000720472 -0.00124409 0.000771654 -0.00120472 0.000830709 -0.00117323 0.000874016 -0.00112205 0.000933071 -0.00107874 0.000992126 -0.0010315 0.00102362 -0.000984252 0.00108661 -0.000933071 0.00112598 -0.00088189 0.00116929 -0.000830709 0.00119685 -0.000775591 0.00125197 -0.000708661 0.00128346 -0.000661417 0.00130709 -0.000590551 0.0013622 -0.000535433 0.00136614 -0.000468504 0.0014252 -0.000397638 0.00144094 -0.000330709 0.00146457 -0.000267717 0.00148031 -0.000185039 0.00151181 -0.00011811 0.00151969 -3.54331e-005zm-0.000338583 -0.194311l0.0301929 0.0297323 0 0.194307 -0.059685 0 0 -0.194307 0.0294921 -0.0297323zm0.0301929 0.0297323l-0.059685 0 2.75591e-005 -0.00153937 0.00011811 -0.00151181 0.000192913 -0.00149213 0.000259843 -0.00147244 0.000330709 -0.00144094 0.000413386 -0.00141732 0.00046063 -0.00138189 0.000547244 -0.00135433 0.000586614 -0.00132677 0.000653543 -0.00129134 0.000720472 -0.00124016 0.000783465 -0.00121654 0.000830709 -0.00117323 0.000893701 -0.00112205 0.000937008 -0.00107874 0.000976378 -0.00103937 0.00104331 -0.000988189 0.00107874 -0.000937008 0.00112992 -0.000885827 0.00117323 -0.000838583 0.00120472 -0.000775591 0.00125197 -0.000716535 0.00129134 -0.000653543 0.00132677 -0.000598425 0.00134646 -0.000535433 0.00138976 -0.000472441 0.00140945 -0.000401575 0.00143701 -0.000334646 0.00148425 -0.000267717 0.00148425 -0.000181102 0.00151181 -0.000122047 0.00153543 -3.54331e-005 0.00154724 3.54331e-005 0.00151181 0.000122047 0.00149213 0.000181102 0.00146457 0.000267717 0.00144882 0.000334646 0.00140945 0.000401575 0.00138189 0.000472441 0.00135433 0.000535433 0.00132677 0.000598425 0.00129134 0.000653543 0.00125197 0.000716535 0.00121654 0.000775591 0.00116929 0.000838583 0.00112205 0.000885827 0.00107087 0.000937008 0.00105118 0.000988189 0.000976378 0.00103937 0.000937008 0.00107874 0.000885827 0.00112205 0.000838583 0.00117323 0.000775591 0.00121654 0.000716535 0.00124016 0.000665354 0.00129134 0.000598425 0.00132677 0.000523622 0.00135433 0.000480315 0.00138189 0.000405512 0.00141732 0.000330709 0.00144094 0.000267717 0.00147244 0.000185039 0.00149213 0.000110236 0.00151181 4.72441e-005 0.00153937zm-0.239354 -0.222244l0.0594606 0.00255906 0 0 -0.000350394 0.0187874 0.000740157 0.0172638 0.00153543 0.0159016 0.0025 0.0147165 0.00312992 0.0134409 0.00372441 0.0122008 0.00435827 0.011248 0.00490157 0.0102165 0.00537795 0.00923228 0.00567717 0.0083937 0.00601575 0.00761024 0.00640157 0.00697244 0.0066063 0.00626772 0.00685433 0.00561024 0.00700394 0.00498425 0.00712205 0.00451575 0.00726772 0.00398819 0.00720472 0.00359449 0.00712205 0.00303937 0.0070315 0.00262598 0.00690945 0.00212992 0.00668898 0.00191339 0.00629134 0.00151181 0.00580709 0.00116142 0.00539764 0.000838583 0.00490157 0.000661417 0.00422047 0.000562992 0.00358268 0.000232283 0.00273622 0.000208661 0.00198031 9.44882e-005 0.000988189 2.75591e-005 -2.75591e-005 0 0.000688976 0.0594646 -0.00112205 0 -0.00217717 -3.14961e-005 -0.00312205 -9.05512e-005 -0.00414567 -0.000212598 -0.00499213 -0.000468504 -0.00584252 -0.000562992 -0.0065315 -0.000901575 -0.00725197 -0.00129921 -0.00791339 -0.00162205 -0.00840157 -0.00199213 -0.00879134 -0.00237402 -0.0092126 -0.00307087 -0.00961024 -0.00354724 -0.00990551 -0.00420079 -0.0100157 -0.00477165 -0.0100669 -0.00561024 -0.0101457 -0.0063937 -0.0100433 -0.00730709 -0.00987402 -0.00817323 -0.0096378 -0.00906299 -0.0092126 -0.0100157 -0.0088189 -0.0110945 -0.00823622 -0.0121339 -0.00748031 -0.0131929 -0.00676378 -0.0141811 -0.00598819 -0.0152087 -0.00512205 -0.0164016 -0.0040748 -0.0174016 -0.00295669 -0.018437 -0.00200787 -0.0196417 -0.00073622 -0.0207677 0.000350394 -0.0218071zm0.324024 -0.140728l0.0552598 0.0219094 -0.0509409 0.00758268 -0.0032874 -0.00368504 -0.00462598 -0.00407874 -0.0056378 -0.00408268 -0.00682677 -0.00416535 -0.00777559 -0.00398031 -0.00866929 -0.00364961 -0.0093622 -0.00337008 -0.0102008 -0.00297638 -0.010622 -0.00252362 -0.0111654 -0.00191732 -0.0115354 -0.00151969 -0.0116929 -0.000830709 -0.0120236 -0.000248031 -0.0119961 0.000496063 -0.0119213 0.00117323 -0.0117559 0.00175984 -0.011626 0.00261417 -0.0112874 0.00329134 -0.0110079 0.0039685 -0.0104882 0.00483071 -0.0100315 0.00559843 -0.00939764 0.00629528 -0.0088622 0.00725984 -0.00827559 0.00801575 -0.00772047 0.00905512 -0.00697244 0.0100079 -0.00624016 0.0109921 -0.00544488 0.0123819 -0.00466142 0.0135512 -0.0037126 0.0150197 -0.00252362 0.0165 -0.0015315 0.0180118 -0.0594606 -0.00255906 0.00176772 -0.0224567 0.00346457 -0.0211614 0.0048622 -0.0199016 0.00632283 -0.0186929 0.00775591 -0.0172677 0.00903937 -0.0161299 0.0102441 -0.0146693 0.0112047 -0.0132559 0.012252 -0.0119803 0.0130591 -0.0105197 0.0138071 -0.00931496 0.0142441 -0.00794094 0.014689 -0.00668898 0.0149606 -0.00561024 0.0152677 -0.00445276 0.0153386 -0.00331496 0.0154882 -0.00246063 0.0154252 -0.00140945 0.0152638 -0.000496063 0.0150472 0.000248031 0.0149449 0.00106693 0.0145827 0.00175984 0.0141969 0.00261811 0.013878 0.00322441 0.0132283 0.00389764 0.0128622 0.00455118 0.0121811 0.00526772 0.0115 0.00584252 0.0107874 0.00650394 0.0100709 0.00734252 0.00905512 0.00804331 0.00819291 0.00904724 -0.0509606 0.00758268zm0.0043189 0.0294921l0.0466417 -0.0370748 0.000909449 0.00122835 0.000866142 0.00125197 0.000775591 0.00127953 0.000700787 0.0013189 0.000641732 0.00133465 0.000562992 0.00135433 0.0005 0.00137402 0.000413386 0.00138976 0.000358268 0.00140157 0.000287402 0.00141732 0.000220472 0.00142126 0.000129921 0.0014252 9.05512e-005 0.00144094 7.87402e-006 0.0014252 -6.29921e-005 0.00142913 -0.000137795 0.00142913 -0.000192913 0.00140945 -0.000267717 0.00140945 -0.000330709 0.00138976 -0.000397638 0.00138189 -0.000452756 0.00135433 -0.000543307 0.00133858 -0.000590551 0.00131496 -0.000653543 0.00129134 -0.000728346 0.00125984 -0.000791339 0.00122835 -0.000866142 0.00119685 -0.000909449 0.00114961 -0.000988189 0.00111811 -0.00105906 0.0010748 -0.0011063 0.00103543 -0.00117717 0.000984252 -0.00122835 0.00092126 -0.00124409 0.000858268 -0.00127953 0.000771654 -0.00131496 0.000708661 -0.00133858 0.000637795 -0.00135433 0.000562992 -0.00138189 0.000496063 -0.00138976 0.000425197 -0.0013937 0.000350394 -0.0014252 0.000283465 -0.00140945 0.000220472 -0.00143701 0.000137795 -0.00142913 8.26772e-005 -0.00142913 1.1811e-005 -0.00143701 -6.69291e-005 -0.00141732 -0.000125984 -0.00142126 -0.00019685 -0.00140945 -0.00026378 -0.00138976 -0.000334646 -0.00138189 -0.000393701 -0.00135433 -0.00046063 -0.00133858 -0.000535433 -0.00131496 -0.000598425 -0.00129134 -0.000653543 -0.00125197 -0.000728346 -0.00122441 -0.000791339 -0.00120866 -0.000858268 -0.00114961 -0.00092126 -0.00111811 -0.000984252 -0.0010748 -0.00105118 -0.00102362 -0.0011063 -0.000988189 -0.0011811zm0.207449 -0.0353228l0.042189 0.0419764 -0.0441772 -0.00222047 -0.00782283 -0.00896457 -0.00761811 -0.00774803 -0.00738189 -0.00658661 -0.00727953 -0.00549213 -0.00712992 -0.0046811 -0.00670866 -0.00367717 -0.00666929 -0.00287402 -0.00645669 -0.00220866 -0.00622835 -0.00162205 -0.0062126 -0.00108661 -0.00596063 -0.000480315 -0.00613386 -5.51181e-005 -0.00584252 0.00042126 -0.00587008 0.000866142 -0.00564567 0.00112598 -0.00575984 0.00155512 -0.00547244 0.00195669 -0.00531496 0.00215354 -0.00525197 0.00231496 -0.00492126 0.00264173 -0.0048189 0.00269291 -0.00444882 0.00291732 -0.00419291 0.00284646 -0.00377559 0.00285039 -0.00347638 0.00279134 -0.00302756 0.00266929 -0.00248031 0.00239764 -0.00208268 0.00215354 -0.00149213 0.00164961 -0.000728346 0.000850394 0.000165354 -0.000240157 0.00151969 -0.00315354 -0.0552598 -0.0219094 0.00314173 -0.00618898 0.00286614 -0.00418504 0.00305906 -0.00387008 0.00334252 -0.00374803 0.00373228 -0.00379528 0.00433858 -0.00401575 0.00467323 -0.0040748 0.00509449 -0.00419291 0.00566535 -0.00424409 0.00604331 -0.00424803 0.00655118 -0.00408268 0.00690945 -0.00409055 0.0075 -0.00382283 0.00781496 -0.0037126 0.00834646 -0.0033189 0.00873228 -0.00287402 0.00901969 -0.00249606 0.00961024 -0.00206299 0.00982283 -0.00132677 0.0102638 -0.000665354 0.0103543 5.51181e-005 0.0108543 0.00096063 0.0108701 0.0017874 0.0111417 0.00277953 0.0111102 0.00385433 0.0110827 0.00495669 0.0111693 0.00601575 0.0108425 0.007 0.0107795 0.00829134 0.0106496 0.00938976 0.0104213 0.0105512 0.0101457 0.0117638 -0.0441811 -0.00222047zm-0.00198819 0.0397559l0.0461693 -0.0375354 0.000937008 0.00121654 0.000850394 0.00124409 0.000791339 0.00127165 0.000728346 0.00129921 0.000653543 0.00132677 0.000570866 0.00134252 0.000507874 0.00137402 0.000440945 0.00138189 0.000370079 0.00140157 0.00030315 0.00140945 0.000220472 0.00141732 0.000165354 0.00142126 9.05512e-005 0.0014252 3.93701e-005 0.00142913 -4.72441e-005 0.00142913 -0.00011811 0.00142913 -0.000185039 0.00140945 -0.000240157 0.00140945 -0.000322835 0.00138976 -0.000385827 0.00138189 -0.000440945 0.0013622 -0.000519685 0.00134646 -0.000570866 0.0013189 -0.000653543 0.0012874 -0.000708661 0.00127165 -0.000783465 0.00123622 -0.000838583 0.00119685 -0.000913386 0.00116929 -0.000956693 0.00112598 -0.00103937 0.00108661 -0.0011063 0.00103937 -0.00116142 0.000996063 -0.00120866 0.000940945 -0.00125197 0.000858268 -0.00127165 0.000791339 -0.00129921 0.000728346 -0.00132677 0.000641732 -0.00134252 0.000582677 -0.00136614 0.000507874 -0.00138189 0.000440945 -0.00140157 0.000370079 -0.00141732 0.00030315 -0.00140945 0.000220472 -0.00142913 0.000165354 -0.00141732 9.05512e-005 -0.00143701 3.14961e-005 -0.00142126 -4.72441e-005 -0.0014252 -0.000122047 -0.00140945 -0.000173228 -0.00142126 -0.000248031 -0.00138976 -0.000314961 -0.00137402 -0.000385827 -0.00137008 -0.000440945 -0.00133858 -0.000519685 -0.00132677 -0.00057874 -0.0012874 -0.000645669 -0.00127165 -0.000708661 -0.00123622 -0.000783465 -0.00118898 -0.000838583 -0.00116929 -0.000909449 -0.00113386 -0.000968504 -0.00107874 -0.0010315 -0.00104724 -0.0011063 -0.000996063 -0.00116142zm0.137795 -0.0998898l0.000248031 0.0594606 0 0 -0.00444882 0.000185039 -0.00449606 0.000350394 -0.00449606 0.000606299 -0.00453543 0.000728346 -0.00430315 0.00096063 -0.00441339 0.00103937 -0.00429921 0.00132677 -0.00431496 0.00138976 -0.00415354 0.00153937 -0.00414567 0.00166929 -0.00398819 0.00177953 -0.00383465 0.00185827 -0.00379528 0.00194488 -0.00375984 0.00198819 -0.0035748 0.00202756 -0.00338189 0.00204724 -0.00319685 0.00204331 -0.00313386 0.0021378 -0.00292913 0.00199213 -0.00283465 0.00193307 -0.00248819 0.00196457 -0.00239764 0.00175984 -0.00216535 0.00175984 -0.00193307 0.00151969 -0.00179921 0.00148425 -0.00144488 0.0014252 -0.00130709 0.00100394 -0.000913386 0.00092126 -0.000771654 0.000700787 -0.000472441 0.000452756 -0.000330709 0.000311024 0.000192913 -0.000200787 -0.042189 -0.0419764 0.0005 -0.000496063 0.000551181 -0.000535433 0.000948819 -0.000929134 0.00122441 -0.00116142 0.00162205 -0.00138189 0.00177165 -0.00170472 0.00213386 -0.00166929 0.00227953 -0.00194488 0.00261417 -0.00222047 0.00286614 -0.00222047 0.00309449 -0.00245669 0.00344488 -0.00244488 0.0035315 -0.00263386 0.00385827 -0.00267323 0.00405512 -0.00261417 0.00437795 -0.00274409 0.00455118 -0.00274803 0.00473622 -0.00272835 0.00491732 -0.00268898 0.00519685 -0.00264567 0.00546457 -0.00255906 0.00562992 -0.00248031 0.00577559 -0.00234646 0.00602362 -0.00224016 0.00615748 -0.00209055 0.00640157 -0.00180709 0.00652362 -0.00174016 0.00687402 -0.00142126 0.0068622 -0.00118898 0.00706693 -0.000846457 0.00727953 -0.000590551 0.00747244 -0.000181102zm0.229134 0.229992l-0.0594724 0 0 0 -0.000413386 -0.015 -0.00105906 -0.0139843 -0.00166929 -0.0129921 -0.0023189 -0.0121142 -0.00273622 -0.011185 -0.00319685 -0.0102559 -0.00366929 -0.00959055 -0.00407087 -0.00884646 -0.00443307 -0.00809843 -0.00476378 -0.00740551 -0.00506693 -0.00683858 -0.00530709 -0.00629134 -0.00555512 -0.00579528 -0.00583071 -0.00529921 -0.00598031 -0.00484646 -0.00633858 -0.0043937 -0.00651575 -0.004 -0.00664961 -0.0037126 -0.00679134 -0.00324016 -0.00695669 -0.00302362 -0.00699213 -0.00247638 -0.00712992 -0.00230709 -0.00707874 -0.00205118 -0.00711811 -0.00157874 -0.00702362 -0.00148031 -0.00696457 -0.00107874 -0.00679921 -0.000901575 -0.0066811 -0.000775591 -0.0065315 -0.000425197 -0.00611811 -0.000350394 -0.00590551 -0.000173228 -0.00574803 -1.9685e-005 -0.000248031 -0.0594606 0.00670472 1.5748e-005 0.00729921 0.000177165 0.00774016 0.000350394 0.00793307 0.000661417 0.0083189 0.000775591 0.00866142 0.00114173 0.00882283 0.00153937 0.00912205 0.00172047 0.0092126 0.00227559 0.00941732 0.00251575 0.00946063 0.00300394 0.00956693 0.00364173 0.00953543 0.00396063 0.00955118 0.00464173 0.00946457 0.00511417 0.00931496 0.00585827 0.00912992 0.00649606 0.00901969 0.00716929 0.00863386 0.00785827 0.00834646 0.00859843 0.00786614 0.00933071 0.00740945 0.0100984 0.0068622 0.0109094 0.00629528 0.0115984 0.00570079 0.0123268 0.00505118 0.0130945 0.0043937 0.0139921 0.00364961 0.0146693 0.00281102 0.0153976 0.00211811 0.016252 0.0012874 0.0170079 0.000433071 0.0177992zm-0.172803 0.197783l-0.0594646 0 0.0313622 -0.0297323 -0.000200787 1.9685e-005 0.000866142 4.33071e-005 0.00176772 1.1811e-005 0.00257087 -5.51181e-005 0.00311417 -0.00015748 0.00391339 -0.000314961 0.00433071 -0.000377953 0.00487402 -0.000614173 0.00529134 -0.000905512 0.00572835 -0.00108661 0.00598031 -0.00133465 0.0063189 -0.00174016 0.00643307 -0.00218504 0.00651181 -0.0024252 0.00664567 -0.00295669 0.0065748 -0.0032874 0.0066063 -0.00390551 0.00640551 -0.00431496 0.00637402 -0.00477165 0.0062126 -0.00538976 0.00593307 -0.00604331 0.00562598 -0.00675197 0.00547638 -0.00749213 0.00514961 -0.00815354 0.00474409 -0.00922441 0.00441339 -0.0100866 0.00388583 -0.0111102 0.00329921 -0.0121811 0.00278346 -0.0133976 0.00206299 -0.0145551 0.00129134 -0.0159764 0.000448819 -0.0173307 0.0594724 0 -0.000448819 0.0203504 -0.00153937 0.0192559 -0.00251575 0.0182795 -0.00349213 0.0171378 -0.0044685 0.0161417 -0.00529528 0.0150748 -0.00603543 0.0140472 -0.00684646 0.0129449 -0.00749213 0.0121181 -0.0080315 0.0109921 -0.00864173 0.0100118 -0.00898425 0.00908661 -0.00923228 0.00818898 -0.0094252 0.00733465 -0.00965748 0.00641339 -0.00961811 0.00552756 -0.00962598 0.00492913 -0.00943701 0.00411811 -0.00930315 0.00358268 -0.00901969 0.00288583 -0.00863386 0.00244094 -0.00831102 0.00203543 -0.00783858 0.00156693 -0.00737008 0.00112598 -0.00675591 0.000854331 -0.00618898 0.00061811 -0.00532677 0.000314961 -0.00473622 0.000153543 -0.00374016 5.51181e-005 -0.00292913 -7.87402e-006 -0.00202756 -4.72441e-005 -0.00118898 -1.5748e-005 0.0313543 -0.0297323zm-0.0281024 -0.0297323l-0.00325197 0.0594646 -0.00153937 -0.000122047 -0.0015 -0.000200787 -0.00146457 -0.000267717 -0.00145669 -0.00034252 -0.00142913 -0.000413386 -0.00138976 -0.000468504 -0.00134646 -0.000543307 -0.00132677 -0.000610236 -0.00127953 -0.000673228 -0.00124409 -0.000728346 -0.00120866 -0.000783465 -0.00116929 -0.000834646 -0.00111417 -0.000893701 -0.00106693 -0.000940945 -0.00102362 -0.000996063 -0.000988189 -0.00103937 -0.000929134 -0.00109055 -0.000866142 -0.00112992 -0.000818898 -0.00117323 -0.000775591 -0.00120472 -0.000708661 -0.00125197 -0.000645669 -0.00128346 -0.000590551 -0.00131496 -0.000515748 -0.00135433 -0.00046063 -0.00138189 -0.000385827 -0.00140157 -0.000322835 -0.00143701 -0.000267717 -0.00145669 -0.000173228 -0.00148425 -0.000110236 -0.00149213 -3.93701e-005 -0.00151969 4.72441e-005 -0.00152756 0.000122047 -0.0015315 0.000200787 -0.0015 0.000275591 -0.00147638 0.00034252 -0.00145276 0.000405512 -0.00142126 0.000476378 -0.00138976 0.000547244 -0.00135433 0.000598425 -0.0013189 0.000681102 -0.00127953 0.000728346 -0.00125197 0.000783465 -0.00120079 0.000838583 -0.00116929 0.000893701 -0.00111417 0.000937008 -0.00107874 0.000988189 -0.00102362 0.00103937 -0.000984252 0.00109843 -0.00092126 0.00112205 -0.000874016 0.00116929 -0.000822835 0.00121654 -0.00076378 0.00124409 -0.000708661 0.00127953 -0.000653543 0.00132677 -0.000582677 0.00134646 -0.000523622 0.00138976 -0.00046063 0.0013937 -0.000385827 0.00144488 -0.000322835 0.00145669 -0.000259843 0.00148425 -0.000185039 0.00148425 -9.84252e-005 0.00152756 -3.93701e-005 0.00151969 4.72441e-005zm-0.00120472 0.254933l0 -0.0594606 -0.0297244 0.0297283 -7.87402e-006 -0.00582283 -2.75591e-005 -0.00587795 -1.1811e-005 -0.00593307 -7.87402e-006 -0.00598031 -7.87402e-006 -0.00602362 -2.75591e-005 -0.00606299 -1.1811e-005 -0.00609843 -7.87402e-006 -0.00612598 -7.87402e-006 -0.00616535 -2.75591e-005 -0.00618898 -1.1811e-005 -0.00620079 -7.87402e-006 -0.00622835 -7.87402e-006 -0.00624803 -1.1811e-005 -0.00625591 -2.75591e-005 -0.00625591 -7.87402e-006 -0.00626378 0 -0.00626772 -1.9685e-005 -0.00625591 -1.5748e-005 -0.00625591 -1.9685e-005 -0.00624409 0 -0.00622835 -7.87402e-006 -0.00620079 -2.75591e-005 -0.00619291 -1.1811e-005 -0.00616142 -7.87402e-006 -0.00612992 -7.87402e-006 -0.00609843 -3.14961e-005 -0.00606299 -7.87402e-006 -0.00602362 -7.87402e-006 -0.00598031 -1.1811e-005 -0.00593307 -2.75591e-005 -0.00587795 -7.87402e-006 -0.00582283 0.0594646 0 1.5748e-005 0.00582283 1.9685e-005 0.00587795 0 0.00593307 1.9685e-005 0.00598031 1.5748e-005 0.00602362 1.9685e-005 0.00606299 0 0.00609843 1.9685e-005 0.00612992 1.5748e-005 0.00616142 1.9685e-005 0.00619291 0 0.00620079 1.1811e-005 0.00622835 2.75591e-005 0.00624409 7.87402e-006 0.00625591 7.87402e-006 0.00625591 1.1811e-005 0.00626772 7.87402e-006 0.00626378 2.75591e-005 0.00625591 7.87402e-006 0.00625591 1.1811e-005 0.00624803 7.87402e-006 0.00622835 1.9685e-005 0.00620079 1.5748e-005 0.00618898 0 0.00616535 1.9685e-005 0.00612598 1.9685e-005 0.00609843 1.5748e-005 0.00606299 0 0.00602362 1.9685e-005 0.00598031 1.9685e-005 0.00593307 1.5748e-005 0.00587795 0 0.00582283 -0.0297283 0.0297323zm-0.0297244 -0.0297323l0.0594528 0 -3.54331e-005 0.0015315 -0.00011811 0.00151181 -0.000177165 0.00148031 -0.000275591 0.0014685 -0.000330709 0.00143701 -0.000397638 0.00141732 -0.00046063 0.00137402 -0.000543307 0.00135433 -0.000590551 0.00131496 -0.000653543 0.00128346 -0.000708661 0.00124409 -0.000775591 0.00120472 -0.000838583 0.00116929 -0.00088189 0.00112598 -0.000933071 0.00107874 -0.000976378 0.0010315 -0.00103937 0.000984252 -0.00107087 0.000929134 -0.00112205 0.000885827 -0.00116929 0.000830709 -0.00121654 0.000771654 -0.00123622 0.000712598 -0.00127953 0.000661417 -0.00132677 0.000590551 -0.00134646 0.000535433 -0.00138189 0.000468504 -0.00140945 0.000397638 -0.00143701 0.000330709 -0.00146457 0.000267717 -0.00149213 0.000181102 -0.00150394 0.000122047 -0.00153543 3.54331e-005 -0.00152362 -3.54331e-005 -0.00150787 -0.000122047 -0.00149213 -0.000181102 -0.00145669 -0.000267717 -0.00144882 -0.000330709 -0.00140945 -0.000397638 -0.00138189 -0.000468504 -0.00134252 -0.000535433 -0.00132677 -0.000590551 -0.00128346 -0.000661417 -0.00123228 -0.000712598 -0.00121654 -0.000771654 -0.00116929 -0.000830709 -0.00111811 -0.000885827 -0.0010748 -0.000929134 -0.00104331 -0.000984252 -0.000984252 -0.0010315 -0.00092126 -0.00107874 -0.000885827 -0.00112598 -0.000826772 -0.00116929 -0.000783465 -0.00120472 -0.000712598 -0.00124409 -0.000661417 -0.00128346 -0.00057874 -0.00131496 -0.000547244 -0.00135433 -0.00046063 -0.00137402 -0.000393701 -0.00141732 -0.000330709 -0.00143701 -0.000267717 -0.0014685 -0.000185039 -0.00148031 -0.000122047 -0.00151181 -3.54331e-005 -0.0015315z"/>
  <path class="fil1" d="M2.37044 0.832815l-0.0585157 0.011185 -0.000248031 -0.00151181 -0.000185039 -0.00151181 -8.26772e-005 -0.0015 -2.75591e-005 -0.00148425 5.51181e-005 -0.00148425 0.000137795 -0.00146457 0.000192913 -0.00144488 0.000267717 -0.00142913 0.00034252 -0.00140945 0.000413386 -0.00138189 0.000468504 -0.0013622 0.000535433 -0.00132677 0.000590551 -0.00130709 0.000653543 -0.00127165 0.000728346 -0.00123622 0.000771654 -0.00120866 0.000830709 -0.00115748 0.000885827 -0.00112598 0.000929134 -0.00107874 0.000996063 -0.0010315 0.00105118 -0.000996063 0.0010748 -0.000929134 0.00114567 -0.000893701 0.00118504 -0.000830709 0.00122835 -0.000779528 0.00127165 -0.000720472 0.00131496 -0.000653543 0.00135433 -0.000598425 0.0013937 -0.000535433 0.0014252 -0.000468504 0.0014685 -0.000397638 0.0015 -0.000322835 0.00151181 -0.000248031 0.0015 -0.000177165 0.00151181 -9.05512e-005 0.00148425 -1.9685e-005 0.00147244 5.51181e-005 0.00146457 0.000129921 0.00144882 0.000204724 0.0014252 0.000267717 0.00140945 0.000338583 0.00138583 0.000405512 0.00137008 0.000468504 0.0013189 0.000535433 0.0013189 0.000598425 0.00126772 0.000653543 0.00123622 0.000720472 0.00120866 0.000775591 0.00114961 0.000826772 0.00113386 0.000885827 0.00107874 0.000940945 0.00102362 0.000992126 0.000992126 0.00104331 0.000933071 0.00108661 0.000893701 0.00114173 0.000838583 0.00118898 0.000771654 0.00122441 0.000728346 0.00127165 0.000653543 0.00130709 0.000590551 0.00135433 0.000543307 0.0013937 0.00046063 0.00142913 0.000405512 0.00146457 0.000314961 0.0015zm-0.0485827 0.131965l-0.0298425 -0.0515236 0 0 0.0024685 -0.0015748 0.002 -0.00145669 0.00201575 -0.00169291 0.00168898 -0.00187008 0.0016378 -0.00194488 0.00155906 -0.00198031 0.00138976 -0.00235827 0.0013622 -0.00234252 0.0011063 -0.00255118 0.00111417 -0.00262598 0.000996063 -0.00278346 0.000893701 -0.00292913 0.000720472 -0.00304724 0.000633858 -0.00304331 0.000480315 -0.00310236 0.000433071 -0.0031811 0.000283465 -0.00296457 0.000279528 -0.00321654 0.000173228 -0.00296457 6.29921e-005 -0.00283858 -1.5748e-005 -0.00301575 -9.44882e-005 -0.00258661 -0.000145669 -0.00249606 -0.000192913 -0.00225984 -0.000102362 -0.00212598 -0.000232283 -0.00184252 -0.000228346 -0.00155906 -0.000102362 -0.00123228 -0.000212598 -0.00100394 -4.33071e-005 -0.00065748 1.5748e-005 -0.000145669 -3.54331e-005 0.000137795 0.0585157 -0.011185 4.33071e-005 0.000562992 0.000220472 0.00106693 0.000279528 0.00135433 0.000200787 0.00170472 0.00034252 0.00217717 0.000240157 0.00247638 0.000220472 0.00278346 0.000338583 0.00306693 0.000204724 0.00341732 0.000137795 0.00365748 9.05512e-005 0.00399213 1.1811e-005 0.00395276 -5.51181e-005 0.00445669 -0.000177165 0.0046063 -0.000275591 0.00461811 -0.000535433 0.00506693 -0.000673228 0.00503937 -0.00092126 0.00520472 -0.00110236 0.0053622 -0.00141339 0.00538976 -0.00160236 0.00549213 -0.00194094 0.00558268 -0.00226772 0.00564961 -0.00274803 0.00559055 -0.00299213 0.00560236 -0.00348425 0.00538189 -0.00389764 0.00548031 -0.00441339 0.00520472 -0.00497244 0.00491339 -0.00527165 0.00471654 -0.00596063 0.00449606 -0.00620866 0.00389764zm-0.0888898 0.000992126l-0.059685 0 0.030311 -0.0297283 -9.05512e-005 0 0.000255906 -0.000102362 0.000555118 0.000102362 0.000948819 -1.1811e-005 0.000992126 -2.75591e-005 0.0013937 -4.33071e-005 0.00151969 -7.48031e-005 0.00177559 -0.000110236 0.002 -0.000149606 0.00223228 -0.000185039 0.00242126 -0.00011811 0.00264567 -0.000295276 0.00281102 -0.000350394 0.00288976 -0.000295276 0.00305118 -0.000476378 0.00330709 -0.00046063 0.00333465 -0.000637795 0.00347244 -0.00061811 0.00347638 -0.00069685 0.00370079 -0.000811024 0.00366929 -0.000905512 0.00374016 -0.000901575 0.00384252 -0.00113386 0.00388583 -0.00113386 0.00381496 -0.00137008 0.00385039 -0.00128346 0.004 -0.00152756 0.0037874 -0.00166929 0.00389764 -0.00170472 0.00376772 -0.00185039 0.00387008 -0.00188976 0.00360236 -0.00205512 0.0298425 0.0515236 -0.00547244 0.00299213 -0.00525197 0.00283071 -0.00540945 0.00255118 -0.00529921 0.00240551 -0.0054252 0.00212598 -0.00514961 0.00199213 -0.00525197 0.00198031 -0.00522441 0.00161024 -0.00505906 0.00159449 -0.00498425 0.00137402 -0.00491732 0.0013622 -0.00484646 0.00114567 -0.00462598 0.0010315 -0.00464567 0.000937008 -0.0043937 0.000858268 -0.00427559 0.000633858 -0.00401575 0.000685039 -0.00397244 0.000476378 -0.00381102 0.000535433 -0.0035315 0.000350394 -0.00333465 0.000295276 -0.00313386 0.000358268 -0.00291732 0.000185039 -0.00270866 0.000145669 -0.00247244 0.000110236 -0.00222047 7.48031e-005 -0.00185039 4.72441e-005 -0.00170472 2.75591e-005 -0.00117717 7.87402e-006 -0.00101575 0.000122047 -0.000708661 -0.000122047 -0.000397638 0 0.030315 -0.0297323zm-0.059685 0l0 -0.030311 0.030311 0.000582677 -0.030311 0.0297283zm0 0.12522l0 -0.12522 0.059685 0 0 0.12522 -0.059685 0zm0 0l0.059685 0 -4.72441e-005 0.00153937 -0.000122047 0.00151181 -0.000173228 0.00149213 -0.000267717 0.00147244 -0.000338583 0.00143701 -0.000397638 0.00142126 -0.000480315 0.00138189 -0.000523622 0.00135433 -0.000598425 0.00132677 -0.000665354 0.0012874 -0.000716535 0.00124409 -0.000775591 0.00121654 -0.000838583 0.00116929 -0.000874016 0.00112598 -0.000940945 0.00107874 -0.000984252 0.00103937 -0.00105118 0.000984252 -0.00107087 0.000940945 -0.00112205 0.000885827 -0.00116929 0.000838583 -0.00121654 0.000771654 -0.00124409 0.000720472 -0.00129921 0.000653543 -0.0013189 0.000598425 -0.0013622 0.000535433 -0.00137402 0.000468504 -0.0014252 0.000405512 -0.00144094 0.000330709 -0.00146457 0.000267717 -0.0015 0.000185039 -0.00150394 0.000122047 -0.00154724 3.54331e-005 -0.00152756 -3.54331e-005 -0.00151181 -0.000122047 -0.00149213 -0.000185039 -0.00148425 -0.000267717 -0.00142913 -0.000330709 -0.0014252 -0.000405512 -0.00138189 -0.000468504 -0.00134646 -0.000535433 -0.00133465 -0.000598425 -0.00129134 -0.000653543 -0.00123622 -0.000720472 -0.0012126 -0.000771654 -0.00117323 -0.000838583 -0.00112205 -0.000885827 -0.00108661 -0.000940945 -0.0010315 -0.000984252 -0.000988189 -0.00103937 -0.000948819 -0.00107874 -0.00088189 -0.00112598 -0.000838583 -0.00116929 -0.000775591 -0.00121654 -0.000720472 -0.00124409 -0.000641732 -0.0012874 -0.000598425 -0.00132677 -0.000547244 -0.00135433 -0.00046063 -0.00138189 -0.000405512 -0.00142126 -0.000330709 -0.00143701 -0.000267717 -0.00147244 -0.000181102 -0.00149213 -0.000129921 -0.00151181 -2.75591e-005 -0.00153937z"/>
  <path class="fil2" d="M1.54089 0.390563c0.282528,-0.282535 0.740618,-0.282535 1.02315,0 0.282528,0.282528 0.282528,0.740618 0,1.02315 -0.282528,0.282535 -0.740618,0.282535 -1.02315,0 -0.282547,-0.282528 -0.282547,-0.740618 0,-1.02315zm0.10637 0.10637c0.223783,-0.223791 0.586614,-0.223791 0.810406,0 0.223783,0.223783 0.223783,0.586614 0,0.810406 -0.223791,0.223795 -0.586622,0.223795 -0.810406,0 -0.223795,-0.223791 -0.223795,-0.586622 0,-0.810406z"/>
  <path class="fil2" d="M2.58661 1.43631l7.87402e-006 0c0.0330945,-0.0330827 0.0872047,-0.0330827 0.120287,0l0.139299 0.139291c0.0330866,0.0330827 0.0330945,0.0872008 0,0.120287l0 7.87402e-006c-0.0330866,0.0330787 -0.0872126,0.0330787 -0.120299,0l-0.139295 -0.139295c-0.0330787,-0.0330748 -0.0330787,-0.0872047 0,-0.120291z"/>
  <path class="fil1" d="M0.952236 2.3885l-0.0762992 0 0 -0.158594 -0.155642 0 0 0.158594 -0.0765669 0 0 -0.381591 0.0765669 0 0 0.164051 0.155642 0 0 -0.164051 0.0762992 0 0 0.381591zm0.0534016 -0.14437c0,-0.042311 0.0118071,-0.0769252 0.0354213,-0.103941 0.0235276,-0.0270118 0.0562638,-0.0405197 0.0980354,-0.0405197 0.0418622,0 0.0746929,0.0134173 0.0984843,0.0403425 0.0237953,0.0269252 0.035689,0.0616299 0.035689,0.104118l0 0.00545669c0,0.0426654 -0.0118937,0.077374 -0.0355079,0.104209 -0.0237047,0.0268346 -0.0564449,0.040252 -0.0982165,0.040252 -0.0418622,0 -0.074689,-0.0134173 -0.0983937,-0.040252 -0.0236142,-0.0268346 -0.0355118,-0.0615433 -0.0355118,-0.104209l0 -0.00545669zm0.0762992 0.00545669c0,0.0259409 0.00456299,0.0466929 0.0135984,0.0623465 0.00912205,0.0156535 0.0237913,0.0234331 0.0440079,0.0234331 0.0197677,0 0.0342598,-0.00787008 0.0433819,-0.0236142 0.0092126,-0.0157402 0.0137756,-0.0364055 0.0137756,-0.0621654l0 -0.00545669c0,-0.0252244 -0.00464961,-0.0457087 -0.0138661,-0.0616299 -0.00929921,-0.0159213 -0.0238819,-0.0238819 -0.0437402,-0.0238819 -0.0197677,0 -0.0342559,0.00796063 -0.0433819,0.0239724 -0.0092126,0.0160079 -0.0137756,0.0364921 -0.0137756,0.0615394l0 0.00545669zm0.329441 -0.214051l0 0.0694134 0.0476772 0 0 0.0537559 -0.0476772 0 0 0.14437c0,0.0110039 0.00223622,0.018874 0.00679921,0.0236142 0.00456299,0.00474409 0.0106457,0.00706693 0.0183386,0.00706693 0.00402362,0 0.00742126,-0.000177165 0.010374,-0.000625984 0.0028622,-0.000444882 0.00626378,-0.00125197 0.0101102,-0.00223622l0.00652756 0.0552795c-0.00769291,0.00259449 -0.0152047,0.00456299 -0.0225394,0.00590551 -0.00733465,0.00134252 -0.0152953,0.0019685 -0.0238858,0.0019685 -0.0263858,0 -0.046689,-0.00724803 -0.0609134,-0.0217362 -0.0142205,-0.0144921 -0.021378,-0.0374803 -0.021378,-0.0689646l0 -0.144642 -0.0414134 0 0 -0.0537559 0.0414134 0 0 -0.0694134 0.0765669 0zm0.221921 0.358512c-0.040878,0 -0.0735276,-0.0131496 -0.0979449,-0.0393583 -0.0245079,-0.0262087 -0.0366732,-0.0594843 -0.0366732,-0.0998268l0 -0.0104646c0,-0.0421299 0.0115394,-0.0768346 0.0347047,-0.104118 0.0231693,-0.0272835 0.0542047,-0.0407874 0.0931181,-0.0406102 0.0382835,0 0.0679803,0.0115394 0.0890906,0.0346181 0.0211969,0.0230787 0.031752,0.0542047 0.031752,0.093563l0 0.0416811 -0.169327 0 -0.000535433 0.00161024c0.00143307,0.0186969 0.00769291,0.0340827 0.0187835,0.0461575 0.0110945,0.0120748 0.0261181,0.0180669 0.0451732,0.0180669 0.0169961,0 0.0310394,-0.00169685 0.0422205,-0.00509843 0.0111811,-0.00339764 0.0234331,-0.00876378 0.0366732,-0.0160984l0.020752 0.0471378c-0.0115394,0.0093937 -0.0266575,0.0172638 -0.0453504,0.023437 -0.0186969,0.00616929 -0.0395354,0.00930315 -0.062437,0.00930315zm-0.00679528 -0.235429c-0.0141339,0 -0.025315,0.00545669 -0.0335433,0.0162795 -0.00823228,0.0108228 -0.0132402,0.0251339 -0.0152087,0.0427559l0.000807087 0.00134252 0.0938307 0 0 -0.00679921c0,-0.0162795 -0.00384646,-0.0293386 -0.0113583,-0.039 -0.0076063,-0.00975197 -0.0191457,-0.0145787 -0.0345276,-0.0145787zm0.245894 0.229882l-0.0765669 0 0 -0.40878 0.0765669 0 0 0.40878zm0.229079 -0.381591l0.0762087 0 0 0.267094c0,0.0368543 -0.0119843,0.0661024 -0.0360472,0.0876614 -0.0239724,0.0215591 -0.0543858,0.0323819 -0.0910591,0.0323819 -0.0398031,0 -0.071378,-0.00966142 -0.0945472,-0.0290709 -0.0232559,-0.0194134 -0.034437,-0.0479449 -0.0335433,-0.0856929l0.000448819 -0.00161024 0.0744213 0c0,0.020126 0.00483071,0.0347953 0.0144882,0.0439173 0.0095748,0.00921654 0.0225433,0.0137756 0.0387323,0.0137756 0.0141339,0 0.0262087,-0.00545669 0.0360472,-0.0163661 0.00984252,-0.0109134 0.0148504,-0.0259409 0.0148504,-0.0449961l0 -0.267094zm0.128358 0.23722c0,-0.042311 0.0118071,-0.0769252 0.0354213,-0.103941 0.0235276,-0.0270118 0.0562638,-0.0405197 0.0980354,-0.0405197 0.0418622,0 0.0746929,0.0134173 0.0984843,0.0403425 0.0237953,0.0269252 0.035689,0.0616299 0.035689,0.104118l0 0.00545669c0,0.0426654 -0.0118937,0.077374 -0.0355079,0.104209 -0.0237047,0.0268346 -0.0564449,0.040252 -0.0982165,0.040252 -0.0418622,0 -0.074689,-0.0134173 -0.0983937,-0.040252 -0.0236142,-0.0268346 -0.0355118,-0.0615433 -0.0355118,-0.104209l0 -0.00545669zm0.0762992 0.00545669c0,0.0259409 0.00456299,0.0466929 0.0135984,0.0623465 0.00912205,0.0156535 0.0237913,0.0234331 0.0440079,0.0234331 0.0197677,0 0.0342598,-0.00787008 0.0433819,-0.0236142 0.0092126,-0.0157402 0.0137756,-0.0364055 0.0137756,-0.0621654l0 -0.00545669c0,-0.0252244 -0.00464961,-0.0457087 -0.0138661,-0.0616299 -0.00929921,-0.0159213 -0.0238819,-0.0238819 -0.0437402,-0.0238819 -0.0197677,0 -0.0342559,0.00796063 -0.0433819,0.0239724 -0.0092126,0.0160079 -0.0137756,0.0364921 -0.0137756,0.0615394l0 0.00545669zm0.494295 0.00500787c0,0.042311 -0.00948031,0.076122 -0.0283543,0.101437 -0.018874,0.025311 -0.0461535,0.0380157 -0.0817559,0.0380157 -0.0164567,0 -0.0307717,-0.00348819 -0.0431142,-0.010378 -0.0123425,-0.00688583 -0.0227205,-0.0169961 -0.0313071,-0.0303228l-0.00572441 0.0351535 -0.0655669 0 0 -0.40878 0.0762992 0 0 0.155283c0.00814173,-0.0112717 0.0179803,-0.0200394 0.0294291,-0.026122 0.0114488,-0.00616929 0.0245984,-0.0092126 0.0394488,-0.0092126 0.0360472,0 0.0634173,0.0135984 0.0822913,0.0407874 0.018874,0.0271929 0.0283543,0.0633307 0.0283543,0.108594l0 0.00554331zm-0.0762992 -0.00554331c0,-0.0275512 -0.00402362,-0.0494685 -0.0121654,-0.0656575 -0.0081378,-0.016189 -0.0220039,-0.0242402 -0.0415945,-0.0242402 -0.0118071,0 -0.0219134,0.00250394 -0.0301417,0.00751181 -0.00814173,0.00492126 -0.0146693,0.0120787 -0.0193228,0.0212913l0 0.12013c0.00465354,0.00858661 0.0111811,0.0151142 0.0195,0.0196772 0.0083189,0.00456299 0.0184291,0.00679921 0.0305039,0.00679921 0.0197677,0 0.0335433,-0.00697638 0.0414134,-0.0208425 0.00787402,-0.0138661 0.0118071,-0.0336339 0.0118071,-0.059126l0 -0.00554331zm0.379264 0.00554331c0,0.042311 -0.00948031,0.076122 -0.0283543,0.101437 -0.018874,0.025311 -0.0461535,0.0380157 -0.0817559,0.0380157 -0.0164567,0 -0.0307717,-0.00348819 -0.0431142,-0.010378 -0.0123425,-0.00688583 -0.0227205,-0.0169961 -0.0313071,-0.0303228l-0.00572441 0.0351535 -0.0655669 0 0 -0.40878 0.0762992 0 0 0.155283c0.00814173,-0.0112717 0.0179803,-0.0200394 0.0294291,-0.026122 0.0114488,-0.00616929 0.0245984,-0.0092126 0.0394488,-0.0092126 0.0360472,0 0.0634173,0.0135984 0.0822913,0.0407874 0.018874,0.0271929 0.0283543,0.0633307 0.0283543,0.108594l0 0.00554331zm-0.0762992 -0.00554331c0,-0.0275512 -0.00402362,-0.0494685 -0.0121654,-0.0656575 -0.0081378,-0.016189 -0.0220039,-0.0242402 -0.0415945,-0.0242402 -0.0118071,0 -0.0219134,0.00250394 -0.0301417,0.00751181 -0.00814173,0.00492126 -0.0146693,0.0120787 -0.0193228,0.0212913l0 0.12013c0.00465354,0.00858661 0.0111811,0.0151142 0.0195,0.0196772 0.0083189,0.00456299 0.0184291,0.00679921 0.0305039,0.00679921 0.0197677,0 0.0335433,-0.00697638 0.0414134,-0.0208425 0.00787402,-0.0138661 0.0118071,-0.0336339 0.0118071,-0.059126l0 -0.00554331zm0.248937 0.144996c-0.040878,0 -0.0735276,-0.0131496 -0.0979449,-0.0393583 -0.0245079,-0.0262087 -0.0366732,-0.0594843 -0.0366732,-0.0998268l0 -0.0104646c0,-0.0421299 0.0115394,-0.0768346 0.0347047,-0.104118 0.0231693,-0.0272835 0.0542047,-0.0407874 0.0931181,-0.0406102 0.0382835,0 0.0679803,0.0115394 0.0890906,0.0346181 0.0211969,0.0230787 0.031752,0.0542047 0.031752,0.093563l0 0.0416811 -0.169327 0 -0.000535433 0.00161024c0.00143307,0.0186969 0.00769291,0.0340827 0.0187835,0.0461575 0.0110945,0.0120748 0.0261181,0.0180669 0.0451732,0.0180669 0.0169961,0 0.0310394,-0.00169685 0.0422205,-0.00509843 0.0111811,-0.00339764 0.0234331,-0.00876378 0.0366732,-0.0160984l0.020752 0.0471378c-0.0115394,0.0093937 -0.0266575,0.0172638 -0.0453504,0.023437 -0.0186969,0.00616929 -0.0395354,0.00930315 -0.062437,0.00930315zm-0.00679528 -0.235429c-0.0141339,0 -0.025315,0.00545669 -0.0335433,0.0162795 -0.00823228,0.0108228 -0.0132402,0.0251339 -0.0152087,0.0427559l0.000807087 0.00134252 0.0938307 0 0 -0.00679921c0,-0.0162795 -0.00384646,-0.0293386 -0.0113583,-0.039 -0.0076063,-0.00975197 -0.0191457,-0.0145787 -0.0345276,-0.0145787zm0.3145 0.0120748l-0.0279961 -0.000807087c-0.0113583,0 -0.020752,0.00232677 -0.0280866,0.00706693 -0.00733465,0.00474016 -0.0128819,0.0113622 -0.0167283,0.0199488l0 0.191598 -0.0762992 0 0 -0.283551 0.0710236 0 0.00339764 0.0419488c0.00661811,-0.0148465 0.0152953,-0.0264764 0.0258504,-0.0347953 0.0105551,-0.0083189 0.0227205,-0.0124331 0.0364961,-0.0124331 0.00384646,0 0.0074252,0.000267717 0.0106457,0.000893701 0.00322047,0.000625984 0.00652756,0.00134252 0.00983858,0.00223622l-0.00814173 0.0678937z"/>
  <path class="fil3" d="M1.25466 2.74531c-0.00117323,0.0018622 -0.00319685,0.00344094 -0.00607087,0.0047874 -0.00288189,0.00137402 -0.00529134,0.00204331 -0.00722835,0.00204331 -0.00517717,0 -0.00987008,-0.00264173 -0.014063,-0.00789764 -0.00422835,-0.00520866 -0.0103858,-0.0185551 -0.0185551,-0.0399646 -0.0081811,-0.0213976 -0.0127205,-0.0339921 -0.0135472,-0.0377441l-0.0285945 0.0514488c-0.0157913,0.0284764 -0.0263386,0.0426969 -0.0315906,0.0426969 -0.00375197,0 -0.00698819,-0.000913386 -0.00971654,-0.00268504 -0.00269291,-0.0018189 -0.00525197,-0.00541339 -0.00769685,-0.0107087 -0.00241339,-0.00533071 -0.00573228,-0.0172165 -0.00987402,-0.0355827 -0.00418504,-0.0183976 -0.00794094,-0.0370039 -0.0112992,-0.0557598 -0.00335039,-0.0187953 -0.00556299,-0.0303661 -0.00663386,-0.0347953 -0.000708661,-0.00292126 -0.00134252,-0.0052874 -0.0019685,-0.00705906 -0.00201575,-0.00616535 -0.00300394,-0.010622 -0.00300394,-0.0133898 0,-0.0033937 0.00149606,-0.00671654 0.0045,-0.00991732 0.003,-0.00319291 0.00651969,-0.00477165 0.0105394,-0.00477165 0.00731102,0 0.0124449,0.00583858 0.0153661,0.0174921 0.00296457,0.011689 0.00462205,0.0199764 0.00497638,0.0248346l0.00304331 0.0195472c0.000905512,0.00656693 0.00209055,0.0136339 0.00355118,0.0211693 0.00154724,0.00785827 0.00280315,0.0145748 0.0037126,0.0201457 0.00308268,0.0186024 0.00509449,0.0288228 0.006,0.0307559 0.0144488,-0.0229764 0.0239764,-0.0386575 0.0285906,-0.0470276 0.00462992,-0.00837795 0.0114961,-0.0222795 0.020626,-0.0417047 0.00105906,-0.0019252 0.0027874,-0.00367323 0.00524409,-0.00525197 0.00240157,-0.00157874 0.00489764,-0.00237008 0.00746063,-0.00237008 0.0033189,0 0.00608661,0.00170079 0.00833465,0.00509843 0.00221654,0.00340157 0.00604331,0.0120866 0.0114488,0.0261417 0.000240157,0.000830709 0.000598425,0.0018937 0.00114567,0.00311811l0.0093622 0.0247598c0.00833071,0.0221181 0.0129488,0.0334488 0.0137835,0.034 0.0220748,-0.0417402 0.0353031,-0.0844685 0.039689,-0.128177 0,-0.00300787 0.00134646,-0.00537795 0.00398031,-0.00711417 0.00264961,-0.00173622 0.00572835,-0.00260236 0.00920866,-0.00260236 0.00477953,0 0.00817717,0.00149213 0.010185,0.00445669 0.00198425,0.00296063 0.00300787,0.00628346 0.00300787,0.00999213 0,0.00761811 -0.00209055,0.0197047 -0.00624409,0.0361732 -0.00418504,0.0164646 -0.0103504,0.0342362 -0.0185197,0.0533898l-0.00335827 0.00798031c-0.000866142,0.00221654 -0.00706693,0.0152795 -0.0186378,0.0390945 -0.00355906,0.00735039 -0.0059252,0.0124803 -0.00715354,0.0153976zm0.171205 -0.0353031c0,0.00801575 -0.00675984,0.0176181 -0.0202598,0.028752 -0.0134685,0.0111378 -0.0287087,0.0167441 -0.0456969,0.0167441 -0.0130354,0 -0.0232913,-0.0041063 -0.0307598,-0.0123189 -0.00750394,-0.00821654 -0.0112126,-0.0196732 -0.0112126,-0.0343189 0,-0.0215945 0.00761811,-0.0418622 0.0229016,-0.0607362 0.0152913,-0.0189213 0.0315945,-0.0283543 0.0489331,-0.0283543 0.00864173,0 0.0155945,0.00272047 0.0208071,0.00821654 0.00525197,0.00548425 0.00789764,0.0119961 0.00789764,0.0195472 0,0.0134252 -0.00643307,0.0262165 -0.0193504,0.0383465 -0.012874,0.0121575 -0.0293819,0.0205315 -0.0495197,0.025185 -0.00229528,0.000519685 -0.00343701,0.00190157 -0.00343701,0.00415354 0,0.00370866 0.00161811,0.00722835 0.0048937,0.0105748 0.00327953,0.00336614 0.00765748,0.00505906 0.0131496,0.00505906 0.0154843,0 0.0308858,-0.00801969 0.0461772,-0.0239685 0.00290945,-0.00307874 0.00575591,-0.00462205 0.0085315,-0.00462205 0.00465354,0 0.00694488,0.00257087 0.00694488,0.00774016zm-0.0776457 -0.0204528c0.0122008,-0.00249213 0.0229488,-0.00770079 0.0322283,-0.0156378 0.00932283,-0.00793701 0.0139331,-0.0151654 0.0139331,-0.0216417 0,-0.00252756 -0.000708661,-0.00465748 -0.00212992,-0.0063937 -0.00142126,-0.00174409 -0.00323622,-0.00261024 -0.00549213,-0.00261024 -0.00670079,0 -0.014126,0.00493307 -0.0223465,0.014811 -0.00817717,0.00987008 -0.0135512,0.0203307 -0.0161929,0.0314724zm0.222138 0.0534331c-0.000944882,0.00792913 -0.00537402,0.0119213 -0.013311,0.0119213 -0.0101063,0 -0.0151732,-0.00729921 -0.0151732,-0.021874 0,-0.0235748 0.00127165,-0.0437598 0.00380315,-0.0605039 0.00200787,-0.0130354 0.00303543,-0.0258228 0.00303543,-0.0384291 0,-0.003 0.000944882,-0.00551575 0.00288976,-0.00757874 0.00193701,-0.00201575 0.00461417,-0.00304331 0.00809055,-0.00304331 0.0115669,0 0.0173425,0.00703543 0.0173425,0.0210551 0,0.00453543 -0.00201969,0.0161535 -0.00612598,0.0348307 -0.00244882,0.0110945 -0.0037126,0.0191535 -0.0037126,0.0241732 0.0220709,-0.0484213 0.0419803,-0.0726693 0.0597126,-0.0726693 0.00718898,0 0.0129567,0.00288976 0.0172953,0.00857087 0.00434252,0.00572441 0.00663386,0.0183661 0.00675591,0.0379567 7.87402e-005,0.017878 0.00102362,0.0268425 0.00280315,0.0268425 0.00138189,0 0.00620472,-0.0086811 0.0144528,-0.0260236 0.00916535,-0.0192283 0.0170157,-0.0319055 0.0235315,-0.0380709 0.00651969,-0.00618898 0.0133937,-0.00927559 0.0205354,-0.00927559 0.0085748,0 0.0147677,0.0037126 0.0186417,0.0110551 0.00387795,0.00738583 0.00655512,0.0198268 0.00810236,0.0373268 0.00114173,0.0138622 0.00271654,0.0243622 0.00469685,0.0314724 0.00192913,0.00706299 0.00532677,0.011811 0.0101063,0.0140906 0.00387008,0.00186614 0.00576378,0.00462598 0.00576378,0.00834252 0,0.00331102 -0.00216929,0.00666929 -0.00659449,0.0100276 -0.00437795,0.00335433 -0.00884252,0.00501181 -0.0133898,0.00501181 -0.0078937,0 -0.0140118,-0.00387008 -0.0184803,-0.0116063 -0.00441732,-0.00778346 -0.00741732,-0.0233386 -0.00896457,-0.0467165 -0.000826772,-0.0112598 -0.00173228,-0.0187205 -0.00272441,-0.0223504 -0.000948819,-0.00367717 -0.00240551,-0.0055315 -0.00429921,-0.0055315 -0.00170472,0 -0.00418504,0.00275984 -0.00742913,0.00829528 -0.00324016,0.00548031 -0.00884252,0.0164646 -0.0167835,0.0328898 -0.00699213,0.0148071 -0.0130276,0.0251614 -0.0180866,0.031 -0.00505118,0.00588583 -0.0104606,0.00881102 -0.0162677,0.00881102 -0.0044685,0 -0.0089685,-0.00193307 -0.0134646,-0.00576378 -0.00450394,-0.00387795 -0.00695276,-0.0178504 -0.00735039,-0.0420236 -0.000385827,-0.0215197 -0.00177559,-0.0322638 -0.00418504,-0.0322638 -0.00324409,0 -0.0110118,0.00956299 -0.0233386,0.0286693 -0.0123622,0.0191614 -0.0216417,0.036252 -0.027878,0.0513819zm0.285634 -0.0319173c-0.0202992,0.0267402 -0.0398858,0.040126 -0.0587638,0.040126 -0.00695276,0 -0.0129528,-0.00272441 -0.0179213,-0.00820866 -0.00502362,-0.00549213 -0.00754724,-0.0124449 -0.00754724,-0.0209331 0,-0.0204567 0.00912598,-0.0422126 0.0272874,-0.0653189 0.0182087,-0.0230984 0.0365709,-0.0346299 0.0550906,-0.0346299 0.00940157,0 0.0155945,0.00474016 0.0185197,0.0142126 0.00884252,0 0.0133071,0.00340157 0.0133071,0.0101969 0,0.00323228 -0.000866142,0.00907874 -0.00257087,0.0175669 -0.0030748,0.0158819 -0.00461417,0.0285945 -0.00461417,0.0380669 0,0.00987402 0.000673228,0.0168228 0.00201575,0.020815 0.00135039,0.00402362 0.00233071,0.00662992 0.00295669,0.0078937 0.000629921,0.00123228 0.00248819,0.00253543 0.00556693,0.00391339 0.00308268,0.00146063 0.00462598,0.00351969 0.00462598,0.00612205 0,0.00394882 -0.0019685,0.00722047 -0.00596063,0.00983071 -0.00399213,0.00264961 -0.0081378,0.00394882 -0.0124449,0.00394882 -0.0144961,0 -0.0210079,-0.0145236 -0.0195472,-0.0436024zm-0.00695276 -0.0642087c-0.00777559,0 -0.0178858,0.00861417 -0.0303701,0.0258346 -0.0124291,0.0172559 -0.0186772,0.0318661 -0.0186772,0.0439173 0,0.00630709 0.00130709,0.0094685 0.00395276,0.0094685 0.00908661,0 0.0202992,-0.00805906 0.0336102,-0.0242126 0.0133071,-0.016185 0.0199331,-0.0302913 0.0199331,-0.0424055 0,-0.00387008 -0.000862205,-0.00691339 -0.00259843,-0.00920472 -0.00174409,-0.00228346 -0.00367717,-0.00339764 -0.00585039,-0.00339764zm0.148094 0.0642953c-0.0199803,0.028311 -0.0400472,0.0424921 -0.0602677,0.0424921 -0.00817323,0 -0.0147638,-0.00324016 -0.0197795,-0.00967323 -0.00501575,-0.00644094 -0.00750394,-0.0146535 -0.00750394,-0.0246024 0,-0.0201063 0.00821654,-0.040122 0.0246811,-0.0600354 0.0164685,-0.0198976 0.0331339,-0.0298465 0.0500315,-0.0298465 0.00971654,0 0.0166339,0.00256299 0.0207362,0.00762598 0.00576378,-0.0252835 0.00919685,-0.0411181 0.0102638,-0.047437 0.00233071,-0.0117244 0.00427559,-0.0195079 0.00580709,-0.0233386 0.00153937,-0.00386614 0.00386614,-0.00687008 0.00707087,-0.00900787 0.00316142,-0.00208268 0.00588189,-0.00315354 0.0082126,-0.00315354 0.00391339,0 0.00691732,0.00161417 0.00900787,0.00485433 0.00209449,0.00324803 0.00311811,0.00730709 0.00311811,0.0122402 0,0.00217717 -0.00169685,0.00837795 -0.00509449,0.0186378 -0.0055315,0.0166732 -0.0106969,0.036811 -0.0154449,0.0603898 -0.00473622,0.0236142 -0.00709843,0.0424134 -0.00709843,0.0563583 0,0.0133386 0.00291732,0.0200197 0.00880315,0.0200197 0.00299213,0 0.00619291,-0.000799213 0.00958661,-0.00240945 0.00340551,-0.00158268 0.00576772,-0.00233465 0.00715354,-0.00233465 0.00379134,0 0.00569291,0.0022126 0.00569291,0.00659449 0,0.00533465 -0.00383465,0.0106181 -0.0115354,0.0159134 -0.00765748,0.00529528 -0.0149291,0.00790157 -0.0217953,0.00790157 -0.00738976,0 -0.0131181,-0.00394094 -0.0171024,-0.0118937 -0.00403543,-0.00792913 -0.00552756,-0.0177283 -0.00454331,-0.0292953zm-0.0128386 -0.0593189c-0.0101063,0 -0.0206457,0.00770866 -0.031626,0.0231063 -0.0109843,0.015437 -0.0165118,0.0295827 -0.0165118,0.042374 0,0.00746063 0.00280709,0.0112126 0.00833071,0.0112126 0.00944488,0 0.0206575,-0.00837008 0.033689,-0.0251181 0.0130354,-0.0167441 0.0195472,-0.0299764 0.0195472,-0.039689 0,-0.00292126 -0.00122835,-0.00564173 -0.0037126,-0.00812992 -0.00244094,-0.0025315 -0.00568898,-0.00375591 -0.00971654,-0.00375591zm0.190783 0.0581693c0,0.00801575 -0.00675197,0.0176181 -0.0202598,0.028752 -0.0134646,0.0111378 -0.0287047,0.0167441 -0.045689,0.0167441 -0.0130394,0 -0.0233071,-0.0041063 -0.0307677,-0.0123189 -0.00749606,-0.00821654 -0.0112165,-0.0196732 -0.0112165,-0.0343189 0,-0.0215945 0.00762598,-0.0418622 0.0229055,-0.0607362 0.0152835,-0.0189213 0.0315984,-0.0283543 0.048937,-0.0283543 0.00864567,0 0.0155945,0.00272047 0.0208031,0.00821654 0.00525984,0.00548425 0.00789764,0.0119961 0.00789764,0.0195472 0,0.0134252 -0.00643307,0.0262165 -0.0193465,0.0383465 -0.012878,0.0121575 -0.029378,0.0205315 -0.0495236,0.025185 -0.0022874,0.000519685 -0.00343307,0.00190157 -0.00343307,0.00415354 0,0.00370866 0.00161417,0.00722835 0.00489764,0.0105748 0.00327953,0.00336614 0.00765748,0.00505906 0.0131535,0.00505906 0.0154724,0 0.030874,-0.00801969 0.0461614,-0.0239685 0.00292126,-0.00307874 0.00576378,-0.00462205 0.00852362,-0.00462205 0.00466142,0 0.00695669,0.00257087 0.00695669,0.00774016zm-0.0776378 -0.0204528c0.0121969,-0.00249213 0.022937,-0.00770079 0.0322244,-0.0156378 0.00932283,-0.00793701 0.013937,-0.0151654 0.013937,-0.0216417 0,-0.00252756 -0.000704724,-0.00465748 -0.00213386,-0.0063937 -0.00142126,-0.00174409 -0.00324409,-0.00261024 -0.00549213,-0.00261024 -0.00670472,0 -0.0141299,0.00493307 -0.0223465,0.014811 -0.00816929,0.00987008 -0.0135472,0.0203307 -0.016189,0.0314724zm0.255657 -0.111677c0,0.00548819 -0.00244882,0.0102992 -0.00738189,0.0144094 -0.00494094,0.00414961 -0.00923622,0.00620472 -0.012878,0.00620472 -0.00461417,0 -0.00872441,-0.00193701 -0.0123189,-0.00581102 -0.00355906,-0.00383465 -0.00537402,-0.00769291 -0.00537402,-0.0115276 0,-0.00557087 0.0017874,-0.0100748 0.00533858,-0.0135079 0.00354724,-0.00343307 0.00864173,-0.00513386 0.0152835,-0.00513386 0.00516929,0 0.00931496,0.00150394 0.0125551,0.0045748 0.00319291,0.00305512 0.00477559,0.0066378 0.00477559,0.0107913zm-0.055874 0.0951299l0 0.000114173c0.00248425,-0.0140551 0.00370866,-0.0220748 0.00370866,-0.0240866 0,-0.00568504 0.00125984,-0.0104646 0.00374803,-0.0143346 0.00252756,-0.00387008 0.00600787,-0.00579921 0.0104646,-0.00579921 0.00525591,0 0.00936614,0.00126378 0.0122874,0.00370472 0.00292126,0.00248425 0.00437795,0.00525591 0.00437795,0.00833465 0,0.0030748 -0.00141732,0.00943701 -0.00425591,0.0191102l-0.000708661 0.00253543c-0.00423228,0.0148819 -0.00679528,0.0270433 -0.00762992,0.0364488 -0.000870079,0.00939764 -0.00130315,0.0170197 -0.00130315,0.0227756 0,0.00470079 0.000830709,0.0109882 0.00244882,0.0188819 0.00023622,0.00138976 0.000362205,0.00252756 0.000362205,0.00343307 0,0.0017874 -0.00170079,0.00418898 -0.00506299,0.00719291 -0.00335827,0.003 -0.00694882,0.00450394 -0.0108189,0.00450394 -0.0101535,0 -0.0152441,-0.00770866 -0.0152441,-0.0231457 0,-0.0131063 0.0018622,-0.029063 0.0055315,-0.0478622 0.000787402,-0.00418504 0.00146063,-0.0081378 0.00209449,-0.0118071zm0.107016 -0.0171417c-0.000665354,0 -0.00284252,0.00861811 -0.00650787,0.0257874 -0.00366929,0.0172244 -0.00549606,0.0276457 -0.00549606,0.0312362 0,0.00636614 0.000665354,0.0107441 0.00201575,0.0132756 0.00134252,0.00248425 0.00355906,0.00374803 0.0066378,0.00374803 0.00433858,0 0.00848819,-0.000748031 0.0124409,-0.00225197 0.00397638,-0.00149606 0.00919685,-0.00489764 0.0156693,-0.0101063 0.00403543,-0.0033189 0.00743307,-0.00497244 0.010189,-0.00497244 0.00225197,0 0.00402756,0.000625984 0.00537402,0.00188976 0.00137402,0.00127165 0.00204724,0.00276378 0.00204724,0.00446063 0,0.00679921 -0.00548031,0.0144606 -0.0164252,0.023063 -0.0109764,0.00861024 -0.0225433,0.0129134 -0.0347087,0.0129134 -0.0101929,0 -0.0179685,-0.00299606 -0.0233386,-0.00903543 -0.00533071,-0.00600787 -0.00801575,-0.0146496 -0.00801575,-0.0259173 0,-0.0104173 0.00387008,-0.0311929 0.011689,-0.0623543 -0.00493701,0.000559055 -0.00837795,0.000830709 -0.010311,0.000830709l-0.00244882 0c-0.00351575,0 -0.00714961,-0.0011811 -0.0108189,-0.00347244 -0.0036378,-0.00233071 -0.00548425,-0.00603937 -0.00548425,-0.0111378 0,-0.00647638 0.00367323,-0.00972047 0.0110079,-0.00972047l0.0247677 -0.000905512c0.00324016,-0.00931496 0.00667323,-0.0215512 0.0102677,-0.0366811 0.00216929,-0.00940551 0.00706299,-0.0141024 0.014689,-0.0141024 0.00426378,0 0.00758661,0.00127165 0.00995276,0.00387402 0.00240551,0.00255906 0.00359449,0.00545276 0.00359449,0.0086063 0,0.00122835 -0.00328346,0.0131535 -0.00983465,0.0357402 0.0245236,-0.00213386 0.0379961,-0.00323622 0.0403976,-0.00323622 0.00407087,0 0.00675591,0.000633858 0.00810236,0.00181102 0.00129921,0.00118898 0.00197638,0.00348425 0.00197638,0.00687402 0,0.00687008 -0.00584252,0.0112165 -0.0174961,0.0130709l-0.0399331 0.0067126zm0.261709 0.0541417c0,0.00801575 -0.00675984,0.0176181 -0.0202638,0.028752 -0.0134646,0.0111378 -0.0287008,0.0167441 -0.045689,0.0167441 -0.0130354,0 -0.0232913,-0.0041063 -0.0307677,-0.0123189 -0.0075,-0.00821654 -0.0112087,-0.0196732 -0.0112087,-0.0343189 0,-0.0215945 0.00762205,-0.0418622 0.0228937,-0.0607362 0.0152913,-0.0189213 0.0316024,-0.0283543 0.0489449,-0.0283543 0.00864173,0 0.0155945,0.00272047 0.0208031,0.00821654 0.00525591,0.00548425 0.00789764,0.0119961 0.00789764,0.0195472 0,0.0134252 -0.00643307,0.0262165 -0.0193465,0.0383465 -0.012878,0.0121575 -0.0293858,0.0205315 -0.0495197,0.025185 -0.00229134,0.000519685 -0.00344094,0.00190157 -0.00344094,0.00415354 0,0.00370866 0.00161811,0.00722835 0.00489764,0.0105748 0.00326772,0.00336614 0.00765748,0.00505906 0.0131457,0.00505906 0.0154843,0 0.0308858,-0.00801969 0.0461772,-0.0239685 0.00292126,-0.00307874 0.00576378,-0.00462205 0.00851969,-0.00462205 0.00466142,0 0.00695669,0.00257087 0.00695669,0.00774016zm-0.0776378 -0.0204528c0.0121929,-0.00249213 0.0229331,-0.00770079 0.0322244,-0.0156378 0.00932283,-0.00793701 0.0139331,-0.0151654 0.0139331,-0.0216417 0,-0.00252756 -0.000704724,-0.00465748 -0.00213386,-0.0063937 -0.00142126,-0.00174409 -0.00324016,-0.00261024 -0.00548425,-0.00261024 -0.00670866,0 -0.0141378,0.00493307 -0.0223543,0.014811 -0.00817323,0.00987008 -0.0135472,0.0203307 -0.016185,0.0314724zm0.176087 0.0215157c-0.0203071,0.0267402 -0.0398937,0.040126 -0.0587638,0.040126 -0.00694882,0 -0.0129488,-0.00272441 -0.0179291,-0.00820866 -0.00501969,-0.00549213 -0.00754331,-0.0124449 -0.00754331,-0.0209331 0,-0.0204567 0.00912205,-0.0422126 0.0272795,-0.0653189 0.0182126,-0.0230984 0.0365787,-0.0346299 0.0550984,-0.0346299 0.00939764,0 0.0155984,0.00474016 0.0185236,0.0142126 0.00884252,0 0.0133031,0.00340157 0.0133031,0.0101969 0,0.00323228 -0.000866142,0.00907874 -0.00256299,0.0175669 -0.00308268,0.0158819 -0.00461811,0.0285945 -0.00461811,0.0380669 0,0.00987402 0.000669291,0.0168228 0.00201181,0.020815 0.00134252,0.00402362 0.00232677,0.00662992 0.00296063,0.0078937 0.000629921,0.00123228 0.00248425,0.00253543 0.00556693,0.00391339 0.00308268,0.00146063 0.00461811,0.00351969 0.00461811,0.00612205 0,0.00394882 -0.00196457,0.00722047 -0.00596063,0.00983071 -0.00399213,0.00264961 -0.00812992,0.00394882 -0.0124409,0.00394882 -0.0144882,0 -0.0210118,-0.0145236 -0.0195433,-0.0436024zm-0.00694882 -0.0642087c-0.00778346,0 -0.0178937,0.00861417 -0.0303701,0.0258346 -0.0124449,0.0172559 -0.0186772,0.0318661 -0.0186772,0.0439173 0,0.00630709 0.00129528,0.0094685 0.00394882,0.0094685 0.00907087,0 0.0202913,-0.00805906 0.0336063,-0.0242126 0.0133071,-0.016185 0.019937,-0.0302913 0.019937,-0.0424055 0,-0.00387008 -0.000866142,-0.00691339 -0.00260236,-0.00920472 -0.00173622,-0.00228346 -0.00367323,-0.00339764 -0.00584252,-0.00339764zm0.120799 0.0735787c-0.000311024,-0.00418898 -0.00695276,-0.00928346 -0.0199055,-0.0152874 -0.015878,-0.00762205 -0.0260276,-0.0142126 -0.0304094,-0.0197087 -0.00441732,-0.0055315 -0.00659055,-0.0115276 -0.00659055,-0.0179961 0,-0.0136772 0.00761811,-0.0256024 0.0229449,-0.0358268 0.0153189,-0.010189 0.0296102,-0.0153307 0.0428819,-0.0153307 0.0130394,0 0.0195472,0.00569685 0.0195472,0.0170276 0,0.003 -0.00149606,0.00568504 -0.00446063,0.00809843 -0.00296063,0.00237008 -0.00549213,0.00359055 -0.00758661,0.00359055 -0.000866142,0 -0.00236614,-0.000551181 -0.0045,-0.00161811 -0.00216535,-0.00111024 -0.00382677,-0.00161417 -0.00497244,-0.00161417 -0.00687008,0 -0.0144488,0.00228346 -0.0226732,0.00690157 -0.00825197,0.00466535 -0.0124016,0.0100394 -0.0124016,0.0162323 0,0.00300394 0.00146457,0.0059252 0.00438976,0.00873228 0.00296457,0.00279921 0.0089252,0.00632283 0.0179291,0.0105827 0.0133504,0.0063189 0.0221496,0.0120433 0.0263819,0.0170945 0.00426378,0.00509843 0.00639764,0.010748 0.00639764,0.0169055 0,0.0112598 -0.00762598,0.0206535 -0.0228661,0.0281969 -0.0152441,0.00750787 -0.0323425,0.0112559 -0.0512992,0.0112559 -0.0139843,0 -0.0209606,-0.00505512 -0.0209606,-0.0151654 0,-0.00367323 0.00144882,-0.00683071 0.00441339,-0.00947638 0.0029252,-0.0026063 0.00620079,-0.00390945 0.00983858,-0.00390945 0.00146063,0 0.00370866,0.000507874 0.00682677,0.00161417 0.0030748,0.00114961 0.0059252,0.00173622 0.00852756,0.00173622 0.00726772,0 0.0148504,-0.00117717 0.0228228,-0.0034685 0.00794094,-0.00232677 0.0131575,-0.00517323 0.0157244,-0.00856693zm0.157209 -0.0387874c-0.00121654,0.0187598 -0.00338976,0.0369291 -0.00651181,0.0545787 -0.00312598,0.0176142 -0.00773622,0.0336024 -0.0137795,0.0479409 -0.00604724,0.0143346 -0.0125591,0.024122 -0.0195433,0.0293425 -0.00699606,0.00520866 -0.0152913,0.00781496 -0.0249252,0.00781496 -0.0103465,0 -0.0202559,-0.00197244 -0.0297402,-0.0059252l0.00011811 0c-0.00816535,-0.0033937 -0.0153189,-0.00792913 -0.0213543,-0.0136575 -0.00605118,-0.00568504 -0.00908661,-0.0105039 -0.00908661,-0.0144528 0,-0.00364173 0.000905512,-0.00651969 0.00272441,-0.0086811 0.0018189,-0.0021378 0.0041811,-0.00324409 0.00710236,-0.00324409 0.00257087,0 0.00465748,0.0011063 0.0063622,0.00324409 0.00987008,0.012752 0.0242402,0.0191063 0.0430433,0.0191063 0.00762205,0 0.0150079,-0.00798031 0.0221142,-0.0239764 0.00706693,-0.0159488 0.0115709,-0.0351063 0.0133898,-0.0574921 -0.023815,0.0188386 -0.0421732,0.0282362 -0.0550512,0.0282362 -0.00833465,0 -0.0149331,-0.00331496 -0.0197835,-0.00996063 -0.00485827,-0.00662598 -0.00730709,-0.0146024 -0.00730709,-0.0239252 0,-0.0093189 0.0022126,-0.0229055 0.00655906,-0.0406732 0.00433858,-0.0177717 0.00805512,-0.0287835 0.0110866,-0.0330906 0.00304331,-0.00426772 0.00801969,-0.00640551 0.0148937,-0.00640551 0.00367323,0 0.00655906,0.00158661 0.0085315,0.00478346 0.00201575,0.00320079 0.00304331,0.00675591 0.00304331,0.0105866 0,0.00117323 -0.00281102,0.00770079 -0.00833858,0.0195433 -0.00679134,0.0145354 -0.0101811,0.0270118 -0.0101811,0.0375197 0,0.00536614 0.000744094,0.00947244 0.00224016,0.0123189 0.0015,0.00279921 0.00308661,0.00418898 0.00470472,0.00418898 0.00367323,0 0.00817717,-0.00111024 0.0134685,-0.0033189 0.0052874,-0.00225984 0.0114882,-0.00612598 0.0186378,-0.0116496 0.00711417,-0.00552756 0.0117283,-0.00971654 0.0138228,-0.0125551 0.00205906,-0.00285039 0.0037126,-0.00652756 0.00497638,-0.011063 0.00122047,-0.00450787 0.00217717,-0.0144094 0.00288189,-0.0297756 0.000389764,-0.00895669 0.000834646,-0.0145709 0.00133858,-0.0169094 0.000480315,-0.00227953 0.00185433,-0.00441732 0.00411024,-0.00634646 0.0022126,-0.00193701 0.00521654,-0.00288583 0.00900394,-0.00288583 0.00509449,0 0.00868504,0.00106693 0.0108228,0.00323622 0.00213386,0.00217323 0.00319685,0.00726772 0.00319685,0.0152835l-0.00257087 0.0382638zm0.0567165 0.0127559c-0.00774409,0 -0.0137126,-0.00157874 -0.0179764,-0.00473622 -0.00122047,-0.0150472 -0.000110236,-0.0305276 0.00324409,-0.0464016 0.00379134,-0.0172126 0.00568898,-0.0300906 0.00568898,-0.0386654 0,-0.000830709 0.000393701,-0.00406693 0.00122047,-0.00963386 0.000787402,-0.0056063 0.00323228,-0.00987008 0.00734252,-0.0127913 0.00406693,-0.00292913 0.00753937,-0.00438583 0.0104291,-0.00438583 0.00308268,0 0.006,0.0011063 0.00885039,0.0033937 0.00280315,0.00229528 0.0042126,0.00477559 0.0042126,0.0074685 0,0.00216535 -0.0015748,0.0101457 -0.00469291,0.0240079 -0.00311811,0.0138228 -0.00623228,0.0265787 -0.0093189,0.0382323 -0.00323622,0.0121181 -0.00493307,0.0217992 -0.00509449,0.0290157 -0.00015748,0.00549213 -0.0014685,0.010311 -0.00390551,0.0144961zm-0.016437 0.0532008c-0.00848819,0 -0.0127559,-0.00470079 -0.0127559,-0.0141063 0,-0.00355512 0.00174409,-0.00762205 0.0052126,-0.0122795 0.00348425,-0.00461024 0.00723228,-0.00690551 0.0112205,-0.00690551 0.00264961,0 0.0059252,0.00126772 0.00983465,0.0037874 0.00395276,0.00257087 0.0059252,0.00469685 0.0059252,0.00648031l-0.00118504 0.0071811c-0.000677165,0.00509449 -0.00320079,0.00900394 -0.00750394,0.0117283 -0.00430709,0.00276772 -0.00789764,0.00411417 -0.010748,0.00411417z"/>
 </g>
</svg>
