<?xml version="1.0" encoding="UTF-8"?>
<!DOCTYPE svg PUBLIC "-//W3C//DTD SVG 1.1//EN" "http://www.w3.org/Graphics/SVG/1.1/DTD/svg11.dtd">
<!-- Creator: CorelDRAW -->
<svg xmlns="http://www.w3.org/2000/svg" xml:space="preserve" width="6.708in" height="6.708in" style="shape-rendering:geometricPrecision; text-rendering:geometricPrecision; image-rendering:optimizeQuality; fill-rule:evenodd; clip-rule:evenodd"
viewBox="0 0 6.708 6.708"
 xmlns:xlink="http://www.w3.org/1999/xlink">
 <defs>
  <style type="text/css">
   <![CDATA[
    .fil0 {fill:#E56920}
    .fil2 {fill:white}
    .fil1 {fill:white;fill-rule:nonzero}
   ]]>
  </style>
 </defs>
 <g id="Layer_x0020_1">
  <metadata id="CorelCorpID_0Corel-Layer"/>
  <path class="fil0" d="M3.35398 0.95576c1.32433,0 2.39827,1.07394 2.39827,2.39824 0,1.32433 -1.07394,2.39824 -2.39827,2.39824 -1.32426,0 -2.3982,-1.07391 -2.3982,-2.39824 0,-1.3243 1.07394,-2.39824 2.3982,-2.39824z"/>
  <path class="fil1" d="M2.11606 4.39903l0.111457 -0.111079 1.82736 0 0 0.222154 -1.82736 0 -0.111457 -0.111075zm0.111457 -0.111079l0 0.222154 -0.0056811 -0.000137795 -0.00564567 -0.000444882 -0.00553937 -0.000688976 -0.00547244 -0.001 -0.00537008 -0.00123622 -0.00533858 -0.00148031 -0.00509449 -0.00175591 -0.00509449 -0.00199606 -0.00488583 -0.00220472 -0.00478346 -0.00247638 -0.0046811 -0.00265354 -0.00447638 -0.00288976 -0.00437008 -0.00309843 -0.00420079 -0.00330315 -0.00406299 -0.00347638 -0.0038189 -0.00368504 -0.00371654 -0.00385433 -0.00347638 -0.00402756 -0.00327165 -0.00420079 -0.00309843 -0.00437008 -0.00288976 -0.00450787 -0.00268504 -0.00464961 -0.00248031 -0.00478346 -0.00216929 -0.00492126 -0.00199606 -0.00505906 -0.0017874 -0.00512992 -0.00148031 -0.00529921 -0.00124016 -0.00537008 -0.000964567 -0.00547638 -0.000720472 -0.00553937 -0.000448819 -0.00564567 -0.000102362 -0.0057126 0.000102362 -0.00571654 0.000448819 -0.00564567 0.000720472 -0.00553937 0.000964567 -0.00547244 0.00124016 -0.00537008 0.00148031 -0.00530315 0.0017874 -0.00512598 0.00199606 -0.00506299 0.00216929 -0.00492126 0.00248031 -0.00478346 0.00268504 -0.00464567 0.00288976 -0.00451181 0.00309843 -0.00437008 0.00327165 -0.00420079 0.00347638 -0.00402756 0.00371654 -0.00385433 0.0038189 -0.0036811 0.00406299 -0.00347638 0.00420079 -0.00330709 0.00437008 -0.00309843 0.00447638 -0.00288976 0.0046811 -0.00264961 0.00478346 -0.00248031 0.00488583 -0.00220079 0.00509449 -0.00199606 0.00509449 -0.00175591 0.00533858 -0.00148031 0.00537008 -0.00124016 0.00547244 -0.001 0.00553937 -0.000685039 0.00564567 -0.000448819 0.0056811 -0.000137795zm-0.00127559 -0.725945l0.112799 0.111075 0 0.725949 -0.22298 0 0 -0.725949 0.110181 -0.111075zm0.112799 0.111075l-0.22298 0 0.000102362 -0.00574803 0.000448819 -0.00564567 0.000720472 -0.0055748 0.000964567 -0.00550787 0.00124016 -0.00537008 0.00154724 -0.00529921 0.00172047 -0.00516535 0.0020315 -0.00505906 0.00220472 -0.00495669 0.00244488 -0.0048189 0.00268504 -0.00464567 0.0029252 -0.00454331 0.00309843 -0.00437402 0.00333858 -0.00419685 0.00350787 -0.00402756 0.00364961 -0.00388976 0.00388976 -0.00368504 0.00402756 -0.00350787 0.00423622 -0.00330709 0.00437008 -0.00312992 0.00450787 -0.0028937 0.0046811 -0.00268504 0.0048189 -0.00244094 0.00495669 -0.00224016 0.00502756 -0.00199606 0.00519685 -0.00175591 0.00526772 -0.00151181 0.00537008 -0.00124016 0.00553937 -0.001 0.00554331 -0.000688976 0.00564567 -0.000444882 0.00574803 -0.000137795 0.00578346 0.000137795 0.00564173 0.000444882 0.00557874 0.000688976 0.00547244 0.001 0.00540551 0.00124016 0.00526378 0.00151181 0.00516535 0.00175591 0.00505906 0.00199606 0.00495669 0.00224016 0.0048189 0.00244094 0.0046811 0.00268504 0.00454331 0.0028937 0.00437008 0.00312992 0.00420079 0.00330709 0.00399213 0.00350787 0.0039252 0.00368504 0.00364961 0.00388976 0.00351181 0.00402756 0.00330315 0.00419685 0.00312992 0.00437402 0.0028937 0.00454331 0.00268504 0.00464567 0.00247638 0.0048189 0.00224016 0.00495669 0.00196063 0.00505906 0.00179134 0.00516535 0.00151181 0.00529921 0.00124016 0.00537008 0.001 0.00550787 0.000685039 0.0055748 0.000413386 0.00564567 0.000173228 0.00574803zm-0.894232 -0.830311l0.222157 0.00957087 0 0 -0.00131102 0.070185 0.00275591 0.0645039 0.00574803 0.0594134 0.00932677 0.0549685 0.0117047 0.0502205 0.0139055 0.0455748 0.0162835 0.0420276 0.018311 0.0381732 0.0201024 0.0344921 0.0212008 0.0313583 0.0224803 0.0284331 0.0239213 0.0260551 0.0246811 0.0234055 0.0256102 0.0209646 0.0261575 0.018622 0.0266102 0.0168661 0.0271575 0.0149055 0.0269173 0.0134213 0.0266063 0.0113622 0.0262638 0.00980709 0.025815 0.00795276 0.0249921 0.00715748 0.0235079 0.00564567 0.021689 0.00433858 0.0201693 0.00313386 0.018311 0.00247638 0.0157677 0.00209843 0.0133898 0.000862205 0.0102205 0.000791339 0.00740157 0.00034252 0.0036811 0.000106299 -0.000102362 0 0.00258268 0.222154 -0.00420079 0 -0.00812205 -0.000102362 -0.0116693 -0.000346457 -0.0154882 -0.000791339 -0.0186575 -0.00175591 -0.0218228 -0.00209843 -0.0244055 -0.00337402 -0.0270906 -0.00485039 -0.0295669 -0.00605906 -0.0313937 -0.00743701 -0.0328346 -0.00887795 -0.0344213 -0.0114646 -0.0359016 -0.013252 -0.0370039 -0.0156969 -0.0374173 -0.0178307 -0.037622 -0.0209606 -0.0378976 -0.0238898 -0.0375197 -0.0272953 -0.0368976 -0.0305315 -0.0360079 -0.0338701 -0.0344213 -0.0374173 -0.0329409 -0.0414409 -0.0307717 -0.0453346 -0.0279488 -0.0492913 -0.0252677 -0.0529724 -0.022374 -0.0568307 -0.0191378 -0.0612717 -0.0152126 -0.0650197 -0.0110512 -0.068878 -0.00750394 -0.0733858 -0.00275197 -0.0775866 0.00130709 -0.0814764zm1.21056 -0.525752l0.206461 0.0818543 -0.190315 0.0283307 -0.0122874 -0.0137677 -0.0172795 -0.015252 -0.0210669 -0.015248 -0.0255079 -0.0155591 -0.0290512 -0.0148661 -0.0323898 -0.0136339 -0.0349724 -0.0125984 -0.0381024 -0.0111181 -0.039689 -0.00942913 -0.0417205 -0.00716142 -0.0430945 -0.00567717 -0.0436811 -0.00309843 -0.0449173 -0.000929134 -0.0448189 0.00185827 -0.0445394 0.00437008 -0.0439213 0.0065748 -0.0434409 0.00977559 -0.0421654 0.0122874 -0.0411339 0.0148386 -0.0391732 0.0180354 -0.0374843 0.0209291 -0.0351102 0.0235079 -0.0331102 0.027126 -0.0309134 0.0299449 -0.0288425 0.0338346 -0.0260591 0.0373819 -0.0233031 0.0410669 -0.0203425 0.0462598 -0.0174173 0.0506339 -0.0138701 0.0561102 -0.00943307 0.0616457 -0.0057126 0.0672953 -0.222157 -0.00957087 0.00661024 -0.0838819 0.0129409 -0.0790669 0.0181772 -0.0743504 0.0236102 -0.0698425 0.0289843 -0.0645039 0.0337677 -0.0602717 0.0382756 -0.0547992 0.0418583 -0.0495315 0.0457795 -0.044748 0.0487756 -0.039311 0.0515945 -0.0347992 0.0532165 -0.0296693 0.0548661 -0.0249921 0.0559016 -0.0209606 0.0570354 -0.016626 0.057311 -0.0123937 0.0578622 -0.00918898 0.057622 -0.00526772 0.0570354 -0.00185827 0.0562126 0.000929134 0.0558307 0.00399213 0.0544882 0.0065748 0.0530433 0.00977559 0.0518386 0.0120472 0.0494291 0.014563 0.0480512 0.0170039 0.0455079 0.019689 0.0429567 0.0218228 0.0403071 0.0242992 0.037622 0.027437 0.0338386 0.0300472 0.0305984 0.0338031 -0.190386 0.0283268zm0.0161457 0.110185l0.17424 -0.138512 0.00340945 0.00457874 0.00323228 0.0046811 0.0028937 0.00478346 0.00261417 0.00492126 0.00240945 0.00499213 0.00210236 0.00505906 0.00185827 0.00512992 0.00154724 0.00519685 0.00134252 0.00523228 0.00106693 0.00530315 0.000826772 0.00529921 0.000484252 0.00533465 0.00034252 0.00537008 3.54331e-005 0.00533465 -0.000244094 0.00533465 -0.000515748 0.00533858 -0.000720472 0.00526378 -0.001 0.00526772 -0.00124016 0.00519685 -0.00148031 0.00516535 -0.00168504 0.00505906 -0.0020315 0.00499213 -0.00220079 0.00492126 -0.00244488 0.0048189 -0.00272047 0.00471654 -0.00296063 0.0045748 -0.00323622 0.00447638 -0.00340551 0.00430315 -0.00368504 0.00416535 -0.00395669 0.00402756 -0.00412992 0.00385433 -0.00440551 0.0036811 -0.00457874 0.00344488 -0.00464567 0.00320079 -0.0047874 0.00288976 -0.00492126 0.00265354 -0.00499213 0.00237402 -0.00505906 0.00209843 -0.00516142 0.00185827 -0.00520079 0.00158268 -0.00519685 0.00131102 -0.00533465 0.00106693 -0.00526772 0.000826772 -0.00537008 0.000515748 -0.00533465 0.000307087 -0.00533465 3.54331e-005 -0.00537008 -0.000240157 -0.00529921 -0.000484252 -0.00530315 -0.000720472 -0.00526378 -0.001 -0.00519685 -0.00123622 -0.00516535 -0.00148031 -0.00505906 -0.00172441 -0.00499213 -0.00199606 -0.00492126 -0.00223622 -0.0048189 -0.00244488 -0.0046811 -0.00271654 -0.00457874 -0.00296063 -0.00450787 -0.00320079 -0.00430315 -0.00344488 -0.00416535 -0.0036811 -0.00402756 -0.0039252 -0.00382283 -0.00412992 -0.0036811 -0.00440551zm0.775031 -0.131972l0.157614 0.156823 -0.165051 -0.00829528 -0.0292244 -0.0334921 -0.0284646 -0.0289488 -0.0275709 -0.0246102 -0.0271929 -0.0205157 -0.0266417 -0.0174843 -0.0250591 -0.0137362 -0.0249213 -0.0107362 -0.0241299 -0.00826378 -0.0232677 -0.00605906 -0.0232008 -0.00405906 -0.0222717 -0.00179134 -0.0229252 -0.000204724 -0.0218228 0.00158268 -0.0219252 0.00323622 -0.0211024 0.00419685 -0.0215118 0.0058189 -0.0204449 0.00729528 -0.0198622 0.00805512 -0.019622 0.00864173 -0.018378 0.00987795 -0.0180039 0.0100512 -0.016626 0.0109134 -0.0156614 0.0106339 -0.0141102 0.0106378 -0.0129803 0.0104291 -0.0113228 0.00998031 -0.00925984 0.00895276 -0.00777953 0.00805118 -0.0055748 0.00616142 -0.00272047 0.00316929 0.00061811 -0.000897638 0.0056811 -0.0117717 -0.206461 -0.0818543 0.0117402 -0.0231299 0.0107047 -0.015626 0.0114291 -0.0144567 0.0124921 -0.0140118 0.0139409 -0.0141811 0.0162126 -0.0150079 0.0174528 -0.0152126 0.0190354 -0.0156614 0.0211693 -0.0158701 0.0225787 -0.0158661 0.0244724 -0.015248 0.0258189 -0.0152835 0.0280197 -0.0142874 0.029189 -0.0138701 0.031185 -0.0123937 0.0326299 -0.0107362 0.0337008 -0.00933071 0.0359016 -0.00770866 0.0366929 -0.00495669 0.0383425 -0.00248031 0.038689 0.000208661 0.0405512 0.00357874 0.0406181 0.00667717 0.0416142 0.0103976 0.0415118 0.0143858 0.0414094 0.0185197 0.0417165 0.0224764 0.0405157 0.0261614 0.0402717 0.0309764 0.0397913 0.0350787 0.0389291 0.0394094 0.0378976 0.0439567 -0.165047 -0.00829528zm-0.00743701 0.148528l0.172484 -0.140232 0.00351181 0.00454331 0.00316929 0.00464961 0.00296063 0.00474803 0.00271654 0.00485433 0.00244488 0.00495669 0.00213386 0.00502362 0.0018937 0.00512992 0.00165354 0.00516535 0.00137402 0.00522835 0.0011378 0.00526772 0.000826772 0.00530315 0.00061811 0.00529921 0.00034252 0.00533465 0.000137795 0.00533465 -0.000169291 0.00533465 -0.000448819 0.00533858 -0.000688976 0.00526378 -0.000893701 0.00526772 -0.00120472 0.00519685 -0.00144488 0.00516535 -0.00165354 0.00509449 -0.00192913 0.00502362 -0.00213386 0.00492126 -0.00244094 0.0048189 -0.00265354 0.00475197 -0.0029252 0.00461417 -0.00312992 0.00447244 -0.00340945 0.00437008 -0.00357874 0.00420079 -0.00388976 0.00406299 -0.00412992 0.00388976 -0.00433858 0.00371654 -0.00450787 0.00351181 -0.0046811 0.00320079 -0.00475197 0.00296063 -0.00485433 0.00271654 -0.00495669 0.00240945 -0.00502362 0.00216929 -0.00509449 0.0018937 -0.00516535 0.00165354 -0.00523228 0.00137795 -0.00529921 0.00113386 -0.00526772 0.000826772 -0.00533465 0.00061811 -0.00529921 0.000346457 -0.00537008 0.000102362 -0.00530315 -0.000173228 -0.00533465 -0.000444882 -0.00526378 -0.00065748 -0.00530315 -0.000929134 -0.00519685 -0.00116929 -0.00512992 -0.00144488 -0.00512598 -0.00165354 -0.00499213 -0.0019252 -0.00495669 -0.00216929 -0.0048189 -0.00240945 -0.00475197 -0.00264961 -0.00461024 -0.00292913 -0.00444094 -0.00312992 -0.00437402 -0.00340945 -0.00423228 -0.00361417 -0.00402756 -0.00385433 -0.0039252 -0.00412992 -0.00371654 -0.00433858zm0.514807 -0.373197l0.000929134 0.222157 0 0 -0.016626 0.000688976 -0.0167992 0.00130709 -0.0167953 0.00227165 -0.016937 0.00272047 -0.0160748 0.00357874 -0.0164882 0.00388976 -0.0160748 0.00495669 -0.0161063 0.00519685 -0.0155236 0.00574803 -0.0154921 0.00623228 -0.0149055 0.00664173 -0.0143189 0.00695276 -0.0141811 0.00726378 -0.0140433 0.00743307 -0.0133543 0.0075748 -0.0126339 0.00764173 -0.0119449 0.00764173 -0.0117008 0.00798425 -0.0109488 0.00743701 -0.0105984 0.00722835 -0.00929528 0.00733071 -0.00894882 0.0065748 -0.00809055 0.0065748 -0.00722835 0.00567717 -0.0067126 0.00554331 -0.00540157 0.00533465 -0.00488976 0.00375197 -0.00340945 0.00344488 -0.00288976 0.00261417 -0.00175591 0.00168504 -0.00124016 0.00117323 0.000724409 -0.000759843 -0.157614 -0.156823 0.00185827 -0.00185827 0.00206299 -0.00199606 0.00354724 -0.00347638 0.00457874 -0.00433858 0.00605906 -0.00516142 0.0066063 -0.00637008 0.00798819 -0.00622835 0.0085 -0.00726378 0.00977559 -0.00829528 0.0107047 -0.00829528 0.0115669 -0.00918898 0.012874 -0.00912205 0.0131811 -0.00984646 0.0144252 -0.00998031 0.0151457 -0.00977559 0.0163504 -0.0102598 0.0170039 -0.0102559 0.017689 -0.010189 0.0183819 -0.0100512 0.0194134 -0.00987795 0.0204134 -0.00957087 0.0210315 -0.00925984 0.0215827 -0.00877559 0.0225118 -0.00836614 0.0229921 -0.00781102 0.0239213 -0.00674803 0.0243701 -0.00650787 0.0256811 -0.00529921 0.0256417 -0.00444094 0.0264016 -0.00316535 0.0271929 -0.00220472 0.0279173 -0.000688976zm0.856059 0.85926l-0.222193 0 0 0 -0.00154724 -0.0560354 -0.00395669 -0.052252 -0.00623228 -0.0485354 -0.00867323 -0.0452638 -0.0102244 -0.0417874 -0.0119449 -0.038311 -0.0136969 -0.0358307 -0.0152165 -0.0330472 -0.0165551 -0.0302559 -0.0177953 -0.0276732 -0.0189331 -0.0255394 -0.0198268 -0.0235118 -0.0207559 -0.0216496 -0.0217874 -0.0197953 -0.0223425 -0.0181024 -0.0236811 -0.0164213 -0.0243346 -0.014937 -0.0248504 -0.013874 -0.0253701 -0.0121142 -0.0259882 -0.0112913 -0.026126 -0.00925984 -0.0266417 -0.0086063 -0.026437 -0.00767323 -0.0266063 -0.00588583 -0.0262283 -0.00554331 -0.0260236 -0.00402756 -0.0254016 -0.00337402 -0.0249567 -0.00288976 -0.0244055 -0.00158268 -0.0228543 -0.00131102 -0.022063 -0.000653543 -0.0214803 -6.69291e-005 -0.000929134 -0.222157 0.0250591 7.08661e-005 0.0272598 0.000653543 0.0289134 0.00130709 0.0296378 0.00248031 0.0310827 0.00288976 0.0323543 0.00426772 0.0329764 0.00574803 0.0340787 0.00643701 0.0344213 0.00850394 0.0351772 0.00939764 0.0353504 0.0112205 0.0357323 0.0135945 0.035626 0.0148031 0.0356929 0.0173465 0.0353504 0.0191063 0.0347992 0.0218898 0.0341142 0.0242677 0.0336969 0.0267795 0.032252 0.0293622 0.031185 0.0321142 0.0293976 0.0348701 0.0276732 0.0377244 0.0256457 0.0407559 0.0235079 0.0433386 0.0213071 0.0460551 0.0188661 0.0489094 0.0164173 0.0522874 0.0136299 0.0547992 0.0105 0.0575197 0.00791732 0.0607165 0.0048189 0.0635433 0.00161811 0.0665zm-0.645606 0.738925l-0.222157 0 0.117169 -0.111079 -0.000755906 7.08661e-005 0.00323622 0.000169291 0.00661024 3.54331e-005 0.00960236 -0.000204724 0.0116339 -0.000586614 0.0146299 -0.00116929 0.0161772 -0.00141339 0.0182087 -0.00230709 0.0197598 -0.00337008 0.0214094 -0.00406299 0.0223386 -0.00499213 0.0236142 -0.00650394 0.0240236 -0.00815748 0.0243386 -0.00905512 0.024815 -0.0110472 0.0245787 -0.0122913 0.0246811 -0.0145945 0.0239213 -0.0161063 0.0238189 -0.0178307 0.0232008 -0.0201378 0.0221654 -0.0225787 0.0210315 -0.0252323 0.0204488 -0.0279843 0.0192402 -0.0304646 0.0177283 -0.0344528 0.0164882 -0.0376929 0.0145236 -0.0415118 0.0123228 -0.0455039 0.0103976 -0.0500512 0.00770866 -0.0543858 0.0048189 -0.059685 0.00168504 -0.064748 0.222193 0 -0.00168898 0.0760394 -0.00574803 0.0719409 -0.00939764 0.0682913 -0.0130433 0.0640236 -0.0166969 0.0603071 -0.0197913 0.056311 -0.0225472 0.0524921 -0.0255748 0.0483622 -0.0279843 0.0452638 -0.0300157 0.0410669 -0.0322874 0.0374134 -0.0335591 0.0339409 -0.0344882 0.0306024 -0.0352165 0.0273976 -0.0360709 0.0239567 -0.035937 0.0206535 -0.0359685 0.0184134 -0.035248 0.0153898 -0.0347677 0.0133898 -0.0336969 0.0107717 -0.032252 0.00912205 -0.0310512 0.0076063 -0.0292913 0.00585433 -0.0275354 0.00419685 -0.0252323 0.00320079 -0.0231299 0.00230709 -0.0198976 0.00116929 -0.0176929 0.000586614 -0.0139724 0.000204724 -0.0109488 -3.14961e-005 -0.00757087 -0.000173228 -0.00444094 -6.69291e-005 0.117138 -0.111079zm-0.104988 -0.111079l-0.0121496 0.222157 -0.00574803 -0.000448819 -0.00561024 -0.000759843 -0.00547244 -0.000996063 -0.00544094 -0.00127559 -0.00533465 -0.00154724 -0.00519685 -0.00175591 -0.00502362 -0.0020315 -0.00495669 -0.00227165 -0.0047874 -0.00251181 -0.00464567 -0.00272047 -0.00450787 -0.0029252 -0.00437402 -0.00312992 -0.00416535 -0.00334252 -0.00399213 -0.00350787 -0.0038189 -0.00372047 -0.00368504 -0.00388976 -0.00347638 -0.00405906 -0.00323622 -0.00423622 -0.00306299 -0.00437008 -0.00288976 -0.00450787 -0.00264961 -0.0046811 -0.00240945 -0.0047874 -0.00220472 -0.00492126 -0.00192913 -0.00505906 -0.00172047 -0.00516535 -0.00144488 -0.00522835 -0.00120472 -0.00537008 -0.001 -0.00544094 -0.000653543 -0.00553937 -0.000413386 -0.00557874 -0.000137795 -0.00567717 0.000173228 -0.00571654 0.000448819 -0.0057126 0.000755906 -0.00561024 0.0010315 -0.00550787 0.00127559 -0.00543701 0.00151575 -0.00530315 0.0017874 -0.00519685 0.0020315 -0.00505906 0.00223622 -0.0049252 0.00254724 -0.00478346 0.00272047 -0.0046811 0.0029252 -0.00447244 0.00313386 -0.00437402 0.00333858 -0.00416535 0.00351181 -0.00402756 0.0036811 -0.0038189 0.00388976 -0.00368504 0.00409843 -0.00344094 0.00419685 -0.00327165 0.00437402 -0.00306299 0.00454331 -0.00285433 0.00464567 -0.00265354 0.00478346 -0.00244094 0.00495669 -0.00216929 0.00502756 -0.00196063 0.00519685 -0.00172441 0.00519685 -0.00144488 0.00540551 -0.00120472 0.00543701 -0.000964567 0.00554331 -0.000688976 0.00553937 -0.000377953 0.00571654 -0.000137795 0.00567717 0.000173228zm-0.00450787 0.952437l0 -0.222154 -0.111043 0.111079 -3.54331e-005 -0.0217559 -0.000102362 -0.0219606 -3.54331e-005 -0.0221654 -3.14961e-005 -0.0223425 -3.54331e-005 -0.0225118 -0.000102362 -0.0226496 -3.54331e-005 -0.0227835 -3.54331e-005 -0.0228937 -3.54331e-005 -0.0230276 -0.000102362 -0.0231299 -3.54331e-005 -0.0231654 -3.14961e-005 -0.0232677 -3.54331e-005 -0.0233386 -3.54331e-005 -0.023374 -0.000102362 -0.0233701 -3.54331e-005 -0.0234055 0 -0.0234094 -6.69291e-005 -0.0233701 -7.08661e-005 -0.023374 -6.69291e-005 -0.0233346 0 -0.0232717 -3.54331e-005 -0.0231654 -0.000102362 -0.0231299 -3.54331e-005 -0.0230276 -3.54331e-005 -0.0228898 -3.14961e-005 -0.0227874 -0.000106299 -0.0226496 -3.14961e-005 -0.0225118 -3.54331e-005 -0.0223386 -3.54331e-005 -0.0221693 -0.000102362 -0.0219606 -3.54331e-005 -0.021752 0.222157 0 6.69291e-005 0.021752 7.08661e-005 0.0219606 0 0.0221693 6.69291e-005 0.0223386 7.08661e-005 0.0225118 6.69291e-005 0.0226496 0 0.0227874 7.08661e-005 0.0228898 6.69291e-005 0.0230276 7.08661e-005 0.0231299 0 0.0231654 3.14961e-005 0.0232717 0.000102362 0.0233346 3.54331e-005 0.023374 3.54331e-005 0.0233701 3.54331e-005 0.0234094 3.14961e-005 0.0234055 0.000106299 0.0233701 3.14961e-005 0.023374 3.54331e-005 0.0233386 3.54331e-005 0.0232677 6.69291e-005 0.0231654 7.08661e-005 0.0231299 0 0.0230276 6.69291e-005 0.0228937 7.08661e-005 0.0227835 6.69291e-005 0.0226496 0 0.0225118 7.08661e-005 0.0223425 6.69291e-005 0.0221654 7.08661e-005 0.0219606 0 0.0217559 -0.111079 0.111075zm-0.111043 -0.111075l0.222122 0 -0.000137795 0.0057126 -0.000448819 0.00564567 -0.000653543 0.00553937 -0.0010315 0.00547638 -0.00124016 0.00537008 -0.00148031 0.00529921 -0.00172047 0.00512992 -0.0020315 0.00505906 -0.00220079 0.00492126 -0.00244488 0.00478346 -0.00264961 0.00464961 -0.0028937 0.00450787 -0.00312992 0.00437008 -0.00330709 0.00420079 -0.00347638 0.00402756 -0.00364961 0.00385433 -0.00388976 0.00368504 -0.00399213 0.00347638 -0.00419685 0.00330315 -0.00437402 0.00309843 -0.00454331 0.00288976 -0.00461024 0.00265354 -0.0047874 0.00247638 -0.00495669 0.00220472 -0.00502362 0.00199606 -0.00516535 0.00175591 -0.00526378 0.00148031 -0.00537008 0.00123622 -0.00547244 0.001 -0.00557874 0.000688976 -0.00561024 0.000444882 -0.00574803 0.000137795 -0.0056811 -0.000137795 -0.00564173 -0.000444882 -0.00557874 -0.000688976 -0.00543701 -0.001 -0.00540551 -0.00123622 -0.00526378 -0.00148031 -0.00516535 -0.00175591 -0.00502362 -0.00199606 -0.00495669 -0.00220472 -0.0047874 -0.00247638 -0.00461024 -0.00265354 -0.00454331 -0.00288976 -0.00437402 -0.00309843 -0.00416535 -0.00330315 -0.00402756 -0.00347638 -0.00388583 -0.00368504 -0.00368504 -0.00385433 -0.00344094 -0.00402756 -0.00330709 -0.00420079 -0.00309449 -0.00437008 -0.00292913 -0.00450787 -0.00264961 -0.00464961 -0.00247638 -0.00478346 -0.00216929 -0.00492126 -0.0020315 -0.00505906 -0.00172047 -0.00512992 -0.00148031 -0.00529921 -0.00124016 -0.00537008 -0.000996063 -0.00547638 -0.000688976 -0.00553937 -0.000448819 -0.00564567 -0.000137795 -0.0057126z"/>
  <path class="fil1" d="M4.36439 2.9174l-0.21861 0.0417874 -0.000929134 -0.00564567 -0.000688976 -0.00564567 -0.000307087 -0.00561024 -0.000102362 -0.00553937 0.000204724 -0.00554331 0.000515748 -0.00547244 0.000724409 -0.00540551 0.000996063 -0.00533465 0.00127559 -0.00526772 0.00154724 -0.00516142 0.00175591 -0.00509449 0.00199606 -0.00495669 0.00220472 -0.00488583 0.00244488 -0.00475197 0.00271654 -0.00461417 0.0028937 -0.00450787 0.00309843 -0.00433465 0.00330315 -0.00420079 0.00347638 -0.00402756 0.00371654 -0.00385433 0.0039252 -0.00372047 0.00402756 -0.00347638 0.00426772 -0.00333858 0.00444094 -0.00309843 0.00457874 -0.0029252 0.00474803 -0.00268504 0.00492126 -0.00244094 0.00506299 -0.00224016 0.00519685 -0.00199606 0.00533465 -0.00175591 0.00547244 -0.00148031 0.00561024 -0.00120472 0.00564567 -0.000929134 0.00561024 -0.000653543 0.00564567 -0.00034252 0.00554331 -7.08661e-005 0.00550787 0.000208661 0.00547244 0.000480315 0.00540157 0.000755906 0.00533465 0.001 0.00526772 0.00127559 0.00516535 0.00151181 0.00512598 0.00175591 0.0049252 0.00199606 0.00492126 0.00223622 0.00474803 0.00244488 0.00461417 0.00268504 0.00450787 0.0028937 0.00430315 0.00309449 0.00423622 0.00330709 0.00402362 0.00351181 0.00382283 0.00371654 0.00371654 0.00388976 0.00347638 0.00405906 0.00333858 0.00427165 0.00313386 0.00443701 0.00288976 0.00457874 0.00272047 0.00475197 0.00244488 0.00488583 0.00220079 0.00506299 0.0020315 0.00519685 0.00172047 0.00533465 0.00151575 0.00547244 0.00116929 0.00561024zm-0.181504 0.493016l-0.111488 -0.192484 0 0 0.00922441 -0.00588583 0.0074685 -0.00543701 0.00753937 -0.00633465 0.00629921 -0.00698819 0.00612598 -0.00725984 0.0058189 -0.00740157 0.00519685 -0.00881102 0.00509449 -0.00874409 0.00412992 -0.00953543 0.00416535 -0.00981102 0.00371654 -0.0103937 0.00333858 -0.0109449 0.00268504 -0.0113937 0.00237402 -0.0113583 0.00179134 -0.0116024 0.00161811 -0.011874 0.00106693 -0.0110827 0.0010315 -0.0120157 0.000653543 -0.0110827 0.000244094 -0.0106024 -7.08661e-005 -0.0112559 -0.00034252 -0.00967323 -0.000551181 -0.00932677 -0.000724409 -0.00843307 -0.000377953 -0.00795276 -0.000862205 -0.00688189 -0.000858268 -0.0058189 -0.000377953 -0.00461024 -0.000791339 -0.00375197 -0.000173228 -0.00244488 6.69291e-005 -0.000551181 -0.000137795 0.000515748 0.21861 -0.0417874 0.000173228 0.00210236 0.000826772 0.00399213 0.0010315 0.00505906 0.000755906 0.00636614 0.00127559 0.00812598 0.000893701 0.00925984 0.000826772 0.0103937 0.00127559 0.0114606 0.000755906 0.0127717 0.000515748 0.0136654 0.000346457 0.0149055 3.14961e-005 0.0147677 -0.000204724 0.0166575 -0.000653543 0.0172126 -0.00103543 0.0172441 -0.00199606 0.0189331 -0.00251181 0.0188268 -0.00344094 0.0194488 -0.00412992 0.0200315 -0.00526772 0.0201378 -0.00598819 0.0205157 -0.00726378 0.0208583 -0.0084685 0.0210984 -0.0102559 0.0208976 -0.011189 0.0209252 -0.0130118 0.0201024 -0.0145591 0.0204803 -0.0164882 0.0194488 -0.0185866 0.0183465 -0.019689 0.017626 -0.0222717 0.0167953 -0.0232008 0.0145591zm-0.332094 0.00372047l-0.222984 0 0.113248 -0.111079 -0.00034252 0 0.00096063 -0.000377953 0.00206693 0.000377953 0.00354331 -3.54331e-005 0.00372047 -0.000102362 0.00519685 -0.000173228 0.0056811 -0.000275591 0.00664173 -0.000413386 0.0074685 -0.000547244 0.00833071 -0.000688976 0.00905118 -0.000448819 0.00988189 -0.00110236 0.0104961 -0.00130709 0.010811 -0.00110236 0.0113898 -0.0017874 0.0123583 -0.00172441 0.0124606 -0.00237402 0.0129764 -0.00230709 0.0129764 -0.00261417 0.0138386 -0.00302756 0.0137008 -0.00337402 0.0139764 -0.00337402 0.0143504 -0.00423228 0.0145276 -0.00423622 0.014252 -0.00512992 0.0143858 -0.00478346 0.0149409 -0.0057126 0.0141457 -0.00623228 0.0145591 -0.00636614 0.0140787 -0.00692126 0.0144567 -0.00705512 0.0134606 -0.00767717 0.111488 0.192484 -0.0204449 0.011189 -0.019622 0.0105669 -0.0202047 0.00953543 -0.0197913 0.00898425 -0.0202756 0.00794882 -0.0192402 0.00743701 -0.0196181 0.00740157 -0.0195197 0.00602362 -0.0188976 0.00595276 -0.018622 0.00512992 -0.018378 0.00509449 -0.0181063 0.00426772 -0.0172795 0.00385433 -0.0173504 0.00351181 -0.0164173 0.00320079 -0.0159724 0.00237402 -0.0150079 0.00254724 -0.0148346 0.00179134 -0.014252 0.00199606 -0.0131811 0.00130709 -0.0124606 0.00110236 -0.0117047 0.00134252 -0.0109094 0.000688976 -0.010122 0.000551181 -0.00922441 0.000413386 -0.00829528 0.000275591 -0.00691732 0.000169291 -0.00637008 0.000106299 -0.00440551 3.14961e-005 -0.0037874 0.000448819 -0.00264961 -0.000448819 -0.00148031 0 0.113248 -0.111075zm-0.222984 0l0 -0.113248 0.113248 0.00216929 -0.113248 0.111079zm0 0.467819l0 -0.467819 0.222984 0 0 0.467819 -0.222984 0zm0 0l0.222984 0 -0.000173228 0.00574803 -0.000448819 0.00564567 -0.000653543 0.0055748 -0.000996063 0.00550787 -0.00127559 0.00537008 -0.00148031 0.00530315 -0.0017874 0.00516142 -0.00196457 0.00505906 -0.00223622 0.00495669 -0.00248031 0.0048189 -0.0026811 0.00464961 -0.0028937 0.00454331 -0.00313386 0.00437008 -0.00326772 0.00420079 -0.00351181 0.00402756 -0.0036811 0.00388976 -0.0039252 0.0036811 -0.00399213 0.00351181 -0.00420079 0.00330315 -0.00437008 0.00313386 -0.00454331 0.00288976 -0.00464961 0.00268504 -0.00485039 0.00244488 -0.0049252 0.00223622 -0.00509449 0.00199606 -0.00512598 0.00175591 -0.00533858 0.00151575 -0.00536614 0.00124016 -0.00547638 0.000996063 -0.00561024 0.000688976 -0.00561024 0.000448819 -0.00578346 0.000137795 -0.0057126 -0.000137795 -0.00564567 -0.000448819 -0.0055748 -0.000688976 -0.00554331 -0.000996063 -0.00533465 -0.00124016 -0.00533465 -0.00151575 -0.00516535 -0.00175591 -0.00502362 -0.00199606 -0.00499213 -0.00223622 -0.0048189 -0.00244488 -0.00461024 -0.00268504 -0.00454724 -0.00288976 -0.00437008 -0.00313386 -0.00420079 -0.00330315 -0.00405906 -0.00351181 -0.00385433 -0.0036811 -0.00368504 -0.00388976 -0.00354331 -0.00402756 -0.00330709 -0.00420079 -0.00312992 -0.00437008 -0.0028937 -0.00454331 -0.00268504 -0.00464961 -0.00240945 -0.0048189 -0.00223622 -0.00495669 -0.0020315 -0.00505906 -0.00172047 -0.00516142 -0.00151575 -0.00530315 -0.00124016 -0.00537008 -0.000996063 -0.00550787 -0.000688976 -0.0055748 -0.000480315 -0.00564567 -0.000106299 -0.00574803z"/>
  <path class="fil2" d="M1.26516 1.26514c1.05553,-1.05557 2.76696,-1.05557 3.82249,0 1.05553,1.05553 1.05553,2.76696 0,3.82249 -1.05553,1.05556 -2.76696,1.05556 -3.82249,0 -1.0556,-1.05553 -1.0556,-2.76696 0,-3.82249zm0.397398 0.397394c0.836059,-0.836094 2.19161,-0.836094 3.0277,0 0.836063,0.836059 0.836063,2.19161 0,3.0277 -0.836091,0.836094 -2.19164,0.836094 -3.0277,0 -0.836094,-0.836094 -0.836094,-2.19164 0,-3.0277z"/>
  <path class="fil2" d="M5.17202 5.17206l3.14961e-005 0c0.123642,-0.123606 0.325799,-0.123606 0.449406,0l0.520417 0.520382c0.123606,0.123606 0.123642,0.325799 0,0.449406l0 3.54331e-005c-0.123606,0.123571 -0.325831,0.123571 -0.449441,0l-0.520413 -0.520417c-0.123575,-0.123571 -0.123575,-0.325795 0,-0.449406z"/>
 </g>
</svg>
