<?xml version="1.0" encoding="UTF-8"?>
<!DOCTYPE svg PUBLIC "-//W3C//DTD SVG 1.1//EN" "http://www.w3.org/Graphics/SVG/1.1/DTD/svg11.dtd">
<!-- Creator: CorelDRAW -->
<svg xmlns="http://www.w3.org/2000/svg" xml:space="preserve" width="8.23933in" height="1.92913in" style="shape-rendering:geometricPrecision; text-rendering:geometricPrecision; image-rendering:optimizeQuality; fill-rule:evenodd; clip-rule:evenodd"
viewBox="0 0 8.23933 1.92913"
 xmlns:xlink="http://www.w3.org/1999/xlink">
 <defs>
  <style type="text/css">
   <![CDATA[
    .str1 {stroke:white;stroke-width:0.0138858}
    .str0 {stroke:white;stroke-width:0.0277795}
    .fil5 {fill:none}
    .fil1 {fill:#E77817}
    .fil0 {fill:#0297AB}
    .fil3 {fill:white}
    .fil4 {fill:white;fill-rule:nonzero}
    .fil2 {fill:white;fill-rule:nonzero}
   ]]>
  </style>
 </defs>
 <g id="Layer_x0020_1">
  <metadata id="CorelCorpID_0Corel-Layer"/>
  <g id="_104358632">
   <g>
    <path id="_103748712" class="fil0 str0" d="M0.396598 0.123287l1.09367 0c0.161949,0 0.294449,0.132496 0.294449,0.294445l0 1.09367c0,0.161949 -0.1325,0.294445 -0.294449,0.294445l-1.09367 0c-0.161949,0 -0.294449,-0.132496 -0.294449,-0.294445l0 -1.09367c0,-0.161949 0.1325,-0.294445 0.294449,-0.294445z"/>
    <path id="_103748640" class="fil1" d="M0.983811 0.459669c0.301094,0 0.545264,0.244181 0.545264,0.545283 0,0.30111 -0.244169,0.545283 -0.545264,0.545283 -0.301083,0 -0.545252,-0.244173 -0.545252,-0.545283 0,-0.301102 0.244169,-0.545283 0.545252,-0.545283z"/>
    <path id="_103748568" class="fil2" d="M0.702358 1.24256l0.0253386 -0.0252559 0.415465 0 0 0.0505118 -0.415465 0 -0.0253386 -0.0252559zm0.0253386 -0.0252559l0 0.0505118 -0.00129134 -3.14961e-005 -0.00128346 -0.000102362 -0.00125984 -0.00015748 -0.00124409 -0.000224409 -0.00122047 -0.000283465 -0.0012126 -0.000338583 -0.00115748 -0.000397638 -0.00115748 -0.000452756 -0.00111417 -0.0005 -0.00108661 -0.000566929 -0.00106299 -0.000602362 -0.00101969 -0.000653543 -0.000992126 -0.000704724 -0.000956693 -0.000751969 -0.00092126 -0.000791339 -0.000870079 -0.000838583 -0.00084252 -0.000874016 -0.000791339 -0.000917323 -0.000744094 -0.000952756 -0.000704724 -0.000996063 -0.00065748 -0.00102362 -0.000610236 -0.00105906 -0.000562992 -0.00108661 -0.000492126 -0.00111811 -0.000456693 -0.00114961 -0.000405512 -0.00116929 -0.000334646 -0.00120472 -0.000283465 -0.00122047 -0.000220472 -0.00124409 -0.000161417 -0.00125984 -0.000102362 -0.00128346 -2.3622e-005 -0.00129921 2.3622e-005 -0.00129921 0.000102362 -0.00128346 0.000161417 -0.00125984 0.000220472 -0.00124409 0.000283465 -0.00122047 0.000334646 -0.00120866 0.000405512 -0.00116535 0.000456693 -0.00114961 0.000492126 -0.00111811 0.000562992 -0.00108661 0.000610236 -0.00105906 0.00065748 -0.00102362 0.000704724 -0.000996063 0.000744094 -0.000952756 0.000791339 -0.000917323 0.00084252 -0.000874016 0.000870079 -0.000838583 0.00092126 -0.000791339 0.000956693 -0.000751969 0.000992126 -0.000704724 0.00101969 -0.00065748 0.00106299 -0.000602362 0.00108661 -0.000562992 0.00111417 -0.0005 0.00115748 -0.000452756 0.00115748 -0.000401575 0.0012126 -0.000334646 0.00122047 -0.000283465 0.00124409 -0.000224409 0.00125984 -0.00015748 0.00128346 -0.000102362 0.00129134 -3.14961e-005zm-0.000287402 -0.165059l0.0256457 0.0252559 0 0.165059 -0.0506969 0 0 -0.165059 0.0250512 -0.0252559zm0.0256457 0.0252559l-0.0506969 0 2.3622e-005 -0.00130709 0.000102362 -0.00128346 0.000161417 -0.00126772 0.000220472 -0.00125197 0.000283465 -0.00122047 0.000350394 -0.00120472 0.000389764 -0.00117323 0.000464567 -0.00114961 0.0005 -0.00112992 0.000555118 -0.00109449 0.000610236 -0.00105512 0.000665354 -0.00103543 0.000704724 -0.000992126 0.000759843 -0.000956693 0.000799213 -0.000913386 0.000826772 -0.000885827 0.000885827 -0.000838583 0.000913386 -0.000795276 0.000964567 -0.000751969 0.000992126 -0.000712598 0.00102756 -0.00065748 0.00106299 -0.000610236 0.00109449 -0.000555118 0.00112992 -0.000507874 0.00114173 -0.000456693 0.0011811 -0.000397638 0.00119685 -0.000346457 0.00122047 -0.000279528 0.00125984 -0.000228346 0.00125984 -0.00015748 0.00128346 -9.84252e-005 0.00130709 -3.14961e-005 0.00131496 3.14961e-005 0.00128346 9.84252e-005 0.00126772 0.00015748 0.00124409 0.000228346 0.00123228 0.000279528 0.00119685 0.000346457 0.00117323 0.000397638 0.00114961 0.000456693 0.00112598 0.000507874 0.00109843 0.000555118 0.00106299 0.000610236 0.0010315 0.00065748 0.000996063 0.000712598 0.000952756 0.000751969 0.000909449 0.000795276 0.000889764 0.000838583 0.000830709 0.000885827 0.000799213 0.000913386 0.000751969 0.000956693 0.000708661 0.000992126 0.000661417 0.00103543 0.000610236 0.00105512 0.000562992 0.00109449 0.000507874 0.00112992 0.000444882 0.00114961 0.000409449 0.00117323 0.00034252 0.00120472 0.000283465 0.00122047 0.000224409 0.00125197 0.00015748 0.00126772 9.44882e-005 0.00128346 3.93701e-005 0.00130709zm-0.203311 -0.188783l0.0505079 0.00217323 0 0 -0.000295276 0.0159606 0.000625984 0.0146654 0.00130709 0.0135079 0.00211811 0.0124961 0.00266142 0.0114213 0.00316142 0.0103622 0.00370472 0.00955512 0.00416142 0.00867717 0.00457087 0.00784252 0.0048189 0.00713386 0.00511024 0.00646063 0.00544094 0.0059252 0.00561024 0.00532283 0.00582283 0.00476772 0.00594882 0.00423228 0.00604724 0.00383465 0.00617717 0.00338976 0.00611811 0.00305118 0.00605118 0.00258268 0.0059685 0.00223228 0.00587008 0.00180709 0.0056811 0.00162598 0.00534646 0.0012874 0.00492913 0.000984252 0.00458661 0.000712598 0.00416535 0.000562992 0.00358268 0.000476378 0.00304331 0.00019685 0.00232677 0.000181102 0.0016811 7.87402e-005 0.000838583 1.9685e-005 -2.3622e-005 0 0.000586614 0.0505118 -0.000956693 0 -0.00184646 -2.3622e-005 -0.00265354 -7.48031e-005 -0.00351969 -0.000181102 -0.00424016 -0.000401575 -0.00496457 -0.000476378 -0.00554724 -0.000767717 -0.00616142 -0.00110236 -0.00672047 -0.00137795 -0.0071378 -0.00168898 -0.00746457 -0.00201969 -0.00782677 -0.0026063 -0.00816142 -0.00301181 -0.00841339 -0.00357087 -0.00850787 -0.00405512 -0.00855512 -0.00476378 -0.00861417 -0.00543307 -0.0085315 -0.00620472 -0.00838976 -0.00694094 -0.00818504 -0.00770472 -0.00782677 -0.00850394 -0.00748819 -0.0094252 -0.00699606 -0.0103071 -0.00635433 -0.0112087 -0.00574409 -0.0120433 -0.00508661 -0.0129213 -0.00435433 -0.0139291 -0.00345669 -0.0147874 -0.00251181 -0.0156575 -0.00170866 -0.016685 -0.000625984 -0.0176417 0.000299213 -0.0185236zm0.275232 -0.119539l0.046937 0.0186102 -0.0432677 0.00644094 -0.00279528 -0.00312992 -0.00392913 -0.0034685 -0.0047874 -0.0034685 -0.00579921 -0.00353543 -0.0066063 -0.00338189 -0.0073622 -0.00309843 -0.00795276 -0.00286614 -0.00866142 -0.00252756 -0.00902362 -0.00214567 -0.00948819 -0.00162598 -0.00979528 -0.00129134 -0.00993307 -0.000704724 -0.0102126 -0.000212598 -0.010189 0.000425197 -0.010126 0.000992126 -0.00998425 0.00149606 -0.00987795 0.00222441 -0.00958661 0.00279134 -0.00935433 0.00337402 -0.00890551 0.00410236 -0.00851969 0.00475591 -0.00798425 0.00534646 -0.00752756 0.00616929 -0.00702756 0.00680709 -0.00655906 0.00769291 -0.0059252 0.0085 -0.00529921 0.00933465 -0.00462205 0.0105197 -0.00396063 0.0115118 -0.00315354 0.0127598 -0.00214567 0.0140157 -0.00129921 0.0152992 -0.0505079 -0.00217323 0.00150394 -0.0190748 0.00294094 -0.0179764 0.00413386 -0.0169055 0.00536614 -0.015878 0.00659055 -0.0146693 0.00767717 -0.0137008 0.00870079 -0.0124606 0.00951969 -0.0112638 0.0104055 -0.0101732 0.0110906 -0.00893701 0.0117323 -0.00791339 0.0120984 -0.00674803 0.0124724 -0.0056811 0.0127087 -0.00476378 0.0129685 -0.00377953 0.0130315 -0.0028189 0.0131535 -0.00209055 0.0131024 -0.00119685 0.0129685 -0.00042126 0.0127795 0.000208661 0.0126929 0.000909449 0.0123898 0.00149606 0.0120591 0.00222047 0.0117874 0.00274016 0.0112362 0.00331102 0.0109252 0.00386614 0.0103465 0.00447638 0.00976772 0.00496063 0.00916142 0.00552756 0.00855512 0.00623622 0.00769291 0.00683071 0.00695669 0.00768504 -0.0432835 0.00644488zm0.00366929 0.0250512l0.0396142 -0.0314961 0.000775591 0.00104331 0.00073622 0.00106299 0.00065748 0.00109055 0.000594488 0.00111811 0.000547244 0.00113386 0.000476378 0.00114961 0.000425197 0.00116929 0.000350394 0.0011811 0.00030315 0.00118898 0.000244094 0.00120472 0.000188976 0.00120472 0.000110236 0.0012126 7.87402e-005 0.00122047 7.87402e-006 0.0012126 -5.51181e-005 0.00121654 -0.00011811 0.0012126 -0.000165354 0.00119685 -0.000228346 0.00119685 -0.000279528 0.0011811 -0.000338583 0.00117323 -0.00038189 0.00114961 -0.00046063 0.0011378 -0.0005 0.00111811 -0.000559055 0.00109449 -0.00061811 0.0010748 -0.000673228 0.00103937 -0.00073622 0.00101969 -0.000771654 0.000976378 -0.000838583 0.000948819 -0.000901575 0.000913386 -0.000937008 0.000877953 -0.001 0.000838583 -0.00104331 0.000779528 -0.00105512 0.000728346 -0.00109055 0.00065748 -0.00111811 0.000602362 -0.00113386 0.00053937 -0.00114961 0.000480315 -0.00117323 0.00042126 -0.00118504 0.000358268 -0.0011811 0.000299213 -0.0012126 0.000244094 -0.00119685 0.000185039 -0.00122047 0.00011811 -0.0012126 7.08661e-005 -0.0012126 7.87402e-006 -0.00122047 -5.51181e-005 -0.00120472 -0.000110236 -0.00120866 -0.000165354 -0.00119685 -0.000224409 -0.0011811 -0.000283465 -0.00117323 -0.000334646 -0.00114961 -0.000393701 -0.0011378 -0.000452756 -0.00111811 -0.000507874 -0.00109449 -0.000555118 -0.00106299 -0.00061811 -0.00104331 -0.000673228 -0.00102362 -0.000728346 -0.000980315 -0.000783465 -0.000944882 -0.000838583 -0.000917323 -0.000889764 -0.000866142 -0.000940945 -0.000838583 -0.001zm0.176209 -0.0300079l0.0358346 0.0356575 -0.0375276 -0.00188583 -0.00664173 -0.00761417 -0.00647244 -0.00658268 -0.00626772 -0.00559449 -0.00618504 -0.00466535 -0.00605512 -0.00397638 -0.00569685 -0.00312205 -0.00566535 -0.00244094 -0.00548819 -0.00187795 -0.00529134 -0.00137795 -0.00527165 -0.000925197 -0.00506693 -0.000405512 -0.00520866 -4.72441e-005 -0.00496457 0.000358268 -0.00498425 0.00073622 -0.00479921 0.000956693 -0.00488976 0.0013189 -0.00464567 0.00166142 -0.00451575 0.00183071 -0.00446457 0.00196457 -0.00417717 0.00224803 -0.00409449 0.00228346 -0.00377953 0.00248031 -0.00355906 0.00241732 -0.00320866 0.00242126 -0.00295276 0.00237008 -0.0025748 0.00227165 -0.00210236 0.0020315 -0.00177165 0.00183465 -0.00126378 0.00139764 -0.000622047 0.000720472 0.000141732 -0.000200787 0.00129134 -0.00267717 -0.0469409 -0.0186102 0.00266929 -0.00525984 0.00243307 -0.00355512 0.00260236 -0.0032874 0.00283858 -0.00318504 0.00316929 -0.00322441 0.00368504 -0.00340945 0.0039685 -0.00346063 0.00432677 -0.00356299 0.00481496 -0.0036063 0.00513386 -0.00361024 0.00556299 -0.00346457 0.00587008 -0.00347638 0.00637008 -0.00324803 0.0066378 -0.00315354 0.00709055 -0.0028189 0.00741732 -0.00244094 0.00766142 -0.00211811 0.00816535 -0.00175591 0.00833858 -0.00112598 0.00872047 -0.000562992 0.00879528 4.72441e-005 0.00922047 0.000814961 0.00923228 0.00151575 0.00946457 0.00236614 0.00943701 0.00327165 0.00941339 0.00420866 0.00948425 0.00511024 0.0092126 0.00594882 0.00915748 0.00704331 0.00904724 0.00797638 0.00885039 0.00896063 0.00861417 0.00999213 -0.0375236 -0.00188583zm-0.00169291 0.0337717l0.0392165 -0.0318858 0.000799213 0.00103543 0.000720472 0.00105512 0.000673228 0.00107874 0.00061811 0.0011063 0.000555118 0.00112598 0.000484252 0.00114173 0.000433071 0.00116535 0.000374016 0.00117323 0.000314961 0.00119291 0.000255906 0.00119685 0.000188976 0.00120472 0.000141732 0.00120472 7.48031e-005 0.0012126 3.14961e-005 0.0012126 -3.54331e-005 0.00121654 -0.000102362 0.0012126 -0.00015748 0.00119685 -0.000204724 0.00119685 -0.000271654 0.0011811 -0.000330709 0.00117323 -0.000374016 0.00115748 -0.000440945 0.00114567 -0.000484252 0.00111811 -0.000555118 0.00109449 -0.000602362 0.00108268 -0.000665354 0.00104724 -0.000712598 0.00101575 -0.000775591 0.000996063 -0.000811024 0.000952756 -0.000885827 0.000925197 -0.000937008 0.000885827 -0.000988189 0.00084252 -0.00102362 0.000799213 -0.00106693 0.000728346 -0.00107874 0.000673228 -0.00110236 0.00061811 -0.00112992 0.000547244 -0.00114173 0.000492126 -0.00115748 0.000433071 -0.00117323 0.000374016 -0.00118898 0.000314961 -0.00120472 0.000255906 -0.00120079 0.000188976 -0.0012126 0.000141732 -0.00120472 7.48031e-005 -0.00122047 2.75591e-005 -0.00120472 -3.93701e-005 -0.0012126 -0.000102362 -0.00119685 -0.000149606 -0.00120472 -0.000212598 -0.0011811 -0.00026378 -0.00116929 -0.000330709 -0.00116535 -0.000374016 -0.00113386 -0.000440945 -0.00112598 -0.000492126 -0.00109843 -0.000547244 -0.00107874 -0.000602362 -0.00104724 -0.000665354 -0.00101181 -0.000712598 -0.000992126 -0.000775591 -0.000964567 -0.000818898 -0.000913386 -0.000877953 -0.000893701 -0.000940945 -0.000846457 -0.000984252zm0.117047 -0.0848543l0.000212598 0.0505118 0 0 -0.00377953 0.00015748 -0.00382283 0.000295276 -0.0038189 0.000519685 -0.00385039 0.00061811 -0.00365354 0.000811024 -0.00374803 0.000885827 -0.00365354 0.00112598 -0.00366535 0.00118504 -0.00352756 0.00130315 -0.00352362 0.00141732 -0.00338583 0.00151181 -0.00325591 0.00157874 -0.00322441 0.00165354 -0.00319291 0.00168898 -0.00303543 0.00172441 -0.00287402 0.00173622 -0.00271654 0.00173622 -0.00266142 0.00181496 -0.00248819 0.00169291 -0.00240945 0.00164173 -0.00211417 0.00166929 -0.0020315 0.00149213 -0.00184252 0.00149606 -0.00164173 0.00129134 -0.00152756 0.00125984 -0.00122835 0.0012126 -0.00111024 0.000854331 -0.000775591 0.000783465 -0.00065748 0.000594488 -0.000397638 0.00038189 -0.000283465 0.000267717 0.000165354 -0.000173228 -0.0358346 -0.0356575 0.00042126 -0.00042126 0.000468504 -0.000452756 0.000807087 -0.000791339 0.00104331 -0.000988189 0.00137795 -0.00117323 0.0015 -0.00144882 0.00181496 -0.00141339 0.00193307 -0.00165354 0.00222441 -0.00188583 0.00243307 -0.00188583 0.00262992 -0.00209055 0.0029252 -0.0020748 0.003 -0.00223622 0.00327953 -0.00227165 0.00344094 -0.00222047 0.00371654 -0.00233465 0.00386614 -0.00233071 0.00402362 -0.00231496 0.00417717 -0.0022874 0.00441732 -0.00224409 0.0046378 -0.00217717 0.00478346 -0.0021063 0.00490551 -0.00199606 0.00511811 -0.00190157 0.00522835 -0.00177559 0.00544094 -0.00153543 0.00553937 -0.00147638 0.00583858 -0.00120472 0.00583071 -0.00101181 0.006 -0.000720472 0.00618504 -0.0005 0.00634646 -0.00015748zm0.19463 0.19537l-0.0505157 0 0 0 -0.000350394 -0.0127402 -0.000901575 -0.0118819 -0.00141732 -0.0110354 -0.00197244 -0.0102913 -0.00232283 -0.0095 -0.00271654 -0.0087126 -0.00311417 -0.00814567 -0.00346063 -0.00751575 -0.00376378 -0.00687795 -0.00404331 -0.00629134 -0.00430709 -0.00580709 -0.00450787 -0.00534646 -0.00471654 -0.00492126 -0.00495276 -0.0045 -0.00508268 -0.00411811 -0.00538189 -0.00373228 -0.00553543 -0.00339764 -0.00564961 -0.00315354 -0.00576772 -0.00275591 -0.00590551 -0.00256693 -0.00594094 -0.0021063 -0.00605906 -0.00195669 -0.00600787 -0.00174409 -0.00605118 -0.00133858 -0.00596457 -0.00125984 -0.00591339 -0.000913386 -0.00577559 -0.000767717 -0.00567717 -0.00065748 -0.00554724 -0.000362205 -0.00519685 -0.000295276 -0.00501575 -0.000149606 -0.00488189 -1.5748e-005 -0.000212598 -0.0505118 0.00569685 1.5748e-005 0.00619685 0.000149606 0.0065748 0.000299213 0.00674016 0.000562992 0.00706693 0.00065748 0.00735433 0.000968504 0.00749606 0.00130709 0.00774803 0.00146457 0.00782677 0.00193307 0.008 0.0021378 0.00803543 0.00255118 0.00812598 0.00309055 0.00809843 0.00336614 0.00811417 0.00394094 0.00803937 0.00434646 0.00790945 0.00497638 0.00775591 0.00551969 0.00766142 0.00608661 0.00733465 0.00667717 0.00709055 0.00730315 0.0066811 0.0079252 0.00629134 0.00857874 0.00583071 0.00926772 0.00534646 0.00985039 0.00484252 0.0104724 0.00429134 0.011122 0.00373228 0.0118858 0.00309843 0.0124606 0.00238583 0.0130787 0.00180315 0.0138071 0.00109449 0.0144449 0.000366142 0.015122zm-0.146783 0.168008l-0.0505079 0 0.0266378 -0.0252559 -0.000169291 1.5748e-005 0.00073622 3.93701e-005 0.0015 7.87402e-006 0.00218504 -4.72441e-005 0.00264567 -0.000133858 0.00332677 -0.00026378 0.00367717 -0.000322835 0.0041378 -0.000523622 0.00449213 -0.000767717 0.00487008 -0.000925197 0.00507874 -0.00113386 0.00537008 -0.00147638 0.00546063 -0.00185827 0.0055315 -0.00205512 0.00564173 -0.00251181 0.00559055 -0.00279528 0.00561024 -0.0033189 0.00544094 -0.00366142 0.00541339 -0.00405512 0.00527559 -0.00457874 0.00503937 -0.00513386 0.00478346 -0.00573622 0.00464567 -0.0063622 0.00437795 -0.00692913 0.00402756 -0.00783071 0.00374803 -0.00857087 0.00330315 -0.00944094 0.00280315 -0.0103465 0.0023622 -0.011378 0.00175197 -0.0123661 0.00109843 -0.0135709 0.00038189 -0.0147205 0.0505157 0 -0.00038189 0.0172874 -0.00130709 0.0163583 -0.0021378 0.0155276 -0.00296457 0.0145551 -0.00379528 0.0137126 -0.0045 0.0128031 -0.00512598 0.011937 -0.00581496 0.0109961 -0.0063622 0.0102913 -0.00682677 0.00933465 -0.00733858 0.00850787 -0.00762992 0.00771654 -0.00784252 0.00696063 -0.00800394 0.00622835 -0.00820472 0.00544488 -0.00816929 0.00469685 -0.00817717 0.00418898 -0.00801575 0.00349606 -0.00790157 0.00304724 -0.00766142 0.00244882 -0.00733465 0.0020748 -0.00705906 0.00172835 -0.00666142 0.00133071 -0.00625984 0.000952756 -0.00573622 0.000728346 -0.00525984 0.000523622 -0.00452362 0.000267717 -0.00401969 0.000133858 -0.00317717 4.72441e-005 -0.00249213 -7.87402e-006 -0.00172047 -3.93701e-005 -0.00100787 -1.5748e-005 0.0266299 -0.0252559zm-0.0238661 -0.0252559l-0.00276378 0.0505118 -0.00130709 -0.000102362 -0.00127559 -0.000173228 -0.00124409 -0.000224409 -0.00123622 -0.000291339 -0.0012126 -0.000350394 -0.0011811 -0.000401575 -0.00114173 -0.00046063 -0.00112992 -0.000515748 -0.00108661 -0.000570866 -0.00105512 -0.00061811 -0.00102756 -0.000665354 -0.000992126 -0.000712598 -0.000948819 -0.000759843 -0.000905512 -0.000799213 -0.000870079 -0.000846457 -0.000838583 -0.00088189 -0.000791339 -0.000925197 -0.000732283 -0.00096063 -0.00069685 -0.000996063 -0.00065748 -0.00102362 -0.000602362 -0.00106693 -0.000547244 -0.00108661 -0.000503937 -0.00111811 -0.000437008 -0.00114961 -0.000389764 -0.00117323 -0.000330709 -0.00119291 -0.000271654 -0.00122047 -0.000228346 -0.00123622 -0.000149606 -0.00125984 -9.44882e-005 -0.00126772 -3.14961e-005 -0.00129134 3.93701e-005 -0.00129921 0.000102362 -0.00129921 0.000173228 -0.00127559 0.000232283 -0.00125197 0.000291339 -0.00123622 0.000346457 -0.00120472 0.000405512 -0.0011811 0.00046063 -0.00115354 0.000507874 -0.00111811 0.00057874 -0.00108661 0.00061811 -0.00106693 0.000665354 -0.00101575 0.000712598 -0.000996063 0.000759843 -0.000944882 0.000799213 -0.000917323 0.000838583 -0.000866142 0.00088189 -0.000838583 0.000933071 -0.000783465 0.000952756 -0.000744094 0.000996063 -0.00069685 0.0010315 -0.000649606 0.00105512 -0.000602362 0.00109055 -0.000555118 0.00112598 -0.000492126 0.00114173 -0.000444882 0.0011811 -0.000393701 0.00118504 -0.000326772 0.00122835 -0.000275591 0.00123622 -0.000216535 0.00125984 -0.00015748 0.00125984 -8.66142e-005 0.00129921 -3.14961e-005 0.00129134 3.93701e-005zm-0.00102756 0.216555l0 -0.0505118 -0.0252441 0.0252559 -7.87402e-006 -0.00494882 -2.3622e-005 -0.00499213 -7.87402e-006 -0.00503937 -7.87402e-006 -0.00507874 -7.87402e-006 -0.00511811 -2.3622e-005 -0.00514961 -7.87402e-006 -0.0051811 -7.87402e-006 -0.00520472 -7.87402e-006 -0.00523622 -2.3622e-005 -0.00525984 -7.87402e-006 -0.00526772 -7.87402e-006 -0.0052874 -7.87402e-006 -0.00530709 -7.87402e-006 -0.00531496 -2.3622e-005 -0.00531496 -7.87402e-006 -0.00532283 0 -0.0053189 -1.5748e-005 -0.00531496 -1.5748e-005 -0.00531496 -1.5748e-005 -0.00530709 0 -0.00529134 -7.87402e-006 -0.00526378 -2.3622e-005 -0.00525984 -7.87402e-006 -0.00523622 -7.87402e-006 -0.00520472 -7.87402e-006 -0.0051811 -2.3622e-005 -0.00514961 -7.87402e-006 -0.00511811 -7.87402e-006 -0.00507874 -7.87402e-006 -0.00503937 -2.3622e-005 -0.00499606 -7.87402e-006 -0.00494488 0.0505118 0 1.1811e-005 0.00494488 1.9685e-005 0.00499606 0 0.00503937 1.1811e-005 0.00507874 1.9685e-005 0.00511811 1.1811e-005 0.00514961 0 0.0051811 1.5748e-005 0.00520472 1.5748e-005 0.00523622 1.5748e-005 0.00525984 0 0.00526378 7.87402e-006 0.00529134 2.3622e-005 0.00530709 7.87402e-006 0.00531496 7.87402e-006 0.00531496 7.87402e-006 0.0053189 7.87402e-006 0.00532283 2.3622e-005 0.00531496 7.87402e-006 0.00531496 7.87402e-006 0.00530709 7.87402e-006 0.0052874 1.5748e-005 0.00526772 1.5748e-005 0.00525984 0 0.00523622 1.5748e-005 0.00520472 1.5748e-005 0.0051811 1.5748e-005 0.00514961 0 0.00511811 1.5748e-005 0.00507874 1.5748e-005 0.00503937 1.5748e-005 0.00499213 0 0.00494882 -0.0252559 0.0252559zm-0.0252441 -0.0252559l0.0505 0 -3.14961e-005 0.00129921 -0.000102362 0.00128346 -0.000149606 0.00125984 -0.000232283 0.00124409 -0.000283465 0.00122047 -0.000334646 0.00120472 -0.000393701 0.00116929 -0.00046063 0.00114961 -0.0005 0.00111811 -0.000555118 0.00108661 -0.000602362 0.00105906 -0.00065748 0.00102362 -0.000712598 0.000996063 -0.000751969 0.000952756 -0.000791339 0.000917323 -0.000830709 0.000874016 -0.00088189 0.000838583 -0.000909449 0.000791339 -0.000952756 0.000751969 -0.000996063 0.000704724 -0.0010315 0.000653543 -0.00104724 0.000602362 -0.00109055 0.000566929 -0.00112598 0.0005 -0.00114173 0.000452756 -0.00117323 0.000397638 -0.00119685 0.000338583 -0.00122441 0.000283465 -0.00124409 0.000224409 -0.00126772 0.00015748 -0.00127559 0.000102362 -0.00130709 3.14961e-005 -0.00129134 -3.14961e-005 -0.00128346 -0.000102362 -0.00126772 -0.00015748 -0.00123622 -0.000224409 -0.00122835 -0.000283465 -0.00119685 -0.000338583 -0.00117323 -0.000397638 -0.00114173 -0.000452756 -0.00112598 -0.0005 -0.00109055 -0.000566929 -0.00104724 -0.000602362 -0.00103543 -0.000653543 -0.000992126 -0.000704724 -0.000948819 -0.000751969 -0.000913386 -0.000791339 -0.000885827 -0.000838583 -0.000834646 -0.000874016 -0.000783465 -0.000917323 -0.000751969 -0.000952756 -0.000704724 -0.000996063 -0.000665354 -0.00102362 -0.000602362 -0.00105906 -0.000562992 -0.00108661 -0.000492126 -0.00111811 -0.000464567 -0.00114961 -0.000389764 -0.00116929 -0.000334646 -0.00120472 -0.000283465 -0.00122047 -0.000228346 -0.00124409 -0.000153543 -0.00125984 -0.000102362 -0.00128346 -3.14961e-005 -0.00129921z"/>
    <path id="_103748496" class="fil2" d="M1.21354 0.905681l-0.0497047 0.0095 -0.000212598 -0.00127953 -0.000153543 -0.00128346 -7.08661e-005 -0.00127953 -2.3622e-005 -0.00125591 4.72441e-005 -0.00126378 0.00011811 -0.00124409 0.000161417 -0.00122835 0.000228346 -0.0012126 0.000291339 -0.00119685 0.000350394 -0.00117323 0.000397638 -0.00115748 0.000456693 -0.00112992 0.0005 -0.00111024 0.000555118 -0.00107874 0.00061811 -0.00105118 0.00065748 -0.00102362 0.000704724 -0.000984252 0.000751969 -0.000956693 0.000791339 -0.000917323 0.00084252 -0.000874016 0.000893701 -0.000846457 0.000913386 -0.000791339 0.000972441 -0.000759843 0.00100787 -0.000704724 0.00104331 -0.000661417 0.00107874 -0.000614173 0.00111811 -0.000555118 0.00115354 -0.000507874 0.0011811 -0.000452756 0.0012126 -0.000401575 0.00124409 -0.000334646 0.00127559 -0.000275591 0.00128346 -0.000208661 0.00127559 -0.000149606 0.00128346 -7.87402e-005 0.00125984 -1.5748e-005 0.00125197 4.72441e-005 0.00124409 0.000110236 0.00122835 0.000173228 0.0012126 0.000224409 0.00119685 0.000291339 0.00117323 0.00034252 0.00116929 0.000401575 0.00111811 0.000452756 0.00111811 0.000507874 0.00107874 0.000555118 0.00105118 0.000610236 0.00102362 0.00065748 0.000980315 0.000704724 0.00096063 0.000751969 0.000917323 0.000799213 0.000866142 0.000846457 0.000846457 0.00088189 0.000791339 0.000925197 0.000759843 0.000968504 0.000712598 0.00101181 0.000653543 0.00103937 0.000622047 0.00107874 0.000555118 0.00111417 0.0005 0.00114961 0.00046063 0.0011811 0.000389764 0.0012126 0.000346457 0.00124409 0.000267717 0.00127559zm-0.0412677 0.112098l-0.0253465 -0.0437638 0 0 0.00209449 -0.00133858 0.00170079 -0.00124016 0.0017126 -0.00143701 0.00143307 -0.00159055 0.00138976 -0.00164961 0.00132677 -0.00168504 0.0011811 -0.002 0.00115748 -0.00198819 0.000937008 -0.00216929 0.000948819 -0.00223228 0.000846457 -0.0023622 0.000755906 -0.00248819 0.000610236 -0.00259055 0.00053937 -0.00258268 0.000409449 -0.0026378 0.000366142 -0.00270079 0.000244094 -0.00251969 0.00023622 -0.00273228 0.000145669 -0.00251969 5.51181e-005 -0.00240945 -1.5748e-005 -0.00255906 -7.48031e-005 -0.00220079 -0.000125984 -0.00211811 -0.000165354 -0.00191732 -8.66142e-005 -0.00181102 -0.00019685 -0.00156299 -0.000192913 -0.00132283 -8.66142e-005 -0.00105118 -0.000181102 -0.000850394 -3.93701e-005 -0.000555118 1.5748e-005 -0.000125984 -3.14961e-005 0.000114173 0.0497047 -0.0095 3.93701e-005 0.000476378 0.000185039 0.000909449 0.00023622 0.00114961 0.000173228 0.00144882 0.000287402 0.00184646 0.000204724 0.0021063 0.000188976 0.0023622 0.000287402 0.0026063 0.000173228 0.00290551 0.00011811 0.0031063 7.87402e-005 0.00338976 3.93701e-006 0.00335827 -4.33071e-005 0.0037874 -0.000149606 0.00391339 -0.00023622 0.00392126 -0.000452756 0.00430315 -0.000570866 0.00427953 -0.000783465 0.00442126 -0.000937008 0.00455512 -0.00120079 0.00457874 -0.00135827 0.00466535 -0.00165354 0.00474409 -0.0019252 0.00479528 -0.00233071 0.00475197 -0.00254331 0.00475984 -0.00296063 0.00457087 -0.00331102 0.00465354 -0.00374803 0.0044252 -0.00422441 0.00416929 -0.00447638 0.00400787 -0.00506299 0.0038189 -0.00527559 0.00331102zm-0.0755039 0.00084252l-0.0506969 0 0.025748 -0.0252559 -7.87402e-005 0 0.000216535 -8.26772e-005 0.000472441 8.26772e-005 0.00080315 -3.93701e-006 0.000846457 -2.3622e-005 0.0011811 -3.93701e-005 0.00129134 -6.29921e-005 0.00151181 -9.44882e-005 0.00169685 -0.000125984 0.0018937 -0.00015748 0.00205906 -0.000102362 0.00224803 -0.000248031 0.00238583 -0.000299213 0.00245669 -0.000248031 0.00259055 -0.000409449 0.00281102 -0.000389764 0.00283071 -0.00053937 0.00295276 -0.000523622 0.00294882 -0.000594488 0.00314567 -0.000688976 0.00311417 -0.000767717 0.00317717 -0.000767717 0.00326378 -0.00096063 0.00330315 -0.000964567 0.00324016 -0.00116535 0.00327165 -0.00109055 0.00339764 -0.00129528 0.00321654 -0.00141732 0.00330709 -0.00144882 0.00320079 -0.0015748 0.0032874 -0.00160236 0.00306299 -0.00174409 0.0253465 0.0437638 -0.00464961 0.00254331 -0.00446063 0.00240157 -0.00459449 0.00216929 -0.0045 0.00204331 -0.00461024 0.00180709 -0.00437402 0.00168898 -0.00446063 0.00168504 -0.00443701 0.00136614 -0.00429528 0.00135433 -0.00423622 0.00116929 -0.00417717 0.00115748 -0.00411417 0.000968504 -0.00392913 0.000877953 -0.00394488 0.000799213 -0.00373228 0.000728346 -0.00363386 0.00053937 -0.00340945 0.00057874 -0.00337402 0.000405512 -0.00324016 0.000452756 -0.00299606 0.000299213 -0.00283465 0.000251969 -0.00266142 0.00030315 -0.00248031 0.00015748 -0.00229921 0.000125984 -0.00209843 9.44882e-005 -0.00188583 6.29921e-005 -0.0015748 3.54331e-005 -0.00144882 2.3622e-005 -0.001 7.87402e-006 -0.000862205 0.000102362 -0.000602362 -0.000102362 -0.000334646 0 0.025748 -0.0252559zm-0.0506969 0l0 -0.025748 0.025748 0.000492126 -0.025748 0.0252559zm0 0.10637l0 -0.106366 0.0506969 0 0 0.106366 -0.0506969 0zm0 0l0.0506969 0 -3.93701e-005 0.00130709 -0.000102362 0.00128346 -0.000149606 0.00126772 -0.000224409 0.00125197 -0.000291339 0.00122047 -0.000338583 0.00120472 -0.000405512 0.00117717 -0.000444882 0.00114961 -0.000507874 0.00112598 -0.000566929 0.00109449 -0.000606299 0.00105906 -0.000661417 0.0010315 -0.000712598 0.000996063 -0.000740157 0.000952756 -0.000799213 0.000917323 -0.000838583 0.00088189 -0.000889764 0.000838583 -0.000909449 0.000799213 -0.000952756 0.000751969 -0.000996063 0.000712598 -0.0010315 0.00065748 -0.00105906 0.000610236 -0.00110236 0.000555118 -0.00111811 0.000507874 -0.00115748 0.000452756 -0.00116535 0.000401575 -0.00121654 0.00034252 -0.00122047 0.000283465 -0.00124409 0.000224409 -0.00127559 0.00015748 -0.00127559 0.000102362 -0.00131496 3.14961e-005 -0.00129921 -3.14961e-005 -0.00128346 -0.000102362 -0.00126772 -0.00015748 -0.00125984 -0.000224409 -0.0012126 -0.000283465 -0.0012126 -0.00034252 -0.00117323 -0.000401575 -0.00114173 -0.000452756 -0.0011378 -0.000507874 -0.00109449 -0.000555118 -0.00104724 -0.000610236 -0.00103543 -0.00065748 -0.000992126 -0.000712598 -0.000956693 -0.000751969 -0.00092126 -0.000799213 -0.000877953 -0.000838583 -0.000834646 -0.00088189 -0.000807087 -0.000917323 -0.000751969 -0.000952756 -0.000712598 -0.000996063 -0.00065748 -0.0010315 -0.000610236 -0.00105906 -0.000547244 -0.00109449 -0.000507874 -0.00112598 -0.000464567 -0.00114961 -0.000389764 -0.00117717 -0.00034252 -0.00120472 -0.000283465 -0.00122047 -0.000228346 -0.00125197 -0.000153543 -0.00126772 -0.000110236 -0.00128346 -2.3622e-005 -0.00130709z"/>
    <path id="_103748424" class="fil3" d="M0.508902 0.530012c0.23998,-0.240004 0.629087,-0.240004 0.869071,0 0.239984,0.239992 0.239984,0.629118 0,0.86911 -0.239984,0.240004 -0.629091,0.240004 -0.869071,0 -0.24,-0.239992 -0.24,-0.629118 0,-0.86911zm0.0903504 0.0903543c0.190083,-0.190102 0.49828,-0.190102 0.68837,0 0.190087,0.190094 0.190087,0.498303 0,0.688402 -0.190091,0.190102 -0.498287,0.190102 -0.68837,0 -0.190094,-0.190102 -0.190094,-0.498307 0,-0.688402z"/>
    <path id="_103748352" class="fil3" d="M1.39698 1.40813l3.93701e-006 0c0.0281142,-0.0281063 0.0740748,-0.0281063 0.102177,0l0.118323 0.118319c0.0281024,0.0281024 0.0281102,0.0740748 0,0.102181l0 7.87402e-006c-0.0281063,0.0280945 -0.0740827,0.0280945 -0.102185,0l-0.118319 -0.118327c-0.0280984,-0.0280984 -0.0280984,-0.0740787 0,-0.102181z"/>
   </g>
   <path id="_103748208" class="fil4" d="M2.19433 0.617917c0.0135157,-0.0233425 0.0300984,-0.0416181 0.0499094,-0.0546732 0.019811,-0.0130512 0.0417717,-0.0195039 0.066189,-0.0195039 0.0437677,0 0.0777087,0.016126 0.102126,0.0485315 0.0242638,0.0324016 0.0363937,0.082311 0.0363937,0.149421l0 0.297925 -0.091374 0 0 -0.298846c0,-0.044689 -0.00644882,-0.0767835 -0.0195039,-0.0964409 -0.0130512,-0.0196575 -0.0325551,-0.0294843 -0.0583543,-0.0294843 -0.0185827,0 -0.0351693,0.00537402 -0.0496024,0.0159685 -0.0145906,0.0105984 -0.0265669,0.0253386 -0.0357835,0.0439213l0 0.364882 -0.091374 0 0 -0.701811 0.091374 0 0 0.28011zm0.339693 0.147732c0,-0.0645 0.0168937,-0.117634 0.0505276,-0.159406 0.0337835,-0.0416181 0.0800079,-0.0625039 0.138827,-0.0625039 0.0585079,0 0.104732,0.0207323 0.13852,0.0623504 0.033937,0.0414646 0.0508307,0.094752 0.0508307,0.159559l0 0.0620433c0,0.0651142 -0.0167402,0.118248 -0.0505236,0.159559 -0.0337874,0.041311 -0.0798583,0.0618858 -0.138366,0.0618858 -0.059126,0 -0.105504,-0.0205748 -0.139287,-0.0618858 -0.0336339,-0.041311 -0.0505276,-0.0944449 -0.0505276,-0.159559l0 -0.0620433zm0.0912205 0.0620433c0,0.0443819 0.00814173,0.0809291 0.0244213,0.109496 0.016122,0.0284094 0.0408465,0.042689 0.0741732,0.042689 0.0324016,0 0.0568189,-0.0142795 0.0730984,-0.042689 0.0164331,-0.0285669 0.0245709,-0.0651142 0.0245709,-0.109496l0 -0.0620433c0,-0.0439213 -0.0081378,-0.0800079 -0.0245709,-0.108728 -0.0162795,-0.0287165 -0.0408504,-0.0429961 -0.0735591,-0.0429961 -0.0330197,0 -0.0575906,0.0142795 -0.0737126,0.042689 -0.0162795,0.0285669 -0.0244213,0.0649606 -0.0244213,0.109035l0 0.0620433zm0.490961 -0.395902l0 0.121012 0.0760197 0 0 0.0652677 -0.0760197 0 0 0.289783c0,0.025185 0.00368504,0.0431535 0.0112126,0.053752 0.00752362,0.0105945 0.0172008,0.0159685 0.0291772,0.0159685 0.00721654,0 0.0139764,-0.00046063 0.0201181,-0.00138189 0.00614173,-0.00092126 0.0133622,-0.00214961 0.0218071,-0.00399213l0.00936614 0.0629646c-0.0101339,0.00414567 -0.0216535,0.00752362 -0.0343976,0.0101339 -0.012748,0.00261024 -0.0257992,0.00383858 -0.039315,0.00383858 -0.0345512,0 -0.0612756,-0.0113622 -0.080315,-0.033937 -0.0190433,-0.0227283 -0.0285669,-0.0585118 -0.0285669,-0.107346l0 -0.289783 -0.0634213 0 0 -0.0652677 0.0634213 0 0 -0.121012 0.0909134 0zm0.341846 0.617346c-0.0578976,0 -0.104122,-0.0201142 -0.13898,-0.0603504 -0.0347087,-0.0400827 -0.0522126,-0.0916811 -0.0522126,-0.154339l0 -0.0711024c0,-0.0635787 0.0170433,-0.116098 0.0511378,-0.157563 0.033937,-0.041311 0.0772441,-0.0620433 0.129764,-0.0620433 0.0551339,0 0.0976732,0.0188898 0.127311,0.0565157 0.0296378,0.037626 0.0445354,0.0883031 0.0445354,0.151882l0 0.0629606 -0.261835 0 0 0.0193504c0,0.0420787 0.0092126,0.0767835 0.0276417,0.104276 0.0184291,0.0274882 0.044689,0.0411535 0.0784724,0.0411535 0.0253386,0 0.0468386,-0.00399213 0.0648071,-0.0119764 0.018122,-0.00783071 0.0351654,-0.0195039 0.0512913,-0.0348622l0.0288701 0.0566693c-0.0153543,0.0175079 -0.0359331,0.0316339 -0.0617323,0.0428465 -0.0257992,0.0110551 -0.0554409,0.0165827 -0.0890709,0.0165827zm-0.0102913 -0.435213c-0.0264134,0 -0.0476063,0.0128976 -0.0634213,0.0385433 -0.0159724,0.0256457 -0.0247244,0.0580512 -0.0265669,0.0973622l0.171382 0 0 -0.0184252c0,-0.0345551 -0.00690945,-0.0626575 -0.0207323,-0.0846181 -0.0136693,-0.0219606 -0.033937,-0.0328622 -0.0606614,-0.0328622zm0.350138 0.425693l-0.0913701 0 0 -0.701811 0.0913701 0 0 0.701811zm0.211469 -0.486815l0 0.520138c0,0.052063 -0.0118268,0.0924488 -0.0353228,0.120709 -0.0234961,0.0284094 -0.0565118,0.0425394 -0.0987441,0.0425394 -0.00906299,0 -0.0170472,-0.000614173 -0.0242638,-0.002 -0.00722047,-0.00138189 -0.0150512,-0.00337795 -0.0233425,-0.00614173l0.00491339 -0.0697205c0.00475984,0.00184252 0.0102874,0.00322441 0.0164331,0.00445276 0.00614173,0.00122835 0.0118228,0.00184252 0.0171969,0.00184252 0.0159724,0 0.0285669,-0.00752362 0.0379331,-0.0227283 0.0092126,-0.0152008 0.0138228,-0.0380827 0.0138228,-0.0691063l0 -0.519984 0.091374 0zm0 -0.127772l-0.091374 0 0 -0.0872244 0.091374 0 0 0.0872244zm0.0913701 0.340618c0,-0.0645 0.0168937,-0.117634 0.0505276,-0.159406 0.0337835,-0.0416181 0.0800079,-0.0625039 0.138827,-0.0625039 0.0585079,0 0.104732,0.0207323 0.13852,0.0623504 0.033937,0.0414646 0.0508307,0.094752 0.0508307,0.159559l0 0.0620433c0,0.0651142 -0.0167402,0.118248 -0.0505236,0.159559 -0.0337874,0.041311 -0.0798583,0.0618858 -0.138366,0.0618858 -0.059126,0 -0.105504,-0.0205748 -0.139287,-0.0618858 -0.0336339,-0.041311 -0.0505276,-0.0944449 -0.0505276,-0.159559l0 -0.0620433zm0.0912205 0.0620433c0,0.0443819 0.00814173,0.0809291 0.0244213,0.109496 0.016122,0.0284094 0.0408465,0.042689 0.0741732,0.042689 0.0324016,0 0.0568189,-0.0142795 0.0730984,-0.042689 0.0164331,-0.0285669 0.0245709,-0.0651142 0.0245709,-0.109496l0 -0.0620433c0,-0.0439213 -0.0081378,-0.0800079 -0.0245709,-0.108728 -0.0162795,-0.0287165 -0.0408504,-0.0429961 -0.0735591,-0.0429961 -0.0330197,0 -0.0575906,0.0142795 -0.0737126,0.042689 -0.0162795,0.0285669 -0.0244213,0.0649606 -0.0244213,0.109035l0 0.0620433zm0.734831 0.00905906c0,0.0645 -0.0139764,0.115945 -0.0419252,0.154492 -0.0279488,0.0385472 -0.0671102,0.0578937 -0.117941,0.0578937 -0.0254921,0 -0.0477598,-0.0056811 -0.0668031,-0.0168898 -0.0190433,-0.0112126 -0.0350118,-0.0277992 -0.0479134,-0.0497559l-0.00675591 0.057126 -0.0790906 0 0 -0.701811 0.091374 0 0 0.266287c0.0125945,-0.0195039 0.0277953,-0.0345512 0.0457638,-0.0448425 0.018122,-0.0102874 0.0388543,-0.0155118 0.0626575,-0.0155118 0.0512913,0 0.0907598,0.0205787 0.118709,0.0618898 0.0279488,0.041311 0.0419252,0.0962874 0.0419252,0.164933l0 0.066189zm-0.0909134 -0.066189c0,-0.0468386 -0.00752362,-0.0844606 -0.0222677,-0.113028 -0.0148976,-0.0284094 -0.0383937,-0.042689 -0.0704882,-0.042689 -0.0204252,0 -0.037626,0.00614173 -0.0519055,0.0182717 -0.0142835,0.0121339 -0.0254921,0.0284134 -0.0334803,0.0488346l0 0.234043c0.00798819,0.0198071 0.0193504,0.0351654 0.0336339,0.0460709 0.0144331,0.0109016 0.0319409,0.0164291 0.0526732,0.0164291 0.0320945,0 0.055437,-0.0127441 0.0700276,-0.0382362 0.014437,-0.0254921 0.0218071,-0.0600472 0.0218071,-0.103508l0 -0.066189zm0.538567 0.066189c0,0.0645 -0.0139764,0.115945 -0.0419252,0.154492 -0.0279488,0.0385472 -0.0671102,0.0578937 -0.117941,0.0578937 -0.0254921,0 -0.0477598,-0.0056811 -0.0668031,-0.0168898 -0.0190433,-0.0112126 -0.0350118,-0.0277992 -0.0479134,-0.0497559l-0.00675591 0.057126 -0.0790906 0 0 -0.701811 0.091374 0 0 0.266287c0.0125945,-0.0195039 0.0277953,-0.0345512 0.0457638,-0.0448425 0.018122,-0.0102874 0.0388543,-0.0155118 0.0626575,-0.0155118 0.0512913,0 0.0907598,0.0205787 0.118709,0.0618898 0.0279488,0.041311 0.0419252,0.0962874 0.0419252,0.164933l0 0.066189zm-0.0909134 -0.066189c0,-0.0468386 -0.00752362,-0.0844606 -0.0222677,-0.113028 -0.0148976,-0.0284094 -0.0383937,-0.042689 -0.0704882,-0.042689 -0.0204252,0 -0.037626,0.00614173 -0.0519055,0.0182717 -0.0142835,0.0121339 -0.0254921,0.0284134 -0.0334803,0.0488346l0 0.234043c0.00798819,0.0198071 0.0193504,0.0351654 0.0336339,0.0460709 0.0144331,0.0109016 0.0319409,0.0164291 0.0526732,0.0164291 0.0320945,0 0.055437,-0.0127441 0.0700276,-0.0382362 0.014437,-0.0254921 0.0218071,-0.0600472 0.0218071,-0.103508l0 -0.066189zm0.353976 0.278575c-0.0578976,0 -0.104122,-0.0201142 -0.13898,-0.0603504 -0.0347087,-0.0400827 -0.0522126,-0.0916811 -0.0522126,-0.154339l0 -0.0711024c0,-0.0635787 0.0170433,-0.116098 0.0511378,-0.157563 0.033937,-0.041311 0.0772441,-0.0620433 0.129764,-0.0620433 0.0551339,0 0.0976732,0.0188898 0.127311,0.0565157 0.0296378,0.037626 0.0445354,0.0883031 0.0445354,0.151882l0 0.0629606 -0.261835 0 0 0.0193504c0,0.0420787 0.0092126,0.0767835 0.0276417,0.104276 0.0184291,0.0274882 0.044689,0.0411535 0.0784724,0.0411535 0.0253386,0 0.0468386,-0.00399213 0.0648071,-0.0119764 0.018122,-0.00783071 0.0351654,-0.0195039 0.0512913,-0.0348622l0.0288701 0.0566693c-0.0153543,0.0175079 -0.0359331,0.0316339 -0.0617323,0.0428465 -0.0257992,0.0110551 -0.0554409,0.0165827 -0.0890709,0.0165827zm-0.0102913 -0.435213c-0.0264134,0 -0.0476063,0.0128976 -0.0634213,0.0385433 -0.0159724,0.0256457 -0.0247244,0.0580512 -0.0265669,0.0973622l0.171382 0 0 -0.0184252c0,-0.0345551 -0.00690945,-0.0626575 -0.0207323,-0.0846181 -0.0136693,-0.0219606 -0.033937,-0.0328622 -0.0606614,-0.0328622zm0.462551 0.015815l-0.042689 -0.00230315c-0.0188898,0 -0.0345551,0.0056811 -0.0469961,0.0170472 -0.012437,0.0115157 -0.0219567,0.0274882 -0.028563,0.0482205l0 0.346913 -0.091374 0 0 -0.486815 0.0832362 0 0.00675591 0.073252c0.0101378,-0.0257992 0.0234961,-0.0459173 0.0400827,-0.0605079 0.0164331,-0.0145866 0.0354724,-0.0218071 0.057126,-0.0218071 0.00599213,0 0.0121339,0.00046063 0.0184291,0.00153937 0.00629528,0.0010748 0.0112126,0.00230315 0.0147441,0.00383858l-0.010752 0.080622zm0.176299 0.409878l-0.0918346 0 0 -0.091374 0.0918346 0 0 0.091374zm0.291476 -0.0597402c0.0228819,0 0.0420748,-0.00875197 0.0575866,-0.0264134 0.0156654,-0.0175079 0.0234961,-0.0410039 0.0234961,-0.0703346l0.0818543 0 0.00092126 0.00261024c0.00122835,0.0459173 -0.0142835,0.0846181 -0.0465315,0.116098 -0.032252,0.0314843 -0.0714094,0.0472992 -0.117327,0.0472992 -0.0605079,0 -0.106886,-0.0205748 -0.139134,-0.0615787 -0.032252,-0.0411575 -0.048378,-0.0935236 -0.048378,-0.157102l0 -0.0671102c0,-0.0635787 0.016126,-0.116098 0.048378,-0.157563 0.032248,-0.041311 0.0784724,-0.0620433 0.138673,-0.0620433 0.0492953,0 0.0892205,0.0164331 0.119937,0.0492992 0.0307126,0.0328622 0.0457638,0.0754016 0.0448425,0.127614l-0.00138189 0.00261024 -0.0818543 0c0,-0.0324016 -0.00752362,-0.0586614 -0.0222677,-0.0789331 -0.0148937,-0.0202717 -0.0345512,-0.0304055 -0.0592756,-0.0304055 -0.0347087,0 -0.0594331,0.014126 -0.0738701,0.0423819 -0.0145866,0.0281063 -0.0219606,0.0638858 -0.0219606,0.107039l0 0.0671102c0,0.0437677 0.00737402,0.0797008 0.0219606,0.1075 0.014437,0.0279488 0.039315,0.0419213 0.0743307,0.0419213zm0.22728 -0.214228c0,-0.0645 0.0168937,-0.117634 0.0505276,-0.159406 0.0337835,-0.0416181 0.0800079,-0.0625039 0.138827,-0.0625039 0.0585079,0 0.104732,0.0207323 0.13852,0.0623504 0.033937,0.0414646 0.0508307,0.094752 0.0508307,0.159559l0 0.0620433c0,0.0651142 -0.0167402,0.118248 -0.0505236,0.159559 -0.0337874,0.041311 -0.0798583,0.0618858 -0.138366,0.0618858 -0.059126,0 -0.105504,-0.0205748 -0.139287,-0.0618858 -0.0336339,-0.041311 -0.0505276,-0.0944449 -0.0505276,-0.159559l0 -0.0620433zm0.0912205 0.0620433c0,0.0443819 0.00814173,0.0809291 0.0244213,0.109496 0.016122,0.0284094 0.0408465,0.042689 0.0741732,0.042689 0.0324016,0 0.0568189,-0.0142795 0.0730984,-0.042689 0.0164331,-0.0285669 0.0245709,-0.0651142 0.0245709,-0.109496l0 -0.0620433c0,-0.0439213 -0.0081378,-0.0800079 -0.0245709,-0.108728 -0.0162795,-0.0287165 -0.0408504,-0.0429961 -0.0735591,-0.0429961 -0.0330197,0 -0.0575906,0.0142795 -0.0737126,0.042689 -0.0162795,0.0285669 -0.0244213,0.0649606 -0.0244213,0.109035l0 0.0620433zm0.457638 -0.27489l0.00491339 0.0660354c0.0132087,-0.0239567 0.0299449,-0.0425394 0.0503701,-0.0555945 0.0204252,-0.0130512 0.0442283,-0.0195039 0.071563,-0.0195039 0.0267244,0 0.0496063,0.00737402 0.0687992,0.0222677 0.0191969,0.0148976 0.0337874,0.0374724 0.0436142,0.0677244 0.0125945,-0.0282559 0.0294882,-0.0502165 0.0505236,-0.066185 0.0208858,-0.0158189 0.0457638,-0.0238071 0.0746378,-0.0238071 0.0413071,0 0.0740197,0.0170472 0.0978228,0.0511417 0.0238031,0.033937 0.0357835,0.0858425 0.0357835,0.155409l0 0.289327 -0.091374 0 0 -0.289787c0,-0.0497559 -0.00614567,-0.0847677 -0.0184291,-0.104886 -0.0122874,-0.0201181 -0.0304094,-0.0300984 -0.0543661,-0.0300984 -0.0207323,0 -0.0380827,0.00783071 -0.0520591,0.0236496 -0.0139724,0.0156614 -0.0239567,0.0367008 -0.030252,0.0628071 -0.000307087,-0.00245669 -0.000153543,0.00138189 0.000307087,0.0113661 0.000614173,0.0101339 0.00092126,0.0173543 0.00092126,0.0218071l0 0.305142 -0.0907598 0 0 -0.289787c0,-0.0482205 -0.00629528,-0.0829252 -0.0190433,-0.103657 -0.0125906,-0.0208858 -0.0308661,-0.0313268 -0.0548228,-0.0313268 -0.0191969,0 -0.0354764,0.00537402 -0.0489882,0.0159685 -0.0135157,0.0105984 -0.0241102,0.0254921 -0.0314843,0.0443819l0 0.364421 -0.0909134 0 0 -0.486815 0.0832362 0z"/>
   <path id="_93928512" class="fil4" d="M2.664 1.61696l0 -0.340433 0.0450984 0 0 0.139819 0.176913 0 0 -0.139819 0.0451024 0 0 0.340433 -0.0451024 0 0 -0.160429 -0.176913 0 0 0.160429 -0.0450984 0zm0.321169 -0.123331c0,-0.0456575 0.012685,-0.0795 0.038126,-0.101457 0.0211654,-0.0182323 0.0470039,-0.0274252 0.0775197,-0.0274252 0.0339252,0 0.0616654,0.0110945 0.0831457,0.0333701 0.0215591,0.0221929 0.0322598,0.0528661 0.0322598,0.0920236 0,0.0317835 -0.00475591,0.056752 -0.0142677,0.0749016 -0.00951181,0.0182323 -0.0233819,0.0323386 -0.0415315,0.0424055 -0.0182323,0.0100669 -0.0380472,0.0150591 -0.0596063,0.0150591 -0.0344803,0 -0.062378,-0.0110157 -0.0837008,-0.0332087 -0.0213228,-0.0221142 -0.0319449,-0.0539803 -0.0319449,-0.0956693zm0.0429606 0c0,0.031626 0.00689764,0.0552441 0.020689,0.070937 0.0137913,0.0157756 0.0311496,0.023622 0.0519961,0.023622 0.0207677,0 0.0380472,-0.0079252 0.0518386,-0.0237008 0.0137126,-0.0157717 0.0206063,-0.0398701 0.0206063,-0.0722087 0,-0.0305157 -0.0068937,-0.0536614 -0.0207677,-0.0693543 -0.0138701,-0.0156929 -0.0310709,-0.0235394 -0.0516772,-0.0235394 -0.0208465,0 -0.0382047,0.00784646 -0.0519961,0.0234606 -0.0137913,0.0156142 -0.020689,0.0392362 -0.020689,0.0707835zm0.220433 0.0496969l0.0412953 -0.0065c0.00229921,0.0165669 0.00879528,0.029248 0.0194173,0.038126 0.0105433,0.00879528 0.0253661,0.0132362 0.0444685,0.0132362 0.0191811,0 0.0334488,-0.00396457 0.0427205,-0.0117323 0.00927559,-0.00784646 0.0139488,-0.0170394 0.0139488,-0.0275039 0,-0.00951181 -0.00411811,-0.0168819 -0.0123622,-0.0223504 -0.00570866,-0.00372441 -0.0199764,-0.00840157 -0.0427244,-0.0141102 -0.0305945,-0.00776772 -0.0519173,-0.0144252 -0.0637244,-0.0201339 -0.011811,-0.00562598 -0.0208465,-0.0134724 -0.0269528,-0.0234606 -0.00610236,-0.00998819 -0.00919291,-0.0210039 -0.00919291,-0.0330512 0,-0.0110197 0.00253543,-0.0211654 0.00761024,-0.0305157 0.00499213,-0.00943307 0.0118898,-0.0172008 0.0205276,-0.0233819 0.0065,-0.00475591 0.015378,-0.00887795 0.0265551,-0.0122087 0.011252,-0.00332677 0.0233031,-0.00499213 0.0361417,-0.00499213 0.0193386,0 0.0363031,0.00285433 0.0509646,0.00840157 0.0146654,0.00554724 0.0254449,0.0130787 0.0324213,0.0225906 0.00697244,0.00959055 0.0117283,0.0222717 0.0143465,0.0382047l-0.0408228 0.00562598c-0.00190157,-0.0126811 -0.00729134,-0.0225906 -0.0161693,-0.0297244 -0.00887795,-0.00713386 -0.0214803,-0.0107008 -0.0377283,-0.0107008 -0.0191811,0 -0.0328937,0.00317323 -0.0410591,0.00951181 -0.00824016,0.00634252 -0.0123622,0.0137913 -0.0123622,0.0222756 0,0.0054685 0.00174409,0.0103031 0.00514961,0.0146614 0.00340945,0.00451969 0.00872047,0.00816535 0.0160118,0.0111772 0.00420079,0.00150394 0.0164882,0.00507087 0.036937,0.010622 0.029563,0.0079252 0.0501732,0.0143465 0.0618228,0.0194173 0.0117323,0.00499606 0.0209252,0.0123661 0.0275866,0.0219567 0.00665748,0.00959055 0.00998425,0.0214803 0.00998425,0.035748 0,0.0139488 -0.00412205,0.0270276 -0.0122047,0.0393937 -0.00816535,0.0122835 -0.0198937,0.0217953 -0.0351929,0.0285315 -0.0152992,0.00674016 -0.0326575,0.0100669 -0.0519961,0.0100669 -0.0321024,0 -0.0565157,-0.00665748 -0.0733189,-0.0199724 -0.0168031,-0.013315 -0.0275039,-0.0330512 -0.0320984,-0.0592087zm0.254512 0.168114l0 -0.341067 0.0380433 0 0 0.0320236c0.00895669,-0.0125236 0.0191024,-0.0219567 0.030437,-0.0282165 0.0112559,-0.00626378 0.0249685,-0.00943307 0.0410591,-0.00943307 0.0210827,0 0.0396299,0.0054685 0.0557205,0.016248 0.0161693,0.0108583 0.0282992,0.0261575 0.0364606,0.0458937 0.00824409,0.0197362 0.0123661,0.041374 0.0123661,0.0649173 0,0.0252047 -0.00451969,0.0479528 -0.0136339,0.0681654 -0.00903543,0.0202087 -0.0221929,0.0356654 -0.0394724,0.0464449 -0.0172795,0.0107008 -0.0354291,0.0160906 -0.0544528,0.0160906 -0.0139528,0 -0.0263937,-0.00293307 -0.0374921,-0.00879528 -0.0110945,-0.00586614 -0.0201339,-0.0133189 -0.0272677,-0.0222756l0 0.120004 -0.0417677 0zm0.0378071 -0.216386c0,0.0317047 0.00642126,0.0551654 0.0192598,0.0703858 0.0128425,0.0151378 0.0284567,0.022748 0.046685,0.022748 0.0185472,0 0.0344803,-0.00784646 0.0477165,-0.023622 0.0132362,-0.0156929 0.0198937,-0.0400276 0.0198937,-0.073 0,-0.0314685 -0.0065,-0.0549291 -0.0194173,-0.070622 -0.0129213,-0.0156142 -0.028378,-0.0234606 -0.0462913,-0.0234606 -0.0178307,0 -0.0336063,0.00832283 -0.0473189,0.0249646 -0.0137126,0.0166457 -0.0205276,0.0409016 -0.0205276,0.0726063zm0.22685 -0.170413l0 -0.0481142 0.0418504 0 0 0.0481142 -0.0418504 0zm0 0.292319l0 -0.246587 0.0418504 0 0 0.246587 -0.0418504 0zm0.196728 -0.0374134l0.00602362 0.036937c-0.0117283,0.00245669 -0.0222717,0.00372441 -0.0315433,0.00372441 -0.0152205,0 -0.0269528,-0.00237795 -0.0353543,-0.0072126 -0.00832283,-0.00475591 -0.014185,-0.0110945 -0.0175945,-0.0189409 -0.00340945,-0.00776772 -0.00515354,-0.0242559 -0.00515354,-0.0493031l0 -0.141878 -0.0306732 0 0 -0.0325 0.0306732 0 0 -0.0611102 0.0416142 -0.0250472 0 0.0861575 0.0420079 0 0 0.0325 -0.0420079 0 0 0.144177c0,0.0119685 0.000712598,0.0195787 0.00214173,0.0229843 0.00150394,0.00340945 0.00388189,0.0061063 0.0072126,0.00816535 0.00332677,0.00198031 0.00808268,0.00301181 0.0142638,0.00301181 0.00467717,0 0.0107835,-0.000555118 0.0183898,-0.00166535zm0.201803 0.00697638c-0.0155354,0.0131575 -0.030437,0.0224331 -0.0447047,0.0279016 -0.0143465,0.00538976 -0.0297244,0.00808268 -0.0461299,0.00808268 -0.0271102,0 -0.047874,-0.00657874 -0.0624606,-0.019815 -0.0145039,-0.0132362 -0.0217953,-0.0301969 -0.0217953,-0.0507283 0,-0.012126 0.00269291,-0.0231457 0.00824409,-0.0331299 0.0054685,-0.00998819 0.0126811,-0.0179921 0.0215591,-0.0240157 0.00895669,-0.00602756 0.0189409,-0.010622 0.0301181,-0.0137126 0.00816535,-0.00214173 0.0205276,-0.00428346 0.0370945,-0.00626378 0.0337677,-0.00404331 0.0586535,-0.00879921 0.0745866,-0.0144252 0.00015748,-0.00570866 0.00023622,-0.00935433 0.00023622,-0.0108583 0,-0.0170433 -0.00396063,-0.0290906 -0.0118858,-0.0359843 -0.010622,-0.00951181 -0.0265551,-0.014189 -0.0475591,-0.014189 -0.0196575,0 -0.0341614,0.00340945 -0.0435945,0.0103031 -0.00935433,0.00689764 -0.016248,0.0191024 -0.0207677,0.0366181l-0.0408189 -0.00562598c0.00372441,-0.017437 0.00982677,-0.031626 0.018311,-0.0423268 0.00848031,-0.0107795 0.0208425,-0.0191024 0.0369331,-0.0248898 0.0160906,-0.00578346 0.0347165,-0.00871654 0.0559606,-0.00871654 0.0210827,0 0.038126,0.00253543 0.0512835,0.00744882 0.0131575,0.00499606 0.0228268,0.0111772 0.0290906,0.0187087 0.0061811,0.00752756 0.0104606,0.0169606 0.0129961,0.0284528 0.00135039,0.00713386 0.00206299,0.0199764 0.00206299,0.0385236l0 0.0557205c0,0.0389173 0.000870079,0.0634882 0.00269291,0.0737126 0.00174409,0.0103071 0.00531102,0.0202126 0.0105433,0.0296457l-0.0436732 0c-0.00427953,-0.0086378 -0.00713386,-0.0187835 -0.00832283,-0.030437zm-0.00348819 -0.0933701c-0.0152165,0.00625984 -0.0379685,0.0114921 -0.0682441,0.0158504 -0.0172008,0.00245669 -0.0294055,0.00523228 -0.0364606,0.00832283 -0.00713386,0.00309055 -0.0126811,0.00761024 -0.0164882,0.0136339 -0.00388189,0.00594488 -0.00586614,0.0125236 -0.00586614,0.019815 0,0.0111772 0.00428346,0.0204488 0.012685,0.0279016 0.00840157,0.00737008 0.0207638,0.0110945 0.0370157,0.0110945 0.0160866,0 0.0304331,-0.00348425 0.0429567,-0.0105394 0.0125236,-0.00705512 0.0217992,-0.0167244 0.0276654,-0.0289331 0.00451575,-0.00942913 0.00673622,-0.0233819 0.00673622,-0.0417677l0 -0.015378zm0.106134 0.123807l0 -0.340433 0.0417717 0 0 0.340433 -0.0417717 0zm0.106768 -0.292319l0 -0.0481142 0.0418504 0 0 0.0481142 -0.0418504 0zm0 0.292319l0 -0.246587 0.0418504 0 0 0.246587 -0.0418504 0zm0.196728 -0.0374134l0.00602362 0.036937c-0.0117283,0.00245669 -0.0222717,0.00372441 -0.0315433,0.00372441 -0.0152205,0 -0.0269528,-0.00237795 -0.0353543,-0.0072126 -0.00832283,-0.00475591 -0.014185,-0.0110945 -0.0175945,-0.0189409 -0.00340945,-0.00776772 -0.00515354,-0.0242559 -0.00515354,-0.0493031l0 -0.141878 -0.0306732 0 0 -0.0325 0.0306732 0 0 -0.0611102 0.0416142 -0.0250472 0 0.0861575 0.0420079 0 0 0.0325 -0.0420079 0 0 0.144177c0,0.0119685 0.000712598,0.0195787 0.00214173,0.0229843 0.00150394,0.00340945 0.00388189,0.0061063 0.0072126,0.00816535 0.00332677,0.00198031 0.00808268,0.00301181 0.0142638,0.00301181 0.00467717,0 0.0107835,-0.000555118 0.0183898,-0.00166535zm0.0389961 0.13237l-0.00467323 -0.0392362c0.00919291,0.00245669 0.0171181,0.00372835 0.023937,0.00372835 0.00927165,0 0.0167244,-0.00158661 0.0222717,-0.00467717 0.00562598,-0.00309449 0.0101457,-0.00737402 0.0137126,-0.013 0.00269291,-0.00412205 0.0068937,-0.0145039 0.0127598,-0.0310709 0.000795276,-0.00237795 0.00206299,-0.00570866 0.00372441,-0.0102244l-0.0935276 -0.247063 0.0450197 0 0.0513622 0.142752c0.00657874,0.0181535 0.0126024,0.0371732 0.0178346,0.0571496 0.00483465,-0.0191811 0.0105433,-0.0378898 0.0172008,-0.0561969l0.0527087 -0.143705 0.0417717 0 -0.0937677 0.250787c-0.0100669,0.0271063 -0.0179134,0.0457362 -0.0234606,0.0559606 -0.00745276,0.0137913 -0.0159331,0.0238583 -0.0255236,0.0302756 -0.00966929,0.00642126 -0.0210827,0.00967323 -0.0344016,0.00967323 -0.00808268,0 -0.0170394,-0.00174409 -0.0269488,-0.00515354zm0.354146 -0.191579l0.0406614 -0.00554724c0.0010315,0.026 0.00594488,0.0438307 0.0145827,0.0534213 0.00872047,0.00959055 0.020689,0.0143465 0.0359882,0.0143465 0.0113346,0 0.0210827,-0.00253543 0.029248,-0.00776772 0.00824016,-0.00514961 0.0138701,-0.0122047 0.0169606,-0.0210827 0.00309055,-0.00895669 0.00467717,-0.0231457 0.00467717,-0.0426417l0 -0.234539 0.0450197 0 0 0.232004c0,0.0284528 -0.00340945,0.0505669 -0.0103031,0.0661811 -0.00689764,0.0156142 -0.0178346,0.0275039 -0.0327362,0.035748 -0.0149803,0.00816535 -0.0324961,0.0122874 -0.0526299,0.0122874 -0.0298819,0 -0.0527087,-0.00856299 -0.0686417,-0.0257598 -0.0158504,-0.0172008 -0.0234606,-0.0427244 -0.0228268,-0.0766496zm0.239846 -0.0267087c0,-0.0456575 0.012685,-0.0795 0.038126,-0.101457 0.0211654,-0.0182323 0.0470039,-0.0274252 0.0775197,-0.0274252 0.0339252,0 0.0616654,0.0110945 0.0831457,0.0333701 0.0215591,0.0221929 0.0322598,0.0528661 0.0322598,0.0920236 0,0.0317835 -0.00475591,0.056752 -0.0142677,0.0749016 -0.00951181,0.0182323 -0.0233819,0.0323386 -0.0415315,0.0424055 -0.0182323,0.0100669 -0.0380472,0.0150591 -0.0596063,0.0150591 -0.0344803,0 -0.062378,-0.0110157 -0.0837008,-0.0332087 -0.0213228,-0.0221142 -0.0319449,-0.0539803 -0.0319449,-0.0956693zm0.0429606 0c0,0.031626 0.00689764,0.0552441 0.020689,0.070937 0.0137913,0.0157756 0.0311496,0.023622 0.0519961,0.023622 0.0207677,0 0.0380472,-0.0079252 0.0518386,-0.0237008 0.0137126,-0.0157717 0.0206063,-0.0398701 0.0206063,-0.0722087 0,-0.0305157 -0.0068937,-0.0536614 -0.0207677,-0.0693543 -0.0138701,-0.0156929 -0.0310709,-0.0235394 -0.0516772,-0.0235394 -0.0208465,0 -0.0382047,0.00784646 -0.0519961,0.0234606 -0.0137913,0.0156142 -0.020689,0.0392362 -0.020689,0.0707835zm0.275677 0.123331l-0.0387598 0 0 -0.340433 0.0417717 0 0 0.121429c0.0176772,-0.0221142 0.040185,-0.0332087 0.0675315,-0.0332087 0.0152205,0 0.0295669,0.00309055 0.0431181,0.00919291 0.0135551,0.00610236 0.0246535,0.0147441 0.0334488,0.0257598 0.00872047,0.0110984 0.0156142,0.0244134 0.0205315,0.0401063 0.00499213,0.0156181 0.00744882,0.0323425 0.00744882,0.0500945 0,0.0423268 -0.0104606,0.0749843 -0.0313858,0.0980472 -0.0208465,0.0230669 -0.0459724,0.0345591 -0.0752205,0.0345591 -0.0290906,0 -0.0519173,-0.012126 -0.0684843,-0.0364606l0 0.0309134zm-0.000476378 -0.125154c0,0.029563 0.00404331,0.0508858 0.0120472,0.0640433 0.0131575,0.0215591 0.0309921,0.0323386 0.0534252,0.0323386 0.0183071,0 0.0340827,-0.0079252 0.0473976,-0.0238583 0.013315,-0.0158543 0.0199764,-0.0394724 0.0199764,-0.0709409 0,-0.0321811 -0.00642126,-0.0559567 -0.019185,-0.0712559 -0.0127598,-0.0152992 -0.0282165,-0.0229882 -0.0462874,-0.0229882 -0.018311,0 -0.0340827,0.00792913 -0.0473976,0.0237795 -0.0133189,0.0158543 -0.0199764,0.0388386 -0.0199764,0.0688819zm0.363894 0.125154l0 -0.340433 0.128406 0c0.0225906,0 0.0398701,0.00111024 0.0517598,0.00325197 0.0167244,0.00277165 0.030752,0.00808268 0.0420866,0.0159291 0.0112559,0.00776772 0.020374,0.0187874 0.0272677,0.032815 0.00689764,0.0141102 0.0103031,0.0295669 0.0103031,0.0464488 0,0.0289291 -0.00919291,0.0535039 -0.0275827,0.0735551 -0.0184685,0.0199764 -0.0517559,0.0300394 -0.0998701,0.0300394l-0.0873465 0 0 0.138394 -0.0450236 0zm0.0450236 -0.178579l0.0880591 0c0.0290906,0 0.0497756,-0.00538976 0.0619843,-0.016248 0.0122047,-0.0108583 0.018311,-0.0260787 0.018311,-0.0457362 0,-0.0142677 -0.00356693,-0.0264724 -0.0107795,-0.0366181 -0.00721654,-0.0101457 -0.0166457,-0.0168031 -0.0284567,-0.0200551 -0.00761024,-0.00198031 -0.0215591,-0.00301181 -0.0420079,-0.00301181l-0.0871102 0 0 0.121669zm0.25126 0.055248c0,-0.0456575 0.012685,-0.0795 0.038126,-0.101457 0.0211654,-0.0182323 0.0470039,-0.0274252 0.0775197,-0.0274252 0.0339252,0 0.0616654,0.0110945 0.0831457,0.0333701 0.0215591,0.0221929 0.0322598,0.0528661 0.0322598,0.0920236 0,0.0317835 -0.00475591,0.056752 -0.0142677,0.0749016 -0.00951181,0.0182323 -0.0233819,0.0323386 -0.0415315,0.0424055 -0.0182323,0.0100669 -0.0380472,0.0150591 -0.0596063,0.0150591 -0.0344803,0 -0.062378,-0.0110157 -0.0837008,-0.0332087 -0.0213228,-0.0221142 -0.0319449,-0.0539803 -0.0319449,-0.0956693zm0.0429606 0c0,0.031626 0.00689764,0.0552441 0.020689,0.070937 0.0137913,0.0157756 0.0311496,0.023622 0.0519961,0.023622 0.0207677,0 0.0380472,-0.0079252 0.0518386,-0.0237008 0.0137126,-0.0157717 0.0206063,-0.0398701 0.0206063,-0.0722087 0,-0.0305157 -0.0068937,-0.0536614 -0.0207677,-0.0693543 -0.0138701,-0.0156929 -0.0310709,-0.0235394 -0.0516772,-0.0235394 -0.0208465,0 -0.0382047,0.00784646 -0.0519961,0.0234606 -0.0137913,0.0156142 -0.020689,0.0392362 -0.020689,0.0707835zm0.236681 0.123331l0 -0.246587 0.0375709 0 0 0.0373346c0.00959055,-0.017437 0.0184685,-0.0290118 0.0266299,-0.0345591 0.00808661,-0.00554724 0.0170433,-0.00840157 0.0267913,-0.00840157 0.0141102,0 0.028378,0.00451575 0.0429606,0.0134724l-0.0144252 0.0388386c-0.0101457,-0.00610236 -0.0203701,-0.00911417 -0.0305945,-0.00911417 -0.00919685,0 -0.0173583,0.00277559 -0.0246535,0.00824409 -0.00729134,0.00554724 -0.0124409,0.0131575 -0.0155354,0.0229055 -0.00467323,0.0148228 -0.00697244,0.0310709 -0.00697244,0.048748l0 0.129118 -0.0417717 0zm0.250071 -0.0374134l0.00602362 0.036937c-0.0117283,0.00245669 -0.0222717,0.00372441 -0.0315433,0.00372441 -0.0152205,0 -0.0269528,-0.00237795 -0.0353543,-0.0072126 -0.00832283,-0.00475591 -0.014185,-0.0110945 -0.0175945,-0.0189409 -0.00340945,-0.00776772 -0.00515354,-0.0242559 -0.00515354,-0.0493031l0 -0.141878 -0.0306732 0 0 -0.0325 0.0306732 0 0 -0.0611102 0.0416142 -0.0250472 0 0.0861575 0.0420079 0 0 0.0325 -0.0420079 0 0 0.144177c0,0.0119685 0.000712598,0.0195787 0.00214173,0.0229843 0.00150394,0.00340945 0.00388189,0.0061063 0.0072126,0.00816535 0.00332677,0.00198031 0.00808268,0.00301181 0.0142638,0.00301181 0.00467717,0 0.0107835,-0.000555118 0.0183898,-0.00166535zm0.201803 0.00697638c-0.0155354,0.0131575 -0.030437,0.0224331 -0.0447047,0.0279016 -0.0143465,0.00538976 -0.0297244,0.00808268 -0.0461299,0.00808268 -0.0271102,0 -0.047874,-0.00657874 -0.0624606,-0.019815 -0.0145039,-0.0132362 -0.0217953,-0.0301969 -0.0217953,-0.0507283 0,-0.012126 0.00269291,-0.0231457 0.00824409,-0.0331299 0.0054685,-0.00998819 0.0126811,-0.0179921 0.0215591,-0.0240157 0.00895669,-0.00602756 0.0189409,-0.010622 0.0301181,-0.0137126 0.00816535,-0.00214173 0.0205276,-0.00428346 0.0370945,-0.00626378 0.0337677,-0.00404331 0.0586535,-0.00879921 0.0745866,-0.0144252 0.00015748,-0.00570866 0.00023622,-0.00935433 0.00023622,-0.0108583 0,-0.0170433 -0.00396063,-0.0290906 -0.0118858,-0.0359843 -0.010622,-0.00951181 -0.0265551,-0.014189 -0.0475591,-0.014189 -0.0196575,0 -0.0341614,0.00340945 -0.0435945,0.0103031 -0.00935433,0.00689764 -0.016248,0.0191024 -0.0207677,0.0366181l-0.0408189 -0.00562598c0.00372441,-0.017437 0.00982677,-0.031626 0.018311,-0.0423268 0.00848031,-0.0107795 0.0208425,-0.0191024 0.0369331,-0.0248898 0.0160906,-0.00578346 0.0347165,-0.00871654 0.0559606,-0.00871654 0.0210827,0 0.038126,0.00253543 0.0512835,0.00744882 0.0131575,0.00499606 0.0228268,0.0111772 0.0290906,0.0187087 0.0061811,0.00752756 0.0104606,0.0169606 0.0129961,0.0284528 0.00135039,0.00713386 0.00206299,0.0199764 0.00206299,0.0385236l0 0.0557205c0,0.0389173 0.000870079,0.0634882 0.00269291,0.0737126 0.00174409,0.0103071 0.00531102,0.0202126 0.0105433,0.0296457l-0.0436732 0c-0.00427953,-0.0086378 -0.00713386,-0.0187835 -0.00832283,-0.030437zm-0.00348819 -0.0933701c-0.0152165,0.00625984 -0.0379685,0.0114921 -0.0682441,0.0158504 -0.0172008,0.00245669 -0.0294055,0.00523228 -0.0364606,0.00832283 -0.00713386,0.00309055 -0.0126811,0.00761024 -0.0164882,0.0136339 -0.00388189,0.00594488 -0.00586614,0.0125236 -0.00586614,0.019815 0,0.0111772 0.00428346,0.0204488 0.012685,0.0279016 0.00840157,0.00737008 0.0207638,0.0110945 0.0370157,0.0110945 0.0160866,0 0.0304331,-0.00348425 0.0429567,-0.0105394 0.0125236,-0.00705512 0.0217992,-0.0167244 0.0276654,-0.0289331 0.00451575,-0.00942913 0.00673622,-0.0233819 0.00673622,-0.0417677l0 -0.015378zm0.106134 0.123807l0 -0.340433 0.0417717 0 0 0.340433 -0.0417717 0z"/>
   <path id="_94846952" class="fil5 str1" d="M7.98387 0.159878c0.0846535,0 0.153307,0.0686535 0.153307,0.153311 0,0.0846535 -0.0686535,0.153307 -0.153307,0.153307 -0.0846575,0 -0.153307,-0.0686535 -0.153307,-0.153307 0,-0.0846575 0.0686496,-0.153311 0.153307,-0.153311z"/>
   <path id="_103903224" class="fil4" d="M7.9164 0.404047l0 -0.179161 0.0794252 0c0.0159803,0 0.0281142,0.00163386 0.0364134,0.00484252 0.00830315,0.0032126 0.0149409,0.00888583 0.0199409,0.0170197 0.0049685,0.00817323 0.0074252,0.017185 0.0074252,0.0270276 0,0.0127283 -0.00408661,0.0234016 -0.0123465,0.032122 -0.00821654,0.00871654 -0.020937,0.0142677 -0.038126,0.0166417 0.00629921,0.00300394 0.0110551,0.0059685 0.014311,0.00892913 0.00692126,0.00634252 0.0134685,0.0143071 0.019685,0.0238189l0.0311614 0.0487598 -0.0298268 0 -0.0236929 -0.0372913c-0.0069252,-0.0107205 -0.0126378,-0.0189764 -0.0171457,-0.0246496 -0.00446063,-0.00572047 -0.00846457,-0.00972047 -0.0120118,-0.0119724 -0.00354331,-0.00229528 -0.00713386,-0.00388189 -0.0108031,-0.00479921 -0.00270866,-0.000543307 -0.00709449,-0.000830709 -0.0132205,-0.000830709l-0.0274882 0 0 0.0795433 -0.0237008 0zm0.0237008 -0.100067l0.0509724 0c0.0107992,0 0.0193071,-0.00112992 0.0254055,-0.00338189 0.00612598,-0.00224803 0.0107559,-0.00583858 0.0139291,-0.0107638 0.00316929,-0.00491732 0.00475591,-0.0102598 0.00475591,-0.0160591 0,-0.00846457 -0.00304724,-0.0154291 -0.00922047,-0.0208937 -0.00613386,-0.0054685 -0.0158504,-0.00817717 -0.0291575,-0.00817717l-0.056685 0 0 0.0592756z"/>
  </g>
 </g>
</svg>
