<?xml version="1.0" encoding="UTF-8"?>
<!DOCTYPE svg PUBLIC "-//W3C//DTD SVG 1.1//EN" "http://www.w3.org/Graphics/SVG/1.1/DTD/svg11.dtd">
<!-- Creator: CorelDRAW -->
<svg xmlns="http://www.w3.org/2000/svg" xml:space="preserve" width="5in" height="3.8in" style="shape-rendering:geometricPrecision; text-rendering:geometricPrecision; image-rendering:optimizeQuality; fill-rule:evenodd; clip-rule:evenodd"
viewBox="0 0 5 3.8"
 xmlns:xlink="http://www.w3.org/1999/xlink">
 <defs>
  <style type="text/css">
   <![CDATA[
    .str0 {stroke:#A5CFDE;stroke-width:0.0208346}
    .str1 {stroke:#1F1A17;stroke-width:0.0289449}
    .fil3 {fill:none}
    .fil2 {fill:#0093DD}
    .fil4 {fill:#1F1A17}
    .fil1 {fill:white}
    .fil0 {fill:#D2E5EA}
    .fil5 {fill:#1F1A17;fill-rule:nonzero}
    .fil6 {fill:#4D4948;fill-rule:nonzero}
    .fil8 {fill:#DA251D;fill-rule:nonzero}
    .fil7 {fill:white;fill-rule:nonzero}
   ]]>
  </style>
 </defs>
 <g id="Layer_x0020_1">
  <metadata id="CorelCorpID_0Corel-Layer"/>
  <path class="fil0 str0" d="M0.261929 0.142937l4.47614 0c0.0498898,0 0.0907087,0.0409016 0.0907087,0.0907087l0 3.33271c0,0.0498071 -0.0409016,0.0907087 -0.0907087,0.0907087l-4.47614 0c-0.0498071,0 -0.0907087,-0.0408189 -0.0907087,-0.0907087l0 -3.33271c0,-0.0498898 0.0408189,-0.0907087 0.0907087,-0.0907087z"/>
  <path class="fil1" d="M0.439303 0.933059l4.09336 0c0.021811,0 0.0396535,0.0178425 0.0396535,0.0396535l0 1.5068c0,0.021811 -0.0178425,0.0396535 -0.0396535,0.0396535l-4.09336 0c-0.021811,0 -0.0396535,-0.0178425 -0.0396535,-0.0396535l0 -1.5068c0,-0.021811 0.0178425,-0.0396535 0.0396535,-0.0396535z"/>
  <path class="fil2" d="M1.50382 2.70538l1.99236 0c0.0282717,0 0.0514016,0.0232008 0.0514016,0.0514016l0 0.439772c0,0.0282008 -0.0232008,0.0514016 -0.0514016,0.0514016l-1.99236 0c-0.0282008,0 -0.0514016,-0.0231299 -0.0514016,-0.0514016l0 -0.439772c0,-0.0282717 0.0231299,-0.0514016 0.0514016,-0.0514016z"/>
  <g id="_111347928">
   <polygon id="_111345264" class="fil3 str1" points="1.1445,0.649953 1.1445,0.515913 1.02204,0.414965 1.55821,0.30574 1.33811,0.648299 1.24048,0.58376 "/>
   <polygon id="_111348264" class="fil4" points="1.16833,0.601051 1.17164,0.509295 1.46344,0.368764 1.21132,0.52748 "/>
  </g>
  <path class="fil5" d="M1.75312 0.371043l0.0328898 0 0 0.169165c0,0.0217795 -0.00594488,0.0391142 -0.0178898,0.052 -0.0119449,0.0128346 -0.0272205,0.0192795 -0.0458898,0.0192795 -0.0201102,0 -0.036,-0.00583465 -0.0477756,-0.0175 -0.0117795,-0.0116654 -0.0174449,-0.0287795 -0.017,-0.0513898l0.000440945 -0.000944882 0.0317795 0c0,0.015 0.00288976,0.0261693 0.00866535,0.0336102 0.00583465,0.00744488 0.0137795,0.0111693 0.0238898,0.0111693 0.00888976,0 0.0162795,-0.00416929 0.0221102,-0.0125551 0.00588976,-0.00833465 0.00877953,-0.0195551 0.00877953,-0.0336693l0 -0.169165zm0.0673898 0.13789c0,-0.0233346 0.00611024,-0.0425551 0.0182756,-0.0576693 0.0122244,-0.0150551 0.0289449,-0.0226102 0.0502244,-0.0226102 0.0211654,0 0.0378898,0.0075 0.0501102,0.0225551 0.0122795,0.015 0.0183898,0.0342795 0.0183898,0.0577244l0 0.0224449c0,0.0235551 -0.00605512,0.0427756 -0.0182795,0.0577205 -0.0122205,0.0149449 -0.0288858,0.0223898 -0.0500551,0.0223898 -0.0213898,0 -0.0381654,-0.00744488 -0.0503898,-0.0223898 -0.0121654,-0.0149449 -0.0182756,-0.0341654 -0.0182756,-0.0577205l0 -0.0224449zm0.033 0.0224449c0,0.0160551 0.00294488,0.0292756 0.00883071,0.0396102 0.00583465,0.0102756 0.0147795,0.0154449 0.0268346,0.0154449 0.0117244,0 0.0205551,-0.00516929 0.0264449,-0.0154449 0.00594488,-0.0103346 0.00888976,-0.0235551 0.00888976,-0.0396102l0 -0.0224449c0,-0.0158898 -0.00294488,-0.0289449 -0.00888976,-0.0393346 -0.00588976,-0.0103898 -0.0147756,-0.0155551 -0.0266102,-0.0155551 -0.0119449,0 -0.0208346,0.00516535 -0.0266693,0.0154449 -0.00588583,0.0103307 -0.00883071,0.0235 -0.00883071,0.0394449l0 0.0224449zm0.265835 0.00327559c0,0.0233346 -0.00505512,0.0419449 -0.0151693,0.0558898 -0.0101102,0.0139449 -0.0242756,0.0209449 -0.0426654,0.0209449 -0.00922047,0 -0.0172795,-0.00205512 -0.0241654,-0.00611024 -0.00688976,-0.00405512 -0.0126693,-0.0100551 -0.0173346,-0.018l-0.00244488 0.0206654 -0.0286102 0 0 -0.25389 0.0330551 0 0 0.0963346c0.00455512,-0.00705512 0.0100551,-0.0125 0.0165551,-0.0162244 0.00655512,-0.00372047 0.0140551,-0.00561024 0.0226654,-0.00561024 0.0185591,0 0.0328346,0.00744488 0.0429449,0.0223898 0.0101142,0.0149449 0.0151693,0.0348346 0.0151693,0.0596654l0 0.0239449zm-0.0328898 -0.0239449c0,-0.0169449 -0.00272441,-0.0305551 -0.00805512,-0.0408898 -0.00538976,-0.0102756 -0.0138898,-0.0154409 -0.0255,-0.0154409 -0.00738976,0 -0.0136102,0.00222047 -0.0187795,0.00661024 -0.00516535,0.00438976 -0.00922047,0.0102756 -0.0121102,0.0176654l0 0.0846693c0.00288976,0.00716535 0.007,0.0127205 0.0121654,0.0166654 0.00522441,0.00394488 0.0115551,0.00594488 0.0190551,0.00594488 0.0116142,0 0.0200591,-0.00461024 0.0253346,-0.0138346 0.00522441,-0.00922047 0.00788976,-0.0217205 0.00788976,-0.0374449l0 -0.0239449zm0.146445 0.0532244c0,-0.00683465 -0.00222441,-0.0126142 -0.00672441,-0.0173346 -0.0045,-0.00472047 -0.013,-0.00988976 -0.0255,-0.0155551 -0.0181102,-0.00705512 -0.0315551,-0.0145551 -0.0402756,-0.0225551 -0.00872441,-0.00794488 -0.0131102,-0.0182795 -0.0131102,-0.031 0,-0.0135551 0.00538583,-0.0251102 0.0160551,-0.0346102 0.0106654,-0.00950394 0.0247205,-0.0142244 0.0420551,-0.0142244 0.0181102,0 0.0325551,0.00511024 0.0433346,0.0153898 0.0107205,0.0102756 0.0158858,0.0230551 0.0154409,0.0383346l-0.000330709 0.001 -0.0317244 0c0,-0.00838976 -0.00238583,-0.0155591 -0.00711024,-0.0215591 -0.00472047,-0.00605512 -0.0112205,-0.00905512 -0.0196102,-0.00905512 -0.00822441,0 -0.0146654,0.00233465 -0.0192795,0.007 -0.00461024,0.00466929 -0.00688976,0.0101693 -0.00688976,0.0164449 0,0.00672441 0.00194488,0.0120551 0.00594488,0.0159449 0.00394488,0.00388976 0.0125,0.009 0.0256142,0.0152795 0.0184449,0.00661024 0.0321654,0.0141654 0.0411102,0.0225551 0.00894488,0.00844488 0.0133898,0.0192205 0.0133898,0.0323346 0,0.0145551 -0.0055,0.0263858 -0.0165551,0.0355 -0.0111142,0.00911024 -0.0256142,0.0136654 -0.0436693,0.0136654 -0.0193898,0 -0.0347205,-0.0055 -0.0458898,-0.0165 -0.0111654,-0.0110551 -0.0165,-0.0239449 -0.0159449,-0.0387244l0.000334646 -0.000940945 0.0307795 0c0.000444882,0.0113858 0.00355512,0.0196102 0.00944488,0.0246654 0.00583071,0.00505512 0.0131102,0.00755512 0.0217756,0.00755512 0.00861024,0 0.0152795,-0.00222047 0.0201102,-0.00661024 0.00483465,-0.00438976 0.00722441,-0.0100551 0.00722441,-0.017zm0.165555 -0.132l0.00177559 0.026c0.00488976,-0.00922441 0.0110551,-0.0163898 0.0185551,-0.0215591 0.0075,-0.00516535 0.0159449,-0.00772047 0.0253898,-0.00772047 0.0154449,0 0.0273898,0.00572047 0.036,0.0171102 0.00855512,0.0113898 0.0128346,0.0290551 0.0128346,0.0530551l0 0.109224 -0.0330551 0 0 -0.10889c0,-0.0163898 -0.00233465,-0.0279449 -0.007,-0.0346654 -0.00466929,-0.00672441 -0.0117244,-0.0101102 -0.0211102,-0.0101102 -0.00677953,0 -0.0127244,0.00211024 -0.0179449,0.00627559 -0.00522441,0.00416535 -0.00944488,0.00983465 -0.0126693,0.017l0 0.13039 -0.0330551 0 0 -0.17611 0.0302795 0zm0.1255 0.077c0,-0.0233346 0.00611024,-0.0425551 0.0182756,-0.0576693 0.0122244,-0.0150551 0.0289449,-0.0226102 0.0502244,-0.0226102 0.0211654,0 0.0378898,0.0075 0.0501102,0.0225551 0.0122795,0.015 0.0183898,0.0342795 0.0183898,0.0577244l0 0.0224449c0,0.0235551 -0.00605512,0.0427756 -0.0182795,0.0577205 -0.0122205,0.0149449 -0.0288858,0.0223898 -0.0500551,0.0223898 -0.0213898,0 -0.0381654,-0.00744488 -0.0503898,-0.0223898 -0.0121654,-0.0149449 -0.0182756,-0.0341654 -0.0182756,-0.0577205l0 -0.0224449zm0.033 0.0224449c0,0.0160551 0.00294488,0.0292756 0.00883071,0.0396102 0.00583465,0.0102756 0.0147795,0.0154449 0.0268346,0.0154449 0.0117244,0 0.0205551,-0.00516929 0.0264449,-0.0154449 0.00594488,-0.0103346 0.00888976,-0.0235551 0.00888976,-0.0396102l0 -0.0224449c0,-0.0158898 -0.00294488,-0.0289449 -0.00888976,-0.0393346 -0.00588976,-0.0103898 -0.0147756,-0.0155551 -0.0266102,-0.0155551 -0.0119449,0 -0.0208346,0.00516535 -0.0266693,0.0154449 -0.00588583,0.0103307 -0.00883071,0.0235 -0.00883071,0.0394449l0 0.0224449zm0.17761 -0.143224l0 0.0437795 0.0275 0 0 0.0236102 -0.0275 0 0 0.104835c0,0.00911024 0.00133465,0.0156102 0.00405512,0.0194449 0.00272441,0.00383071 0.00622441,0.00577559 0.0105551,0.00577559 0.00261417,0 0.00505906,-0.000165354 0.00727953,-0.0005 0.00222047,-0.000334646 0.00483465,-0.000775591 0.00788976,-0.00144488l0.00338976 0.0227795c-0.00366929,0.0015 -0.00783465,0.00272047 -0.0124449,0.00366535 -0.00461417,0.000944882 -0.00933465,0.00138976 -0.0142244,0.00138976 -0.0125,0 -0.0221654,-0.00411024 -0.0290551,-0.0122795 -0.00688976,-0.00822047 -0.0103346,-0.0211654 -0.0103346,-0.0388307l0 -0.104835 -0.0229449 0 0 -0.0236102 0.0229449 0 0 -0.0437795 0.0328898 0zm0.144224 0.21989l0 -0.1525 -0.0227795 0 0 -0.0236102 0.0227795 0 0 -0.0226142c0,-0.0186654 0.00444488,-0.0331102 0.0134449,-0.0433307 0.00894488,-0.0101693 0.0215,-0.0152795 0.0376654,-0.0152795 0.00311024,0 0.00638976,0.000279528 0.00966929,0.000889764 0.00333071,0.000610236 0.00705512,0.00144488 0.0111654,0.00255512l-0.00327953 0.0242205c-0.00183071,-0.000555118 -0.00388583,-0.000940945 -0.00616535,-0.00127559 -0.00227953,-0.000334646 -0.00472047,-0.0005 -0.00733465,-0.0005 -0.00727559,0 -0.0127756,0.00283465 -0.0165,0.00844488 -0.00377559,0.00566535 -0.00561024,0.0137205 -0.00561024,0.0242756l0 0.0226142 0.0307244 0 0 0.0236102 -0.0307244 0 0 0.1525 -0.0330551 0zm0.0833346 -0.0991102c0,-0.0233346 0.00611024,-0.0425551 0.0182756,-0.0576693 0.0122244,-0.0150551 0.0289449,-0.0226102 0.0502244,-0.0226102 0.0211654,0 0.0378898,0.0075 0.0501102,0.0225551 0.0122795,0.015 0.0183898,0.0342795 0.0183898,0.0577244l0 0.0224449c0,0.0235551 -0.00605512,0.0427756 -0.0182795,0.0577205 -0.0122205,0.0149449 -0.0288858,0.0223898 -0.0500551,0.0223898 -0.0213898,0 -0.0381654,-0.00744488 -0.0503898,-0.0223898 -0.0121654,-0.0149449 -0.0182756,-0.0341654 -0.0182756,-0.0577205l0 -0.0224449zm0.033 0.0224449c0,0.0160551 0.00294488,0.0292756 0.00883071,0.0396102 0.00583465,0.0102756 0.0147795,0.0154449 0.0268346,0.0154449 0.0117244,0 0.0205551,-0.00516929 0.0264449,-0.0154449 0.00594488,-0.0103346 0.00888976,-0.0235551 0.00888976,-0.0396102l0 -0.0224449c0,-0.0158898 -0.00294488,-0.0289449 -0.00888976,-0.0393346 -0.00588976,-0.0103898 -0.0147756,-0.0155551 -0.0266102,-0.0155551 -0.0119449,0 -0.0208346,0.00516535 -0.0266693,0.0154449 -0.00588583,0.0103307 -0.00883071,0.0235 -0.00883071,0.0394449l0 0.0224449zm0.22839 0.0530551c-0.00466929,0.00872047 -0.0106693,0.0153898 -0.0179449,0.0200551 -0.00722441,0.00466535 -0.0156102,0.007 -0.0250551,0.007 -0.0159449,0 -0.0283346,-0.00611024 -0.0372795,-0.0183898 -0.00888976,-0.0122756 -0.0133346,-0.0313346 -0.0133346,-0.0571654l0 -0.104 0.0328898 0 0 0.104331c0,0.0180591 0.00211024,0.0308346 0.00644488,0.0383346 0.00427953,0.00755512 0.0107244,0.0113346 0.0192795,0.0113346 0.00811024,0 0.0149449,-0.00188976 0.0203898,-0.00572441 0.0055,-0.00377559 0.00988583,-0.00922047 0.0131102,-0.0162756l0 -0.132 0.0330551 0 0 0.17611 -0.0294449 0 -0.00211024 -0.0236102zm0.0989449 -0.1525l0.00177559 0.026c0.00488976,-0.00922441 0.0110551,-0.0163898 0.0185551,-0.0215591 0.0075,-0.00516535 0.0159449,-0.00772047 0.0253898,-0.00772047 0.0154449,0 0.0273898,0.00572047 0.036,0.0171102 0.00855512,0.0113898 0.0128346,0.0290551 0.0128346,0.0530551l0 0.109224 -0.0330551 0 0 -0.10889c0,-0.0163898 -0.00233465,-0.0279449 -0.007,-0.0346654 -0.00466929,-0.00672441 -0.0117244,-0.0101102 -0.0211102,-0.0101102 -0.00677953,0 -0.0127244,0.00211024 -0.0179449,0.00627559 -0.00522441,0.00416535 -0.00944488,0.00983465 -0.0126693,0.017l0 0.13039 -0.0330551 0 0 -0.17611 0.0302795 0zm0.125831 0.0901654c0,-0.0281102 0.00505906,-0.0507205 0.0151693,-0.0677795 0.0101654,-0.0171102 0.0244449,-0.0256654 0.0428898,-0.0256654 0.00827559,0 0.0156102,0.00183465 0.0220551,0.00555512 0.0065,0.00366535 0.0120551,0.009 0.0167205,0.0159449l0 -0.096 0.0328346 0 0 0.25389 -0.0287795 0 -0.00244488 -0.0201654c-0.00466535,0.00772047 -0.0103858,0.0135551 -0.0171654,0.0175551 -0.00677559,0.00405512 -0.0145551,0.00605512 -0.0233898,0.00605512 -0.0183307,0 -0.0325551,-0.00783465 -0.0427205,-0.0234449 -0.0101102,-0.0156102 -0.0151693,-0.0364449 -0.0151693,-0.0625l0 -0.00344488zm0.033 0.00344488c0,0.0185551 0.00266929,0.0332795 0.008,0.0441102 0.00533465,0.0108346 0.0137244,0.0162795 0.0252244,0.0162795 0.00716535,0 0.0132795,-0.00194488 0.0182795,-0.00588976 0.00505512,-0.00388976 0.00916535,-0.00938976 0.0123307,-0.0164449l0 -0.0856102c-0.00316535,-0.00727953 -0.00727559,-0.0130551 -0.0123307,-0.0172795 -0.005,-0.00422047 -0.011,-0.00633071 -0.0179449,-0.00633071 -0.0115,0 -0.02,0.00622047 -0.0253898,0.0187205 -0.00544488,0.0125 -0.00816929,0.0288346 -0.00816929,0.049l0 0.00344488zm0.16439 0.0161102c0.000114173,-0.0144449 0.00161417,-0.0247756 0.00455512,-0.0311102 0.00294488,-0.00627953 0.00950394,-0.0144449 0.0197244,-0.0245551 0.00766535,-0.00977953 0.0135551,-0.0185551 0.0176654,-0.0264449 0.00405512,-0.00788976 0.00605512,-0.0171102 0.00605512,-0.0277244 0,-0.0119449 -0.00244094,-0.0212756 -0.00738583,-0.0279449 -0.00494488,-0.00666535 -0.0119449,-0.01 -0.0210551,-0.01 -0.00761417,0 -0.0141142,0.00305906 -0.0195591,0.00916929 -0.00538583,0.00616535 -0.00811024,0.0146102 -0.00811024,0.0255l-0.0317756 0 -0.000279528 -0.001c-0.000334646,-0.0187795 0.00511024,-0.0334449 0.0163346,-0.044 0.0112205,-0.0106102 0.0256654,-0.0158898 0.0433898,-0.0158898 0.0191654,0 0.0342205,0.00572047 0.0451654,0.0171102 0.0108898,0.0113898 0.0163346,0.0268898 0.0163346,0.0465551 0,0.0140591 -0.00327953,0.0268898 -0.00983465,0.0383898 -0.00655512,0.0115 -0.0152795,0.0228346 -0.0261102,0.034 -0.00533465,0.00555512 -0.00866929,0.0108346 -0.01,0.0158898 -0.00138976,0.00505512 -0.00205512,0.0123898 -0.00205512,0.0220551l-0.0330591 0zm0.0337244 0.0663898l-0.0338898 0 0 -0.0322205 0.0338898 0 0 0.0322205z"/>
  <g id="_111345240">
   <path id="_110519712" class="fil5" d="M0.651319 1.21689l0 0.066189 -0.0234134 0 0 -0.167874 0.0550945 0c0.0157008,0 0.0279764,0.0046811 0.0369094,0.0140079 0.00893307,0.00932677 0.0133819,0.0216063 0.0133819,0.0368346 0,0.0153071 -0.00444882,0.0275866 -0.0133819,0.0369134 -0.00893307,0.00928346 -0.0212087,0.0139291 -0.0369094,0.0139291l-0.0316811 0zm0 -0.0179843l0.0316811 0c0.00885039,0 0.0155433,-0.00311024 0.0200669,-0.0092874 0.00452756,-0.00617717 0.00680709,-0.0139685 0.00680709,-0.0233346 0,-0.00952362 -0.00224016,-0.0174331 -0.00672835,-0.023689 -0.00452362,-0.00625984 -0.0112165,-0.00940551 -0.0201457,-0.00940551l-0.0316811 0 0 0.0657165zm0.0996024 0.0139685c0,-0.0165276 0.00432677,-0.0301417 0.0129449,-0.0408465 0.00865748,-0.0106654 0.0205039,-0.0160157 0.0355748,-0.0160157 0.0149921,0 0.0268386,0.00531102 0.0354961,0.0159764 0.00869685,0.010626 0.0130236,0.0242795 0.0130236,0.0408858l0 0.0158976c0,0.016685 -0.0042874,0.0303031 -0.0129449,0.0408898 -0.00865748,0.0105827 -0.0204646,0.0158583 -0.0354567,0.0158583 -0.0151496,0 -0.0270354,-0.00527559 -0.0356929,-0.0158583 -0.00861811,-0.0105866 -0.0129449,-0.0242047 -0.0129449,-0.0408898l0 -0.0158976zm0.023374 0.0158976c0,0.011374 0.00208661,0.0207402 0.00625591,0.0280591 0.00413386,0.00727953 0.0104685,0.0109409 0.0190079,0.0109409 0.00830315,0 0.0145591,-0.00366142 0.0187323,-0.0109409 0.00420866,-0.0073189 0.00629528,-0.016685 0.00629528,-0.0280591l0 -0.0158976c0,-0.011252 -0.00208661,-0.0205 -0.00629528,-0.0278583 -0.00417323,-0.00735827 -0.0104685,-0.0110197 -0.0188504,-0.0110197 -0.00846063,0 -0.0147559,0.00366142 -0.0188898,0.0109409 -0.00416929,0.0073189 -0.00625591,0.0166457 -0.00625591,0.027937l0 0.0158976zm0.154024 0.023063c0,-0.00484252 -0.0015748,-0.00893307 -0.00476378,-0.0122795 -0.00318898,-0.00334252 -0.00920866,-0.00700394 -0.018063,-0.0110197 -0.0128268,-0.00499606 -0.0223504,-0.0103071 -0.0285276,-0.0159764 -0.0061811,-0.00562598 -0.0092874,-0.0129449 -0.0092874,-0.0219567 0,-0.00960236 0.00381496,-0.0177874 0.0113701,-0.0245157 0.00755512,-0.00672835 0.0175118,-0.0100748 0.0297913,-0.0100748 0.0128268,0 0.0230591,0.00362205 0.0306929,0.0109016 0.00759449,0.00727953 0.0112559,0.0163307 0.0109409,0.0271535l-0.00023622 0.000704724 -0.0224685 0c0,-0.00594094 -0.00169291,-0.0110157 -0.00503937,-0.0152677 -0.00334252,-0.0042874 -0.00794882,-0.00641339 -0.0138898,-0.00641339 -0.00582283,0 -0.0103898,0.00165354 -0.0136575,0.00495669 -0.00326378,0.00330709 -0.00487795,0.00720472 -0.00487795,0.0116496 0,0.00476378 0.00137795,0.00853937 0.0042126,0.0112953 0.00279134,0.00275197 0.00885039,0.00637402 0.0181378,0.0108189 0.0130669,0.00468504 0.0227874,0.0100354 0.029122,0.0159803 0.00633465,0.00598031 0.00948425,0.0136142 0.00948425,0.0229016 0,0.010311 -0.00389764,0.0186929 -0.0117283,0.0251457 -0.00787008,0.00645276 -0.0181417,0.0096811 -0.0309291,0.0096811 -0.0137362,0 -0.0245945,-0.00389764 -0.0325039,-0.011689 -0.00790945,-0.00783071 -0.011689,-0.0169606 -0.0112953,-0.0274291l0.00023622 -0.000669291 0.0217992 0c0.000314961,0.00806693 0.00251969,0.0138937 0.00669291,0.0174724 0.00412992,0.00358268 0.0092874,0.00535433 0.0154252,0.00535433 0.00609843,0 0.0108228,-0.0015748 0.0142441,-0.00468504 0.0034252,-0.0031063 0.00511811,-0.00712205 0.00511811,-0.0120394zm0.102709 0c0,-0.00484252 -0.0015748,-0.00893307 -0.00476378,-0.0122795 -0.00318898,-0.00334252 -0.00920866,-0.00700394 -0.018063,-0.0110197 -0.0128268,-0.00499606 -0.0223504,-0.0103071 -0.0285276,-0.0159764 -0.0061811,-0.00562598 -0.0092874,-0.0129449 -0.0092874,-0.0219567 0,-0.00960236 0.00381496,-0.0177874 0.0113701,-0.0245157 0.00755512,-0.00672835 0.0175118,-0.0100748 0.0297913,-0.0100748 0.0128268,0 0.0230591,0.00362205 0.0306929,0.0109016 0.00759449,0.00727953 0.0112559,0.0163307 0.0109409,0.0271535l-0.00023622 0.000704724 -0.0224685 0c0,-0.00594094 -0.00169291,-0.0110157 -0.00503937,-0.0152677 -0.00334252,-0.0042874 -0.00794882,-0.00641339 -0.0138898,-0.00641339 -0.00582283,0 -0.0103898,0.00165354 -0.0136575,0.00495669 -0.00326378,0.00330709 -0.00487795,0.00720472 -0.00487795,0.0116496 0,0.00476378 0.00137795,0.00853937 0.0042126,0.0112953 0.00279134,0.00275197 0.00885039,0.00637402 0.0181378,0.0108189 0.0130669,0.00468504 0.0227874,0.0100354 0.029122,0.0159803 0.00633465,0.00598031 0.00948425,0.0136142 0.00948425,0.0229016 0,0.010311 -0.00389764,0.0186929 -0.0117283,0.0251457 -0.00787008,0.00645276 -0.0181417,0.0096811 -0.0309291,0.0096811 -0.0137362,0 -0.0245945,-0.00389764 -0.0325039,-0.011689 -0.00790945,-0.00783071 -0.011689,-0.0169606 -0.0112953,-0.0274291l0.00023622 -0.000669291 0.0217992 0c0.000314961,0.00806693 0.00251969,0.0138937 0.00669291,0.0174724 0.00412992,0.00358268 0.0092874,0.00535433 0.0154252,0.00535433 0.00609843,0 0.0108228,-0.0015748 0.0142441,-0.00468504 0.0034252,-0.0031063 0.00511811,-0.00712205 0.00511811,-0.0120394zm0.0695315 0.0312441l-0.0234134 0 0 -0.124744 0.0234134 0 0 0.124744zm0 -0.157484l-0.0234134 0 0 -0.0223543 0.0234134 0 0 0.0223543zm0.120732 0.1055c0,0.0165276 -0.00357874,0.0297126 -0.0107402,0.0395866 -0.00716142,0.00987795 -0.0171969,0.0148386 -0.0302244,0.0148386 -0.0065315,0 -0.0122362,-0.00145669 -0.0171181,-0.00433071 -0.00487795,-0.00287008 -0.00897244,-0.00712205 -0.0122756,-0.012748l-0.00173228 0.0146378 -0.0202677 0 0 -0.179839 0.0234173 0 0 0.0682362c0.00322441,-0.00499606 0.00712205,-0.00885433 0.0117244,-0.0114882 0.00464567,-0.0026378 0.00995669,-0.00397638 0.0160551,-0.00397638 0.0131457,0 0.0232598,0.00527165 0.0304213,0.0158583 0.00716142,0.0105866 0.0107402,0.0246732 0.0107402,0.0422638l0 0.0169606zm-0.0232953 -0.0169606c0,-0.012 -0.00192913,-0.0216417 -0.00570472,-0.0289606 -0.0038189,-0.00728346 -0.00983858,-0.0109409 -0.018063,-0.0109409 -0.00523228,0 -0.00964173,0.0015748 -0.0132992,0.0046811 -0.00366142,0.00311024 -0.00653543,0.00727953 -0.00857874,0.0125157l0 0.0599724c0.00204331,0.0050748 0.00495669,0.00901181 0.00861811,0.0118031 0.00369685,0.00279528 0.00818504,0.0042126 0.0134961,0.0042126 0.00822441,0 0.0142047,-0.00326772 0.0179449,-0.00979921 0.00369685,-0.0065315 0.00558661,-0.0153858 0.00558661,-0.0265236l0 -0.0169606zm0.0705551 0.0689449l-0.0234134 0 0 -0.124744 0.0234134 0 0 0.124744zm0 -0.157484l-0.0234134 0 0 -0.0223543 0.0234134 0 0 0.0223543zm0.0532835 0.157484l-0.0234134 0 0 -0.179839 0.0234134 0 0 0.179839zm0.0532835 0l-0.0234134 0 0 -0.124744 0.0234134 0 0 0.124744zm0 -0.157484l-0.0234134 0 0 -0.0223543 0.0234134 0 0 0.0223543zm0.0582441 0.00172835l0 0.0310118 0.0194803 0 0 0.0167244 -0.0194803 0 0 0.0742559c0,0.00645276 0.000944882,0.0110591 0.00287402,0.0137717 0.0019252,0.00271654 0.00440551,0.00409449 0.00747638,0.00409449 0.00184646,0 0.00357874,-0.00011811 0.00515354,-0.000354331 0.0015748,-0.00023622 0.0034252,-0.000551181 0.00558661,-0.00102362l0.00240157 0.0161339c-0.00259843,0.00106299 -0.00554724,0.00192913 -0.00881496,0.00259843 -0.00326378,0.000669291 -0.00661024,0.000984252 -0.0100748,0.000984252 -0.00885433,0 -0.0157008,-0.00291339 -0.0205787,-0.00869685 -0.00488189,-0.00582677 -0.0073189,-0.0149921 -0.0073189,-0.0275079l0 -0.0742559 -0.016252 0 0 -0.0167244 0.016252 0 0 -0.0310118 0.0232953 0zm0.0674449 0.155756l-0.0234134 0 0 -0.124744 0.0234134 0 0 0.124744zm0 -0.157484l-0.0234134 0 0 -0.0223543 0.0234134 0 0 0.0223543zm0.0734331 0.159925c-0.0148346,0 -0.0266811,-0.00515748 -0.0356142,-0.0154646 -0.0088937,-0.0102717 -0.013378,-0.0234961 -0.013378,-0.0395512l0 -0.0182205c0,-0.0162913 0.00436614,-0.029748 0.0131024,-0.040374 0.00869685,-0.0105866 0.0197953,-0.0158976 0.033252,-0.0158976 0.0141299,0 0.0250276,0.00483858 0.032626,0.0144803 0.00759449,0.00964173 0.0114094,0.0226299 0.0114094,0.0389213l0 0.0161339 -0.0670945 0 0 0.00495669c0,0.0107835 0.0023622,0.0196772 0.00708268,0.0267205 0.00472441,0.00704331 0.0114528,0.0105472 0.0201102,0.0105472 0.00649213,0 0.012,-0.00102362 0.0166063,-0.00307087 0.00464173,-0.00200787 0.00901181,-0.00499606 0.0131417,-0.00893307l0.00739764 0.0145236c-0.00393307,0.00448425 -0.00920472,0.0081063 -0.0158189,0.0109764 -0.00661024,0.00283465 -0.0142047,0.00425197 -0.0228228,0.00425197zm-0.0026378 -0.111524c-0.00676772,0 -0.0121969,0.00330709 -0.016252,0.00987795 -0.00409055,0.00657087 -0.00633465,0.014874 -0.00680709,0.0249488l0.0439173 0 0 -0.00472441c0,-0.00885433 -0.00177165,-0.0160551 -0.00531102,-0.0216811 -0.00350394,-0.00562598 -0.00869685,-0.00842126 -0.0155472,-0.00842126zm0.122898 0.0778386c0,-0.00484252 -0.0015748,-0.00893307 -0.00476378,-0.0122795 -0.00318898,-0.00334252 -0.00920866,-0.00700394 -0.018063,-0.0110197 -0.0128268,-0.00499606 -0.0223504,-0.0103071 -0.0285276,-0.0159764 -0.0061811,-0.00562598 -0.0092874,-0.0129449 -0.0092874,-0.0219567 0,-0.00960236 0.00381496,-0.0177874 0.0113701,-0.0245157 0.00755512,-0.00672835 0.0175118,-0.0100748 0.0297913,-0.0100748 0.0128268,0 0.0230591,0.00362205 0.0306929,0.0109016 0.00759449,0.00727953 0.0112559,0.0163307 0.0109409,0.0271535l-0.00023622 0.000704724 -0.0224685 0c0,-0.00594094 -0.00169291,-0.0110157 -0.00503937,-0.0152677 -0.00334252,-0.0042874 -0.00794882,-0.00641339 -0.0138898,-0.00641339 -0.00582283,0 -0.0103898,0.00165354 -0.0136575,0.00495669 -0.00326378,0.00330709 -0.00487795,0.00720472 -0.00487795,0.0116496 0,0.00476378 0.00137795,0.00853937 0.0042126,0.0112953 0.00279134,0.00275197 0.00885039,0.00637402 0.0181378,0.0108189 0.0130669,0.00468504 0.0227874,0.0100354 0.029122,0.0159803 0.00633465,0.00598031 0.00948425,0.0136142 0.00948425,0.0229016 0,0.010311 -0.00389764,0.0186929 -0.0117283,0.0251457 -0.00787008,0.00645276 -0.0181417,0.0096811 -0.0309291,0.0096811 -0.0137362,0 -0.0245945,-0.00389764 -0.0325039,-0.011689 -0.00790945,-0.00783071 -0.011689,-0.0169606 -0.0112953,-0.0274291l0.00023622 -0.000669291 0.0217992 0c0.000314961,0.00806693 0.00251969,0.0138937 0.00669291,0.0174724 0.00412992,0.00358268 0.0092874,0.00535433 0.0154252,0.00535433 0.00609843,0 0.0108228,-0.0015748 0.0142441,-0.00468504 0.0034252,-0.0031063 0.00511811,-0.00712205 0.00511811,-0.0120394zm0.159571 0.0312441c-0.000826772,-0.00283465 -0.00153543,-0.00562598 -0.00208661,-0.00834252 -0.000511811,-0.00275591 -0.000866142,-0.0054685 -0.00102362,-0.00826378 -0.00346063,0.00562598 -0.00779134,0.0101929 -0.0130236,0.0137323 -0.00523622,0.00354331 -0.0110197,0.00531496 -0.0173937,0.00531496 -0.0105472,0 -0.0187717,-0.00334646 -0.024752,-0.00999606 -0.00594488,-0.00664961 -0.00893307,-0.0155433 -0.00893307,-0.0266811 0,-0.0119252 0.00405118,-0.0212874 0.0121575,-0.0280984 0.0081063,-0.00680709 0.0195197,-0.010189 0.0341969,-0.010189l0.0173937 0 0 -0.0127913c0,-0.00763386 -0.00169291,-0.0135748 -0.0050748,-0.0178268 -0.00338583,-0.0042874 -0.00818504,-0.00641339 -0.0144016,-0.00641339 -0.00559055,0 -0.0101142,0.00192913 -0.0135394,0.00578346 -0.00342126,0.0038189 -0.00515354,0.00861811 -0.00515354,0.0144055l-0.0222362 -0.00011811 -0.000354331 -0.000708661c-0.000350394,-0.00960236 0.00346457,-0.0181417 0.0115315,-0.0256181 0.00806693,-0.00751575 0.0184961,-0.0112559 0.0312441,-0.0112559 0.0123189,0 0.0222756,0.00362205 0.0299094,0.0109016 0.00767323,0.00724016 0.0114921,0.0176299 0.0114921,0.0310866l0 0.0578465c0,0.00488189 0.000271654,0.00952362 0.000862205,0.0140118 0.000590551,0.00452362 0.00149606,0.00893307 0.00283465,0.0132205l-0.0236496 0zm-0.0282559 -0.0155433c0.00547244,0 0.0104291,-0.00161417 0.0149528,-0.00484252 0.00448819,-0.00322441 0.00775591,-0.00727953 0.00983858,-0.0121181l0 -0.0255 -0.017748 0c-0.00716142,0 -0.0127087,0.00228346 -0.0166457,0.00684646 -0.00397244,0.0046063 -0.00594094,0.0101929 -0.00594094,0.0168031 0,0.00562598 0.00133858,0.0101535 0.00401575,0.0136142 0.0027126,0.00346457 0.0065315,0.00519685 0.0115276,0.00519685zm0.128563 -0.0894882l-0.0109409 -0.000586614c-0.00483858,0 -0.00885433,0.00145276 -0.0120394,0.00436614 -0.00318898,0.00295276 -0.00562992,0.00704331 -0.0073189,0.0123583l0 0.0888937 -0.0234173 0 0 -0.124744 0.0213307 0 0.00173228 0.0187717c0.00259449,-0.00661417 0.00601969,-0.0117677 0.0102677,-0.0155079 0.0042126,-0.00373622 0.00909055,-0.00558661 0.0146417,-0.00558661 0.00153543,0 0.0031063,0.00011811 0.00472047,0.000393701 0.00161417,0.000275591 0.00287402,0.000590551 0.00377953,0.000984252l-0.00275591 0.0206575zm0.0642992 0.107472c-0.0148346,0 -0.0266811,-0.00515748 -0.0356142,-0.0154646 -0.0088937,-0.0102717 -0.013378,-0.0234961 -0.013378,-0.0395512l0 -0.0182205c0,-0.0162913 0.00436614,-0.029748 0.0131024,-0.040374 0.00869685,-0.0105866 0.0197953,-0.0158976 0.033252,-0.0158976 0.0141299,0 0.0250276,0.00483858 0.032626,0.0144803 0.00759449,0.00964173 0.0114094,0.0226299 0.0114094,0.0389213l0 0.0161339 -0.0670945 0 0 0.00495669c0,0.0107835 0.0023622,0.0196772 0.00708268,0.0267205 0.00472441,0.00704331 0.0114528,0.0105472 0.0201102,0.0105472 0.00649213,0 0.012,-0.00102362 0.0166063,-0.00307087 0.00464173,-0.00200787 0.00901181,-0.00499606 0.0131417,-0.00893307l0.00739764 0.0145236c-0.00393307,0.00448425 -0.00920472,0.0081063 -0.0158189,0.0109764 -0.00661024,0.00283465 -0.0142047,0.00425197 -0.0228228,0.00425197zm-0.0026378 -0.111524c-0.00676772,0 -0.0121969,0.00330709 -0.016252,0.00987795 -0.00409055,0.00657087 -0.00633465,0.014874 -0.00680709,0.0249488l0.0439173 0 0 -0.00472441c0,-0.00885433 -0.00177165,-0.0160551 -0.00531102,-0.0216811 -0.00350394,-0.00562598 -0.00869685,-0.00842126 -0.0155472,-0.00842126zm0.0907441 0.109083l-0.0235315 0 0 -0.0234134 0.0235315 0 0 0.0234134zm0 -0.101213l-0.0235315 0 0 -0.0234134 0.0235315 0 0 0.0234134z"/>
   <path id="_110518056" class="fil6" d="M0.676189 1.56706l-0.0206969 0 0 -0.128543 -0.029189 0.00196063 0 -0.0134252 0.0498858 -0.00944094 0 0.149449zm0.0728189 -0.000208661l-0.0209055 0 0 -0.0207992 0.0209055 0 0 0.0207992zm0.174724 0l-0.0206575 0 -0.0565669 -0.110925 -0.000590551 0.000212598 0 0.110713 -0.0208031 0 0 -0.149134 0.0208031 0 0.0565276 0.11061 0.000629921 -0.000177165 0 -0.110433 0.0206575 0 0 0.149134zm0.0224449 -0.0623661c0,-0.0146811 0.00384646,-0.0267795 0.0115,-0.0362874 0.00769291,-0.00947244 0.0182165,-0.0142283 0.0316063,-0.0142283 0.0133189,0 0.0238386,0.00472047 0.0315315,0.0141929 0.00772441,0.00944094 0.0115709,0.0215709 0.0115709,0.0363228l0 0.014122c0,0.0148228 -0.00381102,0.0269213 -0.0115,0.0363228 -0.00769291,0.00940551 -0.0181811,0.0140906 -0.0315,0.0140906 -0.0134567,0 -0.0240157,-0.00468504 -0.0317087,-0.0140906 -0.00765354,-0.00940157 -0.0115,-0.0215 -0.0115,-0.0363228l0 -0.014122zm0.0207677 0.014122c0,0.0101024 0.00185039,0.0184252 0.00555512,0.0249252 0.00367323,0.0064685 0.00929921,0.00972047 0.0168858,0.00972047 0.00737795,0 0.012937,-0.00325197 0.0166417,-0.00972047 0.00374016,-0.0065 0.00559449,-0.0148228 0.00559449,-0.0249252l0 -0.014122c0,-0.01 -0.00185433,-0.0182126 -0.00559449,-0.024752 -0.00370472,-0.00653543 -0.00929921,-0.0097874 -0.0167441,-0.0097874 -0.00751969,0 -0.0131102,0.00325197 -0.0167835,0.00972047 -0.00370472,0.0065 -0.00555512,0.0147874 -0.00555512,0.0248189l0 0.014122zm0.111764 -0.090122l0 0.0275472 0.0173031 0 0 0.0148583 -0.0173031 0 0 0.0659646c0,0.00573622 0.000838583,0.00982677 0.00255118,0.0122362 0.0017126,0.00241339 0.00391339,0.0036378 0.00664173,0.0036378 0.00164173,0 0.0031811,-0.000106299 0.00457874,-0.000314961 0.00139764,-0.000212598 0.00304331,-0.000492126 0.00496457,-0.000909449l0.00213386 0.0143307c-0.00230709,0.000944882 -0.00492913,0.00171654 -0.00783071,0.00231102 -0.00290157,0.000590551 -0.00587402,0.000874016 -0.00895276,0.000874016 -0.0078622,0 -0.0139449,-0.00259055 -0.0182835,-0.00772835 -0.00433465,-0.00517323 -0.0065,-0.0133189 -0.0065,-0.024437l0 -0.0659646 -0.014437 0 0 -0.0148583 0.014437 0 0 -0.0275472 0.0206969 0zm0.165425 0.092185c0,0.0146142 -0.00321654,0.0263228 -0.00964961,0.0351339 -0.00639764,0.00881102 -0.015311,0.0132165 -0.0267087,0.0132165 -0.00541732,0 -0.0101378,-0.00105118 -0.0142638,-0.00318504 -0.00409055,-0.00209449 -0.00758661,-0.00520866 -0.0105236,-0.00933071l0 0.0529606 -0.0207992 0 0 -0.153433 0.0185276 0 0.00133071 0.012689c0.00293307,-0.00471654 0.00653543,-0.00835433 0.0107638,-0.0109055 0.00423228,-0.00255118 0.00916142,-0.00384646 0.0147559,-0.00384646 0.0115354,0 0.0205197,0.00485827 0.0269173,0.0145433 0.00643307,0.00971654 0.00964961,0.0225472 0.00964961,0.0385236l0 0.0136339zm-0.0208031 -0.0136339c0,-0.0108701 -0.00178346,-0.0197165 -0.00538189,-0.0265669 -0.00356693,-0.00688976 -0.00891339,-0.010315 -0.0160118,-0.010315 -0.00444094,0 -0.00825197,0.00125984 -0.0113976,0.00377559 -0.00311024,0.00255118 -0.00566142,0.00598031 -0.00755118,0.0103504l0 0.0560709c0.0018189,0.00416142 0.00433465,0.00734252 0.00744882,0.00957874 0.00314567,0.00220472 0.00702362,0.00332283 0.0116063,0.00332283 0.00716535,0 0.0124803,-0.00297244 0.0160079,-0.00894882 0.0035315,-0.00598031 0.00527953,-0.013878 0.00527953,-0.0236339l0 -0.0136339zm0.0366732 -0.00255118c0,-0.0146811 0.00384646,-0.0267795 0.0115,-0.0362874 0.00769291,-0.00947244 0.0182165,-0.0142283 0.0316063,-0.0142283 0.0133189,0 0.0238386,0.00472047 0.0315315,0.0141929 0.00772441,0.00944094 0.0115709,0.0215709 0.0115709,0.0363228l0 0.014122c0,0.0148228 -0.00381102,0.0269213 -0.0115,0.0363228 -0.00769291,0.00940551 -0.0181811,0.0140906 -0.0315,0.0140906 -0.0134567,0 -0.0240157,-0.00468504 -0.0317087,-0.0140906 -0.00765354,-0.00940157 -0.0115,-0.0215 -0.0115,-0.0363228l0 -0.014122zm0.0207677 0.014122c0,0.0101024 0.00185039,0.0184252 0.00555512,0.0249252 0.00367323,0.0064685 0.00929921,0.00972047 0.0168858,0.00972047 0.00737795,0 0.012937,-0.00325197 0.0166417,-0.00972047 0.00374016,-0.0065 0.00559449,-0.0148228 0.00559449,-0.0249252l0 -0.014122c0,-0.01 -0.00185433,-0.0182126 -0.00559449,-0.024752 -0.00370472,-0.00653543 -0.00929921,-0.0097874 -0.0167441,-0.0097874 -0.00751969,0 -0.0131102,0.00325197 -0.0167835,0.00972047 -0.00370472,0.0065 -0.00555512,0.0147874 -0.00555512,0.0248189l0 0.014122zm0.136827 0.0204882c0,-0.00430315 -0.00139764,-0.00793701 -0.00422835,-0.0109094 -0.00283071,-0.0029685 -0.0081811,-0.00622047 -0.0160472,-0.0097874 -0.0113976,-0.00444094 -0.0198543,-0.00915748 -0.0253465,-0.0141929 -0.00548819,-0.005 -0.00824803,-0.0115 -0.00824803,-0.0195079 0,-0.00852756 0.00338976,-0.0157992 0.0101024,-0.0217795 0.0067126,-0.00597638 0.0155551,-0.00894882 0.0264646,-0.00894882 0.0113976,0 0.0204843,0.00321654 0.0272677,0.00968504 0.00674803,0.00646457 0.00999606,0.0145079 0.00971654,0.024122l-0.000208661 0.000625984 -0.0199606 0c0,-0.00527559 -0.00150394,-0.0097874 -0.00447638,-0.013563 -0.0029685,-0.00381102 -0.00705906,-0.00569685 -0.0123386,-0.00569685 -0.00517323,0 -0.00922835,0.0014685 -0.0121299,0.00440551 -0.00290157,0.00293307 -0.00433465,0.00639764 -0.00433465,0.0103465 0,0.00422835 0.00122047,0.00758661 0.00374016,0.0100315 0.00248031,0.00244882 0.00786614,0.00566535 0.0161142,0.00961417 0.0116063,0.00416142 0.0202402,0.00891339 0.0258701,0.0141929 0.00562992,0.00531496 0.0084252,0.0120984 0.0084252,0.0203465 0,0.00916142 -0.00346063,0.0166063 -0.0104173,0.0223386 -0.00699213,0.00573228 -0.0161181,0.00860236 -0.0274764,0.00860236 -0.0122008,0 -0.0218504,-0.00346457 -0.028878,-0.0103858 -0.00702756,-0.00695669 -0.0103819,-0.0150669 -0.0100315,-0.0243661l0.000208661 -0.000594488 0.0193661 0c0.000279528,0.00716929 0.00223622,0.0123425 0.00594488,0.0155236 0.00366929,0.0031811 0.00824803,0.00475197 0.0137008,0.00475197 0.00542126,0 0.00961417,-0.00139764 0.0126575,-0.00415748 0.00303937,-0.00276378 0.00454331,-0.00632677 0.00454331,-0.0106969zm0.0661772 -0.11061l0 0.0275472 0.0173031 0 0 0.0148583 -0.0173031 0 0 0.0659646c0,0.00573622 0.000838583,0.00982677 0.00255118,0.0122362 0.0017126,0.00241339 0.00391339,0.0036378 0.00664173,0.0036378 0.00164173,0 0.0031811,-0.000106299 0.00457874,-0.000314961 0.00139764,-0.000212598 0.00304331,-0.000492126 0.00496457,-0.000909449l0.00213386 0.0143307c-0.00230709,0.000944882 -0.00492913,0.00171654 -0.00783071,0.00231102 -0.00290157,0.000590551 -0.00587402,0.000874016 -0.00895276,0.000874016 -0.0078622,0 -0.0139449,-0.00259055 -0.0182835,-0.00772835 -0.00433465,-0.00517323 -0.0065,-0.0133189 -0.0065,-0.024437l0 -0.0659646 -0.014437 0 0 -0.0148583 0.014437 0 0 -0.0275472 0.0206969 0zm0.077815 0.140535c-0.0131811,0 -0.0237008,-0.00458268 -0.0316378,-0.0137402 -0.00790157,-0.00912598 -0.0118858,-0.0208701 -0.0118858,-0.0351339l0 -0.016185c0,-0.0144724 0.00388189,-0.0264291 0.0116417,-0.0358701 0.00772441,-0.00940157 0.0175827,-0.014122 0.0295394,-0.014122 0.0125512,0 0.0222323,0.00429921 0.0289803,0.0128661 0.00674803,0.00856299 0.0101378,0.0200984 0.0101378,0.0345748l0 0.0143307 -0.0596024 0 0 0.00440551c0,0.00957874 0.00209843,0.0174803 0.00629134,0.0237362 0.00419685,0.00625984 0.0101732,0.00937008 0.0178622,0.00937008 0.00577165,0 0.0106654,-0.000909449 0.0147559,-0.00272835 0.00412205,-0.00178346 0.00800394,-0.00443701 0.0116732,-0.00793307l0.0065748 0.0128976c-0.00349606,0.00398425 -0.0081811,0.00720079 -0.0140551,0.00975591 -0.00587402,0.00251575 -0.0126181,0.00377559 -0.0202756,0.00377559zm-0.00234252 -0.0990748c-0.00601181,0 -0.0108386,0.00293701 -0.014437,0.00877559 -0.0036378,0.00583858 -0.00562992,0.0132126 -0.00604724,0.0221614l0.0390118 0 0 -0.00419291c0,-0.00786614 -0.00157087,-0.0142638 -0.00471654,-0.0192638 -0.00311417,-0.005 -0.00772835,-0.00748031 -0.013811,-0.00748031zm0.0536969 0.0428228c0,-0.017689 0.0031811,-0.0319173 0.00954724,-0.0426496 0.0063937,-0.0107638 0.015378,-0.0161496 0.0269843,-0.0161496 0.0052126,0 0.00982677,0.00115354 0.0138819,0.00349606 0.00409055,0.00230709 0.00758268,0.00566535 0.0105197,0.0100315l0 -0.0604055 0.0206614 0 0 0.15976 -0.0181063 0 -0.00153937 -0.012689c-0.00293701,0.00485827 -0.00653937,0.00852756 -0.0108031,0.0110472 -0.00426378,0.00255118 -0.00915748,0.00381102 -0.0147165,0.00381102 -0.0115354,0 -0.0204882,-0.00492913 -0.0268819,-0.0147559 -0.00636614,-0.00982283 -0.00954724,-0.0229331 -0.00954724,-0.0393268l0 -0.00216929zm0.0207677 0.00216929c0,0.0116772 0.00167717,0.0209409 0.0050315,0.0277559 0.00335827,0.0068189 0.0086378,0.0102441 0.015874,0.0102441 0.00450787,0 0.00835433,-0.00122441 0.0115,-0.00370472 0.0031811,-0.00244882 0.00576772,-0.00590945 0.00775984,-0.0103504l0 -0.0538701c-0.00199213,-0.00457874 -0.00457874,-0.00821654 -0.00775984,-0.0108701 -0.00314567,-0.00265748 -0.00692126,-0.00398819 -0.0112913,-0.00398819 -0.00723622,0 -0.0125866,0.00391732 -0.0159764,0.0117835 -0.0034252,0.00786614 -0.0051378,0.0181417 -0.0051378,0.0308307l0 0.00216929zm0.187138 0.0519134c-0.00073622,-0.00251575 -0.00136614,-0.005 -0.00185433,-0.00740945 -0.000456693,-0.00244882 -0.000767717,-0.0048622 -0.000909449,-0.00734252 -0.0030748,0.005 -0.00692126,0.00905512 -0.0115709,0.0122008 -0.00464961,0.00314567 -0.0097874,0.00472047 -0.0154528,0.00472047 -0.00936614,0 -0.0166732,-0.00297244 -0.0219882,-0.00888189 -0.00527953,-0.00590551 -0.00793701,-0.0138071 -0.00793701,-0.0237008 0,-0.0105945 0.00360236,-0.0189134 0.0108031,-0.0249606 0.00720079,-0.00604724 0.0173386,-0.00905512 0.030378,-0.00905512l0.0154528 0 0 -0.0113622c0,-0.00677953 -0.00150394,-0.0120591 -0.00450787,-0.0158346 -0.00300787,-0.00381102 -0.00727165,-0.00570079 -0.0127953,-0.00570079 -0.00496457,0 -0.00898425,0.00171654 -0.0120276,0.00514173 -0.00303937,0.00338976 -0.00457874,0.00765354 -0.00457874,0.0127953l-0.019752 -0.000106299 -0.000314961 -0.000629921c-0.000314961,-0.00852756 0.00307874,-0.0161142 0.0102441,-0.0227559 0.00716535,-0.00667717 0.0164291,-0.01 0.0277559,-0.01 0.0109409,0 0.0197874,0.00321654 0.0265709,0.00968504 0.00681496,0.00643307 0.0102047,0.0156614 0.0102047,0.0276181l0 0.0513858c0,0.00433465 0.000248031,0.00846063 0.000771654,0.0124449 0.000523622,0.00402362 0.00132677,0.00793701 0.00251575,0.011748l-0.0210079 0zm-0.0251024 -0.0138071c0.00485827,0 0.00926378,-0.00143307 0.0132835,-0.00430315 0.00398819,-0.00286614 0.00688976,-0.00646457 0.00874016,-0.0107638l0 -0.0226535 -0.0157677 0c-0.0063622,0 -0.0112913,0.00202756 -0.0147874,0.00608268 -0.00352756,0.00409055 -0.00527559,0.00905118 -0.00527559,0.0149252 0,0.005 0.00118898,0.00901969 0.00356299,0.0120984 0.00241339,0.0030748 0.00580315,0.00461417 0.0102441,0.00461417zm0.0853346 -0.0970118l0.00111811 0.0163622c0.00307874,-0.00580315 0.00695669,-0.010315 0.0116772,-0.0135669 0.00472047,-0.00324803 0.0100315,-0.00485827 0.0159764,-0.00485827 0.00971654,0 0.0172362,0.00360236 0.0226535,0.0107677 0.00538189,0.00716535 0.0080748,0.0182835 0.0080748,0.0333858l0 0.0687283 -0.0207992 0 0 -0.0685197c0,-0.010311 -0.0014685,-0.0175827 -0.00440551,-0.021815 -0.00293701,-0.00422835 -0.00737795,-0.0063622 -0.0132835,-0.0063622 -0.00426772,0 -0.00800787,0.00133071 -0.0112913,0.00395276 -0.0032874,0.00262205 -0.00594488,0.00618504 -0.00797244,0.0106969l0 0.0820472 -0.0207992 0 0 -0.110819 0.0190512 0zm0.114177 0.0726102l0.00153543 0.00727165 0.000629921 0 0.0212913 -0.0798819 0.0226535 0 -0.0388386 0.12802c-0.00258661,0.00765354 -0.00608268,0.0141575 -0.0105236,0.0195039 -0.00444094,0.00535039 -0.0108386,0.00804331 -0.0191575,0.00804331 -0.0017126,0 -0.0035315,-0.000177165 -0.00548819,-0.000559055 -0.00195669,-0.000385827 -0.00388189,-0.000807087 -0.00576772,-0.00129528l0.00223622 -0.0153819c0.000767717,0.000141732 0.00178346,0.000279528 0.00307874,0.00042126 0.00129134,0.000137795 0.00230709,0.000208661 0.0030748,0.000208661 0.00401969,0 0.00720079,-0.0017126 0.00957874,-0.00517323 0.00234252,-0.0034252 0.00416142,-0.00751575 0.00548819,-0.0122362l0.00366929 -0.0112559 -0.0342244 -0.110295 0.0225512 0 0.0182126 0.0726102zm0.128858 -0.0726102l0 0.118406c0,0.0118504 -0.00269291,0.0210433 -0.00803937,0.0274764 -0.00535039,0.0064685 -0.0128661,0.00968504 -0.0224803,0.00968504 -0.00206299,0 -0.00387795,-0.000141732 -0.00552362,-0.000456693 -0.00164173,-0.000314961 -0.0034252,-0.000767717 -0.00531102,-0.00139764l0.00111811 -0.0158701c0.00108268,0.000417323 0.00234252,0.000732283 0.00374016,0.00101181 0.00139764,0.000279528 0.00269291,0.00042126 0.00391339,0.00042126 0.0036378,0 0.00650394,-0.0017126 0.0086378,-0.00517323 0.00209449,-0.00346063 0.00314567,-0.00866929 0.00314567,-0.0157323l0 -0.11837 0.0207992 0zm0 -0.0290866l-0.0207992 0 0 -0.0198543 0.0207992 0 0 0.0198543zm0.0207992 0.0775394c0,-0.0146811 0.00384646,-0.0267795 0.0115,-0.0362874 0.00769291,-0.00947244 0.0182165,-0.0142283 0.0316063,-0.0142283 0.0133189,0 0.0238386,0.00472047 0.0315315,0.0141929 0.00772441,0.00944094 0.0115709,0.0215709 0.0115709,0.0363228l0 0.014122c0,0.0148228 -0.00381102,0.0269213 -0.0115,0.0363228 -0.00769291,0.00940551 -0.0181811,0.0140906 -0.0315,0.0140906 -0.0134567,0 -0.0240157,-0.00468504 -0.0317087,-0.0140906 -0.00765354,-0.00940157 -0.0115,-0.0215 -0.0115,-0.0363228l0 -0.014122zm0.0207677 0.014122c0,0.0101024 0.00185039,0.0184252 0.00555512,0.0249252 0.00367323,0.0064685 0.00929921,0.00972047 0.0168858,0.00972047 0.00737795,0 0.012937,-0.00325197 0.0166417,-0.00972047 0.00374016,-0.0065 0.00559449,-0.0148228 0.00559449,-0.0249252l0 -0.014122c0,-0.01 -0.00185433,-0.0182126 -0.00559449,-0.024752 -0.00370472,-0.00653543 -0.00929921,-0.0097874 -0.0167441,-0.0097874 -0.00751969,0 -0.0131102,0.00325197 -0.0167835,0.00972047 -0.00370472,0.0065 -0.00555512,0.0147874 -0.00555512,0.0248189l0 0.014122zm0.167276 0.00206299c0,0.014685 -0.0031811,0.0263937 -0.00954331,0.0351693 -0.0063622,0.00877559 -0.0152756,0.0131811 -0.0268465,0.0131811 -0.00580315,0 -0.010874,-0.00129528 -0.0152087,-0.00384646 -0.00433465,-0.00255118 -0.0079685,-0.00632677 -0.0109055,-0.0113268l-0.00153937 0.0130039 -0.0180039 0 0 -0.15976 0.0207992 0 0 0.0606181c0.00286614,-0.00444094 0.00633071,-0.00786614 0.0104173,-0.0102087 0.00412598,-0.00234252 0.00884646,-0.0035315 0.0142638,-0.0035315 0.0116772,0 0.0206614,0.00468504 0.0270236,0.0140906 0.0063622,0.00940157 0.00954331,0.0219173 0.00954331,0.0375433l0 0.0150669zm-0.0206929 -0.0150669c0,-0.0106614 -0.00171654,-0.0192283 -0.00507087,-0.0257283 -0.00338976,-0.0064685 -0.00874016,-0.00972047 -0.0160472,-0.00972047 -0.00464961,0 -0.00856299,0.00139764 -0.011815,0.00416142 -0.00325197,0.00275984 -0.00580315,0.0064685 -0.00762205,0.0111181l0 0.0532756c0.0018189,0.00450787 0.00440551,0.00800394 0.00765748,0.0104882 0.0032874,0.00248031 0.00727165,0.00374016 0.0119921,0.00374016 0.00730315,0 0.0126181,-0.00290157 0.0159409,-0.00870472 0.00328346,-0.00580315 0.00496457,-0.0136693 0.00496457,-0.023563l0 -0.0150669zm0.0921496 0.0334921c0,-0.00430315 -0.00139764,-0.00793701 -0.00422835,-0.0109094 -0.00283071,-0.0029685 -0.0081811,-0.00622047 -0.0160472,-0.0097874 -0.0113976,-0.00444094 -0.0198543,-0.00915748 -0.0253465,-0.0141929 -0.00548819,-0.005 -0.00824803,-0.0115 -0.00824803,-0.0195079 0,-0.00852756 0.00338976,-0.0157992 0.0101024,-0.0217795 0.0067126,-0.00597638 0.0155551,-0.00894882 0.0264646,-0.00894882 0.0113976,0 0.0204843,0.00321654 0.0272677,0.00968504 0.00674803,0.00646457 0.00999606,0.0145079 0.00971654,0.024122l-0.000208661 0.000625984 -0.0199606 0c0,-0.00527559 -0.00150394,-0.0097874 -0.00447638,-0.013563 -0.0029685,-0.00381102 -0.00705906,-0.00569685 -0.0123386,-0.00569685 -0.00517323,0 -0.00922835,0.0014685 -0.0121299,0.00440551 -0.00290157,0.00293307 -0.00433465,0.00639764 -0.00433465,0.0103465 0,0.00422835 0.00122047,0.00758661 0.00374016,0.0100315 0.00248031,0.00244882 0.00786614,0.00566535 0.0161142,0.00961417 0.0116063,0.00416142 0.0202402,0.00891339 0.0258701,0.0141929 0.00562992,0.00531496 0.0084252,0.0120984 0.0084252,0.0203465 0,0.00916142 -0.00346063,0.0166063 -0.0104173,0.0223386 -0.00699213,0.00573228 -0.0161181,0.00860236 -0.0274764,0.00860236 -0.0122008,0 -0.0218504,-0.00346457 -0.028878,-0.0103858 -0.00702756,-0.00695669 -0.0103819,-0.0150669 -0.0100315,-0.0243661l0.000208661 -0.000594488 0.0193661 0c0.000279528,0.00716929 0.00223622,0.0123425 0.00594488,0.0155236 0.00366929,0.0031811 0.00824803,0.00475197 0.0137008,0.00475197 0.00542126,0 0.00961417,-0.00139764 0.0126575,-0.00415748 0.00303937,-0.00276378 0.00454331,-0.00632677 0.00454331,-0.0106969zm0.116449 -0.0104528l0.00153543 0.00727165 0.000629921 0 0.0212913 -0.0798819 0.0226535 0 -0.0388386 0.12802c-0.00258661,0.00765354 -0.00608268,0.0141575 -0.0105236,0.0195039 -0.00444094,0.00535039 -0.0108386,0.00804331 -0.0191575,0.00804331 -0.0017126,0 -0.0035315,-0.000177165 -0.00548819,-0.000559055 -0.00195669,-0.000385827 -0.00388189,-0.000807087 -0.00576772,-0.00129528l0.00223622 -0.0153819c0.000767717,0.000141732 0.00178346,0.000279528 0.00307874,0.00042126 0.00129134,0.000137795 0.00230709,0.000208661 0.0030748,0.000208661 0.00401969,0 0.00720079,-0.0017126 0.00957874,-0.00517323 0.00234252,-0.0034252 0.00416142,-0.00751575 0.00548819,-0.0122362l0.00366929 -0.0112559 -0.0342244 -0.110295 0.0225512 0 0.0182126 0.0726102zm0.10026 0.040378c-0.0131811,0 -0.0237008,-0.00458268 -0.0316378,-0.0137402 -0.00790157,-0.00912598 -0.0118858,-0.0208701 -0.0118858,-0.0351339l0 -0.016185c0,-0.0144724 0.00388189,-0.0264291 0.0116417,-0.0358701 0.00772441,-0.00940157 0.0175827,-0.014122 0.0295394,-0.014122 0.0125512,0 0.0222323,0.00429921 0.0289803,0.0128661 0.00674803,0.00856299 0.0101378,0.0200984 0.0101378,0.0345748l0 0.0143307 -0.0596024 0 0 0.00440551c0,0.00957874 0.00209843,0.0174803 0.00629134,0.0237362 0.00419685,0.00625984 0.0101732,0.00937008 0.0178622,0.00937008 0.00577165,0 0.0106654,-0.000909449 0.0147559,-0.00272835 0.00412205,-0.00178346 0.00800394,-0.00443701 0.0116732,-0.00793307l0.0065748 0.0128976c-0.00349606,0.00398425 -0.0081811,0.00720079 -0.0140551,0.00975591 -0.00587402,0.00251575 -0.0126181,0.00377559 -0.0202756,0.00377559zm-0.00234252 -0.0990748c-0.00601181,0 -0.0108386,0.00293701 -0.014437,0.00877559 -0.0036378,0.00583858 -0.00562992,0.0132126 -0.00604724,0.0221614l0.0390118 0 0 -0.00419291c0,-0.00786614 -0.00157087,-0.0142638 -0.00471654,-0.0192638 -0.00311417,-0.005 -0.00772835,-0.00748031 -0.013811,-0.00748031zm0.0841142 -0.0414606l0 0.0275472 0.0173031 0 0 0.0148583 -0.0173031 0 0 0.0659646c0,0.00573622 0.000838583,0.00982677 0.00255118,0.0122362 0.0017126,0.00241339 0.00391339,0.0036378 0.00664173,0.0036378 0.00164173,0 0.0031811,-0.000106299 0.00457874,-0.000314961 0.00139764,-0.000212598 0.00304331,-0.000492126 0.00496457,-0.000909449l0.00213386 0.0143307c-0.00230709,0.000944882 -0.00492913,0.00171654 -0.00783071,0.00231102 -0.00290157,0.000590551 -0.00587402,0.000874016 -0.00895276,0.000874016 -0.0078622,0 -0.0139449,-0.00259055 -0.0182835,-0.00772835 -0.00433465,-0.00517323 -0.0065,-0.0133189 -0.0065,-0.024437l0 -0.0659646 -0.014437 0 0 -0.0148583 0.014437 0 0 -0.0275472 0.0206969 0zm-1.99724 0.414992l-0.0836575 0 0 -0.0138425 0.0409724 -0.0538386c0.0066063,-0.00936614 0.0112559,-0.0170945 0.013878,-0.0232126 0.00262205,-0.00611811 0.00395276,-0.0120236 0.00395276,-0.0177559 0,-0.00786614 -0.0016811,-0.0142638 -0.005,-0.0192283 -0.0032874,-0.00492913 -0.00786614,-0.00741339 -0.0136693,-0.00741339 -0.00730709,0 -0.0127598,0.00272835 -0.0164291,0.0081811 -0.0036378,0.00548819 -0.00548819,0.0129016 -0.00548819,0.0223386l-0.0199646 0 -0.000208661 -0.000523622c-0.000279528,-0.0129016 0.00338976,-0.0237717 0.0109764,-0.0326535 0.00758661,-0.00887795 0.0179331,-0.0133189 0.0311142,-0.0133189 0.0121654,0 0.0217795,0.00384646 0.0288425,0.0115394 0.00705906,0.00765354 0.0105906,0.0178268 0.0105906,0.0304488 0,0.00852756 -0.00216535,0.0169528 -0.00650394,0.0252402 -0.00433465,0.0083189 -0.010626,0.0175827 -0.018874,0.0278268l-0.0281772 0.0404449 0.0576457 0 0 0.0157677zm0.0433504 0l-0.0209055 0 0 -0.0207992 0.0209055 0 0 0.0207992zm0.128335 -0.149134l0.0206969 0 0 0.106449c0,0.0137047 -0.00374016,0.0246102 -0.0112559,0.0327205 -0.00751575,0.00807874 -0.0171299,0.0121339 -0.028878,0.0121339 -0.0126535,0 -0.0226535,-0.00367323 -0.030063,-0.0110157 -0.00741339,-0.00733858 -0.0109764,-0.0181063 -0.0106969,-0.0323346l0.000279528 -0.000594488 0.0199961 0c0,0.00943701 0.0018189,0.0164646 0.00545276,0.0211496 0.00366929,0.00468504 0.00866929,0.00702756 0.0150315,0.00702756 0.00559449,0 0.0102441,-0.00262205 0.0139134,-0.00790157 0.00370472,-0.00524409 0.00552362,-0.0123031 0.00552362,-0.021185l0 -0.106449zm0.0424055 0.0867677c0,-0.0146811 0.00384646,-0.0267795 0.0115,-0.0362874 0.00769291,-0.00947244 0.0182165,-0.0142283 0.0316063,-0.0142283 0.0133189,0 0.0238386,0.00472047 0.0315315,0.0141929 0.00772441,0.00944094 0.0115709,0.0215709 0.0115709,0.0363228l0 0.014122c0,0.0148228 -0.00381102,0.0269213 -0.0115,0.0363228 -0.00769291,0.00940551 -0.0181811,0.0140906 -0.0315,0.0140906 -0.0134567,0 -0.0240157,-0.00468504 -0.0317087,-0.0140906 -0.00765354,-0.00940157 -0.0115,-0.0215 -0.0115,-0.0363228l0 -0.014122zm0.0207677 0.014122c0,0.0101024 0.00185039,0.0184252 0.00555512,0.0249252 0.00367323,0.0064685 0.00929921,0.00972047 0.0168858,0.00972047 0.00737795,0 0.012937,-0.00325197 0.0166417,-0.00972047 0.00374016,-0.0065 0.00559449,-0.0148228 0.00559449,-0.0249252l0 -0.014122c0,-0.01 -0.00185433,-0.0182126 -0.00559449,-0.024752 -0.00370472,-0.00653543 -0.00929921,-0.0097874 -0.0167441,-0.0097874 -0.00751969,0 -0.0131102,0.00325197 -0.0167835,0.00972047 -0.00370472,0.0065 -0.00555512,0.0147874 -0.00555512,0.0248189l0 0.014122zm0.167276 0.00206299c0,0.014685 -0.0031811,0.0263937 -0.00954331,0.0351693 -0.0063622,0.00877559 -0.0152756,0.0131811 -0.0268465,0.0131811 -0.00580315,0 -0.010874,-0.00129528 -0.0152087,-0.00384646 -0.00433465,-0.00255118 -0.0079685,-0.00632677 -0.0109055,-0.0113268l-0.00153937 0.0130039 -0.0180039 0 0 -0.15976 0.0207992 0 0 0.0606181c0.00286614,-0.00444094 0.00633071,-0.00786614 0.0104173,-0.0102087 0.00412598,-0.00234252 0.00884646,-0.0035315 0.0142638,-0.0035315 0.0116772,0 0.0206614,0.00468504 0.0270236,0.0140906 0.0063622,0.00940157 0.00954331,0.0219173 0.00954331,0.0375433l0 0.0150669zm-0.0206929 -0.0150669c0,-0.0106614 -0.00171654,-0.0192283 -0.00507087,-0.0257283 -0.00338976,-0.0064685 -0.00874016,-0.00972047 -0.0160472,-0.00972047 -0.00464961,0 -0.00856299,0.00139764 -0.011815,0.00416142 -0.00325197,0.00275984 -0.00580315,0.0064685 -0.00762205,0.0111181l0 0.0532756c0.0018189,0.00450787 0.00440551,0.00800394 0.00765748,0.0104882 0.0032874,0.00248031 0.00727165,0.00374016 0.0119921,0.00374016 0.00730315,0 0.0126181,-0.00290157 0.0159409,-0.00870472 0.00328346,-0.00580315 0.00496457,-0.0136693 0.00496457,-0.023563l0 -0.0150669zm0.0921496 0.0334921c0,-0.00430315 -0.00139764,-0.00793701 -0.00422835,-0.0109094 -0.00283071,-0.0029685 -0.0081811,-0.00622047 -0.0160472,-0.0097874 -0.0113976,-0.00444094 -0.0198543,-0.00915748 -0.0253465,-0.0141929 -0.00548819,-0.005 -0.00824803,-0.0115 -0.00824803,-0.0195079 0,-0.00852756 0.00338976,-0.0157992 0.0101024,-0.0217795 0.0067126,-0.00597638 0.0155551,-0.00894882 0.0264646,-0.00894882 0.0113976,0 0.0204843,0.00321654 0.0272677,0.00968504 0.00674803,0.00646457 0.00999606,0.0145079 0.00971654,0.024122l-0.000208661 0.000625984 -0.0199606 0c0,-0.00527559 -0.00150394,-0.0097874 -0.00447638,-0.013563 -0.0029685,-0.00381102 -0.00705906,-0.00569685 -0.0123386,-0.00569685 -0.00517323,0 -0.00922835,0.0014685 -0.0121299,0.00440551 -0.00290157,0.00293307 -0.00433465,0.00639764 -0.00433465,0.0103465 0,0.00422835 0.00122047,0.00758661 0.00374016,0.0100315 0.00248031,0.00244882 0.00786614,0.00566535 0.0161142,0.00961417 0.0116063,0.00416142 0.0202402,0.00891339 0.0258701,0.0141929 0.00562992,0.00531496 0.0084252,0.0120984 0.0084252,0.0203465 0,0.00916142 -0.00346063,0.0166063 -0.0104173,0.0223386 -0.00699213,0.00573228 -0.0161181,0.00860236 -0.0274764,0.00860236 -0.0122008,0 -0.0218504,-0.00346457 -0.028878,-0.0103858 -0.00702756,-0.00695669 -0.0103819,-0.0150669 -0.0100315,-0.0243661l0.000208661 -0.000594488 0.0193661 0c0.000279528,0.00716929 0.00223622,0.0123425 0.00594488,0.0155236 0.00366929,0.0031811 0.00824803,0.00475197 0.0137008,0.00475197 0.00542126,0 0.00961417,-0.00139764 0.0126575,-0.00415748 0.00303937,-0.00276378 0.00454331,-0.00632677 0.00454331,-0.0106969zm0.104283 -0.083063l0.00111811 0.0150315c0.00300787,-0.00545276 0.00681496,-0.0096811 0.0114646,-0.0126535 0.00464961,-0.00297244 0.0100709,-0.00444094 0.0162913,-0.00444094 0.00608268,0 0.0112913,0.00167717 0.0156614,0.00507087 0.00437008,0.00338976 0.00769291,0.00852756 0.00992913,0.0154134 0.00286614,-0.00642913 0.0067126,-0.0114291 0.0115,-0.0150669 0.00475591,-0.00359843 0.0104173,-0.00541732 0.0169921,-0.00541732 0.00940157,0 0.0168504,0.00388189 0.0222677,0.0116417 0.00541732,0.00772441 0.00814567,0.0195433 0.00814567,0.035378l0 0.0658622 -0.0207992 0 0 -0.0659685c0,-0.0113268 -0.00140157,-0.0192953 -0.00419685,-0.023874 -0.00279528,-0.00458268 -0.00692126,-0.00685433 -0.012374,-0.00685433 -0.00472047,0 -0.00866929,0.00178346 -0.0118504,0.00538583 -0.0031811,0.00356299 -0.00545669,0.00835433 -0.00688976,0.0142953 -6.69291e-005,-0.000559055 -3.54331e-005,0.000314961 7.08661e-005,0.00259055 0.000141732,0.00230709 0.000208661,0.00394882 0.000208661,0.00496063l0 0.0694646 -0.0206575 0 0 -0.0659685c0,-0.0109764 -0.00143307,-0.018878 -0.00433465,-0.0235945 -0.00287008,-0.00475591 -0.00702756,-0.00713386 -0.0124803,-0.00713386 -0.00437008,0 -0.00807874,0.00122441 -0.0111535,0.0036378 -0.0030748,0.00240945 -0.00548819,0.00580315 -0.00716535,0.0101024l0 0.0829567 -0.0206969 0 0 -0.110819 0.0189488 0zm0.159378 0.110819l-0.0208031 0 0 -0.110819 0.0208031 0 0 0.110819zm0 -0.139906l-0.0208031 0 0 -0.0198543 0.0208031 0 0 0.0198543zm0.0213228 0.0800906c0,-0.0159055 0.00325197,-0.0287362 0.00975591,-0.0384528 0.00653543,-0.00975591 0.0155906,-0.0146142 0.0271969,-0.0146142 0.00559449,0 0.0105236,0.00133071 0.014752,0.00394882 0.00423228,0.00262205 0.00786614,0.00643307 0.010874,0.0114331l0.00153543 -0.0133189 0.0179016 0 0 0.110295c0,0.0141929 -0.00377559,0.025311 -0.0113268,0.0332795 -0.00751575,0.00800394 -0.0180748,0.0119921 -0.0315669,0.0119921 -0.00464961,0 -0.00961417,-0.000700787 -0.0149291,-0.00213386 -0.00527953,-0.00143307 -0.01,-0.00338976 -0.0141575,-0.00583858l0.00440551 -0.0155551c0.00346063,0.00209843 0.00730315,0.00377559 0.0114646,0.00496457 0.00416142,0.00118898 0.00849606,0.00178346 0.0130039,0.00178346 0.00758661,0 0.0131811,-0.00241339 0.0168504,-0.00727165 0.0036378,-0.0048622 0.00545276,-0.0119567 0.00545276,-0.0212913l0 -0.0100315c-0.00293307,0.00422835 -0.00642913,0.00740945 -0.0104843,0.00957874 -0.00405512,0.00212992 -0.00870472,0.00321654 -0.0139843,0.00321654 -0.0115354,0 -0.0205551,-0.00444094 -0.0270236,-0.0132874 -0.00650394,-0.00884252 -0.00972047,-0.0205197 -0.00972047,-0.035063l0 -0.0136339zm0.0207677 0.0136339c0,0.00982283 0.0017126,0.0176535 0.0051378,0.0234921 0.00338976,0.00583858 0.00877559,0.00877559 0.0160827,0.00877559 0.00450787,0 0.0083189,-0.00115354 0.0115,-0.00349606 0.0031811,-0.00230709 0.00576772,-0.00559449 0.00772441,-0.00982283l0 -0.0552362c-0.00202756,-0.00437008 -0.00461417,-0.00783071 -0.00775984,-0.0103819 -0.00314567,-0.00255118 -0.00688583,-0.00384646 -0.0112559,-0.00384646 -0.00723622,0 -0.012622,0.0034252 -0.0161496,0.0102441 -0.00349606,0.00681496 -0.00527953,0.0156969 -0.00527953,0.0266378l0 0.0136339zm0.105398 -0.049815c0.00307874,-0.00531496 0.00685433,-0.00947244 0.0113622,-0.0124449 0.00451181,-0.00297244 0.00950787,-0.00444094 0.0150669,-0.00444094 0.00996457,0 0.017689,0.00366929 0.023248,0.0110472 0.00552362,0.00737795 0.0082874,0.0187362 0.0082874,0.0340157l0 0.0678189 -0.0208031 0 0 -0.0680315c0,-0.0101693 -0.0014685,-0.0174764 -0.00443701,-0.0219528 -0.00297244,-0.00447244 -0.00741339,-0.0067126 -0.0132874,-0.0067126 -0.00422835,0 -0.00800394,0.00122441 -0.0112913,0.0036378 -0.0033189,0.00240945 -0.00604724,0.00576772 -0.00814567,0.00999606l0 0.083063 -0.0207992 0 0 -0.15976 0.0207992 0 0 0.0637638zm0.107957 -0.0423701l0 0.0275472 0.0173031 0 0 0.0148583 -0.0173031 0 0 0.0659646c0,0.00573622 0.000838583,0.00982677 0.00255118,0.0122362 0.0017126,0.00241339 0.00391339,0.0036378 0.00664173,0.0036378 0.00164173,0 0.0031811,-0.000106299 0.00457874,-0.000314961 0.00139764,-0.000212598 0.00304331,-0.000492126 0.00496457,-0.000909449l0.00213386 0.0143307c-0.00230709,0.000944882 -0.00492913,0.00171654 -0.00783071,0.00231102 -0.00290157,0.000590551 -0.00587402,0.000874016 -0.00895276,0.000874016 -0.0078622,0 -0.0139449,-0.00259055 -0.0182835,-0.00772835 -0.00433465,-0.00517323 -0.0065,-0.0133189 -0.0065,-0.024437l0 -0.0659646 -0.014437 0 0 -0.0148583 0.014437 0 0 -0.0275472 0.0206969 0zm0.165528 0.092185c0,0.014685 -0.0031811,0.0263937 -0.00954331,0.0351693 -0.0063622,0.00877559 -0.0152756,0.0131811 -0.0268465,0.0131811 -0.00580315,0 -0.010874,-0.00129528 -0.0152087,-0.00384646 -0.00433465,-0.00255118 -0.0079685,-0.00632677 -0.0109055,-0.0113268l-0.00153937 0.0130039 -0.0180039 0 0 -0.15976 0.0207992 0 0 0.0606181c0.00286614,-0.00444094 0.00633071,-0.00786614 0.0104173,-0.0102087 0.00412598,-0.00234252 0.00884646,-0.0035315 0.0142638,-0.0035315 0.0116772,0 0.0206614,0.00468504 0.0270236,0.0140906 0.0063622,0.00940157 0.00954331,0.0219173 0.00954331,0.0375433l0 0.0150669zm-0.0206929 -0.0150669c0,-0.0106614 -0.00171654,-0.0192283 -0.00507087,-0.0257283 -0.00338976,-0.0064685 -0.00874016,-0.00972047 -0.0160472,-0.00972047 -0.00464961,0 -0.00856299,0.00139764 -0.011815,0.00416142 -0.00325197,0.00275984 -0.00580315,0.0064685 -0.00762205,0.0111181l0 0.0532756c0.0018189,0.00450787 0.00440551,0.00800394 0.00765748,0.0104882 0.0032874,0.00248031 0.00727165,0.00374016 0.0119921,0.00374016 0.00730315,0 0.0126181,-0.00290157 0.0159409,-0.00870472 0.00328346,-0.00580315 0.00496457,-0.0136693 0.00496457,-0.023563l0 -0.0150669zm0.0805787 0.0634173c-0.0131811,0 -0.0237008,-0.00458268 -0.0316378,-0.0137402 -0.00790157,-0.00912598 -0.0118858,-0.0208701 -0.0118858,-0.0351339l0 -0.016185c0,-0.0144724 0.00388189,-0.0264291 0.0116417,-0.0358701 0.00772441,-0.00940157 0.0175827,-0.014122 0.0295394,-0.014122 0.0125512,0 0.0222323,0.00429921 0.0289803,0.0128661 0.00674803,0.00856299 0.0101378,0.0200984 0.0101378,0.0345748l0 0.0143307 -0.0596024 0 0 0.00440551c0,0.00957874 0.00209843,0.0174803 0.00629134,0.0237362 0.00419685,0.00625984 0.0101732,0.00937008 0.0178622,0.00937008 0.00577165,0 0.0106654,-0.000909449 0.0147559,-0.00272835 0.00412205,-0.00178346 0.00800394,-0.00443701 0.0116732,-0.00793307l0.0065748 0.0128976c-0.00349606,0.00398425 -0.0081811,0.00720079 -0.0140551,0.00975591 -0.00587402,0.00251575 -0.0126181,0.00377559 -0.0202756,0.00377559zm-0.00234252 -0.0990748c-0.00601181,0 -0.0108386,0.00293701 -0.014437,0.00877559 -0.0036378,0.00583858 -0.00562992,0.0132126 -0.00604724,0.0221614l0.0390118 0 0 -0.00419291c0,-0.00786614 -0.00157087,-0.0142638 -0.00471654,-0.0192638 -0.00311417,-0.005 -0.00772835,-0.00748031 -0.013811,-0.00748031zm0.143299 0.0990748c-0.0131811,0 -0.0237008,-0.00458268 -0.0316378,-0.0137402 -0.00790157,-0.00912598 -0.0118858,-0.0208701 -0.0118858,-0.0351339l0 -0.016185c0,-0.0144724 0.00388189,-0.0264291 0.0116417,-0.0358701 0.00772441,-0.00940157 0.0175827,-0.014122 0.0295394,-0.014122 0.0125512,0 0.0222323,0.00429921 0.0289803,0.0128661 0.00674803,0.00856299 0.0101378,0.0200984 0.0101378,0.0345748l0 0.0143307 -0.0596024 0 0 0.00440551c0,0.00957874 0.00209843,0.0174803 0.00629134,0.0237362 0.00419685,0.00625984 0.0101732,0.00937008 0.0178622,0.00937008 0.00577165,0 0.0106654,-0.000909449 0.0147559,-0.00272835 0.00412205,-0.00178346 0.00800394,-0.00443701 0.0116732,-0.00793307l0.0065748 0.0128976c-0.00349606,0.00398425 -0.0081811,0.00720079 -0.0140551,0.00975591 -0.00587402,0.00251575 -0.0126181,0.00377559 -0.0202756,0.00377559zm-0.00234252 -0.0990748c-0.00601181,0 -0.0108386,0.00293701 -0.014437,0.00877559 -0.0036378,0.00583858 -0.00562992,0.0132126 -0.00604724,0.0221614l0.0390118 0 0 -0.00419291c0,-0.00786614 -0.00157087,-0.0142638 -0.00471654,-0.0192638 -0.00311417,-0.005 -0.00772835,-0.00748031 -0.013811,-0.00748031zm0.0907559 0.0265354l0.000629921 0 0.0174055 -0.0404488 0.0237402 0 -0.0293661 0.0546772 0.0304134 0.0561417 -0.0236654 0 -0.0181457 -0.0417756 -0.000594488 0 -0.018248 0.0417756 -0.0236299 0 0.0303071 -0.0561417 -0.0294016 -0.0546772 0.023563 0 0.0169921 0.0404488zm0.140114 0.024189c0,0.0146142 -0.00321654,0.0263228 -0.00964961,0.0351339 -0.00639764,0.00881102 -0.015311,0.0132165 -0.0267087,0.0132165 -0.00541732,0 -0.0101378,-0.00105118 -0.0142638,-0.00318504 -0.00409055,-0.00209449 -0.00758661,-0.00520866 -0.0105236,-0.00933071l0 0.0529606 -0.0207992 0 0 -0.153433 0.0185276 0 0.00133071 0.012689c0.00293307,-0.00471654 0.00653543,-0.00835433 0.0107638,-0.0109055 0.00423228,-0.00255118 0.00916142,-0.00384646 0.0147559,-0.00384646 0.0115354,0 0.0205197,0.00485827 0.0269173,0.0145433 0.00643307,0.00971654 0.00964961,0.0225472 0.00964961,0.0385236l0 0.0136339zm-0.0208031 -0.0136339c0,-0.0108701 -0.00178346,-0.0197165 -0.00538189,-0.0265669 -0.00356693,-0.00688976 -0.00891339,-0.010315 -0.0160118,-0.010315 -0.00444094,0 -0.00825197,0.00125984 -0.0113976,0.00377559 -0.00311024,0.00255118 -0.00566142,0.00598031 -0.00755118,0.0103504l0 0.0560709c0.0018189,0.00416142 0.00433465,0.00734252 0.00744882,0.00957874 0.00314567,0.00220472 0.00702362,0.00332283 0.0116063,0.00332283 0.00716535,0 0.0124803,-0.00297244 0.0160079,-0.00894882 0.0035315,-0.00598031 0.00527953,-0.013878 0.00527953,-0.0236339l0 -0.0136339zm0.0628937 0.059815l-0.0208031 0 0 -0.110819 0.0208031 0 0 0.110819zm0 -0.139906l-0.0208031 0 0 -0.0198543 0.0208031 0 0 0.0198543zm0.0729252 0.0466024l-0.00972047 -0.000527559c-0.00429921,0 -0.00786614,0.00129528 -0.0106969,0.00388189 -0.00283071,0.00262205 -0.005,0.00625591 -0.00650394,0.0109764l0 0.0789724 -0.0207992 0 0 -0.110819 0.0189488 0 0.00153543 0.0166772c0.00230709,-0.00587402 0.00535039,-0.0104528 0.00912598,-0.0137756 0.00374016,-0.00332283 0.0080748,-0.00496457 0.0130039,-0.00496457 0.0013622,0 0.00276378,0.000106299 0.00419685,0.000350394 0.00143307,0.000244094 0.00255118,0.000523622 0.00335433,0.000874016l-0.00244488 0.0183543zm0.057122 0.0954724c-0.0131811,0 -0.0237008,-0.00458268 -0.0316378,-0.0137402 -0.00790157,-0.00912598 -0.0118858,-0.0208701 -0.0118858,-0.0351339l0 -0.016185c0,-0.0144724 0.00388189,-0.0264291 0.0116417,-0.0358701 0.00772441,-0.00940157 0.0175827,-0.014122 0.0295394,-0.014122 0.0125512,0 0.0222323,0.00429921 0.0289803,0.0128661 0.00674803,0.00856299 0.0101378,0.0200984 0.0101378,0.0345748l0 0.0143307 -0.0596024 0 0 0.00440551c0,0.00957874 0.00209843,0.0174803 0.00629134,0.0237362 0.00419685,0.00625984 0.0101732,0.00937008 0.0178622,0.00937008 0.00577165,0 0.0106654,-0.000909449 0.0147559,-0.00272835 0.00412205,-0.00178346 0.00800394,-0.00443701 0.0116732,-0.00793307l0.0065748 0.0128976c-0.00349606,0.00398425 -0.0081811,0.00720079 -0.0140551,0.00975591 -0.00587402,0.00251575 -0.0126181,0.00377559 -0.0202756,0.00377559zm-0.00234252 -0.0990748c-0.00601181,0 -0.0108386,0.00293701 -0.014437,0.00877559 -0.0036378,0.00583858 -0.00562992,0.0132126 -0.00604724,0.0221614l0.0390118 0 0 -0.00419291c0,-0.00786614 -0.00157087,-0.0142638 -0.00471654,-0.0192638 -0.00311417,-0.005 -0.00772835,-0.00748031 -0.013811,-0.00748031z"/>
   <path id="_110517936" class="fil6" d="M2.51674 1.78939c0,-0.017689 0.0031811,-0.0319173 0.00954724,-0.0426496 0.0063937,-0.0107638 0.015378,-0.0161496 0.0269843,-0.0161496 0.0052126,0 0.00982677,0.00115354 0.0138819,0.00349606 0.00409055,0.00230709 0.00758268,0.00566535 0.0105197,0.0100315l0 -0.0604055 0.0206614 0 0 0.15976 -0.0181063 0 -0.00153937 -0.012689c-0.00293701,0.00485827 -0.00653937,0.00852756 -0.0108031,0.0110472 -0.00426378,0.00255118 -0.00915748,0.00381102 -0.0147165,0.00381102 -0.0115354,0 -0.0204882,-0.00492913 -0.0268819,-0.0147559 -0.00636614,-0.00982283 -0.00954724,-0.0229331 -0.00954724,-0.0393268l0 -0.00216929zm0.0207677 0.00216929c0,0.0116772 0.00167717,0.0209409 0.0050315,0.0277559 0.00335827,0.0068189 0.0086378,0.0102441 0.015874,0.0102441 0.00450787,0 0.00835433,-0.00122441 0.0115,-0.00370472 0.0031811,-0.00244882 0.00576772,-0.00590945 0.00775984,-0.0103504l0 -0.0538701c-0.00199213,-0.00457874 -0.00457874,-0.00821654 -0.00775984,-0.0108701 -0.00314567,-0.00265748 -0.00692126,-0.00398819 -0.0112913,-0.00398819 -0.00723622,0 -0.0125866,0.00391732 -0.0159764,0.0117835 -0.0034252,0.00786614 -0.0051378,0.0181417 -0.0051378,0.0308307l0 0.00216929zm-1.89104 0.24478l0.0142283 0c0.00692126,0 0.0119567,-0.00230709 0.0151024,-0.00692126 0.0031811,-0.00461811 0.0047874,-0.0108386 0.0047874,-0.0187047 0,-0.00803937 -0.00167717,-0.0143661 -0.00496457,-0.0189843 -0.0033189,-0.00461417 -0.00814173,-0.00692126 -0.0145079,-0.00692126 -0.00580315,0 -0.0105551,0.00230709 -0.0142953,0.00692126 -0.00370472,0.00461811 -0.00555906,0.0106654 -0.00555906,0.0181811l-0.0197874 0 -0.000314961 -0.000629921c-0.000244094,-0.0115354 0.00335827,-0.0211496 0.010874,-0.028874 0.00751575,-0.00772835 0.0170591,-0.0115748 0.0286654,-0.0115748 0.0123071,0 0.0221299,0.00367323 0.0295039,0.0110118 0.00737795,0.00734252 0.0110472,0.017689 0.0110472,0.0310787 0,0.00664173 -0.0017126,0.0129724 -0.00520866,0.0190197 -0.00349606,0.00604724 -0.0084252,0.010626 -0.0148583,0.0137717 0.00751575,0.00279921 0.0130748,0.00730709 0.0167126,0.0135669 0.00359843,0.00625591 0.00541732,0.0134567 0.00541732,0.0216732 0,0.0134921 -0.00398425,0.024122 -0.0119213,0.0317756 -0.0079685,0.00769291 -0.0181417,0.0115394 -0.0305866,0.0115394 -0.0116063,0 -0.0214331,-0.00367323 -0.029437,-0.0110157 -0.00803937,-0.00733858 -0.0118858,-0.0175472 -0.0116417,-0.0306575l0.000314961 -0.000629921 0.0198937 0c0,0.00786614 0.00192126,0.0142283 0.00583465,0.0191575 0.00388189,0.00492913 0.00898425,0.00737795 0.0153465,0.00737795 0.00667717,0 0.0119213,-0.00237795 0.0157323,-0.00713386 0.00377559,-0.00471654 0.00566535,-0.0114646 0.00566535,-0.0202047 0,-0.00929921 -0.00178346,-0.0161496 -0.00542126,-0.0205551 -0.00359843,-0.00440551 -0.00908661,-0.0066063 -0.0163937,-0.0066063l-0.0142283 0 0 -0.0156614zm0.102535 0.0837598l-0.0209055 0 0 -0.0207992 0.0209055 0 0 0.0207992zm0.0761063 0l0 -0.149134 0.0409724 0c0.0158346,0 0.0287717,0.00597638 0.0387677,0.0179331 0.01,0.0119567 0.015,0.0273031 0.015,0.0460748l0 0.0212205c0,0.0188425 -0.005,0.034189 -0.015,0.0460748 -0.00999606,0.0118858 -0.0229331,0.0178307 -0.0387677,0.0178307l-0.0409724 0zm0.0208031 -0.133157l0 0.11739 0.019437 0c0.0104528,0 0.0187008,-0.00447244 0.024748,-0.0134213 0.00604724,-0.00895276 0.00905512,-0.0205236 0.00905512,-0.0347165l0 -0.0214291c0,-0.0140512 -0.00300787,-0.0255551 -0.00905512,-0.0344685 -0.00604724,-0.00891339 -0.0142953,-0.0133543 -0.024748,-0.0133543l-0.019437 0zm0.13487 0.135327c-0.0131811,0 -0.0237008,-0.00458268 -0.0316378,-0.0137402 -0.00790157,-0.00912598 -0.0118858,-0.0208701 -0.0118858,-0.0351339l0 -0.016185c0,-0.0144724 0.00388189,-0.0264291 0.0116417,-0.0358701 0.00772441,-0.00940157 0.0175827,-0.014122 0.0295394,-0.014122 0.0125512,0 0.0222323,0.00429921 0.0289803,0.0128661 0.00674803,0.00856299 0.0101378,0.0200984 0.0101378,0.0345748l0 0.0143307 -0.0596024 0 0 0.00440551c0,0.00957874 0.00209843,0.0174803 0.00629134,0.0237362 0.00419685,0.00625984 0.0101732,0.00937008 0.0178622,0.00937008 0.00577165,0 0.0106654,-0.000909449 0.0147559,-0.00272835 0.00412205,-0.00178346 0.00800394,-0.00443701 0.0116732,-0.00793307l0.0065748 0.0128976c-0.00349606,0.00398425 -0.0081811,0.00720079 -0.0140551,0.00975591 -0.00587402,0.00251575 -0.0126181,0.00377559 -0.0202756,0.00377559zm-0.00234252 -0.0990748c-0.00601181,0 -0.0108386,0.00293701 -0.014437,0.00877559 -0.0036378,0.00583858 -0.00562992,0.0132126 -0.00604724,0.0221614l0.0390118 0 0 -0.00419291c0,-0.00786614 -0.00157087,-0.0142638 -0.00471654,-0.0192638 -0.00311417,-0.005 -0.00772835,-0.00748031 -0.013811,-0.00748031zm0.0797087 0.0969055l-0.0208031 0 0 -0.15976 0.0208031 0 0 0.15976zm0.0652323 0.00216929c-0.0131811,0 -0.0237008,-0.00458268 -0.0316378,-0.0137402 -0.00790157,-0.00912598 -0.0118858,-0.0208701 -0.0118858,-0.0351339l0 -0.016185c0,-0.0144724 0.00388189,-0.0264291 0.0116417,-0.0358701 0.00772441,-0.00940157 0.0175827,-0.014122 0.0295394,-0.014122 0.0125512,0 0.0222323,0.00429921 0.0289803,0.0128661 0.00674803,0.00856299 0.0101378,0.0200984 0.0101378,0.0345748l0 0.0143307 -0.0596024 0 0 0.00440551c0,0.00957874 0.00209843,0.0174803 0.00629134,0.0237362 0.00419685,0.00625984 0.0101732,0.00937008 0.0178622,0.00937008 0.00577165,0 0.0106654,-0.000909449 0.0147559,-0.00272835 0.00412205,-0.00178346 0.00800394,-0.00443701 0.0116732,-0.00793307l0.0065748 0.0128976c-0.00349606,0.00398425 -0.0081811,0.00720079 -0.0140551,0.00975591 -0.00587402,0.00251575 -0.0126181,0.00377559 -0.0202756,0.00377559zm-0.00234252 -0.0990748c-0.00601181,0 -0.0108386,0.00293701 -0.014437,0.00877559 -0.0036378,0.00583858 -0.00562992,0.0132126 -0.00604724,0.0221614l0.0390118 0 0 -0.00419291c0,-0.00786614 -0.00157087,-0.0142638 -0.00471654,-0.0192638 -0.00311417,-0.005 -0.00772835,-0.00748031 -0.013811,-0.00748031zm0.0841142 -0.0414606l0 0.0275472 0.0173031 0 0 0.0148583 -0.0173031 0 0 0.0659646c0,0.00573622 0.000838583,0.00982677 0.00255118,0.0122362 0.0017126,0.00241339 0.00391339,0.0036378 0.00664173,0.0036378 0.00164173,0 0.0031811,-0.000106299 0.00457874,-0.000314961 0.00139764,-0.000212598 0.00304331,-0.000492126 0.00496457,-0.000909449l0.00213386 0.0143307c-0.00230709,0.000944882 -0.00492913,0.00171654 -0.00783071,0.00231102 -0.00290157,0.000590551 -0.00587402,0.000874016 -0.00895276,0.000874016 -0.0078622,0 -0.0139449,-0.00259055 -0.0182835,-0.00772835 -0.00433465,-0.00517323 -0.0065,-0.0133189 -0.0065,-0.024437l0 -0.0659646 -0.014437 0 0 -0.0148583 0.014437 0 0 -0.0275472 0.0206969 0zm0.077815 0.140535c-0.0131811,0 -0.0237008,-0.00458268 -0.0316378,-0.0137402 -0.00790157,-0.00912598 -0.0118858,-0.0208701 -0.0118858,-0.0351339l0 -0.016185c0,-0.0144724 0.00388189,-0.0264291 0.0116417,-0.0358701 0.00772441,-0.00940157 0.0175827,-0.014122 0.0295394,-0.014122 0.0125512,0 0.0222323,0.00429921 0.0289803,0.0128661 0.00674803,0.00856299 0.0101378,0.0200984 0.0101378,0.0345748l0 0.0143307 -0.0596024 0 0 0.00440551c0,0.00957874 0.00209843,0.0174803 0.00629134,0.0237362 0.00419685,0.00625984 0.0101732,0.00937008 0.0178622,0.00937008 0.00577165,0 0.0106654,-0.000909449 0.0147559,-0.00272835 0.00412205,-0.00178346 0.00800394,-0.00443701 0.0116732,-0.00793307l0.0065748 0.0128976c-0.00349606,0.00398425 -0.0081811,0.00720079 -0.0140551,0.00975591 -0.00587402,0.00251575 -0.0126181,0.00377559 -0.0202756,0.00377559zm-0.00234252 -0.0990748c-0.00601181,0 -0.0108386,0.00293701 -0.014437,0.00877559 -0.0036378,0.00583858 -0.00562992,0.0132126 -0.00604724,0.0221614l0.0390118 0 0 -0.00419291c0,-0.00786614 -0.00157087,-0.0142638 -0.00471654,-0.0192638 -0.00311417,-0.005 -0.00772835,-0.00748031 -0.013811,-0.00748031zm0.0536969 0.0428228c0,-0.017689 0.0031811,-0.0319173 0.00954724,-0.0426496 0.0063937,-0.0107638 0.015378,-0.0161496 0.0269843,-0.0161496 0.0052126,0 0.00982677,0.00115354 0.0138819,0.00349606 0.00409055,0.00230709 0.00758268,0.00566535 0.0105197,0.0100315l0 -0.0604055 0.0206614 0 0 0.15976 -0.0181063 0 -0.00153937 -0.012689c-0.00293701,0.00485827 -0.00653937,0.00852756 -0.0108031,0.0110472 -0.00426378,0.00255118 -0.00915748,0.00381102 -0.0147165,0.00381102 -0.0115354,0 -0.0204882,-0.00492913 -0.0268819,-0.0147559 -0.00636614,-0.00982283 -0.00954724,-0.0229331 -0.00954724,-0.0393268l0 -0.00216929zm0.0207677 0.00216929c0,0.0116772 0.00167717,0.0209409 0.0050315,0.0277559 0.00335827,0.0068189 0.0086378,0.0102441 0.015874,0.0102441 0.00450787,0 0.00835433,-0.00122441 0.0115,-0.00370472 0.0031811,-0.00244882 0.00576772,-0.00590945 0.00775984,-0.0103504l0 -0.0538701c-0.00199213,-0.00457874 -0.00457874,-0.00821654 -0.00775984,-0.0108701 -0.00314567,-0.00265748 -0.00692126,-0.00398819 -0.0112913,-0.00398819 -0.00723622,0 -0.0125866,0.00391732 -0.0159764,0.0117835 -0.0034252,0.00786614 -0.0051378,0.0181417 -0.0051378,0.0308307l0 0.00216929zm0.21276 0.00573228c0,0.014685 -0.0031811,0.0263937 -0.00954331,0.0351693 -0.0063622,0.00877559 -0.0152756,0.0131811 -0.0268465,0.0131811 -0.00580315,0 -0.010874,-0.00129528 -0.0152087,-0.00384646 -0.00433465,-0.00255118 -0.0079685,-0.00632677 -0.0109055,-0.0113268l-0.00153937 0.0130039 -0.0180039 0 0 -0.15976 0.0207992 0 0 0.0606181c0.00286614,-0.00444094 0.00633071,-0.00786614 0.0104173,-0.0102087 0.00412598,-0.00234252 0.00884646,-0.0035315 0.0142638,-0.0035315 0.0116772,0 0.0206614,0.00468504 0.0270236,0.0140906 0.0063622,0.00940157 0.00954331,0.0219173 0.00954331,0.0375433l0 0.0150669zm-0.0206929 -0.0150669c0,-0.0106614 -0.00171654,-0.0192283 -0.00507087,-0.0257283 -0.00338976,-0.0064685 -0.00874016,-0.00972047 -0.0160472,-0.00972047 -0.00464961,0 -0.00856299,0.00139764 -0.011815,0.00416142 -0.00325197,0.00275984 -0.00580315,0.0064685 -0.00762205,0.0111181l0 0.0532756c0.0018189,0.00450787 0.00440551,0.00800394 0.00765748,0.0104882 0.0032874,0.00248031 0.00727165,0.00374016 0.0119921,0.00374016 0.00730315,0 0.0126181,-0.00290157 0.0159409,-0.00870472 0.00328346,-0.00580315 0.00496457,-0.0136693 0.00496457,-0.023563l0 -0.0150669zm0.0716654 0.0230394l0.00153543 0.00727165 0.000629921 0 0.0212913 -0.0798819 0.0226535 0 -0.0388386 0.12802c-0.00258661,0.00765354 -0.00608268,0.0141575 -0.0105236,0.0195039 -0.00444094,0.00535039 -0.0108386,0.00804331 -0.0191575,0.00804331 -0.0017126,0 -0.0035315,-0.000177165 -0.00548819,-0.000559055 -0.00195669,-0.000385827 -0.00388189,-0.000807087 -0.00576772,-0.00129528l0.00223622 -0.0153819c0.000767717,0.000141732 0.00178346,0.000279528 0.00307874,0.00042126 0.00129134,0.000137795 0.00230709,0.000208661 0.0030748,0.000208661 0.00401969,0 0.00720079,-0.0017126 0.00957874,-0.00517323 0.00234252,-0.0034252 0.00416142,-0.00751575 0.00548819,-0.0122362l0.00366929 -0.0112559 -0.0342244 -0.110295 0.0225512 0 0.0182126 0.0726102zm0.137039 0l0.00153543 0.00727165 0.000629921 0 0.0212913 -0.0798819 0.0226535 0 -0.0388386 0.12802c-0.00258661,0.00765354 -0.00608268,0.0141575 -0.0105236,0.0195039 -0.00444094,0.00535039 -0.0108386,0.00804331 -0.0191575,0.00804331 -0.0017126,0 -0.0035315,-0.000177165 -0.00548819,-0.000559055 -0.00195669,-0.000385827 -0.00388189,-0.000807087 -0.00576772,-0.00129528l0.00223622 -0.0153819c0.000767717,0.000141732 0.00178346,0.000279528 0.00307874,0.00042126 0.00129134,0.000137795 0.00230709,0.000208661 0.0030748,0.000208661 0.00401969,0 0.00720079,-0.0017126 0.00957874,-0.00517323 0.00234252,-0.0034252 0.00416142,-0.00751575 0.00548819,-0.0122362l0.00366929 -0.0112559 -0.0342244 -0.110295 0.0225512 0 0.0182126 0.0726102zm0.0561417 -0.0241575c0,-0.0146811 0.00384646,-0.0267795 0.0115,-0.0362874 0.00769291,-0.00947244 0.0182165,-0.0142283 0.0316063,-0.0142283 0.0133189,0 0.0238386,0.00472047 0.0315315,0.0141929 0.00772441,0.00944094 0.0115709,0.0215709 0.0115709,0.0363228l0 0.014122c0,0.0148228 -0.00381102,0.0269213 -0.0115,0.0363228 -0.00769291,0.00940551 -0.0181811,0.0140906 -0.0315,0.0140906 -0.0134567,0 -0.0240157,-0.00468504 -0.0317087,-0.0140906 -0.00765354,-0.00940157 -0.0115,-0.0215 -0.0115,-0.0363228l0 -0.014122zm0.0207677 0.014122c0,0.0101024 0.00185039,0.0184252 0.00555512,0.0249252 0.00367323,0.0064685 0.00929921,0.00972047 0.0168858,0.00972047 0.00737795,0 0.012937,-0.00325197 0.0166417,-0.00972047 0.00374016,-0.0065 0.00559449,-0.0148228 0.00559449,-0.0249252l0 -0.014122c0,-0.01 -0.00185433,-0.0182126 -0.00559449,-0.024752 -0.00370472,-0.00653543 -0.00929921,-0.0097874 -0.0167441,-0.0097874 -0.00751969,0 -0.0131102,0.00325197 -0.0167835,0.00972047 -0.00370472,0.0065 -0.00555512,0.0147874 -0.00555512,0.0248189l0 0.014122zm0.143713 0.0333858c-0.00293307,0.00548819 -0.00670866,0.00968504 -0.0112913,0.012622 -0.00454331,0.00293701 -0.00982283,0.00440551 -0.0157638,0.00440551 -0.0100354,0 -0.0178307,-0.00384646 -0.0234567,-0.0115748 -0.00559449,-0.00772441 -0.0083937,-0.0197165 -0.0083937,-0.0359724l0 -0.0654409 0.0206969 0 0 0.0656535c0,0.0113622 0.00133071,0.0194016 0.00405512,0.024122 0.00269291,0.00475197 0.00674803,0.00712992 0.0121299,0.00712992 0.0051063,0 0.00940551,-0.00118898 0.0128307,-0.00360236 0.00346063,-0.00237402 0.00622441,-0.00580315 0.00825197,-0.0102402l0 -0.083063 0.0207992 0 0 0.110819 -0.0185276 0 -0.00133071 -0.0148583zm0.111244 0.0148583l-0.0208031 0 0 -0.110819 0.0208031 0 0 0.110819zm0 -0.139906l-0.0208031 0 0 -0.0198543 0.0208031 0 0 0.0198543zm0.0440472 0.0290866l0.00111811 0.0163622c0.00307874,-0.00580315 0.00695669,-0.010315 0.0116772,-0.0135669 0.00472047,-0.00324803 0.0100315,-0.00485827 0.0159764,-0.00485827 0.00971654,0 0.0172362,0.00360236 0.0226535,0.0107677 0.00538189,0.00716535 0.0080748,0.0182835 0.0080748,0.0333858l0 0.0687283 -0.0207992 0 0 -0.0685197c0,-0.010311 -0.0014685,-0.0175827 -0.00440551,-0.021815 -0.00293701,-0.00422835 -0.00737795,-0.0063622 -0.0132835,-0.0063622 -0.00426772,0 -0.00800787,0.00133071 -0.0112913,0.00395276 -0.0032874,0.00262205 -0.00594488,0.00618504 -0.00797244,0.0106969l0 0.0820472 -0.0207992 0 0 -0.110819 0.0190512 0zm0.210701 0.0646378c0,0.0146142 -0.00321654,0.0263228 -0.00964961,0.0351339 -0.00639764,0.00881102 -0.015311,0.0132165 -0.0267087,0.0132165 -0.00541732,0 -0.0101378,-0.00105118 -0.0142638,-0.00318504 -0.00409055,-0.00209449 -0.00758661,-0.00520866 -0.0105236,-0.00933071l0 0.0529606 -0.0207992 0 0 -0.153433 0.0185276 0 0.00133071 0.012689c0.00293307,-0.00471654 0.00653543,-0.00835433 0.0107638,-0.0109055 0.00423228,-0.00255118 0.00916142,-0.00384646 0.0147559,-0.00384646 0.0115354,0 0.0205197,0.00485827 0.0269173,0.0145433 0.00643307,0.00971654 0.00964961,0.0225472 0.00964961,0.0385236l0 0.0136339zm-0.0208031 -0.0136339c0,-0.0108701 -0.00178346,-0.0197165 -0.00538189,-0.0265669 -0.00356693,-0.00688976 -0.00891339,-0.010315 -0.0160118,-0.010315 -0.00444094,0 -0.00825197,0.00125984 -0.0113976,0.00377559 -0.00311024,0.00255118 -0.00566142,0.00598031 -0.00755118,0.0103504l0 0.0560709c0.0018189,0.00416142 0.00433465,0.00734252 0.00744882,0.00957874 0.00314567,0.00220472 0.00702362,0.00332283 0.0116063,0.00332283 0.00716535,0 0.0124803,-0.00297244 0.0160079,-0.00894882 0.0035315,-0.00598031 0.00527953,-0.013878 0.00527953,-0.0236339l0 -0.0136339zm0.097189 0.059815c-0.00073622,-0.00251575 -0.00136614,-0.005 -0.00185433,-0.00740945 -0.000456693,-0.00244882 -0.000767717,-0.0048622 -0.000909449,-0.00734252 -0.0030748,0.005 -0.00692126,0.00905512 -0.0115709,0.0122008 -0.00464961,0.00314567 -0.0097874,0.00472047 -0.0154528,0.00472047 -0.00936614,0 -0.0166732,-0.00297244 -0.0219882,-0.00888189 -0.00527953,-0.00590551 -0.00793701,-0.0138071 -0.00793701,-0.0237008 0,-0.0105945 0.00360236,-0.0189134 0.0108031,-0.0249606 0.00720079,-0.00604724 0.0173386,-0.00905512 0.030378,-0.00905512l0.0154528 0 0 -0.0113622c0,-0.00677953 -0.00150394,-0.0120591 -0.00450787,-0.0158346 -0.00300787,-0.00381102 -0.00727165,-0.00570079 -0.0127953,-0.00570079 -0.00496457,0 -0.00898425,0.00171654 -0.0120276,0.00514173 -0.00303937,0.00338976 -0.00457874,0.00765354 -0.00457874,0.0127953l-0.019752 -0.000106299 -0.000314961 -0.000629921c-0.000314961,-0.00852756 0.00307874,-0.0161142 0.0102441,-0.0227559 0.00716535,-0.00667717 0.0164291,-0.01 0.0277559,-0.01 0.0109409,0 0.0197874,0.00321654 0.0265709,0.00968504 0.00681496,0.00643307 0.0102047,0.0156614 0.0102047,0.0276181l0 0.0513858c0,0.00433465 0.000248031,0.00846063 0.000771654,0.0124449 0.000523622,0.00402362 0.00132677,0.00793701 0.00251575,0.011748l-0.0210079 0zm-0.0251024 -0.0138071c0.00485827,0 0.00926378,-0.00143307 0.0132835,-0.00430315 0.00398819,-0.00286614 0.00688976,-0.00646457 0.00874016,-0.0107638l0 -0.0226535 -0.0157677 0c-0.0063622,0 -0.0112913,0.00202756 -0.0147874,0.00608268 -0.00352756,0.00409055 -0.00527559,0.00905118 -0.00527559,0.0149252 0,0.005 0.00118898,0.00901969 0.00356299,0.0120984 0.00241339,0.0030748 0.00580315,0.00461417 0.0102441,0.00461417zm0.118091 -0.0139488c0,-0.00430315 -0.00139764,-0.00793701 -0.00422835,-0.0109094 -0.00283071,-0.0029685 -0.0081811,-0.00622047 -0.0160472,-0.0097874 -0.0113976,-0.00444094 -0.0198543,-0.00915748 -0.0253465,-0.0141929 -0.00548819,-0.005 -0.00824803,-0.0115 -0.00824803,-0.0195079 0,-0.00852756 0.00338976,-0.0157992 0.0101024,-0.0217795 0.0067126,-0.00597638 0.0155551,-0.00894882 0.0264646,-0.00894882 0.0113976,0 0.0204843,0.00321654 0.0272677,0.00968504 0.00674803,0.00646457 0.00999606,0.0145079 0.00971654,0.024122l-0.000208661 0.000625984 -0.0199606 0c0,-0.00527559 -0.00150394,-0.0097874 -0.00447638,-0.013563 -0.0029685,-0.00381102 -0.00705906,-0.00569685 -0.0123386,-0.00569685 -0.00517323,0 -0.00922835,0.0014685 -0.0121299,0.00440551 -0.00290157,0.00293307 -0.00433465,0.00639764 -0.00433465,0.0103465 0,0.00422835 0.00122047,0.00758661 0.00374016,0.0100315 0.00248031,0.00244882 0.00786614,0.00566535 0.0161142,0.00961417 0.0116063,0.00416142 0.0202402,0.00891339 0.0258701,0.0141929 0.00562992,0.00531496 0.0084252,0.0120984 0.0084252,0.0203465 0,0.00916142 -0.00346063,0.0166063 -0.0104173,0.0223386 -0.00699213,0.00573228 -0.0161181,0.00860236 -0.0274764,0.00860236 -0.0122008,0 -0.0218504,-0.00346457 -0.028878,-0.0103858 -0.00702756,-0.00695669 -0.0103819,-0.0150669 -0.0100315,-0.0243661l0.000208661 -0.000594488 0.0193661 0c0.000279528,0.00716929 0.00223622,0.0123425 0.00594488,0.0155236 0.00366929,0.0031811 0.00824803,0.00475197 0.0137008,0.00475197 0.00542126,0 0.00961417,-0.00139764 0.0126575,-0.00415748 0.00303937,-0.00276378 0.00454331,-0.00632677 0.00454331,-0.0106969zm0.0661772 -0.11061l0 0.0275472 0.0173031 0 0 0.0148583 -0.0173031 0 0 0.0659646c0,0.00573622 0.000838583,0.00982677 0.00255118,0.0122362 0.0017126,0.00241339 0.00391339,0.0036378 0.00664173,0.0036378 0.00164173,0 0.0031811,-0.000106299 0.00457874,-0.000314961 0.00139764,-0.000212598 0.00304331,-0.000492126 0.00496457,-0.000909449l0.00213386 0.0143307c-0.00230709,0.000944882 -0.00492913,0.00171654 -0.00783071,0.00231102 -0.00290157,0.000590551 -0.00587402,0.000874016 -0.00895276,0.000874016 -0.0078622,0 -0.0139449,-0.00259055 -0.0182835,-0.00772835 -0.00433465,-0.00517323 -0.0065,-0.0133189 -0.0065,-0.024437l0 -0.0659646 -0.014437 0 0 -0.0148583 0.014437 0 0 -0.0275472 0.0206969 0z"/>
  </g>
  <path class="fil7" d="M1.8693 2.98224l0 0.0700827 -0.0247913 0 0 -0.177752 0.0583346 0c0.016622,0 0.029622,0.00496063 0.0390827,0.0148346 0.00945669,0.00987402 0.0141654,0.022874 0.0141654,0.039 0,0.0162087 -0.00470866,0.0292087 -0.0141654,0.0390827 -0.00946063,0.00983465 -0.0224606,0.014752 -0.0390827,0.014752l-0.0335433 0zm0 -0.0190433l0.0335433 0c0.00937402,0 0.0164567,-0.00329134 0.021248,-0.00983071 0.00479134,-0.00654331 0.00720866,-0.0147953 0.00720866,-0.0247087 0,-0.0100866 -0.00237402,-0.0184606 -0.00712598,-0.0250866 -0.00479134,-0.00662205 -0.011874,-0.00995669 -0.0213307,-0.00995669l-0.0335433 0 0 0.0695827zm0.105457 0.0147913c0,-0.0175 0.00458268,-0.0319173 0.0137087,-0.043248 0.00916535,-0.0112913 0.0217087,-0.0169606 0.0376654,-0.0169606 0.015878,0 0.0284173,0.00562598 0.0375866,0.0169173 0.00920472,0.011252 0.0137913,0.0257087 0.0137913,0.0432913l0 0.0168346c0,0.0176654 -0.00454331,0.0320827 -0.0137087,0.0432913 -0.00916929,0.0112087 -0.0216693,0.0167913 -0.0375433,0.0167913 -0.0160394,0 -0.028626,-0.00558268 -0.0377913,-0.0167913 -0.00912598,-0.0112087 -0.0137087,-0.025626 -0.0137087,-0.0432913l0 -0.0168346zm0.024752 0.0168346c0,0.0120433 0.00220866,0.0219567 0.00662205,0.0297087 0.00437795,0.00770866 0.0110866,0.0115827 0.020126,0.0115827 0.00879134,0 0.0154173,-0.00387402 0.0198346,-0.0115827 0.00445669,-0.00775197 0.00666535,-0.0176654 0.00666535,-0.0297087l0 -0.0168346c0,-0.0119173 -0.00220866,-0.0217087 -0.00666535,-0.0295 -0.00441732,-0.00779134 -0.0110827,-0.0116654 -0.0199606,-0.0116654 -0.00895669,0 -0.015622,0.00387402 -0.02,0.0115827 -0.00441339,0.00775197 -0.00662205,0.017626 -0.00662205,0.0295827l0 0.0168346zm0.163079 0.0244173c0,-0.00512598 -0.00166535,-0.00946063 -0.00503937,-0.013 -0.00337402,-0.00354331 -0.00975197,-0.00741732 -0.019126,-0.0116693 -0.0135827,-0.00529134 -0.0236654,-0.0109134 -0.0302087,-0.0169134 -0.00653937,-0.00596063 -0.00983465,-0.0137087 -0.00983465,-0.023252 0,-0.0101654 0.00404331,-0.0188346 0.0120433,-0.0259567 0.008,-0.00712598 0.0185433,-0.0106693 0.0315433,-0.0106693 0.0135827,0 0.0244134,0.00383465 0.0325,0.0115433 0.00803937,0.00770866 0.0119134,0.0172913 0.0115827,0.028748l-0.000251969 0.000751969 -0.0237913 0c0,-0.00629134 -0.00179134,-0.0116654 -0.00533071,-0.0161654 -0.00354331,-0.00454331 -0.00841732,-0.00679134 -0.0147087,-0.00679134 -0.00616929,0 -0.011,0.00174803 -0.0144606,0.00524803 -0.00345669,0.0035 -0.00516535,0.00762598 -0.00516535,0.0123346 0,0.00503937 0.00145669,0.00903937 0.00445669,0.0119567 0.00296063,0.00291732 0.00937795,0.00675197 0.0192087,0.0114606 0.0138346,0.00495669 0.024126,0.010622 0.0308346,0.0169134 0.00670866,0.00633465 0.0100394,0.0144173 0.0100394,0.024252 0,0.0109173 -0.00412205,0.0197913 -0.0124134,0.026626 -0.00833465,0.00683071 -0.0192087,0.010248 -0.032752,0.010248 -0.0145394,0 -0.0260394,-0.00412598 -0.0344173,-0.012374 -0.00837402,-0.00829134 -0.012374,-0.0179606 -0.0119567,-0.0290433l0.000248031 -0.000708661 0.0230866 0c0.000330709,0.00854331 0.00266535,0.0147087 0.00708268,0.0185 0.00437402,0.00379134 0.00983071,0.00566929 0.0163307,0.00566929 0.00646063,0 0.0114606,-0.00166929 0.0150866,-0.00496063 0.00362205,-0.00329134 0.00541339,-0.00753937 0.00541339,-0.012748zm0.078878 -0.131835l0 0.0328346 0.020626 0 0 0.0177087 -0.020626 0 0 0.078622c0,0.00683465 0.001,0.0117087 0.00304331,0.0145866 0.00203937,0.00287402 0.00466535,0.00433071 0.00791732,0.00433071 0.00195669,0 0.00379134,-0.000122047 0.00545669,-0.000374016 0.00166535,-0.000248031 0.00362598,-0.000582677 0.00591732,-0.00108268l0.00253937 0.0170827c-0.00274803,0.00112598 -0.00587402,0.00204331 -0.00933071,0.00275197 -0.00346063,0.000708661 -0.007,0.00103937 -0.0106693,0.00103937 -0.00937402,0 -0.016622,-0.00308268 -0.0217913,-0.00920866 -0.00516535,-0.00616535 -0.00774803,-0.015874 -0.00774803,-0.029126l0 -0.078622 -0.0172087 0 0 -0.0177087 0.0172087 0 0 -0.0328346 0.0246654 0zm0.164787 -0.0128346l0.0246693 0 0 0.126878c0,0.0163307 -0.00446063,0.0293307 -0.0134173,0.039 -0.00895669,0.00962205 -0.0204173,0.0144567 -0.0344173,0.0144567 -0.0150827,0 -0.027,-0.00437402 -0.0358346,-0.013126 -0.00883071,-0.00874803 -0.0130827,-0.0215827 -0.012748,-0.0385394l0.000334646 -0.000708661 0.0238307 0c0,0.011248 0.00216929,0.019626 0.0065,0.0252087 0.00437795,0.00558268 0.0103346,0.00837402 0.0179173,0.00837402 0.00666535,0 0.0122087,-0.00312598 0.0165827,-0.00941732 0.00441732,-0.00624803 0.00658268,-0.0146654 0.00658268,-0.025248l0 -0.126878zm0.0505433 0.103417c0,-0.0175 0.00458268,-0.0319173 0.0137087,-0.043248 0.00916535,-0.0112913 0.0217087,-0.0169606 0.0376654,-0.0169606 0.015878,0 0.0284173,0.00562598 0.0375866,0.0169173 0.00920472,0.011252 0.0137913,0.0257087 0.0137913,0.0432913l0 0.0168346c0,0.0176654 -0.00454331,0.0320827 -0.0137087,0.0432913 -0.00916929,0.0112087 -0.0216693,0.0167913 -0.0375433,0.0167913 -0.0160394,0 -0.028626,-0.00558268 -0.0377913,-0.0167913 -0.00912598,-0.0112087 -0.0137087,-0.025626 -0.0137087,-0.0432913l0 -0.0168346zm0.024752 0.0168346c0,0.0120433 0.00220866,0.0219567 0.00662205,0.0297087 0.00437795,0.00770866 0.0110866,0.0115827 0.020126,0.0115827 0.00879134,0 0.0154173,-0.00387402 0.0198346,-0.0115827 0.00445669,-0.00775197 0.00666535,-0.0176654 0.00666535,-0.0297087l0 -0.0168346c0,-0.0119173 -0.00220866,-0.0217087 -0.00666535,-0.0295 -0.00441732,-0.00779134 -0.0110827,-0.0116654 -0.0199606,-0.0116654 -0.00895669,0 -0.015622,0.00387402 -0.02,0.0115827 -0.00441339,0.00775197 -0.00662205,0.017626 -0.00662205,0.0295827l0 0.0168346zm0.19937 0.00245669c0,0.0175 -0.00379134,0.0314606 -0.011374,0.0419173 -0.00758268,0.0104606 -0.0182087,0.0157087 -0.032,0.0157087 -0.00691732,0 -0.0129567,-0.00153937 -0.018126,-0.00458268 -0.00516535,-0.00304331 -0.0095,-0.00754331 -0.013,-0.0135l-0.00183071 0.0155 -0.0214606 0 0 -0.190417 0.0247913 0 0 0.072252c0.00341732,-0.00529134 0.00754331,-0.00937795 0.0124173,-0.0121693 0.00491732,-0.00279134 0.0105433,-0.00420866 0.017,-0.00420866 0.0139173,0 0.024626,0.00558661 0.0322087,0.0167913 0.00758268,0.0112087 0.011374,0.026126 0.011374,0.044752l0 0.0179567zm-0.0246654 -0.0179567c0,-0.0127087 -0.00203937,-0.0229173 -0.00603937,-0.0306654 -0.00404331,-0.00770866 -0.0104173,-0.0115866 -0.019126,-0.0115866 -0.00554331,0 -0.0102087,0.00166929 -0.0140827,0.00496063 -0.00387795,0.00329134 -0.00691732,0.00770866 -0.00908661,0.013248l0 0.0635c0.00216929,0.00537795 0.00525197,0.00954331 0.00912598,0.0125 0.00391732,0.00296063 0.00866929,0.00446063 0.0142913,0.00446063 0.00870866,0 0.0150433,-0.00346063 0.019,-0.010374 0.00391732,-0.00691732 0.00591732,-0.0162953 0.00591732,-0.0280866l0 -0.0179567zm0.223374 0.073l-0.024626 0 -0.0674173 -0.132209 -0.000708661 0.000251969 0 0.131957 -0.0247913 0 0 -0.177752 0.0247913 0 0.067374 0.131835 0.000751969 -0.000208661 0 -0.131626 0.024626 0 0 0.177752zm0.026748 -0.0743346c0,-0.0175 0.00458268,-0.0319173 0.0137087,-0.043248 0.00916535,-0.0112913 0.0217087,-0.0169606 0.0376654,-0.0169606 0.015878,0 0.0284173,0.00562598 0.0375866,0.0169173 0.00920472,0.011252 0.0137913,0.0257087 0.0137913,0.0432913l0 0.0168346c0,0.0176654 -0.00454331,0.0320827 -0.0137087,0.0432913 -0.00916929,0.0112087 -0.0216693,0.0167913 -0.0375433,0.0167913 -0.0160394,0 -0.028626,-0.00558268 -0.0377913,-0.0167913 -0.00912598,-0.0112087 -0.0137087,-0.025626 -0.0137087,-0.0432913l0 -0.0168346zm0.024752 0.0168346c0,0.0120433 0.00220866,0.0219567 0.00662205,0.0297087 0.00437795,0.00770866 0.0110866,0.0115827 0.020126,0.0115827 0.00879134,0 0.0154173,-0.00387402 0.0198346,-0.0115827 0.00445669,-0.00775197 0.00666535,-0.0176654 0.00666535,-0.0297087l0 -0.0168346c0,-0.0119173 -0.00220866,-0.0217087 -0.00666535,-0.0295 -0.00441732,-0.00779134 -0.0110827,-0.0116654 -0.0199606,-0.0116654 -0.00895669,0 -0.015622,0.00387402 -0.02,0.0115827 -0.00441339,0.00775197 -0.00662205,0.017626 -0.00662205,0.0295827l0 0.0168346zm0.199705 0.0146654l0.000751969 0 0.0174567 -0.089248 0.0236654 0 -0.030248 0.132083 -0.0204173 0 -0.0236654 -0.0877913 -0.000751969 0 -0.0232913 0.0877913 -0.0205 0 -0.0302913 -0.132083 0.0236654 0 0.0178346 0.0885 0.000751969 0 0.0234134 -0.0885 0.0178346 0 0.0237913 0.089248z"/>
  <g id="_110344192">
   <path id="_111346416" class="fil5" d="M2.06828 3.49456l0 -0.154185 0.0203898 0 0 0.154185 -0.0203898 0zm0.0952756 -0.0169449l0.00272835 0.0167283c-0.00531102,0.00111417 -0.0100866,0.00168898 -0.0142874,0.00168898 -0.0068937,0 -0.0122047,-0.00107874 -0.0160118,-0.00326772 -0.00376772,-0.00215354 -0.0064252,-0.00502362 -0.0079685,-0.00857874 -0.00154331,-0.00351969 -0.00233465,-0.0109843 -0.00233465,-0.0223307l0 -0.0642598 -0.0138937 0 0 -0.0147165 0.0138937 0 0 -0.0276772 0.0188465 -0.0113465 0 0.0390236 0.0190276 0 0 0.0147165 -0.0190276 0 0 0.0653031c0,0.00541732 0.000322835,0.00886614 0.000972441,0.0104094 0.000681102,0.00154331 0.00175591,0.00276378 0.00326378,0.00369685 0.00150787,0.000897638 0.00366142,0.00136614 0.00646457,0.00136614 0.00211811,0 0.00488189,-0.000251969 0.00832677,-0.000755906zm0.0109488 -0.0164055l0.0187047 -0.00294488c0.00103937,0.00750394 0.00398425,0.013248 0.00879528,0.0172677 0.00477165,0.00398425 0.0114843,0.00599606 0.0201378,0.00599606 0.00868898,0 0.0151496,-0.00179528 0.0193504,-0.00531102 0.00420079,-0.00355512 0.0063189,-0.00772047 0.0063189,-0.0124606 0,-0.00430709 -0.00187008,-0.00764567 -0.00560236,-0.010122 -0.00258268,-0.00168504 -0.00904724,-0.00380315 -0.0193504,-0.00638976 -0.0138543,-0.00351969 -0.0235118,-0.00653543 -0.0288622,-0.00911811 -0.00534646,-0.00254724 -0.00944094,-0.00610236 -0.0122047,-0.010626 -0.00276378,-0.00452362 -0.00416535,-0.00951181 -0.00416535,-0.0149685 0,-0.00499213 0.00114961,-0.00958661 0.00344882,-0.0138228 0.00225984,-0.00427165 0.00538189,-0.00779134 0.00929528,-0.0105906 0.00294488,-0.00215354 0.00696457,-0.00401969 0.0120276,-0.00552756 0.00509843,-0.00150787 0.0105551,-0.00226378 0.0163701,-0.00226378 0.00875984,0 0.0164409,0.00129528 0.0230827,0.00380709 0.00664173,0.00251181 0.0115236,0.0059252 0.0146811,0.0102323 0.00316142,0.00434252 0.00531496,0.0100866 0.0065,0.0173031l-0.0184882 0.00254724c-0.000862205,-0.00574409 -0.00330315,-0.0102323 -0.00732283,-0.0134606 -0.00402362,-0.00323228 -0.00972835,-0.00484646 -0.0170906,-0.00484646 -0.00868504,0 -0.0148976,0.00143701 -0.0185945,0.00430709 -0.00373228,0.00287008 -0.00559843,0.00624803 -0.00559843,0.0100866 0,0.00247638 0.000787402,0.00466929 0.00233071,0.00664173 0.00154331,0.00204724 0.00394882,0.00369685 0.00725197,0.00506299 0.00190157,0.000681102 0.0074685,0.00229528 0.0167283,0.00481102 0.0133898,0.00359055 0.0227244,0.00649606 0.0280039,0.00879528 0.00531102,0.00225984 0.00947638,0.00559843 0.0124921,0.00994094 0.00301575,0.00434646 0.00452362,0.00973228 0.00452362,0.0161929 0,0.0063189 -0.00186614,0.0122402 -0.0055315,0.0178425 -0.00369685,0.00556299 -0.00900787,0.00987008 -0.015937,0.0129213 -0.00692913,0.00305118 -0.0147913,0.00455906 -0.0235512,0.00455906 -0.0145394,0 -0.0255945,-0.00301575 -0.0332047,-0.00904724 -0.00761024,-0.00602756 -0.0124567,-0.0149685 -0.0145394,-0.026815z"/>
   <path id="_111348048" class="fil8" d="M2.35306 3.49456l0 -0.154185 0.104035 0 0 0.0182008 -0.0836063 0 0 0.0477441 0.0723346 0 0 0.0182008 -0.0723346 0 0 0.0700394 -0.0204291 0zm0.130854 0l0 -0.154185 0.0683504 0c0.013748,0 0.0241969,0.00139764 0.0313386,0.00416142 0.00714567,0.00276772 0.0128543,0.00764961 0.0171614,0.0146496 0.00427165,0.00703543 0.00638976,0.0147913 0.00638976,0.0232598 0,0.0109528 -0.00351969,0.0201417 -0.010626,0.0276457 -0.00707087,0.0075 -0.0180197,0.0122756 -0.032811,0.0143228 0.00542126,0.00258268 0.00951181,0.00513386 0.012311,0.0076811 0.00596063,0.00545669 0.0115984,0.012315 0.0169449,0.0205l0.0268189 0.0419646 -0.0256693 0 -0.0203898 -0.0320945c-0.00596063,-0.00922441 -0.010878,-0.0163346 -0.0147559,-0.0212165 -0.00383858,-0.00491732 -0.0072874,-0.0083622 -0.0103386,-0.0103031 -0.00305118,-0.00197244 -0.0061378,-0.00333858 -0.00929528,-0.00412598 -0.00233465,-0.000468504 -0.0061063,-0.000720472 -0.0113819,-0.000720472l-0.0236575 0 0 0.0684606 -0.0203898 0zm0.0203898 -0.086122l0.0438701 0c0.00929528,0 0.0166181,-0.000968504 0.0218622,-0.00290551 0.00527559,-0.00194094 0.00925984,-0.00502756 0.0119882,-0.00926378 0.00272835,-0.00423622 0.00409449,-0.00883071 0.00409449,-0.0138228 0,-0.0072874 -0.00262205,-0.0132795 -0.00793307,-0.0179843 -0.00527953,-0.00470079 -0.0136417,-0.00703543 -0.0250945,-0.00703543l-0.0487874 0 0 0.0510118zm0.135268 0.086122l0 -0.154185 0.111469 0 0 0.0182008 -0.0910787 0 0 0.0472047 0.0852992 0 0 0.0180945 -0.0852992 0 0 0.0524843 0.0946654 0 0 0.0182008 -0.115055 0zm0.143669 0l0 -0.154185 0.111469 0 0 0.0182008 -0.0910787 0 0 0.0472047 0.0852992 0 0 0.0180945 -0.0852992 0 0 0.0524843 0.0946654 0 0 0.0182008 -0.115055 0zm0.150921 -0.0382677l-0.00577953 -0.0817441 0 -0.0341732 0.0234409 0 0 0.0341732 -0.00545669 0.0817441 -0.0122047 0zm-0.00495276 0.0382677l0 -0.0215748 0.0217913 0 0 0.0215748 -0.0217913 0z"/>
  </g>
 </g>
</svg>
