<?xml version="1.0" encoding="UTF-8"?>
<!DOCTYPE svg PUBLIC "-//W3C//DTD SVG 1.1//EN" "http://www.w3.org/Graphics/SVG/1.1/DTD/svg11.dtd">
<!-- Creator: CorelDRAW -->
<svg xmlns="http://www.w3.org/2000/svg" xml:space="preserve" width="2.1in" height="2.1in" style="shape-rendering:geometricPrecision; text-rendering:geometricPrecision; image-rendering:optimizeQuality; fill-rule:evenodd; clip-rule:evenodd"
viewBox="0 0 2.1 2.1"
 xmlns:xlink="http://www.w3.org/1999/xlink"
 version="1.1">
 <defs>
  <style type="text/css">
   <![CDATA[
    .fil1 {fill:#969594}
    .fil0 {fill:#EAECEE}
   ]]>
  </style>
 </defs>
 <g id="Layer_x0020_1">
  <metadata id="CorelCorpID_0Corel-Layer"/>
  <circle class="fil0" cx="1.05" cy="1.05" r="0.999998"/>
  <g id="_37811256">
   <g>
    <path id="_37806456" class="fil1" d="M1.05122 1.11511l0.000208661 0c0.0073622,0 0.0146378,-0.0021378 0.0205236,-0.00602362l0.00159843 -0.00102756c0.000346457,-0.000228346 0.000708661,-0.000433071 0.0010748,-0.000677165l0.0185984 -0.0153858 0.443898 -0.366311c-0.00092126,-0.00126772 -0.00248425,-0.00213386 -0.00415354,-0.00213386l-0.965969 0c-0.00119685,0 -0.00231102,0.000433071 -0.00319291,0.00116142l0.464417 0.382791c0.00585433,0.00484646 0.0142047,0.0076063 0.0229961,0.0076063zm-0.489378 -0.339657l0 0.54298 0.332693 -0.268756 -0.332693 -0.274224zm0.643957 0.276051l0.332346 0.267071 0 -0.541315 -0.332346 0.274244zm-0.105665 0.0871693c-0.013248,0.0108701 -0.0305787,0.0168622 -0.0487756,0.0168622 -0.0182677,0 -0.0355827,-0.00595669 -0.0487953,-0.0167756l-0.0761969 -0.0628425 -0.364524 0.294421 0 0.000937008c0,0.00279528 0.00239764,0.00517323 0.00522835,0.00517323l0.965917 0c0.00277559,0 0.00515354,-0.00237795 0.00515354,-0.00518898l0 -0.000870079 -0.364209 -0.29263 -0.0737992 0.0609134z"/>
   </g>
   <g>
   </g>
   <g>
   </g>
   <g>
   </g>
   <g>
   </g>
   <g>
   </g>
   <g>
   </g>
   <g>
   </g>
   <g>
   </g>
   <g>
   </g>
   <g>
   </g>
   <g>
   </g>
   <g>
   </g>
   <g>
   </g>
   <g>
   </g>
   <g>
   </g>
  </g>
 </g>
</svg>
