<?xml version="1.0" encoding="UTF-8"?>
<!DOCTYPE svg PUBLIC "-//W3C//DTD SVG 1.1//EN" "http://www.w3.org/Graphics/SVG/1.1/DTD/svg11.dtd">
<!-- Creator: CorelDRAW -->
<svg xmlns="http://www.w3.org/2000/svg" xml:space="preserve" width="2.1in" height="2.1in" style="shape-rendering:geometricPrecision; text-rendering:geometricPrecision; image-rendering:optimizeQuality; fill-rule:evenodd; clip-rule:evenodd"
viewBox="0 0 2.1 2.1"
 xmlns:xlink="http://www.w3.org/1999/xlink">
 <defs>
  <style type="text/css">
   <![CDATA[
    .str0 {stroke:#1F1A17;stroke-width:0.003}
    .fil1 {fill:#969594}
    .fil2 {fill:white}
    .fil0 {fill:#EAECEE}
   ]]>
  </style>
 </defs>
 <g id="Layer_x0020_1">
  <metadata id="CorelCorpID_0Corel-Layer"/>
  <circle class="fil0" cx="1.05" cy="1.05" r="0.999998"/>
  <g id="_37805640">
   <polygon id="_37806024" class="fil1 str0" points="0.551937,0.880657 1.04004,0.551937 1.55304,0.880657 1.55304,1.55802 0.551937,1.55802 "/>
   <path id="_37801200" class="fil1" d="M1.5168 0.921378l0.00135827 0.597142 -0.935831 -0.00136614 0.000192913 -0.595496 0.468028 -0.321732 0.466252 0.321453zm-1.09614 0.00844488l0.0464528 0.0710512 0.0295236 -0.0196457 0 0.621618 1.10586 0 0.000413386 -0.62222 0.0291063 0.0193701 0.0473228 -0.0700709 -0.62898 -0.432772 -0.629697 0.432669z"/>
   <path id="_37805832" class="fil2" d="M1.05191 1.02422c0,-0.0305709 0.026937,-0.0569409 0.0581811,-0.0569409 0.0281969,0 0.0569409,0.0247323 0.0569409,0.0519921l0 0.0148543c0,0.0238583 -0.0294134,0.0482756 -0.0569409,0.0482756l-0.00124016 0c-0.0312874,0 -0.0569409,-0.026878 -0.0569409,-0.0581811zm-0.0916063 0.00742913l0 0.0037126c0,0.0209331 0.0160945,0.0542835 0.0160945,0.0581811 0,0.00158268 -0.110394,0.111016 -0.121622,0.122244 -0.0205197,0.0205197 -0.0401339,0.0401378 -0.0606575,0.0606575 -0.0149921,0.0149921 -0.0529213,0.0438937 -0.0529213,0.0696299 0,0.0246496 0.018752,0.0470394 0.0420906,0.0470394l0.00990157 0c0.0191575,0 0.035622,-0.0247598 0.038374,-0.0247598 0.00366535,0 0.0293346,0.0274803 0.0337323,0.031878 0.00933858,0.00933858 0.0211102,0.0275433 0.0380669,0.0275433l0.00247638 0c0.0116457,0 0.0447087,-0.0379055 0.0535354,-0.0467323 0.00883071,-0.00883071 0.0467323,-0.0418937 0.0467323,-0.0535394l0 -0.00618898c0,-0.0155906 -0.050811,-0.053378 -0.0606575,-0.0680827 0.0123701,-0.00828346 0.0918268,-0.0940787 0.0953189,-0.0940787 0.00829921,0 0.0335118,0.0148543 0.0581811,0.0148543l0.0284724 0c0.0118898,0 0.0446417,-0.0115787 0.0527362,-0.0165866 0.0178661,-0.0110512 0.0246614,-0.0157953 0.0391772,-0.0301417 0.0199291,-0.0197008 0.0405394,-0.0600276 0.0405394,-0.0993425 0,-0.0827559 -0.064626,-0.152264 -0.146071,-0.152264l-0.00866535 0c-0.0835591,0 -0.144835,0.0702992 -0.144835,0.155976z"/>
  </g>
 </g>
</svg>
