<?xml version="1.0" encoding="UTF-8"?>
<!DOCTYPE svg PUBLIC "-//W3C//DTD SVG 1.1//EN" "http://www.w3.org/Graphics/SVG/1.1/DTD/svg11.dtd">
<!-- Creator: CorelDRAW -->
<svg xmlns="http://www.w3.org/2000/svg" xml:space="preserve" width="2.1in" height="2.1in" style="shape-rendering:geometricPrecision; text-rendering:geometricPrecision; image-rendering:optimizeQuality; fill-rule:evenodd; clip-rule:evenodd"
viewBox="0 0 2.1 2.1"
 xmlns:xlink="http://www.w3.org/1999/xlink">
 <defs>
  <style type="text/css">
   <![CDATA[
    .fil2 {fill:none}
    .fil1 {fill:#969594}
    .fil0 {fill:#EAECEE}
   ]]>
  </style>
    <clipPath id="id0">
     <path d="M1.05 0.217547c0.449815,0 0.814602,0.364787 0.814602,0.814598 0,0.449815 -0.364787,0.814602 -0.814602,0.814602 -0.449811,0 -0.814598,-0.364787 -0.814598,-0.814602 0,-0.449811 0.364787,-0.814598 0.814598,-0.814598z"/>
    </clipPath>
 </defs>
 <g id="Layer_x0020_1">
  <metadata id="CorelCorpID_0Corel-Layer"/>
  <g id="_37806264">
   <circle id="_37806144" class="fil0" cx="1.05" cy="1.05" r="0.999998"/>
   <path id="_37806240" class="fil0" d="M1.05 0.217547c0.449815,0 0.814602,0.364787 0.814602,0.814598 0,0.449815 -0.364787,0.814602 -0.814602,0.814602 -0.449811,0 -0.814598,-0.364787 -0.814598,-0.814602 0,-0.449811 0.364787,-0.814598 0.814598,-0.814598z"/>
   <g style="clip-path:url(#id0)">
    <g>
     <path id="_707354961" class="fil1" d="M0.819472 0.485819c0.0127598,0 0.0309488,-0.0127008 0.0460394,-0.0127008l0.0365157 0c0.034937,0 0.107417,0.035122 0.119075,0.0571535 -0.00651969,0.00973622 -0.0134685,0.0139528 -0.0212717,0.0247677 -0.00611417,0.00847638 -0.0139488,0.0162047 -0.0201811,0.0242756 -0.0091063,0.0117992 -0.0315787,0.0389843 -0.0315787,0.0573307 0,0.0141102 0.0120551,0.0301654 0.023815,0.0301654l0.00793701 0c0.022378,0 0.039,-0.0350551 0.0501575,-0.0498661 0.0144094,-0.0191299 0.0321024,-0.0345827 0.0466457,-0.0517874 0.0028622,-0.00338583 0.0214528,-0.0193701 0.0261811,-0.0230394 0.00940157,-0.00729528 0.0224488,-0.0140354 0.0294764,-0.0197402 0.0129685,-0.0105276 0.0178189,-0.00962598 0.0330827,-0.0161339 0.00249606,-0.00106299 0.0356102,-0.0124882 0.0367283,-0.0124882l0.0285787 0 0.0333189 0.0018937 1.9685e-005 0.00287008c0.0164685,0 0.0449252,0.0136654 0.054874,0.0213346 0.00792126,0.0061063 0.0135866,0.0106378 0.0201654,0.017937 0.00404724,0.00448425 0.0119449,0.0197874 0.0154567,0.0210591 0,0.00740945 0.000933071,0.0168661 0.00635039,0.0190512l0.0019252 0.0285512c0.00244488,0.0351693 -0.0247283,0.0934646 -0.0427953,0.108394 -0.00803937,0.00664961 -0.00927165,0.0100984 -0.0203898,0.0177165 -0.00806693,0.00552362 -0.0157244,0.00953543 -0.0244764,0.013622 -0.0068189,0.00318504 -0.00466142,0.00451969 -0.0123307,0.00672441 -0.00453937,0.00130315 -0.0094685,0.00273228 -0.0144567,0.00459449 -0.0109331,0.00408268 -0.016063,0.00452756 -0.0256024,0.0109173 -0.0126969,0 -0.019315,0.00500787 -0.0331929,0.00649606 -0.00983071,0.00105512 -0.0214843,0.00398819 -0.0334882,0.00461417 -0.0201614,0.00105512 -0.0418465,0.00803937 -0.0682638,0.00794094 -0.0259252,-9.44882e-005 -0.0518701,0 -0.0777992,0 -0.0102598,0 -0.0288031,-0.00111811 -0.0380709,3.14961e-005 -0.00999606,0.00124016 -0.0152638,0.0111575 -0.0222598,0.0158425l-0.00195276 0.0206024c-0.000685039,0.00983465 0.0162795,0.0248819 0.0257362,0.0254724 0.0166024,0.00103937 0.0305472,0.00155512 0.0476614,0.00155512l0.0492165 0c0.0186969,0 0.0539685,-0.00076378 0.0708504,-0.00376772 0.0204961,-0.00364567 0.0405945,-0.0105197 0.0640984,-0.0105197l0.0378622 -0.0119606 0.000244094 0.172311c0,0.00366142 -0.0011063,0.00476378 -0.00476378,0.00476378l-0.35087 0 0 -0.192106 -0.00174409 -0.0190315c-0.00897638,-0.0136535 -0.00631496,-0.00926772 -0.0183031,-0.0196614 -0.00868898,-0.00753543 -0.0146535,-0.00712992 -0.022874,-0.0136417 -0.0128071,-0.0101457 -0.0289646,-0.0225551 -0.0408386,-0.0337835 -0.0073622,-0.00696457 -0.012563,-0.0116063 -0.0193465,-0.0187559 -0.00341732,-0.00360236 -0.00514173,-0.0076378 -0.00809449,-0.0109567 -0.00272835,-0.00307087 -0.00608661,-0.00488189 -0.00905906,-0.00840551 -0.0122874,-0.0145748 -0.0174134,-0.0323268 -0.0273898,-0.0472283l0 -0.00635039 -0.00340551 -0.00457087 0.00209055 -0.0526693c0.00535433,-0.00154724 0.0143268,-0.0220669 0.0172598,-0.0268346 0.0045,-0.00732283 0.0118228,-0.0169921 0.0176614,-0.0236181 0.00515748,-0.00584646 0.0154724,-0.0171102 0.0216772,-0.021189 0.00587795,-0.00386614 0.022185,-0.0118976 0.0240984,-0.0171811zm0.00475984 0.331819c0,0.0444528 0,0.0889055 0,0.133362 0,0.0222244 1.9685e-005,0.0444528 0,0.0666811 -3.54331e-005,0.0412913 0.00768504,0.0282795 0.020315,0.0476457l0.00191339 0.0428504 0.00317717 0c0,0.0138425 0.0084252,0.0521654 0.015874,0.0571535 0,0.0109409 0.0204291,0.0511378 0.0259724,0.0597638 0.00987795,0.0153701 0.0273268,0.0323228 0.0396535,0.0460787 0.00144882,0.00162205 0.0219724,0.0170354 0.0245118,0.0183543 0.00498031,0.00258268 0.00643307,0.00555512 0.0122244,0.00841339 0.00567717,0.00279921 0.0101732,0.0042874 0.0151024,0.00712992 0.0137323,0.00791732 0.0474488,0.017437 0.0682913,0.017437l0.0127008 0c0.0314921,0 0.0718701,-0.0128937 0.0929961,-0.0244882 0.000476378,-0.000259843 0.0326654,-0.0242717 0.0335984,-0.0251457 0.00950787,-0.00888189 0.0188189,-0.0210157 0.0278268,-0.0309173 0.0155906,-0.0171299 0.0332165,-0.0513661 0.0410866,-0.0764016 0.0103268,-0.0328622 0.0172362,-0.0555039 0.0172362,-0.100244 0.0183228,-0.0122677 0.0285866,-0.0110866 0.0285787,-0.0428661 -7.87402e-006,-0.0243465 0,-0.048689 0,-0.0730315 0,-0.048689 0,-0.097378 0,-0.146067 0.00471654,-0.00704331 0.0150787,-0.00981102 0.0223228,-0.0141929 0.0076811,-0.00464173 0.0136181,-0.0115039 0.0218701,-0.0162323 0.00717717,-0.00411417 0.0335551,-0.0319803 0.0368307,-0.039378 0.00716535,-0.016189 0.0180591,-0.0309331 0.0253504,-0.0508543 0.00218504,-0.00596063 0.0142874,-0.0563661 0.0142874,-0.0619213l-0.000114173 -0.0409843 -0.00464961 -0.00188189c0,-0.0262402 -0.0138465,-0.0555945 -0.0254331,-0.0698228 -0.00861417,-0.0105787 -0.0352874,-0.0441417 -0.0504764,-0.0446024l-0.00188583 -0.00464961c-0.00577559,-0.000125984 -0.0150197,-0.00653937 -0.0224724,-0.00927559 -0.0106732,-0.00392126 -0.0109724,-0.00405906 -0.0242835,-0.00747244 -0.00881496,-0.00225591 -0.0136693,-0.00808661 -0.0230512,-0.00870079 -0.0115512,-0.000755906 -0.0194961,-0.00153937 -0.0317992,-0.00153937l-0.0301654 0c-0.0356969,0 -0.0539606,0.00734252 -0.0778228,0.0190276 -0.0125315,0.00613386 -0.0218622,0.00716535 -0.0325984,0.0166142 -0.00269291,0.00236614 -0.0287047,0.0183386 -0.0308819,0.0183386l-0.00476378 0c-0.00289764,-0.0108661 -0.0359606,-0.0312756 -0.0459764,-0.0381693 -0.0174685,-0.0120276 -0.0442283,-0.0171614 -0.0588071,-0.0269252 -0.00924409,0 -0.0415433,-0.0111142 -0.0508031,-0.0111142l-0.0492205 0c-0.000413386,0 -0.0333346,0.00828346 -0.0368858,0.00915354 -0.00522047,0.00127559 -0.0272953,0.0107165 -0.032689,0.0133543 -0.0121339,0.00593701 -0.0174724,0.0109213 -0.0280551,0.0179882 -0.0129803,0.00866929 -0.0159291,0.0128386 -0.0265236,0.0211063 -0.00409843,0.00319685 -0.0183386,0.0197047 -0.0211496,0.0248937 -0.00342126,0.00631496 -0.00621654,0.00817717 -0.0107087,0.0131024 -0.00455906,0.005 -0.00498031,0.0098189 -0.00880709,0.0150079 -0.0105591,0.0143268 -0.0199134,0.0487205 -0.0224252,0.0712441 -0.00663386,0.0594567 0.0277165,0.103457 0.049752,0.135815 0.00137795,0.00202362 0.020437,0.0219094 0.0225276,0.0235118 0.00827559,0.00633858 0.0160512,0.0163425 0.0242087,0.0234173 0.0172835,0.0149803 0.0351732,0.0266614 0.0542402,0.0394331z"/>
     <path id="_11598184" class="fil1" d="M0.597201 1.80039l0.443445 0.0761457 0.461516 -0.0761457 0 -0.125421c0,-0.0311929 -0.00283465,-0.0525945 -0.00782677,-0.0779094 -0.00196457,-0.00997244 -0.00397244,-0.0267913 -0.00704331,-0.0358228 -0.00199213,-0.00585039 -0.0105354,-0.0273346 -0.0105354,-0.0307441l0 -0.00476378c-0.00768504,-0.00310236 -0.0211535,-0.0515748 -0.0301654,-0.0539803 -0.000370079,-0.0166299 -0.06,-0.0770591 -0.0734331,-0.0885039 -0.00683071,-0.00582283 -0.0175866,-0.0108937 -0.0252874,-0.0159961 -0.00759055,-0.00502756 -0.0133268,-0.0110276 -0.023248,-0.0164409 -0.00754331,-0.00411811 -0.0185591,-0.00982677 -0.0266772,-0.0130157 -0.00306299,-0.00120079 -0.0116732,-0.00500787 -0.0140591,-0.00657874 -0.00699606,-0.00459843 -0.0073189,-0.00255118 -0.0135236,-0.00552756l-0.019252 0.0173858 -0.00138583 -0.00151181c-0.00283071,0.0121496 -0.0359488,0.0279173 -0.0459134,0.0366496 -0.00272835,0.00238976 -0.0211929,0.0108386 -0.0270315,0.0142441 -0.00627165,0.00365354 -0.0261614,0.00640551 -0.0286654,0.0126142l-0.0410157 0.00776772 -0.00026378 0.00175591 -0.0666457 0.00380709 -0.00320866 -0.000629921c-0.0105276,0 -0.0579646,-0.0100079 -0.0603307,-0.015878 -0.0198346,0 -0.0593228,-0.0239252 -0.0715472,-0.0332362 -0.00494488,-0.00376772 -0.0103583,-0.00608661 -0.016437,-0.0105551 -0.0061378,-0.00451575 -0.00764173,-0.00709449 -0.0139724,-0.0114291 -0.00544094,-0.00373228 -0.0223622,-0.0241614 -0.0266457,-0.0241614l-0.00793701 0 0.000507874 0.00190551 -0.025689 0.00685827c-0.00161024,0.00301181 -0.0324173,0.0163189 -0.039315,0.0188228 -0.000326772,0.00011811 -0.0323701,0.0200748 -0.0352047,0.0219528 -0.0102205,0.0067874 -0.0227992,0.0167047 -0.0325039,0.0246496 -0.0102283,0.00837008 -0.0186142,0.0204055 -0.0291102,0.0280433 -0.0102441,0.00745276 -0.0409606,0.0550551 -0.0469173,0.0689843 -0.0106102,0.0248031 -0.0283268,0.0505787 -0.0283268,0.0859843 -0.00629528,0.00940157 -0.00635039,0.0320709 -0.00635039,0.0476299l0 0.173051z"/>
    </g>
   </g>
   <path class="fil2" d="M1.05 0.217547c0.449815,0 0.814602,0.364787 0.814602,0.814598 0,0.449815 -0.364787,0.814602 -0.814602,0.814602 -0.449811,0 -0.814598,-0.364787 -0.814598,-0.814602 0,-0.449811 0.364787,-0.814598 0.814598,-0.814598z"/>
  </g>
 </g>
</svg>
