<?xml version="1.0" encoding="UTF-8"?>
<!DOCTYPE svg PUBLIC "-//W3C//DTD SVG 1.1//EN" "http://www.w3.org/Graphics/SVG/1.1/DTD/svg11.dtd">
<!-- Creator: CorelDRAW -->
<svg xmlns="http://www.w3.org/2000/svg" xml:space="preserve" width="2.1in" height="2.1in" style="shape-rendering:geometricPrecision; text-rendering:geometricPrecision; image-rendering:optimizeQuality; fill-rule:evenodd; clip-rule:evenodd"
viewBox="0 0 2.1 2.1"
 xmlns:xlink="http://www.w3.org/1999/xlink">
 <defs>
  <style type="text/css">
   <![CDATA[
    .fil1 {fill:#969594}
    .fil0 {fill:#EAECEE}
   ]]>
  </style>
 </defs>
 <g id="Layer_x0020_1">
  <metadata id="CorelCorpID_0Corel-Layer"/>
  <circle class="fil0" cx="1.05" cy="1.05" r="0.999998"/>
  <g id="_37806408">
   <path id="_37806000" class="fil1" d="M0.687724 0.439941c-0.0131614,0.00505906 -0.0271339,0.0182244 -0.0332087,0.0315866 -0.00425197,0.00911417 -0.00445669,0.0123543 -0.00445669,0.0662205 0,0.0647992 0.000610236,0.0674331 0.0178228,0.0846457 0.0147795,0.0149843 0.0251102,0.0176181 0.0672283,0.0176181l0.035437 0 0 0.152886c0,0.167268 -0.000405512,0.160988 0.011748,0.173748 0.00890945,0.00951575 0.0200472,0.0139724 0.033815,0.0139724 0.0186299,0 0.0330079,-0.00870866 0.042122,-0.0257205 0.00445276,-0.00809843 0.00445276,-0.00870472 0.00506299,-0.161594l0.000606299 -0.153295 0.0332087 0 0.0334134 0 0 0.15289c0,0.167268 -0.000405512,0.160988 0.0117441,0.173748 0.00891339,0.00951575 0.0200472,0.0139724 0.0338189,0.0139724 0.0186299,0 0.0330079,-0.00870866 0.042122,-0.0257205 0.00445276,-0.00809843 0.00445276,-0.00870472 0.00505906,-0.161594l0.000610236 -0.153295 0.0332087 0 0.0334134 0 0 0.15289c0,0.167264 -0.000405512,0.160988 0.0117441,0.173744 0.00890945,0.00951969 0.0200472,0.0139724 0.0338189,0.0139724 0.0186299,0 0.0330079,-0.00870472 0.0421181,-0.0257165 0.00445669,-0.00809843 0.00445669,-0.00870472 0.00506299,-0.161594l0.000610236 -0.153295 0.0332087 0 0.0334134 0 0 0.15289c0,0.167264 -0.000405512,0.160988 0.0117441,0.173744 0.00890945,0.00951969 0.0200472,0.0141772 0.0338189,0.0139724 0.0188307,0 0.0332087,-0.00890945 0.0427283,-0.0267283 0.00364173,-0.00668504 0.00384646,-0.0153898 0.00445276,-0.160583l0.000606299 -0.153295 0.0281496 0c0.0232874,0 0.0301732,-0.000811024 0.0390827,-0.00405118 0.0135669,-0.00506299 0.0267283,-0.0176181 0.0336142,-0.0321969l0.00526378 -0.0113386 0 -0.0546772 0 -0.0546772 -0.00546457 -0.0115394c-0.00688583,-0.0147835 -0.0192402,-0.0267323 -0.0332126,-0.0319961 -0.0109331,-0.00405118 -0.0133622,-0.00405118 -0.36187,-0.00384646 -0.349921,0 -0.350732,0 -0.361665,0.00425197l0 3.93701e-006z"/>
   <path id="_37807152" class="fil1" d="M0.690965 1.0114c-0.0168071,0.0060748 -0.0279449,0.0166063 -0.0358425,0.0340197 -0.00384646,0.00850787 -0.00404724,0.0149882 -0.00404724,0.291402l0 0.282689 0.0060748 0.0121496c0.0190354,0.0378701 0.0696575,0.0441457 0.0984134,0.0121535 0.016,-0.0178228 0.0149843,-0.000610236 0.0149843,-0.273177l0 -0.242594 0.279453 0 0.279453 0 0 0.244622 0 0.244823 0.0060748 0.0121496c0.0190354,0.0380709 0.0696614,0.0441457 0.0984134,0.0119488 0.0162008,-0.0178189 0.015189,0.00364567 0.0145827,-0.30922l-0.000610236 -0.278236 -0.00425197 -0.00931496c-0.00587008,-0.0127559 -0.0168071,-0.0242992 -0.0285512,-0.0301732l-0.00972047 -0.00506299 -0.353362 -0.000405512c-0.29363,-0.000405512 -0.354583,0 -0.361063,0.00222835l0 0z"/>
  </g>
 </g>
</svg>
