<?xml version="1.0" encoding="UTF-8"?>
<!DOCTYPE svg PUBLIC "-//W3C//DTD SVG 1.1//EN" "http://www.w3.org/Graphics/SVG/1.1/DTD/svg11.dtd">
<!-- Creator: CorelDRAW -->
<svg xmlns="http://www.w3.org/2000/svg" xml:space="preserve" width="3in" height="3in" style="shape-rendering:geometricPrecision; text-rendering:geometricPrecision; image-rendering:optimizeQuality; fill-rule:evenodd; clip-rule:evenodd"
viewBox="0 0 3 3"
 xmlns:xlink="http://www.w3.org/1999/xlink">
 <defs>
  <style type="text/css">
   <![CDATA[
    .fil0 {fill:white}
   ]]>
  </style>
 </defs>
 <g id="Layer_x0020_1">
  <metadata id="CorelCorpID_0Corel-Layer"/>
  <g id="_107588504">
   <path id="_108823616" class="fil0" d="M1.50639 0.408004c0,0 0.679508,-4.33071e-005 0.798291,0.639953 0.118783,0.64 0.0738898,0.514996 0.154374,0.802327 0.0685394,0.244673 0.290909,0.241051 0.334189,0.52039 0.0185669,0.119831 -0.0738858,0.201472 -0.199524,0.200933l-2.17167 -0.00933858c-0.187831,-0.000807087 -0.256067,-0.0959567 -0.242228,-0.221799 0.00938583,-0.0853465 0.0931732,-0.16876 0.211571,-0.26328 0.245815,-0.196224 0.296909,-1.02263 0.296909,-1.02263 0,0 0.104323,-0.630063 0.818083,-0.646551z"/>
   <path id="_107716784" class="fil0" d="M1.48687 0.162622c0.129331,0 0.234209,0.104882 0.234209,0.234209 0,0.129331 -0.104878,0.234213 -0.234209,0.234213 -0.129327,0 -0.234209,-0.104882 -0.234209,-0.234213 0,-0.129327 0.104882,-0.234209 0.234209,-0.234209z"/>
   <path id="_107717120" class="fil0" d="M1.48687 2.25834c0.171224,0 0.310079,0.138854 0.310079,0.310079 0,0.171224 -0.138854,0.310083 -0.310079,0.310083 -0.171224,0 -0.310079,-0.138858 -0.310079,-0.310083 0,-0.171224 0.138854,-0.310079 0.310079,-0.310079z"/>
  </g>
 </g>
</svg>
