<?xml version="1.0" encoding="UTF-8"?>
<!DOCTYPE svg PUBLIC "-//W3C//DTD SVG 1.1//EN" "http://www.w3.org/Graphics/SVG/1.1/DTD/svg11.dtd">
<!-- Creator: CorelDRAW -->
<svg xmlns="http://www.w3.org/2000/svg" xml:space="preserve" width="5in" height="4in" style="shape-rendering:geometricPrecision; text-rendering:geometricPrecision; image-rendering:optimizeQuality; fill-rule:evenodd; clip-rule:evenodd"
viewBox="0 0 5 4"
 xmlns:xlink="http://www.w3.org/1999/xlink">
 <defs>
  <style type="text/css">
   <![CDATA[
    .fil1 {fill:#E77817}
    .fil0 {fill:#0297AB}
    .fil3 {fill:white}
    .fil6 {fill:#1F1A17;fill-rule:nonzero}
    .fil4 {fill:#E77817;fill-rule:nonzero}
    .fil5 {fill:#0297AB;fill-rule:nonzero}
    .fil2 {fill:white;fill-rule:nonzero}
   ]]>
  </style>
 </defs>
 <g id="Layer_x0020_1">
  <metadata id="CorelCorpID_0Corel-Layer"/>
  <g id="_233983768">
   <path id="_233985568" class="fil0" d="M2.08733 0.719575l0.786937 0c0.116528,0 0.211866,0.0953386 0.211866,0.211866l0 0.786937c0,0.116528 -0.0953386,0.211866 -0.211866,0.211866l-0.786937 0c-0.116528,0 -0.211866,-0.0953386 -0.211866,-0.211866l0 -0.786937c0,-0.116528 0.0953386,-0.211866 0.211866,-0.211866z"/>
   <path id="_233985352" class="fil1" d="M2.50985 0.961614c0.21665,0 0.392339,0.175701 0.392339,0.392354 0,0.216661 -0.175689,0.392354 -0.392339,0.392354 -0.216642,0 -0.392331,-0.175693 -0.392331,-0.392354 0,-0.216654 0.175689,-0.392354 0.392331,-0.392354z"/>
   <path id="_233985136" class="fil2" d="M2.30733 1.52494l0.0182323 -0.0181732 0.298945 0 0 0.0363425 -0.298945 0 -0.0182323 -0.0181693zm0.0182323 -0.0181732l0 0.0363425 -0.000929134 -1.9685e-005 -0.00092126 -7.48031e-005 -0.000909449 -0.000114173 -0.000893701 -0.000161417 -0.000877953 -0.000204724 -0.000874016 -0.000240157 -0.000834646 -0.000287402 -0.000830709 -0.000326772 -0.000799213 -0.000358268 -0.000783465 -0.000409449 -0.000767717 -0.000433071 -0.000732283 -0.000472441 -0.000712598 -0.000503937 -0.000688976 -0.000543307 -0.000665354 -0.000566929 -0.000622047 -0.000602362 -0.000610236 -0.000633858 -0.000566929 -0.00065748 -0.000535433 -0.000685039 -0.000507874 -0.000716535 -0.000472441 -0.00073622 -0.000440945 -0.000759843 -0.000405512 -0.000783465 -0.000354331 -0.000807087 -0.000326772 -0.000826772 -0.000291339 -0.000838583 -0.000240157 -0.000870079 -0.000204724 -0.000877953 -0.00015748 -0.000893701 -0.00011811 -0.000905512 -7.48031e-005 -0.000925197 -1.5748e-005 -0.000933071 1.5748e-005 -0.000937008 7.48031e-005 -0.00092126 0.00011811 -0.000909449 0.00015748 -0.000893701 0.000204724 -0.000877953 0.000240157 -0.000870079 0.000291339 -0.000838583 0.000326772 -0.000826772 0.000354331 -0.000807087 0.000405512 -0.000779528 0.000440945 -0.000759843 0.000472441 -0.000740157 0.000507874 -0.000712598 0.000535433 -0.000688976 0.000566929 -0.00065748 0.000610236 -0.000629921 0.000622047 -0.000606299 0.000665354 -0.000566929 0.000688976 -0.00053937 0.000712598 -0.000507874 0.000732283 -0.000472441 0.000767717 -0.000433071 0.000783465 -0.000405512 0.000799213 -0.000362205 0.000830709 -0.000326772 0.000834646 -0.000287402 0.000874016 -0.000240157 0.000877953 -0.000204724 0.000893701 -0.000161417 0.000909449 -0.000114173 0.00092126 -7.08661e-005 0.000929134 -2.3622e-005zm-0.000208661 -0.118768l0.0184528 0.0181732 0 0.118768 -0.0364764 0 0 -0.118768 0.0180236 -0.0181732zm0.0184528 0.0181732l-0.0364764 0 1.5748e-005 -0.000940945 7.48031e-005 -0.00092126 0.00011811 -0.000913386 0.00015748 -0.000901575 0.000200787 -0.000877953 0.000255906 -0.000866142 0.000279528 -0.000846457 0.000334646 -0.000826772 0.000358268 -0.000811024 0.000401575 -0.000787402 0.000437008 -0.000759843 0.000480315 -0.000744094 0.000507874 -0.000716535 0.000543307 -0.000685039 0.000574803 -0.000661417 0.000598425 -0.000633858 0.000633858 -0.000602362 0.000661417 -0.000574803 0.000692913 -0.000543307 0.000712598 -0.000511811 0.000740157 -0.000472441 0.00076378 -0.000437008 0.000787402 -0.000401575 0.000811024 -0.000366142 0.000822835 -0.000326772 0.000850394 -0.000287402 0.000862205 -0.000248031 0.000877953 -0.000200787 0.000905512 -0.000165354 0.000909449 -0.000110236 0.00092126 -7.48031e-005 0.000940945 -2.3622e-005 0.000948819 2.3622e-005 0.00092126 7.48031e-005 0.000913386 0.000110236 0.000893701 0.000165354 0.000885827 0.000200787 0.000858268 0.000248031 0.000846457 0.000287402 0.000826772 0.000326772 0.000811024 0.000366142 0.000791339 0.000401575 0.00076378 0.000437008 0.000744094 0.000472441 0.000712598 0.000511811 0.000688976 0.000543307 0.000653543 0.000574803 0.000641732 0.000602362 0.000598425 0.000633858 0.000574803 0.000661417 0.00053937 0.000685039 0.000511811 0.000716535 0.000472441 0.000744094 0.000440945 0.000759843 0.000405512 0.000787402 0.000366142 0.000811024 0.000318898 0.000826772 0.000295276 0.000846457 0.000244094 0.000866142 0.000204724 0.000877953 0.000161417 0.000901575 0.000114173 0.000913386 6.69291e-005 0.00092126 2.75591e-005 0.000940945zm-0.146287 -0.135839l0.0363425 0.00156693 0 0 -0.000216535 0.0114803 0.000452756 0.0105551 0.000940945 0.00971654 0.00152362 0.00899606 0.00191732 0.00821654 0.00227165 0.00745276 0.00266535 0.00687795 0.00299606 0.00624409 0.0032874 0.00564173 0.0034685 0.00513386 0.00367717 0.00464961 0.00391339 0.00426378 0.00403937 0.00382677 0.00418898 0.00343307 0.00427953 0.00304331 0.00435433 0.00275984 0.00444094 0.00244094 0.00440551 0.00219291 0.00435039 0.00185827 0.00429528 0.0016063 0.00422441 0.00129921 0.00409055 0.00117323 0.00384252 0.000925197 0.00355118 0.000708661 0.00329921 0.000511811 0.00299606 0.000405512 0.00257874 0.00034252 0.00218898 0.000141732 0.00167323 0.000129921 0.00120866 5.51181e-005 0.000602362 1.5748e-005 -1.5748e-005 0 0.00042126 0.0363465 -0.000685039 0 -0.00133071 -1.5748e-005 -0.00190551 -5.90551e-005 -0.00253543 -0.000129921 -0.00305118 -0.000283465 -0.00357087 -0.000346457 -0.00399213 -0.000551181 -0.00443307 -0.000791339 -0.00483465 -0.000992126 -0.0051378 -0.00121654 -0.00537008 -0.00145276 -0.00563386 -0.00187795 -0.00587008 -0.00216535 -0.00605512 -0.00256693 -0.00612205 -0.00292126 -0.00615354 -0.0034252 -0.00620079 -0.00390945 -0.0061378 -0.0044685 -0.00603543 -0.00499213 -0.00588976 -0.00554331 -0.00563386 -0.00612205 -0.00538583 -0.00677953 -0.00503543 -0.00741339 -0.00457087 -0.00806693 -0.00413386 -0.00866535 -0.00366142 -0.00929921 -0.00312992 -0.0100236 -0.00248819 -0.0106378 -0.00181102 -0.0112677 -0.00122441 -0.0120039 -0.000452756 -0.0126929 0.000216535 -0.0133307zm0.198039 -0.0860118l0.0337756 0.0133898 -0.0311339 0.00463386 -0.00201181 -0.00225197 -0.00282677 -0.00249606 -0.00344488 -0.00249213 -0.00417323 -0.00254724 -0.00475591 -0.00243307 -0.00529528 -0.00222835 -0.00572441 -0.00206299 -0.00623228 -0.0018189 -0.00649213 -0.00154331 -0.00682677 -0.00116929 -0.00704724 -0.000929134 -0.00714567 -0.000507874 -0.00735039 -0.000149606 -0.00733071 0.00030315 -0.0072874 0.000716535 -0.00718504 0.0010748 -0.0071063 0.00159843 -0.00689764 0.00201181 -0.00672835 0.0024252 -0.00640945 0.00295276 -0.00613386 0.00342126 -0.00574409 0.00384646 -0.00541339 0.00443701 -0.00505906 0.00490157 -0.00471654 0.00553543 -0.00426378 0.00611417 -0.00381102 0.00671654 -0.00333071 0.00757087 -0.00284646 0.00828346 -0.00227165 0.0091811 -0.00154331 0.0100827 -0.000933071 0.0110118 -0.0363425 -0.00156693 0.00107874 -0.0137244 0.00211811 -0.0129331 0.00297244 -0.0121654 0.0038622 -0.0114252 0.00474409 -0.0105551 0.00552362 -0.00985827 0.00625984 -0.00896457 0.00685039 -0.0081063 0.00748819 -0.0073189 0.00798031 -0.00643307 0.00844094 -0.00569291 0.00870472 -0.00485433 0.00897638 -0.00408661 0.00914567 -0.00342913 0.00933071 -0.00272047 0.00937402 -0.00202756 0.00946457 -0.00150394 0.00942913 -0.000862205 0.00933071 -0.00030315 0.00919291 0.000153543 0.00913386 0.000653543 0.00891339 0.0010748 0.00867717 0.00159843 0.00848031 0.00197244 0.00808661 0.00238189 0.0078622 0.00277953 0.00744488 0.00322047 0.00702756 0.00357087 0.00659449 0.00397638 0.00615354 0.00448819 0.00553543 0.00491732 0.00500787 0.00552756 -0.0311457 0.0046378zm0.00264173 0.0180236l0.0285039 -0.0226614 0.000555118 0.000751969 0.000531496 0.00076378 0.000472441 0.000783465 0.000429134 0.000807087 0.000393701 0.000814961 0.00034252 0.000826772 0.00030315 0.000838583 0.000251969 0.000850394 0.000220472 0.000858268 0.000177165 0.000866142 0.000133858 0.000866142 7.87402e-005 0.000874016 5.51181e-005 0.000877953 7.87402e-006 0.000874016 -3.93701e-005 0.000874016 -8.66142e-005 0.000870079 -0.00011811 0.000862205 -0.000161417 0.000862205 -0.000204724 0.000850394 -0.000240157 0.000846457 -0.000275591 0.000826772 -0.000334646 0.000814961 -0.000358268 0.000807087 -0.000401575 0.000787402 -0.000444882 0.000771654 -0.000484252 0.000748031 -0.000527559 0.000732283 -0.000559055 0.000704724 -0.000602362 0.000681102 -0.000645669 0.00065748 -0.000677165 0.000633858 -0.000720472 0.000602362 -0.000748031 0.000562992 -0.000759843 0.000523622 -0.000783465 0.000472441 -0.000807087 0.000433071 -0.000814961 0.000389764 -0.000826772 0.00034252 -0.000846457 0.00030315 -0.000850394 0.000259843 -0.000850394 0.000212598 -0.000874016 0.000177165 -0.000858268 0.000133858 -0.00088189 8.26772e-005 -0.000870079 5.11811e-005 -0.000874016 7.87402e-006 -0.000877953 -3.93701e-005 -0.000866142 -7.87402e-005 -0.000870079 -0.00011811 -0.000858268 -0.000165354 -0.000850394 -0.000200787 -0.000846457 -0.000244094 -0.000826772 -0.000279528 -0.000818898 -0.000326772 -0.00080315 -0.000366142 -0.000787402 -0.000401575 -0.000767717 -0.000444882 -0.000748031 -0.000484252 -0.00073622 -0.000523622 -0.000704724 -0.000562992 -0.000681102 -0.000602362 -0.000661417 -0.000641732 -0.000625984 -0.000677165 -0.000598425 -0.000720472zm0.126787 -0.0215906l0.0257835 0.0256575 -0.027 -0.00135827 -0.00477953 -0.00547638 -0.00465748 -0.00473622 -0.00451181 -0.00402756 -0.00444882 -0.00335827 -0.00435827 -0.00285827 -0.00409843 -0.00224803 -0.00407874 -0.00175591 -0.00394488 -0.00135039 -0.00380709 -0.000992126 -0.00379528 -0.000665354 -0.00364567 -0.000291339 -0.00374803 -3.54331e-005 -0.00357087 0.000259843 -0.00358661 0.000527559 -0.00345276 0.000688976 -0.00351969 0.000948819 -0.00334252 0.00119685 -0.00325197 0.00131496 -0.00320866 0.00141339 -0.00300787 0.00161811 -0.00294488 0.00164567 -0.00272047 0.00178346 -0.00255906 0.00174016 -0.00231102 0.00174016 -0.00212205 0.00170472 -0.00185433 0.00163386 -0.00151181 0.00146457 -0.00127559 0.0013189 -0.000909449 0.00100787 -0.000444882 0.000519685 9.84252e-005 -0.000149606 0.000929134 -0.0019252 -0.0337756 -0.0133898 0.00192126 -0.00378346 0.00175197 -0.00255906 0.00187008 -0.00236614 0.00204331 -0.00229134 0.00227953 -0.0023189 0.00265354 -0.00245669 0.00285433 -0.00248819 0.00311417 -0.00256299 0.00346457 -0.00259449 0.00369291 -0.00259843 0.00400394 -0.00249213 0.00422441 -0.0025 0.00458268 -0.00233858 0.00477559 -0.00226772 0.00510236 -0.00202756 0.00533858 -0.00175984 0.00551181 -0.00152362 0.00587402 -0.00126378 0.00600394 -0.000811024 0.00627165 -0.000405512 0.00632677 3.54331e-005 0.00663386 0.000586614 0.00664567 0.00109055 0.00680709 0.00170079 0.00679134 0.00235433 0.00677559 0.0030315 0.00682283 0.00367717 0.00662992 0.00427953 0.00658661 0.00506693 0.00651181 0.00574016 0.00636614 0.00644488 0.00620079 0.00719291 -0.027 -0.00135827zm-0.00121654 0.0242992l0.0282165 -0.0229409 0.000574803 0.000744094 0.000519685 0.000759843 0.000484252 0.000775591 0.000444882 0.000795276 0.000397638 0.000811024 0.000350394 0.000822835 0.000311024 0.000838583 0.000267717 0.00084252 0.000224409 0.000858268 0.000188976 0.000862205 0.000133858 0.000866142 0.000102362 0.000866142 5.51181e-005 0.000874016 2.3622e-005 0.000874016 -2.75591e-005 0.000870079 -7.48031e-005 0.000874016 -0.000114173 0.000862205 -0.000145669 0.000862205 -0.00019685 0.000850394 -0.00023622 0.00084252 -0.000271654 0.000834646 -0.000314961 0.000822835 -0.000346457 0.00080315 -0.000401575 0.000791339 -0.000433071 0.000775591 -0.000480315 0.000755906 -0.000511811 0.000732283 -0.000555118 0.000712598 -0.000586614 0.000688976 -0.000637795 0.000665354 -0.000673228 0.000633858 -0.000712598 0.000610236 -0.00073622 0.000574803 -0.00076378 0.000523622 -0.000779528 0.000484252 -0.000795276 0.000444882 -0.000811024 0.000393701 -0.000818898 0.000354331 -0.000834646 0.000311024 -0.000846457 0.000267717 -0.000854331 0.000224409 -0.000866142 0.000188976 -0.000862205 0.000133858 -0.000874016 0.000102362 -0.000866142 5.51181e-005 -0.000877953 1.5748e-005 -0.000870079 -2.75591e-005 -0.000870079 -7.48031e-005 -0.000862205 -0.000106299 -0.000866142 -0.000149606 -0.000850394 -0.000192913 -0.000838583 -0.00023622 -0.000838583 -0.000271654 -0.000818898 -0.000314961 -0.000811024 -0.000354331 -0.000787402 -0.000393701 -0.000775591 -0.000433071 -0.000755906 -0.000480315 -0.000728346 -0.000511811 -0.000712598 -0.000555118 -0.000692913 -0.000594488 -0.000661417 -0.000629921 -0.000641732 -0.000677165 -0.000606299 -0.000708661zm0.0842165 -0.0610551l0.000153543 0.0363465 0 0 -0.00272047 0.000110236 -0.00274803 0.000216535 -0.00274803 0.000370079 -0.00276772 0.000444882 -0.00262992 0.000586614 -0.00270079 0.000637795 -0.00262992 0.000811024 -0.00263386 0.000850394 -0.00253937 0.000937008 -0.00253543 0.00101969 -0.00243701 0.00108661 -0.00234252 0.0011378 -0.0023189 0.00118898 -0.00229921 0.00121654 -0.00218504 0.00124016 -0.00206693 0.00124803 -0.00195276 0.00125197 -0.00191339 0.00130709 -0.00179134 0.00121654 -0.00173228 0.0011811 -0.00152362 0.00120079 -0.00146457 0.0010748 -0.00132283 0.0010748 -0.0011811 0.000929134 -0.00109843 0.000905512 -0.00088189 0.000874016 -0.00080315 0.000614173 -0.000555118 0.000562992 -0.000472441 0.000429134 -0.000287402 0.000275591 -0.000204724 0.000188976 0.00011811 -0.000122047 -0.0257835 -0.0256575 0.00030315 -0.00030315 0.000338583 -0.000326772 0.00057874 -0.000566929 0.000751969 -0.000712598 0.000988189 -0.00084252 0.00108268 -0.00104331 0.00130709 -0.00101969 0.00138976 -0.00118898 0.00159843 -0.00135433 0.00175197 -0.00135827 0.0018937 -0.00150394 0.0021063 -0.00149213 0.00215354 -0.00161024 0.0023622 -0.00163386 0.00247638 -0.00159843 0.00267323 -0.00167717 0.00278346 -0.00167717 0.0028937 -0.00166929 0.00300787 -0.00164173 0.00317323 -0.00161811 0.00334252 -0.00156693 0.00344094 -0.00151181 0.00352756 -0.00143701 0.00368504 -0.00137008 0.00375984 -0.00127559 0.00391339 -0.0011063 0.00398819 -0.00106299 0.00420079 -0.000866142 0.00419291 -0.000728346 0.0043189 -0.000519685 0.00444882 -0.000358268 0.00456693 -0.000114173zm0.140047 0.140575l-0.0363504 0 0 0 -0.000251969 -0.00916535 -0.000645669 -0.00854724 -0.00101969 -0.00794094 -0.00142126 -0.00740551 -0.00167323 -0.00683858 -0.00195276 -0.00626772 -0.00224016 -0.0058622 -0.00248819 -0.00540551 -0.00270866 -0.00494882 -0.00291339 -0.00452756 -0.00309449 -0.0041811 -0.00324409 -0.00384252 -0.00339764 -0.00354331 -0.00356299 -0.00324016 -0.00365748 -0.00296063 -0.00387402 -0.00268504 -0.00398031 -0.00244488 -0.00406299 -0.00226772 -0.00414961 -0.00198425 -0.00425197 -0.00184646 -0.00427559 -0.00151575 -0.00435827 -0.00140551 -0.00432677 -0.00125591 -0.00435039 -0.000964567 -0.00429134 -0.000905512 -0.00425591 -0.000661417 -0.00415748 -0.000551181 -0.00408268 -0.000472441 -0.00399213 -0.000259843 -0.00374016 -0.000212598 -0.0036063 -0.000106299 -0.00351575 -1.1811e-005 -0.000153543 -0.0363465 0.00410236 1.1811e-005 0.00445669 0.000106299 0.00473228 0.000216535 0.00484646 0.000405512 0.00508661 0.000472441 0.00529134 0.00069685 0.00539764 0.000940945 0.0055748 0.00105118 0.00562992 0.0013937 0.00575591 0.00153543 0.00578346 0.00183858 0.00584252 0.00222441 0.00583071 0.00242126 0.00583858 0.00283858 0.00578346 0.00312205 0.00569291 0.00358268 0.00557874 0.00397244 0.00551181 0.00437795 0.00527953 0.00480315 0.00509843 0.00525591 0.00481102 0.00570472 0.00452756 0.00617323 0.00419685 0.00666535 0.00384252 0.00709055 0.00348819 0.00753543 0.00308661 0.008 0.00268504 0.00855512 0.00222835 0.00896457 0.00171654 0.00940945 0.00129528 0.00993701 0.000791339 0.0103937 0.00026378 0.010878zm-0.105618 0.12089l-0.0363425 0 0.0191693 -0.0181732 -0.000125984 1.1811e-005 0.000531496 2.75591e-005 0.00108268 7.87402e-006 0.00157087 -3.54331e-005 0.00190157 -9.44882e-005 0.0023937 -0.000192913 0.00264567 -0.000228346 0.00298031 -0.000377953 0.00323228 -0.000551181 0.0035 -0.000665354 0.00365748 -0.000818898 0.0038622 -0.00106299 0.00392913 -0.00133465 0.00398031 -0.00148031 0.00406299 -0.00180709 0.00401969 -0.00201181 0.00403543 -0.00238583 0.00391339 -0.0026378 0.00389764 -0.00291732 0.00379528 -0.00329528 0.00362598 -0.00369291 0.00344094 -0.00412598 0.00334646 -0.00457874 0.00314567 -0.00498425 0.00290157 -0.0056378 0.00269685 -0.00616535 0.00237795 -0.00679134 0.00201575 -0.00744488 0.00170079 -0.00818898 0.00125984 -0.00889764 0.000787402 -0.00976378 0.000275591 -0.0105945 0.0363504 0 -0.000275591 0.0124409 -0.000940945 0.0117677 -0.00153937 0.0111732 -0.00213386 0.0104764 -0.00272835 0.00986614 -0.00324016 0.0092126 -0.00368898 0.00858661 -0.0041811 0.00791339 -0.00457874 0.00740551 -0.00490945 0.00671654 -0.00528346 0.00612205 -0.00548819 0.00555118 -0.00564567 0.00500787 -0.00575984 0.00448031 -0.00590157 0.00392126 -0.00587795 0.00337795 -0.00588583 0.00301575 -0.00576378 0.00251575 -0.00568898 0.00218898 -0.00551181 0.00176378 -0.00527559 0.00149213 -0.00508268 0.00124409 -0.00479134 0.000956693 -0.00450394 0.000688976 -0.00412598 0.000523622 -0.00378346 0.000377953 -0.00325591 0.000188976 -0.0028937 9.84252e-005 -0.0022874 3.14961e-005 -0.00179134 -3.93701e-006 -0.00124016 -2.75591e-005 -0.000724409 -1.1811e-005 0.0191614 -0.0181732zm-0.0171732 -0.0181732l-0.00198819 0.0363465 -0.000940945 -7.48031e-005 -0.000917323 -0.000122047 -0.000893701 -0.000165354 -0.000889764 -0.000208661 -0.000874016 -0.000251969 -0.000850394 -0.000287402 -0.000822835 -0.000330709 -0.000811024 -0.000374016 -0.000783465 -0.000409449 -0.000759843 -0.000444882 -0.00073622 -0.000480315 -0.000716535 -0.000511811 -0.000681102 -0.000547244 -0.000653543 -0.000574803 -0.000622047 -0.000606299 -0.000602362 -0.000637795 -0.000570866 -0.000665354 -0.000527559 -0.000688976 -0.000503937 -0.000716535 -0.000472441 -0.00073622 -0.000433071 -0.000767717 -0.000393701 -0.000783465 -0.000362205 -0.00080315 -0.000314961 -0.000830709 -0.000279528 -0.00084252 -0.00023622 -0.000858268 -0.00019685 -0.000877953 -0.000165354 -0.000889764 -0.000106299 -0.000905512 -6.69291e-005 -0.000913386 -2.3622e-005 -0.000929134 2.75591e-005 -0.000933071 7.48031e-005 -0.000937008 0.000122047 -0.000917323 0.000169291 -0.000901575 0.000208661 -0.000889764 0.000248031 -0.000866142 0.000291339 -0.000850394 0.000334646 -0.000826772 0.000366142 -0.000807087 0.000417323 -0.000783465 0.000444882 -0.00076378 0.000476378 -0.000732283 0.000511811 -0.000716535 0.000547244 -0.000681102 0.000574803 -0.00065748 0.000602362 -0.000625984 0.000637795 -0.000602362 0.000669291 -0.000562992 0.000685039 -0.000535433 0.000716535 -0.0005 0.000744094 -0.000468504 0.000759843 -0.000433071 0.000783465 -0.000401575 0.000811024 -0.000354331 0.000822835 -0.000318898 0.000850394 -0.000283465 0.000846457 -0.00023622 0.000885827 -0.00019685 0.000889764 -0.00015748 0.000905512 -0.000110236 0.000909449 -6.29921e-005 0.000933071 -2.3622e-005 0.000929134 2.75591e-005zm-0.00073622 0.155819l0 -0.0363425 -0.0181654 0.0181732 -7.87402e-006 -0.00355906 -1.5748e-005 -0.00359449 -7.87402e-006 -0.00362598 -3.93701e-006 -0.00365354 -3.93701e-006 -0.00368504 -1.9685e-005 -0.00370472 -3.93701e-006 -0.00372835 -7.87402e-006 -0.00374409 -3.93701e-006 -0.00376772 -1.5748e-005 -0.00378346 -7.87402e-006 -0.00379134 -3.93701e-006 -0.00380709 -7.87402e-006 -0.0038189 -3.93701e-006 -0.00382283 -1.5748e-005 -0.00382283 -7.87402e-006 -0.00383071 0 -0.00382677 -1.1811e-005 -0.00382283 -1.1811e-005 -0.00382677 -7.87402e-006 -0.0038189 0 -0.00380709 -7.87402e-006 -0.0037874 -1.5748e-005 -0.00378346 -7.87402e-006 -0.00376772 -3.93701e-006 -0.00374803 -3.93701e-006 -0.00372441 -1.9685e-005 -0.00370866 -3.93701e-006 -0.0036811 -7.87402e-006 -0.00365354 -3.93701e-006 -0.00362598 -1.5748e-005 -0.00359449 -7.87402e-006 -0.00355906 0.0363425 0 1.1811e-005 0.00355906 1.1811e-005 0.00359449 0 0.00362598 1.1811e-005 0.00365354 1.1811e-005 0.0036811 1.1811e-005 0.00370866 0 0.00372441 1.1811e-005 0.00374803 7.87402e-006 0.00376772 1.1811e-005 0.00378346 0 0.0037874 7.87402e-006 0.00380709 1.5748e-005 0.0038189 3.93701e-006 0.00382677 7.87402e-006 0.00382283 3.93701e-006 0.00382677 7.87402e-006 0.00383071 1.5748e-005 0.00382283 3.93701e-006 0.00382283 7.87402e-006 0.0038189 3.93701e-006 0.00380709 1.1811e-005 0.00379134 1.1811e-005 0.00378346 0 0.00376772 1.1811e-005 0.00374409 1.1811e-005 0.00372835 1.1811e-005 0.00370472 0 0.00368504 1.1811e-005 0.00365354 7.87402e-006 0.00362598 1.1811e-005 0.00359449 0 0.00355906 -0.0181693 0.0181693zm-0.0181654 -0.0181693l0.0363346 0 -1.9685e-005 0.000933071 -7.48031e-005 0.000925197 -0.000106299 0.000905512 -0.000169291 0.000893701 -0.000204724 0.000877953 -0.000240157 0.000870079 -0.000283465 0.000838583 -0.000330709 0.000826772 -0.000362205 0.000807087 -0.000397638 0.000783465 -0.000433071 0.000759843 -0.000472441 0.00073622 -0.000515748 0.000716535 -0.00053937 0.000685039 -0.000566929 0.00065748 -0.000598425 0.000633858 -0.000637795 0.000602362 -0.000653543 0.000566929 -0.000685039 0.000543307 -0.000716535 0.000503937 -0.000740157 0.000472441 -0.000755906 0.000433071 -0.000783465 0.000409449 -0.000811024 0.000358268 -0.000822835 0.000326772 -0.00084252 0.000287402 -0.000862205 0.000240157 -0.000877953 0.000204724 -0.000897638 0.000161417 -0.000909449 0.000114173 -0.00092126 7.48031e-005 -0.000937008 1.9685e-005 -0.000929134 -1.9685e-005 -0.000925197 -7.48031e-005 -0.000913386 -0.000114173 -0.000889764 -0.000161417 -0.00088189 -0.000204724 -0.000862205 -0.000240157 -0.000846457 -0.000287402 -0.000818898 -0.000326772 -0.000811024 -0.000358268 -0.000783465 -0.000409449 -0.000755906 -0.000433071 -0.000744094 -0.000472441 -0.000712598 -0.000503937 -0.000681102 -0.000543307 -0.000661417 -0.000566929 -0.000633858 -0.000602362 -0.000602362 -0.000633858 -0.000562992 -0.00065748 -0.000543307 -0.000685039 -0.000503937 -0.000716535 -0.000480315 -0.00073622 -0.000433071 -0.000759843 -0.000405512 -0.000783465 -0.000354331 -0.000807087 -0.000334646 -0.000826772 -0.000279528 -0.000838583 -0.000244094 -0.000870079 -0.000200787 -0.000877953 -0.000161417 -0.000893701 -0.000114173 -0.000905512 -7.48031e-005 -0.000925197 -1.9685e-005 -0.000933071z"/>
   <path id="_233984920" class="fil2" d="M2.67515 1.28254l-0.0357638 0.00683465 -0.000153543 -0.00092126 -0.000110236 -0.000925197 -5.11811e-005 -0.000917323 -1.5748e-005 -0.000905512 3.14961e-005 -0.000905512 8.66142e-005 -0.000897638 0.00011811 -0.00088189 0.000161417 -0.000874016 0.000208661 -0.000862205 0.000251969 -0.00084252 0.000287402 -0.000834646 0.000326772 -0.000811024 0.000362205 -0.000799213 0.000401575 -0.000779528 0.000440945 -0.000751969 0.000476378 -0.000740157 0.000503937 -0.000708661 0.000543307 -0.000685039 0.000566929 -0.000661417 0.000610236 -0.000629921 0.000641732 -0.000606299 0.00065748 -0.000570866 0.00069685 -0.000547244 0.000728346 -0.000503937 0.000748031 -0.000480315 0.000775591 -0.000440945 0.000807087 -0.000397638 0.000826772 -0.000366142 0.000850394 -0.000326772 0.000874016 -0.000287402 0.000893701 -0.000240157 0.000917323 -0.000200787 0.000925197 -0.000149606 0.000917323 -0.000106299 0.000925197 -5.90551e-005 0.000905512 -1.1811e-005 0.000901575 3.54331e-005 0.000893701 7.87402e-005 0.000885827 0.000125984 0.000870079 0.000161417 0.000862205 0.000208661 0.000846457 0.000248031 0.000838583 0.000287402 0.000807087 0.000326772 0.00080315 0.000366142 0.000775591 0.000397638 0.000755906 0.000440945 0.00073622 0.000472441 0.000704724 0.000507874 0.000692913 0.00053937 0.000661417 0.000574803 0.000622047 0.000606299 0.000610236 0.000637795 0.000566929 0.000665354 0.000547244 0.00069685 0.000511811 0.000728346 0.000472441 0.000748031 0.000444882 0.000775591 0.000401575 0.00080315 0.000358268 0.000826772 0.000334646 0.000850394 0.000279528 0.000874016 0.000248031 0.000893701 0.000192913 0.000917323zm-0.0296929 0.0806575l-0.0182402 -0.0314882 0 0 0.00151181 -0.000964567 0.00122047 -0.000889764 0.00123228 -0.00103543 0.0010315 -0.00114567 0.001 -0.00118504 0.000952756 -0.0012126 0.000850394 -0.00144094 0.000834646 -0.00142913 0.000673228 -0.00156299 0.000685039 -0.00160236 0.000606299 -0.00170079 0.000547244 -0.00179134 0.000437008 -0.00186614 0.000389764 -0.00185433 0.000291339 -0.00190157 0.000267717 -0.00194094 0.000173228 -0.00181496 0.000169291 -0.00196457 0.000106299 -0.00181102 3.93701e-005 -0.00173622 -1.1811e-005 -0.00184252 -5.51181e-005 -0.00158268 -9.05512e-005 -0.00152362 -0.00011811 -0.00138189 -6.29921e-005 -0.00129921 -0.000141732 -0.00112598 -0.000137795 -0.000952756 -6.29921e-005 -0.000755906 -0.000129921 -0.000610236 -2.75591e-005 -0.000401575 1.1811e-005 -9.05512e-005 -2.3622e-005 8.26772e-005 0.0357638 -0.00683465 2.75591e-005 0.00034252 0.000133858 0.000653543 0.000169291 0.000830709 0.000125984 0.00103937 0.000208661 0.00133071 0.000145669 0.00151181 0.000133858 0.00170079 0.000208661 0.00187795 0.000125984 0.00208661 8.26772e-005 0.00223622 5.51181e-005 0.00244094 7.87402e-006 0.00241339 -3.54331e-005 0.00272441 -0.000106299 0.0028189 -0.000169291 0.0028189 -0.000326772 0.00309843 -0.000409449 0.00307874 -0.000562992 0.00318504 -0.000677165 0.00327559 -0.000862205 0.00329528 -0.000980315 0.00335433 -0.00118504 0.00341339 -0.00138583 0.00345276 -0.00167717 0.00341732 -0.00183071 0.0034252 -0.00212992 0.0032874 -0.00238189 0.00335039 -0.00269685 0.0031811 -0.00304331 0.00300394 -0.00322047 0.00288189 -0.00364173 0.00274803 -0.00379528 0.00238189zm-0.0543307 0.000610236l-0.0364764 0 0.0185276 -0.0181732 -5.90551e-005 0 0.00015748 -6.29921e-005 0.000338583 6.29921e-005 0.00057874 -7.87402e-006 0.000610236 -1.5748e-005 0.000850394 -2.75591e-005 0.000929134 -4.33071e-005 0.00108661 -7.08661e-005 0.00122047 -9.05512e-005 0.00136614 -0.000110236 0.00148031 -7.48031e-005 0.00161417 -0.000177165 0.00171654 -0.000216535 0.00177165 -0.000181102 0.0018622 -0.000291339 0.00201969 -0.000279528 0.00203937 -0.000389764 0.00212205 -0.000377953 0.00212598 -0.000429134 0.00226378 -0.000496063 0.00224016 -0.000551181 0.0022874 -0.000551181 0.00234646 -0.000692913 0.00237795 -0.000692913 0.00233071 -0.000838583 0.00235433 -0.000783465 0.00244094 -0.000933071 0.00231496 -0.00101969 0.00238189 -0.00104331 0.00230315 -0.00112992 0.00236614 -0.00115354 0.00220079 -0.00125591 0.0182402 0.0314882 -0.00334646 0.00183071 -0.00320866 0.00172835 -0.00330709 0.00155906 -0.00323622 0.00147244 -0.00331496 0.00129921 -0.00314961 0.00121654 -0.00320866 0.0012126 -0.00319291 0.000984252 -0.00309055 0.000972441 -0.00304724 0.00084252 -0.00300787 0.000830709 -0.00296063 0.000700787 -0.00282677 0.000629921 -0.00283858 0.000574803 -0.00268504 0.000523622 -0.00261417 0.000385827 -0.00245669 0.000417323 -0.0024252 0.000295276 -0.00233071 0.000326772 -0.00215748 0.000212598 -0.00203937 0.000181102 -0.00191339 0.000216535 -0.0017874 0.000114173 -0.00165354 9.05512e-005 -0.00150787 6.69291e-005 -0.00135827 4.72441e-005 -0.00113386 2.75591e-005 -0.00103937 1.5748e-005 -0.000720472 3.93701e-006 -0.000622047 7.48031e-005 -0.000433071 -7.48031e-005 -0.000240157 0 0.0185236 -0.0181693zm-0.0364764 0l0 -0.0185276 0.0185276 0.000354331 -0.0185276 0.0181732zm0 0.0765354l0 -0.0765354 0.0364764 0 0 0.0765354 -0.0364764 0zm0 0l0.0364764 0 -2.75591e-005 0.000940945 -7.08661e-005 0.00092126 -0.000110236 0.000913386 -0.000161417 0.000901575 -0.000208661 0.000877953 -0.000240157 0.000866142 -0.000295276 0.000846457 -0.000318898 0.000826772 -0.000366142 0.000811024 -0.000405512 0.000787402 -0.000440945 0.000759843 -0.000472441 0.000744094 -0.000511811 0.000716535 -0.000535433 0.000685039 -0.000574803 0.000661417 -0.000602362 0.000633858 -0.000641732 0.000602362 -0.000653543 0.000574803 -0.000685039 0.000543307 -0.000716535 0.000511811 -0.000744094 0.000472441 -0.000759843 0.000440945 -0.000795276 0.000397638 -0.00080315 0.000366142 -0.000834646 0.000326772 -0.000838583 0.000287402 -0.000874016 0.000248031 -0.000877953 0.000200787 -0.000893701 0.000165354 -0.000917323 0.000114173 -0.000917323 7.08661e-005 -0.000948819 2.3622e-005 -0.000933071 -2.3622e-005 -0.000925197 -7.08661e-005 -0.000909449 -0.000114173 -0.000909449 -0.000165354 -0.000870079 -0.000200787 -0.000874016 -0.000248031 -0.000846457 -0.000287402 -0.000818898 -0.000326772 -0.000818898 -0.000366142 -0.000787402 -0.000397638 -0.000755906 -0.000440945 -0.000744094 -0.000472441 -0.000712598 -0.000511811 -0.000688976 -0.000543307 -0.000661417 -0.000574803 -0.000633858 -0.000602362 -0.000602362 -0.000633858 -0.00057874 -0.000661417 -0.00053937 -0.000685039 -0.000511811 -0.000716535 -0.000476378 -0.000744094 -0.000437008 -0.000759843 -0.000393701 -0.000787402 -0.000366142 -0.000811024 -0.000334646 -0.000826772 -0.000279528 -0.000846457 -0.000248031 -0.000866142 -0.000204724 -0.000877953 -0.000161417 -0.000901575 -0.000114173 -0.000913386 -7.87402e-005 -0.00092126 -1.5748e-005 -0.000940945z"/>
   <path id="_233984704" class="fil3" d="M2.16813 1.01223c0.172677,-0.172689 0.452654,-0.172689 0.625331,0 0.172677,0.172685 0.172677,0.452677 0,0.625362 -0.172677,0.172689 -0.452654,0.172689 -0.625331,0 -0.172689,-0.172685 -0.172689,-0.452677 0,-0.625362zm0.0650118 0.0650157c0.136772,-0.136787 0.358531,-0.136787 0.495311,0 0.136772,0.13678 0.136772,0.358547 0,0.495331 -0.13678,0.136787 -0.358539,0.136787 -0.495311,0 -0.13678,-0.136783 -0.13678,-0.358551 0,-0.495331z"/>
   <path id="_233984488" class="fil3" d="M2.80715 1.64407l3.93701e-006 0c0.0202244,-0.0202244 0.0532992,-0.0202244 0.0735197,0l0.0851339 0.0851339c0.0202244,0.0202205 0.0202283,0.0532992 0,0.0735236l0 3.93701e-006c-0.0202205,0.0202165 -0.0533031,0.0202165 -0.0735236,0l-0.0851339 -0.0851378c-0.0202165,-0.0202165 -0.0202165,-0.0533031 0,-0.0735236z"/>
   <path id="_233984272" class="fil4" d="M1.05867 2.51046c0.0102126,-0.0176417 0.0227441,-0.0314488 0.0377165,-0.041311 0.0149685,-0.00986614 0.031563,-0.0147402 0.0500157,-0.0147402 0.0330709,0 0.0587165,0.012185 0.0771693,0.0366693 0.0183346,0.0244882 0.0275,0.0622008 0.0275,0.112913l0 0.225126 -0.0690472 0 0 -0.225823c0,-0.0337677 -0.00487402,-0.0580236 -0.0147362,-0.072878 -0.0098622,-0.0148504 -0.0246024,-0.0222795 -0.0440984,-0.0222795 -0.0140394,0 -0.0265709,0.00406299 -0.0374803,0.0120709 -0.0110236,0.00800394 -0.0200748,0.0191457 -0.0270394,0.033189l0 0.27572 -0.0690472 0 0 -0.530323 0.0690472 0 0 0.211665zm0.256693 0.111634c0,-0.0487402 0.0127638,-0.0888898 0.0381772,-0.120453 0.0255315,-0.0314488 0.0604606,-0.0472323 0.104906,-0.0472323 0.0442126,0 0.0791417,0.0156654 0.104673,0.0471142 0.0256457,0.0313307 0.0384094,0.0715984 0.0384094,0.120571l0 0.0468819c0,0.0492047 -0.0126496,0.0893543 -0.0381772,0.120571 -0.0255315,0.0312165 -0.0603425,0.0467638 -0.104555,0.0467638 -0.0446772,0 -0.0797244,-0.0155472 -0.105256,-0.0467638 -0.0254134,-0.0312165 -0.0381772,-0.0713661 -0.0381772,-0.120571l0 -0.0468819zm0.0689291 0.0468819c0,0.0335354 0.00615354,0.0611575 0.0184528,0.0827402 0.012185,0.0214685 0.0308661,0.0322598 0.0560512,0.0322598 0.0244843,0 0.0429331,-0.0107913 0.0552362,-0.0322598 0.0124173,-0.0215827 0.0185669,-0.0492047 0.0185669,-0.0827402l0 -0.0468819c0,-0.033189 -0.00614961,-0.0604606 -0.0185669,-0.0821614 -0.0123031,-0.0216969 -0.0308701,-0.0324921 -0.0555866,-0.0324921 -0.0249488,0 -0.0435157,0.0107953 -0.0557008,0.0322638 -0.0122992,0.0215827 -0.0184528,0.0490866 -0.0184528,0.0823898l0 0.0468819zm0.370996 -0.299161l0 0.0914409 0.0574449 0 0 0.0493189 -0.0574449 0 0 0.218976c0,0.0190315 0.0027874,0.0326102 0.00847244,0.0406181 0.00568504,0.00800394 0.0129961,0.0120669 0.0220472,0.0120669 0.00545669,0 0.010563,-0.000346457 0.0152047,-0.00104331 0.00464173,-0.00069685 0.0100945,-0.00162598 0.0164764,-0.00301969l0.00707874 0.0475787c-0.00765748,0.00313386 -0.0163622,0.00568898 -0.0259921,0.00766142 -0.00963386,0.00197244 -0.0194961,0.00289764 -0.0297087,0.00289764 -0.0261102,0 -0.0463031,-0.00858661 -0.0606929,-0.0256457 -0.0143898,-0.0171732 -0.0215827,-0.0442126 -0.0215827,-0.0811142l0 -0.218976 -0.0479252 0 0 -0.0493189 0.0479252 0 0 -0.0914409 0.0686969 0zm0.258319 0.466496c-0.043748,0 -0.0786772,-0.0152008 -0.10502,-0.0456024 -0.0262283,-0.0302874 -0.0394567,-0.0692795 -0.0394567,-0.116626l0 -0.0537283c0,-0.0480433 0.0128819,-0.0877283 0.0386417,-0.119063 0.0256457,-0.0312165 0.0583701,-0.0468819 0.0980591,-0.0468819 0.0416614,0 0.0738031,0.0142756 0.0962008,0.0427047 0.0223976,0.0284331 0.0336535,0.0667244 0.0336535,0.114768l0 0.0475787 -0.197858 0 0 0.014622c0,0.0317953 0.00696457,0.0580236 0.0208898,0.0787953 0.0139252,0.0207717 0.0337677,0.0310984 0.0592992,0.0310984 0.0191457,0 0.0353937,-0.00301575 0.0489724,-0.00905118 0.0136929,-0.00591732 0.0265709,-0.0147362 0.0387559,-0.0263425l0.0218189 0.0428228c-0.0116063,0.0132283 -0.0271575,0.0239016 -0.0466496,0.032374 -0.0194961,0.00835433 -0.0418937,0.0125315 -0.0673071,0.0125315zm-0.00777559 -0.32887c-0.0199606,0 -0.0359724,0.00974803 -0.0479252,0.0291299 -0.0120709,0.019378 -0.018685,0.0438622 -0.0200787,0.0735709l0.129508 0 0 -0.0139252c0,-0.0261102 -0.00522047,-0.0473465 -0.0156654,-0.0639409 -0.0103307,-0.0165945 -0.0256457,-0.0248346 -0.0458386,-0.0248346zm0.264579 0.321677l-0.0690433 0 0 -0.530323 0.0690433 0 0 0.530323z"/>
   <path id="_233984056" class="fil5" d="M2.4302 2.46125l0 0.393043c0,0.0393386 -0.00893307,0.0698583 -0.026689,0.0912126 -0.0177559,0.0214685 -0.0427047,0.0321417 -0.0746181,0.0321417 -0.00684646,0 -0.012878,-0.00046063 -0.0183346,-0.00150787 -0.00545276,-0.00104331 -0.0113701,-0.00255118 -0.0176378,-0.00464173l0.0037126 -0.052685c0.00359843,0.0013937 0.00777559,0.00243701 0.0124173,0.00336614 0.00464173,0.000929134 0.00893701,0.0013937 0.0129961,0.0013937 0.0120709,0 0.0215866,-0.00568504 0.0286654,-0.0171732 0.00696063,-0.0114882 0.0104449,-0.0287795 0.0104449,-0.0522205l0 -0.392929 0.0690433 0zm0 -0.0965472l-0.0690433 0 0 -0.0659134 0.0690433 0 0 0.0659134zm0.0690472 0.257386c0,-0.0487402 0.0127638,-0.0888898 0.0381772,-0.120453 0.0255315,-0.0314488 0.0604606,-0.0472323 0.104906,-0.0472323 0.0442126,0 0.0791417,0.0156654 0.104673,0.0471142 0.0256457,0.0313307 0.0384094,0.0715984 0.0384094,0.120571l0 0.0468819c0,0.0492047 -0.0126496,0.0893543 -0.0381772,0.120571 -0.0255315,0.0312165 -0.0603425,0.0467638 -0.104555,0.0467638 -0.0446772,0 -0.0797244,-0.0155472 -0.105256,-0.0467638 -0.0254134,-0.0312165 -0.0381772,-0.0713661 -0.0381772,-0.120571l0 -0.0468819zm0.0689291 0.0468819c0,0.0335354 0.00615354,0.0611575 0.0184528,0.0827402 0.012185,0.0214685 0.0308661,0.0322598 0.0560512,0.0322598 0.0244843,0 0.0429331,-0.0107913 0.0552362,-0.0322598 0.0124173,-0.0215827 0.0185669,-0.0492047 0.0185669,-0.0827402l0 -0.0468819c0,-0.033189 -0.00614961,-0.0604606 -0.0185669,-0.0821614 -0.0123031,-0.0216969 -0.0308701,-0.0324921 -0.0555866,-0.0324921 -0.0249488,0 -0.0435157,0.0107953 -0.0557008,0.0322638 -0.0122992,0.0215827 -0.0184528,0.0490866 -0.0184528,0.0823898l0 0.0468819zm0.555276 0.00684646c0,0.0487402 -0.0105591,0.0876142 -0.0316811,0.11674 -0.0211181,0.0291299 -0.0507087,0.043748 -0.089122,0.043748 -0.0192638,0 -0.0360866,-0.00429134 -0.0504764,-0.0127638 -0.0143898,-0.00847244 -0.0264606,-0.0210039 -0.0362087,-0.0375984l-0.0051063 0.0431693 -0.0597598 0 0 -0.530323 0.0690433 0 0 0.20122c0.00951575,-0.0147362 0.0210039,-0.0261102 0.0345827,-0.0338858 0.0136929,-0.00777559 0.0293583,-0.0117205 0.0473465,-0.0117205 0.0387598,0 0.0685827,0.0155512 0.0897008,0.0467677 0.021122,0.0312165 0.0316811,0.0727598 0.0316811,0.12463l0 0.0500157zm-0.0686969 -0.0500157c0,-0.0353937 -0.00568504,-0.0638228 -0.0168268,-0.0854094 -0.0112559,-0.0214685 -0.0290118,-0.0322598 -0.0532638,-0.0322598 -0.0154331,0 -0.0284331,0.00464173 -0.0392244,0.013811 -0.0107913,0.00916535 -0.0192638,0.0214685 -0.0252992,0.0369016l0 0.17685c0.00603543,0.0149724 0.014622,0.0265748 0.0254173,0.034815 0.0109055,0.00824016 0.0241339,0.0124173 0.0398031,0.0124173 0.024252,0 0.0418898,-0.00963386 0.0529134,-0.0288976 0.0109094,-0.0192598 0.0164803,-0.0453701 0.0164803,-0.0782126l0 -0.0500157zm0.406969 0.0500157c0,0.0487402 -0.0105591,0.0876142 -0.0316811,0.11674 -0.0211181,0.0291299 -0.0507087,0.043748 -0.089122,0.043748 -0.0192638,0 -0.0360866,-0.00429134 -0.0504764,-0.0127638 -0.0143898,-0.00847244 -0.0264606,-0.0210039 -0.0362087,-0.0375984l-0.0051063 0.0431693 -0.0597598 0 0 -0.530323 0.0690433 0 0 0.20122c0.00951575,-0.0147362 0.0210039,-0.0261102 0.0345827,-0.0338858 0.0136929,-0.00777559 0.0293583,-0.0117205 0.0473465,-0.0117205 0.0387598,0 0.0685827,0.0155512 0.0897008,0.0467677 0.021122,0.0312165 0.0316811,0.0727598 0.0316811,0.12463l0 0.0500157zm-0.0686969 -0.0500157c0,-0.0353937 -0.00568504,-0.0638228 -0.0168268,-0.0854094 -0.0112559,-0.0214685 -0.0290118,-0.0322598 -0.0532638,-0.0322598 -0.0154331,0 -0.0284331,0.00464173 -0.0392244,0.013811 -0.0107913,0.00916535 -0.0192638,0.0214685 -0.0252992,0.0369016l0 0.17685c0.00603543,0.0149724 0.014622,0.0265748 0.0254173,0.034815 0.0109055,0.00824016 0.0241339,0.0124173 0.0398031,0.0124173 0.024252,0 0.0418898,-0.00963386 0.0529134,-0.0288976 0.0109094,-0.0192598 0.0164803,-0.0453701 0.0164803,-0.0782126l0 -0.0500157zm0.267484 0.210504c-0.043748,0 -0.0786772,-0.0152008 -0.10502,-0.0456024 -0.0262283,-0.0302874 -0.0394567,-0.0692795 -0.0394567,-0.116626l0 -0.0537283c0,-0.0480433 0.0128819,-0.0877283 0.0386417,-0.119063 0.0256457,-0.0312165 0.0583701,-0.0468819 0.0980591,-0.0468819 0.0416614,0 0.0738031,0.0142756 0.0962008,0.0427047 0.0223976,0.0284331 0.0336535,0.0667244 0.0336535,0.114768l0 0.0475787 -0.197858 0 0 0.014622c0,0.0317953 0.00696457,0.0580236 0.0208898,0.0787953 0.0139252,0.0207717 0.0337677,0.0310984 0.0592992,0.0310984 0.0191457,0 0.0353937,-0.00301575 0.0489724,-0.00905118 0.0136929,-0.00591732 0.0265709,-0.0147362 0.0387559,-0.0263425l0.0218189 0.0428228c-0.0116063,0.0132283 -0.0271575,0.0239016 -0.0466496,0.032374 -0.0194961,0.00835433 -0.0418937,0.0125315 -0.0673071,0.0125315zm-0.00777559 -0.32887c-0.0199606,0 -0.0359724,0.00974803 -0.0479252,0.0291299 -0.0120709,0.019378 -0.018685,0.0438622 -0.0200787,0.0735709l0.129508 0 0 -0.0139252c0,-0.0261102 -0.00522047,-0.0473465 -0.0156654,-0.0639409 -0.0103307,-0.0165945 -0.0256457,-0.0248346 -0.0458386,-0.0248346zm0.349524 0.0119528l-0.0322598 -0.00174016c-0.0142717,0 -0.0261102,0.00429528 -0.0355079,0.0128819 -0.00940157,0.00870472 -0.0165945,0.0207717 -0.0215866,0.036437l0 0.262146 -0.0690433 0 0 -0.367862 0.0628937 0 0.0051063 0.0553543c0.00766142,-0.0194961 0.0177559,-0.0346969 0.0302874,-0.0457205 0.0124173,-0.0110276 0.0268071,-0.0164803 0.0431693,-0.0164803 0.00452756,0 0.00916929,0.000350394 0.0139252,0.00116142 0.00475984,0.000811024 0.00847244,0.00174016 0.0111417,0.00290157l-0.00812598 0.0609213z"/>
   <path id="_233983840" class="fil6" d="M1.38092 3.18547l0.00265354 0.0149409 0.000665354 0 0.00319685 -0.0149409 0.0246969 -0.0786535 0.018063 0 0.024811 0.0786535 0.00355118 0.0166575 0.000665354 0 0.00331496 -0.0166575 0.0194291 -0.0786535 0.0224331 0 -0.0358937 0.123673 -0.0181811 0 -0.0239134 -0.0753346 -0.00511024 -0.0210276 -0.000704724 0.00011811 -0.00491339 0.0209094 -0.0235276 0.0753346 -0.0181772 0 -0.0358937 -0.123673 0.0223937 0 0.0204409 0.0786535zm0.177157 0l0.00265354 0.0149409 0.000665354 0 0.00319685 -0.0149409 0.0246969 -0.0786535 0.018063 0 0.024811 0.0786535 0.00355118 0.0166575 0.000665354 0 0.00331496 -0.0166575 0.0194291 -0.0786535 0.0224331 0 -0.0358937 0.123673 -0.0181811 0 -0.0239134 -0.0753346 -0.00511024 -0.0210276 -0.000704724 0.00011811 -0.00491339 0.0209094 -0.0235276 0.0753346 -0.0181772 0 -0.0358937 -0.123673 0.0223937 0 0.0204409 0.0786535zm0.177157 0l0.00265354 0.0149409 0.000665354 0 0.00319685 -0.0149409 0.0246969 -0.0786535 0.018063 0 0.024811 0.0786535 0.00355118 0.0166575 0.000665354 0 0.00331496 -0.0166575 0.0194291 -0.0786535 0.0224331 0 -0.0358937 0.123673 -0.0181811 0 -0.0239134 -0.0753346 -0.00511024 -0.0210276 -0.000704724 0.00011811 -0.00491339 0.0209094 -0.0235276 0.0753346 -0.0181772 0 -0.0358937 -0.123673 0.0223937 0 0.0204409 0.0786535zm0.170098 0.0450197l-0.0225118 0 0 -0.0230945 0.0225118 0 0 0.0230945zm0.0605472 -0.10713c0.00425197,-0.00592913 0.00951969,-0.0105709 0.0157205,-0.0138898 0.00620472,-0.00331496 0.0130709,-0.00495276 0.0206378,-0.00495276 0.013189,0 0.0234488,0.00398031 0.0307835,0.0118976 0.00737402,0.00792126 0.0110394,0.0200906 0.0110394,0.0365551l0 0.0775197 -0.0225118 0 0 -0.0777126c0,-0.0102244 -0.00218504,-0.017752 -0.00659055,-0.0226299 -0.00437008,-0.00487402 -0.0108858,-0.00733465 -0.0195866,-0.00733465 -0.00624016,0 -0.0118976,0.00148425 -0.0169685,0.00440945 -0.0050748,0.0029252 -0.00924803,0.00690551 -0.0125236,0.011937l0 0.0913307 -0.0225118 0 0 -0.178291 0.0225118 0 0 0.0711614zm0.105256 0.0441614c0,-0.0182953 0.00495669,-0.0333543 0.0148661,-0.0452165 0.00990945,-0.0118583 0.0233661,-0.0177874 0.0403386,-0.0177874 0.0171654,0 0.0307047,0.00588976 0.0406496,0.0177126 0.00994882,0.0118189 0.0149055,0.0269173 0.0149055,0.0452913l0 0.0025c0,0.0184528 -0.00495669,0.0335512 -0.0148661,0.0452913 -0.00990945,0.0117441 -0.0233661,0.0175945 -0.0404567,0.0175945 -0.0170472,0 -0.0305866,-0.00588976 -0.0404921,-0.0176732 -0.00994882,-0.0117795 -0.0149449,-0.0268386 -0.0149449,-0.0452126l0 -0.0025zm0.0225118 0.0025c0,0.0131063 0.00276772,0.0239528 0.00831102,0.0324961 0.0055,0.00854331 0.0137323,0.0127953 0.0246142,0.0127953 0.0107283,0 0.0188858,-0.00425197 0.0244646,-0.0127953 0.00557874,-0.00854331 0.00834646,-0.0193898 0.00834646,-0.0324961l0 -0.0025c0,-0.0129528 -0.00280709,-0.0237559 -0.00838583,-0.032378 -0.00561811,-0.00862205 -0.013811,-0.0129134 -0.0246575,-0.0129134 -0.0107283,0 -0.0188819,0.00429134 -0.0243819,0.0129134 -0.00554331,0.00862205 -0.00831102,0.0194252 -0.00831102,0.032378l0 0.0025zm0.14552 -0.0930472l0 0.0298425 0.0234094 0 0 0.0167008 -0.0234094 0 0 0.0750984c0,0.00577559 0.00116929,0.00987008 0.00359055,0.0122126 0.00237795,0.00237795 0.00557874,0.00354724 0.00955512,0.00354724 0.0012874,0 0.00269291,-0.000153543 0.00425197,-0.000464567 0.00156299,-0.000314961 0.0029685,-0.000665354 0.00417717,-0.00113386l0.00300394 0.0154488c-0.00167717,0.00136614 -0.0041378,0.00249606 -0.00737402,0.00335433 -0.00324016,0.000897638 -0.00651575,0.00132677 -0.00979134,0.00132677 -0.00912992,0 -0.0164252,-0.00276772 -0.021811,-0.00826772 -0.00542126,-0.00554331 -0.00811417,-0.0142008 -0.00811417,-0.0260236l0 -0.0750984 -0.0196614 0 0 -0.0167008 0.0196614 0 0 -0.0298425 0.0225118 0zm0.102488 0.155933c-0.0172047,0 -0.0308976,-0.00573228 -0.0410827,-0.0172047 -0.0101811,-0.0114685 -0.015252,-0.0263701 -0.015252,-0.0446299l0 -0.0050315c0,-0.0176339 0.00522835,-0.0322638 0.0157205,-0.0439685 0.0104567,-0.0117047 0.0228622,-0.0175551 0.0371811,-0.0175551 0.0166969,0 0.0292992,0.0050315 0.0378425,0.0150984 0.00854331,0.010063 0.0127953,0.0234843 0.0127953,0.0402598l0 0.0140433 -0.0802126 0 -0.000350394 0.000586614c0.00023622,0.0118622 0.00324016,0.0216535 0.00901181,0.0292992 0.00581496,0.00768504 0.0139291,0.0115079 0.0243465,0.0115079 0.00764567,0 0.0143189,-0.00109055 0.0200906,-0.00323622 0.00573622,-0.00218504 0.010689,-0.00518898 0.0149016,-0.00897244l0.00877953 0.0145906c-0.00440945,0.00437008 -0.0102205,0.00799606 -0.0174764,0.0108819 -0.00722047,0.00288976 -0.0159961,0.00433071 -0.0262953,0.00433071zm-0.00343307 -0.110677c-0.0075315,0 -0.0139685,0.00319685 -0.019311,0.00955512 -0.00530709,0.0063622 -0.00858268,0.0143583 -0.00983465,0.0239567l0.00023622 0.000582677 0.0570354 0 0 -0.00296457c0,-0.00885433 -0.00233858,-0.0162677 -0.00705906,-0.0221969 -0.00475984,-0.0059685 -0.0117441,-0.00893307 -0.0210669,-0.00893307zm0.10026 0.10826l-0.0225079 0 0 -0.178291 0.0225079 0 0 0.178291zm0.0605906 -0.123673l0 0.133854c0,0.0127205 -0.00327953,0.0225118 -0.00983071,0.0294173 -0.00655512,0.00690551 -0.0156457,0.0103386 -0.027311,0.0103386 -0.00237795,0 -0.00452362,-0.00015748 -0.00647638,-0.000507874 -0.00194882,-0.000350394 -0.00401969,-0.000858268 -0.00620472,-0.00155906l0.00160236 -0.0177126c0.00105118,0.000389764 0.0025748,0.000700787 0.00456299,0.000976378 0.00199213,0.000271654 0.00362992,0.000389764 0.00491732,0.000389764 0.00495276,0 0.0088937,-0.00167717 0.0118189,-0.00503543 0.0029252,-0.00335433 0.00440945,-0.00877559 0.00440945,-0.0163465l0 -0.133815 0.0225118 0zm-0.000704724 -0.0321063l-0.0225079 0 0 -0.0225118 0.0225079 0 0 0.0225118zm0.0300787 0.092811c0,-0.0182953 0.00495669,-0.0333543 0.0148661,-0.0452165 0.00990945,-0.0118583 0.0233661,-0.0177874 0.0403386,-0.0177874 0.0171654,0 0.0307047,0.00588976 0.0406496,0.0177126 0.00994882,0.0118189 0.0149055,0.0269173 0.0149055,0.0452913l0 0.0025c0,0.0184528 -0.00495669,0.0335512 -0.0148661,0.0452913 -0.00990945,0.0117441 -0.0233661,0.0175945 -0.0404567,0.0175945 -0.0170472,0 -0.0305866,-0.00588976 -0.0404921,-0.0176732 -0.00994882,-0.0117795 -0.0149449,-0.0268386 -0.0149449,-0.0452126l0 -0.0025zm0.0225118 0.0025c0,0.0131063 0.00276772,0.0239528 0.00831102,0.0324961 0.0055,0.00854331 0.0137323,0.0127953 0.0246142,0.0127953 0.0107283,0 0.0188858,-0.00425197 0.0244646,-0.0127953 0.00557874,-0.00854331 0.00834646,-0.0193898 0.00834646,-0.0324961l0 -0.0025c0,-0.0129528 -0.00280709,-0.0237559 -0.00838583,-0.032378 -0.00561811,-0.00862205 -0.013811,-0.0129134 -0.0246575,-0.0129134 -0.0107283,0 -0.0188819,0.00429134 -0.0243819,0.0129134 -0.00554331,0.00862205 -0.00831102,0.0194252 -0.00831102,0.032378l0 0.0025zm0.221402 0.00331496c0,0.0178268 -0.00429134,0.0322244 -0.012878,0.0431496 -0.00854331,0.0109606 -0.0203622,0.0164213 -0.0353425,0.0164213 -0.00815354,0 -0.0152559,-0.00159843 -0.0212638,-0.00475984 -0.00604724,-0.00315748 -0.011,-0.00783858 -0.0149803,-0.0140039l-0.00273228 0.0163465 -0.0184134 0 0 -0.178291 0.0225118 0 0 0.069248c0.00390157,-0.0055 0.00869685,-0.00967323 0.0144724,-0.0125984 0.00573622,-0.00288976 0.0124843,-0.00433071 0.0201693,-0.00433071 0.0152165,0 0.0271142,0.00608661 0.0356575,0.0182953 0.00854331,0.0121732 0.0127992,0.028248 0.0127992,0.0481417l0 0.00238189zm-0.0225118 -0.00238189c0,-0.0142008 -0.00261417,-0.025748 -0.00784252,-0.0347205 -0.00522835,-0.00893307 -0.0131457,-0.0134213 -0.0238346,-0.0134213 -0.00690551,0 -0.0127598,0.00167717 -0.0175197,0.00507087 -0.00475984,0.00339764 -0.00858268,0.00796063 -0.0113898,0.0136969l0 0.0536024c0.00288583,0.00608661 0.00666929,0.0108465 0.0113898,0.0142795 0.0046811,0.00343307 0.0106142,0.00514961 0.017752,0.00514961 0.0106102,0 0.0184921,-0.00378346 0.0236811,-0.011315 0.00514961,-0.00752756 0.00776378,-0.0175157 0.00776378,-0.0299606l0 -0.00238189zm0.155547 0.00238189c0,0.0178268 -0.00429134,0.0322244 -0.012878,0.0431496 -0.00854331,0.0109606 -0.0203622,0.0164213 -0.0353425,0.0164213 -0.00815354,0 -0.0152559,-0.00159843 -0.0212638,-0.00475984 -0.00604724,-0.00315748 -0.011,-0.00783858 -0.0149803,-0.0140039l-0.00273228 0.0163465 -0.0184134 0 0 -0.178291 0.0225118 0 0 0.069248c0.00390157,-0.0055 0.00869685,-0.00967323 0.0144724,-0.0125984 0.00573622,-0.00288976 0.0124843,-0.00433071 0.0201693,-0.00433071 0.0152165,0 0.0271142,0.00608661 0.0356575,0.0182953 0.00854331,0.0121732 0.0127992,0.028248 0.0127992,0.0481417l0 0.00238189zm-0.0225118 -0.00238189c0,-0.0142008 -0.00261417,-0.025748 -0.00784252,-0.0347205 -0.00522835,-0.00893307 -0.0131457,-0.0134213 -0.0238346,-0.0134213 -0.00690551,0 -0.0127598,0.00167717 -0.0175197,0.00507087 -0.00475984,0.00339764 -0.00858268,0.00796063 -0.0113898,0.0136969l0 0.0536024c0.00288583,0.00608661 0.00666929,0.0108465 0.0113898,0.0142795 0.0046811,0.00343307 0.0106142,0.00514961 0.017752,0.00514961 0.0106102,0 0.0184921,-0.00378346 0.0236811,-0.011315 0.00514961,-0.00752756 0.00776378,-0.0175157 0.00776378,-0.0299606l0 -0.00238189zm0.10124 0.0619528c-0.0172047,0 -0.0308976,-0.00573228 -0.0410827,-0.0172047 -0.0101811,-0.0114685 -0.015252,-0.0263701 -0.015252,-0.0446299l0 -0.0050315c0,-0.0176339 0.00522835,-0.0322638 0.0157205,-0.0439685 0.0104567,-0.0117047 0.0228622,-0.0175551 0.0371811,-0.0175551 0.0166969,0 0.0292992,0.0050315 0.0378425,0.0150984 0.00854331,0.010063 0.0127953,0.0234843 0.0127953,0.0402598l0 0.0140433 -0.0802126 0 -0.000350394 0.000586614c0.00023622,0.0118622 0.00324016,0.0216535 0.00901181,0.0292992 0.00581496,0.00768504 0.0139291,0.0115079 0.0243465,0.0115079 0.00764567,0 0.0143189,-0.00109055 0.0200906,-0.00323622 0.00573622,-0.00218504 0.010689,-0.00518898 0.0149016,-0.00897244l0.00877953 0.0145906c-0.00440945,0.00437008 -0.0102205,0.00799606 -0.0174764,0.0108819 -0.00722047,0.00288976 -0.0159961,0.00433071 -0.0262953,0.00433071zm-0.00343307 -0.110677c-0.0075315,0 -0.0139685,0.00319685 -0.019311,0.00955512 -0.00530709,0.0063622 -0.00858268,0.0143583 -0.00983465,0.0239567l0.00023622 0.000582677 0.0570354 0 0 -0.00296457c0,-0.00885433 -0.00233858,-0.0162677 -0.00705906,-0.0221969 -0.00475984,-0.0059685 -0.0117441,-0.00893307 -0.0210669,-0.00893307zm0.134437 0.00448425l-0.0115472 -0.000700787c-0.00592913,0 -0.0109646,0.00140551 -0.0150197,0.0042126 -0.00409843,0.00284646 -0.00721654,0.0067874 -0.00944094,0.0118976l0 0.0883661 -0.0225118 0 0 -0.123673 0.0201299 0 0.00214567 0.018063c0.00351181,-0.00639764 0.00784252,-0.0113898 0.0129921,-0.0149803 0.00514961,-0.00358661 0.0110394,-0.00538189 0.017752,-0.00538189 0.00167717,0 0.00327559,0.000114173 0.00479921,0.000389764 0.00151969,0.000271654 0.00280709,0.000547244 0.00378346,0.000858268l-0.00308268 0.0209488zm0.0463071 0.103776l-0.0225118 0 0 -0.0230945 0.0225118 0 0 0.0230945zm0.0883228 -0.0151772c0.00745276,0 0.0140472,-0.00229921 0.0197008,-0.00690551 0.00569685,-0.00460236 0.00854331,-0.0102598 0.00854331,-0.0169685l0.0202126 0 0.000232283 0.000661417c0.000389764,0.010689 -0.00437008,0.0201299 -0.0142402,0.0284016 -0.00987008,0.00827165 -0.0213386,0.0124055 -0.0344488,0.0124055 -0.0179843,0 -0.0317165,-0.00585039 -0.0412756,-0.0175945 -0.00951969,-0.0117402 -0.0142795,-0.0264882 -0.0142795,-0.0442402l0 -0.00483858c0,-0.0175945 0.00479921,-0.0322638 0.0143583,-0.0440433 0.00955906,-0.0117835 0.0232913,-0.0176732 0.0411969,-0.0176732 0.0144764,0 0.0262953,0.00425197 0.0355039,0.0127953 0.00916535,0.00854331 0.0136142,0.019 0.0133031,0.0314449l-0.00023622 0.000661417 -0.0203268 0c0,-0.00752756 -0.00268898,-0.0139646 -0.00799606,-0.0192323 -0.00534252,-0.00530709 -0.0120945,-0.00795669 -0.020248,-0.00795669 -0.0118189,0 -0.020248,0.00425197 -0.0253189,0.0127559 -0.00507087,0.00850394 -0.0076063,0.0189213 -0.0076063,0.0312874l0 0.00479921c0,0.0126417 0.00253543,0.0231732 0.00756693,0.0316024 0.0050315,0.0084252 0.0134606,0.0126378 0.0253583,0.0126378zm0.0687008 -0.0477913c0,-0.0182953 0.00495669,-0.0333543 0.0148661,-0.0452165 0.00990945,-0.0118583 0.0233661,-0.0177874 0.0403386,-0.0177874 0.0171654,0 0.0307047,0.00588976 0.0406496,0.0177126 0.00994882,0.0118189 0.0149055,0.0269173 0.0149055,0.0452913l0 0.0025c0,0.0184528 -0.00495669,0.0335512 -0.0148661,0.0452913 -0.00990945,0.0117441 -0.0233661,0.0175945 -0.0404567,0.0175945 -0.0170472,0 -0.0305866,-0.00588976 -0.0404921,-0.0176732 -0.00994882,-0.0117795 -0.0149449,-0.0268386 -0.0149449,-0.0452126l0 -0.0025zm0.0225118 0.0025c0,0.0131063 0.00276772,0.0239528 0.00831102,0.0324961 0.0055,0.00854331 0.0137323,0.0127953 0.0246142,0.0127953 0.0107283,0 0.0188858,-0.00425197 0.0244646,-0.0127953 0.00557874,-0.00854331 0.00834646,-0.0193898 0.00834646,-0.0324961l0 -0.0025c0,-0.0129528 -0.00280709,-0.0237559 -0.00838583,-0.032378 -0.00561811,-0.00862205 -0.013811,-0.0129134 -0.0246575,-0.0129134 -0.0107283,0 -0.0188819,0.00429134 -0.0243819,0.0129134 -0.00554331,0.00862205 -0.00831102,0.0194252 -0.00831102,0.032378l0 0.0025zm0.135921 -0.0632047l0.00160236 0.0162323c0.00401575,-0.00585433 0.00912598,-0.0104173 0.0153701,-0.0136575 0.00620079,-0.00323622 0.0134213,-0.00487402 0.0216496,-0.00487402 0.00823228,0 0.0152953,0.00190945 0.021185,0.00569685 0.00592913,0.00382283 0.0103386,0.00955512 0.0133425,0.0171654 0.0038622,-0.00702362 0.00901181,-0.012563 0.0154094,-0.0167008 0.00640157,-0.00409449 0.0138898,-0.00616142 0.0223937,-0.00616142 0.0126024,0 0.0225118,0.00433071 0.0298465,0.0129921 0.00729528,0.00862205 0.0109646,0.0216496 0.0109646,0.0390118l0 0.0739685 -0.0225118 0 0 -0.0742047c0,-0.0121693 -0.0021063,-0.0207913 -0.00628346,-0.0258622 -0.0042126,-0.0050748 -0.0104528,-0.00761024 -0.0187638,-0.00761024 -0.00768504,0 -0.0138898,0.00265354 -0.018689,0.008 -0.00475591,0.00534252 -0.00752756,0.0120945 -0.00838583,0.020248l0 0.000897638 0 0.0785315 -0.022626 0 0 -0.0742047c0,-0.0115472 -0.00214567,-0.0200512 -0.00643701,-0.0253976 -0.00433071,-0.00538189 -0.0105354,-0.0080748 -0.0186102,-0.0080748 -0.00682677,0 -0.0124843,0.00140551 -0.0168937,0.0042126 -0.00440945,0.00285039 -0.00780315,0.00679134 -0.0101811,0.0119016l0 0.091563 -0.0225118 0 0 -0.123673 0.0201299 0z"/>
  </g>
 </g>
</svg>
