<?xml version="1.0" encoding="UTF-8"?>
<!DOCTYPE svg PUBLIC "-//W3C//DTD SVG 1.1//EN" "http://www.w3.org/Graphics/SVG/1.1/DTD/svg11.dtd">
<!-- Creator: CorelDRAW -->
<svg xmlns="http://www.w3.org/2000/svg" xml:space="preserve" width="3in" height="0.4in" style="shape-rendering:geometricPrecision; text-rendering:geometricPrecision; image-rendering:optimizeQuality; fill-rule:evenodd; clip-rule:evenodd"
viewBox="0 0 3 0.4"
 xmlns:xlink="http://www.w3.org/1999/xlink">
 <defs>
  <style type="text/css">
   <![CDATA[
    .fil0 {fill:#DEDEDD;fill-rule:nonzero}
   ]]>
  </style>
 </defs>
 <g id="Layer_x0020_1">
  <metadata id="CorelCorpID_0Corel-Layer"/>
  <path class="fil0" d="M0.39776 0.275047c-0.0015315,0.00242913 -0.00416929,0.00448425 -0.00791732,0.00624016 -0.00375591,0.00179528 -0.00689764,0.00266535 -0.00942126,0.00266535 -0.00675197,0 -0.012874,-0.00344488 -0.0183386,-0.0102953 -0.00551575,-0.00679134 -0.0135433,-0.0241969 -0.0241969,-0.0521102 -0.0106654,-0.0279016 -0.0165827,-0.0443268 -0.0176614,-0.0492165l-0.0372835 0.0670866c-0.0205945,0.0371299 -0.0343425,0.0556693 -0.0411929,0.0556693 -0.00488976,0 -0.00911417,-0.00118898 -0.0126693,-0.0035 -0.00351181,-0.00237402 -0.00685039,-0.00705906 -0.0100354,-0.0139646 -0.00314567,-0.00694882 -0.00747638,-0.0224488 -0.012878,-0.0463937 -0.00545669,-0.0239921 -0.0103504,-0.048252 -0.0147283,-0.0727047 -0.00437008,-0.0245118 -0.00725591,-0.0395984 -0.00864961,-0.0453701 -0.000925197,-0.00381102 -0.00175197,-0.0068937 -0.00257087,-0.00920866 -0.00262598,-0.00803543 -0.00391732,-0.0138465 -0.00391732,-0.0174567 0,-0.0044252 0.00195276,-0.00875984 0.00587008,-0.0129331 0.00391339,-0.00416142 0.0085,-0.00622047 0.0137441,-0.00622047 0.0095315,0 0.0162244,0.00761417 0.0200354,0.022811 0.0038622,0.0152402 0.00602756,0.0260472 0.00648819,0.032378l0.0039685 0.0254882c0.0011811,0.00856299 0.00272441,0.0177795 0.00462992,0.0276063 0.00201575,0.0102441 0.00365354,0.0190039 0.00483858,0.0262638 0.00401969,0.0242559 0.00664567,0.0375866 0.00782677,0.0401063 0.0188386,-0.0299606 0.0312598,-0.0504094 0.0372795,-0.0613189 0.00603543,-0.0109252 0.0149882,-0.0290512 0.0268898,-0.0543819 0.00138189,-0.00251181 0.0036378,-0.0047874 0.00684252,-0.00684646 0.00312992,-0.00205906 0.00638189,-0.00309055 0.00972441,-0.00309055 0.00433071,0 0.00793701,0.00221654 0.0108701,0.00664961 0.00288976,0.00443307 0.00787795,0.0157559 0.0149291,0.0340866 0.000311024,0.00107874 0.000779528,0.00246457 0.00149213,0.00406299l0.0122087 0.0322835c0.0108622,0.0288425 0.0168819,0.0436142 0.0179724,0.0443346 0.0287795,-0.0544252 0.0460315,-0.110138 0.051748,-0.167134 0,-0.00392126 0.00175591,-0.00701181 0.00519291,-0.00927165 0.00345276,-0.00226378 0.0074685,-0.0033937 0.0120039,-0.0033937 0.00623228,0 0.0106614,0.00194488 0.0132835,0.00581102 0.00258661,0.00385827 0.00392126,0.00818898 0.00392126,0.0130276 0,0.00993307 -0.00272835,0.0256929 -0.00814173,0.0471654 -0.00546063,0.0214685 -0.0134961,0.0446417 -0.0241496,0.0696181l-0.00437795 0.0104055c-0.00112992,0.00288976 -0.00921654,0.0199213 -0.0243031,0.0509724 -0.00464173,0.00958268 -0.00772441,0.0162717 -0.00932677,0.0200787zm0.223236 -0.0460315c0,0.0104528 -0.00881496,0.0229685 -0.0264213,0.0374882 -0.0175591,0.0145236 -0.0374331,0.0218346 -0.0595827,0.0218346 -0.0169961,0 -0.0303701,-0.00535827 -0.0401063,-0.016063 -0.00978346,-0.0107126 -0.014622,-0.0256535 -0.014622,-0.044748 0,-0.0281575 0.00993307,-0.0545866 0.0298622,-0.0791969 0.019937,-0.0246732 0.0411969,-0.0369724 0.0638031,-0.0369724 0.0112717,0 0.0203346,0.00355118 0.0271339,0.0107165 0.00684646,0.00714961 0.0102953,0.0156417 0.0102953,0.0254843 0,0.0175079 -0.00838583,0.034185 -0.0252283,0.0500039 -0.0167874,0.0158504 -0.038315,0.0267717 -0.0645709,0.0328386 -0.00299213,0.000677165 -0.00448031,0.00247638 -0.00448031,0.00541339 0,0.00483858 0.0021063,0.0094252 0.00637795,0.0137913 0.00427953,0.00438976 0.00998425,0.00659449 0.0171496,0.00659449 0.020185,0 0.0402717,-0.0104567 0.0602087,-0.031252 0.00379528,-0.00401575 0.00750394,-0.00602756 0.011122,-0.00602756 0.00606693,0 0.00905906,0.00335433 0.00905906,0.0100945zm-0.101244 -0.0266693c0.0159094,-0.00325197 0.0299213,-0.0100433 0.0420236,-0.0203898 0.0121535,-0.0103504 0.0181654,-0.0197756 0.0181654,-0.0282205 0,-0.00329528 -0.00092126,-0.00607087 -0.00277559,-0.00833465 -0.00185433,-0.00227559 -0.00422047,-0.00340551 -0.00716142,-0.00340551 -0.00874016,0 -0.0184213,0.00643307 -0.0291378,0.019311 -0.0106614,0.012874 -0.0176693,0.0265118 -0.0211142,0.0410394zm0.289646 0.0696693c-0.00123228,0.0103386 -0.00700787,0.0155472 -0.0173543,0.0155472 -0.0131811,0 -0.0197835,-0.00951969 -0.0197835,-0.0285236 0,-0.0307402 0.00165748,-0.0570591 0.00495669,-0.0788898 0.00261811,-0.0169961 0.00395669,-0.0336732 0.00395669,-0.0501102 0,-0.00390945 0.00123228,-0.00719291 0.00376772,-0.00987795 0.00252756,-0.00262992 0.00601969,-0.0039685 0.0105512,-0.0039685 0.0150827,0 0.0226102,0.00917323 0.0226102,0.0274528 0,0.00591339 -0.00262992,0.021063 -0.00798819,0.0454173 -0.00319291,0.0144646 -0.00483858,0.0249724 -0.00483858,0.0315157 0.0287795,-0.0631339 0.0547362,-0.094752 0.0778583,-0.094752 0.00937402,0 0.0168937,0.00376772 0.0225512,0.0111732 0.00566535,0.0074685 0.00865354,0.0239488 0.00881102,0.0494921 0.000102362,0.023315 0.00133465,0.0350039 0.00365354,0.0350039 0.00180315,0 0.00809055,-0.0113228 0.0188465,-0.033937 0.0119488,-0.0250709 0.022189,-0.0415984 0.030685,-0.0496378 0.00849606,-0.00807087 0.0174606,-0.0120945 0.0267717,-0.0120945 0.0111811,0 0.0192598,0.00484252 0.0243071,0.0144134 0.00505906,0.00963386 0.00855118,0.0258543 0.0105669,0.0486732 0.00148819,0.0180709 0.00353937,0.0317638 0.00612205,0.0410354 0.00251969,0.00920866 0.00694882,0.0154016 0.0131772,0.018374 0.00504724,0.00243307 0.00751969,0.0060315 0.00751969,0.010874 0,0.0043189 -0.00283071,0.00869685 -0.00859843,0.0130787 -0.0057126,0.00437402 -0.0115315,0.0065315 -0.0174606,0.0065315 -0.0102953,0 -0.0182717,-0.00504331 -0.0240984,-0.0151339 -0.00575984,-0.0101457 -0.00966929,-0.0304291 -0.011685,-0.0609094 -0.00107874,-0.014685 -0.00225984,-0.0244134 -0.00355512,-0.0291457 -0.00123622,-0.00479134 -0.0031378,-0.0072126 -0.0056063,-0.0072126 -0.00222047,0 -0.00545669,0.00359843 -0.00968504,0.010815 -0.00422441,0.00714961 -0.0115315,0.0214724 -0.0218858,0.0428858 -0.00911417,0.019311 -0.0169882,0.0328071 -0.0235827,0.0404213 -0.00658661,0.00767717 -0.0136378,0.0114882 -0.0212126,0.0114882 -0.00582283,0 -0.0116929,-0.00251969 -0.0175551,-0.00751575 -0.00587402,-0.00505512 -0.00906693,-0.0232717 -0.00958268,-0.0547913 -0.000503937,-0.028063 -0.00231496,-0.0420709 -0.00545669,-0.0420709 -0.00423228,0 -0.0143622,0.0124685 -0.0304331,0.0373819 -0.0161181,0.0249843 -0.0282165,0.0472717 -0.0363504,0.0669961zm0.372441 -0.0416142c-0.0264685,0.0348661 -0.0520079,0.0523189 -0.076622,0.0523189 -0.00906693,0 -0.0168898,-0.00355118 -0.0233701,-0.0107047 -0.00654724,-0.00715748 -0.00984252,-0.0162244 -0.00984252,-0.0272953 0,-0.0266693 0.0119016,-0.0550394 0.0355827,-0.0851693 0.0237402,-0.0301181 0.047685,-0.0451535 0.0718307,-0.0451535 0.0122598,0 0.0203346,0.0061811 0.0241496,0.0185354 0.0115315,0 0.0173504,0.00443307 0.0173504,0.0132913 0,0.00421654 -0.00112992,0.0118425 -0.00335039,0.0229055 -0.00401181,0.0207087 -0.00601969,0.0372874 -0.00601969,0.0496378 0,0.012874 0.000877953,0.021937 0.00262992,0.0271417 0.00175984,0.00524803 0.00303937,0.00864567 0.00385433,0.0102913 0.000822835,0.0016063 0.00324803,0.00330709 0.00725984,0.00510236 0.00401969,0.00190551 0.0060315,0.00459055 0.0060315,0.00798425 0,0.00514961 -0.00256693,0.00941339 -0.00777165,0.0128189 -0.00520472,0.00345276 -0.0106102,0.00514961 -0.0162283,0.00514961 -0.0188976,0 -0.0273898,-0.0189409 -0.0254843,-0.0568543zm-0.00906693 -0.0837205c-0.0101378,0 -0.0233228,0.0112283 -0.0395984,0.0336811 -0.0162087,0.0225 -0.0243543,0.0415551 -0.0243543,0.0572638 0,0.00822441 0.00170472,0.0123504 0.00515354,0.0123504 0.0118465,0 0.0264685,-0.0105079 0.0438228,-0.0315709 0.0173543,-0.0211063 0.0259921,-0.0395 0.0259921,-0.0552953 0,-0.00504331 -0.00112205,-0.00901575 -0.00338976,-0.012 -0.00227165,-0.00298031 -0.00479134,-0.00442913 -0.00762598,-0.00442913zm0.193102 0.0838346c-0.0260551,0.0369134 -0.0522205,0.0554016 -0.0785827,0.0554016 -0.0106614,0 -0.019252,-0.00422441 -0.0257953,-0.0126102 -0.00653937,-0.00839764 -0.00977953,-0.0191063 -0.00977953,-0.0320787 0,-0.0262165 0.0107087,-0.052315 0.0321772,-0.0782795 0.0214764,-0.0259488 0.0432047,-0.0389213 0.0652402,-0.0389213 0.0126693,0 0.021685,0.00334252 0.0270354,0.00994488 0.00751575,-0.0329646 0.0119921,-0.0536142 0.0133858,-0.0618543 0.00303937,-0.0152835 0.00557087,-0.025437 0.00757087,-0.0304291 0.00200787,-0.00504331 0.00503937,-0.00895669 0.00921654,-0.011748 0.00412205,-0.0027126 0.00766929,-0.00411024 0.0107126,-0.00411024 0.00509843,0 0.00901575,0.0021063 0.0117441,0.00633071 0.00272835,0.00423228 0.00406299,0.00952756 0.00406299,0.0159606 0,0.00283858 -0.0022126,0.0109213 -0.00664173,0.0243031 -0.0072126,0.0217402 -0.0139488,0.0479961 -0.0201378,0.0787402 -0.00617717,0.0307913 -0.00925591,0.0553031 -0.00925591,0.0734843 0,0.0173937 0.00380315,0.0261063 0.0114803,0.0261063 0.00389764,0 0.0080748,-0.00104331 0.0125,-0.00314173 0.00444094,-0.00206693 0.00751969,-0.00304724 0.00932677,-0.00304724 0.00494488,0 0.00742126,0.00288583 0.00742126,0.00859843 0,0.00695669 -0.005,0.0138465 -0.0150394,0.020752 -0.00998425,0.00690551 -0.0194685,0.0103031 -0.0284213,0.0103031 -0.00963386,0 -0.0171024,-0.00514173 -0.0222992,-0.0155079 -0.00525984,-0.0103386 -0.00720866,-0.0231181 -0.00592126,-0.0381969zm-0.0167402 -0.0773504c-0.0131811,0 -0.0269213,0.0100512 -0.0412402,0.0301299 -0.0143189,0.0201299 -0.0215276,0.0385709 -0.0215276,0.055252 0,0.00972835 0.00366142,0.0146181 0.0108622,0.0146181 0.012315,0 0.0269331,-0.0109134 0.0439252,-0.032748 0.017,-0.0218346 0.0254882,-0.0390866 0.0254882,-0.051752 0,-0.00381102 -0.00159843,-0.00735827 -0.00483858,-0.0105984 -0.00318504,-0.00330315 -0.00741732,-0.00490157 -0.0126693,-0.00490157zm0.248764 0.0758504c0,0.0104528 -0.00880709,0.0229685 -0.0264213,0.0374882 -0.0175551,0.0145236 -0.0374252,0.0218346 -0.0595709,0.0218346 -0.0170039,0 -0.0303898,-0.00535827 -0.0401181,-0.016063 -0.00977559,-0.0107126 -0.014626,-0.0256535 -0.014626,-0.044748 0,-0.0281575 0.00994488,-0.0545866 0.0298661,-0.0791969 0.0199291,-0.0246732 0.0412008,-0.0369724 0.0638071,-0.0369724 0.0112756,0 0.0203346,0.00355118 0.0271299,0.0107165 0.00685433,0.00714961 0.0102953,0.0156417 0.0102953,0.0254843 0,0.0175079 -0.00838583,0.034185 -0.0252283,0.0500039 -0.0167874,0.0158504 -0.0383031,0.0267717 -0.0645709,0.0328386 -0.00298425,0.000677165 -0.00447638,0.00247638 -0.00447638,0.00541339 0,0.00483858 0.00210236,0.0094252 0.00638583,0.0137913 0.00427559,0.00438976 0.00998425,0.00659449 0.0171496,0.00659449 0.0201772,0 0.0402598,-0.0104567 0.0601929,-0.031252 0.00380709,-0.00401575 0.00751575,-0.00602756 0.0111142,-0.00602756 0.0060748,0 0.00907087,0.00335433 0.00907087,0.0100945zm-0.101232 -0.0266693c0.0159016,-0.00325197 0.0299055,-0.0100433 0.0420157,-0.0203898 0.0121535,-0.0103504 0.0181732,-0.0197756 0.0181732,-0.0282205 0,-0.00329528 -0.00092126,-0.00607087 -0.00278346,-0.00833465 -0.00185433,-0.00227559 -0.00422835,-0.00340551 -0.00716142,-0.00340551 -0.00874016,0 -0.0184252,0.00643307 -0.0291378,0.019311 -0.0106535,0.012874 -0.0176654,0.0265118 -0.0211063,0.0410394zm0.33335 -0.145618c0,0.00715748 -0.00319291,0.0134331 -0.00962598,0.0187913 -0.00644094,0.00540945 -0.0120433,0.00808661 -0.0167913,0.00808661 -0.00601575,0 -0.011374,-0.00252362 -0.016063,-0.0075748 -0.0046378,-0.005 -0.00700787,-0.0100315 -0.00700787,-0.0150315 0,-0.00726378 0.00233071,-0.0131339 0.00696063,-0.0176142 0.00462992,-0.00447244 0.0112717,-0.00669291 0.0199291,-0.00669291 0.00674016,0 0.0121457,0.00196063 0.016374,0.00596457 0.00416142,0.00398425 0.00622441,0.00865748 0.00622441,0.0140709zm-0.0728543 0.124043l0 0.000149606c0.00324016,-0.0183268 0.00483858,-0.0287835 0.00483858,-0.0314094 0,-0.00741339 0.0016378,-0.0136457 0.00488583,-0.018689 0.00329528,-0.00504724 0.00783071,-0.00756299 0.0136417,-0.00756299 0.00685433,0 0.0122126,0.00164567 0.0160236,0.00483071 0.00380709,0.00324016 0.00570866,0.00685433 0.00570866,0.0108661 0,0.00401181 -0.00185039,0.0123071 -0.00555118,0.0249213l-0.000925197 0.00330315c-0.00551575,0.0194055 -0.00885827,0.0352638 -0.00994488,0.0475276 -0.00113386,0.012252 -0.00170079,0.022189 -0.00170079,0.0296969 0,0.00612992 0.00108268,0.0143268 0.00319291,0.0246181 0.000311024,0.00181102 0.000472441,0.00329921 0.000472441,0.00447638 0,0.00233071 -0.00221654,0.00546457 -0.00660236,0.00937795 -0.00437795,0.00391339 -0.00905906,0.00587402 -0.0141063,0.00587402 -0.0132362,0 -0.019878,-0.0100512 -0.019878,-0.0301772 0,-0.0170906 0.00242913,-0.0378976 0.00721654,-0.0624094 0.00102362,-0.00545669 0.00190157,-0.0106102 0.00272835,-0.0153937zm0.139539 -0.0223504c-0.000866142,0 -0.00370472,0.0112323 -0.00848819,0.033622 -0.00478346,0.0224567 -0.00716535,0.0360472 -0.00716535,0.0407283 0,0.00829921 0.000870079,0.0140079 0.00262992,0.017311 0.00175197,0.00323622 0.0046378,0.00488583 0.00865354,0.00488583 0.00565748,0 0.0110709,-0.000972441 0.0162244,-0.00293307 0.0051811,-0.00195276 0.0119921,-0.00638976 0.0204291,-0.0131811 0.00526378,-0.00432677 0.00969291,-0.00648031 0.0132874,-0.00648031 0.00293701,0 0.00525197,0.000814961 0.00700787,0.00246063 0.00179134,0.00165748 0.00266929,0.0036063 0.00266929,0.0058189 0,0.00886614 -0.00714961,0.0188543 -0.0214173,0.0300709 -0.014315,0.0112283 -0.0293976,0.0168386 -0.0452598,0.0168386 -0.0132913,0 -0.0234291,-0.00390945 -0.0304291,-0.0117835 -0.00695276,-0.00783465 -0.0104528,-0.0191024 -0.0104528,-0.0337913 0,-0.0135866 0.00504724,-0.0406732 0.0152402,-0.0813071 -0.00643701,0.000728346 -0.0109213,0.00108661 -0.0134409,0.00108661l-0.00319291 0c-0.00458661,0 -0.00932283,-0.00153937 -0.0141102,-0.0045315 -0.00474016,-0.00303543 -0.00714961,-0.00787402 -0.00714961,-0.0145197 0,-0.00844488 0.0047874,-0.0126772 0.0143543,-0.0126772l0.0322913 -0.0011811c0.00422835,-0.0121457 0.00870472,-0.0280984 0.0133898,-0.0478268 0.00282677,-0.0122638 0.00920866,-0.0183858 0.0191535,-0.0183858 0.00555906,0 0.00988976,0.00165748 0.0129764,0.00504724 0.0031378,0.00333858 0.00468898,0.00711024 0.00468898,0.0112244 0,0.00159843 -0.00428346,0.0171496 -0.0128228,0.0466024 0.0319724,-0.00278346 0.0495394,-0.00422047 0.0526732,-0.00422047 0.00530709,0 0.00880709,0.000826772 0.010563,0.00235827 0.00169291,0.00155118 0.00257874,0.00454331 0.00257874,0.00896457 0,0.00895669 -0.00761811,0.014626 -0.022815,0.0170433l-0.0520669 0.00875591zm0.34124 0.0705945c0,0.0104528 -0.00881102,0.0229685 -0.0264213,0.0374882 -0.0175551,0.0145236 -0.0374213,0.0218346 -0.0595709,0.0218346 -0.017,0 -0.030374,-0.00535827 -0.040122,-0.016063 -0.00977559,-0.0107126 -0.0146142,-0.0256535 -0.0146142,-0.044748 0,-0.0281575 0.00993701,-0.0545866 0.0298543,-0.0791969 0.019937,-0.0246732 0.0412047,-0.0369724 0.063815,-0.0369724 0.0112717,0 0.0203346,0.00355118 0.0271299,0.0107165 0.00685039,0.00714961 0.0102953,0.0156417 0.0102953,0.0254843 0,0.0175079 -0.00838976,0.034185 -0.0252244,0.0500039 -0.0167953,0.0158504 -0.038315,0.0267717 -0.0645709,0.0328386 -0.00298819,0.000677165 -0.00448425,0.00247638 -0.00448425,0.00541339 0,0.00483858 0.0021063,0.0094252 0.00638583,0.0137913 0.00425984,0.00438976 0.00998425,0.00659449 0.0171417,0.00659449 0.020185,0 0.0402717,-0.0104567 0.0602087,-0.031252 0.00380709,-0.00401575 0.00751575,-0.00602756 0.0111102,-0.00602756 0.0060748,0 0.00906693,0.00335433 0.00906693,0.0100945zm-0.101232 -0.0266693c0.0159016,-0.00325197 0.0299055,-0.0100433 0.0420197,-0.0203898 0.0121535,-0.0103504 0.0181693,-0.0197756 0.0181693,-0.0282205 0,-0.00329528 -0.00092126,-0.00607087 -0.00278346,-0.00833465 -0.00185433,-0.00227559 -0.00422441,-0.00340551 -0.00715354,-0.00340551 -0.00874409,0 -0.0184331,0.00643307 -0.0291457,0.019311 -0.0106575,0.012874 -0.0176654,0.0265118 -0.0211063,0.0410394zm0.229602 0.0280551c-0.0264764,0.0348661 -0.0520197,0.0523189 -0.076622,0.0523189 -0.00906299,0 -0.0168858,-0.00355118 -0.023378,-0.0107047 -0.00654331,-0.00715748 -0.00983858,-0.0162244 -0.00983858,-0.0272953 0,-0.0266693 0.0118976,-0.0550394 0.0355748,-0.0851693 0.0237441,-0.0301181 0.0476929,-0.0451535 0.0718425,-0.0451535 0.012252,0 0.0203386,0.0061811 0.0241496,0.0185354 0.0115315,0 0.0173465,0.00443307 0.0173465,0.0132913 0,0.00421654 -0.00112992,0.0118425 -0.00334252,0.0229055 -0.00401969,0.0207087 -0.00601969,0.0372874 -0.00601969,0.0496378 0,0.012874 0.000870079,0.021937 0.00262205,0.0271417 0.00175197,0.00524803 0.00303543,0.00864567 0.0038622,0.0102913 0.000822835,0.0016063 0.00324016,0.00330709 0.00725984,0.00510236 0.00401969,0.00190551 0.00601969,0.00459055 0.00601969,0.00798425 0,0.00514961 -0.00256299,0.00941339 -0.00777165,0.0128189 -0.00520472,0.00345276 -0.0106024,0.00514961 -0.0162205,0.00514961 -0.0188937,0 -0.0273976,-0.0189409 -0.0254843,-0.0568543zm-0.00906299 -0.0837205c-0.0101457,0 -0.0233307,0.0112283 -0.0395984,0.0336811 -0.0162244,0.0225 -0.0243543,0.0415551 -0.0243543,0.0572638 0,0.00822441 0.00169291,0.0123504 0.00514961,0.0123504 0.0118307,0 0.0264606,-0.0105079 0.0438189,-0.0315709 0.0173504,-0.0211063 0.0259961,-0.0395 0.0259961,-0.0552953 0,-0.00504331 -0.00112992,-0.00901575 -0.00338976,-0.012 -0.00226772,-0.00298031 -0.00479134,-0.00442913 -0.00762205,-0.00442913zm0.157512 0.095937c-0.000405512,-0.00546063 -0.00906693,-0.0121024 -0.0259528,-0.0199331 -0.0207047,-0.00994094 -0.033937,-0.0185315 -0.0396535,-0.0256969 -0.00575984,-0.0072126 -0.00859449,-0.0150315 -0.00859449,-0.0234685 0,-0.0178307 0.00993701,-0.0333819 0.0299213,-0.0467126 0.0199724,-0.0132874 0.0386102,-0.0199882 0.0559134,-0.0199882 0.017,0 0.0254882,0.0074252 0.0254882,0.0222008 0,0.00391339 -0.00195276,0.00741339 -0.0058189,0.0105591 -0.00385827,0.00309055 -0.00715748,0.0046811 -0.00988976,0.0046811 -0.00112992,0 -0.00308661,-0.000716535 -0.00586614,-0.00211024 -0.00282677,-0.00144488 -0.00499213,-0.00210236 -0.00648425,-0.00210236 -0.00896063,0 -0.0188425,0.00297638 -0.029563,0.00899606 -0.0107598,0.00608661 -0.0161732,0.0130945 -0.0161732,0.0211693 0,0.00391339 0.00190945,0.00772441 0.00572441,0.0113819 0.00386614,0.00365354 0.0116378,0.00824409 0.023378,0.0138031 0.0174094,0.00823622 0.0288819,0.0157008 0.0344016,0.0222874 0.00555906,0.00664961 0.00833858,0.0140118 0.00833858,0.0220433 0,0.0146811 -0.00994094,0.0269291 -0.029815,0.0367638 -0.019878,0.00979134 -0.0421693,0.0146772 -0.0668898,0.0146772 -0.0182323,0 -0.0273307,-0.00659055 -0.0273307,-0.0197717 0,-0.00479134 0.00188976,-0.00890551 0.00575591,-0.0123583 0.00381496,-0.00339764 0.00808661,-0.00509449 0.0128268,-0.00509449 0.00190551,0 0.00483858,0.000661417 0.00890551,0.00210236 0.00400787,0.0015 0.00772441,0.00226378 0.0111181,0.00226378 0.00947638,0 0.0193622,-0.00153543 0.0297598,-0.00452362 0.0103543,-0.0030315 0.0171535,-0.00674409 0.0205,-0.0111693zm0.204984 -0.0505748c-0.00158661,0.0244606 -0.00441732,0.0481496 -0.00848819,0.0711654 -0.0040748,0.0229646 -0.0100906,0.043815 -0.0179685,0.0625118 -0.00788583,0.018689 -0.016378,0.0314528 -0.0254843,0.0382559 -0.00911811,0.00679528 -0.019937,0.0101929 -0.0325,0.0101929 -0.0134882,0 -0.0264094,-0.0025748 -0.0387756,-0.00772441l0.000153543 0c-0.0106496,-0.00442913 -0.0199724,-0.0103425 -0.0278465,-0.017811 -0.00788583,-0.00741339 -0.0118465,-0.0136969 -0.0118465,-0.0188465 0,-0.00474409 0.0011811,-0.0085 0.00355118,-0.011315 0.00237402,-0.00279134 0.00545276,-0.00423228 0.00926378,-0.00423228 0.00335039,0 0.00607087,0.00144094 0.00829528,0.00423228 0.0128701,0.016626 0.0316063,0.0249094 0.056126,0.0249094 0.00993701,0 0.0195669,-0.0104055 0.0288346,-0.0312598 0.0092126,-0.0207992 0.0150866,-0.0457756 0.0174567,-0.0749646 -0.0310512,0.024563 -0.0549921,0.036815 -0.0717795,0.036815 -0.0108701,0 -0.0194724,-0.0043189 -0.0257992,-0.0129843 -0.00633465,-0.00864173 -0.00952756,-0.0190433 -0.00952756,-0.0311969 0,-0.0121535 0.00288583,-0.0298661 0.00855118,-0.0530354 0.00565748,-0.0231732 0.0105079,-0.0375315 0.0144606,-0.0431457 0.0039685,-0.00556693 0.0104567,-0.00835433 0.0194173,-0.00835433 0.00479134,0 0.00855512,0.00207087 0.011126,0.00623622 0.00262598,0.00417323 0.00396457,0.00881102 0.00396457,0.0138031 0,0.0015315 -0.00366535,0.0100433 -0.0108701,0.0254843 -0.00885433,0.0189528 -0.0132756,0.0352205 -0.0132756,0.0489252 0,0.00699606 0.000972441,0.0123504 0.00292126,0.0160591 0.00195669,0.00365354 0.00402362,0.00546457 0.00613386,0.00546457 0.00479134,0 0.0106614,-0.00144882 0.017563,-0.00433071 0.0068937,-0.00294488 0.0149803,-0.00798425 0.0242992,-0.015189 0.00927559,-0.00720866 0.0152953,-0.0126693 0.0180236,-0.0163701 0.00268504,-0.00371654 0.00484252,-0.00851181 0.00649213,-0.0144252 0.00159055,-0.00587795 0.00283465,-0.0187874 0.00375591,-0.0388228 0.000507874,-0.0116811 0.00108661,-0.019 0.00174803,-0.0220512 0.000622047,-0.0029685 0.00241732,-0.00575591 0.00535827,-0.00827559 0.00288583,-0.00252362 0.00679921,-0.00375984 0.0117402,-0.00375984 0.00664173,0 0.0113228,0.00138976 0.0141102,0.00422047 0.00278346,0.00283071 0.00416929,0.00947244 0.00416929,0.0199252l-0.00335433 0.0498937zm0.0739567 0.0166339c-0.0100984,0 -0.0178819,-0.00205906 -0.0234409,-0.00617717 -0.00159449,-0.0196181 -0.000145669,-0.0398031 0.00422835,-0.0605039 0.00494488,-0.0224409 0.00741732,-0.0392323 0.00741732,-0.0504173 0,-0.00107874 0.000515748,-0.00530315 0.00159449,-0.0125591 0.00102756,-0.00731102 0.0042126,-0.0128701 0.0095748,-0.0166811 0.00529921,-0.00381496 0.00983071,-0.00571654 0.0135984,-0.00571654 0.00401575,0 0.0078189,0.00144488 0.0115394,0.0044252 0.00365354,0.00299213 0.00549213,0.00622441 0.00549213,0.00973622 0,0.00282283 -0.00205512,0.0132283 -0.00612205,0.0313071 -0.00406299,0.0180236 -0.00812598,0.0346535 -0.0121496,0.0498504 -0.00422047,0.0157992 -0.00643307,0.0284213 -0.00664173,0.0378346 -0.000204724,0.00716142 -0.00191339,0.0134409 -0.00509055,0.0189016zm-0.0214331 0.0693661c-0.0110669,0 -0.0166339,-0.00612598 -0.0166339,-0.0183898 0,-0.0046378 0.00227559,-0.00994094 0.00679921,-0.0160118 0.00453937,-0.00601575 0.00942913,-0.00900787 0.0146299,-0.00900787 0.00345276,0 0.00772441,0.00165354 0.0128228,0.00494094 0.00515354,0.00335039 0.00772441,0.00612598 0.00772441,0.00844882l-0.00154724 0.0093622c-0.00088189,0.00664567 -0.00417323,0.0117441 -0.00978346,0.0152953 -0.00561417,0.0036063 -0.0102953,0.0053622 -0.0140118,0.0053622z"/>
 </g>
</svg>
