<?xml version="1.0" encoding="UTF-8"?>
<!DOCTYPE svg PUBLIC "-//W3C//DTD SVG 1.1//EN" "http://www.w3.org/Graphics/SVG/1.1/DTD/svg11.dtd">
<!-- Creator: CorelDRAW -->
<svg xmlns="http://www.w3.org/2000/svg" xml:space="preserve" width="215.9mm" height="279.4mm" style="shape-rendering:geometricPrecision; text-rendering:geometricPrecision; image-rendering:optimizeQuality; fill-rule:evenodd; clip-rule:evenodd"
viewBox="0 0 215.9 279.4"
 xmlns:xlink="http://www.w3.org/1999/xlink">
 <defs>
  <style type="text/css">
   <![CDATA[
    .fil0 {fill:white}
    .fil1 {fill:#2DAD75}
    .fil2 {fill:#E77817;fill-rule:nonzero}
    .fil4 {fill:white;fill-rule:nonzero}
    .fil3 {fill:#009D65;fill-rule:nonzero}
   ]]>
  </style>
 </defs>
 <g id="Layer_x0020_1">
  <metadata id="CorelCorpID_0Corel-Layer"/>
  <rect class="fil0" x="40.9575" y="21.3742" width="133.985" height="236.652"/>
  <path class="fil1" d="M40.9567 21.3785l133.987 0 0 76.4852 -133.987 32.8544 0 -109.34zm133.987 127.303l0 109.34 -133.987 0 0 -76.4852 133.987 -32.8544z"/>
  <g id="_166682832">
   <path id="_168261640" class="fil2" d="M70.5614 146.268l-2.4855 0 0 -5.1662 -5.0701 0 0 5.1662 -2.4942 0 0 -12.4303 2.4942 0 0 5.3439 5.0701 0 0 -5.3439 2.4855 0 0 12.4303zm1.7395 -4.7029c0,-1.3782 0.3846,-2.5059 1.1539,-3.3859 0.7663,-0.8799 1.8328,-1.3199 3.1935,-1.3199 1.3637,0 2.4331,0.4371 3.2081,1.3141 0.7751,0.8771 1.1626,2.0076 1.1626,3.3917l0 0.1777c0,1.3899 -0.3875,2.5205 -1.1567,3.3946 -0.7722,0.8742 -1.8387,1.3113 -3.1994,1.3113 -1.3637,0 -2.433,-0.4371 -3.2052,-1.3113 -0.7693,-0.8741 -1.1568,-2.0047 -1.1568,-3.3946l0 -0.1777zm2.4855 0.1777c0,0.845 0.1486,1.5211 0.4429,2.031 0.2972,0.5099 0.7751,0.7634 1.4336,0.7634 0.6439,0 1.116,-0.2564 1.4132,-0.7693 0.3001,-0.5128 0.4487,-1.1859 0.4487,-2.0251l0 -0.1777c0,-0.8217 -0.1515,-1.489 -0.4516,-2.0076 -0.3031,-0.5187 -0.778,-0.778 -1.4249,-0.778 -0.6439,0 -1.116,0.2593 -1.4132,0.7809 -0.3001,0.5216 -0.4487,1.1888 -0.4487,2.0047l0 0.1777zm10.7316 -6.9727l0 2.2611 1.553 0 0 1.7512 -1.553 0 0 4.7029c0,0.3584 0.0728,0.6148 0.2214,0.7693 0.1486,0.1544 0.3468,0.2301 0.5974,0.2301 0.1311,0 0.2418,-0.0058 0.338,-0.0204 0.0932,-0.0145 0.2039,-0.0407 0.3292,-0.0728l0.2127 1.8007c-0.2505,0.0845 -0.4953,0.1486 -0.7342,0.1924 -0.239,0.0437 -0.4983,0.0641 -0.778,0.0641 -0.8596,0 -1.521,-0.2361 -1.9843,-0.7081 -0.4633,-0.472 -0.6964,-1.2209 -0.6964,-2.2466l0 -4.7116 -1.3491 0 0 -1.7512 1.3491 0 0 -2.2611 2.4942 0zm7.2291 11.6786c-1.3316,0 -2.3951,-0.4284 -3.1906,-1.2821 -0.7984,-0.8538 -1.1947,-1.9377 -1.1947,-3.2518l0 -0.341c0,-1.3724 0.3759,-2.5029 1.1306,-3.3916 0.7547,-0.8888 1.7658,-1.3287 3.0333,-1.3229 1.2471,0 2.2145,0.3759 2.9021,1.1276 0.6906,0.7518 1.0344,1.7658 1.0344,3.0479l0 1.3578 -5.5158 0 -0.0175 0.0525c0.0466,0.609 0.2506,1.1101 0.6119,1.5035 0.3613,0.3934 0.8508,0.5886 1.4715,0.5886 0.5536,0 1.0111,-0.0554 1.3753,-0.1661 0.3642,-0.1107 0.7634,-0.2855 1.1947,-0.5245l0.676 1.5356c-0.3759,0.306 -0.8684,0.5624 -1.4773,0.7634 -0.609,0.2011 -1.2879,0.3031 -2.0339,0.3031zm-0.2214 -7.6692c-0.4604,0 -0.8246,0.1777 -1.0927,0.5303 -0.2681,0.3526 -0.4313,0.8188 -0.4954,1.3928l0.0263 0.0437 3.0566 0 0 -0.2214c0,-0.5303 -0.1253,-0.9558 -0.3701,-1.2705 -0.2477,-0.3176 -0.6236,-0.4749 -1.1247,-0.4749zm8.0101 7.4885l-2.4943 0 0 -13.3161 2.4943 0 0 13.3161z"/>
   <path id="_168261808" class="fil3" d="M107.998 133.837l2.4826 0 0 8.7006c0,1.2005 -0.3905,2.1533 -1.1743,2.8556 -0.7809,0.7022 -1.7716,1.0548 -2.9663,1.0548 -1.2966,0 -2.3252,-0.3147 -3.0799,-0.947 -0.7576,-0.6323 -1.1218,-1.5618 -1.0926,-2.7915l0.0145 -0.0524 2.4243 0c0,0.6556 0.1574,1.1335 0.4721,1.4307 0.3117,0.3001 0.7342,0.4487 1.2616,0.4487 0.4604,0 0.8538,-0.1777 1.1743,-0.5332 0.3205,-0.3555 0.4837,-0.845 0.4837,-1.4657l0 -8.7006zm4.1813 7.7274c0,-1.3782 0.3846,-2.5059 1.1539,-3.3859 0.7663,-0.8799 1.8328,-1.3199 3.1935,-1.3199 1.3637,0 2.4331,0.4371 3.2081,1.3141 0.7751,0.8771 1.1626,2.0076 1.1626,3.3917l0 0.1777c0,1.3899 -0.3875,2.5205 -1.1567,3.3946 -0.7722,0.8742 -1.8387,1.3113 -3.1994,1.3113 -1.3637,0 -2.433,-0.4371 -3.2052,-1.3113 -0.7693,-0.8741 -1.1568,-2.0047 -1.1568,-3.3946l0 -0.1777zm2.4855 0.1777c0,0.845 0.1486,1.5211 0.4429,2.031 0.2972,0.5099 0.7751,0.7634 1.4336,0.7634 0.6439,0 1.116,-0.2564 1.4132,-0.7693 0.3001,-0.5128 0.4487,-1.1859 0.4487,-2.0251l0 -0.1777c0,-0.8217 -0.1515,-1.489 -0.4516,-2.0076 -0.3031,-0.5187 -0.778,-0.778 -1.4249,-0.778 -0.6439,0 -1.116,0.2593 -1.4132,0.7809 -0.3001,0.5216 -0.4487,1.1888 -0.4487,2.0047l0 0.1777zm16.1017 0.1632c0,1.3783 -0.3088,2.4797 -0.9236,3.3043 -0.6148,0.8246 -1.5036,1.2384 -2.6633,1.2384 -0.5361,0 -1.0023,-0.1137 -1.4044,-0.338 -0.4021,-0.2244 -0.7401,-0.5537 -1.0199,-0.9878l-0.1864 1.1451 -2.1359 0 0 -13.3161 2.4855 0 0 5.0583c0.2652,-0.3671 0.5857,-0.6527 0.9587,-0.8508 0.3729,-0.201 0.8013,-0.3001 1.285,-0.3001 1.1742,0 2.0659,0.4429 2.6807,1.3287 0.6148,0.8858 0.9236,2.063 0.9236,3.5374l0 0.1806zm-2.4854 -0.1806c0,-0.8975 -0.1312,-1.6114 -0.3963,-2.1388 -0.2652,-0.5274 -0.7168,-0.7896 -1.3549,-0.7896 -0.3847,0 -0.7139,0.0816 -0.982,0.2447 -0.2652,0.1603 -0.4779,0.3934 -0.6294,0.6935l0 3.9133c0.1515,0.2797 0.3642,0.4924 0.6352,0.641 0.271,0.1486 0.6003,0.2215 0.9936,0.2215 0.644,0 1.0927,-0.2273 1.3491,-0.679 0.2565,-0.4516 0.3847,-1.0955 0.3847,-1.926l0 -0.1806zm12.3545 0.1806c0,1.3783 -0.3088,2.4797 -0.9236,3.3043 -0.6148,0.8246 -1.5036,1.2384 -2.6633,1.2384 -0.5361,0 -1.0023,-0.1137 -1.4044,-0.338 -0.4021,-0.2244 -0.7401,-0.5537 -1.0199,-0.9878l-0.1864 1.1451 -2.1359 0 0 -13.3161 2.4855 0 0 5.0583c0.2652,-0.3671 0.5857,-0.6527 0.9587,-0.8508 0.3729,-0.201 0.8013,-0.3001 1.285,-0.3001 1.1742,0 2.0659,0.4429 2.6807,1.3287 0.6148,0.8858 0.9236,2.063 0.9236,3.5374l0 0.1806zm-2.4854 -0.1806c0,-0.8975 -0.1312,-1.6114 -0.3963,-2.1388 -0.2652,-0.5274 -0.7168,-0.7896 -1.3549,-0.7896 -0.3847,0 -0.7139,0.0816 -0.982,0.2447 -0.2652,0.1603 -0.4779,0.3934 -0.6294,0.6935l0 3.9133c0.1515,0.2797 0.3642,0.4924 0.6352,0.641 0.271,0.1486 0.6003,0.2215 0.9936,0.2215 0.644,0 1.0927,-0.2273 1.3491,-0.679 0.2565,-0.4516 0.3847,-1.0955 0.3847,-1.926l0 -0.1806zm8.1091 4.7233c-1.3316,0 -2.3951,-0.4284 -3.1906,-1.2821 -0.7984,-0.8538 -1.1947,-1.9377 -1.1947,-3.2518l0 -0.341c0,-1.3724 0.3759,-2.5029 1.1306,-3.3916 0.7547,-0.8888 1.7658,-1.3287 3.0333,-1.3229 1.2471,0 2.2145,0.3759 2.9021,1.1276 0.6906,0.7518 1.0344,1.7658 1.0344,3.0479l0 1.3578 -5.5158 0 -0.0175 0.0525c0.0466,0.609 0.2506,1.1101 0.6119,1.5035 0.3613,0.3934 0.8508,0.5886 1.4715,0.5886 0.5536,0 1.0111,-0.0554 1.3753,-0.1661 0.3642,-0.1107 0.7634,-0.2855 1.1947,-0.5245l0.676 1.5356c-0.3759,0.306 -0.8684,0.5624 -1.4773,0.7634 -0.609,0.2011 -1.2879,0.3031 -2.0339,0.3031zm-0.2214 -7.6692c-0.4604,0 -0.8246,0.1777 -1.0927,0.5303 -0.2681,0.3526 -0.4313,0.8188 -0.4954,1.3928l0.0263 0.0437 3.0566 0 0 -0.2214c0,-0.5303 -0.1253,-0.9558 -0.3701,-1.2705 -0.2477,-0.3176 -0.6236,-0.4749 -1.1247,-0.4749zm10.245 0.3934l-0.9121 -0.0263c-0.37,0 -0.676,0.0758 -0.9149,0.2302 -0.2389,0.1545 -0.4196,0.3701 -0.5449,0.6498l0 6.2414 -2.4855 0 0 -9.2368 2.3136 0 0.1107 1.3666c0.2156,-0.4837 0.4983,-0.8625 0.8421,-1.1335 0.3439,-0.271 0.7401,-0.405 1.1889,-0.405 0.1253,0 0.2418,0.0087 0.3467,0.0291 0.1049,0.0204 0.2127,0.0437 0.3205,0.0729l-0.2651 2.2116z"/>
  </g>
  <path class="fil4" d="M79.9531 245.57c-0.0389,0.0617 -0.1059,0.1139 -0.2011,0.1585 -0.0954,0.0456 -0.1752,0.0677 -0.2393,0.0677 -0.1715,0 -0.327,-0.0875 -0.4658,-0.2615 -0.1401,-0.1725 -0.344,-0.6146 -0.6146,-1.3236 -0.2709,-0.7087 -0.4212,-1.1259 -0.4486,-1.2501l-0.947 1.704c-0.5231,0.9431 -0.8723,1.414 -1.0463,1.414 -0.1242,0 -0.2315,-0.0302 -0.3218,-0.0889 -0.0892,-0.0603 -0.174,-0.1793 -0.2549,-0.3547 -0.0799,-0.1765 -0.1899,-0.5702 -0.3271,-1.1784 -0.1386,-0.6094 -0.2629,-1.2256 -0.3741,-1.8467 -0.111,-0.6226 -0.1843,-1.0058 -0.2197,-1.1524 -0.0235,-0.0968 -0.0445,-0.1751 -0.0653,-0.2339 -0.0667,-0.2041 -0.0995,-0.3517 -0.0995,-0.4434 0,-0.1124 0.0496,-0.2225 0.1491,-0.3285 0.0994,-0.1057 0.2159,-0.158 0.3491,-0.158 0.2421,0 0.4121,0.1934 0.5089,0.5794 0.0981,0.3871 0.1531,0.6616 0.1648,0.8224l0.1008 0.6474c0.03,0.2175 0.0692,0.4516 0.1176,0.7012 0.0512,0.2602 0.0928,0.4827 0.1229,0.6671 0.1021,0.6161 0.1688,0.9547 0.1988,1.0187 0.4785,-0.761 0.794,-1.2804 0.9469,-1.5575 0.1533,-0.2775 0.3807,-0.7379 0.683,-1.3813 0.0351,-0.0638 0.0924,-0.1216 0.1738,-0.1739 0.0795,-0.0523 0.1621,-0.0785 0.247,-0.0785 0.11,0 0.2016,0.0563 0.2761,0.1689 0.0734,0.1126 0.2001,0.4002 0.3792,0.8658 0.0079,0.0274 0.0198,0.0626 0.0379,0.1032l0.3101 0.82c0.2759,0.7326 0.4288,1.1078 0.4565,1.1261 0.731,-1.3824 1.1692,-2.7975 1.3144,-4.2452 0,-0.0996 0.0446,-0.1781 0.1319,-0.2355 0.0877,-0.0575 0.1897,-0.0862 0.3049,-0.0862 0.1583,0 0.2708,0.0494 0.3374,0.1476 0.0657,0.098 0.0996,0.208 0.0996,0.3309 0,0.2523 -0.0693,0.6526 -0.2068,1.198 -0.1387,0.5453 -0.3428,1.1339 -0.6134,1.7683l-0.1112 0.2643c-0.0287,0.0734 -0.2341,0.506 -0.6173,1.2947 -0.1179,0.2434 -0.1962,0.4133 -0.2369,0.51zm5.6702 -1.1692c0,0.2655 -0.2239,0.5834 -0.6711,0.9522 -0.446,0.3689 -0.9508,0.5546 -1.5134,0.5546 -0.4317,0 -0.7714,-0.1361 -1.0187,-0.408 -0.2485,-0.2721 -0.3714,-0.6516 -0.3714,-1.1366 0,-0.7152 0.2523,-1.3865 0.7585,-2.0116 0.5064,-0.6267 1.0464,-0.9391 1.6206,-0.9391 0.2863,0 0.5165,0.0902 0.6892,0.2722 0.1739,0.1816 0.2615,0.3973 0.2615,0.6473 0,0.4447 -0.213,0.8683 -0.6408,1.2701 -0.4264,0.4026 -0.9732,0.68 -1.6401,0.8341 -0.076,0.0172 -0.1138,0.0629 -0.1138,0.1375 0,0.1229 0.0535,0.2394 0.162,0.3503 0.1087,0.1115 0.2536,0.1675 0.4356,0.1675 0.5127,0 1.0229,-0.2656 1.5293,-0.7938 0.0964,-0.102 0.1906,-0.1531 0.2825,-0.1531 0.1541,0 0.2301,0.0852 0.2301,0.2564zm-2.5716 -0.6774c0.4041,-0.0826 0.76,-0.2551 1.0674,-0.5179 0.3087,-0.2629 0.4614,-0.5023 0.4614,-0.7168 0,-0.0837 -0.0234,-0.1542 -0.0705,-0.2117 -0.0471,-0.0578 -0.1072,-0.0865 -0.1819,-0.0865 -0.222,0 -0.4679,0.1634 -0.7401,0.4905 -0.2708,0.327 -0.4488,0.6734 -0.5363,1.0424zm7.357 1.7696c-0.0313,0.2626 -0.178,0.3949 -0.4408,0.3949 -0.3348,0 -0.5025,-0.2418 -0.5025,-0.7245 0,-0.7808 0.0421,-1.4493 0.1259,-2.0038 0.0665,-0.4317 0.1005,-0.8553 0.1005,-1.2728 0,-0.0993 0.0313,-0.1827 0.0957,-0.2509 0.0642,-0.0668 0.1529,-0.1008 0.268,-0.1008 0.3831,0 0.5743,0.233 0.5743,0.6973 0,0.1502 -0.0668,0.535 -0.2029,1.1536 -0.0811,0.3674 -0.1229,0.6343 -0.1229,0.8005 0.731,-1.6036 1.3903,-2.4067 1.9776,-2.4067 0.2381,0 0.4291,0.0957 0.5728,0.2838 0.1439,0.1897 0.2198,0.6083 0.2238,1.2571 0.0026,0.5922 0.0339,0.8891 0.0928,0.8891 0.0458,0 0.2055,-0.2876 0.4787,-0.862 0.3035,-0.6368 0.5636,-1.0566 0.7794,-1.2608 0.2158,-0.205 0.4435,-0.3072 0.68,-0.3072 0.284,0 0.4892,0.123 0.6174,0.3661 0.1285,0.2447 0.2172,0.6567 0.2684,1.2363 0.0378,0.459 0.0899,0.8068 0.1555,1.0423 0.064,0.2339 0.1765,0.3912 0.3347,0.4667 0.1282,0.0618 0.191,0.1532 0.191,0.2762 0,0.1097 -0.0719,0.2209 -0.2184,0.3322 -0.1451,0.1111 -0.2929,0.1659 -0.4435,0.1659 -0.2615,0 -0.4641,-0.1281 -0.6121,-0.3844 -0.1463,-0.2577 -0.2456,-0.7729 -0.2968,-1.5471 -0.0274,-0.373 -0.0574,-0.6201 -0.0903,-0.7403 -0.0314,-0.1217 -0.0797,-0.1832 -0.1424,-0.1832 -0.0564,0 -0.1386,0.0914 -0.246,0.2747 -0.1073,0.1816 -0.2929,0.5454 -0.5559,1.0893 -0.2315,0.4905 -0.4315,0.8333 -0.599,1.0267 -0.1673,0.195 -0.3464,0.2918 -0.5388,0.2918 -0.1479,0 -0.297,-0.064 -0.4459,-0.1909 -0.1492,-0.1284 -0.2303,-0.5911 -0.2434,-1.3917 -0.0128,-0.7128 -0.0588,-1.0686 -0.1386,-1.0686 -0.1075,0 -0.3648,0.3167 -0.773,0.9495 -0.4094,0.6346 -0.7167,1.2007 -0.9233,1.7017zm9.46 -1.057c-0.6723,0.8856 -1.321,1.3289 -1.9462,1.3289 -0.2303,0 -0.429,-0.0902 -0.5936,-0.2719 -0.1663,-0.1818 -0.25,-0.4121 -0.25,-0.6933 0,-0.6774 0.3023,-1.398 0.9038,-2.1633 0.603,-0.765 1.2112,-1.1469 1.8245,-1.1469 0.3114,0 0.5165,0.157 0.6134,0.4708 0.2929,0 0.4407,0.1126 0.4407,0.3376 0,0.1071 -0.0287,0.3008 -0.0851,0.5818 -0.1019,0.526 -0.1529,0.9471 -0.1529,1.2608 0,0.327 0.0223,0.5572 0.0668,0.6894 0.0447,0.1333 0.0772,0.2196 0.0979,0.2614 0.0209,0.0408 0.0825,0.084 0.1844,0.1296 0.1021,0.0484 0.1532,0.1166 0.1532,0.2028 0,0.1308 -0.0652,0.2391 -0.1974,0.3256 -0.1322,0.0877 -0.2695,0.1308 -0.4122,0.1308 -0.48,0 -0.6957,-0.4811 -0.6473,-1.4441zm-0.2303 -2.1265c-0.2575,0 -0.5924,0.2852 -1.0058,0.8555 -0.4117,0.5715 -0.6186,1.0555 -0.6186,1.4545 0,0.2089 0.0433,0.3137 0.1309,0.3137 0.3009,0 0.6723,-0.2669 1.1131,-0.8019 0.4408,-0.5361 0.6602,-1.0033 0.6602,-1.4045 0,-0.1281 -0.0285,-0.229 -0.0861,-0.3048 -0.0577,-0.0757 -0.1217,-0.1125 -0.1937,-0.1125zm4.9048 2.1294c-0.6618,0.9376 -1.3264,1.4072 -1.996,1.4072 -0.2708,0 -0.489,-0.1073 -0.6552,-0.3203 -0.1661,-0.2133 -0.2484,-0.4853 -0.2484,-0.8148 0,-0.6659 0.272,-1.3288 0.8173,-1.9883 0.5455,-0.6591 1.0974,-0.9886 1.6571,-0.9886 0.3218,0 0.5508,0.0849 0.6867,0.2526 0.1909,-0.8373 0.3046,-1.3618 0.34,-1.5711 0.0772,-0.3882 0.1415,-0.6461 0.1923,-0.7729 0.051,-0.1281 0.128,-0.2275 0.2341,-0.2984 0.1047,-0.0689 0.1948,-0.1044 0.2721,-0.1044 0.1295,0 0.229,0.0535 0.2983,0.1608 0.0693,0.1075 0.1032,0.242 0.1032,0.4054 0,0.0721 -0.0562,0.2774 -0.1687,0.6173 -0.1832,0.5522 -0.3543,1.2191 -0.5115,2 -0.1569,0.7821 -0.2351,1.4047 -0.2351,1.8665 0,0.4418 0.0966,0.6631 0.2916,0.6631 0.099,0 0.2051,-0.0265 0.3175,-0.0798 0.1128,-0.0525 0.191,-0.0774 0.2369,-0.0774 0.1256,0 0.1885,0.0733 0.1885,0.2184 0,0.1767 -0.127,0.3517 -0.382,0.5271 -0.2536,0.1754 -0.4945,0.2617 -0.7219,0.2617 -0.2447,0 -0.4344,-0.1306 -0.5664,-0.3939 -0.1336,-0.2626 -0.1831,-0.5872 -0.1504,-0.9702zm-0.4252 -1.9647c-0.3348,0 -0.6838,0.2553 -1.0475,0.7653 -0.3637,0.5113 -0.5468,0.9797 -0.5468,1.4034 0,0.2471 0.093,0.3713 0.2759,0.3713 0.3128,0 0.6841,-0.2772 1.1157,-0.8318 0.4318,-0.5546 0.6474,-0.9928 0.6474,-1.3145 0,-0.0968 -0.0406,-0.1869 -0.1229,-0.2692 -0.0809,-0.0839 -0.1884,-0.1245 -0.3218,-0.1245zm6.3186 1.9266c0,0.2655 -0.2237,0.5834 -0.6711,0.9522 -0.4459,0.3689 -0.9506,0.5546 -1.5131,0.5546 -0.4319,0 -0.7719,-0.1361 -1.019,-0.408 -0.2483,-0.2721 -0.3715,-0.6516 -0.3715,-1.1366 0,-0.7152 0.2526,-1.3865 0.7586,-2.0116 0.5062,-0.6267 1.0465,-0.9391 1.6207,-0.9391 0.2864,0 0.5165,0.0902 0.6891,0.2722 0.1741,0.1816 0.2615,0.3973 0.2615,0.6473 0,0.4447 -0.213,0.8683 -0.6408,1.2701 -0.4264,0.4026 -0.9729,0.68 -1.6401,0.8341 -0.0758,0.0172 -0.1137,0.0629 -0.1137,0.1375 0,0.1229 0.0534,0.2394 0.1622,0.3503 0.1086,0.1115 0.2536,0.1675 0.4356,0.1675 0.5125,0 1.0226,-0.2656 1.5289,-0.7938 0.0967,-0.102 0.1909,-0.1531 0.2823,-0.1531 0.1543,0 0.2304,0.0852 0.2304,0.2564zm-2.5713 -0.6774c0.4039,-0.0826 0.7596,-0.2551 1.0672,-0.5179 0.3087,-0.2629 0.4616,-0.5023 0.4616,-0.7168 0,-0.0837 -0.0234,-0.1542 -0.0707,-0.2117 -0.0471,-0.0578 -0.1074,-0.0865 -0.1819,-0.0865 -0.222,0 -0.468,0.1634 -0.7401,0.4905 -0.2706,0.327 -0.4487,0.6734 -0.5361,1.0424zm8.4671 -3.6987c0,0.1818 -0.0811,0.3412 -0.2445,0.4773 -0.1636,0.1374 -0.3059,0.2054 -0.4265,0.2054 -0.1528,0 -0.2889,-0.0641 -0.408,-0.1924 -0.1178,-0.127 -0.178,-0.2548 -0.178,-0.3818 0,-0.1845 0.0592,-0.3336 0.1768,-0.4474 0.1176,-0.1136 0.2863,-0.17 0.5062,-0.17 0.1712,0 0.3085,0.0498 0.4159,0.1515 0.1057,0.1012 0.1581,0.2199 0.1581,0.3574zm-1.8505 3.1507l0 0.0038c0.0823,-0.4655 0.1229,-0.7311 0.1229,-0.7978 0,-0.1883 0.0416,-0.3466 0.1241,-0.4747 0.0837,-0.1282 0.1989,-0.1921 0.3465,-0.1921 0.1741,0 0.3102,0.0418 0.407,0.1227 0.0967,0.0823 0.145,0.1741 0.145,0.276 0,0.1019 -0.047,0.3126 -0.141,0.633l-0.0235 0.0839c-0.1401,0.4929 -0.225,0.8957 -0.2526,1.2072 -0.0288,0.3112 -0.0432,0.5636 -0.0432,0.7543 0,0.1557 0.0275,0.3639 0.0811,0.6253 0.0079,0.046 0.012,0.0838 0.012,0.1137 0,0.0592 -0.0563,0.1388 -0.1677,0.2382 -0.1112,0.0994 -0.2301,0.1492 -0.3583,0.1492 -0.3362,0 -0.5049,-0.2553 -0.5049,-0.7665 0,-0.4341 0.0617,-0.9626 0.1833,-1.5852 0.026,-0.1386 0.0483,-0.2695 0.0693,-0.391zm3.5443 -0.5677c-0.022,0 -0.0941,0.2853 -0.2156,0.854 -0.1215,0.5704 -0.182,0.9156 -0.182,1.0345 0,0.2108 0.0221,0.3558 0.0668,0.4397 0.0445,0.0822 0.1178,0.1241 0.2198,0.1241 0.1437,0 0.2812,-0.0247 0.4121,-0.0745 0.1316,-0.0496 0.3046,-0.1623 0.5189,-0.3348 0.1337,-0.1099 0.2462,-0.1646 0.3375,-0.1646 0.0746,0 0.1334,0.0207 0.178,0.0625 0.0455,0.0421 0.0678,0.0916 0.0678,0.1478 0,0.2252 -0.1816,0.4789 -0.544,0.7638 -0.3636,0.2852 -0.7467,0.4277 -1.1496,0.4277 -0.3376,0 -0.5951,-0.0993 -0.7729,-0.2993 -0.1766,-0.199 -0.2655,-0.4852 -0.2655,-0.8583 0,-0.3451 0.1282,-1.0331 0.3871,-2.0652 -0.1635,0.0185 -0.2774,0.0276 -0.3414,0.0276l-0.0811 0c-0.1165,0 -0.2368,-0.0391 -0.3584,-0.1151 -0.1204,-0.0771 -0.1816,-0.2 -0.1816,-0.3688 0,-0.2145 0.1216,-0.322 0.3646,-0.322l0.8202 -0.03c0.1074,-0.3085 0.2211,-0.7137 0.3401,-1.2148 0.0718,-0.3115 0.2339,-0.467 0.4865,-0.467 0.1412,0 0.2512,0.0421 0.3296,0.1282 0.0797,0.0848 0.1191,0.1806 0.1191,0.2851 0,0.0406 -0.1088,0.4356 -0.3257,1.1837 0.8121,-0.0707 1.2583,-0.1072 1.3379,-0.1072 0.1348,0 0.2237,0.021 0.2683,0.0599 0.043,0.0394 0.0655,0.1154 0.0655,0.2277 0,0.2275 -0.1935,0.3715 -0.5795,0.4329l-1.3225 0.2224zm8.6675 1.7931c0,0.2655 -0.2238,0.5834 -0.6711,0.9522 -0.4459,0.3689 -0.9505,0.5546 -1.5131,0.5546 -0.4318,0 -0.7715,-0.1361 -1.0191,-0.408 -0.2483,-0.2721 -0.3712,-0.6516 -0.3712,-1.1366 0,-0.7152 0.2524,-1.3865 0.7583,-2.0116 0.5064,-0.6267 1.0466,-0.9391 1.6209,-0.9391 0.2863,0 0.5165,0.0902 0.6891,0.2722 0.174,0.1816 0.2615,0.3973 0.2615,0.6473 0,0.4447 -0.2131,0.8683 -0.6407,1.2701 -0.4266,0.4026 -0.9732,0.68 -1.6401,0.8341 -0.0759,0.0172 -0.1139,0.0629 -0.1139,0.1375 0,0.1229 0.0535,0.2394 0.1622,0.3503 0.1082,0.1115 0.2536,0.1675 0.4354,0.1675 0.5127,0 1.0229,-0.2656 1.5293,-0.7938 0.0967,-0.102 0.1909,-0.1531 0.2822,-0.1531 0.1543,0 0.2303,0.0852 0.2303,0.2564zm-2.5713 -0.6774c0.4039,-0.0826 0.7596,-0.2551 1.0673,-0.5179 0.3087,-0.2629 0.4615,-0.5023 0.4615,-0.7168 0,-0.0837 -0.0234,-0.1542 -0.0707,-0.2117 -0.0471,-0.0578 -0.1073,-0.0865 -0.1817,-0.0865 -0.2221,0 -0.4682,0.1634 -0.7403,0.4905 -0.2707,0.327 -0.4487,0.6734 -0.5361,1.0424zm5.8319 0.7126c-0.6725,0.8856 -1.3213,1.3289 -1.9462,1.3289 -0.2302,0 -0.4289,-0.0902 -0.5938,-0.2719 -0.1662,-0.1818 -0.2499,-0.4121 -0.2499,-0.6933 0,-0.6774 0.3022,-1.398 0.9036,-2.1633 0.6031,-0.765 1.2114,-1.1469 1.8248,-1.1469 0.3112,0 0.5166,0.157 0.6134,0.4708 0.2929,0 0.4406,0.1126 0.4406,0.3376 0,0.1071 -0.0287,0.3008 -0.0849,0.5818 -0.1021,0.526 -0.1529,0.9471 -0.1529,1.2608 0,0.327 0.0221,0.5572 0.0666,0.6894 0.0445,0.1333 0.0771,0.2196 0.0981,0.2614 0.0209,0.0408 0.0823,0.084 0.1844,0.1296 0.1021,0.0484 0.1529,0.1166 0.1529,0.2028 0,0.1308 -0.0651,0.2391 -0.1974,0.3256 -0.1322,0.0877 -0.2693,0.1308 -0.412,0.1308 -0.4799,0 -0.6959,-0.4811 -0.6473,-1.4441zm-0.2302 -2.1265c-0.2577,0 -0.5926,0.2852 -1.0058,0.8555 -0.4121,0.5715 -0.6186,1.0555 -0.6186,1.4545 0,0.2089 0.043,0.3137 0.1308,0.3137 0.3005,0 0.6721,-0.2669 1.113,-0.8019 0.4407,-0.5361 0.6603,-1.0033 0.6603,-1.4045 0,-0.1281 -0.0287,-0.229 -0.0861,-0.3048 -0.0576,-0.0757 -0.1217,-0.1125 -0.1936,-0.1125zm4.0008 2.4368c-0.0103,-0.1387 -0.2303,-0.3074 -0.6592,-0.5063 -0.5259,-0.2525 -0.862,-0.4707 -1.0072,-0.6527 -0.1463,-0.1832 -0.2183,-0.3818 -0.2183,-0.5961 0,-0.4529 0.2524,-0.8479 0.76,-1.1865 0.5073,-0.3375 0.9807,-0.5077 1.4202,-0.5077 0.4318,0 0.6474,0.1886 0.6474,0.5639 0,0.0994 -0.0496,0.1883 -0.1478,0.2682 -0.098,0.0785 -0.1818,0.1189 -0.2512,0.1189 -0.0287,0 -0.0784,-0.0182 -0.149,-0.0536 -0.0718,-0.0367 -0.1268,-0.0534 -0.1647,-0.0534 -0.2276,0 -0.4786,0.0756 -0.7509,0.2285 -0.2733,0.1546 -0.4108,0.3326 -0.4108,0.5377 0,0.0994 0.0485,0.1962 0.1454,0.2891 0.0982,0.0928 0.2956,0.2094 0.5938,0.3506 0.4422,0.2092 0.7336,0.3988 0.8738,0.5661 0.1412,0.1689 0.2118,0.3559 0.2118,0.5599 0,0.3729 -0.2525,0.684 -0.7573,0.9338 -0.5049,0.2487 -1.0711,0.3728 -1.699,0.3728 -0.4631,0 -0.6942,-0.1674 -0.6942,-0.5022 0,-0.1217 0.048,-0.2262 0.1462,-0.3139 0.0969,-0.0863 0.2054,-0.1294 0.3258,-0.1294 0.0484,0 0.1229,0.0168 0.2262,0.0534 0.1018,0.0381 0.1962,0.0575 0.2824,0.0575 0.2407,0 0.4918,-0.039 0.7559,-0.1149 0.263,-0.077 0.4357,-0.1713 0.5207,-0.2837zm5.2066 -1.2846c-0.0403,0.6213 -0.1122,1.223 -0.2156,1.8076 -0.1035,0.5833 -0.2563,1.1129 -0.4564,1.5878 -0.2003,0.4747 -0.416,0.7989 -0.6473,0.9717 -0.2316,0.1726 -0.5064,0.2589 -0.8255,0.2589 -0.3426,0 -0.6708,-0.0654 -0.9849,-0.1962l0.0039 0c-0.2705,-0.1125 -0.5073,-0.2627 -0.7073,-0.4524 -0.2003,-0.1883 -0.3009,-0.3479 -0.3009,-0.4787 0,-0.1205 0.03,-0.2159 0.0902,-0.2874 0.0603,-0.0709 0.1385,-0.1075 0.2353,-0.1075 0.0851,0 0.1542,0.0366 0.2107,0.1075 0.3269,0.4223 0.8028,0.6327 1.4256,0.6327 0.2524,0 0.497,-0.2643 0.7324,-0.794 0.234,-0.5283 0.3832,-1.1627 0.4434,-1.9041 -0.7887,0.6239 -1.3968,0.9351 -1.8232,0.9351 -0.2761,0 -0.4946,-0.1097 -0.6553,-0.3298 -0.1609,-0.2195 -0.242,-0.4837 -0.242,-0.7924 0,-0.3087 0.0733,-0.7586 0.2172,-1.3471 0.1437,-0.5886 0.2669,-0.9533 0.3673,-1.0959 0.1008,-0.1414 0.2656,-0.2122 0.4932,-0.2122 0.1217,0 0.2173,0.0526 0.2826,0.1584 0.0667,0.106 0.1007,0.2238 0.1007,0.3506 0,0.0389 -0.0931,0.2551 -0.2761,0.6473 -0.2249,0.4814 -0.3372,0.8946 -0.3372,1.2427 0,0.1777 0.0247,0.3137 0.0742,0.4079 0.0497,0.0928 0.1022,0.1388 0.1558,0.1388 0.1217,0 0.2708,-0.0368 0.4461,-0.11 0.1751,-0.0748 0.3805,-0.2028 0.6172,-0.3858 0.2356,-0.1831 0.3885,-0.3218 0.4578,-0.4158 0.0682,-0.0944 0.123,-0.2162 0.1649,-0.3664 0.0404,-0.1493 0.072,-0.4772 0.0954,-0.9861 0.0129,-0.2967 0.0276,-0.4826 0.0444,-0.5601 0.0158,-0.0754 0.0614,-0.1462 0.1361,-0.2102 0.0733,-0.0641 0.1727,-0.0955 0.2982,-0.0955 0.1687,0 0.2876,0.0353 0.3584,0.1072 0.0707,0.0719 0.1059,0.2406 0.1059,0.5061l-0.0852 1.2673zm1.8785 0.4225c-0.2565,0 -0.4542,-0.0523 -0.5954,-0.1569 -0.0405,-0.4983 -0.0037,-1.011 0.1074,-1.5368 0.1256,-0.57 0.1884,-0.9965 0.1884,-1.2806 0,-0.0274 0.0131,-0.1347 0.0405,-0.319 0.0261,-0.1857 0.107,-0.3269 0.2432,-0.4237 0.1346,-0.0969 0.2497,-0.1452 0.3454,-0.1452 0.102,0 0.1986,0.0367 0.2931,0.1124 0.0928,0.076 0.1395,0.1581 0.1395,0.2473 0,0.0717 -0.0522,0.336 -0.1555,0.7952 -0.1032,0.4578 -0.2064,0.8802 -0.3086,1.2662 -0.1072,0.4013 -0.1634,0.7219 -0.1687,0.961 -0.0052,0.1819 -0.0486,0.3414 -0.1293,0.4801zm-0.5444 1.7619c-0.2811,0 -0.4225,-0.1556 -0.4225,-0.4671 0,-0.1178 0.0578,-0.2525 0.1727,-0.4067 0.1153,-0.1528 0.2395,-0.2288 0.3716,-0.2288 0.0877,0 0.1962,0.042 0.3257,0.1255 0.1309,0.0851 0.1962,0.1556 0.1962,0.2146l-0.0393 0.2378c-0.0224,0.1688 -0.106,0.2983 -0.2485,0.3885 -0.1426,0.0916 -0.2615,0.1362 -0.3559,0.1362z"/>
 </g>
</svg>
