<?xml version="1.0" encoding="UTF-8"?>
<!DOCTYPE svg PUBLIC "-//W3C//DTD SVG 1.1//EN" "http://www.w3.org/Graphics/SVG/1.1/DTD/svg11.dtd">
<!-- Creator: CorelDRAW -->
<svg xmlns="http://www.w3.org/2000/svg" xml:space="preserve" width="5.272in" height="3.022in" style="shape-rendering:geometricPrecision; text-rendering:geometricPrecision; image-rendering:optimizeQuality; fill-rule:evenodd; clip-rule:evenodd"
viewBox="0 0 5.272 3.022"
 xmlns:xlink="http://www.w3.org/1999/xlink">
 <defs>
  <style type="text/css">
   <![CDATA[
    .fil0 {fill:white}
    .fil2 {fill:#009D65;fill-rule:nonzero}
    .fil1 {fill:#E77817;fill-rule:nonzero}
   ]]>
  </style>
 </defs>
 <g id="Layer_x0020_1">
  <metadata id="CorelCorpID_0Corel-Layer"/>
  <polygon class="fil0" points="-7.87402e-006,1.19979 5.27201,-1.1811e-005 5.27201,1.82221 -7.87402e-006,3.02221 "/>
  <g id="_166682832">
   <path id="_168261640" class="fil1" d="M1.06754 1.78232l-0.102673 0 0 -0.213413 -0.209445 0 0 0.213413 -0.103031 0 0 -0.513488 0.103031 0 0 0.220752 0.209445 0 0 -0.220752 0.102673 0 0 0.513488zm0.0718583 -0.194276c0,-0.0569331 0.0158898,-0.103516 0.0476654,-0.13987 0.0316575,-0.0363465 0.0757126,-0.0545236 0.131925,-0.0545236 0.0563307,0 0.100508,0.0180551 0.132524,0.0542874 0.0320197,0.0362323 0.0480276,0.0829291 0.0480276,0.140106l0 0.00734252c0,0.0574173 -0.0160079,0.104118 -0.0477835,0.140228 -0.0319016,0.0361142 -0.0759567,0.0541693 -0.132165,0.0541693 -0.0563346,0 -0.100508,-0.0180551 -0.132406,-0.0541693 -0.0317795,-0.0361102 -0.0477874,-0.082811 -0.0477874,-0.140228l0 -0.00734252zm0.102673 0.00734252c0,0.0349055 0.00614173,0.0628346 0.0182992,0.0838976 0.0122756,0.021063 0.0320157,0.0315354 0.0592205,0.0315354 0.0265984,0 0.0461024,-0.0105906 0.058378,-0.0317795 0.0123976,-0.0211811 0.0185354,-0.0489882 0.0185354,-0.0836535l0 -0.00734252c0,-0.0339409 -0.00625984,-0.0615079 -0.0186535,-0.0829331 -0.0125236,-0.0214252 -0.0321417,-0.0321378 -0.0588622,-0.0321378 -0.0266024,0 -0.0461024,0.0107126 -0.0583819,0.0322598 -0.0123937,0.0215472 -0.0185354,0.0491063 -0.0185354,0.082811l0 0.00734252zm0.443319 -0.288039l0 0.0934055 0.0641535 0 0 0.0723425 -0.0641535 0 0 0.194272c0,0.0148071 0.00300787,0.0253976 0.00914567,0.0317795 0.0061378,0.00637795 0.0143268,0.00950787 0.0246772,0.00950787 0.00541732,0 0.00998819,-0.000240157 0.0139646,-0.000846457 0.00385039,-0.000598425 0.00842126,-0.0016811 0.0135984,-0.00300394l0.0087874 0.0743858c-0.0103504,0.00348819 -0.0204606,0.0061378 -0.0303307,0.00794488 -0.00987402,0.00180709 -0.0205827,0.00264961 -0.0321378,0.00264961 -0.0355118,0 -0.0628307,-0.00975197 -0.0819724,-0.029252 -0.0191378,-0.0194961 -0.0287677,-0.0504331 -0.0287677,-0.0928071l0 -0.19463 -0.0557283 0 0 -0.0723425 0.0557283 0 0 -0.0934055 0.103035 0zm0.29863 0.482437c-0.0550079,0 -0.0989409,-0.0176969 -0.131803,-0.0529646 -0.0329803,-0.0352677 -0.0493504,-0.0800433 -0.0493504,-0.134327l0 -0.0140866c0,-0.0566929 0.0155276,-0.103394 0.0467047,-0.140106 0.0311772,-0.0367165 0.0729449,-0.0548898 0.125303,-0.0546496 0.0515157,0 0.0914803,0.0155276 0.119886,0.0465827 0.0285276,0.0310551 0.0427283,0.0729409 0.0427283,0.125906l0 0.0560906 -0.227854 0 -0.000724409 0.00216929c0.0019252,0.0251575 0.0103543,0.0458583 0.0252795,0.0621063 0.0149252,0.016252 0.0351457,0.024315 0.0607874,0.024315 0.0228661,0 0.0417677,-0.0022874 0.056811,-0.00685827 0.0150472,-0.0045748 0.0315354,-0.0117953 0.0493543,-0.0216693l0.0279252 0.063437c-0.0155276,0.0126378 -0.035874,0.0232323 -0.0610276,0.0315354 -0.0251575,0.00830709 -0.0532008,0.0125197 -0.0840197,0.0125197zm-0.00914567 -0.316811c-0.0190197,0 -0.034063,0.00734252 -0.0451378,0.0219055 -0.0110748,0.0145669 -0.0178189,0.0338268 -0.0204646,0.0575354l0.00108661 0.00180709 0.126264 0 0 -0.00914567c0,-0.0219055 -0.00517323,-0.0394843 -0.0152874,-0.0524843 -0.0102323,-0.0131181 -0.0257598,-0.0196181 -0.0464606,-0.0196181zm0.330894 0.309346l-0.103039 0 0 -0.550083 0.103039 0 0 0.550083z"/>
   <path id="_168261808" class="fil2" d="M2.61403 1.2688l0.102555 0 0 0.359417c0,0.0495945 -0.0161339,0.0889528 -0.0485118,0.117965 -0.0322559,0.0290079 -0.0731811,0.0435748 -0.122535,0.0435748 -0.053563,0 -0.0960512,-0.013 -0.127228,-0.039122 -0.0312953,-0.0261181 -0.0463425,-0.0645157 -0.0451339,-0.115315l0.000598425 -0.00216535 0.100146 0c0,0.0270827 0.00650394,0.0468268 0.0195039,0.0591024 0.012874,0.0123976 0.0303268,0.0185354 0.0521142,0.0185354 0.0190197,0 0.0352717,-0.00734252 0.0485118,-0.0220276 0.0132362,-0.014685 0.0199803,-0.0349055 0.0199803,-0.0605472l0 -0.359417zm0.172728 0.319217c0,-0.0569331 0.0158858,-0.103516 0.0476654,-0.13987 0.0316535,-0.0363465 0.0757126,-0.0545236 0.131921,-0.0545236 0.0563346,0 0.100512,0.0180551 0.132524,0.0542835 0.0320197,0.0362323 0.0480276,0.0829331 0.0480276,0.14011l0 0.00733858c0,0.0574173 -0.0160079,0.104122 -0.0477835,0.140232 -0.0318976,0.0361102 -0.0759528,0.0541693 -0.132165,0.0541693 -0.0563307,0 -0.100504,-0.0180591 -0.132406,-0.0541693 -0.0317795,-0.0361102 -0.0477835,-0.082815 -0.0477835,-0.140232l0 -0.00733858zm0.102669 0.00733858c0,0.0349094 0.0061378,0.0628386 0.0182953,0.0839016 0.0122795,0.021063 0.0320197,0.0315354 0.0592205,0.0315354 0.0266024,0 0.0461024,-0.0105906 0.058378,-0.0317795 0.0123976,-0.021185 0.0185394,-0.0489882 0.0185394,-0.0836575l0 -0.00733858c0,-0.0339449 -0.00625984,-0.0615118 -0.0186575,-0.0829331 -0.0125197,-0.0214291 -0.0321378,-0.0321378 -0.0588622,-0.0321378 -0.0265984,0 -0.0461024,0.0107087 -0.058378,0.0322559 -0.0123976,0.0215472 -0.0185354,0.0491102 -0.0185354,0.082815l0 0.00733858zm0.665157 0.00674409c0,0.056937 -0.0127559,0.102433 -0.0381535,0.1365 -0.0253976,0.034063 -0.0621142,0.0511575 -0.11002,0.0511575 -0.0221457,0 -0.0414055,-0.00469685 -0.0580157,-0.0139646 -0.0166102,-0.00926772 -0.0305748,-0.022874 -0.0421299,-0.0408031l-0.00770079 0.0473031 -0.0882323 0 0 -0.550083 0.102673 0 0 0.208957c0.0109567,-0.0151654 0.0241969,-0.0269646 0.0396024,-0.0351457 0.0154055,-0.00830315 0.0331024,-0.0123976 0.0530827,-0.0123976 0.0485079,0 0.0853425,0.0182953 0.11074,0.0548858 0.0253976,0.0365945 0.0381535,0.0852244 0.0381535,0.14613l0 0.00746063zm-0.102673 -0.00746063c0,-0.0370748 -0.00541732,-0.0665669 -0.0163701,-0.0883543 -0.0109528,-0.0217835 -0.0296102,-0.0326181 -0.0559685,-0.0326181 -0.0158937,0 -0.0294921,0.00337402 -0.0405669,0.0101102 -0.0109567,0.00662205 -0.0197402,0.016252 -0.026,0.0286496l0 0.161654c0.00625984,0.0115551 0.0150433,0.0203425 0.0262402,0.0264803 0.0111929,0.0061378 0.0247992,0.00914961 0.0410433,0.00914961 0.0266063,0 0.0451417,-0.00938976 0.0557323,-0.0280472 0.0105945,-0.0186575 0.0158898,-0.0452559 0.0158898,-0.079563l0 -0.00746063zm0.510358 0.00746063c0,0.056937 -0.0127559,0.102433 -0.0381535,0.1365 -0.0253937,0.034063 -0.0621102,0.0511575 -0.11002,0.0511575 -0.0221457,0 -0.0414016,-0.00469685 -0.0580118,-0.0139646 -0.0166102,-0.00926772 -0.0305748,-0.022874 -0.0421339,-0.0408031l-0.00770079 0.0473031 -0.0882323 0 0 -0.550083 0.102677 0 0 0.208957c0.0109528,-0.0151654 0.0241929,-0.0269646 0.0396024,-0.0351457 0.0154055,-0.00830315 0.0331024,-0.0123976 0.0530827,-0.0123976 0.0485039,0 0.0853425,0.0182953 0.110736,0.0548858 0.0253976,0.0365945 0.0381535,0.0852244 0.0381535,0.14613l0 0.00746063zm-0.102669 -0.00746063c0,-0.0370748 -0.00542126,-0.0665669 -0.0163701,-0.0883543 -0.0109567,-0.0217835 -0.0296102,-0.0326181 -0.0559724,-0.0326181 -0.0158898,0 -0.0294882,0.00337402 -0.040563,0.0101102 -0.0109567,0.00662205 -0.0197441,0.016252 -0.026,0.0286496l0 0.161654c0.00625591,0.0115551 0.0150433,0.0203425 0.0262402,0.0264803 0.0111929,0.0061378 0.0247953,0.00914961 0.0410433,0.00914961 0.0266024,0 0.0451378,-0.00938976 0.0557323,-0.0280472 0.0105945,-0.0186575 0.0158898,-0.0452559 0.0158898,-0.079563l0 -0.00746063zm0.334984 0.195118c-0.0550079,0 -0.0989409,-0.0176969 -0.131803,-0.0529646 -0.0329803,-0.0352717 -0.0493543,-0.0800433 -0.0493543,-0.134331l0 -0.0140866c0,-0.0566929 0.0155315,-0.103394 0.0467047,-0.140106 0.0311772,-0.0367126 0.0729449,-0.0548858 0.125307,-0.0546457 0.0515157,0 0.0914803,0.0155276 0.119882,0.0465787 0.0285276,0.0310591 0.0427323,0.0729449 0.0427323,0.125909l0 0.0560906 -0.227854 0 -0.000724409 0.00216535c0.0019252,0.0251575 0.0103504,0.0458583 0.0252756,0.0621102 0.0149252,0.016252 0.0351496,0.024315 0.0607874,0.024315 0.0228701,0 0.0417677,-0.0022874 0.056815,-0.0068622 0.0150433,-0.00457087 0.0315354,-0.0117913 0.0493504,-0.0216654l0.0279252 0.0634331c-0.0155276,0.0126417 -0.0358701,0.0232323 -0.0610236,0.0315354 -0.0251575,0.00830709 -0.0532047,0.0125236 -0.0840197,0.0125236zm-0.00914567 -0.316811c-0.0190197,0 -0.0340669,0.00733858 -0.0451417,0.0219055 -0.0110748,0.0145669 -0.017815,0.0338228 -0.0204646,0.0575354l0.00108661 0.00180709 0.126268 0 0 -0.00914567c0,-0.0219094 -0.00517717,-0.0394843 -0.0152874,-0.0524843 -0.0102323,-0.013122 -0.0257638,-0.0196181 -0.0464606,-0.0196181zm0.423213 0.016252l-0.0376772 -0.00108661c-0.0152835,0 -0.0279252,0.00312992 -0.0377953,0.00950787 -0.00986614,0.00638189 -0.0173307,0.0152874 -0.0225079,0.0268425l0 0.257831 -0.102673 0 0 -0.381567 0.0955709 0 0.0045748 0.0564528c0.00890551,-0.0199843 0.0205827,-0.0356299 0.0347874,-0.0468268 0.0142047,-0.0111929 0.0305709,-0.0167283 0.0491102,-0.0167283 0.00517717,0 0.00998819,0.000358268 0.0143228,0.00120079 0.00433465,0.00084252 0.0087874,0.00180709 0.0132402,0.00301181l-0.0109528 0.0913622z"/>
  </g>
 </g>
</svg>
