<?xml version="1.0" encoding="UTF-8"?>
<!DOCTYPE svg PUBLIC "-//W3C//DTD SVG 1.1//EN" "http://www.w3.org/Graphics/SVG/1.1/DTD/svg11.dtd">
<!-- Creator: CorelDRAW -->
<svg xmlns="http://www.w3.org/2000/svg" xml:space="preserve" width="5in" height="3in" style="shape-rendering:geometricPrecision; text-rendering:geometricPrecision; image-rendering:optimizeQuality; fill-rule:evenodd; clip-rule:evenodd"
viewBox="0 0 5 3"
 xmlns:xlink="http://www.w3.org/1999/xlink">
 <defs>
  <style type="text/css">
   <![CDATA[
    .fil2 {fill:#AAA9A9}
    .fil0 {fill:#C2C1C1}
    .fil1 {fill:#1F1A17;fill-rule:nonzero}
    .fil4 {fill:#838281;fill-rule:nonzero}
    .fil3 {fill:white;fill-rule:nonzero}
   ]]>
  </style>
 </defs>
 <g id="Layer_x0020_1">
  <metadata id="CorelCorpID_0Corel-Layer"/>
  <g id="_299476232">
   <path id="_299482064" class="fil0" d="M0.643114 2.12633l3.71377 0c0.076874,0 0.139768,0.0628937 0.139768,0.139768l0 -3.93701e-006c0,0.076874 -0.0628937,0.139768 -0.139768,0.139768l-3.71377 0c-0.076874,0 -0.139768,-0.0628937 -0.139768,-0.139768l0 3.93701e-006c0,-0.076874 0.0628937,-0.139768 0.139768,-0.139768z"/>
   <path id="_299473280" class="fil1" d="M1.51091 1.46506l-0.0388228 0 -0.0154213 -0.0401378 -0.0706102 0 -0.0145591 0.0401378 -0.0378346 0 0.0688031 -0.17663 0.0377087 0 0.0707362 0.17663zm-0.0656772 -0.0698701l-0.0243465 -0.0655551 -0.0238504 0.0655551 0.0481969 0zm0.0833583 -0.0580669l0.0315866 0 0 0.0187913c0.00407087,-0.00645669 0.00962205,-0.0116772 0.0166142,-0.0156693 0.00698819,-0.00402756 0.0147638,-0.00604331 0.0232756,-0.00604331 0.0148465,0 0.0274724,0.00583858 0.0377953,0.0174764 0.0103622,0.0116378 0.0155433,0.0278819 0.0155433,0.0486929 0,0.0213425 -0.00522441,0.0379567 -0.015626,0.0498031 -0.0104488,0.0118425 -0.0231142,0.0177638 -0.0379606,0.0177638 -0.00707087,0 -0.0134882,-0.00139764 -0.0192441,-0.00419291 -0.00571654,-0.00283858 -0.0117638,-0.00764961 -0.0181378,-0.0144764l0 0.0644843 -0.0338465 0 0 -0.17663zm0.0335197 0.0618071c0,0.0143543 0.00283465,0.0250039 0.00855118,0.0318307 0.00567717,0.00687008 0.012626,0.0103228 0.0208504,0.0103228 0.00785433,0 0.0143937,-0.00316535 0.0196181,-0.00945669 0.00522047,-0.00629528 0.00785433,-0.0166575 0.00785433,-0.0310079 0,-0.0134488 -0.0027126,-0.0234016 -0.00810236,-0.0298976 -0.00538583,-0.0065 -0.0120472,-0.00974803 -0.0199843,-0.00974803 -0.00826772,0 -0.0151339,0.00316535 -0.0206063,0.00958268 -0.0054685,0.00637402 -0.0081811,0.0158307 -0.0081811,0.028374zm0.117201 -0.0618071l0.0315866 0 0 0.0187913c0.00407087,-0.00645669 0.00962205,-0.0116772 0.0166142,-0.0156693 0.00698819,-0.00402756 0.0147638,-0.00604331 0.0232756,-0.00604331 0.0148465,0 0.0274724,0.00583858 0.0377953,0.0174764 0.0103622,0.0116378 0.0155433,0.0278819 0.0155433,0.0486929 0,0.0213425 -0.00522441,0.0379567 -0.015626,0.0498031 -0.0104488,0.0118425 -0.0231142,0.0177638 -0.0379606,0.0177638 -0.00707087,0 -0.0134882,-0.00139764 -0.0192441,-0.00419291 -0.00571654,-0.00283858 -0.0117638,-0.00764961 -0.0181378,-0.0144764l0 0.0644843 -0.0338465 0 0 -0.17663zm0.0335197 0.0618071c0,0.0143543 0.00283465,0.0250039 0.00855118,0.0318307 0.00567717,0.00687008 0.012626,0.0103228 0.0208504,0.0103228 0.00785433,0 0.0143937,-0.00316535 0.0196181,-0.00945669 0.00522047,-0.00629528 0.00785433,-0.0166575 0.00785433,-0.0310079 0,-0.0134488 -0.0027126,-0.0234016 -0.00810236,-0.0298976 -0.00538583,-0.0065 -0.0120472,-0.00974803 -0.0199843,-0.00974803 -0.00826772,0 -0.0151339,0.00316535 -0.0206063,0.00958268 -0.0054685,0.00637402 -0.0081811,0.0158307 -0.0081811,0.028374zm0.106264 0.0296102l0.0339685 -0.0051811c0.00144094,0.00657874 0.00435827,0.0115984 0.00879921,0.0150118 0.00440157,0.00341339 0.0105709,0.0051378 0.0185472,0.0051378 0.00875984,0 0.0153425,-0.00160236 0.0197402,-0.00485039 0.00300394,-0.00222047 0.00448425,-0.00526378 0.00448425,-0.00900787 0,-0.00259055 -0.000822835,-0.00472835 -0.0024252,-0.00641339 -0.00168898,-0.0016063 -0.00547244,-0.00308661 -0.011311,-0.00444094 -0.0273071,-0.00600394 -0.044622,-0.0115157 -0.0519409,-0.0164921 -0.0101181,-0.00690945 -0.0151732,-0.0165315 -0.0151732,-0.0288268 0,-0.011063 0.00435827,-0.0204016 0.0131181,-0.0279252 0.00875984,-0.00756693 0.0223307,-0.0113504 0.0407126,-0.0113504 0.0175197,0 0.0305551,0.00287795 0.0390669,0.00855512 0.00851575,0.00571654 0.0143543,0.0141457 0.017563,0.0253307l-0.0319134 0.00588189c-0.00135827,-0.00497638 -0.00394882,-0.00880315 -0.00777165,-0.0114331 -0.00382677,-0.00267323 -0.00925591,-0.00398819 -0.0163268,-0.00398819 -0.0089252,0 -0.0152992,0.00123228 -0.0191654,0.00374016 -0.00255118,0.00176772 -0.00382283,0.00407087 -0.00382283,0.00687008 0,0.0024252 0.00111024,0.00444094 0.00337008,0.00612598 0.00304331,0.00226378 0.0135709,0.00542913 0.031626,0.00954331 0.0180118,0.00407087 0.0305945,0.00908661 0.037752,0.0150512 0.0070748,0.00604331 0.0106102,0.0144331 0.0106102,0.0251654 0,0.0117205 -0.0048937,0.0218386 -0.0147244,0.0302677 -0.0097874,0.00843307 -0.0242638,0.012626 -0.0434685,0.012626 -0.017437,0 -0.0312126,-0.00353543 -0.0414094,-0.0106102 -0.0101614,-0.0070315 -0.0167795,-0.0166535 -0.0199055,-0.0287874zm0.202866 -0.0914173l0.0187953 0 0 -0.00966535c0,-0.0107362 0.00114961,-0.0187953 0.00345276,-0.0240984 0.00230315,-0.00530709 0.0065,-0.00962598 0.012626,-0.0129567 0.00616929,-0.00333071 0.0139409,-0.00497638 0.0233189,-0.00497638 0.00966535,0 0.0190827,0.00144094 0.0283346,0.0043189l-0.00456693 0.0236457c-0.00538583,-0.00131496 -0.0105669,-0.00193307 -0.0155433,-0.00193307 -0.00493701,0 -0.00842913,0.00111024 -0.0105709,0.00341339 -0.0021378,0.00230315 -0.00316535,0.00670472 -0.00316535,0.0132008l0 0.00905118 0.0252913 0 0 0.0266063 -0.0252913 0 0 0.101331 -0.0338858 0 0 -0.101331 -0.0187953 0 0 -0.0266063zm0.0891575 0.0621378c0,-0.0112283 0.00279528,-0.022126 0.00830709,-0.0326535 0.00555118,-0.0104882 0.0134055,-0.0185472 0.023563,-0.0240591 0.0101575,-0.00555118 0.0215079,-0.00834646 0.0340512,-0.00834646 0.0193307,0 0.0352047,0.00629134 0.0475827,0.018874 0.012378,0.0125866 0.0185472,0.0284606 0.0185472,0.0476654 0,0.0193268 -0.00625197,0.0353661 -0.0187126,0.0481142 -0.0125,0.012752 -0.0282126,0.0190827 -0.0471693,0.0190827 -0.0117598,0 -0.0229055,-0.00262992 -0.0335591,-0.00793701 -0.0106496,-0.00530315 -0.018752,-0.0130787 -0.0243031,-0.0233189 -0.00551181,-0.0102362 -0.00830709,-0.0227008 -0.00830709,-0.0374213zm0.0347087 0.00181102c0,0.0127047 0.00300394,0.0224094 0.00904724,0.0291575 0.00600394,0.00674409 0.0134488,0.0101142 0.0222913,0.0101142 0.00884252,0 0.0162441,-0.00337008 0.0222047,-0.0101142 0.00600394,-0.00674803 0.00900787,-0.0165354 0.00900787,-0.0294055 0,-0.0125039 -0.00300394,-0.0221654 -0.00900787,-0.0289094 -0.00596063,-0.00674803 -0.0133622,-0.0101181 -0.0222047,-0.0101181 -0.00884252,0 -0.0162874,0.00337008 -0.0222913,0.0101181 -0.00604331,0.00674409 -0.00904724,0.0164882 -0.00904724,0.0291575zm0.156272 0.0639882l-0.0338465 0 0 -0.127937 0.0314213 0 0 0.0181772c0.00538583,-0.00859843 0.0102402,-0.0142717 0.0145157,-0.0169882 0.0043189,-0.0027126 0.00917323,-0.00411024 0.0146417,-0.00411024 0.00773228,0 0.0151339,0.0021378 0.0222913,0.00641339l-0.0104882 0.0294882c-0.00567717,-0.00366142 -0.0109803,-0.00551181 -0.015874,-0.00551181 -0.00477165,0 -0.00875984,0.00127559 -0.0120512,0.00390945 -0.00333071,0.00259055 -0.00587795,0.0073189 -0.00777165,0.0141457 -0.00188976,0.00682677 -0.00283858,0.0211378 -0.00283858,0.0428937l0 0.0395197zm0.132425 0l0 -0.17663 0.130941 0 0 0.0298976 -0.0952874 0 0 0.0391496 0.0886654 0 0 0.0297323 -0.0886654 0 0 0.0480748 0.0986575 0 0 0.0297756 -0.134311 0zm0.161783 -0.127937l0.0312165 0 0 0.0174331c0.0111417,-0.0135709 0.0244685,-0.0203543 0.0398898,-0.0203543 0.00818504,0 0.0152992,0.00168504 0.0213031,0.00505906 0.00604331,0.00337008 0.0109803,0.00847244 0.0148465,0.0152953 0.00559055,-0.00682283 0.0116772,-0.0119252 0.0181772,-0.0152953 0.00649606,-0.00337402 0.0134449,-0.00505906 0.0208504,-0.00505906 0.00937402,0 0.0173543,0.00193307 0.0238504,0.00575591 0.0065,0.00378346 0.0113504,0.00941732 0.0145591,0.0167795 0.00234252,0.0054685 0.00349606,0.014311 0.00349606,0.0265276l0 0.0817953 -0.0338465 0 0 -0.0731181c0,-0.0127087 -0.00114961,-0.0208937 -0.00349606,-0.0245945 -0.00312598,-0.00481102 -0.00793701,-0.00723622 -0.0144331,-0.00723622 -0.00477165,0 -0.0092126,0.00143701 -0.0134094,0.00435827 -0.00415354,0.00287795 -0.00715354,0.00711417 -0.00900394,0.0127087 -0.00185039,0.00559055 -0.00279528,0.0143937 -0.00279528,0.0264409l0 0.0614409 -0.0338465 0 0 -0.0701181c0,-0.0124606 -0.00061811,-0.0204803 -0.00181102,-0.0240984 -0.00119291,-0.00361811 -0.00308268,-0.00629134 -0.00559055,-0.00805906 -0.00255118,-0.00177165 -0.00596457,-0.00267323 -0.0103228,-0.00267323 -0.00522441,0 -0.00991339,0.00139764 -0.0140669,0.00423622 -0.00419291,0.00279528 -0.00719685,0.00686614 -0.00900394,0.0121693 -0.00181102,0.00530709 -0.00271654,0.0140669 -0.00271654,0.0263622l0 0.0621811 -0.0338465 0 0 -0.127937zm0.220965 0l0.0315866 0 0 0.0187913c0.00407087,-0.00645669 0.00962205,-0.0116772 0.0166142,-0.0156693 0.00698819,-0.00402756 0.0147638,-0.00604331 0.0232756,-0.00604331 0.0148465,0 0.0274724,0.00583858 0.0377953,0.0174764 0.0103622,0.0116378 0.0155433,0.0278819 0.0155433,0.0486929 0,0.0213425 -0.00522441,0.0379567 -0.015626,0.0498031 -0.0104488,0.0118425 -0.0231142,0.0177638 -0.0379606,0.0177638 -0.00707087,0 -0.0134882,-0.00139764 -0.0192441,-0.00419291 -0.00571654,-0.00283858 -0.0117638,-0.00764961 -0.0181378,-0.0144764l0 0.0644843 -0.0338465 0 0 -0.17663zm0.0335197 0.0618071c0,0.0143543 0.00283465,0.0250039 0.00855118,0.0318307 0.00567717,0.00687008 0.012626,0.0103228 0.0208504,0.0103228 0.00785433,0 0.0143937,-0.00316535 0.0196181,-0.00945669 0.00522047,-0.00629528 0.00785433,-0.0166575 0.00785433,-0.0310079 0,-0.0134488 -0.0027126,-0.0234016 -0.00810236,-0.0298976 -0.00538583,-0.0065 -0.0120472,-0.00974803 -0.0199843,-0.00974803 -0.00826772,0 -0.0151339,0.00316535 -0.0206063,0.00958268 -0.0054685,0.00637402 -0.0081811,0.0158307 -0.0081811,0.028374zm0.118189 0.0661299l0 -0.17663 0.0338465 0 0 0.17663 -0.0338465 0zm0.0607008 -0.0657992c0,-0.0112283 0.00279528,-0.022126 0.00830709,-0.0326535 0.00555118,-0.0104882 0.0134055,-0.0185472 0.023563,-0.0240591 0.0101575,-0.00555118 0.0215079,-0.00834646 0.0340512,-0.00834646 0.0193307,0 0.0352047,0.00629134 0.0475827,0.018874 0.012378,0.0125866 0.0185472,0.0284606 0.0185472,0.0476654 0,0.0193268 -0.00625197,0.0353661 -0.0187126,0.0481142 -0.0125,0.012752 -0.0282126,0.0190827 -0.0471693,0.0190827 -0.0117598,0 -0.0229055,-0.00262992 -0.0335591,-0.00793701 -0.0106496,-0.00530315 -0.018752,-0.0130787 -0.0243031,-0.0233189 -0.00551181,-0.0102362 -0.00830709,-0.0227008 -0.00830709,-0.0374213zm0.0347087 0.00181102c0,0.0127047 0.00300394,0.0224094 0.00904724,0.0291575 0.00600394,0.00674409 0.0134488,0.0101142 0.0222913,0.0101142 0.00884252,0 0.0162441,-0.00337008 0.0222047,-0.0101142 0.00600394,-0.00674803 0.00900787,-0.0165354 0.00900787,-0.0294055 0,-0.0125039 -0.00300394,-0.0221654 -0.00900787,-0.0289094 -0.00596063,-0.00674803 -0.0133622,-0.0101181 -0.0222047,-0.0101181 -0.00884252,0 -0.0162874,0.00337008 -0.0222913,0.0101181 -0.00604331,0.00674409 -0.00904724,0.0164882 -0.00904724,0.0291575zm0.107827 -0.0639488l0.0360276 0 0.0305945 0.0908425 0.0298976 -0.0908425 0.0350394 0 -0.0451535 0.123126 -0.00810236 0.0222874c-0.00296063,0.00744488 -0.00579921,0.0131614 -0.00847244,0.0171102 -0.0027126,0.00394882 -0.00579921,0.00711417 -0.00929528,0.00958268 -0.00349606,0.0024252 -0.00777165,0.00435827 -0.0128701,0.00571654 -0.00509843,0.00135433 -0.0108583,0.00205512 -0.017315,0.00205512 -0.00649606,0 -0.0128701,-0.000700787 -0.0191654,-0.00205512l-0.003 -0.0265276c0.00530315,0.00107087 0.0100748,0.00156299 0.0143504,0.00156299 0.00785827,0 0.0136969,-0.00230315 0.0174803,-0.00690945 0.00374016,-0.0046063 0.00666142,-0.0104843 0.00867717,-0.0176417l-0.0486929 -0.128307zm0.227339 0.0872244l0.0337638 0.00563386c-0.0043622,0.012378 -0.011189,0.0217953 -0.020563,0.028252 -0.00933465,0.00649606 -0.0210551,0.00970472 -0.035122,0.00970472 -0.022248,0 -0.0386969,-0.00723622 -0.0493898,-0.0217953 -0.00842913,-0.0116378 -0.0126654,-0.0263622 -0.0126654,-0.0440866 0,-0.0212205 0.00555118,-0.0378346 0.0166535,-0.0498425 0.011063,-0.0120079 0.0250866,-0.0180118 0.0420315,-0.0180118 0.0190394,0 0.0340512,0.00629134 0.0450709,0.018874 0.0109803,0.0125866 0.0162441,0.0318307 0.0157913,0.0577835l-0.0848386 0c0.000244094,0.0100315 0.00296063,0.0178465 0.00818504,0.0233976 0.00522047,0.00559449 0.0117598,0.00838976 0.0195315,0.00838976 0.00530709,0 0.00974803,-0.00143701 0.0133661,-0.0043189 0.00361811,-0.00291732 0.00637402,-0.00756693 0.00818504,-0.0139803zm0.00193307 -0.0342165c-0.000248031,-0.00983071 -0.00275591,-0.0172717 -0.00756693,-0.0223701 -0.00481102,-0.00510236 -0.0106929,-0.00764961 -0.0176024,-0.00764961 -0.00740157,0 -0.0134882,0.0027126 -0.0182992,0.00809843 -0.00481496,0.00534646 -0.00719685,0.0126693 -0.00711417,0.0219213l0.0505827 0zm0.0936378 0.0749291l-0.0338465 0 0 -0.127937 0.0314213 0 0 0.0181772c0.00538583,-0.00859843 0.0102402,-0.0142717 0.0145157,-0.0169882 0.0043189,-0.0027126 0.00917323,-0.00411024 0.0146417,-0.00411024 0.00773228,0 0.0151339,0.0021378 0.0222913,0.00641339l-0.0104882 0.0294882c-0.00567717,-0.00366142 -0.0109803,-0.00551181 -0.015874,-0.00551181 -0.00477165,0 -0.00875984,0.00127559 -0.0120512,0.00390945 -0.00333071,0.00259055 -0.00587795,0.0073189 -0.00777165,0.0141457 -0.00188976,0.00682677 -0.00283858,0.0211378 -0.00283858,0.0428937l0 0.0395197zm0.0516969 -0.0365197l0.0339685 -0.0051811c0.00144094,0.00657874 0.00435827,0.0115984 0.00879921,0.0150118 0.00440157,0.00341339 0.0105709,0.0051378 0.0185472,0.0051378 0.00875984,0 0.0153425,-0.00160236 0.0197402,-0.00485039 0.00300394,-0.00222047 0.00448425,-0.00526378 0.00448425,-0.00900787 0,-0.00259055 -0.000822835,-0.00472835 -0.0024252,-0.00641339 -0.00168898,-0.0016063 -0.00547244,-0.00308661 -0.011311,-0.00444094 -0.0273071,-0.00600394 -0.044622,-0.0115157 -0.0519409,-0.0164921 -0.0101181,-0.00690945 -0.0151732,-0.0165315 -0.0151732,-0.0288268 0,-0.011063 0.00435827,-0.0204016 0.0131181,-0.0279252 0.00875984,-0.00756693 0.0223307,-0.0113504 0.0407126,-0.0113504 0.0175197,0 0.0305551,0.00287795 0.0390669,0.00855512 0.00851575,0.00571654 0.0143543,0.0141457 0.017563,0.0253307l-0.0319134 0.00588189c-0.00135827,-0.00497638 -0.00394882,-0.00880315 -0.00777165,-0.0114331 -0.00382677,-0.00267323 -0.00925591,-0.00398819 -0.0163268,-0.00398819 -0.0089252,0 -0.0152992,0.00123228 -0.0191654,0.00374016 -0.00255118,0.00176772 -0.00382283,0.00407087 -0.00382283,0.00687008 0,0.0024252 0.00111024,0.00444094 0.00337008,0.00612598 0.00304331,0.00226378 0.0135709,0.00542913 0.031626,0.00954331 0.0180118,0.00407087 0.0305945,0.00908661 0.037752,0.0150512 0.0070748,0.00604331 0.0106102,0.0144331 0.0106102,0.0251654 0,0.0117205 -0.0048937,0.0218386 -0.0147244,0.0302677 -0.0097874,0.00843307 -0.0242638,0.012626 -0.0434685,0.012626 -0.017437,0 -0.0312126,-0.00353543 -0.0414094,-0.0106102 -0.0101614,-0.0070315 -0.0167795,-0.0166535 -0.0199055,-0.0287874z"/>
   <g>
    <path id="_299475728" class="fil2" d="M2.55622 0.693122c0,-0.00451969 0.00638976,-0.00984646 0.0113976,-0.00984646l0.00155512 0c0.00625984,0 0.0113976,0.0058622 0.0113976,0.0124409l0 0.00103543c0,0.00479134 -0.00549213,0.0108819 -0.00984252,0.0108819l-0.00466535 0c-0.00413386,0 -0.00984252,-0.00570866 -0.00984252,-0.00984646l0 -0.00466535zm-0.136799 0.00259449c0,-0.00657874 0.00514173,-0.0124409 0.0114016,-0.0124409l0.00155512 0c0.00500394,0 0.0113976,0.00532677 0.0113976,0.00984646l0 0.00466535c0,0.0041378 -0.00570866,0.00984646 -0.00984252,0.00984646l-0.00466535 0c-0.00435827,0 -0.00984646,-0.00597638 -0.00984646,-0.0108819l0 -0.00103543zm0.153378 -0.0523425c0.00183858,-0.0078937 0.0238346,-0.0397362 0.0238346,-0.0450866 0,-0.00156299 -0.00211024,-0.00414567 -0.00362598,-0.00414567l-0.00155512 0c-0.00415354,0 -0.0123425,0.0173937 -0.0143307,0.0214252 -0.00240157,0.0048622 -0.0117559,0.0194606 -0.0126142,0.0231417 -0.00285039,-6.29921e-005 -0.0208425,-0.00753937 -0.0270551,-0.00869685 -0.00999606,-0.0018622 -0.019748,-0.00425984 -0.0314961,-0.00425984l-0.00880709 0c-0.0117008,0 -0.0241772,0.00157874 -0.0332598,0.00405118 -0.00505118,0.00137402 -0.0102402,0.00302362 -0.0145118,0.00414567 -0.00366929,0.00096063 -0.0113031,0.00470079 -0.0138937,0.00475984 -0.000854331,-0.0036811 -0.0102087,-0.0182795 -0.0126102,-0.0231417 -0.00198819,-0.0040315 -0.0101811,-0.0214252 -0.0143307,-0.0214252l-0.00155512 0c-0.00164961,0 -0.00362992,0.00264173 -0.00362992,0.00466142 0,0.00429921 0.0221063,0.0371339 0.0238386,0.0445709 -0.038126,0.0201732 -0.0751339,0.060563 -0.0751339,0.118673l0.29587 0c0,-0.0581142 -0.0370039,-0.0984961 -0.0751339,-0.118673z"/>
    <path id="_299475416" class="fil2" d="M2.31061 0.972453c0.00895669,0 0.0166181,-0.00658268 0.0211142,-0.0115354 0.00557874,-0.00614961 0.00790551,-0.0132362 0.00790551,-0.0247441l0 -0.132665c0,-0.0186654 -0.0132953,-0.0352402 -0.0305709,-0.0352402l-0.00570079 0c-0.0141654,0 -0.0300551,0.015937 -0.0300551,0.0300591l0 0.143547c0,0.0143268 0.015122,0.0305787 0.0290197,0.0305787l0.0082874 0z"/>
    <path id="_299480984" class="fil2" d="M2.69768 0.972453c0.0138583,0 0.0290197,-0.0162008 0.0290197,-0.0305787l0 -0.143547c0,-0.0151654 -0.0160709,-0.0300591 -0.032126,-0.0300591l-0.00466535 0c-0.00783465,0 -0.0167047,0.00654331 -0.0208622,0.0107441 -0.00466535,0.0047126 -0.00867323,0.0131929 -0.00867323,0.0224213l0 0.140961c0,0.0136811 0.0155197,0.0300591 0.0290157,0.0300591l0.00829134 0z"/>
    <path id="_299495432" class="fil2" d="M2.35206 0.988516c0,0.0210945 0.0164724,0.0357598 0.0378228,0.0357598l0.0217638 0 0 0.0756614c0,0.014685 0.0156969,0.0305748 0.0300551,0.0305748l0.00259055 0c0.0184921,0 0.0336811,-0.0145748 0.0336811,-0.0326496l0 -0.0735866 0.0440433 0 0 0.0735866c0,0.0185472 0.0152795,0.0326496 0.0342008,0.0326496l0.00155118 0c0.0149134,0 0.0305748,-0.0156614 0.0305748,-0.0305748l0 -0.0756614 0.0212441 0c0.0217795,0 0.0383425,-0.0143386 0.0383425,-0.0357598l0 -0.214547 -0.29587 0 0 0.214547z"/>
   </g>
   <path id="_299483792" class="fil3" d="M0.694606 2.26905l0 0.0464213 -0.025685 0 0 -0.128016 0.0510118 0c0.0147047,0 0.0262874,0.00375197 0.0347205,0.011252 0.00843307,0.00750394 0.0126654,0.017374 0.0126654,0.0296181 0,0.0122756 -0.00423228,0.0221181 -0.0126654,0.0295591 -0.00843307,0.00744094 -0.0200157,0.0111654 -0.0347205,0.0111654l-0.0253268 0zm0 -0.0197756l0.0253268 0c0.00714173,0 0.0125748,-0.00195276 0.0162677,-0.00585433 0.00368898,-0.00390157 0.00551969,-0.00885039 0.00551969,-0.0149134 0,-0.00615354 -0.00183071,-0.0112244 -0.00549213,-0.0152441 -0.00366142,-0.00401969 -0.00909055,-0.0060315 -0.0162953,-0.0060315l-0.0253268 0 0 0.0420433zm0.0855236 0.0177638c0,-0.0141929 0.00396063,-0.0258071 0.0118819,-0.0348701 0.0078937,-0.00906299 0.018878,-0.0135945 0.0328898,-0.0135945 0.0140433,0 0.0250591,0.0045 0.0330394,0.0135354 0.00798425,0.0090315 0.0119724,0.0206732 0.0119724,0.0349291l0 0.00183071c0,0.014315 -0.00398819,0.0259567 -0.0119134,0.0349606 -0.00794882,0.009 -0.0189331,0.0135039 -0.0329488,0.0135039 -0.0140433,0 -0.0250551,-0.00450394 -0.0330079,-0.0135039 -0.00792126,-0.00900394 -0.0119134,-0.0206457 -0.0119134,-0.0349606l0 -0.00183071zm0.0255984 0.00183071c0,0.00870079 0.00152756,0.0156654 0.00455906,0.0209134 0.00306299,0.00525197 0.00798425,0.0078622 0.0147638,0.0078622 0.00663386,0 0.0114961,-0.0026378 0.0145551,-0.00792126 0.00309055,-0.00527953 0.00462205,-0.0122126 0.00462205,-0.0208543l0 -0.00183071c0,-0.00846457 -0.00155906,-0.0153346 -0.00465354,-0.0206772 -0.00311811,-0.00534252 -0.00801181,-0.00801181 -0.0146732,-0.00801181 -0.00662992,0 -0.0114921,0.00266929 -0.0145551,0.00804331 -0.00309055,0.00537008 -0.00461811,0.0122441 -0.00461811,0.0206457l0 0.00183071zm0.162732 0.0125709l0.000543307 0 0.0123937 -0.0610945 0.0240669 0 -0.0241575 0.095126 -0.0214567 0 -0.0176772 -0.056626 -0.00053937 0 -0.0176457 0.056626 -0.0213661 0 -0.024185 -0.095126 0.0240945 0 0.0125748 0.0609173 0.000511811 0 0.0177638 -0.0609173 0.0171339 0 0.0179449 0.0610945zm0.0918583 0.0358937c-0.0137126,0 -0.0246654,-0.00441339 -0.0328583,-0.0132047 -0.00822441,-0.00879134 -0.0123031,-0.0199567 -0.0123031,-0.0334921l0 -0.00350787c0,-0.0141339 0.00387008,-0.0257795 0.0116417,-0.0349331 0.00777165,-0.00914961 0.018185,-0.0136811 0.0312402,-0.013622 0.0128425,0 0.0228071,0.00387008 0.0298858,0.0116142 0.00711417,0.00774016 0.0106535,0.018185 0.0106535,0.0313898l0 0.0139843 -0.0568071 0 -0.000177165 0.00053937c0.000480315,0.00627165 0.00257874,0.0114331 0.00629921,0.0154843 0.00372441,0.00405118 0.00876378,0.00605906 0.0151575,0.00605906 0.00570079,0 0.0104094,-0.000566929 0.0141614,-0.00170866 0.00375197,-0.00114173 0.0078622,-0.00294094 0.0123031,-0.00540157l0.00696457 0.015815c-0.00387402,0.00314961 -0.00894488,0.00579134 -0.0152165,0.0078622 -0.00627165,0.00207087 -0.0132638,0.00312205 -0.0209449,0.00312205zm-0.00227953 -0.0789843c-0.00474409,0 -0.00849213,0.00183071 -0.0112559,0.00546063 -0.00275984,0.00363386 -0.00444094,0.00843307 -0.00509843,0.0143465l0.000267717 0.000448819 0.0314803 0 0 -0.00227953c0,-0.00546457 -0.00129134,-0.00984252 -0.00381102,-0.0130866 -0.00255118,-0.00326772 -0.00642126,-0.00488976 -0.0115827,-0.00488976zm0.105508 0.00405118l-0.0093937 -0.000271654c-0.00381102,0 -0.00696063,0.000783465 -0.00942126,0.00237402 -0.00246063,0.00159055 -0.0043189,0.00381102 -0.00561024,0.00668898l0 0.0642795 -0.0255984 0 0 -0.095126 0.0238268 0 0.00114173 0.0140748c0.00222047,-0.00498425 0.00512992,-0.00888583 0.00867323,-0.0116732 0.00353937,-0.00279134 0.00762205,-0.00417323 0.0122402,-0.00417323 0.00129134,0 0.00249213,9.05512e-005 0.00357087,0.000299213 0.00108268,0.000212598 0.00219291,0.000452756 0.00330315,0.000751969l-0.00273228 0.0227756zm0.055126 0.0749331c-0.0137126,0 -0.0246654,-0.00441339 -0.0328583,-0.0132047 -0.00822441,-0.00879134 -0.0123031,-0.0199567 -0.0123031,-0.0334921l0 -0.00350787c0,-0.0141339 0.00387008,-0.0257795 0.0116417,-0.0349331 0.00777165,-0.00914961 0.018185,-0.0136811 0.0312402,-0.013622 0.0128425,0 0.0228071,0.00387008 0.0298858,0.0116142 0.00711417,0.00774016 0.0106535,0.018185 0.0106535,0.0313898l0 0.0139843 -0.0568071 0 -0.000177165 0.00053937c0.000480315,0.00627165 0.00257874,0.0114331 0.00629921,0.0154843 0.00372441,0.00405118 0.00876378,0.00605906 0.0151575,0.00605906 0.00570079,0 0.0104094,-0.000566929 0.0141614,-0.00170866 0.00375197,-0.00114173 0.0078622,-0.00294094 0.0123031,-0.00540157l0.00696457 0.015815c-0.00387402,0.00314961 -0.00894488,0.00579134 -0.0152165,0.0078622 -0.00627165,0.00207087 -0.0132638,0.00312205 -0.0209449,0.00312205zm-0.00227953 -0.0789843c-0.00474409,0 -0.00849213,0.00183071 -0.0112559,0.00546063 -0.00275984,0.00363386 -0.00444094,0.00843307 -0.00509843,0.0143465l0.000267717 0.000448819 0.0314803 0 0 -0.00227953c0,-0.00546457 -0.00129134,-0.00984252 -0.00381102,-0.0130866 -0.00255118,-0.00326772 -0.00642126,-0.00488976 -0.0115827,-0.00488976zm0.0515236 0.0303386c0,-0.0150039 0.00324016,-0.0270984 0.00972441,-0.036311 0.00648031,-0.0092126 0.0156024,-0.0138031 0.0273976,-0.0138031 0.00474016,0 0.009,0.00101969 0.012811,0.00309055 0.00381102,0.00203937 0.00717323,0.00498031 0.0100236,0.00876378l0 -0.0520945 0.0257756 0 0 0.137138 -0.0220827 0 -0.00210236 -0.0116142c-0.003,0.00441339 -0.00651181,0.00774409 -0.0105945,0.0100236 -0.00407874,0.00231102 -0.00873228,0.00345276 -0.0140118,0.00345276 -0.0116732,0 -0.0207362,-0.00429134 -0.0272165,-0.0128465 -0.00648425,-0.00855118 -0.00972441,-0.0198661 -0.00972441,-0.033937l0 -0.0018622zm0.0255984 0.0018622c0,0.00831102 0.00140945,0.0148819 0.00420079,0.0196535 0.0028189,0.00477165 0.00740945,0.00717323 0.0137126,0.00717323 0.00372047,0 0.00693307,-0.000751969 0.00969291,-0.00225197 0.00275984,-0.0015 0.00501181,-0.00366142 0.00675197,-0.00653937l0 -0.0405433c-0.00174016,-0.003 -0.00399213,-0.00534252 -0.00672047,-0.00699213 -0.00273228,-0.0016811 -0.00591339,-0.00251969 -0.00954331,-0.00251969 -0.00627165,0 -0.0108346,0.00279134 -0.0137441,0.00834252 -0.00290945,0.00557874 -0.00435039,0.0128425 -0.00435039,0.021815l0 0.0018622zm0.210657 0c0,0.0141929 -0.00317717,0.0255354 -0.00951181,0.0340276 -0.00633071,0.00849213 -0.0154843,0.0127559 -0.0274252,0.0127559 -0.00552362,0 -0.0103228,-0.00117323 -0.0144646,-0.00348425 -0.00414173,-0.00231102 -0.00762205,-0.00570079 -0.0105039,-0.0101732l-0.00192126 0.0117953 -0.0219961 0 0 -0.137138 0.0255984 0 0 0.0520945c0.00272835,-0.00378346 0.0060315,-0.00672441 0.00987008,-0.00876378 0.00384252,-0.00207087 0.00825591,-0.00309055 0.0132362,-0.00309055 0.0120945,0 0.0212756,0.00456299 0.0276063,0.013685 0.00633465,0.00912205 0.00951181,0.0212441 0.00951181,0.0364291l0 0.0018622zm-0.0255945 -0.0018622c0,-0.00924409 -0.00135039,-0.0165945 -0.00408268,-0.0220276 -0.00272835,-0.00542913 -0.00738189,-0.00812992 -0.0139528,-0.00812992 -0.00396063,0 -0.00735433,0.000838583 -0.0101142,0.00251969 -0.00272835,0.00164961 -0.00492126,0.00405118 -0.00648031,0.00714173l0 0.0403031c0.00155906,0.00287795 0.00375197,0.00507087 0.00653937,0.00660236 0.00279134,0.00152756 0.00618504,0.00227953 0.0102362,0.00227953 0.00662992,0 0.011252,-0.00234252 0.0138937,-0.00699213 0.0026378,-0.00465354 0.00396063,-0.0112835 0.00396063,-0.0198346l0 -0.0018622zm0.0757087 0.00687402l0.00105118 0.00524803 0.000511811 0 0.0182126 -0.0604646 0.0276102 0 -0.0385906 0.10935c-0.00270079,0.00681102 -0.0063622,0.0125433 -0.0110157,0.0171929 -0.00462205,0.00465354 -0.0115512,0.00699213 -0.0208268,0.00699213 -0.00215748,0 -0.00416929,-0.000177165 -0.0060315,-0.00053937 -0.00183071,-0.000330709 -0.00407874,-0.000838583 -0.00672047,-0.0014685l0.003 -0.0187559c0.000751969,0.00011811 0.00159055,0.000240157 0.00246063,0.000358268 0.000870079,0.000122047 0.0016811,0.000181102 0.00237008,0.000181102 0.00423228,0 0.00747244,-0.00105118 0.00975591,-0.00312205 0.00227953,-0.00207087 0.00405118,-0.0046811 0.00527953,-0.00777165l0.003 -0.00738189 -0.0337598 -0.0950354 0.0276102 0 0.0160827 0.0552165zm0.086126 0.0399094l-0.0256575 0 0 -0.0225079 0.0256575 0 0 0.0225079zm0 -0.077l-0.0256575 0 0 -0.0225079 0.0256575 0 0 0.0225079zm0.0908346 0.0256535l0 0.0513465 -0.0173425 0 0 -0.128016 0.0489724 0c0.0136535,0 0.0242795,0.00351181 0.0318386,0.010563 0.00756299,0.00701969 0.0113465,0.0162953 0.0113465,0.0277559 0,0.0116732 -0.00378346,0.0209764 -0.0113465,0.0279409 -0.00755906,0.00692913 -0.018185,0.0104094 -0.0318386,0.0104094l-0.0316299 0zm0 -0.0135315l0.0316299 0c0.00867323,0 0.0151535,-0.00234252 0.0194449,-0.00699213 0.00426378,-0.00465354 0.0064252,-0.0105315 0.0064252,-0.0176457 0,-0.00708268 -0.00216142,-0.0129921 -0.00648425,-0.0177638 -0.00429134,-0.00474409 -0.0107717,-0.00711417 -0.0193858,-0.00711417l-0.0316299 0 0 0.0495157zm0.139783 -0.0149449l-0.00888189 -0.00053937c-0.00456299,0 -0.00843307,0.00107874 -0.0115551,0.00324016 -0.00314961,0.00218898 -0.00555118,0.00522047 -0.00725984,0.00915354l0 0.0679685 -0.017315 0 0 -0.095126 0.0154843 0 0.00164961 0.0138937c0.00270079,-0.00492126 0.0060315,-0.00876378 0.00999213,-0.0115236 0.00396063,-0.00275984 0.00849213,-0.00414173 0.0136535,-0.00414173 0.00129134,0 0.00251969,9.05512e-005 0.00369291,0.000299213 0.00116929,0.000212598 0.00216142,0.00042126 0.00290945,0.000661417l-0.00237008 0.0161142zm0.0126654 0.0313898c0,-0.0140748 0.00381102,-0.0256575 0.0114331,-0.0347795 0.00762205,-0.00912205 0.0179724,-0.013685 0.0310276,-0.013685 0.0132047,0 0.0236181,0.0045315 0.0312677,0.013622 0.00765354,0.00909449 0.0114646,0.0207087 0.0114646,0.0348425l0 0.00192126c0,0.0141929 -0.00381102,0.0258071 -0.0114331,0.0348386 -0.00762205,0.0090315 -0.0179764,0.0135354 -0.0311181,0.0135354 -0.0131142,0 -0.0235276,-0.0045315 -0.0311496,-0.0135945 -0.00765354,-0.00906299 -0.0114921,-0.0206457 -0.0114921,-0.0347795l0 -0.00192126zm0.017315 0.00192126c0,0.0100827 0.00212992,0.0184252 0.00638976,0.0249961 0.00423228,0.00657087 0.010563,0.00984252 0.018937,0.00984252 0.00825197,0 0.0145236,-0.00327165 0.018815,-0.00984252 0.00429134,-0.00657087 0.00642126,-0.0149134 0.00642126,-0.0249961l0 -0.00192126c0,-0.00996457 -0.00216142,-0.0182756 -0.00645276,-0.0249094 -0.0043189,-0.00662992 -0.010622,-0.00993307 -0.0189646,-0.00993307 -0.00825197,0 -0.0145236,0.00330315 -0.0187559,0.00993307 -0.00425984,0.00663386 -0.00638976,0.0149449 -0.00638976,0.0249094l0 0.00192126zm0.107791 0.0465118l-0.017315 0 0 -0.095126 0.017315 0 0 0.095126zm0 -0.119492l-0.017315 0 0 -0.0176772 0.017315 0 0 0.0176772zm0.0421339 0.0243661l0.00122835 0.0141614c0.00315354,-0.00503937 0.00711417,-0.00897244 0.0119134,-0.0117598 0.00477165,-0.00279134 0.0102047,-0.00417323 0.0162953,-0.00417323 0.0102638,0 0.018185,0.003 0.0238268,0.00900394 0.00561024,0.0060315 0.00843307,0.0153031 0.00843307,0.0278465l0 0.0600472 -0.017315 0 0 -0.059685c0,-0.00840551 -0.00164961,-0.0143465 -0.00495276,-0.0178583 -0.00333071,-0.00350787 -0.00837008,-0.00527953 -0.015185,-0.00527953 -0.00498031,0 -0.00938976,0.00120079 -0.0132323,0.00359843 -0.00384252,0.00240157 -0.00690157,0.00570472 -0.0091811,0.00984646l0 0.069378 -0.017315 0 0 -0.095126 0.0154843 0zm0.109713 -0.0229567l0 0.0229567 0.0180039 0 0 0.0128425 -0.0180039 0 0 0.0577677c0,0.00444094 0.000897638,0.00759055 0.00275984,0.00938976 0.00183071,0.00183071 0.00429134,0.00273228 0.00735039,0.00273228 0.000992126,0 0.00207087,-0.00011811 0.00327165,-0.000358268 0.00120079,-0.000240157 0.00228346,-0.000511811 0.0032126,-0.000870079l0.00231102 0.0118819c-0.00129134,0.00105118 -0.0031811,0.00192126 -0.00567323,0.00257874 -0.00248819,0.000692913 -0.00501181,0.00102362 -0.0075315,0.00102362 -0.00702362,0 -0.0126339,-0.00213386 -0.0167756,-0.0063622 -0.00416929,-0.00426378 -0.00624016,-0.0109252 -0.00624016,-0.0200157l0 -0.0577677 -0.015126 0 0 -0.0128425 0.015126 0 0 -0.0229567 0.017315 0zm0.0788307 0.119945c-0.0132362,0 -0.0237677,-0.00441339 -0.0315984,-0.0132362 -0.00783465,-0.00882283 -0.0117362,-0.0202835 -0.0117362,-0.0343307l0 -0.00387008c0,-0.013563 0.00402362,-0.024815 0.0120945,-0.0338189 0.00804331,-0.00900394 0.0175866,-0.0135039 0.0285984,-0.0135039 0.0128425,0 0.0225354,0.00387008 0.0291102,0.0116142 0.00657087,0.00774016 0.00984252,0.018063 0.00984252,0.0309685l0 0.0108031 -0.0617008 0 -0.000267717 0.000448819c0.000181102,0.00912205 0.00249213,0.0166535 0.00693307,0.0225354 0.0044685,0.00591339 0.0107126,0.00885433 0.0187244,0.00885433 0.00588189,0 0.0110118,-0.000838583 0.0154528,-0.00249213 0.00441339,-0.0016811 0.00822441,-0.00398819 0.0114646,-0.00690157l0.00675197 0.0112244c-0.00338976,0.0033622 -0.0078622,0.00614961 -0.0134449,0.00837402 -0.00555118,0.00222047 -0.0123031,0.00333071 -0.0202244,0.00333071zm-0.00264173 -0.0851378c-0.00579134,0 -0.0107441,0.00246457 -0.0148543,0.00735433 -0.00408268,0.00488976 -0.00660236,0.0110433 -0.00756299,0.0184252l0.000181102 0.000448819 0.043874 0 0 -0.00227953c0,-0.00681102 -0.00180315,-0.0125118 -0.00543307,-0.0170748 -0.00366142,-0.00459055 -0.0090315,-0.00687402 -0.0162047,-0.00687402zm0.0738819 -0.0118504l0.00122835 0.0141614c0.00315354,-0.00503937 0.00711417,-0.00897244 0.0119134,-0.0117598 0.00477165,-0.00279134 0.0102047,-0.00417323 0.0162953,-0.00417323 0.0102638,0 0.018185,0.003 0.0238268,0.00900394 0.00561024,0.0060315 0.00843307,0.0153031 0.00843307,0.0278465l0 0.0600472 -0.017315 0 0 -0.059685c0,-0.00840551 -0.00164961,-0.0143465 -0.00495276,-0.0178583 -0.00333071,-0.00350787 -0.00837008,-0.00527953 -0.015185,-0.00527953 -0.00498031,0 -0.00938976,0.00120079 -0.0132323,0.00359843 -0.00384252,0.00240157 -0.00690157,0.00570472 -0.0091811,0.00984646l0 0.069378 -0.017315 0 0 -0.095126 0.0154843 0zm0.221524 -0.0192677l-0.0411417 0 0 0.114394 -0.017315 0 0 -0.114394 -0.0410512 0 0 -0.013622 0.0995079 0 0 0.013622zm0.0550394 0.116256c-0.0132362,0 -0.0237677,-0.00441339 -0.0315984,-0.0132362 -0.00783465,-0.00882283 -0.0117362,-0.0202835 -0.0117362,-0.0343307l0 -0.00387008c0,-0.013563 0.00402362,-0.024815 0.0120945,-0.0338189 0.00804331,-0.00900394 0.0175866,-0.0135039 0.0285984,-0.0135039 0.0128425,0 0.0225354,0.00387008 0.0291102,0.0116142 0.00657087,0.00774016 0.00984252,0.018063 0.00984252,0.0309685l0 0.0108031 -0.0617008 0 -0.000267717 0.000448819c0.000181102,0.00912205 0.00249213,0.0166535 0.00693307,0.0225354 0.0044685,0.00591339 0.0107126,0.00885433 0.0187244,0.00885433 0.00588189,0 0.0110118,-0.000838583 0.0154528,-0.00249213 0.00441339,-0.0016811 0.00822441,-0.00398819 0.0114646,-0.00690157l0.00675197 0.0112244c-0.00338976,0.0033622 -0.0078622,0.00614961 -0.0134449,0.00837402 -0.00555118,0.00222047 -0.0123031,0.00333071 -0.0202244,0.00333071zm-0.00264173 -0.0851378c-0.00579134,0 -0.0107441,0.00246457 -0.0148543,0.00735433 -0.00408268,0.00488976 -0.00660236,0.0110433 -0.00756299,0.0184252l0.000181102 0.000448819 0.043874 0 0 -0.00227953c0,-0.00681102 -0.00180315,-0.0125118 -0.00543307,-0.0170748 -0.00366142,-0.00459055 -0.0090315,-0.00687402 -0.0162047,-0.00687402zm0.0970787 0.0716024c0.00572835,0 0.0108031,-0.00177165 0.0151535,-0.00531102 0.00438189,-0.00354331 0.00657087,-0.0078937 0.00657087,-0.0130551l0.0155433 0 0.000181102 0.000511811c0.000299213,0.00822047 -0.0033622,0.0154843 -0.0109528,0.0218465 -0.00759055,0.0063622 -0.0164134,0.00954331 -0.0264961,0.00954331 -0.0138346,0 -0.0243976,-0.00450394 -0.031752,-0.0135354 -0.0073189,-0.0090315 -0.0109803,-0.020374 -0.0109803,-0.0340315l0 -0.00372047c0,-0.0135315 0.00368898,-0.024815 0.0110433,-0.033878 0.00735039,-0.00906299 0.0179134,-0.0135945 0.031689,-0.0135945 0.0111299,0 0.0202244,0.00327165 0.0273071,0.00984252 0.00705118,0.00657087 0.0104724,0.0146142 0.0102323,0.024189l-0.000181102 0.000507874 -0.0156339 0c0,-0.00579134 -0.00207087,-0.0107441 -0.00614961,-0.0147953 -0.00411417,-0.00407874 -0.00930315,-0.00612205 -0.0155748,-0.00612205 -0.00909449,0 -0.0155748,0.00327165 -0.0194764,0.00981496 -0.00390157,0.00654331 -0.00585039,0.0145551 -0.00585039,0.0240669l0 0.00368898c0,0.00972441 0.00194882,0.0178268 0.0058189,0.0243071 0.00387402,0.00648425 0.0103543,0.00972441 0.0195079,0.00972441zm0.0742126 -0.0707283c0.00326772,-0.00456299 0.0073189,-0.00813386 0.0120906,-0.010685 0.00477165,-0.00255118 0.0100551,-0.00381102 0.015878,-0.00381102 0.0101417,0 0.0180315,0.00305906 0.0236732,0.00915354 0.00567323,0.00609055 0.00849606,0.0154528 0.00849606,0.0281181l0 0.059626 -0.017315 0 0 -0.0597756c0,-0.0078622 -0.0016811,-0.0136535 -0.0050748,-0.0174055 -0.00335827,-0.00375197 -0.00837008,-0.00564173 -0.015063,-0.00564173 -0.00480315,0 -0.00915354,0.0011378 -0.0130551,0.00338976 -0.00389764,0.00225197 -0.00711024,0.00531102 -0.00962992,0.00918504l0 0.070248 -0.017315 0 0 -0.137138 0.017315 0 0 0.0547362zm0.1005 -0.0127244l0.00122835 0.0141614c0.00315354,-0.00503937 0.00711417,-0.00897244 0.0119134,-0.0117598 0.00477165,-0.00279134 0.0102047,-0.00417323 0.0162953,-0.00417323 0.0102638,0 0.018185,0.003 0.0238268,0.00900394 0.00561024,0.0060315 0.00843307,0.0153031 0.00843307,0.0278465l0 0.0600472 -0.017315 0 0 -0.059685c0,-0.00840551 -0.00164961,-0.0143465 -0.00495276,-0.0178583 -0.00333071,-0.00350787 -0.00837008,-0.00527953 -0.015185,-0.00527953 -0.00498031,0 -0.00938976,0.00120079 -0.0132323,0.00359843 -0.00384252,0.00240157 -0.00690157,0.00570472 -0.0091811,0.00984646l0 0.069378 -0.017315 0 0 -0.095126 0.0154843 0zm0.0827953 0.0466929c0,-0.0140748 0.00381102,-0.0256575 0.0114331,-0.0347795 0.00762205,-0.00912205 0.0179724,-0.013685 0.0310276,-0.013685 0.0132047,0 0.0236181,0.0045315 0.0312677,0.013622 0.00765354,0.00909449 0.0114646,0.0207087 0.0114646,0.0348425l0 0.00192126c0,0.0141929 -0.00381102,0.0258071 -0.0114331,0.0348386 -0.00762205,0.0090315 -0.0179764,0.0135354 -0.0311181,0.0135354 -0.0131142,0 -0.0235276,-0.0045315 -0.0311496,-0.0135945 -0.00765354,-0.00906299 -0.0114921,-0.0206457 -0.0114921,-0.0347795l0 -0.00192126zm0.017315 0.00192126c0,0.0100827 0.00212992,0.0184252 0.00638976,0.0249961 0.00423228,0.00657087 0.010563,0.00984252 0.018937,0.00984252 0.00825197,0 0.0145236,-0.00327165 0.018815,-0.00984252 0.00429134,-0.00657087 0.00642126,-0.0149134 0.00642126,-0.0249961l0 -0.00192126c0,-0.00996457 -0.00216142,-0.0182756 -0.00645276,-0.0249094 -0.0043189,-0.00662992 -0.010622,-0.00993307 -0.0189646,-0.00993307 -0.00825197,0 -0.0145236,0.00330315 -0.0187559,0.00993307 -0.00425984,0.00663386 -0.00638976,0.0149449 -0.00638976,0.0249094l0 0.00192126zm0.107791 0.0465118l-0.017315 0 0 -0.137138 0.017315 0 0 0.137138zm0.0225984 -0.0484331c0,-0.0140748 0.00381102,-0.0256575 0.0114331,-0.0347795 0.00762205,-0.00912205 0.0179724,-0.013685 0.0310276,-0.013685 0.0132047,0 0.0236181,0.0045315 0.0312677,0.013622 0.00765354,0.00909449 0.0114646,0.0207087 0.0114646,0.0348425l0 0.00192126c0,0.0141929 -0.00381102,0.0258071 -0.0114331,0.0348386 -0.00762205,0.0090315 -0.0179764,0.0135354 -0.0311181,0.0135354 -0.0131142,0 -0.0235276,-0.0045315 -0.0311496,-0.0135945 -0.00765354,-0.00906299 -0.0114921,-0.0206457 -0.0114921,-0.0347795l0 -0.00192126zm0.017315 0.00192126c0,0.0100827 0.00212992,0.0184252 0.00638976,0.0249961 0.00423228,0.00657087 0.010563,0.00984252 0.018937,0.00984252 0.00825197,0 0.0145236,-0.00327165 0.018815,-0.00984252 0.00429134,-0.00657087 0.00642126,-0.0149134 0.00642126,-0.0249961l0 -0.00192126c0,-0.00996457 -0.00216142,-0.0182756 -0.00645276,-0.0249094 -0.0043189,-0.00662992 -0.010622,-0.00993307 -0.0189646,-0.00993307 -0.00825197,0 -0.0145236,0.00330315 -0.0187559,0.00993307 -0.00425984,0.00663386 -0.00638976,0.0149449 -0.00638976,0.0249094l0 0.00192126zm0.0852835 0.000720472c0,-0.0153071 0.00333071,-0.0276693 0.0100236,-0.0370315 0.00669291,-0.0093937 0.0159055,-0.0140748 0.0276969,-0.0140748 0.0060315,0 0.0113465,0.00123228 0.0159055,0.00366142 0.00456299,0.00242913 0.00837402,0.00594094 0.0114331,0.0105039l0.00210236 -0.0123937 0.0138031 0 0 0.0956378c0,0.0122126 -0.00354331,0.0215748 -0.010622,0.0280866 -0.00711417,0.00654331 -0.017315,0.00981102 -0.0307008,0.00981102 -0.00455906,0 -0.00951181,-0.000629921 -0.0147953,-0.00188976 -0.00531102,-0.00125984 -0.00999213,-0.0029685 -0.0140433,-0.00512992l0.00441339 -0.0134449c0.00309055,0.00174016 0.00684252,0.0031811 0.011252,0.00425984 0.00438189,0.00108268 0.00873228,0.00162205 0.0129921,0.00162205 0.00846457,0 0.0145866,-0.00192126 0.0184252,-0.00575984 0.00384252,-0.00384252 0.00576378,-0.00966535 0.00576378,-0.0175276l0 -0.0107126c-0.00309055,0.00396063 -0.00681102,0.00699213 -0.0111654,0.00900394 -0.00435039,0.00200787 -0.00933071,0.0030315 -0.0149409,0.0030315 -0.0116732,0 -0.0208268,-0.00423228 -0.0275197,-0.0126654 -0.00669291,-0.00843307 -0.0100236,-0.0195039 -0.0100236,-0.0331575l0 -0.00183071zm0.017315 0.00183071c0,0.00957087 0.00204331,0.017252 0.00606299,0.0230433 0.00405118,0.00579134 0.0102008,0.00870472 0.0184843,0.00870472 0.00519291,0 0.0095748,-0.00120079 0.0130827,-0.00357087 0.00351181,-0.00237008 0.0064252,-0.00573228 0.00870472,-0.0100551l0 -0.0437795c-0.00222047,-0.00405118 -0.00512992,-0.00726378 -0.00870472,-0.00963386 -0.00357087,-0.00237008 -0.00788976,-0.00357087 -0.0129331,-0.00357087 -0.00825197,0 -0.0144331,0.00344882 -0.0185433,0.0103819 -0.00411024,0.00690157 -0.00615354,0.0157835 -0.00615354,0.0266496l0 0.00183071zm0.107524 0.0439606l-0.017315 0 0 -0.095126 0.017315 0 0 0.095126zm0 -0.119492l-0.017315 0 0 -0.0176772 0.017315 0 0 0.0176772zm0.0661102 0.121354c-0.0132362,0 -0.0237677,-0.00441339 -0.0315984,-0.0132362 -0.00783465,-0.00882283 -0.0117362,-0.0202835 -0.0117362,-0.0343307l0 -0.00387008c0,-0.013563 0.00402362,-0.024815 0.0120945,-0.0338189 0.00804331,-0.00900394 0.0175866,-0.0135039 0.0285984,-0.0135039 0.0128425,0 0.0225354,0.00387008 0.0291102,0.0116142 0.00657087,0.00774016 0.00984252,0.018063 0.00984252,0.0309685l0 0.0108031 -0.0617008 0 -0.000267717 0.000448819c0.000181102,0.00912205 0.00249213,0.0166535 0.00693307,0.0225354 0.0044685,0.00591339 0.0107126,0.00885433 0.0187244,0.00885433 0.00588189,0 0.0110118,-0.000838583 0.0154528,-0.00249213 0.00441339,-0.0016811 0.00822441,-0.00398819 0.0114646,-0.00690157l0.00675197 0.0112244c-0.00338976,0.0033622 -0.0078622,0.00614961 -0.0134449,0.00837402 -0.00555118,0.00222047 -0.0123031,0.00333071 -0.0202244,0.00333071zm-0.00264173 -0.0851378c-0.00579134,0 -0.0107441,0.00246457 -0.0148543,0.00735433 -0.00408268,0.00488976 -0.00660236,0.0110433 -0.00756299,0.0184252l0.000181102 0.000448819 0.043874 0 0 -0.00227953c0,-0.00681102 -0.00180315,-0.0125118 -0.00543307,-0.0170748 -0.00366142,-0.00459055 -0.0090315,-0.00687402 -0.0162047,-0.00687402zm0.113701 0.0580394c0,-0.00381102 -0.0014685,-0.00693307 -0.00435039,-0.0093937 -0.00290945,-0.00246063 -0.00840157,-0.00462205 -0.0165039,-0.00642126 -0.0115236,-0.00251969 -0.0202244,-0.00594094 -0.0260472,-0.0102638 -0.00585039,-0.00429134 -0.00876378,-0.0101732 -0.00876378,-0.0176142 0,-0.00774409 0.00330315,-0.0143465 0.00984252,-0.0197756 0.0065748,-0.00546063 0.015126,-0.00819291 0.025689,-0.00819291 0.0110709,0 0.0198661,0.00285039 0.0264055,0.00852362 0.00654331,0.00570079 0.00966535,0.0126024 0.0093622,0.0207638l-0.000177165 0.000511811 -0.0165039 0c0,-0.00417323 -0.00177165,-0.0078937 -0.00525197,-0.0111929 -0.00348031,-0.00333071 -0.00810236,-0.00498425 -0.0138346,-0.00498425 -0.00615354,0 -0.0107441,0.00135039 -0.0137126,0.00405118 -0.00300394,0.00270079 -0.00450394,0.00594488 -0.00450394,0.00975591 0,0.00374803 0.00132283,0.00672047 0.00396063,0.00888189 0.00264173,0.00218898 0.00801181,0.00411024 0.0160866,0.00582283 0.0120315,0.00257874 0.0209764,0.00605906 0.0268268,0.0105 0.00585039,0.00441339 0.00879134,0.0103543 0.00879134,0.0177953 0,0.00846457 -0.00342126,0.0152756 -0.0102323,0.0204961 -0.00684252,0.00522047 -0.015752,0.00783465 -0.0267953,0.00783465 -0.012126,0 -0.0216693,-0.00309449 -0.0286614,-0.00924409 -0.00696063,-0.00615354 -0.0102598,-0.0133228 -0.00993307,-0.0215157l0.000181102 -0.00053937 0.0165354 0c0.000299213,0.00614961 0.00258268,0.0106535 0.00684252,0.0135039 0.00429134,0.00285039 0.00930315,0.00425984 0.0150354,0.00425984 0.0061811,0 0.0109803,-0.00125984 0.0144606,-0.00375197 0.00351181,-0.00248819 0.00525197,-0.00575984 0.00525197,-0.00981102zm0.104189 -0.0261102l0 0.0513465 -0.0173425 0 0 -0.128016 0.0489724 0c0.0136535,0 0.0242795,0.00351181 0.0318386,0.010563 0.00756299,0.00701969 0.0113465,0.0162953 0.0113465,0.0277559 0,0.0116732 -0.00378346,0.0209764 -0.0113465,0.0279409 -0.00755906,0.00692913 -0.018185,0.0104094 -0.0318386,0.0104094l-0.0316299 0zm0 -0.0135315l0.0316299 0c0.00867323,0 0.0151535,-0.00234252 0.0194449,-0.00699213 0.00426378,-0.00465354 0.0064252,-0.0105315 0.0064252,-0.0176457 0,-0.00708268 -0.00216142,-0.0129921 -0.00648425,-0.0177638 -0.00429134,-0.00474409 -0.0107717,-0.00711417 -0.0193858,-0.00711417l-0.0316299 0 0 0.0495157zm0.136004 0.0330394l0.00290945 0.0101142 0.000507874 0 0.00291339 -0.0101142 0.0330394 -0.0961772 0.0187559 0 -0.047563 0.128016 -0.0148858 0 -0.047563 -0.128016 0.018815 0 0.0330709 0.0961772zm0.162555 -0.0825551l-0.0411417 0 0 0.114394 -0.017315 0 0 -0.114394 -0.0410512 0 0 -0.013622 0.0995079 0 0 0.013622zm0.0344843 0.114394l-0.017315 0 0 -0.0177638 0.017315 0 0 0.0177638zm0.0945866 -0.0135354l0.0605591 0 0 0.0135354 -0.0779016 0 0 -0.128016 0.0173425 0 0 0.11448zm0.166579 -0.100858l-0.0411417 0 0 0.114394 -0.017315 0 0 -0.114394 -0.0410512 0 0 -0.013622 0.0995079 0 0 0.013622zm0.0188189 0.114394l0 -0.128016 0.039311 0c0.0167756,0 0.0302165,0.00512992 0.0403622,0.0154252 0.0101417,0.0102913 0.015185,0.0235866 0.015185,0.039878l0 0.0174961c0,0.0163543 -0.00504331,0.0296496 -0.015185,0.0398819 -0.0101457,0.0102323 -0.0235866,0.0153346 -0.0403622,0.0153346l-0.039311 0zm0.0173425 -0.114394l0 0.100858 0.0219685 0c0.0118228,0 0.0211575,-0.00389764 0.0279961,-0.0117008 0.00684252,-0.00780315 0.0102362,-0.0177953 0.0102362,-0.0299803l0 -0.0176732c0,-0.012063 -0.0033937,-0.0219961 -0.0102362,-0.0297992 -0.00683858,-0.00780315 -0.0161732,-0.0117047 -0.0279961,-0.0117047l-0.0219685 0zm0.116917 0.114394l-0.017315 0 0 -0.0177638 0.017315 0 0 0.0177638z"/>
   <path id="_299474552" class="fil4" d="M1.09482 1.74371l0 -0.138453 0.0183425 0 0 0.0568622 0.0719528 0 0 -0.0568622 0.0183425 0 0 0.138453 -0.0183425 0 0 -0.065248 -0.0719528 0 0 0.065248 -0.0183425 0zm0.130622 -0.0501614c0,-0.0185669 0.00515748,-0.0323307 0.0155079,-0.0412598 0.0086063,-0.00741339 0.0191142,-0.0111535 0.0315276,-0.0111535 0.0137953,0 0.0250787,0.00451181 0.033815,0.0135709 0.00876772,0.00902756 0.0131181,0.0215 0.0131181,0.0374252 0,0.0129291 -0.00193307,0.0230827 -0.00579921,0.0304646 -0.00387008,0.00741339 -0.00951181,0.0131535 -0.0168937,0.0172441 -0.00741339,0.00409449 -0.0154724,0.00612598 -0.0242402,0.00612598 -0.0140236,0 -0.0253701,-0.00448031 -0.0340433,-0.0135079 -0.00866929,-0.00899213 -0.0129921,-0.0219528 -0.0129921,-0.0389094zm0.0174724 0c0,0.0128622 0.00280709,0.0224724 0.00841339,0.0288543 0.00561024,0.00641339 0.0126693,0.0096063 0.0211496,0.0096063 0.00844488,0 0.0154724,-0.00322441 0.0210827,-0.0096378 0.0055748,-0.00641732 0.00838189,-0.0162165 0.00838189,-0.0293701 0,-0.0124094 -0.00280709,-0.0218228 -0.00844882,-0.0282047 -0.00564173,-0.00638189 -0.0126339,-0.0095748 -0.0210157,-0.0095748 -0.00848031,0 -0.0155394,0.00319291 -0.0211496,0.00954331 -0.0056063,0.00635039 -0.00841339,0.0159567 -0.00841339,0.0287835zm0.133555 0.0349449l0.00244882 0.0150236c-0.00477165,0.001 -0.00905906,0.00151575 -0.0128307,0.00151575 -0.00618898,0 -0.0109606,-0.000968504 -0.014378,-0.00293307 -0.00338189,-0.00193701 -0.00576772,-0.00451575 -0.00715354,-0.00770472 -0.00138583,-0.00316142 -0.00209843,-0.00986614 -0.00209843,-0.0200512l0 -0.0577047 -0.0124724 0 0 -0.0132165 0.0124724 0 0 -0.0248543 0.0169252 -0.010185 0 0.0350394 0.0170866 0 0 0.0132165 -0.0170866 0 0 0.0586378c0,0.00487008 0.000291339,0.00796457 0.000870079,0.00935039 0.000614173,0.00138583 0.00157874,0.00248031 0.00293307,0.0033189 0.00135433,0.000807087 0.00329134,0.00122441 0.00580315,0.00122441 0.00190157,0 0.00438583,-0.000224409 0.00748031,-0.000677165zm0.0852638 -0.0170827l0.0175669 0.00215748c-0.00277165,0.0102835 -0.00789764,0.018248 -0.015378,0.0239213 -0.00750787,0.00564173 -0.0170827,0.00847638 -0.0287205,0.00847638 -0.0146693,0 -0.0263031,-0.00451181 -0.034878,-0.0135394 -0.00861024,-0.00902362 -0.0128976,-0.0216929 -0.0128976,-0.0380039 0,-0.0168937 0.00435433,-0.0299803 0.0130236,-0.0392992 0.00870472,-0.00931496 0.0199567,-0.0139882 0.0338189,-0.0139882 0.0134094,0 0.0243701,0.0045748 0.0328465,0.0137008 0.00851181,0.00912205 0.0127677,0.0219843 0.0127677,0.0385197 0,0.0010315 -3.54331e-005,0.00254724 -9.84252e-005,0.00454724l-0.0747874 0c0.000610236,0.0110236 0.00374016,0.0194685 0.00934646,0.0253031 0.00561024,0.00587008 0.0125748,0.00880315 0.0209567,0.00880315 0.00622047,0 0.0115394,-0.00164567 0.0159567,-0.00493307 0.00441339,-0.00325591 0.00789764,-0.00847638 0.0104764,-0.0156654zm-0.0558031 -0.0275l0.0559961 0c-0.000740157,-0.00841339 -0.00290157,-0.0147638 -0.00641732,-0.0189528 -0.00541339,-0.00654331 -0.0124409,-0.00983465 -0.0210472,-0.00983465 -0.00780315,0 -0.014378,0.00261417 -0.0196969,0.00783465 -0.0053189,0.00522441 -0.00825197,0.0122165 -0.00883465,0.0209528zm0.0943543 0.0597992l0 -0.138453 0.0169882 0 0 0.138453 -0.0169882 0zm0.0843307 0.00235433l0.0401339 -0.143161 0.0136024 0 -0.0400354 0.143161 -0.0137008 0zm0.122689 -0.00235433l0 -0.138453 0.061378 0c0.0123465,0 0.0217244,0.00125591 0.0281417,0.00373622 0.00641339,0.00248425 0.0115394,0.00686614 0.0154094,0.0131535 0.00383465,0.0063189 0.00573622,0.0132835 0.00573622,0.0208898 0,0.00983071 -0.00315748,0.0180827 -0.00954331,0.0248228 -0.00635039,0.00673622 -0.0161811,0.0110236 -0.0294606,0.0128622 0.00486614,0.0023189 0.00853937,0.00461024 0.0110551,0.00689764 0.00535039,0.00489764 0.0104134,0.0110551 0.0152165,0.0184055l0.0240787 0.037685 -0.0230472 0 -0.018311 -0.0288189c-0.00535039,-0.00828346 -0.00976772,-0.0146693 -0.013248,-0.0190512 -0.00344882,-0.00441732 -0.00654331,-0.00751181 -0.00928346,-0.00925197 -0.00274016,-0.00177165 -0.00551181,-0.003 -0.00835039,-0.00370866 -0.00209449,-0.000417323 -0.00548031,-0.000645669 -0.0102205,-0.000645669l-0.0212402 0 0 0.0614764 -0.018311 0zm0.018311 -0.0773346l0.0393898 0c0.00835039,0 0.0149252,-0.000870079 0.0196339,-0.00261024 0.00473622,-0.00174016 0.00831496,-0.00451575 0.0107677,-0.0083189 0.00244882,-0.00380315 0.00367323,-0.00792913 0.00367323,-0.0124094 0,-0.00654331 -0.00235433,-0.0119291 -0.00712598,-0.0161496 -0.00473622,-0.00422441 -0.012248,-0.0063189 -0.0225315,-0.0063189l-0.0438071 0 0 0.0458071zm0.187551 0.0450354l0.0175669 0.00215748c-0.00277165,0.0102835 -0.00789764,0.018248 -0.015378,0.0239213 -0.00750787,0.00564173 -0.0170827,0.00847638 -0.0287205,0.00847638 -0.0146693,0 -0.0263031,-0.00451181 -0.034878,-0.0135394 -0.00861024,-0.00902362 -0.0128976,-0.0216929 -0.0128976,-0.0380039 0,-0.0168937 0.00435433,-0.0299803 0.0130236,-0.0392992 0.00870472,-0.00931496 0.0199567,-0.0139882 0.0338189,-0.0139882 0.0134094,0 0.0243701,0.0045748 0.0328465,0.0137008 0.00851181,0.00912205 0.0127677,0.0219843 0.0127677,0.0385197 0,0.0010315 -3.54331e-005,0.00254724 -9.84252e-005,0.00454724l-0.0747874 0c0.000610236,0.0110236 0.00374016,0.0194685 0.00934646,0.0253031 0.00561024,0.00587008 0.0125748,0.00880315 0.0209567,0.00880315 0.00622047,0 0.0115394,-0.00164567 0.0159567,-0.00493307 0.00441339,-0.00325591 0.00789764,-0.00847638 0.0104764,-0.0156654zm-0.0558031 -0.0275l0.0559961 0c-0.000740157,-0.00841339 -0.00290157,-0.0147638 -0.00641732,-0.0189528 -0.00541339,-0.00654331 -0.0124409,-0.00983465 -0.0210472,-0.00983465 -0.00780315,0 -0.014378,0.00261417 -0.0196969,0.00783465 -0.0053189,0.00522441 -0.00825197,0.0122165 -0.00883465,0.0209528zm0.0879409 0.0298504l0.0167953 -0.00264173c0.000933071,0.00673622 0.00357874,0.0118937 0.00789764,0.0155039 0.0042874,0.00357874 0.010315,0.00538583 0.0180827,0.00538583 0.00780315,0 0.0136063,-0.00161417 0.017378,-0.00477165 0.00377165,-0.00319291 0.00567323,-0.00692913 0.00567323,-0.011185 0,-0.00387008 -0.00167717,-0.00686614 -0.0050315,-0.00909055 -0.0023189,-0.00151575 -0.00812205,-0.00341732 -0.017374,-0.00574016 -0.0124449,-0.00315748 -0.0211142,-0.00586614 -0.0259173,-0.00818898 -0.00480315,-0.0022874 -0.00848031,-0.00547638 -0.0109606,-0.00953937 -0.00248425,-0.00406299 -0.00374016,-0.00854331 -0.00374016,-0.0134449 0,-0.00448031 0.0010315,-0.0086063 0.00309449,-0.0124094 0.0020315,-0.00383465 0.00483465,-0.00699606 0.00835039,-0.00950787 0.00264173,-0.00193701 0.00625197,-0.00361024 0.0107992,-0.00496457 0.00457874,-0.00135433 0.00947638,-0.0020315 0.0147008,-0.0020315 0.0078622,0 0.0147638,0.00116142 0.0207244,0.00341732 0.00596457,0.00225591 0.0103504,0.0053189 0.013185,0.00918504 0.00283858,0.00390157 0.00477165,0.00905906 0.00583465,0.0155394l-0.0165984 0.0022874c-0.000775591,-0.00515748 -0.0029685,-0.00918504 -0.00657874,-0.0120866 -0.00361024,-0.00290157 -0.00873622,-0.00435433 -0.0153425,-0.00435433 -0.00780315,0 -0.013378,0.00129134 -0.0167008,0.00387008 -0.00335039,0.00257874 -0.00502756,0.00561024 -0.00502756,0.00905906 0,0.00222441 0.000708661,0.00418898 0.00209449,0.00596457 0.00138583,0.00183465 0.00354724,0.0033189 0.00651181,0.00454331 0.00170866,0.000614173 0.00670472,0.00206299 0.0150236,0.0043189 0.0120236,0.00322441 0.0204055,0.00583465 0.0251417,0.00789764 0.00477165,0.0020315 0.00851181,0.0050315 0.0112205,0.00892913 0.00270866,0.00390157 0.00406299,0.00873622 0.00406299,0.0145394 0,0.00567323 -0.00167717,0.0109921 -0.00496457,0.0160236 -0.00332283,0.00499606 -0.00809449,0.0088622 -0.014315,0.0116024 -0.00622047,0.00274016 -0.0132795,0.00409449 -0.0211457,0.00409449 -0.0130551,0 -0.0229843,-0.00270866 -0.0298189,-0.00812205 -0.00683465,-0.00541732 -0.011185,-0.0134449 -0.0130551,-0.0240827zm0.140614 0.0147323l0.00244882 0.0150236c-0.00477165,0.001 -0.00905906,0.00151575 -0.0128307,0.00151575 -0.00618898,0 -0.0109606,-0.000968504 -0.014378,-0.00293307 -0.00338189,-0.00193701 -0.00576772,-0.00451575 -0.00715354,-0.00770472 -0.00138583,-0.00316142 -0.00209843,-0.00986614 -0.00209843,-0.0200512l0 -0.0577047 -0.0124724 0 0 -0.0132165 0.0124724 0 0 -0.0248543 0.0169252 -0.010185 0 0.0350394 0.0170866 0 0 0.0132165 -0.0170866 0 0 0.0586378c0,0.00487008 0.000291339,0.00796457 0.000870079,0.00935039 0.000614173,0.00138583 0.00157874,0.00248031 0.00293307,0.0033189 0.00135433,0.000807087 0.00329134,0.00122441 0.00580315,0.00122441 0.00190157,0 0.00438583,-0.000224409 0.00748031,-0.000677165zm0.0820709 0.00283858c-0.0063189,0.00535039 -0.012378,0.00912205 -0.0181811,0.0113465 -0.00583465,0.00219291 -0.0120866,0.0032874 -0.0187598,0.0032874 -0.0110276,0 -0.0194724,-0.00267323 -0.0254055,-0.00805906 -0.00589764,-0.00538189 -0.0088622,-0.0122795 -0.0088622,-0.0206299 0,-0.00493307 0.00109449,-0.00941339 0.00335039,-0.0134764 0.00222441,-0.00405906 0.00515748,-0.00731496 0.00876772,-0.00976772 0.00364567,-0.00244882 0.00770472,-0.0043189 0.012252,-0.0055748 0.0033189,-0.000870079 0.00835039,-0.00174016 0.0150866,-0.00254724 0.0137323,-0.00164567 0.0238543,-0.00357874 0.0303346,-0.00586614 6.29921e-005,-0.00232283 9.44882e-005,-0.00380315 9.44882e-005,-0.00441732 0,-0.00692913 -0.00161024,-0.0118307 -0.00483465,-0.0146339 -0.0043189,-0.00387008 -0.0107992,-0.00577165 -0.0193425,-0.00577165 -0.00799213,0 -0.0138937,0.00138583 -0.0177283,0.00418898 -0.00380315,0.00280709 -0.00661024,0.00777165 -0.00844488,0.0148937l-0.0166024 -0.0022874c0.00151575,-0.00709055 0.00399606,-0.0128622 0.00744488,-0.0172165 0.00344882,-0.00438189 0.00848031,-0.00776772 0.0150236,-0.010122 0.00654331,-0.00235039 0.0141181,-0.00354331 0.0227598,-0.00354331 0.0085748,0 0.0155039,0.0010315 0.0208543,0.00302756 0.00535433,0.0020315 0.00928346,0.00454724 0.0118307,0.00761024 0.00251575,0.00306299 0.00425591,0.00689764 0.0052874,0.0115709 0.000547244,0.00290157 0.000838583,0.00812598 0.000838583,0.0156693l0 0.0226614c0,0.0158268 0.000354331,0.0258189 0.00109449,0.0299803 0.000712598,0.00418898 0.00216142,0.00822047 0.0042874,0.0120551l-0.0177598 0c-0.00174016,-0.00351181 -0.00290157,-0.00764173 -0.00338583,-0.012378zm-0.00141732 -0.0379764c-0.00618898,0.00254724 -0.0154409,0.00467717 -0.0277559,0.00644882 -0.00699606,0.001 -0.0119606,0.00212598 -0.0148307,0.00338583 -0.00289764,0.00125591 -0.00515748,0.00309449 -0.00670472,0.00554331 -0.00157874,0.00241732 -0.00238583,0.00509449 -0.00238583,0.00805906 0,0.00454724 0.00174409,0.0083189 0.00516142,0.0113465 0.00341339,0.003 0.00844488,0.00451575 0.0150512,0.00451575 0.00654331,0 0.0123819,-0.00142126 0.0174724,-0.0042874 0.00509449,-0.00287008 0.00886614,-0.00680315 0.011252,-0.0117677 0.00183858,-0.00383465 0.00274016,-0.00951181 0.00274016,-0.0169882l0 -0.00625591zm0.10928 0.0503543l0 -0.0147323c-0.00783465,0.0113465 -0.0184409,0.0169882 -0.0318504,0.0169882 -0.00589764,0 -0.0114449,-0.00112598 -0.0165709,-0.00338583 -0.00512205,-0.00225591 -0.00892913,-0.00512205 -0.0114094,-0.00853937 -0.00251575,-0.00345276 -0.00425591,-0.00764173 -0.00525591,-0.0126063 -0.000677165,-0.00335039 -0.0010315,-0.0086378 -0.0010315,-0.0158937l0 -0.0621181 0.0169882 0 0 0.0556063c0,0.00889764 0.000354331,0.0148622 0.0010315,0.0179567 0.00109843,0.00448031 0.00335433,0.00796457 0.00680315,0.0105433 0.00348031,0.00254331 0.00776772,0.00380315 0.0128622,0.00380315 0.00509449,0 0.0098622,-0.00129134 0.0143465,-0.00390157 0.00448031,-0.00261024 0.0076378,-0.00618898 0.00947638,-0.0106693 0.00187008,-0.00451181 0.00280315,-0.0110591 0.00280315,-0.0195984l0 -0.0537402 0.0169882 0 0 0.100287 -0.0151811 0zm0.0416457 0l0 -0.100287 0.0152795 0 0 0.015185c0.00390157,-0.00709449 0.00751181,-0.0117992 0.0108346,-0.0140551 0.0032874,-0.00225591 0.00692913,-0.00341732 0.0108937,-0.00341732 0.00574016,0 0.0115394,0.00183858 0.0174724,0.00548031l-0.00586614 0.0157953c-0.00412598,-0.00248425 -0.00828346,-0.00370866 -0.0124449,-0.00370866 -0.00374016,0 -0.00705906,0.00112992 -0.0100236,0.00335433 -0.0029685,0.00225591 -0.00506299,0.00535039 -0.0063189,0.00931496 -0.00190157,0.00602756 -0.00283858,0.0126378 -0.00283858,0.0198268l0 0.0525118 -0.0169882 0zm0.130043 -0.012378c-0.0063189,0.00535039 -0.012378,0.00912205 -0.0181811,0.0113465 -0.00583465,0.00219291 -0.0120866,0.0032874 -0.0187598,0.0032874 -0.0110276,0 -0.0194724,-0.00267323 -0.0254055,-0.00805906 -0.00589764,-0.00538189 -0.0088622,-0.0122795 -0.0088622,-0.0206299 0,-0.00493307 0.00109449,-0.00941339 0.00335039,-0.0134764 0.00222441,-0.00405906 0.00515748,-0.00731496 0.00876772,-0.00976772 0.00364567,-0.00244882 0.00770472,-0.0043189 0.012252,-0.0055748 0.0033189,-0.000870079 0.00835039,-0.00174016 0.0150866,-0.00254724 0.0137323,-0.00164567 0.0238543,-0.00357874 0.0303346,-0.00586614 6.29921e-005,-0.00232283 9.44882e-005,-0.00380315 9.44882e-005,-0.00441732 0,-0.00692913 -0.00161024,-0.0118307 -0.00483465,-0.0146339 -0.0043189,-0.00387008 -0.0107992,-0.00577165 -0.0193425,-0.00577165 -0.00799213,0 -0.0138937,0.00138583 -0.0177283,0.00418898 -0.00380315,0.00280709 -0.00661024,0.00777165 -0.00844488,0.0148937l-0.0166024 -0.0022874c0.00151575,-0.00709055 0.00399606,-0.0128622 0.00744488,-0.0172165 0.00344882,-0.00438189 0.00848031,-0.00776772 0.0150236,-0.010122 0.00654331,-0.00235039 0.0141181,-0.00354331 0.0227598,-0.00354331 0.0085748,0 0.0155039,0.0010315 0.0208543,0.00302756 0.00535433,0.0020315 0.00928346,0.00454724 0.0118307,0.00761024 0.00251575,0.00306299 0.00425591,0.00689764 0.0052874,0.0115709 0.000547244,0.00290157 0.000838583,0.00812598 0.000838583,0.0156693l0 0.0226614c0,0.0158268 0.000354331,0.0258189 0.00109449,0.0299803 0.000712598,0.00418898 0.00216142,0.00822047 0.0042874,0.0120551l-0.0177598 0c-0.00174016,-0.00351181 -0.00290157,-0.00764173 -0.00338583,-0.012378zm-0.00141732 -0.0379764c-0.00618898,0.00254724 -0.0154409,0.00467717 -0.0277559,0.00644882 -0.00699606,0.001 -0.0119606,0.00212598 -0.0148307,0.00338583 -0.00289764,0.00125591 -0.00515748,0.00309449 -0.00670472,0.00554331 -0.00157874,0.00241732 -0.00238583,0.00509449 -0.00238583,0.00805906 0,0.00454724 0.00174409,0.0083189 0.00516142,0.0113465 0.00341339,0.003 0.00844488,0.00451575 0.0150512,0.00451575 0.00654331,0 0.0123819,-0.00142126 0.0174724,-0.0042874 0.00509449,-0.00287008 0.00886614,-0.00680315 0.011252,-0.0117677 0.00183858,-0.00383465 0.00274016,-0.00951181 0.00274016,-0.0169882l0 -0.00625591zm0.0435472 0.0503543l0 -0.100287 0.0152835 0 0 0.014248c0.00738189,-0.0110236 0.0180197,-0.0165354 0.0319134,-0.0165354 0.00605906,0 0.0116024,0.00109449 0.0166654,0.00325591 0.00509449,0.00219291 0.00886614,0.00502756 0.011378,0.0085748 0.00254724,0.00351181 0.0042874,0.00770472 0.0053189,0.0125394 0.000614173,0.00315748 0.000937008,0.00866929 0.000937008,0.0165354l0 0.0616693 -0.0170236 0 0 -0.0610236c0,-0.00689764 -0.000641732,-0.0120866 -0.00196457,-0.0155354 -0.00132283,-0.00341732 -0.00367323,-0.00615748 -0.00702756,-0.00818898 -0.00338583,-0.00206299 -0.0073189,-0.00309449 -0.0118622,-0.00309449 -0.00725197,0 -0.0134764,0.0023189 -0.0187638,0.00689764 -0.00525197,0.00461024 -0.0078622,0.013315 -0.0078622,0.0261772l0 0.0547677 -0.0169921 0zm0.144677 -0.0152165l0.00244882 0.0150236c-0.00477165,0.001 -0.00905906,0.00151575 -0.0128307,0.00151575 -0.00618898,0 -0.0109606,-0.000968504 -0.014378,-0.00293307 -0.00338189,-0.00193701 -0.00576772,-0.00451575 -0.00715354,-0.00770472 -0.00138583,-0.00316142 -0.00209843,-0.00986614 -0.00209843,-0.0200512l0 -0.0577047 -0.0124724 0 0 -0.0132165 0.0124724 0 0 -0.0248543 0.0169252 -0.010185 0 0.0350394 0.0170866 0 0 0.0132165 -0.0170866 0 0 0.0586378c0,0.00487008 0.000291339,0.00796457 0.000870079,0.00935039 0.000614173,0.00138583 0.00157874,0.00248031 0.00293307,0.0033189 0.00135433,0.000807087 0.00329134,0.00122441 0.00580315,0.00122441 0.00190157,0 0.00438583,-0.000224409 0.00748031,-0.000677165zm0.0576024 0.0175709l0.0401339 -0.143161 0.0136024 0 -0.0400354 0.143161 -0.0137008 0zm0.221169 -0.0509016l0.0183425 0.00464173c-0.00383465,0.0150236 -0.0107677,0.0264961 -0.0207283,0.0344291 -0.00999213,0.00789764 -0.0221772,0.0118307 -0.0366181,0.0118307 -0.0149252,0 -0.0270472,-0.0030315 -0.0363976,-0.00909055 -0.00934646,-0.00609449 -0.0164724,-0.0148937 -0.0213386,-0.0264016 -0.00487008,-0.0115433 -0.0073189,-0.0239213 -0.0073189,-0.0371378 0,-0.0144094 0.00274016,-0.0269803 0.00825197,-0.0377165 0.00551181,-0.0107323 0.0133465,-0.0188898 0.0235354,-0.0244646 0.0101535,-0.00557874 0.0213386,-0.00835039 0.0335551,-0.00835039 0.0138622,0 0.0255,0.00351181 0.0349449,0.0105709 0.00944488,0.00706299 0.0160236,0.0169567 0.0197283,0.0297559l-0.0180197 0.00425591c-0.00322441,-0.0100906 -0.00786614,-0.0174094 -0.0139921,-0.0220197 -0.00609055,-0.0046063 -0.0137638,-0.00689764 -0.0230472,-0.00689764 -0.0106378,0 -0.0195039,0.00254724 -0.0266575,0.00764173 -0.00715748,0.00512598 -0.012189,0.0119567 -0.0150551,0.0205669 -0.00290157,0.0085748 -0.00435433,0.017437 -0.00435433,0.026563 0,0.0117953 0.00170866,0.0220472 0.00512598,0.0308504 0.00344882,0.00876772 0.00876772,0.0153425 0.0160236,0.0196929 0.00725197,0.00435433 0.0150866,0.00651181 0.0235315,0.00651181 0.010252,0 0.0189213,-0.00296457 0.0260472,-0.0088622 0.00712205,-0.00593307 0.0119252,-0.0147323 0.0144409,-0.0263701zm0.104189 0.0361693c-0.0063189,0.00535039 -0.012378,0.00912205 -0.0181811,0.0113465 -0.00583465,0.00219291 -0.0120866,0.0032874 -0.0187598,0.0032874 -0.0110276,0 -0.0194724,-0.00267323 -0.0254055,-0.00805906 -0.00589764,-0.00538189 -0.0088622,-0.0122795 -0.0088622,-0.0206299 0,-0.00493307 0.00109449,-0.00941339 0.00335039,-0.0134764 0.00222441,-0.00405906 0.00515748,-0.00731496 0.00876772,-0.00976772 0.00364567,-0.00244882 0.00770472,-0.0043189 0.012252,-0.0055748 0.0033189,-0.000870079 0.00835039,-0.00174016 0.0150866,-0.00254724 0.0137323,-0.00164567 0.0238543,-0.00357874 0.0303346,-0.00586614 6.29921e-005,-0.00232283 9.44882e-005,-0.00380315 9.44882e-005,-0.00441732 0,-0.00692913 -0.00161024,-0.0118307 -0.00483465,-0.0146339 -0.0043189,-0.00387008 -0.0107992,-0.00577165 -0.0193425,-0.00577165 -0.00799213,0 -0.0138937,0.00138583 -0.0177283,0.00418898 -0.00380315,0.00280709 -0.00661024,0.00777165 -0.00844488,0.0148937l-0.0166024 -0.0022874c0.00151575,-0.00709055 0.00399606,-0.0128622 0.00744488,-0.0172165 0.00344882,-0.00438189 0.00848031,-0.00776772 0.0150236,-0.010122 0.00654331,-0.00235039 0.0141181,-0.00354331 0.0227598,-0.00354331 0.0085748,0 0.0155039,0.0010315 0.0208543,0.00302756 0.00535433,0.0020315 0.00928346,0.00454724 0.0118307,0.00761024 0.00251575,0.00306299 0.00425591,0.00689764 0.0052874,0.0115709 0.000547244,0.00290157 0.000838583,0.00812598 0.000838583,0.0156693l0 0.0226614c0,0.0158268 0.000354331,0.0258189 0.00109449,0.0299803 0.000712598,0.00418898 0.00216142,0.00822047 0.0042874,0.0120551l-0.0177598 0c-0.00174016,-0.00351181 -0.00290157,-0.00764173 -0.00338583,-0.012378zm-0.00141732 -0.0379764c-0.00618898,0.00254724 -0.0154409,0.00467717 -0.0277559,0.00644882 -0.00699606,0.001 -0.0119606,0.00212598 -0.0148307,0.00338583 -0.00289764,0.00125591 -0.00515748,0.00309449 -0.00670472,0.00554331 -0.00157874,0.00241732 -0.00238583,0.00509449 -0.00238583,0.00805906 0,0.00454724 0.00174409,0.0083189 0.00516142,0.0113465 0.00341339,0.003 0.00844488,0.00451575 0.0150512,0.00451575 0.00654331,0 0.0123819,-0.00142126 0.0174724,-0.0042874 0.00509449,-0.00287008 0.00886614,-0.00680315 0.011252,-0.0117677 0.00183858,-0.00383465 0.00274016,-0.00951181 0.00274016,-0.0169882l0 -0.00625591zm0.0475787 0.0503543l0 -0.0870709 -0.0149882 0 0 -0.0132165 0.0149882 0 0 -0.0106693c0,-0.00673622 0.000614173,-0.0117677 0.00180315,-0.0150236 0.00164567,-0.00441339 0.00451575,-0.00799213 0.00864173,-0.0107323 0.00412598,-0.00274016 0.00989764,-0.00409449 0.0173425,-0.00409449 0.00477165,0 0.0100591,0.000547244 0.0158583,0.00170866l-0.00254331 0.0148268c-0.00351575,-0.000641732 -0.00686614,-0.000964567 -0.0100276,-0.000964567 -0.00515748,0 -0.00879921,0.00109449 -0.0109291,0.0033189 -0.00215748,0.00219291 -0.00322047,0.0063189 -0.00322047,0.012378l0 0.00925197 0.0195354 0 0 0.0132165 -0.0195354 0 0 0.0870709 -0.0169252 0zm0.118339 -0.0322992l0.0175669 0.00215748c-0.00277165,0.0102835 -0.00789764,0.018248 -0.015378,0.0239213 -0.00750787,0.00564173 -0.0170827,0.00847638 -0.0287205,0.00847638 -0.0146693,0 -0.0263031,-0.00451181 -0.034878,-0.0135394 -0.00861024,-0.00902362 -0.0128976,-0.0216929 -0.0128976,-0.0380039 0,-0.0168937 0.00435433,-0.0299803 0.0130236,-0.0392992 0.00870472,-0.00931496 0.0199567,-0.0139882 0.0338189,-0.0139882 0.0134094,0 0.0243701,0.0045748 0.0328465,0.0137008 0.00851181,0.00912205 0.0127677,0.0219843 0.0127677,0.0385197 0,0.0010315 -3.54331e-005,0.00254724 -9.84252e-005,0.00454724l-0.0747874 0c0.000610236,0.0110236 0.00374016,0.0194685 0.00934646,0.0253031 0.00561024,0.00587008 0.0125748,0.00880315 0.0209567,0.00880315 0.00622047,0 0.0115394,-0.00164567 0.0159567,-0.00493307 0.00441339,-0.00325591 0.00789764,-0.00847638 0.0104764,-0.0156654zm-0.0558031 -0.0275l0.0559961 0c-0.000740157,-0.00841339 -0.00290157,-0.0147638 -0.00641732,-0.0189528 -0.00541339,-0.00654331 -0.0124409,-0.00983465 -0.0210472,-0.00983465 -0.00780315,0 -0.014378,0.00261417 -0.0196969,0.00783465 -0.0053189,0.00522441 -0.00825197,0.0122165 -0.00883465,0.0209528zm0.018311 -0.0529646l0.0125709 -0.0264331 0.0222756 0 -0.0207598 0.0264331 -0.0140866 0zm0.126752 0.0453268c0,-0.0229843 0.00615354,-0.0409724 0.0185,-0.0539646 0.0123465,-0.0129921 0.0282717,-0.0195039 0.0478071,-0.0195039 0.0127677,0 0.0243071,0.00306299 0.0345591,0.00915748 0.010252,0.00612205 0.0180827,0.0146339 0.0234685,0.025563 0.00538189,0.0108937 0.00805906,0.0233071 0.00805906,0.0371339 0,0.0140551 -0.00280709,0.0266299 -0.00848031,0.037685 -0.00567323,0.0110906 -0.0137008,0.0194724 -0.0240787,0.0251772 -0.0104134,0.00570472 -0.0215984,0.00854331 -0.033622,0.00854331 -0.0130551,0 -0.0246929,-0.00312992 -0.0349449,-0.00944488 -0.0102835,-0.0062874 -0.0180512,-0.0148937 -0.0233386,-0.0257913 -0.0052874,-0.0108622 -0.00792913,-0.0224016 -0.00792913,-0.0345551zm0.0188898 0.000287402c0,0.0167008 0.00448031,0.0298189 0.0134409,0.0394252 0.00899606,0.0096063 0.0202441,0.0144094 0.0337835,0.0144094 0.0137992,0 0.0251457,-0.00483465 0.0340433,-0.0145354 0.00889764,-0.00970472 0.013378,-0.0234685 0.013378,-0.0412953 0,-0.011252 -0.00193701,-0.0210827 -0.00574016,-0.0294961 -0.00380315,-0.00841339 -0.00938189,-0.0149252 -0.0166969,-0.0195669 -0.00735039,-0.00461024 -0.0155709,-0.00693307 -0.0246929,-0.00693307 -0.0129921,0 -0.0241457,0.00444882 -0.0334961,0.013378 -0.00934646,0.00889764 -0.0140197,0.0237913 -0.0140197,0.0446142zm0.153472 0.0671496l-0.030689 -0.100287 0.0175709 0 0.0159567 0.0578976 0.00592913 0.0215315c0.000259843,-0.00109449 0.002,-0.00799213 0.00519291,-0.0206929l0.0159567 -0.0587362 0.0174724 0 0.0150197 0.0581535 0.0050315 0.0191811 0.00573622 -0.019374 0.0171811 -0.0579606 0.0165394 0 -0.0313661 0.100287 -0.0176339 0 -0.0159567 -0.0600551 -0.00390157 -0.0171181 -0.0202756 0.0771732 -0.0177638 0zm0.121177 0l0 -0.100287 0.0152835 0 0 0.014248c0.00738189,-0.0110236 0.0180197,-0.0165354 0.0319134,-0.0165354 0.00605906,0 0.0116024,0.00109449 0.0166654,0.00325591 0.00509449,0.00219291 0.00886614,0.00502756 0.011378,0.0085748 0.00254724,0.00351181 0.0042874,0.00770472 0.0053189,0.0125394 0.000614173,0.00315748 0.000937008,0.00866929 0.000937008,0.0165354l0 0.0616693 -0.0170236 0 0 -0.0610236c0,-0.00689764 -0.000641732,-0.0120866 -0.00196457,-0.0155354 -0.00132283,-0.00341732 -0.00367323,-0.00615748 -0.00702756,-0.00818898 -0.00338583,-0.00206299 -0.0073189,-0.00309449 -0.0118622,-0.00309449 -0.00725197,0 -0.0134764,0.0023189 -0.0187638,0.00689764 -0.00525197,0.00461024 -0.0078622,0.013315 -0.0078622,0.0261772l0 0.0547677 -0.0169921 0zm0.176205 -0.0322992l0.0175669 0.00215748c-0.00277165,0.0102835 -0.00789764,0.018248 -0.015378,0.0239213 -0.00750787,0.00564173 -0.0170827,0.00847638 -0.0287205,0.00847638 -0.0146693,0 -0.0263031,-0.00451181 -0.034878,-0.0135394 -0.00861024,-0.00902362 -0.0128976,-0.0216929 -0.0128976,-0.0380039 0,-0.0168937 0.00435433,-0.0299803 0.0130236,-0.0392992 0.00870472,-0.00931496 0.0199567,-0.0139882 0.0338189,-0.0139882 0.0134094,0 0.0243701,0.0045748 0.0328465,0.0137008 0.00851181,0.00912205 0.0127677,0.0219843 0.0127677,0.0385197 0,0.0010315 -3.54331e-005,0.00254724 -9.84252e-005,0.00454724l-0.0747874 0c0.000610236,0.0110236 0.00374016,0.0194685 0.00934646,0.0253031 0.00561024,0.00587008 0.0125748,0.00880315 0.0209567,0.00880315 0.00622047,0 0.0115394,-0.00164567 0.0159567,-0.00493307 0.00441339,-0.00325591 0.00789764,-0.00847638 0.0104764,-0.0156654zm-0.0558031 -0.0275l0.0559961 0c-0.000740157,-0.00841339 -0.00290157,-0.0147638 -0.00641732,-0.0189528 -0.00541339,-0.00654331 -0.0124409,-0.00983465 -0.0210472,-0.00983465 -0.00780315,0 -0.014378,0.00261417 -0.0196969,0.00783465 -0.0053189,0.00522441 -0.00825197,0.0122165 -0.00883465,0.0209528zm0.0945472 0.0597992l0 -0.100287 0.0152795 0 0 0.015185c0.00390157,-0.00709449 0.00751181,-0.0117992 0.0108346,-0.0140551 0.0032874,-0.00225591 0.00692913,-0.00341732 0.0108937,-0.00341732 0.00574016,0 0.0115394,0.00183858 0.0174724,0.00548031l-0.00586614 0.0157953c-0.00412598,-0.00248425 -0.00828346,-0.00370866 -0.0124449,-0.00370866 -0.00374016,0 -0.00705906,0.00112992 -0.0100236,0.00335433 -0.0029685,0.00225591 -0.00506299,0.00535039 -0.0063189,0.00931496 -0.00190157,0.00602756 -0.00283858,0.0126378 -0.00283858,0.0198268l0 0.0525118 -0.0169882 0zm0.0578031 -0.0299488l0.0167953 -0.00264173c0.000933071,0.00673622 0.00357874,0.0118937 0.00789764,0.0155039 0.0042874,0.00357874 0.010315,0.00538583 0.0180827,0.00538583 0.00780315,0 0.0136063,-0.00161417 0.017378,-0.00477165 0.00377165,-0.00319291 0.00567323,-0.00692913 0.00567323,-0.011185 0,-0.00387008 -0.00167717,-0.00686614 -0.0050315,-0.00909055 -0.0023189,-0.00151575 -0.00812205,-0.00341732 -0.017374,-0.00574016 -0.0124449,-0.00315748 -0.0211142,-0.00586614 -0.0259173,-0.00818898 -0.00480315,-0.0022874 -0.00848031,-0.00547638 -0.0109606,-0.00953937 -0.00248425,-0.00406299 -0.00374016,-0.00854331 -0.00374016,-0.0134449 0,-0.00448031 0.0010315,-0.0086063 0.00309449,-0.0124094 0.0020315,-0.00383465 0.00483465,-0.00699606 0.00835039,-0.00950787 0.00264173,-0.00193701 0.00625197,-0.00361024 0.0107992,-0.00496457 0.00457874,-0.00135433 0.00947638,-0.0020315 0.0147008,-0.0020315 0.0078622,0 0.0147638,0.00116142 0.0207244,0.00341732 0.00596457,0.00225591 0.0103504,0.0053189 0.013185,0.00918504 0.00283858,0.00390157 0.00477165,0.00905906 0.00583465,0.0155394l-0.0165984 0.0022874c-0.000775591,-0.00515748 -0.0029685,-0.00918504 -0.00657874,-0.0120866 -0.00361024,-0.00290157 -0.00873622,-0.00435433 -0.0153425,-0.00435433 -0.00780315,0 -0.013378,0.00129134 -0.0167008,0.00387008 -0.00335039,0.00257874 -0.00502756,0.00561024 -0.00502756,0.00905906 0,0.00222441 0.000708661,0.00418898 0.00209449,0.00596457 0.00138583,0.00183465 0.00354724,0.0033189 0.00651181,0.00454331 0.00170866,0.000614173 0.00670472,0.00206299 0.0150236,0.0043189 0.0120236,0.00322441 0.0204055,0.00583465 0.0251417,0.00789764 0.00477165,0.0020315 0.00851181,0.0050315 0.0112205,0.00892913 0.00270866,0.00390157 0.00406299,0.00873622 0.00406299,0.0145394 0,0.00567323 -0.00167717,0.0109921 -0.00496457,0.0160236 -0.00332283,0.00499606 -0.00809449,0.0088622 -0.014315,0.0116024 -0.00622047,0.00274016 -0.0132795,0.00409449 -0.0211457,0.00409449 -0.0130551,0 -0.0229843,-0.00270866 -0.0298189,-0.00812205 -0.00683465,-0.00541732 -0.011185,-0.0134449 -0.0130551,-0.0240827z"/>
  </g>
 </g>
</svg>
