<?xml version="1.0" encoding="UTF-8"?>
<!DOCTYPE svg PUBLIC "-//W3C//DTD SVG 1.1//EN" "http://www.w3.org/Graphics/SVG/1.1/DTD/svg11.dtd">
<!-- Creator: CorelDRAW -->
<svg xmlns="http://www.w3.org/2000/svg" xml:space="preserve" width="8in" height="8in" style="shape-rendering:geometricPrecision; text-rendering:geometricPrecision; image-rendering:optimizeQuality; fill-rule:evenodd; clip-rule:evenodd"
viewBox="0 0 8 8"
 xmlns:xlink="http://www.w3.org/1999/xlink">
 <defs>
  <style type="text/css">
   <![CDATA[
    .fil0 {fill:#449284}
    .fil1 {fill:#E77817}
    .fil3 {fill:white}
    .fil2 {fill:white;fill-rule:nonzero}
   ]]>
  </style>
 </defs>
 <g id="Layer_x0020_1">
  <metadata id="CorelCorpID_0Corel-Layer"/>
  <g id="_94335000">
   <rect id="_37865032" class="fil0" width="8" height="8" rx="1.13515" ry="1.13515"/>
   <g>
    <path id="_37868464" class="fil1" d="M4.19198 1.59938c1.43161,0 2.59255,1.161 2.59255,2.59263 0,1.43168 -1.16094,2.59263 -2.59255,2.59263 -1.43154,0 -2.59247,-1.16096 -2.59247,-2.59263 0,-1.43163 1.16094,-2.59263 2.59247,-2.59263z"/>
    <path id="_37865104" class="fil2" d="M2.85378 5.32176l0.120484 -0.120083 1.97539 0 0 0.240161 -1.97539 0 -0.120484 -0.120079zm0.120484 -0.120083l0 0.240161 -0.00614173 -0.000149606 -0.00610236 -0.000480315 -0.00598819 -0.000744094 -0.00591339 -0.00108268 -0.00580709 -0.00133858 -0.00577165 -0.00160236 -0.00550787 -0.00189764 -0.00550394 -0.00215748 -0.00528346 -0.00237795 -0.00516929 -0.0026811 -0.00506299 -0.00286614 -0.00483858 -0.00312205 -0.00472441 -0.00335039 -0.00453937 -0.0035748 -0.0043937 -0.00375591 -0.00412598 -0.00398031 -0.00401969 -0.00417323 -0.00375591 -0.00435039 -0.00353937 -0.00453937 -0.00334646 -0.00472835 -0.00312598 -0.00487402 -0.00290157 -0.00501969 -0.0026811 -0.00517717 -0.00234646 -0.0053189 -0.00215748 -0.0054685 -0.00193307 -0.00554724 -0.00159843 -0.00573228 -0.00134252 -0.00580315 -0.00103937 -0.00591732 -0.000779528 -0.00599213 -0.000484252 -0.00609843 -0.000114173 -0.00617717 0.000114173 -0.00617717 0.000484252 -0.00610236 0.000779528 -0.00599213 0.00103937 -0.00591732 0.00134252 -0.00580315 0.00159843 -0.00573228 0.00193307 -0.00554331 0.00215748 -0.00547244 0.00234646 -0.0053189 0.0026811 -0.00517323 0.00290157 -0.00502362 0.00312598 -0.00487402 0.00334646 -0.00472441 0.00353937 -0.00454331 0.00375591 -0.00435039 0.00401969 -0.00416929 0.00412598 -0.00398425 0.0043937 -0.00375591 0.00453937 -0.00357087 0.00472441 -0.00335039 0.00483858 -0.00312598 0.00506299 -0.00286614 0.00516929 -0.0026811 0.00528346 -0.00237795 0.00550394 -0.00215748 0.00550787 -0.00189764 0.00577165 -0.00160236 0.00580709 -0.00133858 0.00591339 -0.00107874 0.00598819 -0.000744094 0.00610236 -0.000484252 0.00614173 -0.000149606zm-0.00137795 -0.784791l0.121937 0.120083 0 0.784791 -0.241043 0 0 -0.784791 0.119106 -0.120083zm0.121937 0.120083l-0.241043 0 0.000110236 -0.00621654 0.000484252 -0.00610236 0.000779528 -0.00602362 0.00104331 -0.00595669 0.00133858 -0.00580315 0.00167323 -0.00573228 0.0018622 -0.00558268 0.00219685 -0.00547244 0.00238189 -0.00535827 0.00264173 -0.00520866 0.00290157 -0.00501969 0.00316535 -0.00491339 0.00334646 -0.00472835 0.00361024 -0.00453543 0.00379134 -0.00435433 0.00394488 -0.00420472 0.00420472 -0.00398425 0.00435433 -0.00379528 0.00457874 -0.00357087 0.00472441 -0.00338976 0.00487402 -0.00312205 0.00505906 -0.00290157 0.0052126 -0.00264567 0.00535827 -0.00241732 0.00543307 -0.00215748 0.00561811 -0.00189764 0.00569291 -0.0016378 0.00580709 -0.00134252 0.00598819 -0.0010748 0.00599213 -0.000744094 0.00610236 -0.000488189 0.0062126 -0.000145669 0.00625197 0.000145669 0.00609843 0.000488189 0.0060315 0.000744094 0.00591732 0.0010748 0.00584252 0.00134252 0.00568898 0.0016378 0.00558661 0.00189764 0.0054685 0.00215748 0.00535827 0.00241732 0.00520866 0.00264567 0.00505906 0.00290157 0.00491339 0.00312205 0.00472441 0.00338976 0.00453937 0.00357087 0.00431496 0.00379528 0.00424409 0.00398425 0.00394488 0.00420472 0.00379528 0.00435433 0.00357087 0.00453543 0.00338583 0.00472835 0.00312598 0.00491339 0.00290157 0.00501969 0.00267717 0.00520866 0.00242126 0.00535827 0.00212205 0.00547244 0.00193701 0.00558268 0.00163386 0.00573228 0.00133858 0.00580315 0.00108268 0.00595669 0.000740157 0.00602362 0.000444882 0.00610236 0.000188976 0.00621654zm-0.966673 -0.897618l0.240154 0.0103465 0 0 -0.00141732 0.075878 0.00298031 0.0697323 0.0062126 0.0642244 0.0100827 0.0594291 0.0126535 0.0542913 0.0150315 0.0492677 0.0176024 0.045437 0.0197953 0.0412638 0.0217323 0.0372874 0.0229173 0.0339016 0.0242992 0.0307362 0.0258622 0.0281693 0.0266811 0.0253031 0.0276811 0.0226614 0.0282795 0.0201299 0.0287638 0.0182323 0.0293583 0.0161142 0.0290984 0.0145118 0.0287598 0.0122795 0.0283937 0.0106063 0.0279055 0.00859843 0.0270157 0.00774016 0.0254134 0.00610236 0.0234449 0.00468504 0.0218031 0.00338976 0.0197953 0.00267717 0.0170433 0.00227165 0.0144764 0.000929134 0.0110472 0.000858268 0.008 0.000370079 0.00398031 0.000110236 -0.000110236 0 0.00279134 0.240161 -0.00453937 0 -0.00877953 -0.000110236 -0.0126142 -0.000370079 -0.0167441 -0.000858268 -0.0201693 -0.0018937 -0.0235906 -0.00227165 -0.0263819 -0.00364961 -0.0292874 -0.00524409 -0.0319606 -0.00654724 -0.033937 -0.00803937 -0.0354961 -0.00960236 -0.0372087 -0.0123898 -0.038811 -0.0143268 -0.04 -0.0169685 -0.0404488 -0.0192795 -0.0406693 -0.0226575 -0.0409685 -0.0258228 -0.0405591 -0.0295118 -0.0398858 -0.0330039 -0.0389252 -0.0366181 -0.0372087 -0.0404488 -0.0356102 -0.0448031 -0.0332638 -0.0490079 -0.0302126 -0.0532874 -0.027315 -0.0572677 -0.024185 -0.0614331 -0.020689 -0.0662362 -0.0164449 -0.0702953 -0.0119488 -0.0744567 -0.00811024 -0.0793346 -0.00297638 -0.083878 0.00141339 -0.0880827zm1.30863 -0.568366l0.223185 0.0884882 -0.205732 0.030626 -0.0132835 -0.0148858 -0.0186772 -0.0164843 -0.0227756 -0.0164803 -0.0275748 -0.0168228 -0.0314016 -0.0160748 -0.0350157 -0.0147362 -0.0378031 -0.0136181 -0.041189 -0.0120197 -0.0429055 -0.0101969 -0.0451024 -0.00773622 -0.0465827 -0.00614173 -0.0472205 -0.00335039 -0.0485551 -0.00100394 -0.0484488 0.00200787 -0.0481496 0.00472835 -0.0474803 0.0071063 -0.0469567 0.0105669 -0.0455827 0.0132835 -0.0444646 0.0160354 -0.0423465 0.0195039 -0.0405236 0.022622 -0.0379528 0.0254173 -0.0357913 0.0293228 -0.0334173 0.0323701 -0.0311811 0.0365827 -0.0281693 0.0404134 -0.0251929 0.0443898 -0.0219882 0.0500157 -0.0188307 0.0547362 -0.0149921 0.0606535 -0.0101969 0.0666457 -0.00617717 0.072748 -0.240154 -0.0103465 0.00714567 -0.090685 0.0139921 -0.0854724 0.0196496 -0.080374 0.0255197 -0.0755039 0.0313346 -0.0697362 0.0365039 -0.0651535 0.041374 -0.0592441 0.045248 -0.0535472 0.0494882 -0.048374 0.0527283 -0.0424961 0.0557756 -0.037622 0.0575276 -0.0320748 0.0593071 -0.0270118 0.0604331 -0.0226654 0.0616535 -0.0179724 0.0619567 -0.0133976 0.0625472 -0.00993307 0.0622913 -0.00569291 0.0616535 -0.00201181 0.0607677 0.00100787 0.0603543 0.00431496 0.0589016 0.0071063 0.0573386 0.0105669 0.0560394 0.0130276 0.0534331 0.0157402 0.0519449 0.0183819 0.0491929 0.0212835 0.046437 0.0235945 0.0435709 0.0262717 0.0406693 0.0296535 0.0365827 0.0324882 0.0330748 0.0365394 -0.205807 0.030626zm0.0174528 0.119114l0.188354 -0.14974 0.00368504 0.00494882 0.00349606 0.00506299 0.00312598 0.00517323 0.00282677 0.0053189 0.0026063 0.00539764 0.00227165 0.0054685 0.00200787 0.00554724 0.00167323 0.00561811 0.00145276 0.00565354 0.00115354 0.00572835 0.000893701 0.00573622 0.000523622 0.00576378 0.000370079 0.00580709 3.54331e-005 0.00576772 -0.00026378 0.00576772 -0.000555118 0.00576772 -0.000779528 0.00569685 -0.00108268 0.00568898 -0.00133858 0.00562205 -0.00160236 0.00557874 -0.0018189 0.0054685 -0.00219685 0.00539764 -0.00237795 0.00532283 -0.00264567 0.00520866 -0.00294094 0.00509449 -0.00320079 0.00495276 -0.00349606 0.00483858 -0.0036811 0.00464961 -0.00398425 0.00450394 -0.00427559 0.00435433 -0.00446457 0.00416535 -0.00476378 0.00398425 -0.00494882 0.00372047 -0.00502362 0.00346063 -0.00517323 0.00312598 -0.00532283 0.00286614 -0.0053937 0.00256693 -0.0054685 0.00226772 -0.00558268 0.00201181 -0.00562205 0.0017126 -0.00561811 0.00141339 -0.00576378 0.00114961 -0.00569685 0.000893701 -0.00580315 0.000559055 -0.00576772 0.000334646 -0.00576772 3.93701e-005 -0.00580315 -0.00026378 -0.00572835 -0.000519685 -0.00573228 -0.000783465 -0.00569291 -0.0010748 -0.00561811 -0.00134252 -0.00558268 -0.00159843 -0.0054685 -0.00185827 -0.00539764 -0.00216142 -0.0053189 -0.00242126 -0.00520866 -0.0026378 -0.00505906 -0.00294094 -0.00495276 -0.00320079 -0.00487008 -0.00346063 -0.00465354 -0.00372047 -0.00450394 -0.00398031 -0.00435433 -0.00424409 -0.00412992 -0.00446457 -0.00398031 -0.00476378zm0.837811 -0.142665l0.170382 0.169535 -0.178421 -0.00897244 -0.0315906 -0.0362047 -0.0307717 -0.0312953 -0.0298031 -0.0266063 -0.0293976 -0.0221772 -0.0287992 -0.0189016 -0.0270906 -0.0148504 -0.026937 -0.0116102 -0.0260866 -0.00892913 -0.0251535 -0.00654724 -0.0250787 -0.0043937 -0.0240748 -0.00193701 -0.0247835 -0.000220472 -0.0235906 0.0017126 -0.0237008 0.00349606 -0.022811 0.00454331 -0.0232559 0.00628346 -0.0221024 0.00788976 -0.0214685 0.00870866 -0.0212126 0.00933858 -0.0198661 0.0106811 -0.0194646 0.0108661 -0.0179724 0.0117992 -0.0169291 0.0114921 -0.015252 0.0115 -0.0140315 0.0112756 -0.0122402 0.0107913 -0.0100118 0.00967323 -0.00840945 0.00870866 -0.00602756 0.00666142 -0.00294094 0.0034252 0.000669291 -0.000968504 0.00614173 -0.0127283 -0.223185 -0.0884882 0.012689 -0.0250039 0.0115748 -0.0168937 0.0123543 -0.0156299 0.0135039 -0.0151457 0.0150709 -0.0153307 0.0175236 -0.0162244 0.0188661 -0.0164488 0.0205787 -0.0169291 0.0228858 -0.0171575 0.0244055 -0.0171535 0.0264567 -0.0164843 0.0279094 -0.0165197 0.0302874 -0.0154409 0.0315551 -0.015 0.0337126 -0.0133976 0.0352717 -0.0116102 0.0364331 -0.0100827 0.0388071 -0.00833465 0.0396654 -0.00535827 0.0414488 -0.00267717 0.0418228 0.000220472 0.0438386 0.00387402 0.0439055 0.00721654 0.0449882 0.0112362 0.044874 0.0155551 0.0447638 0.0200197 0.0450945 0.0242953 0.0437992 0.0282835 0.0435315 0.0334921 0.0430157 0.0379173 0.0420827 0.0426063 0.0409685 0.0475236 -0.178417 -0.0089685zm-0.00803937 0.160563l0.186457 -0.151594 0.00379528 0.00490945 0.0034252 0.00502362 0.00320079 0.00513386 0.00293701 0.00524803 0.00264567 0.00535827 0.00230709 0.00543307 0.00204331 0.00554331 0.0017874 0.00557874 0.00148819 0.00565748 0.00122835 0.00569291 0.000893701 0.00573622 0.000669291 0.00572835 0.000370079 0.00576378 0.000149606 0.00577165 -0.000185039 0.00576772 -0.000484252 0.00576772 -0.000744094 0.00569291 -0.000964567 0.00569291 -0.00130315 0.00561811 -0.00156299 0.00558268 -0.0017874 0.00550394 -0.00208661 0.00543701 -0.00230709 0.0053189 -0.0026378 0.00520866 -0.00286614 0.0051378 -0.00316535 0.00498819 -0.00338189 0.00483465 -0.00368504 0.00472835 -0.00387008 0.00453543 -0.00420472 0.0043937 -0.00446457 0.00420472 -0.00468898 0.00401575 -0.00487402 0.00379921 -0.00505906 0.00346063 -0.0051378 0.00320079 -0.00524803 0.00294094 -0.00535827 0.00260236 -0.00542913 0.00234646 -0.00550787 0.00204724 -0.00558268 0.00178346 -0.00565748 0.00148819 -0.00572835 0.00122835 -0.00569291 0.000893701 -0.00576772 0.000669291 -0.00572835 0.000370079 -0.00580709 0.000114173 -0.00573228 -0.000185039 -0.00576772 -0.000484252 -0.00568898 -0.000708661 -0.00573228 -0.00100394 -0.00561811 -0.00126378 -0.00554331 -0.00156693 -0.00554331 -0.00178346 -0.00539764 -0.00208661 -0.00535827 -0.00234252 -0.00520866 -0.0026063 -0.0051378 -0.0028622 -0.00498031 -0.00316142 -0.00480315 -0.00338976 -0.00472835 -0.0036811 -0.0045748 -0.00390551 -0.00435433 -0.00417323 -0.00424409 -0.00446457 -0.00401575 -0.00468898zm0.556512 -0.403445l0.00100394 0.240161 0 0 -0.0179724 0.000744094 -0.0181614 0.00141339 -0.0181575 0.00245669 -0.0183071 0.00294094 -0.017378 0.00386614 -0.0178228 0.00420866 -0.017378 0.0053622 -0.0174094 0.00561811 -0.0167835 0.0062126 -0.0167441 0.00673228 -0.0161142 0.00718504 -0.0154803 0.00751575 -0.0153307 0.00785039 -0.0151772 0.00803937 -0.014437 0.00818504 -0.0136575 0.00825984 -0.0129134 0.00825984 -0.0126496 0.0086378 -0.0118346 0.00803543 -0.0114567 0.00781496 -0.0100472 0.0079252 -0.00967717 0.00711024 -0.00874409 0.0071063 -0.00781496 0.0061378 -0.00725591 0.00599213 -0.00583858 0.00576772 -0.0052874 0.00405512 -0.00368504 0.00372441 -0.00312205 0.00282677 -0.00189764 0.00182283 -0.00134252 0.00126378 0.000783465 -0.000814961 -0.170382 -0.169535 0.00200787 -0.00201181 0.00223228 -0.00216142 0.00383465 -0.00375591 0.00494882 -0.00468898 0.00655118 -0.00558268 0.0071378 -0.00688583 0.0086378 -0.00673228 0.00918898 -0.00785039 0.0105669 -0.0089685 0.0115709 -0.0089685 0.0125039 -0.00993701 0.0139173 -0.00985827 0.014248 -0.0106417 0.0155945 -0.0107913 0.016374 -0.0105709 0.0176732 -0.0110906 0.0183819 -0.0110866 0.019122 -0.0110118 0.0198701 -0.0108661 0.0209882 -0.0106811 0.0220669 -0.0103425 0.0227323 -0.0100118 0.0233346 -0.00949213 0.0243346 -0.00904331 0.0248543 -0.00844094 0.0258583 -0.00729528 0.0263425 -0.00703543 0.0277638 -0.00572835 0.0277165 -0.00480315 0.0285433 -0.00342126 0.0293937 -0.00238189 0.0301811 -0.000744094zm0.925406 0.928909l-0.240193 0 0 0 -0.00167323 -0.0605787 -0.00427559 -0.0564843 -0.00673622 -0.0524724 -0.00937795 -0.0489331 -0.0110512 -0.0451732 -0.0129134 -0.0414173 -0.0148071 -0.0387362 -0.0164488 -0.0357244 -0.0178976 -0.0327087 -0.0192362 -0.0299173 -0.0204646 -0.0276142 -0.0214331 -0.0254094 -0.022437 -0.0234094 -0.0235551 -0.0213976 -0.0241496 -0.0195748 -0.0256024 -0.017748 -0.0263031 -0.0161496 -0.0268661 -0.0149921 -0.0274252 -0.0131024 -0.0280906 -0.0122047 -0.0282441 -0.0100118 -0.0287992 -0.00930315 -0.0285787 -0.00829921 -0.0287638 -0.0063622 -0.0283504 -0.00598819 -0.0281339 -0.00435433 -0.0274567 -0.00364567 -0.0269803 -0.00312992 -0.0263819 -0.00170866 -0.0247047 -0.00141339 -0.0238504 -0.000704724 -0.0232205 -7.87402e-005 -0.00100394 -0.240161 0.0270866 7.48031e-005 0.0294685 0.000708661 0.0312559 0.00141339 0.0320394 0.0026811 0.0335984 0.00312205 0.0349764 0.00461417 0.0356496 0.0062126 0.0368386 0.00696063 0.0372087 0.00919291 0.0380276 0.0101575 0.0382126 0.0121299 0.0386299 0.0147008 0.0385118 0.016 0.0385827 0.018752 0.0382126 0.0206535 0.0376181 0.0236693 0.036878 0.0262323 0.0364291 0.0289488 0.0348622 0.0317402 0.0337126 0.0347205 0.0317795 0.0376969 0.0299134 0.0407835 0.0277244 0.0440591 0.0254134 0.0468465 0.0230315 0.0497913 0.0203937 0.052874 0.017748 0.0565236 0.0147323 0.0592441 0.0113543 0.0621772 0.00855512 0.0656457 0.0052126 0.068689 0.00174803 0.0718937zm-0.697906 0.798823l-0.240154 0 0.126661 -0.120087 -0.000818898 7.48031e-005 0.0035 0.000188976 0.00714567 3.54331e-005 0.010378 -0.000224409 0.0125787 -0.000633858 0.015815 -0.00126378 0.0174882 -0.00152362 0.0196811 -0.00249213 0.0213622 -0.00364961 0.0231417 -0.00438976 0.0241496 -0.00539764 0.0255276 -0.0070315 0.0259685 -0.0088189 0.026311 -0.0097874 0.0268268 -0.0119409 0.0265669 -0.0132874 0.0266811 -0.0157795 0.0258583 -0.0174134 0.025748 -0.0192756 0.0250827 -0.0217677 0.0239606 -0.0244134 0.0227362 -0.0272756 0.0221024 -0.030252 0.0207992 -0.0329331 0.0191654 -0.037248 0.0178228 -0.0407441 0.0157008 -0.0448819 0.0133228 -0.0491929 0.0112402 -0.0541063 0.00833071 -0.0587913 0.00520866 -0.0645236 0.00182283 -0.0699961 0.240193 0 -0.00182677 0.0822008 -0.0062126 0.0777717 -0.0101575 0.0738268 -0.0141024 0.0692126 -0.0180472 0.0651969 -0.0213976 0.060878 -0.024374 0.056748 -0.0276457 0.0522795 -0.030252 0.048937 -0.0324449 0.0443937 -0.0349055 0.0404488 -0.0362756 0.036689 -0.0372835 0.0330827 -0.0380669 0.0296142 -0.0389961 0.0259016 -0.0388465 0.0223268 -0.0388819 0.0199094 -0.0381024 0.0166339 -0.0375866 0.0144724 -0.0364252 0.0116496 -0.0348661 0.0098622 -0.0335669 0.00822047 -0.0316614 0.00633071 -0.0297677 0.00453543 -0.0272756 0.00346063 -0.0250039 0.00249213 -0.0215079 0.00126772 -0.019126 0.000633858 -0.0151063 0.000224409 -0.0118346 -3.93701e-005 -0.00818504 -0.000185039 -0.00479921 -7.48031e-005 0.126626 -0.120079zm-0.113488 -0.120087l-0.0131339 0.240165 -0.00621654 -0.000484252 -0.00606299 -0.000818898 -0.00591732 -0.00107874 -0.00587795 -0.00137795 -0.00576772 -0.00167323 -0.00561811 -0.00189764 -0.00543307 -0.00219685 -0.00535827 -0.00245669 -0.00517323 -0.00271654 -0.00502362 -0.00294094 -0.00487008 -0.00316142 -0.00472835 -0.00338583 -0.00450394 -0.00361024 -0.00431496 -0.00379528 -0.00412992 -0.00401969 -0.00398425 -0.00420472 -0.00375591 -0.00438976 -0.0035 -0.0045748 -0.00331102 -0.00472441 -0.00312205 -0.00487795 -0.00286614 -0.00505906 -0.00260236 -0.00517323 -0.00238583 -0.00532283 -0.00208268 -0.0054685 -0.0018622 -0.00558268 -0.00156299 -0.00565354 -0.00129921 -0.00580709 -0.00108268 -0.00588189 -0.000704724 -0.00599213 -0.000448819 -0.00602362 -0.000149606 -0.00614173 0.000188976 -0.00617717 0.000484252 -0.00617323 0.000818898 -0.00607087 0.00111417 -0.00595276 0.00137795 -0.00587795 0.0016378 -0.00573228 0.00193307 -0.00561811 0.00219685 -0.0054685 0.00241732 -0.00532283 0.00275197 -0.00517323 0.00294094 -0.00505906 0.00316142 -0.00483465 0.00338976 -0.00472835 0.00361024 -0.00450394 0.00379528 -0.00435433 0.00398031 -0.00412992 0.00420472 -0.00398031 0.00442913 -0.00372047 0.00453543 -0.00353543 0.00472835 -0.00331102 0.00491339 -0.00309055 0.00501969 -0.00286614 0.00517323 -0.00264173 0.00535827 -0.00234646 0.00543307 -0.00211811 0.00561811 -0.00185827 0.00561811 -0.00156299 0.00584252 -0.00130315 0.00587795 -0.00104331 0.00599213 -0.000744094 0.00598819 -0.000409449 0.0061811 -0.000149606 0.0061378 0.000185039zm-0.00487402 1.02964l0 -0.240161 -0.120039 0.120083 -3.93701e-005 -0.0235197 -0.000110236 -0.0237402 -3.54331e-005 -0.0239646 -3.54331e-005 -0.0241496 -3.93701e-005 -0.0243346 -0.000110236 -0.0244882 -3.93701e-005 -0.0246339 -3.54331e-005 -0.0247441 -3.93701e-005 -0.0248976 -0.000110236 -0.0250039 -3.93701e-005 -0.0250394 -3.54331e-005 -0.0251575 -3.54331e-005 -0.0252283 -3.93701e-005 -0.0252677 -0.000110236 -0.0252677 -3.93701e-005 -0.0253031 0 -0.0253071 -7.08661e-005 -0.0252598 -7.87402e-005 -0.0252677 -7.08661e-005 -0.0252323 0 -0.0251535 -3.93701e-005 -0.0250433 -0.000110236 -0.0250079 -3.93701e-005 -0.0248937 -3.54331e-005 -0.024748 -3.54331e-005 -0.0246339 -0.000114173 -0.0244843 -3.54331e-005 -0.0243346 -3.93701e-005 -0.0241535 -3.54331e-005 -0.0239606 -0.000110236 -0.0237441 -3.93701e-005 -0.0235118 0.240154 0 7.08661e-005 0.0235118 7.87402e-005 0.0237441 0 0.0239606 7.08661e-005 0.0241535 7.87402e-005 0.0243346 7.08661e-005 0.0244843 0 0.0246339 7.48031e-005 0.024748 7.48031e-005 0.0248937 7.48031e-005 0.0250079 0 0.0250433 3.54331e-005 0.0251535 0.000110236 0.0252323 3.93701e-005 0.0252677 3.93701e-005 0.0252598 3.54331e-005 0.0253071 3.54331e-005 0.0253031 0.000114173 0.0252677 3.54331e-005 0.0252677 3.54331e-005 0.0252283 3.93701e-005 0.0251575 7.48031e-005 0.0250394 7.48031e-005 0.0250039 0 0.0248976 7.08661e-005 0.0247441 7.87402e-005 0.0246339 7.08661e-005 0.0244882 0 0.0243346 7.87402e-005 0.0241496 7.08661e-005 0.0239646 7.87402e-005 0.0237402 0 0.0235197 -0.120079 0.120079zm-0.120039 -0.120079l0.240118 0 -0.000149606 0.00617717 -0.000488189 0.00609843 -0.000704724 0.00599213 -0.00111417 0.00591732 -0.00134252 0.00580315 -0.00159843 0.00573228 -0.0018622 0.00554724 -0.00219291 0.0054685 -0.00238189 0.0053189 -0.00264173 0.00517717 -0.0028622 0.00501969 -0.00312992 0.00487402 -0.00338189 0.00472835 -0.0035748 0.00453937 -0.00375984 0.00435039 -0.00394488 0.00417323 -0.00420472 0.00398031 -0.00431496 0.00375591 -0.00453937 0.0035748 -0.00472835 0.00335039 -0.00490945 0.00312205 -0.00498425 0.00286614 -0.00517323 0.0026811 -0.00535827 0.00237795 -0.00543307 0.00215748 -0.00558268 0.00189764 -0.00568898 0.00160236 -0.00580709 0.00133858 -0.00591732 0.00108268 -0.00602756 0.000744094 -0.00606693 0.000480315 -0.0062126 0.000149606 -0.00614173 -0.000149606 -0.00609843 -0.000480315 -0.0060315 -0.000744094 -0.00587795 -0.00108268 -0.00584252 -0.00133858 -0.00568898 -0.00160236 -0.00558268 -0.00189764 -0.00543307 -0.00215748 -0.00535827 -0.00237795 -0.00517323 -0.0026811 -0.00498425 -0.00286614 -0.00491339 -0.00312205 -0.00472835 -0.00335039 -0.0045 -0.0035748 -0.00435433 -0.00375591 -0.00420079 -0.00398031 -0.00398425 -0.00417323 -0.00372047 -0.00435039 -0.0035748 -0.00453937 -0.00334646 -0.00472835 -0.00316535 -0.00487402 -0.0028622 -0.00501969 -0.00267717 -0.00517717 -0.00234646 -0.0053189 -0.00219685 -0.0054685 -0.00185827 -0.00554724 -0.00160236 -0.00573228 -0.00133858 -0.00580315 -0.00107874 -0.00591732 -0.000744094 -0.00599213 -0.000484252 -0.00609843 -0.000149606 -0.00617717z"/>
    <path id="_37868176" class="fil2" d="M5.28425 3.72002l-0.236323 0.0451732 -0.00100394 -0.00609843 -0.000744094 -0.00610236 -0.000330709 -0.00607087 -0.000110236 -0.00598819 0.000220472 -0.00599213 0.000559055 -0.00591732 0.000779528 -0.00584252 0.00107874 -0.00576772 0.00137795 -0.00569291 0.00167323 -0.00557874 0.00189764 -0.00550787 0.00215748 -0.00535827 0.00238583 -0.0052874 0.00264173 -0.00513386 0.00293701 -0.00498425 0.00312598 -0.00487795 0.00335039 -0.00468504 0.00357087 -0.00454331 0.00375984 -0.00435433 0.00401575 -0.00416535 0.00424409 -0.00401575 0.00435433 -0.00376378 0.00461417 -0.00361024 0.00479921 -0.00334646 0.00494882 -0.00316535 0.00513386 -0.00290157 0.0053189 -0.00264173 0.00547244 -0.00241732 0.00561811 -0.00215748 0.00576772 -0.00189764 0.00591732 -0.00160236 0.00606299 -0.00130315 0.00610236 -0.00100394 0.00606693 -0.000704724 0.00610236 -0.000374016 0.00599213 -7.48031e-005 0.00595276 0.000224409 0.00591732 0.000523622 0.00583858 0.000814961 0.00576772 0.00108268 0.00569291 0.00137402 0.00558268 0.0016378 0.00554331 0.00189764 0.00532283 0.00215748 0.0053189 0.00241732 0.00513386 0.00264567 0.00498819 0.00290157 0.00487402 0.00312598 0.00464961 0.00334646 0.00457874 0.0035748 0.00435039 0.00379528 0.00413386 0.00401969 0.00401575 0.00420472 0.00375984 0.00438976 0.00361024 0.00461417 0.00338583 0.00480315 0.00312598 0.00494882 0.00294094 0.00513386 0.00264173 0.00528346 0.00237795 0.0054685 0.00219685 0.00561811 0.00185827 0.00577165 0.00164173 0.00591732 0.00126378 0.00606299zm-0.196209 0.53298l-0.12052 -0.208087 0 0 0.00997244 -0.0063622 0.00807087 -0.00588189 0.00815354 -0.00684646 0.00680709 -0.00755118 0.00662205 -0.00785039 0.00629134 -0.00800394 0.00561811 -0.00952362 0.00550787 -0.00945276 0.00446457 -0.0103071 0.0045 -0.0106063 0.00401969 -0.0112402 0.00361024 -0.0118307 0.00290157 -0.0123189 0.00256693 -0.0122756 0.00193701 -0.0125433 0.00174803 -0.0128346 0.00115354 -0.0119843 0.00111417 -0.0129882 0.000704724 -0.0119843 0.00026378 -0.0114606 -7.48031e-005 -0.0121693 -0.000370079 -0.0104567 -0.000594488 -0.0100787 -0.000783465 -0.00911811 -0.000409449 -0.00859843 -0.000933071 -0.00744094 -0.000925197 -0.0062874 -0.000409449 -0.00498819 -0.000858268 -0.00405512 -0.000185039 -0.00264173 7.08661e-005 -0.000598425 -0.000149606 0.000559055 0.236323 -0.0451732 0.000185039 0.00226772 0.000893701 0.0043189 0.00111417 0.00547244 0.000818898 0.00688189 0.00137795 0.00878346 0.000968504 0.0100079 0.000893701 0.0112362 0.00137795 0.0123937 0.000814961 0.0138071 0.000559055 0.0147717 0.000374016 0.0161142 3.54331e-005 0.0159646 -0.000220472 0.0180039 -0.000708661 0.0186063 -0.00111811 0.0186457 -0.00215748 0.0204685 -0.00271654 0.0203504 -0.00372047 0.0210236 -0.00446457 0.0216614 -0.00569291 0.0217677 -0.00647244 0.0221772 -0.00785433 0.0225472 -0.00915354 0.022815 -0.0110866 0.0225866 -0.0120945 0.022622 -0.0140669 0.0217362 -0.0157402 0.0221378 -0.0178228 0.0210236 -0.0200906 0.0198346 -0.0212835 0.0190551 -0.0240787 0.0181575 -0.0250787 0.0157402zm-0.358996 0.00401575l-0.241047 0 0.122421 -0.120079 -0.000370079 0 0.00103937 -0.000409449 0.00223228 0.000409449 0.00383071 -3.54331e-005 0.00402362 -0.000114173 0.00561811 -0.000185039 0.0061378 -0.000295276 0.0071811 -0.000448819 0.0080748 -0.000594488 0.00900394 -0.000744094 0.00978346 -0.000488189 0.010685 -0.00118504 0.0113465 -0.00141732 0.011685 -0.00118898 0.012311 -0.00193701 0.0133622 -0.00185827 0.0134685 -0.00257087 0.0140276 -0.00248819 0.0140276 -0.00283071 0.0149606 -0.00327559 0.014811 -0.00364567 0.0151063 -0.00364567 0.0155157 -0.0045748 0.0157047 -0.00458268 0.0154055 -0.00554331 0.0155512 -0.00517323 0.0161496 -0.00617323 0.0152913 -0.00673622 0.0157402 -0.00688583 0.0152205 -0.00748031 0.015626 -0.00762598 0.0145512 -0.00829921 0.12052 0.208087 -0.0221024 0.0120945 -0.0212087 0.0114213 -0.0218425 0.010311 -0.0213937 0.0097126 -0.0219213 0.00859449 -0.0207953 0.00803543 -0.0212087 0.008 -0.0211024 0.00651181 -0.0204291 0.00644094 -0.0201299 0.00554331 -0.0198661 0.00550787 -0.0195709 0.00461417 -0.0186811 0.00416535 -0.0187559 0.00379921 -0.017748 0.00346063 -0.0172638 0.00256299 -0.0162244 0.00275591 -0.0160394 0.00193701 -0.0154055 0.00215748 -0.014248 0.00141339 -0.0134685 0.00118898 -0.0126535 0.00145276 -0.0117953 0.000744094 -0.0109409 0.000594488 -0.00997244 0.000448819 -0.00896457 0.000299213 -0.00748031 0.000181102 -0.00688583 0.000114173 -0.00475984 3.54331e-005 -0.00409449 0.000484252 -0.00286614 -0.000484252 -0.00159843 0 0.122421 -0.120083zm-0.241047 0l0 -0.122421 0.122421 0.00234252 -0.122421 0.120079zm0 0.505748l0 -0.505744 0.241047 0 0 0.505744 -0.241047 0zm0 0l0.241047 0 -0.000188976 0.0062126 -0.000484252 0.00610236 -0.000704724 0.0060315 -0.00107874 0.00595276 -0.00137795 0.00580709 -0.00160236 0.00572835 -0.00192913 0.00558268 -0.00212598 0.0054685 -0.00241732 0.00535827 -0.0026811 0.00520866 -0.00289764 0.00502756 -0.00312992 0.00490945 -0.00338583 0.00472441 -0.0035315 0.00454331 -0.00379921 0.00435433 -0.00397638 0.00420472 -0.00424409 0.00397638 -0.00431496 0.00379921 -0.00454331 0.0035748 -0.00472441 0.00338189 -0.00490945 0.00312992 -0.00502756 0.00290157 -0.00524409 0.0026378 -0.00532283 0.00242126 -0.00550787 0.00215748 -0.00553937 0.00189764 -0.00577165 0.0016378 -0.00579921 0.00133858 -0.00592126 0.00108268 -0.00606693 0.000744094 -0.00606299 0.000480315 -0.00625197 0.000149606 -0.00617717 -0.000149606 -0.00610236 -0.000480315 -0.00602362 -0.000744094 -0.00599213 -0.00108268 -0.00576772 -0.00133858 -0.00576772 -0.0016378 -0.00558268 -0.00189764 -0.00543307 -0.00215748 -0.0053937 -0.00242126 -0.0052126 -0.0026378 -0.00498031 -0.00290157 -0.00491732 -0.00312992 -0.00472441 -0.00338189 -0.00453937 -0.0035748 -0.00438976 -0.00379921 -0.00416535 -0.00397638 -0.00398425 -0.00420472 -0.00383071 -0.00435433 -0.0035748 -0.00454331 -0.00338189 -0.00472441 -0.00312992 -0.00490945 -0.00290157 -0.00502756 -0.0026063 -0.00520866 -0.00241732 -0.00535827 -0.00219291 -0.0054685 -0.0018622 -0.00558268 -0.0016378 -0.00572835 -0.00134252 -0.00580709 -0.0010748 -0.00595276 -0.000744094 -0.0060315 -0.000519685 -0.00610236 -0.000114173 -0.0062126z"/>
    <path id="_37865176" class="fil3" d="M1.93396 1.93383c1.14104,-1.14113 2.99111,-1.14113 4.13214,0 1.14104,1.14109 1.14104,2.99124 0,4.13233 -1.14104,1.14112 -2.99111,1.14112 -4.13214,0 -1.14111,-1.14109 -1.14111,-2.99125 0,-4.13233zm0.429591 0.429606c0.903783,-0.90387 2.36915,-0.90387 3.27297,0 0.903791,0.903827 0.903791,2.36925 0,3.27312 -0.903823,0.903862 -2.36919,0.903862 -3.27297,0 -0.903827,-0.90387 -0.903827,-2.36929 0,-3.27312z"/>
   </g>
   <path id="_95695624" class="fil3" d="M6.15648 6.10899l3.14961e-005 0c0.133657,-0.13363 0.352193,-0.13363 0.485811,0l0.562575 0.562559c0.133622,0.13363 0.133657,0.352209 0,0.485835l0 3.54331e-005c-0.133618,0.133591 -0.352224,0.133591 -0.485846,0l-0.562571 -0.562598c-0.133587,-0.133591 -0.133587,-0.352205 0,-0.485831z"/>
  </g>
 </g>
</svg>
